<?xml version="1.0" encoding="utf-8"?>
<!-- Generator: Adobe Illustrator 23.0.2, SVG Export Plug-In . SVG Version: 6.00 Build 0)  -->
<svg version="1.1" xmlns="http://www.w3.org/2000/svg" xmlns:xlink="http://www.w3.org/1999/xlink" x="0px" y="0px"
	 viewBox="0 0 252 252" style="enable-background:new 0 0 252 252;" xml:space="preserve">
<style type="text/css">
	.st0{display:none;}
	.st1{display:inline;fill:#FFFFFF;stroke:#252723;stroke-miterlimit:10;}
	.st2{fill:#FFFFFF;}
	.st3{fill:#DBE9D5;}
	.st4{fill:#FFFFF7;}
	.st5{fill:#EDC5A8;}
	.st6{fill:#D2AF97;}
	.st7{display:inline;fill:none;stroke:#252723;stroke-miterlimit:10;}
</style>
<g id="Bleed" class="st0">
	<circle class="st1" cx="126" cy="126" r="72"/>
</g>
<g id="Background">
</g>
<g id="Image">
	<circle class="st2" cx="126" cy="126" r="57.66"/>
	<circle class="st3" cx="126" cy="126" r="50.01"/>
	<circle class="st2" cx="126" cy="126" r="40.72"/>
	<circle class="st3" cx="126" cy="126" r="36"/>
	<path class="st4" d="M99.21,125.28C99.21,124.59,99.16,125.96,99.21,125.28l-4.19-3.5c-0.04,0.68-0.06,1.36-0.06,2.05
		c0,15.76,10.13,29.15,24.22,34.03l-1.07-4.95C106.39,148.22,99.21,138.67,99.21,125.28z"/>
	<path class="st4" d="M110.43,127.01l-5.01-1.73c1.87,6.77,5.68,12.73,10.79,17.26v-5.97C113.36,133.32,111.77,131.23,110.43,127.01
		z"/>
	<g>
		<g>
			<path class="st5" d="M136.55,108.82l0.02,0.03c0,0,0,0.01,0.01,0.01c0.11,0.24,0.22,0.5,0.33,0.76c0.61,1.56,0.61,1.56,0.91,2.44
				c1.21,3.67,2.28,8.47,2.97,13.8c0.02,0.11,0.04,0.24,0.06,0.36c0.28,1.71,0.5,3.36,0.66,4.96c0,0.04,0.01,0.08,0.02,0.12
				c0.18,1.69,0.3,3.32,0.36,4.84c0.01,0.13,0.01,0.27,0.02,0.41l0,0.01c0.22,5.42-0.29,9.56-1.43,11.17c-0.39,0.79-1,1.42-1.93,1.9
				c-0.17,0.08-0.34,0.15-0.52,0.22c-0.01,0.01-0.03,0.01-0.05,0.01c-4.92,1.88-10.55-0.23-12.96-5.04c-1.23-2.45-1.4-5.16-0.68-7.6
				c0.08-0.24,0.15-0.49,0.24-0.72c-3.22-2.77-6.25-6.69-8.62-11.4c-5.85-11.64-5.37-23.68,1.05-26.91
				c4.63-2.32,11.08,0.56,16.52,6.7C134.58,106.09,135.6,107.4,136.55,108.82"/>
			<path class="st6" d="M123.86,123.98c0.75,0.95,1.54,1.77,2.4,2.47c-1.08-0.26-2.19-0.78-3.27-1.51
				c-1.19-0.81-2.31-1.86-3.34-3.16c-0.38-0.47-0.73-0.98-1.06-1.51c-3.26-5.23-3.15-11.17,0.22-13.28
				c2.34-1.46,5.65-0.68,8.55,1.68c-1.59-0.4-3.11-0.25-4.34,0.52c-3,1.87-3.42,6.8-1.17,11.56c0.27,0.57,0.59,1.16,0.95,1.73
				C123.14,123.01,123.48,123.52,123.86,123.98"/>
			<path class="st6" d="M136.19,142.52c-2.35,1.46-5.66,0.69-8.55-1.67c1.58,0.37,3.1,0.24,4.34-0.54
				c3.02-1.88,3.42-6.78,1.17-11.54c-2.12,0.39-4.63-0.47-6.9-2.32c1.58,0.39,3.09,0.24,4.34-0.54c0.2-0.11,0.38-0.25,0.55-0.4
				c0.33-0.27,0.61-0.59,0.87-0.96c1.19,0.81,2.32,1.88,3.34,3.16c0.37,0.47,0.73,0.99,1.07,1.53
				C139.67,134.48,139.57,140.43,136.19,142.52"/>
			<path class="st6" d="M135.36,127.72c-0.17,0.15-0.35,0.28-0.55,0.41c-0.51,0.31-1.06,0.53-1.65,0.64
				c-2.11,0.4-4.63-0.47-6.89-2.31c1.58,0.39,3.09,0.24,4.34-0.53c0.2-0.12,0.38-0.26,0.55-0.41c0.33-0.28,0.62-0.59,0.87-0.95
				C133.21,125.37,134.34,126.43,135.36,127.72"/>
		</g>
	</g>
</g>
<g id="Text">
	<g>
		<path class="st2" d="M96.72,92.75c-1.16-1.52-0.82-3.68,0.71-4.85c0.64-0.49,1.42-0.74,2.17-0.72c0.31-0.01,0.55,0.25,0.55,0.55
			c0,0.29-0.26,0.54-0.56,0.53c-0.51,0-1.05,0.16-1.5,0.5c-0.54,0.42-0.86,0.98-0.94,1.59c-0.1,0.61,0.04,1.23,0.44,1.75
			c0.38,0.5,0.94,0.8,1.56,0.87c0.6,0.09,1.24-0.07,1.78-0.49c0.38-0.29,0.65-0.67,0.82-1.08l-0.79-1.03l-1.08,0.82
			c-0.23,0.18-0.58,0.13-0.76-0.1c-0.18-0.24-0.13-0.57,0.11-0.75l1.49-1.13c0.01-0.01,0.01-0.01,0.01-0.01
			c0.01-0.01,0.01-0.01,0.01-0.01c0.24-0.18,0.58-0.15,0.76,0.09l1.27,1.67c0.04,0.05,0.05,0.09,0.08,0.15
			c0,0.02,0.01,0.03,0.01,0.05l0.01,0.01c0.03,0.08,0.03,0.18,0,0.29c-0.19,0.73-0.62,1.41-1.27,1.9
			C100.04,94.51,97.87,94.26,96.72,92.75z"/>
		<path class="st2" d="M104.91,90.24c-0.56-0.17-1.06-0.58-1.37-1.16c-0.31-0.57-0.35-1.18-0.21-1.78c0.17-0.6,0.52-1.1,1.1-1.41
			c0.55-0.3,1.19-0.32,1.74-0.12c0.59,0.2,1.07,0.58,1.37,1.15c0.32,0.59,0.38,1.22,0.21,1.79c-0.13,0.58-0.5,1.09-1.06,1.39
			C106.12,90.41,105.5,90.43,104.91,90.24z M104.45,88.58c0.19,0.36,0.46,0.59,0.78,0.73c0.32,0.09,0.65,0.05,0.97-0.12
			c0.29-0.16,0.5-0.41,0.6-0.72c0.08-0.35,0.04-0.7-0.15-1.06c-0.18-0.34-0.46-0.58-0.79-0.69c-0.31-0.07-0.65-0.06-0.94,0.1
			c-0.32,0.17-0.52,0.45-0.63,0.75C104.22,87.88,104.27,88.24,104.45,88.58z"/>
		<path class="st2" d="M110.12,87.64c-0.53-0.25-0.96-0.72-1.19-1.34c-0.22-0.61-0.18-1.22,0.04-1.79c0.25-0.57,0.67-1.02,1.28-1.24
			c0.59-0.22,1.22-0.16,1.74,0.13c0.56,0.28,0.98,0.72,1.2,1.33c0.23,0.62,0.21,1.26-0.05,1.8c-0.21,0.55-0.65,1.01-1.24,1.23
			C111.28,87.98,110.67,87.91,110.12,87.64z M109.89,85.94c0.14,0.38,0.37,0.65,0.67,0.83c0.3,0.13,0.64,0.14,0.98,0.01
			c0.31-0.11,0.55-0.34,0.7-0.63c0.13-0.33,0.14-0.69,0-1.07c-0.13-0.37-0.38-0.64-0.69-0.8c-0.3-0.11-0.63-0.15-0.94-0.04
			c-0.34,0.12-0.58,0.38-0.73,0.65C109.76,85.21,109.76,85.57,109.89,85.94z"/>
		<path class="st2" d="M119.44,85.18c0.06,0.27-0.12,0.55-0.4,0.61c-0.25,0.05-0.48-0.08-0.58-0.3c-0.3,0.32-0.72,0.57-1.18,0.67
			c-1.26,0.26-2.48-0.58-2.75-1.84c-0.27-1.27,0.51-2.55,1.77-2.81c0.46-0.1,0.93-0.04,1.33,0.13l-0.37-1.75
			c-0.06-0.27,0.12-0.55,0.41-0.61c0.28-0.06,0.55,0.13,0.61,0.4l0.77,3.68c0,0,0,0,0,0.01L119.44,85.18z M116.52,82.52
			c-0.33,0.07-0.61,0.27-0.79,0.57c-0.18,0.28-0.25,0.65-0.17,1.02c0.07,0.35,0.28,0.66,0.56,0.84c0.28,0.19,0.62,0.27,0.95,0.2
			c0.34-0.07,0.61-0.27,0.79-0.57c0.18-0.28,0.25-0.65,0.18-1c-0.08-0.37-0.29-0.68-0.57-0.86
			C117.19,82.53,116.86,82.45,116.52,82.52z"/>
		<path class="st2" d="M124.11,84.71l-0.02-5.61c0-0.29,0.23-0.52,0.52-0.52c0.29,0,0.53,0.24,0.53,0.52l0.02,5.08l2.58-0.01
			c0.28,0,0.52,0.24,0.53,0.53c0,0.28-0.25,0.52-0.52,0.52l-3.08,0.01c-0.02,0-0.02,0-0.02,0c-0.01,0-0.01,0-0.01,0
			C124.34,85.23,124.11,85,124.11,84.71z"/>
		<path class="st2" d="M130.64,81.25l-0.34,3.69c-0.03,0.28-0.26,0.49-0.56,0.46c-0.28-0.03-0.49-0.27-0.46-0.56l0.34-3.69
			c0.03-0.3,0.28-0.5,0.56-0.47C130.47,80.71,130.67,80.95,130.64,81.25z M130.8,79.54c-0.03,0.28-0.27,0.5-0.56,0.47
			c-0.28-0.03-0.49-0.28-0.46-0.57l0.02-0.2c0.03-0.28,0.27-0.49,0.56-0.46c0.29,0.03,0.49,0.27,0.46,0.56L130.8,79.54z"/>
		<path class="st2" d="M131.74,84.23c0.21-0.19,0.54-0.16,0.71,0.05c0.21,0.25,0.59,0.54,0.96,0.6c0.25,0.04,0.5,0,0.67-0.06
			c0.15-0.09,0.21-0.18,0.22-0.25c0.01-0.05,0-0.07-0.01-0.1c0-0.03-0.04-0.07-0.1-0.13c-0.11-0.12-0.38-0.27-0.7-0.4l-0.01,0
			c-0.28-0.11-0.55-0.23-0.77-0.39c-0.23-0.17-0.42-0.37-0.55-0.66c-0.07-0.19-0.09-0.4-0.05-0.62c0.08-0.43,0.39-0.75,0.74-0.93
			c0.37-0.17,0.78-0.22,1.21-0.14c0.65,0.12,1.05,0.51,1.31,0.77c0.2,0.19,0.21,0.51,0.03,0.72c-0.19,0.2-0.51,0.21-0.72,0.01
			c-0.26-0.25-0.5-0.45-0.8-0.5c-0.23-0.04-0.45,0-0.59,0.07c-0.14,0.06-0.18,0.14-0.19,0.19c-0.01,0.04-0.01,0.05,0.01,0.08
			c0.01,0.02,0.03,0.06,0.09,0.11c0.11,0.11,0.33,0.23,0.64,0.35l0.01,0.01l0.01,0c0.3,0.11,0.57,0.25,0.82,0.43
			c0.23,0.16,0.45,0.38,0.57,0.67c0.08,0.21,0.11,0.43,0.07,0.65c-0.08,0.46-0.4,0.8-0.78,0.98c-0.38,0.17-0.82,0.24-1.28,0.16
			c-0.73-0.14-1.23-0.58-1.55-0.94C131.51,84.73,131.54,84.41,131.74,84.23z"/>
		<path class="st2" d="M139.52,83.07c-0.08,0.27-0.38,0.43-0.66,0.35l-0.23-0.07l-0.73,2.55c0.28,0.08,0.44,0.37,0.35,0.65
			c-0.08,0.28-0.36,0.44-0.65,0.36c-0.56-0.16-0.88-0.75-0.72-1.31l0.73-2.55l-0.26-0.08c-0.28-0.08-0.44-0.37-0.36-0.65
			c0.08-0.28,0.36-0.44,0.65-0.36l0.26,0.08l0.38-1.32c0.08-0.28,0.37-0.44,0.66-0.35c0.28,0.08,0.44,0.36,0.36,0.65l-0.38,1.32
			l0.23,0.07C139.43,82.5,139.6,82.79,139.52,83.07z"/>
		<path class="st2" d="M140.01,85.13c0.49-1.19,1.83-1.82,3.04-1.33c1.15,0.46,1.71,1.69,1.3,2.9c0,0.01-0.01,0.03-0.02,0.04
			c-0.01,0.02-0.03,0.06-0.04,0.08c-0.11,0.2-0.35,0.27-0.6,0.17l-2.8-1.13c-0.04,0.22-0.03,0.49,0.06,0.7
			c0.1,0.29,0.39,0.59,0.69,0.74c0.31,0.15,0.72,0.23,1,0.15c0.26-0.12,0.61,0.05,0.67,0.24c0.06,0.17,0.05,0.47-0.23,0.57
			c-0.59,0.22-1.19,0.2-1.81-0.06C140.07,87.7,139.53,86.33,140.01,85.13z M141.14,85.09l2.49,1.01c0.05-0.39-0.19-1.09-0.93-1.46
			C141.95,84.37,141.36,84.75,141.14,85.09z"/>
		<path class="st2" d="M149.38,89.22l-1.13,1.97c-0.14,0.24-0.44,0.33-0.68,0.19c-0.23-0.13-0.32-0.45-0.18-0.69l1.13-1.97
			c0.27-0.46,0.09-1.06-0.38-1.33c-0.46-0.27-1.04-0.1-1.3,0.36l-1.13,1.97c-0.01,0.02-0.03,0.05-0.06,0.07
			c-0.16,0.17-0.43,0.23-0.64,0.1c-0.25-0.14-0.32-0.45-0.19-0.69l1.13-1.97l0.74-1.28c0.14-0.24,0.44-0.33,0.69-0.18
			c0.17,0.1,0.27,0.29,0.26,0.49c0.34-0.01,0.7,0.06,1.02,0.25C149.6,87.07,149.91,88.29,149.38,89.22z"/>
		<path class="st2" d="M150.56,90.47c0.8-1.01,2.26-1.25,3.29-0.45c0.97,0.76,1.18,2.09,0.45,3.15c-0.01,0.01-0.02,0.02-0.03,0.04
			c-0.01,0.02-0.04,0.05-0.06,0.06c-0.16,0.16-0.41,0.16-0.62,0l-2.38-1.86c-0.1,0.2-0.17,0.46-0.13,0.69
			c0.02,0.3,0.21,0.67,0.46,0.9c0.25,0.23,0.63,0.42,0.93,0.42c0.29-0.04,0.58,0.22,0.58,0.42c0.02,0.18-0.08,0.46-0.38,0.49
			c-0.63,0.05-1.19-0.14-1.73-0.55C149.9,92.96,149.77,91.49,150.56,90.47z M151.66,90.74l2.12,1.65c0.16-0.36,0.12-1.1-0.49-1.66
			C152.63,90.26,151.96,90.48,151.66,90.74z"/>
		<path class="st2" d="M158.62,94.98c-0.19,0.19-0.51,0.21-0.71,0.01c-0.16-0.15-0.33-0.25-0.53-0.27
			c-0.21-0.05-0.42-0.03-0.63,0.02c-0.38,0.06-0.71,0.24-0.84,0.3l-1.26,1.29c-0.19,0.2-0.52,0.19-0.73-0.01
			c-0.2-0.19-0.2-0.52-0.01-0.71l2.62-2.68c0.19-0.2,0.51-0.19,0.71,0c0.2,0.2,0.22,0.52,0.03,0.72l-0.05,0.05
			c0.09-0.01,0.19-0.01,0.28,0c0.37,0.07,0.78,0.23,1.12,0.57C158.81,94.47,158.81,94.78,158.62,94.98z"/>
	</g>
	<g>
		<path d="M96.06,92.75c-1.16-1.52-0.82-3.68,0.71-4.85c0.64-0.49,1.42-0.74,2.17-0.72c0.31-0.01,0.55,0.25,0.55,0.55
			c0,0.29-0.26,0.54-0.56,0.53c-0.51,0-1.05,0.16-1.5,0.5c-0.54,0.42-0.86,0.98-0.94,1.59c-0.1,0.61,0.04,1.23,0.44,1.75
			c0.38,0.5,0.94,0.8,1.56,0.87c0.6,0.09,1.24-0.07,1.78-0.49c0.38-0.29,0.65-0.67,0.82-1.08l-0.79-1.03l-1.08,0.82
			c-0.23,0.18-0.58,0.13-0.76-0.1c-0.18-0.24-0.13-0.57,0.11-0.75l1.49-1.13c0.01-0.01,0.01-0.01,0.01-0.01
			c0.01-0.01,0.01-0.01,0.01-0.01c0.24-0.18,0.58-0.15,0.76,0.09l1.27,1.67c0.04,0.05,0.05,0.09,0.08,0.15
			c0,0.02,0.01,0.03,0.01,0.05l0.01,0.01c0.03,0.08,0.03,0.18,0,0.29c-0.19,0.73-0.62,1.41-1.27,1.9
			C99.38,94.51,97.21,94.26,96.06,92.75z"/>
		<path d="M104.25,90.24c-0.56-0.17-1.06-0.58-1.37-1.16c-0.31-0.57-0.35-1.18-0.21-1.78c0.17-0.6,0.52-1.1,1.1-1.41
			c0.55-0.3,1.19-0.32,1.74-0.12c0.59,0.2,1.07,0.58,1.37,1.15c0.32,0.59,0.38,1.22,0.21,1.79c-0.13,0.58-0.5,1.09-1.06,1.39
			C105.46,90.41,104.84,90.43,104.25,90.24z M103.8,88.58c0.19,0.36,0.46,0.59,0.78,0.73c0.32,0.09,0.65,0.05,0.97-0.12
			c0.29-0.16,0.5-0.41,0.6-0.72c0.08-0.35,0.04-0.7-0.15-1.06c-0.18-0.34-0.46-0.58-0.79-0.69c-0.31-0.07-0.65-0.06-0.94,0.1
			c-0.32,0.17-0.52,0.45-0.63,0.75C103.56,87.88,103.61,88.24,103.8,88.58z"/>
		<path d="M109.46,87.64c-0.53-0.25-0.96-0.72-1.19-1.34c-0.22-0.61-0.18-1.22,0.04-1.79c0.25-0.57,0.67-1.02,1.28-1.24
			c0.59-0.22,1.22-0.16,1.74,0.13c0.56,0.28,0.98,0.72,1.2,1.33c0.23,0.62,0.21,1.26-0.05,1.8c-0.21,0.55-0.65,1.01-1.24,1.23
			C110.62,87.98,110.01,87.91,109.46,87.64z M109.24,85.94c0.14,0.38,0.37,0.65,0.67,0.83c0.3,0.13,0.64,0.14,0.98,0.01
			c0.31-0.11,0.55-0.34,0.7-0.63c0.13-0.33,0.14-0.69,0-1.07c-0.13-0.37-0.38-0.64-0.69-0.8c-0.3-0.11-0.63-0.15-0.94-0.04
			c-0.34,0.12-0.58,0.38-0.73,0.65C109.1,85.21,109.1,85.57,109.24,85.94z"/>
		<path d="M118.78,85.18c0.06,0.27-0.12,0.55-0.4,0.61c-0.25,0.05-0.48-0.08-0.58-0.3c-0.3,0.32-0.72,0.57-1.18,0.67
			c-1.26,0.26-2.48-0.58-2.75-1.84c-0.27-1.27,0.51-2.55,1.77-2.81c0.46-0.1,0.93-0.04,1.33,0.13l-0.37-1.75
			c-0.06-0.27,0.12-0.55,0.41-0.61c0.28-0.06,0.55,0.13,0.61,0.4l0.77,3.68c0,0,0,0,0,0.01L118.78,85.18z M115.86,82.52
			c-0.33,0.07-0.61,0.27-0.79,0.57c-0.18,0.28-0.25,0.65-0.17,1.02c0.07,0.35,0.28,0.66,0.56,0.84c0.28,0.19,0.62,0.27,0.95,0.2
			c0.34-0.07,0.61-0.27,0.79-0.57c0.18-0.28,0.25-0.65,0.18-1c-0.08-0.37-0.29-0.68-0.57-0.86
			C116.53,82.53,116.21,82.45,115.86,82.52z"/>
		<path d="M123.46,84.71l-0.02-5.61c0-0.29,0.23-0.52,0.52-0.52c0.29,0,0.53,0.24,0.53,0.52l0.02,5.08l2.58-0.01
			c0.28,0,0.52,0.24,0.52,0.53c0,0.28-0.25,0.52-0.52,0.52l-3.08,0.01c-0.02,0-0.02,0-0.02,0c-0.01,0-0.01,0-0.01,0
			C123.69,85.23,123.46,85,123.46,84.71z"/>
		<path d="M129.99,81.25l-0.34,3.69c-0.03,0.28-0.26,0.49-0.56,0.46c-0.28-0.03-0.49-0.27-0.46-0.56l0.34-3.69
			c0.03-0.3,0.28-0.5,0.56-0.47C129.82,80.71,130.02,80.95,129.99,81.25z M130.15,79.54c-0.03,0.28-0.27,0.5-0.56,0.47
			c-0.28-0.03-0.49-0.28-0.46-0.57l0.02-0.2c0.03-0.28,0.27-0.49,0.56-0.46c0.29,0.03,0.49,0.27,0.46,0.56L130.15,79.54z"/>
		<path d="M131.08,84.23c0.21-0.19,0.54-0.16,0.72,0.05c0.21,0.25,0.59,0.54,0.96,0.6c0.25,0.04,0.5,0,0.67-0.06
			c0.15-0.09,0.21-0.18,0.22-0.25c0.01-0.05,0-0.07-0.01-0.1c0-0.03-0.04-0.07-0.1-0.13c-0.11-0.12-0.38-0.27-0.7-0.4l-0.01,0
			c-0.28-0.11-0.55-0.23-0.77-0.39c-0.23-0.17-0.42-0.37-0.55-0.66c-0.07-0.19-0.09-0.4-0.05-0.62c0.08-0.43,0.38-0.75,0.74-0.93
			c0.37-0.17,0.78-0.22,1.21-0.14c0.65,0.12,1.05,0.51,1.31,0.77c0.2,0.19,0.21,0.51,0.03,0.72c-0.19,0.2-0.51,0.21-0.72,0.01
			c-0.26-0.25-0.5-0.45-0.8-0.5c-0.23-0.04-0.45,0-0.59,0.07c-0.14,0.06-0.18,0.14-0.19,0.19c-0.01,0.04-0.01,0.05,0.01,0.08
			c0.01,0.02,0.03,0.06,0.09,0.11c0.11,0.11,0.33,0.23,0.64,0.35l0.01,0.01l0.01,0c0.3,0.11,0.57,0.25,0.82,0.43
			c0.23,0.16,0.45,0.38,0.57,0.67c0.08,0.21,0.11,0.43,0.07,0.65c-0.08,0.46-0.4,0.8-0.78,0.98c-0.38,0.17-0.82,0.24-1.28,0.16
			c-0.73-0.14-1.23-0.58-1.55-0.94C130.85,84.73,130.88,84.41,131.08,84.23z"/>
		<path d="M138.86,83.07c-0.08,0.27-0.38,0.43-0.66,0.35l-0.23-0.07l-0.73,2.55c0.28,0.08,0.44,0.37,0.35,0.65
			c-0.08,0.28-0.36,0.44-0.65,0.36c-0.56-0.16-0.88-0.75-0.72-1.31l0.73-2.55l-0.26-0.08c-0.28-0.08-0.44-0.37-0.36-0.65
			c0.08-0.28,0.36-0.44,0.65-0.36l0.26,0.08l0.38-1.32c0.08-0.28,0.37-0.44,0.66-0.35c0.28,0.08,0.44,0.36,0.36,0.65l-0.38,1.32
			l0.23,0.07C138.77,82.5,138.95,82.79,138.86,83.07z"/>
		<path d="M139.35,85.13c0.49-1.19,1.83-1.82,3.04-1.33c1.15,0.46,1.71,1.69,1.3,2.9c0,0.01-0.01,0.03-0.02,0.04
			c-0.01,0.02-0.03,0.06-0.04,0.08c-0.11,0.2-0.35,0.27-0.6,0.17l-2.8-1.13c-0.04,0.22-0.03,0.49,0.06,0.7
			c0.1,0.29,0.39,0.59,0.69,0.74c0.31,0.15,0.72,0.23,1,0.15c0.26-0.12,0.61,0.05,0.67,0.24c0.06,0.17,0.05,0.47-0.23,0.57
			c-0.59,0.22-1.19,0.2-1.81-0.06C139.41,87.7,138.88,86.33,139.35,85.13z M140.49,85.09l2.49,1.01c0.05-0.39-0.19-1.09-0.93-1.46
			C141.29,84.37,140.7,84.75,140.49,85.09z"/>
		<path d="M148.72,89.22l-1.13,1.97c-0.14,0.24-0.44,0.33-0.68,0.19c-0.23-0.13-0.32-0.45-0.18-0.69l1.13-1.97
			c0.27-0.46,0.09-1.06-0.38-1.33c-0.46-0.27-1.04-0.1-1.3,0.36l-1.13,1.97c-0.01,0.02-0.03,0.05-0.06,0.07
			c-0.16,0.17-0.43,0.23-0.64,0.1c-0.25-0.14-0.32-0.45-0.19-0.69l1.13-1.97l0.74-1.28c0.14-0.24,0.44-0.33,0.69-0.18
			c0.17,0.1,0.27,0.29,0.26,0.49c0.34-0.01,0.7,0.06,1.02,0.25C148.94,87.07,149.26,88.29,148.72,89.22z"/>
		<path d="M149.9,90.47c0.8-1.01,2.26-1.25,3.29-0.45c0.97,0.76,1.18,2.09,0.45,3.15c-0.01,0.01-0.02,0.02-0.03,0.04
			c-0.01,0.02-0.04,0.05-0.06,0.06c-0.16,0.16-0.41,0.16-0.62,0l-2.38-1.86c-0.1,0.2-0.17,0.46-0.13,0.69
			c0.02,0.3,0.21,0.67,0.46,0.9c0.25,0.23,0.63,0.42,0.93,0.42c0.29-0.04,0.58,0.22,0.58,0.42c0.02,0.18-0.08,0.46-0.38,0.49
			c-0.63,0.05-1.19-0.14-1.73-0.55C149.25,92.96,149.11,91.49,149.9,90.47z M151,90.74l2.12,1.65c0.16-0.36,0.12-1.1-0.49-1.66
			C151.97,90.26,151.3,90.48,151,90.74z"/>
		<path d="M157.96,94.98c-0.19,0.19-0.51,0.21-0.71,0.01c-0.16-0.15-0.33-0.25-0.53-0.27c-0.21-0.05-0.42-0.03-0.63,0.02
			c-0.38,0.06-0.71,0.24-0.84,0.3l-1.26,1.29c-0.19,0.2-0.52,0.19-0.73-0.01c-0.2-0.19-0.2-0.52-0.01-0.71l2.62-2.68
			c0.19-0.2,0.51-0.19,0.71,0c0.2,0.2,0.22,0.52,0.03,0.72l-0.05,0.05c0.09-0.01,0.19-0.01,0.28,0c0.37,0.07,0.78,0.23,1.12,0.57
			C158.15,94.47,158.15,94.78,157.96,94.98z"/>
	</g>
</g>
<g id="Safe_Area" class="st0">
	<circle class="st7" cx="126" cy="126" r="54"/>
</g>
</svg>
