<?xml version="1.0" encoding="utf-8"?>
<!-- Generator: Adobe Illustrator 23.0.2, SVG Export Plug-In . SVG Version: 6.00 Build 0)  -->
<svg version="1.1" xmlns="http://www.w3.org/2000/svg" xmlns:xlink="http://www.w3.org/1999/xlink" x="0px" y="0px"
	 viewBox="0 0 252 252" style="enable-background:new 0 0 252 252;" xml:space="preserve">
<style type="text/css">
	.st0{display:none;}
	.st1{display:inline;fill:#FFFFFF;stroke:#252723;stroke-miterlimit:10;}
	.st2{fill:#FFFFFF;}
	.st3{fill:#D5F1F6;}
	.st4{clip-path:url(#SVGID_2_);fill:#FFFFFF;}
	.st5{fill:#D87E75;}
	.st6{clip-path:url(#SVGID_4_);fill:#928344;}
	.st7{clip-path:url(#SVGID_4_);fill:#212020;}
	.st8{clip-path:url(#SVGID_4_);fill:#FFFFFF;}
	.st9{fill:#DE957F;}
	.st10{fill:#DA855E;}
	.st11{fill:#936F26;}
	.st12{fill:#795C20;}
	.st13{clip-path:url(#SVGID_6_);fill:#AF9A4F;}
	.st14{clip-path:url(#SVGID_6_);fill:#928344;}
	.st15{display:inline;fill:none;stroke:#252723;stroke-miterlimit:10;}
</style>
<g id="Bleed" class="st0">
	<circle class="st1" cx="126" cy="126" r="72"/>
</g>
<g id="Background">
</g>
<g id="Image">
	<circle class="st2" cx="126" cy="126" r="57.66"/>
	<circle class="st3" cx="126" cy="126" r="50.01"/>
	<circle class="st2" cx="126" cy="126" r="45.64"/>
	<circle class="st3" cx="120.01" cy="126.69" r="44.02"/>
	<circle class="st2" cx="126" cy="126" r="40.72"/>
	<circle class="st3" cx="126" cy="126" r="36"/>
	<circle class="st2" cx="121.72" cy="127.63" r="31.72"/>
	<g>
		<g>
			<defs>
				<rect id="SVGID_1_" x="98.99" y="105.5" width="54.03" height="41.01"/>
			</defs>
			<clipPath id="SVGID_2_">
				<use xlink:href="#SVGID_1_"  style="overflow:visible;"/>
			</clipPath>
			<path class="st4" d="M112.61,121.87c0.53,1.55-0.43,3.27-2.16,3.84c-1.73,0.57-3.56-0.23-4.09-1.78
				c-0.53-1.55,0.43-3.27,2.16-3.84S112.07,120.32,112.61,121.87"/>
			<path class="st4" d="M124.36,122c0.53,1.55-0.44,3.27-2.16,3.84c-1.73,0.57-3.56-0.23-4.09-1.78c-0.53-1.55,0.43-3.27,2.16-3.84
				S123.82,120.45,124.36,122"/>
			<path class="st4" d="M124.41,128.8c0,4.32-4.03,7.83-9.01,7.83c-4.97,0-9.01-3.5-9.01-7.83c0-4.32,4.03-7.83,9.01-7.83
				C120.38,120.97,124.41,124.47,124.41,128.8"/>
		</g>
		<polygon class="st5" points="130.93,129.68 153.01,115.37 130.93,106.65 		"/>
		<g>
			<defs>
				<rect id="SVGID_3_" x="98.99" y="105.5" width="54.03" height="41.01"/>
			</defs>
			<clipPath id="SVGID_4_">
				<use xlink:href="#SVGID_3_"  style="overflow:visible;"/>
			</clipPath>
			<path class="st6" d="M139.32,137.45c0,5-9.03,9.06-20.17,9.06c-11.14,0-20.17-4.06-20.17-9.06c0-1.77,1.14-3.42,3.1-4.82
				c3.38,2.87,10.1,4.82,17.83,4.82c7.19,0,13.5-1.69,17.07-4.23C138.48,134.48,139.32,135.92,139.32,137.45"/>
			<path class="st7" d="M106.58,129.04c0.01-0.35,0.04-0.68,0.09-1.02c0.48,3.95,4.18,7.07,8.74,7.17c4.56,0.09,8.39-2.88,9.03-6.81
				c0.04,0.34,0.06,0.68,0.05,1.02c-0.09,4.42-4.18,7.93-9.13,7.83C110.42,137.13,106.49,133.46,106.58,129.04"/>
			<path class="st7" d="M113.46,128.41c-0.05,2.57-2.22,4.6-4.84,4.55c-2.62-0.05-4.7-2.18-4.64-4.74c0.06-2.57,2.22-4.6,4.84-4.55
				C111.44,123.72,113.52,125.84,113.46,128.41"/>
			<path class="st8" d="M111.91,129.96c-0.03,1.26-1.09,2.25-2.37,2.23s-2.3-1.07-2.27-2.32c0.03-1.26,1.09-2.25,2.37-2.23
				C110.92,127.66,111.94,128.7,111.91,129.96"/>
			<path class="st7" d="M117.15,133.22c0,0.33-0.74,0.6-1.66,0.6c-0.91,0-1.65-0.27-1.65-0.6s0.74-0.6,1.65-0.6
				C116.41,132.62,117.15,132.89,117.15,133.22"/>
			<path class="st7" d="M119.58,118.64c1.57-0.91,3.72-0.21,4.8,1.58c0.87,1.43,0.79,3.12-0.08,4.2c-0.08-0.51-0.27-1.02-0.56-1.5
				c-1.08-1.78-3.23-2.49-4.8-1.58c-0.31,0.18-0.58,0.42-0.8,0.69C117.91,120.66,118.43,119.31,119.58,118.64"/>
			<path class="st7" d="M105.73,121.24c0.4-1.7,2.14-2.76,3.88-2.37c1.39,0.32,2.36,1.47,2.49,2.79c-0.36-0.27-0.78-0.47-1.24-0.58
				c-1.74-0.39-3.47,0.67-3.88,2.37c-0.08,0.34-0.1,0.68-0.07,1.01C105.93,123.73,105.43,122.49,105.73,121.24"/>
			<path class="st7" d="M123.61,124.86c0,0.29-0.07,0.58-0.21,0.85c-0.83-1.75-4.2-3.05-8.22-3.05c-4.02,0-7.39,1.3-8.22,3.05
				c-0.14-0.27-0.21-0.56-0.21-0.85c0-2.15,3.77-3.89,8.42-3.89C119.84,120.97,123.61,122.71,123.61,124.86"/>
			<path class="st7" d="M118.02,128.22c-0.05,2.57,2.03,4.69,4.64,4.74c2.62,0.05,4.79-1.98,4.84-4.55
				c0.05-2.57-2.03-4.69-4.64-4.74C120.24,123.61,118.08,125.65,118.02,128.22"/>
			<path class="st8" d="M121.54,129.87c-0.03,1.26,0.99,2.3,2.27,2.32s2.34-0.97,2.37-2.23c0.03-1.26-0.99-2.29-2.27-2.32
				S121.57,128.61,121.54,129.87"/>
		</g>
		<polygon class="st9" points="129.33,105.58 147.62,113.22 129.33,129.11 		"/>
		<polygon class="st10" points="129.56,105.89 136.85,122.67 129.26,129.01 		"/>
		<polygon class="st11" points="129.22,105.5 129.22,138.05 132.16,138.05 132.38,106.82 		"/>
		<polygon class="st12" points="131.75,136.62 132.16,138.05 132.38,106.82 129.22,105.5 		"/>
		<g>
			<defs>
				<rect id="SVGID_5_" x="98.99" y="105.5" width="54.03" height="41.01"/>
			</defs>
			<clipPath id="SVGID_6_">
				<use xlink:href="#SVGID_5_"  style="overflow:visible;"/>
			</clipPath>
			<path class="st13" d="M139.32,135.93c0,5-9.03,9.06-20.17,9.06c-11.14,0-20.17-4.06-20.17-9.06c0-1.77,1.14-3.42,3.1-4.82
				c3.38,2.87,10.1,4.82,17.83,4.82c7.19,0,13.5-1.69,17.07-4.23C138.48,132.96,139.32,134.4,139.32,135.93"/>
			<path class="st14" d="M138.23,137.71c0,2.94-8.79,5.33-19.62,5.33c-10.83,0-19.62-2.38-19.62-5.33c0-1.04,1.1-2.01,3.01-2.84
				c3.29,1.69,9.83,2.84,17.35,2.84c7,0,13.14-0.99,16.61-2.49C137.41,135.96,138.23,136.81,138.23,137.71"/>
			<path class="st13" d="M135.96,137.63c0,2.49-8.28,4.52-18.49,4.52c-10.21,0-18.49-2.02-18.49-4.52c0-0.88,1.04-1.71,2.84-2.41
				c3.1,1.43,9.26,2.41,16.35,2.41c6.59,0,12.38-0.84,15.65-2.11C135.19,136.15,135.96,136.86,135.96,137.63"/>
			<path class="st14" d="M129.22,137.08c0,2.02-6.77,3.66-15.12,3.66c-8.35,0-15.11-1.64-15.11-3.66c0-0.71,0.85-1.38,2.32-1.95
				c2.53,1.16,7.57,1.95,13.37,1.95c5.39,0,10.12-0.68,12.8-1.71C128.59,135.88,129.22,136.46,129.22,137.08"/>
			<path class="st13" d="M124.7,137.84c0,1.26-5.75,2.28-12.86,2.28c-7.1,0-12.85-1.02-12.85-2.28c0-0.45,0.72-0.86,1.97-1.22
				c2.15,0.72,6.44,1.22,11.37,1.22c4.58,0,8.61-0.43,10.88-1.07C124.16,137.09,124.7,137.46,124.7,137.84"/>
			<path class="st14" d="M133.59,136.09c0.17,0.49-0.41,1.13-1.3,1.42c-0.89,0.29-1.75,0.13-1.92-0.36
				c-0.17-0.49,0.42-1.13,1.3-1.42C132.56,135.44,133.42,135.6,133.59,136.09"/>
		</g>
	</g>
</g>
<g id="Text">
</g>
<g id="Safe_Area" class="st0">
	<circle class="st15" cx="126" cy="126" r="54"/>
</g>
</svg>
