<?xml version="1.0" encoding="utf-8"?>
<!-- Generator: Adobe Illustrator 23.0.2, SVG Export Plug-In . SVG Version: 6.00 Build 0)  -->
<svg version="1.1" xmlns="http://www.w3.org/2000/svg" xmlns:xlink="http://www.w3.org/1999/xlink" x="0px" y="0px"
	 viewBox="0 0 252 252" style="enable-background:new 0 0 252 252;" xml:space="preserve">
<style type="text/css">
	.st0{display:none;}
	.st1{display:inline;fill:#FFFFFF;stroke:#252723;stroke-miterlimit:10;}
	.st2{fill:#FFFFFF;}
	.st3{fill:#C8D9EB;}
	.st4{clip-path:url(#SVGID_2_);fill:#6F8392;}
	.st5{clip-path:url(#SVGID_2_);fill:#93AFD6;}
	.st6{clip-path:url(#SVGID_2_);fill:#C8D9EB;}
	.st7{fill:#BBDDF7;}
	.st8{display:inline;fill:none;stroke:#252723;stroke-miterlimit:10;}
</style>
<g id="Bleed" class="st0">
	<circle class="st1" cx="126" cy="126" r="72"/>
</g>
<g id="Background">
</g>
<g id="Image">
	<circle class="st2" cx="126" cy="126" r="57.66"/>
	<circle class="st3" cx="126" cy="126" r="50.01"/>
	<circle class="st2" cx="126" cy="126" r="45.64"/>
	<circle class="st3" cx="120.01" cy="126.69" r="44.02"/>
	<circle class="st2" cx="126" cy="126" r="40.72"/>
	<circle class="st3" cx="126" cy="126" r="36"/>
	<circle class="st2" cx="121.72" cy="127.63" r="31.72"/>
	<g>
		<defs>
			<rect id="SVGID_1_" x="94.76" y="111.39" width="51.54" height="30.6"/>
		</defs>
		<clipPath id="SVGID_2_">
			<use xlink:href="#SVGID_1_"  style="overflow:visible;"/>
		</clipPath>
		<path class="st4" d="M119.12,131.9l-22.14,0.03c6.24-3.26,12.15-10.43,15.52-19.76c0.09-0.26,0.19-0.52,0.27-0.78
			c0.16,2.75,0.6,5.6,1.33,8.49C115.25,124.37,116.99,128.44,119.12,131.9"/>
		<path class="st4" d="M132.67,131.91l-22.48,0.02c6.33-3.26,12.33-10.42,15.76-19.76c0.09-0.26,0.19-0.52,0.27-0.78
			c0.16,2.75,0.61,5.6,1.36,8.49C128.73,124.37,130.5,128.45,132.67,131.91"/>
		<path class="st4" d="M146.3,131.91l-22.48,0.02c6.33-3.26,12.33-10.42,15.75-19.76c0.09-0.26,0.19-0.52,0.28-0.78
			c0.16,2.75,0.61,5.6,1.35,8.49C142.37,124.37,144.13,128.45,146.3,131.91"/>
		<path class="st5" d="M116.91,141.96l-22.14,0.03c6.24-3.26,12.15-10.43,15.53-19.76c0.09-0.26,0.19-0.52,0.27-0.78
			c0.16,2.75,0.6,5.6,1.33,8.49C113.03,134.42,114.77,138.5,116.91,141.96"/>
		<path class="st5" d="M130.45,141.97l-22.48,0.02c6.33-3.26,12.33-10.42,15.75-19.76c0.09-0.26,0.19-0.52,0.28-0.78
			c0.16,2.75,0.61,5.6,1.35,8.49C126.51,134.43,128.28,138.51,130.45,141.97"/>
		<path class="st5" d="M144.08,141.97l-22.48,0.02c6.33-3.26,12.33-10.42,15.75-19.76c0.09-0.26,0.19-0.52,0.27-0.78
			c0.16,2.75,0.61,5.6,1.36,8.49C140.15,134.43,141.91,138.51,144.08,141.97"/>
		<path class="st6" d="M137,137.82c-0.32,1.38-0.96,2.78-1.94,4.17h-7c0.73-0.51,1.42-1.06,2.06-1.62c1.52-1.32,2.72-2.68,3.59-4.05
			c1.24-1.9,1.86-3.83,1.9-5.67C137.14,132.8,137.62,135.27,137,137.82"/>
		<path class="st6" d="M124.03,136.79c-0.41,1.71-1.24,3.46-2.51,5.2h-9.07c0.95-0.64,1.83-1.32,2.67-2.02
			c1.97-1.64,3.52-3.34,4.65-5.04c1.61-2.37,2.41-4.77,2.46-7.06C124.2,130.54,124.83,133.61,124.03,136.79"/>
		<path class="st6" d="M110.47,137.31c-0.43,1.55-1.31,3.12-2.65,4.68h-9.59c1-0.58,1.94-1.19,2.83-1.82
			c2.09-1.48,3.73-3.01,4.92-4.55c1.7-2.14,2.55-4.3,2.6-6.36C110.66,131.67,111.32,134.44,110.47,137.31"/>
	</g>
	<polygon class="st7" points="126.13,116.02 128.43,127.77 127.57,131.02 125.28,119.27 	"/>
	<polygon class="st7" points="140.2,117.95 141.57,128.29 140,131.11 138.97,122.52 	"/>
	<polygon class="st7" points="112.6,118.78 114.18,126.86 112.98,129.22 111.4,121.13 	"/>
	<polygon class="st7" points="105.09,127.29 105.09,131.14 100.08,131.14 	"/>
	<polygon class="st7" points="142.48,126.26 141.86,131.39 145.03,131.29 	"/>
	<polygon class="st7" points="131.11,128.05 132.33,130.66 136.66,122.12 	"/>
	<polygon class="st7" points="131.91,131.27 128.29,131.39 129.43,127.18 	"/>
	<polygon class="st7" points="119.87,127.87 114.71,128.5 113.07,131.02 117.9,130.83 	"/>
	<polygon class="st7" points="121.6,122.72 118.04,127.18 120.92,126.89 	"/>
	<polygon class="st7" points="122.53,123.26 121.81,122.12 125.81,114.28 125.03,117.67 	"/>
	<polygon class="st7" points="139.52,114.51 139.78,116.02 138.63,118.63 138.4,121.93 137.91,120.05 135.17,122.72 	"/>
	<polygon class="st7" points="105.74,129.92 106.32,126.42 105.09,126.47 107.18,124.27 109.14,123.52 	"/>
	<polygon class="st7" points="113.09,118.05 112.03,118.59 111.89,115.74 112.51,113.61 	"/>
</g>
<g id="Text">
</g>
<g id="Safe_Area" class="st0">
	<circle class="st8" cx="126" cy="126" r="54"/>
</g>
</svg>
