<?xml version="1.0" encoding="utf-8"?>
<!-- Generator: Adobe Illustrator 23.0.2, SVG Export Plug-In . SVG Version: 6.00 Build 0)  -->
<svg version="1.1" xmlns="http://www.w3.org/2000/svg" xmlns:xlink="http://www.w3.org/1999/xlink" x="0px" y="0px"
	 viewBox="0 0 252 252" style="enable-background:new 0 0 252 252;" xml:space="preserve">
<style type="text/css">
	.st0{display:none;}
	.st1{display:inline;fill:#FFFFFF;stroke:#252723;stroke-miterlimit:10;}
	.st2{fill:#FFFFFF;}
	.st3{fill:#D5D3E9;}
	.st4{fill:#FFFFF7;}
	.st5{fill:#666767;}
	.st6{fill:#9A446E;}
	.st7{fill:#CE5690;}
	.st8{display:inline;fill:none;stroke:#252723;stroke-miterlimit:10;}
</style>
<g id="Bleed" class="st0">
	<circle class="st1" cx="126" cy="126" r="72"/>
</g>
<g id="Background">
</g>
<g id="Image">
	<circle class="st2" cx="126" cy="126" r="57.66"/>
	<circle class="st3" cx="126" cy="126" r="50.01"/>
	<circle class="st2" cx="126" cy="126" r="40.72"/>
	<circle class="st3" cx="126" cy="126" r="36"/>
	<path class="st4" d="M99.21,125.28C99.21,124.59,99.16,125.96,99.21,125.28l-4.19-3.5c-0.04,0.68-0.06,1.36-0.06,2.05
		c0,15.76,10.13,29.15,24.22,34.03l-1.07-4.95C106.39,148.22,99.21,138.67,99.21,125.28z"/>
	<path class="st4" d="M110.43,127.01l-5.01-1.73c1.87,6.77,5.68,12.73,10.79,17.26v-5.97C113.36,133.32,111.77,131.23,110.43,127.01
		z"/>
	<g>
		<g>
			<path class="st5" d="M135.51,108.7c0.02,0.02,0.05,0.04,0.08,0.05l-0.06-0.01L135.51,108.7z"/>
			<path class="st5" d="M135.59,108.72l-0.03,0.03l-0.06-0.01C135.53,108.73,135.56,108.73,135.59,108.72"/>
			<path class="st2" d="M150.8,113.91c0.49,3.25-7.4,7.13-17.61,8.67c-10.22,1.54-18.9,0.15-19.38-3.1
				c-0.49-3.25,7.4-7.13,17.61-8.67C141.63,109.27,150.31,110.66,150.8,113.91"/>
			<path class="st6" d="M150.45,112.15c1.52,8.7-5.81,17.25-16.37,19.1c-10.56,1.85-20.36-3.71-21.89-12.4
				c-0.23-1.3-0.26-2.59-0.11-3.86c0.29,0.8,0.7,1.52,1.23,2.18c1.54,3.69,9.62,5.38,18.82,3.78c8.42-1.47,15.02-5.23,16.23-8.94
				c0.55-1.09,0.87-2.28,0.87-3.51C149.81,109.62,150.22,110.84,150.45,112.15"/>
			<path class="st7" d="M151.98,107.25c0.19,1.09-0.3,2.22-1.28,3.25c-1.68,2.55-9.48,5.59-19.14,7.28
				c-10.54,1.85-19.55,1.42-20.98-0.88c-0.81-0.58-1.35-1.31-1.5-2.15c-0.51-2.93,3.86-6.14,9.79-7.18c3.65-0.64,7.04-0.3,9.22,0.74
				c1.36,0.65,2.24,1.56,2.44,2.69c-0.2-1.12,0.32-2.28,1.37-3.35c1.69-1.71,4.76-3.19,8.42-3.83
				C146.26,102.79,151.47,104.32,151.98,107.25"/>
		</g>
	</g>
</g>
<g id="Text">
	<g>
		<path class="st2" d="M96.72,92.75c-1.16-1.52-0.82-3.68,0.71-4.85c0.64-0.49,1.42-0.74,2.17-0.72c0.31-0.01,0.55,0.25,0.55,0.55
			c0,0.29-0.26,0.54-0.56,0.53c-0.51,0-1.05,0.16-1.5,0.5c-0.54,0.42-0.86,0.98-0.94,1.59c-0.1,0.61,0.04,1.23,0.44,1.75
			c0.38,0.5,0.94,0.8,1.56,0.87c0.6,0.09,1.24-0.07,1.78-0.49c0.38-0.29,0.65-0.67,0.82-1.08l-0.79-1.03l-1.08,0.82
			c-0.23,0.18-0.58,0.13-0.76-0.1c-0.18-0.24-0.13-0.57,0.11-0.75l1.49-1.13c0.01-0.01,0.01-0.01,0.01-0.01
			c0.01-0.01,0.01-0.01,0.01-0.01c0.24-0.18,0.58-0.15,0.76,0.09l1.27,1.67c0.04,0.05,0.05,0.09,0.08,0.15
			c0,0.02,0.01,0.03,0.01,0.05l0.01,0.01c0.03,0.08,0.03,0.18,0,0.29c-0.19,0.73-0.62,1.41-1.27,1.9
			C100.04,94.51,97.87,94.26,96.72,92.75z"/>
		<path class="st2" d="M104.91,90.24c-0.56-0.17-1.06-0.58-1.37-1.16c-0.31-0.57-0.35-1.18-0.21-1.78c0.17-0.6,0.52-1.1,1.1-1.41
			c0.55-0.3,1.19-0.32,1.74-0.12c0.59,0.2,1.07,0.58,1.37,1.15c0.32,0.59,0.38,1.22,0.21,1.79c-0.13,0.58-0.5,1.09-1.06,1.39
			C106.12,90.41,105.5,90.43,104.91,90.24z M104.45,88.58c0.19,0.36,0.46,0.59,0.78,0.73c0.32,0.09,0.65,0.05,0.97-0.12
			c0.29-0.16,0.5-0.41,0.6-0.72c0.08-0.35,0.04-0.7-0.15-1.06c-0.18-0.34-0.46-0.58-0.79-0.69c-0.31-0.07-0.65-0.06-0.94,0.1
			c-0.32,0.17-0.52,0.45-0.63,0.75C104.22,87.88,104.27,88.24,104.45,88.58z"/>
		<path class="st2" d="M110.12,87.64c-0.53-0.25-0.96-0.72-1.19-1.34c-0.22-0.61-0.18-1.22,0.04-1.79c0.25-0.57,0.67-1.02,1.28-1.24
			c0.59-0.22,1.22-0.16,1.74,0.13c0.56,0.28,0.98,0.72,1.2,1.33c0.23,0.62,0.21,1.26-0.05,1.8c-0.21,0.55-0.65,1.01-1.24,1.23
			C111.28,87.98,110.67,87.91,110.12,87.64z M109.89,85.94c0.14,0.38,0.37,0.65,0.67,0.83c0.3,0.13,0.64,0.14,0.98,0.01
			c0.31-0.11,0.55-0.34,0.7-0.63c0.13-0.33,0.14-0.69,0-1.07c-0.13-0.37-0.38-0.64-0.69-0.8c-0.3-0.11-0.63-0.15-0.94-0.04
			c-0.34,0.12-0.58,0.38-0.73,0.65C109.76,85.21,109.76,85.57,109.89,85.94z"/>
		<path class="st2" d="M119.44,85.18c0.06,0.27-0.12,0.55-0.4,0.61c-0.25,0.05-0.48-0.08-0.58-0.3c-0.3,0.32-0.72,0.57-1.18,0.67
			c-1.26,0.26-2.48-0.58-2.75-1.84c-0.27-1.27,0.51-2.55,1.77-2.81c0.46-0.1,0.93-0.04,1.33,0.13l-0.37-1.75
			c-0.06-0.27,0.12-0.55,0.41-0.61c0.28-0.06,0.55,0.13,0.61,0.4l0.77,3.68c0,0,0,0,0,0.01L119.44,85.18z M116.52,82.52
			c-0.33,0.07-0.61,0.27-0.79,0.57c-0.18,0.28-0.25,0.65-0.17,1.02c0.07,0.35,0.28,0.66,0.56,0.84c0.28,0.19,0.62,0.27,0.95,0.2
			c0.34-0.07,0.61-0.27,0.79-0.57c0.18-0.28,0.25-0.65,0.18-1c-0.08-0.37-0.29-0.68-0.57-0.86
			C117.19,82.53,116.86,82.45,116.52,82.52z"/>
		<path class="st2" d="M128.21,79.64l-1.51-0.01l-0.03,5.07c0,0.29-0.23,0.52-0.53,0.52c-0.28,0-0.52-0.23-0.52-0.53l0.03-5.07
			l-1.5-0.01c-0.29,0-0.52-0.25-0.52-0.54c0-0.29,0.23-0.52,0.53-0.52l4.06,0.02c0.29,0,0.52,0.23,0.52,0.53
			C128.73,79.4,128.49,79.64,128.21,79.64z"/>
		<path class="st2" d="M132.96,83.39l-0.22,1.85c-0.03,0.27-0.28,0.47-0.56,0.44c-0.25-0.03-0.41-0.23-0.44-0.46
			c-0.39,0.21-0.83,0.31-1.3,0.26c-0.64-0.08-1.17-0.41-1.52-0.88c-0.36-0.48-0.52-1.09-0.45-1.74c0.08-0.65,0.38-1.21,0.84-1.59
			c0.46-0.39,1.05-0.59,1.69-0.52c0.47,0.06,0.88,0.27,1.21,0.56c0.08-0.23,0.29-0.39,0.54-0.36c0.27,0.03,0.47,0.28,0.44,0.57
			L132.96,83.39z M131.96,83.27c0.05-0.4-0.06-0.75-0.25-1.01c-0.2-0.28-0.5-0.45-0.83-0.49c-0.34-0.04-0.68,0.05-0.92,0.28
			c-0.25,0.21-0.43,0.53-0.47,0.93c-0.05,0.39,0.05,0.74,0.24,1.01c0.19,0.26,0.5,0.43,0.83,0.47c0.33,0.04,0.67-0.06,0.92-0.26
			C131.73,83.98,131.92,83.66,131.96,83.27z"/>
		<path class="st2" d="M136.5,79.75c0.29,0.06,0.47,0.35,0.41,0.62l-1.21,5.48c-0.06,0.28-0.34,0.46-0.63,0.4
			c-0.28-0.06-0.46-0.34-0.4-0.62l1.21-5.48C135.94,79.87,136.22,79.69,136.5,79.75z"/>
		<path class="st2" d="M136.83,86.12l1.7-5.34c0.09-0.27,0.38-0.43,0.66-0.34s0.43,0.39,0.35,0.66l-1,3.13l2.45-1.27
			c0.25-0.13,0.58-0.03,0.71,0.23c0.14,0.26,0.04,0.58-0.22,0.71l-1.79,0.93l0.86,2.12c0.1,0.27-0.03,0.58-0.3,0.68
			c-0.12,0.05-0.25,0.05-0.35,0.02c-0.15-0.05-0.27-0.16-0.32-0.3l-0.82-2.04l-0.66,0.34l-0.25,0.8c-0.09,0.27-0.38,0.42-0.67,0.34
			C136.89,86.69,136.74,86.39,136.83,86.12z"/>
		<path class="st2" d="M142.01,85.87c0.55-1.17,1.92-1.73,3.1-1.18c1.12,0.52,1.62,1.77,1.15,2.97c0,0.01-0.01,0.03-0.02,0.04
			c-0.01,0.02-0.03,0.06-0.04,0.07c-0.12,0.19-0.37,0.25-0.61,0.14l-2.74-1.27c-0.05,0.22-0.06,0.49,0.03,0.71
			c0.08,0.29,0.36,0.61,0.65,0.77c0.3,0.17,0.71,0.26,1,0.2c0.27-0.11,0.61,0.08,0.66,0.27c0.06,0.17,0.02,0.47-0.26,0.56
			c-0.6,0.19-1.2,0.14-1.81-0.15C141.94,88.45,141.48,87.05,142.01,85.87z M143.15,85.88l2.44,1.13c0.07-0.39-0.13-1.1-0.85-1.51
			C143.99,85.2,143.38,85.56,143.15,85.88z"/>
		<path class="st2" d="M150.86,88.45c-0.14,0.23-0.45,0.32-0.69,0.17c-0.19-0.11-0.38-0.16-0.58-0.14c-0.21,0-0.42,0.07-0.61,0.16
			c-0.35,0.14-0.64,0.39-0.75,0.48l-0.94,1.54c-0.14,0.23-0.46,0.31-0.71,0.16c-0.24-0.14-0.31-0.46-0.17-0.69l1.95-3.2
			c0.14-0.24,0.45-0.3,0.69-0.16c0.24,0.15,0.33,0.46,0.19,0.69l-0.04,0.06c0.08-0.03,0.19-0.05,0.27-0.06
			c0.38-0.01,0.81,0.05,1.21,0.31C150.93,87.91,151,88.21,150.86,88.45z"/>
	</g>
	<g>
		<path d="M96.06,92.75c-1.16-1.52-0.82-3.68,0.71-4.85c0.64-0.49,1.42-0.74,2.17-0.72c0.31-0.01,0.55,0.25,0.55,0.55
			c0,0.29-0.26,0.54-0.56,0.53c-0.51,0-1.05,0.16-1.5,0.5c-0.54,0.42-0.86,0.98-0.94,1.59c-0.1,0.61,0.04,1.23,0.44,1.75
			c0.38,0.5,0.94,0.8,1.56,0.87c0.6,0.09,1.24-0.07,1.78-0.49c0.38-0.29,0.65-0.67,0.82-1.08l-0.79-1.03l-1.08,0.82
			c-0.23,0.18-0.58,0.13-0.76-0.1c-0.18-0.24-0.13-0.57,0.11-0.75l1.49-1.13c0.01-0.01,0.01-0.01,0.01-0.01
			c0.01-0.01,0.01-0.01,0.01-0.01c0.24-0.18,0.58-0.15,0.76,0.09l1.27,1.67c0.04,0.05,0.05,0.09,0.08,0.15
			c0,0.02,0.01,0.03,0.01,0.05l0.01,0.01c0.03,0.08,0.03,0.18,0,0.29c-0.19,0.73-0.62,1.41-1.27,1.9
			C99.38,94.51,97.21,94.26,96.06,92.75z"/>
		<path d="M104.25,90.24c-0.56-0.17-1.06-0.58-1.37-1.16c-0.31-0.57-0.35-1.18-0.21-1.78c0.17-0.6,0.52-1.1,1.1-1.41
			c0.55-0.3,1.19-0.32,1.74-0.12c0.59,0.2,1.07,0.58,1.37,1.15c0.32,0.59,0.38,1.22,0.21,1.79c-0.13,0.58-0.5,1.09-1.06,1.39
			C105.46,90.41,104.84,90.43,104.25,90.24z M103.8,88.58c0.19,0.36,0.46,0.59,0.78,0.73c0.32,0.09,0.65,0.05,0.97-0.12
			c0.29-0.16,0.5-0.41,0.6-0.72c0.08-0.35,0.04-0.7-0.15-1.06c-0.18-0.34-0.46-0.58-0.79-0.69c-0.31-0.07-0.65-0.06-0.94,0.1
			c-0.32,0.17-0.52,0.45-0.63,0.75C103.56,87.88,103.61,88.24,103.8,88.58z"/>
		<path d="M109.46,87.64c-0.53-0.25-0.96-0.72-1.19-1.34c-0.22-0.61-0.18-1.22,0.04-1.79c0.25-0.57,0.67-1.02,1.28-1.24
			c0.59-0.22,1.22-0.16,1.74,0.13c0.56,0.28,0.98,0.72,1.2,1.33c0.23,0.62,0.21,1.26-0.05,1.8c-0.21,0.55-0.65,1.01-1.24,1.23
			C110.62,87.98,110.01,87.91,109.46,87.64z M109.24,85.94c0.14,0.38,0.37,0.65,0.67,0.83c0.3,0.13,0.64,0.14,0.98,0.01
			c0.31-0.11,0.55-0.34,0.7-0.63c0.13-0.33,0.14-0.69,0-1.07c-0.13-0.37-0.38-0.64-0.69-0.8c-0.3-0.11-0.63-0.15-0.94-0.04
			c-0.34,0.12-0.58,0.38-0.73,0.65C109.1,85.21,109.1,85.57,109.24,85.94z"/>
		<path d="M118.78,85.18c0.06,0.27-0.12,0.55-0.4,0.61c-0.25,0.05-0.48-0.08-0.58-0.3c-0.3,0.32-0.72,0.57-1.18,0.67
			c-1.26,0.26-2.48-0.58-2.75-1.84c-0.27-1.27,0.51-2.55,1.77-2.81c0.46-0.1,0.93-0.04,1.33,0.13l-0.37-1.75
			c-0.06-0.27,0.12-0.55,0.41-0.61c0.28-0.06,0.55,0.13,0.61,0.4l0.77,3.68c0,0,0,0,0,0.01L118.78,85.18z M115.86,82.52
			c-0.33,0.07-0.61,0.27-0.79,0.57c-0.18,0.28-0.25,0.65-0.17,1.02c0.07,0.35,0.28,0.66,0.56,0.84c0.28,0.19,0.62,0.27,0.95,0.2
			c0.34-0.07,0.61-0.27,0.79-0.57c0.18-0.28,0.25-0.65,0.18-1c-0.08-0.37-0.29-0.68-0.57-0.86
			C116.53,82.53,116.21,82.45,115.86,82.52z"/>
		<path d="M127.55,79.64l-1.51-0.01l-0.03,5.07c0,0.29-0.23,0.52-0.53,0.52c-0.28,0-0.52-0.23-0.52-0.53l0.03-5.07l-1.5-0.01
			c-0.29,0-0.52-0.25-0.52-0.54c0-0.29,0.23-0.52,0.53-0.52l4.06,0.02c0.29,0,0.52,0.23,0.52,0.53
			C128.07,79.4,127.83,79.64,127.55,79.64z"/>
		<path d="M132.3,83.39l-0.22,1.85c-0.03,0.27-0.28,0.47-0.56,0.44c-0.25-0.03-0.41-0.23-0.44-0.46c-0.39,0.21-0.83,0.31-1.3,0.26
			c-0.64-0.08-1.17-0.41-1.52-0.88c-0.35-0.48-0.52-1.09-0.45-1.74c0.08-0.65,0.38-1.21,0.84-1.59c0.46-0.39,1.04-0.59,1.69-0.52
			c0.47,0.06,0.88,0.27,1.21,0.56c0.08-0.23,0.29-0.39,0.54-0.36c0.27,0.03,0.47,0.28,0.44,0.57L132.3,83.39z M131.3,83.27
			c0.05-0.4-0.06-0.75-0.25-1.01c-0.2-0.28-0.5-0.45-0.83-0.49c-0.34-0.04-0.68,0.05-0.92,0.28c-0.25,0.21-0.43,0.53-0.47,0.93
			c-0.04,0.39,0.05,0.74,0.25,1.01c0.19,0.26,0.49,0.43,0.83,0.47c0.33,0.04,0.67-0.06,0.92-0.26
			C131.08,83.98,131.26,83.66,131.3,83.27z"/>
		<path d="M135.84,79.75c0.29,0.06,0.47,0.35,0.41,0.62l-1.21,5.48c-0.06,0.28-0.34,0.46-0.63,0.4c-0.28-0.06-0.46-0.34-0.4-0.62
			l1.21-5.48C135.28,79.87,135.56,79.69,135.84,79.75z"/>
		<path d="M136.17,86.12l1.7-5.34c0.09-0.27,0.38-0.43,0.66-0.34s0.43,0.39,0.35,0.66l-1,3.13l2.45-1.27
			c0.25-0.13,0.58-0.03,0.71,0.23c0.14,0.26,0.04,0.58-0.22,0.71l-1.79,0.93l0.86,2.12c0.1,0.27-0.03,0.58-0.3,0.68
			c-0.12,0.05-0.25,0.05-0.35,0.02c-0.15-0.05-0.27-0.16-0.32-0.3l-0.82-2.04l-0.66,0.34l-0.25,0.8c-0.09,0.27-0.38,0.42-0.67,0.34
			C136.23,86.69,136.08,86.39,136.17,86.12z"/>
		<path d="M141.35,85.87c0.55-1.17,1.92-1.73,3.1-1.18c1.12,0.52,1.62,1.77,1.15,2.97c0,0.01-0.01,0.03-0.02,0.04
			c-0.01,0.02-0.03,0.06-0.04,0.07c-0.12,0.19-0.37,0.25-0.61,0.14l-2.74-1.27c-0.05,0.22-0.06,0.49,0.03,0.71
			c0.08,0.29,0.36,0.61,0.65,0.77c0.3,0.17,0.71,0.26,1,0.2c0.27-0.11,0.61,0.08,0.66,0.27c0.06,0.17,0.02,0.47-0.26,0.56
			c-0.6,0.19-1.2,0.14-1.81-0.15C141.28,88.45,140.82,87.05,141.35,85.87z M142.49,85.88l2.44,1.13c0.07-0.39-0.13-1.1-0.85-1.51
			C143.33,85.2,142.72,85.56,142.49,85.88z"/>
		<path d="M150.2,88.45c-0.14,0.23-0.45,0.32-0.69,0.17c-0.19-0.11-0.38-0.16-0.58-0.14c-0.21,0-0.42,0.07-0.61,0.16
			c-0.35,0.14-0.64,0.39-0.75,0.48l-0.94,1.54c-0.14,0.23-0.46,0.31-0.71,0.16c-0.24-0.14-0.31-0.46-0.17-0.69l1.95-3.2
			c0.14-0.24,0.45-0.3,0.69-0.16c0.24,0.15,0.33,0.46,0.19,0.69l-0.04,0.06c0.08-0.03,0.19-0.05,0.27-0.06
			c0.38-0.01,0.81,0.05,1.21,0.31C150.27,87.91,150.34,88.21,150.2,88.45z"/>
	</g>
</g>
<g id="Safe_Area" class="st0">
	<circle class="st8" cx="126" cy="126" r="54"/>
</g>
</svg>
