<?xml version="1.0" encoding="utf-8"?>
<!-- Generator: Adobe Illustrator 23.0.2, SVG Export Plug-In . SVG Version: 6.00 Build 0)  -->
<svg version="1.1" id="Layer_1" xmlns="http://www.w3.org/2000/svg" xmlns:xlink="http://www.w3.org/1999/xlink" x="0px" y="0px"
	 viewBox="0 0 936 972" style="enable-background:new 0 0 936 972;" xml:space="preserve">
<style type="text/css">
	.st0{fill:#FFFFFF;}
	.st1{clip-path:url(#SVGID_2_);fill:none;stroke:#000000;stroke-width:2.2201;stroke-miterlimit:10;}
	.st2{fill:#B1D3D9;}
	.st3{font-family:'Quicksand-Regular';}
	.st4{font-size:22.201px;}
	.st5{letter-spacing:1;}
	.st6{font-family:'Quicksand-Bold';}
	.st7{font-size:44.4021px;}
	.st8{letter-spacing:-1;}
	.st9{fill:#718795;}
	.st10{fill:#91AACC;}
	.st11{fill:#C5D3E3;}
	.st12{fill:#BBDBF3;}
</style>
<g>
	<rect x="167.73" y="31.23" class="st0" width="634.59" height="909.53"/>
	<g>
		<defs>
			<rect id="SVGID_1_" x="-468" y="30.12" width="1286.39" height="911.75"/>
		</defs>
		<clipPath id="SVGID_2_">
			<use xlink:href="#SVGID_1_"  style="overflow:visible;"/>
		</clipPath>
		<rect x="167.73" y="31.23" class="st1" width="634.59" height="909.53"/>
	</g>
	<rect x="167.73" y="769.59" class="st2" width="76.57" height="114.28"/>
	<rect x="517.33" y="769.59" class="st2" width="285" height="114.28"/>
	<text transform="matrix(1 0 0 1 261.2058 866.6737)"><tspan x="0" y="0" class="st3 st4 st5">J</tspan><tspan x="14.32" y="0" class="st3 st4">a</tspan><tspan x="27.86" y="0" class="st3 st4">n 20 - </tspan><tspan x="99.37" y="0" class="st3 st4">F</tspan><tspan x="112.47" y="0" class="st3 st4">eb 18</tspan></text>
	<text transform="matrix(1 0 0 1 261.2058 817.1893)"><tspan x="0" y="0" class="st6 st7 st8">A</tspan><tspan x="27.57" y="0" class="st6 st7">quarius</tspan></text>
	<path class="st9" d="M521.18,507.98l-171.89,0.22c48.43-25.3,94.32-80.97,120.53-153.44c0.72-2.03,1.45-4.07,2.11-6.05
		c1.24,21.35,4.62,43.47,10.33,65.89C491.11,449.48,504.61,481.11,521.18,507.98"/>
	<path class="st9" d="M626.32,508.06l-174.52,0.15c49.16-25.28,95.73-80.93,122.31-153.4c0.73-2.03,1.46-4.07,2.14-6.05
		c1.27,21.35,4.71,43.48,10.51,65.89C595.77,449.54,609.49,481.17,626.32,508.06"/>
	<path class="st9" d="M732.17,508.06l-174.52,0.15c49.16-25.28,95.73-80.93,122.31-153.4c0.73-2.03,1.47-4.07,2.14-6.05
		c1.27,21.35,4.71,43.48,10.51,65.89C701.62,449.54,715.34,481.17,732.17,508.06"/>
	<path class="st10" d="M503.97,586.06l-171.89,0.22c48.43-25.3,94.32-80.97,120.53-153.44c0.72-2.03,1.45-4.07,2.11-6.05
		c1.24,21.35,4.62,43.47,10.33,65.89C473.9,527.56,487.4,559.18,503.97,586.06"/>
	<path class="st10" d="M609.12,586.14l-174.52,0.15c49.16-25.28,95.73-80.93,122.31-153.4c0.73-2.03,1.47-4.07,2.14-6.05
		c1.27,21.35,4.71,43.48,10.51,65.89C578.56,527.62,592.28,559.25,609.12,586.14"/>
	<path class="st10" d="M714.96,586.14l-174.52,0.15c49.16-25.28,95.73-80.93,122.31-153.4c0.73-2.03,1.47-4.07,2.14-6.05
		c1.27,21.35,4.71,43.48,10.51,65.89C684.41,527.62,698.13,559.25,714.96,586.14"/>
	<path d="M253.09,404.47c0.07-3.53,0.4-7,0.93-10.43c4.81,40.39,41.89,72.3,87.53,73.24c45.66,0.94,84-29.42,90.47-69.58
		c0.4,3.44,0.58,6.93,0.51,10.45c-0.93,45.22-41.84,81.05-91.4,80.03C291.59,487.18,252.16,449.69,253.09,404.47"/>
	<path d="M322.02,398.08c-0.54,26.23-22.25,47.05-48.48,46.51c-26.23-0.54-47.05-22.25-46.51-48.48
		c0.54-26.23,22.25-47.06,48.48-46.51C301.75,350.14,322.57,371.85,322.02,398.08"/>
	<path class="st0" d="M306.48,413.91c-0.27,12.84-10.89,23.03-23.73,22.76c-12.84-0.27-23.03-10.89-22.77-23.73
		c0.27-12.84,10.89-23.03,23.73-22.76C296.56,390.44,306.75,401.07,306.48,413.91"/>
	<path d="M358.92,447.27c0,3.39-7.42,6.14-16.58,6.14c-9.16,0-16.58-2.75-16.58-6.14c0-3.39,7.42-6.14,16.58-6.14
		C351.5,441.13,358.92,443.88,358.92,447.27"/>
	<path d="M383.27,298.21c15.7-9.34,37.24-2.1,48.09,16.15c8.69,14.62,7.9,31.88-0.82,42.96c-0.83-5.18-2.68-10.39-5.61-15.31
		c-10.85-18.25-32.38-25.49-48.1-16.15c-3.13,1.86-5.79,4.24-7.96,7C366.61,318.82,371.79,305.04,383.27,298.21"/>
	<path d="M244.55,324.82c4.03-17.4,21.42-28.24,38.81-24.21c13.93,3.23,23.66,15.02,24.91,28.51c-3.57-2.77-7.78-4.82-12.47-5.91
		c-17.4-4.03-34.78,6.8-38.81,24.21c-0.8,3.47-1.02,6.94-0.7,10.3C246.6,350.24,241.6,337.54,244.55,324.82"/>
	<path d="M423.67,361.79c0,2.99-0.71,5.93-2.06,8.7c-8.32-17.83-42.02-31.15-82.31-31.15c-40.28,0-73.98,13.32-82.3,31.15
		c-1.36-2.77-2.06-5.71-2.06-8.7c0-21.96,37.78-39.79,84.37-39.79C385.89,322,423.67,339.83,423.67,361.79"/>
	<path d="M367.71,396.11c-0.54,26.23,20.28,47.94,46.51,48.48c26.23,0.54,47.94-20.28,48.48-46.51
		c0.54-26.23-20.28-47.93-46.51-48.48C389.96,349.05,368.25,369.88,367.71,396.11"/>
	<path class="st0" d="M402.93,412.99c-0.27,12.84,9.93,23.46,22.76,23.73c12.84,0.26,23.46-9.93,23.73-22.77
		c0.26-12.84-9.93-23.46-22.77-23.73C413.82,389.96,403.2,400.15,402.93,412.99"/>
	<path class="st11" d="M659.99,553.93c-2.46,10.69-7.43,21.58-15.03,32.36h-54.33c5.67-4,10.99-8.2,16.02-12.56
		c11.81-10.23,21.11-20.8,27.84-31.42c9.65-14.77,14.44-29.72,14.74-43.98C661.04,514.97,664.78,534.1,659.99,553.93"/>
	<path class="st11" d="M559.27,545.96c-3.18,13.32-9.62,26.9-19.47,40.33h-70.39c7.35-4.98,14.24-10.22,20.76-15.66
		c15.31-12.75,27.35-25.92,36.07-39.16c12.5-18.41,18.72-37.05,19.09-54.82C560.63,497.4,565.48,521.25,559.27,545.96"/>
	<path class="st11" d="M454,549.94c-3.37,12-10.18,24.24-20.6,36.35h-74.48c7.77-4.49,15.07-9.21,21.97-14.11
		c16.19-11.49,28.94-23.36,38.16-35.29c13.23-16.59,19.8-33.39,20.2-49.4C455.45,506.18,460.58,527.67,454,549.94"/>
	<polygon class="st12" points="575.61,384.69 593.4,475.92 586.76,501.18 568.97,409.94 	"/>
	<polygon class="st12" points="684.84,399.66 695.47,479.98 683.28,501.86 675.27,435.18 	"/>
	<polygon class="st12" points="470.57,406.09 482.81,468.86 473.51,487.16 461.26,424.39 	"/>
	<polygon class="st12" points="412.27,472.22 412.27,502.11 373.33,502.11 	"/>
	<polygon class="st12" points="702.51,464.2 697.7,503.98 722.35,503.23 	"/>
	<polygon class="st12" points="614.21,478.11 623.74,498.32 657.34,432.06 	"/>
	<polygon class="st12" points="620.48,503.05 592.35,504.02 601.24,471.3 	"/>
	<polygon class="st12" points="526.96,476.65 486.93,481.59 474.23,501.18 511.69,499.68 	"/>
	<polygon class="st12" points="540.44,436.72 512.75,471.3 535.14,469.05 	"/>
	<polygon class="st12" points="547.64,440.92 542.01,432.06 573.11,371.22 567.02,397.47 	"/>
	<polygon class="st12" points="679.53,372.94 681.56,384.69 672.66,404.97 670.82,430.6 667.02,415.97 645.78,436.73 	"/>
	<polygon class="st12" points="417.27,492.63 421.79,465.4 412.27,465.84 428.45,448.73 443.67,442.93 	"/>
	<polygon class="st12" points="474.35,400.44 466.14,404.66 465.03,382.55 469.82,365.98 	"/>
</g>
</svg>
