<?xml version="1.0" encoding="utf-8"?>
<!-- Generator: Adobe Illustrator 23.0.2, SVG Export Plug-In . SVG Version: 6.00 Build 0)  -->
<svg version="1.1" id="Layer_1" xmlns="http://www.w3.org/2000/svg" xmlns:xlink="http://www.w3.org/1999/xlink" x="0px" y="0px"
	 viewBox="0 0 360 504" style="enable-background:new 0 0 360 504;" xml:space="preserve">
<style type="text/css">
	.st0{fill:#FFFFFF;}
	.st1{fill:#B2D6DE;}
	.st2{enable-background:new    ;}
	.st3{fill:#252723;}
	.st4{clip-path:url(#SVGID_2_);fill:#6F8392;}
	.st5{clip-path:url(#SVGID_4_);fill:#6F8392;}
	.st6{clip-path:url(#SVGID_6_);fill:#6F8392;}
	.st7{clip-path:url(#SVGID_8_);fill:#93AFD6;}
	.st8{clip-path:url(#SVGID_10_);fill:#93AFD6;}
	.st9{clip-path:url(#SVGID_12_);fill:#93AFD6;}
	.st10{clip-path:url(#SVGID_14_);fill:#212020;}
	.st11{clip-path:url(#SVGID_16_);fill:#212020;}
	.st12{clip-path:url(#SVGID_18_);fill:#FFFFFF;}
	.st13{clip-path:url(#SVGID_20_);fill:#212020;}
	.st14{clip-path:url(#SVGID_22_);fill:#212020;}
	.st15{clip-path:url(#SVGID_24_);fill:#212020;}
	.st16{clip-path:url(#SVGID_26_);fill:#212020;}
	.st17{clip-path:url(#SVGID_28_);fill:#212020;}
	.st18{clip-path:url(#SVGID_30_);fill:#FFFFFF;}
	.st19{clip-path:url(#SVGID_32_);fill:#C8D9EB;}
	.st20{clip-path:url(#SVGID_34_);fill:#C8D9EB;}
	.st21{clip-path:url(#SVGID_36_);fill:#C8D9EB;}
	.st22{fill:#BBDDF7;}
</style>
<g id="Color_Strip">
	<rect x="45" y="63" class="st0" width="270" height="378"/>
	<rect x="45" y="373.31" class="st1" width="27.15" height="40.22"/>
	<rect x="164.86" y="373.31" class="st1" width="150.14" height="40.22"/>
</g>
<g id="Date">
	<g class="st2">
		<path class="st3" d="M90.57,406.26c0.1-0.03,0.2,0.02,0.23,0.11c0.19,0.58,0.72,0.99,1.35,0.98c0.78,0,1.42-0.63,1.42-1.41v-3.3
			c0-0.1,0.08-0.18,0.18-0.18s0.18,0.08,0.18,0.18v3.3c0,0.99-0.8,1.78-1.78,1.78c-0.79,0-1.47-0.52-1.7-1.23
			C90.42,406.39,90.47,406.29,90.57,406.26z"/>
		<path class="st3" d="M98.73,404.22v3.32c0,0.1-0.08,0.18-0.18,0.18s-0.18-0.08-0.18-0.18v-0.55c-0.32,0.44-0.82,0.73-1.38,0.73
			c-0.97,0-1.74-0.83-1.74-1.84c0-1.01,0.77-1.84,1.74-1.84c0.56,0,1.07,0.29,1.38,0.72v-0.54c0-0.11,0.08-0.18,0.18-0.18
			S98.73,404.12,98.73,404.22z M98.37,405.88c0-0.83-0.62-1.49-1.38-1.49c-0.75,0-1.38,0.66-1.38,1.49c0,0.83,0.63,1.48,1.38,1.48
			C97.75,407.36,98.37,406.71,98.37,405.88z"/>
		<path class="st3" d="M102.84,405.54c0-0.62-0.5-1.13-1.13-1.13c-0.62,0-1.13,0.51-1.14,1.13v2v0.03
			c-0.01,0.03-0.01,0.06-0.04,0.08c-0.03,0.04-0.08,0.07-0.14,0.07h-0.04c-0.05-0.01-0.1-0.05-0.12-0.1
			c-0.01-0.01-0.01-0.01-0.01-0.02s-0.01-0.01-0.01-0.01v-0.04v-2v-0.06v-1.25c0-0.1,0.08-0.18,0.18-0.18c0.1,0,0.17,0.08,0.17,0.18
			v0.35c0.27-0.32,0.68-0.53,1.14-0.53c0.83,0,1.49,0.68,1.49,1.49v2c0,0.1-0.08,0.18-0.18,0.18s-0.18-0.08-0.18-0.18V405.54z"/>
		<path class="st3" d="M106.77,407.4l2.46-2.21c0.29-0.27,0.45-0.63,0.45-1.01c0-0.32-0.12-0.65-0.35-0.9
			c-0.26-0.29-0.63-0.44-1-0.44c-0.33,0-0.65,0.11-0.92,0.35l-0.26,0.23c-0.07,0.08-0.19,0.07-0.25-0.01
			c-0.08-0.08-0.07-0.2,0.01-0.26l0.26-0.24c0.33-0.29,0.75-0.44,1.16-0.44c0.46,0,0.92,0.18,1.26,0.56
			c0.31,0.33,0.45,0.74,0.45,1.15c0,0.46-0.19,0.93-0.56,1.28l-2.1,1.9h2.48c0.1,0,0.18,0.08,0.18,0.19c0,0.1-0.08,0.18-0.18,0.18
			h-2.93h-0.03c-0.05,0-0.11-0.01-0.14-0.05C106.69,407.58,106.69,407.47,106.77,407.4z"/>
		<path class="st3" d="M111.27,405.09c0-0.71,0.18-1.35,0.5-1.84c0.32-0.47,0.78-0.79,1.31-0.79s0.99,0.32,1.31,0.79
			c0.31,0.49,0.51,1.13,0.51,1.84c0,0.71-0.2,1.35-0.51,1.83c-0.32,0.47-0.78,0.8-1.31,0.8s-0.99-0.32-1.31-0.8
			C111.45,406.44,111.27,405.8,111.27,405.09z M111.64,405.09c0,0.65,0.17,1.22,0.44,1.63c0.27,0.4,0.63,0.63,1.01,0.63
			s0.73-0.23,1.01-0.63c0.27-0.41,0.45-0.98,0.45-1.63s-0.18-1.22-0.45-1.63c-0.28-0.41-0.63-0.63-1.01-0.63s-0.74,0.22-1.01,0.63
			C111.81,403.87,111.64,404.45,111.64,405.09z"/>
		<path class="st3" d="M118.86,405.11c0-0.08,0.06-0.14,0.14-0.14h1.6c0.07,0,0.14,0.05,0.14,0.14c0,0.09-0.07,0.15-0.14,0.15H119
			C118.92,405.26,118.86,405.2,118.86,405.11z"/>
		<path class="st3" d="M124.45,402.64c0-0.1,0.08-0.17,0.17-0.18h0.03h2.69c0.1,0,0.18,0.08,0.18,0.18c0,0.11-0.08,0.19-0.18,0.19
			h-2.52v2.08h2.21c0.1,0,0.19,0.08,0.19,0.19c0,0.1-0.08,0.18-0.19,0.18h-2.21v2.26c0,0.1-0.08,0.18-0.19,0.18
			c-0.1,0-0.18-0.08-0.18-0.18V402.64z"/>
		<path class="st3" d="M128.53,405.89c0-1.02,0.8-1.85,1.79-1.85c0.95,0,1.7,0.75,1.77,1.71v0.01v0.02c0,0.1-0.08,0.17-0.18,0.17
			h-3.02c0.04,0.8,0.67,1.41,1.43,1.41c0.49,0,0.94-0.25,1.19-0.67c0.05-0.09,0.17-0.11,0.24-0.06c0.08,0.06,0.11,0.17,0.06,0.26
			c-0.31,0.5-0.86,0.83-1.49,0.83C129.33,407.72,128.53,406.89,128.53,405.89z M128.91,405.59h2.79c-0.12-0.69-0.71-1.19-1.38-1.19
			C129.63,404.4,129.05,404.9,128.91,405.59z"/>
		<path class="st3" d="M133.36,405.96v-0.08v-0.08v-3.17c0-0.1,0.08-0.18,0.18-0.18c0.1,0,0.19,0.08,0.19,0.18v2.12
			c0.32-0.44,0.83-0.72,1.41-0.72c0.99,0,1.78,0.83,1.78,1.85c0,1.01-0.79,1.83-1.78,1.83c-0.58,0-1.09-0.28-1.41-0.71v0.53
			c0,0.1-0.08,0.18-0.19,0.18c-0.1,0-0.18-0.08-0.18-0.18V405.96z M133.73,405.89c0,0.81,0.64,1.46,1.41,1.46
			c0.78,0,1.41-0.65,1.41-1.46c0-0.82-0.63-1.48-1.41-1.48c-0.76,0-1.38,0.63-1.41,1.42V405.89z"/>
		<path class="st3" d="M141.13,403l-0.74,0.43c-0.02,0.02-0.06,0.03-0.09,0.03c-0.07,0-0.13-0.04-0.16-0.09
			c-0.05-0.1-0.02-0.2,0.07-0.25l1.01-0.62c0.08-0.04,0.2-0.01,0.25,0.07c0.02,0.04,0.03,0.09,0.02,0.13v4.83
			c0,0.1-0.07,0.18-0.18,0.18c-0.1,0-0.18-0.08-0.18-0.18V403z"/>
		<path class="st3" d="M144.49,402.46c0.6,0,1.1,0.49,1.1,1.09c0,0.37-0.18,0.68-0.45,0.89c0.62,0.25,1.06,0.87,1.06,1.58
			c0,0.95-0.76,1.7-1.7,1.7c-0.94,0-1.7-0.76-1.7-1.7c0-0.71,0.44-1.32,1.05-1.58c-0.26-0.2-0.44-0.52-0.44-0.89
			C143.4,402.95,143.88,402.46,144.49,402.46z M144.49,407.36c0.75,0,1.34-0.6,1.34-1.34c0-0.74-0.59-1.34-1.34-1.34
			c-0.74,0-1.34,0.61-1.34,1.34C143.15,406.76,143.75,407.36,144.49,407.36z M144.49,404.3c0.41-0.01,0.74-0.34,0.74-0.74
			c0-0.41-0.33-0.73-0.74-0.73c-0.41,0-0.73,0.32-0.73,0.73C143.76,403.96,144.09,404.29,144.49,404.3z"/>
	</g>
</g>
<g id="Image">
	<g>
		<g>
			<g>
				<defs>
					<rect id="SVGID_1_" x="96.02" y="152.58" width="170.65" height="98.7"/>
				</defs>
				<clipPath id="SVGID_2_">
					<use xlink:href="#SVGID_1_"  style="overflow:visible;"/>
				</clipPath>
				<path class="st4" d="M195.4,224.82l-58.07,0.08c16.36-8.55,31.86-27.35,40.72-51.84c0.24-0.69,0.49-1.37,0.71-2.04
					c0.42,7.21,1.56,14.69,3.49,22.26C185.24,205.06,189.8,215.74,195.4,224.82"/>
			</g>
			<g>
				<defs>
					<rect id="SVGID_3_" x="96.02" y="152.58" width="170.65" height="98.7"/>
				</defs>
				<clipPath id="SVGID_4_">
					<use xlink:href="#SVGID_3_"  style="overflow:visible;"/>
				</clipPath>
				<path class="st5" d="M230.92,224.85l-58.96,0.05c16.61-8.54,32.34-27.34,41.32-51.82c0.25-0.69,0.49-1.37,0.72-2.04
					c0.43,7.21,1.59,14.69,3.55,22.26C220.59,205.08,225.23,215.76,230.92,224.85"/>
			</g>
			<g>
				<defs>
					<rect id="SVGID_5_" x="96.02" y="152.58" width="170.65" height="98.7"/>
				</defs>
				<clipPath id="SVGID_6_">
					<use xlink:href="#SVGID_5_"  style="overflow:visible;"/>
				</clipPath>
				<path class="st6" d="M266.67,224.85l-58.96,0.05c16.61-8.54,32.34-27.34,41.32-51.82c0.25-0.69,0.5-1.37,0.72-2.04
					c0.43,7.21,1.59,14.69,3.55,22.26C256.35,205.08,260.99,215.76,266.67,224.85"/>
			</g>
			<g>
				<defs>
					<rect id="SVGID_7_" x="96.02" y="152.58" width="170.65" height="98.7"/>
				</defs>
				<clipPath id="SVGID_8_">
					<use xlink:href="#SVGID_7_"  style="overflow:visible;"/>
				</clipPath>
				<path class="st7" d="M189.58,251.2l-58.07,0.08c16.36-8.55,31.86-27.35,40.72-51.84c0.24-0.69,0.49-1.37,0.71-2.04
					c0.42,7.21,1.56,14.69,3.49,22.26C179.42,231.43,183.98,242.12,189.58,251.2"/>
			</g>
			<g>
				<defs>
					<rect id="SVGID_9_" x="96.02" y="152.58" width="170.65" height="98.7"/>
				</defs>
				<clipPath id="SVGID_10_">
					<use xlink:href="#SVGID_9_"  style="overflow:visible;"/>
				</clipPath>
				<path class="st8" d="M225.1,251.22l-58.96,0.05c16.61-8.54,32.34-27.34,41.32-51.82c0.25-0.69,0.5-1.37,0.72-2.04
					c0.43,7.21,1.59,14.69,3.55,22.26C214.78,231.46,219.42,242.14,225.1,251.22"/>
			</g>
			<g>
				<defs>
					<rect id="SVGID_11_" x="96.02" y="152.58" width="170.65" height="98.7"/>
				</defs>
				<clipPath id="SVGID_12_">
					<use xlink:href="#SVGID_11_"  style="overflow:visible;"/>
				</clipPath>
				<path class="st9" d="M260.86,251.22l-58.96,0.05c16.61-8.54,32.34-27.34,41.32-51.82c0.25-0.69,0.49-1.37,0.72-2.04
					c0.43,7.21,1.59,14.69,3.55,22.26C250.54,231.46,255.17,242.14,260.86,251.22"/>
			</g>
			<g>
				<defs>
					<rect id="SVGID_13_" x="96.02" y="152.58" width="170.65" height="98.7"/>
				</defs>
				<clipPath id="SVGID_14_">
					<use xlink:href="#SVGID_13_"  style="overflow:visible;"/>
				</clipPath>
				<path class="st10" d="M104.83,189.85c0.02-1.19,0.14-2.37,0.32-3.52c1.62,13.65,14.15,24.43,29.57,24.74
					c15.43,0.32,28.38-9.94,30.56-23.51c0.13,1.16,0.2,2.34,0.17,3.53c-0.31,15.28-14.14,27.38-30.88,27.04
					C117.84,217.79,104.52,205.13,104.83,189.85"/>
			</g>
			<g>
				<defs>
					<rect id="SVGID_15_" x="96.02" y="152.58" width="170.65" height="98.7"/>
				</defs>
				<clipPath id="SVGID_16_">
					<use xlink:href="#SVGID_15_"  style="overflow:visible;"/>
				</clipPath>
				<path class="st11" d="M128.12,187.69c-0.18,8.86-7.52,15.9-16.38,15.71c-8.86-0.18-15.9-7.52-15.71-16.38
					c0.18-8.86,7.52-15.9,16.38-15.71S128.3,178.83,128.12,187.69"/>
			</g>
			<g>
				<defs>
					<rect id="SVGID_17_" x="96.02" y="152.58" width="170.65" height="98.7"/>
				</defs>
				<clipPath id="SVGID_18_">
					<use xlink:href="#SVGID_17_"  style="overflow:visible;"/>
				</clipPath>
				<path class="st12" d="M122.87,193.04c-0.09,4.34-3.68,7.78-8.02,7.69s-7.78-3.68-7.69-8.02c0.09-4.34,3.68-7.78,8.02-7.69
					C119.51,185.11,122.96,188.7,122.87,193.04"/>
			</g>
			<g>
				<defs>
					<rect id="SVGID_19_" x="96.02" y="152.58" width="170.65" height="98.7"/>
				</defs>
				<clipPath id="SVGID_20_">
					<use xlink:href="#SVGID_19_"  style="overflow:visible;"/>
				</clipPath>
				<path class="st13" d="M140.58,204.31c0,1.15-2.51,2.08-5.6,2.08s-5.6-0.93-5.6-2.08c0-1.15,2.51-2.08,5.6-2.08
					S140.58,203.17,140.58,204.31"/>
			</g>
			<g>
				<defs>
					<rect id="SVGID_21_" x="96.02" y="152.58" width="170.65" height="98.7"/>
				</defs>
				<clipPath id="SVGID_22_">
					<use xlink:href="#SVGID_21_"  style="overflow:visible;"/>
				</clipPath>
				<path class="st14" d="M148.81,153.95c5.3-3.15,12.58-0.71,16.25,5.46c2.94,4.94,2.67,10.77-0.28,14.51
					c-0.28-1.75-0.91-3.51-1.89-5.17c-3.67-6.17-10.94-8.61-16.25-5.46c-1.06,0.63-1.96,1.43-2.69,2.37
					C143.18,160.92,144.93,156.26,148.81,153.95"/>
			</g>
			<g>
				<defs>
					<rect id="SVGID_23_" x="96.02" y="152.58" width="170.65" height="98.7"/>
				</defs>
				<clipPath id="SVGID_24_">
					<use xlink:href="#SVGID_23_"  style="overflow:visible;"/>
				</clipPath>
				<path class="st15" d="M101.94,162.94c1.36-5.88,7.23-9.54,13.11-8.18c4.71,1.09,7.99,5.07,8.42,9.63
					c-1.21-0.93-2.63-1.63-4.21-1.99c-5.88-1.36-11.75,2.3-13.11,8.18c-0.27,1.17-0.34,2.34-0.24,3.48
					C102.64,171.53,100.95,167.24,101.94,162.94"/>
			</g>
			<g>
				<defs>
					<rect id="SVGID_25_" x="96.02" y="152.58" width="170.65" height="98.7"/>
				</defs>
				<clipPath id="SVGID_26_">
					<use xlink:href="#SVGID_25_"  style="overflow:visible;"/>
				</clipPath>
				<path class="st16" d="M162.45,175.43c0,1.01-0.24,2-0.7,2.94c-2.81-6.02-14.2-10.52-27.8-10.52c-13.61,0-24.99,4.5-27.8,10.52
					c-0.46-0.94-0.7-1.93-0.7-2.94c0-7.42,12.76-13.44,28.5-13.44C149.69,161.99,162.45,168.01,162.45,175.43"/>
			</g>
			<g>
				<defs>
					<rect id="SVGID_27_" x="96.02" y="152.58" width="170.65" height="98.7"/>
				</defs>
				<clipPath id="SVGID_28_">
					<use xlink:href="#SVGID_27_"  style="overflow:visible;"/>
				</clipPath>
				<path class="st17" d="M143.55,187.03c-0.18,8.86,6.85,16.19,15.71,16.38c8.86,0.18,16.19-6.85,16.38-15.71
					c0.18-8.86-6.85-16.19-15.71-16.38C151.07,171.13,143.73,178.16,143.55,187.03"/>
			</g>
			<g>
				<defs>
					<rect id="SVGID_29_" x="96.02" y="152.58" width="170.65" height="98.7"/>
				</defs>
				<clipPath id="SVGID_30_">
					<use xlink:href="#SVGID_29_"  style="overflow:visible;"/>
				</clipPath>
				<path class="st18" d="M155.45,192.73c-0.09,4.34,3.35,7.93,7.69,8.02c4.34,0.09,7.93-3.35,8.02-7.69
					c0.09-4.34-3.35-7.93-7.69-8.02C159.13,184.95,155.54,188.39,155.45,192.73"/>
			</g>
			<g>
				<defs>
					<rect id="SVGID_31_" x="96.02" y="152.58" width="170.65" height="98.7"/>
				</defs>
				<clipPath id="SVGID_32_">
					<use xlink:href="#SVGID_31_"  style="overflow:visible;"/>
				</clipPath>
				<path class="st19" d="M242.29,240.34c-0.83,3.61-2.51,7.29-5.08,10.93h-18.35c1.92-1.35,3.71-2.77,5.41-4.24
					c3.99-3.46,7.13-7.03,9.4-10.61c3.26-4.99,4.88-10.04,4.98-14.86C242.64,227.18,243.91,233.64,242.29,240.34"/>
			</g>
			<g>
				<defs>
					<rect id="SVGID_33_" x="96.02" y="152.58" width="170.65" height="98.7"/>
				</defs>
				<clipPath id="SVGID_34_">
					<use xlink:href="#SVGID_33_"  style="overflow:visible;"/>
				</clipPath>
				<path class="st20" d="M208.26,237.65c-1.08,4.5-3.25,9.09-6.58,13.62H177.9c2.48-1.68,4.81-3.45,7.01-5.29
					c5.17-4.31,9.24-8.76,12.18-13.23c4.22-6.22,6.32-12.52,6.45-18.52C208.72,221.25,210.36,229.3,208.26,237.65"/>
			</g>
			<g>
				<defs>
					<rect id="SVGID_35_" x="96.02" y="152.58" width="170.65" height="98.7"/>
				</defs>
				<clipPath id="SVGID_36_">
					<use xlink:href="#SVGID_35_"  style="overflow:visible;"/>
				</clipPath>
				<path class="st21" d="M172.7,238.99c-1.14,4.05-3.44,8.19-6.96,12.28h-25.16c2.63-1.52,5.09-3.11,7.42-4.77
					c5.47-3.88,9.78-7.89,12.89-11.92c4.47-5.6,6.69-11.28,6.82-16.69C173.19,224.21,174.92,231.47,172.7,238.99"/>
			</g>
		</g>
		<polygon class="st22" points="213.78,183.17 219.79,213.99 217.55,222.52 211.54,191.7 		"/>
		<polygon class="st22" points="250.68,188.23 254.28,215.36 250.16,222.75 247.45,200.22 		"/>
		<polygon class="st22" points="178.3,190.4 182.44,211.6 179.29,217.79 175.16,196.58 		"/>
		<polygon class="st22" points="158.6,212.74 158.6,222.84 145.45,222.84 		"/>
		<polygon class="st22" points="256.65,210.03 255.03,223.47 263.35,223.21 		"/>
		<polygon class="st22" points="226.82,214.73 230.04,221.56 241.4,199.17 		"/>
		<polygon class="st22" points="228.94,223.15 219.44,223.48 222.44,212.43 		"/>
		<polygon class="st22" points="197.35,214.24 183.82,215.9 179.53,222.52 192.19,222.01 		"/>
		<polygon class="st22" points="201.9,200.75 192.55,212.43 200.11,211.67 		"/>
		<polygon class="st22" points="204.33,202.16 202.43,199.17 212.94,178.62 210.88,187.49 		"/>
		<polygon class="st22" points="248.89,179.2 249.58,183.17 246.57,190.02 245.95,198.68 244.67,193.74 237.49,200.75 		"/>
		<polygon class="st22" points="160.29,219.63 161.82,210.43 158.6,210.58 164.07,204.8 169.21,202.84 		"/>
		<polygon class="st22" points="179.57,188.49 176.8,189.92 176.43,182.45 178.04,176.85 		"/>
	</g>
</g>
<g id="Name">
	<g class="st2">
		<path class="st3" d="M92.69,388.53h-3.64l-0.74,1.95c-0.13,0.33-0.45,0.53-0.78,0.53c-0.1,0-0.19-0.01-0.29-0.04
			c-0.43-0.17-0.64-0.65-0.49-1.08l3.31-8.83c0.13-0.33,0.46-0.54,0.79-0.52c0.34-0.02,0.66,0.19,0.79,0.52l3.31,8.83
			c0.15,0.43-0.06,0.92-0.5,1.08c-0.08,0.03-0.18,0.04-0.29,0.04c-0.33,0-0.65-0.2-0.76-0.53L92.69,388.53z M92.08,386.88
			l-1.21-3.22l-1.22,3.22H92.08z"/>
		<path class="st3" d="M101.65,393.01v-2.64c-0.57,0.39-1.26,0.63-2.01,0.63c-2.02,0-3.65-1.68-3.65-3.75
			c0-2.05,1.62-3.75,3.65-3.75c0.76,0,1.45,0.25,2.04,0.63c0.06-0.34,0.39-0.63,0.79-0.63c0.45,0,0.81,0.36,0.81,0.81v2.94
			c0,0.02,0,0.02,0,0.02v5.74c0,0.42-0.36,0.79-0.81,0.79C102.01,393.81,101.65,393.43,101.65,393.01z M99.64,385.12
			c-0.52,0-1.02,0.24-1.41,0.65c-0.36,0.36-0.61,0.91-0.61,1.48c0,0.62,0.25,1.16,0.61,1.51c0.39,0.42,0.89,0.63,1.41,0.63
			c0.54,0,1.05-0.21,1.4-0.63c0.39-0.36,0.61-0.9,0.61-1.51c0-0.57-0.23-1.12-0.61-1.48C100.69,385.36,100.18,385.12,99.64,385.12z"
			/>
		<path class="st3" d="M109.36,391c-1.71,0-3.12-1.41-3.12-3.12v-3.58c0-0.42,0.36-0.79,0.79-0.79c0.45,0,0.79,0.38,0.79,0.79v3.58
			c0,0.86,0.67,1.53,1.53,1.53c0.87,0,1.56-0.67,1.58-1.53v-3.58c0-0.42,0.33-0.79,0.78-0.79c0.42,0,0.81,0.38,0.81,0.79v3.58
			C112.52,389.59,111.08,391,109.36,391z"/>
		<path class="st3" d="M121.93,387.27v2.94c0,0.43-0.36,0.79-0.79,0.79c-0.39,0-0.69-0.29-0.78-0.64c-0.57,0.4-1.24,0.64-1.99,0.64
			c-1.02,0-1.9-0.42-2.55-1.09c-0.65-0.69-1.02-1.62-1.02-2.64c0-1.04,0.38-1.97,1.02-2.64c0.65-0.69,1.53-1.12,2.55-1.12
			c0.75,0,1.42,0.25,1.99,0.66c0.09-0.38,0.39-0.66,0.78-0.66c0.44,0,0.79,0.36,0.79,0.81V387.27z M120.34,387.27
			c0-0.63-0.23-1.17-0.58-1.54c-0.36-0.41-0.87-0.62-1.4-0.62c-0.54,0-1.05,0.21-1.4,0.62c-0.36,0.37-0.57,0.91-0.57,1.54
			c0,0.61,0.21,1.15,0.57,1.54c0.34,0.38,0.85,0.58,1.4,0.58c0.52,0,1.03-0.21,1.4-0.58C120.11,388.42,120.34,387.88,120.34,387.27z
			"/>
		<path class="st3" d="M129.49,384.3c0,0.42-0.34,0.79-0.79,0.79c-0.34,0-0.65,0.09-0.9,0.29c-0.29,0.18-0.51,0.44-0.69,0.72
			c-0.36,0.48-0.54,1.05-0.62,1.26v2.85c0,0.43-0.38,0.79-0.82,0.79c-0.44,0-0.79-0.36-0.79-0.79v-5.91c0-0.43,0.36-0.78,0.79-0.78
			c0.45,0,0.82,0.34,0.82,0.78v0.11c0.09-0.11,0.21-0.23,0.32-0.3c0.49-0.33,1.14-0.6,1.89-0.58
			C129.14,383.52,129.49,383.86,129.49,384.3z"/>
		<path class="st3" d="M133.09,381.63c0,0.45-0.34,0.83-0.81,0.83c-0.45,0-0.81-0.38-0.81-0.83v-0.31c0-0.45,0.36-0.81,0.81-0.81
			c0.47,0,0.81,0.36,0.81,0.81V381.63z M133.09,384.34v5.85c0,0.45-0.34,0.81-0.81,0.81c-0.45,0-0.81-0.36-0.81-0.81v-5.85
			c0-0.48,0.36-0.82,0.81-0.82C132.74,383.52,133.09,383.86,133.09,384.34z"/>
		<path class="st3" d="M138.64,391c-1.71,0-3.12-1.41-3.12-3.12v-3.58c0-0.42,0.36-0.79,0.79-0.79c0.45,0,0.79,0.38,0.79,0.79v3.58
			c0,0.86,0.67,1.53,1.53,1.53c0.87,0,1.56-0.67,1.58-1.53v-3.58c0-0.42,0.33-0.79,0.78-0.79c0.42,0,0.81,0.38,0.81,0.79v3.58
			C141.8,389.59,140.36,391,138.64,391z"/>
		<path class="st3" d="M144.5,388.86c0.27-0.36,0.79-0.41,1.12-0.12c0.39,0.33,1.06,0.67,1.65,0.66c0.4,0,0.78-0.14,1.02-0.29
			c0.21-0.18,0.27-0.33,0.27-0.45c0-0.08-0.01-0.11-0.04-0.15c-0.01-0.04-0.07-0.1-0.19-0.18c-0.21-0.15-0.66-0.32-1.2-0.42h-0.01
			c-0.47-0.09-0.92-0.21-1.31-0.39c-0.4-0.2-0.77-0.47-1.03-0.87c-0.17-0.27-0.26-0.6-0.26-0.95c0-0.69,0.39-1.27,0.89-1.65
			c0.52-0.36,1.15-0.56,1.84-0.56c1.04,0,1.77,0.5,2.25,0.83c0.36,0.24,0.46,0.74,0.24,1.11c-0.24,0.36-0.73,0.46-1.11,0.21
			c-0.48-0.32-0.9-0.56-1.38-0.56c-0.38,0-0.71,0.12-0.9,0.27c-0.19,0.13-0.24,0.27-0.24,0.34c0,0.06,0,0.08,0.03,0.12
			c0.02,0.03,0.06,0.09,0.17,0.15c0.19,0.13,0.58,0.27,1.09,0.36l0.02,0.02h0.02c0.49,0.09,0.96,0.22,1.4,0.43
			c0.4,0.18,0.81,0.46,1.06,0.88c0.18,0.3,0.28,0.65,0.28,0.99c0,0.74-0.4,1.35-0.94,1.74c-0.54,0.38-1.21,0.6-1.95,0.6
			c-1.17-0.01-2.07-0.55-2.67-1.04C144.28,389.7,144.23,389.19,144.5,388.86z"/>
	</g>
</g>
</svg>
