<?xml version="1.0" encoding="utf-8"?>
<!-- Generator: Adobe Illustrator 23.0.2, SVG Export Plug-In . SVG Version: 6.00 Build 0)  -->
<svg version="1.1" id="Layer_1" xmlns="http://www.w3.org/2000/svg" xmlns:xlink="http://www.w3.org/1999/xlink" x="0px" y="0px"
	 viewBox="0 0 360 504" style="enable-background:new 0 0 360 504;" xml:space="preserve">
<style type="text/css">
	.st0{fill:#FFFFFF;}
	.st1{fill:#B1CAEA;}
	.st2{enable-background:new    ;}
	.st3{fill:#252723;}
	.st4{clip-path:url(#SVGID_2_);fill:#212020;}
	.st5{clip-path:url(#SVGID_4_);fill:#FFFFFF;}
	.st6{clip-path:url(#SVGID_6_);fill:#212020;}
	.st7{clip-path:url(#SVGID_8_);fill:#FFFFFF;}
	.st8{clip-path:url(#SVGID_10_);fill:#212020;}
	.st9{clip-path:url(#SVGID_12_);fill:#FFFFFF;}
	.st10{clip-path:url(#SVGID_14_);fill:#212020;}
	.st11{clip-path:url(#SVGID_16_);fill:#212020;}
	.st12{clip-path:url(#SVGID_18_);fill:#212020;}
	.st13{clip-path:url(#SVGID_20_);fill:#212020;}
	.st14{clip-path:url(#SVGID_22_);fill:#A8CEB9;}
	.st15{clip-path:url(#SVGID_24_);fill:#A8CEB9;}
	.st16{clip-path:url(#SVGID_26_);fill:#A8CEB9;}
	.st17{clip-path:url(#SVGID_28_);fill:#A8CEB9;}
	.st18{clip-path:url(#SVGID_30_);fill:#A8CEB9;}
	.st19{clip-path:url(#SVGID_32_);fill:#A8CEB9;}
	.st20{clip-path:url(#SVGID_34_);fill:#A8CEB9;}
	.st21{clip-path:url(#SVGID_36_);fill:#A8CEB9;}
	.st22{clip-path:url(#SVGID_38_);fill:#A8CEB9;}
	.st23{clip-path:url(#SVGID_40_);fill:#A8CEB9;}
	.st24{clip-path:url(#SVGID_42_);fill:#A8CEB9;}
	.st25{clip-path:url(#SVGID_44_);fill:#A8CEB9;}
	.st26{clip-path:url(#SVGID_46_);fill:#A8CEB9;}
	.st27{clip-path:url(#SVGID_48_);fill:#A8CEB9;}
	.st28{clip-path:url(#SVGID_50_);fill:#A8CEB9;}
	.st29{clip-path:url(#SVGID_52_);fill:#A8CEB9;}
	.st30{clip-path:url(#SVGID_54_);fill:#A8CEB9;}
	.st31{clip-path:url(#SVGID_56_);fill:#4E787D;}
	.st32{fill:#4E787D;}
	.st33{clip-path:url(#SVGID_58_);fill:#7EB668;}
	.st34{clip-path:url(#SVGID_60_);fill:#7EB668;}
	.st35{clip-path:url(#SVGID_62_);fill:#7EB668;}
	.st36{clip-path:url(#SVGID_64_);fill:#7EB668;}
	.st37{clip-path:url(#SVGID_66_);fill:#7EB668;}
	.st38{clip-path:url(#SVGID_68_);fill:#7EB668;}
	.st39{clip-path:url(#SVGID_70_);fill:#7EB668;}
	.st40{clip-path:url(#SVGID_72_);fill:#7EB668;}
	.st41{clip-path:url(#SVGID_74_);fill:#7EB668;}
	.st42{clip-path:url(#SVGID_76_);fill:#7EB668;}
	.st43{clip-path:url(#SVGID_78_);fill:#7EB668;}
	.st44{clip-path:url(#SVGID_80_);fill:#7EB668;}
	.st45{clip-path:url(#SVGID_82_);fill:#7EB668;}
	.st46{clip-path:url(#SVGID_84_);fill:#7EB668;}
	.st47{clip-path:url(#SVGID_86_);fill:#7EB668;}
	.st48{clip-path:url(#SVGID_88_);fill:#7EB668;}
	.st49{clip-path:url(#SVGID_90_);fill:#7EB668;}
	.st50{clip-path:url(#SVGID_92_);fill:#616C73;}
	.st51{clip-path:url(#SVGID_94_);fill:#738087;}
	.st52{clip-path:url(#SVGID_96_);fill:#D0E7F6;}
	.st53{clip-path:url(#SVGID_98_);fill:#D0E7F6;}
	.st54{clip-path:url(#SVGID_100_);fill:#9EB7C8;}
	.st55{clip-path:url(#SVGID_102_);fill:#D0E7F6;}
	.st56{clip-path:url(#SVGID_104_);fill:#FFFFFF;}
	.st57{clip-path:url(#SVGID_106_);fill:#FFFFFF;}
</style>
<g id="Color_Strip">
	<rect x="45" y="63" class="st0" width="270" height="378"/>
	<rect x="45" y="373.31" class="st1" width="27.15" height="40.22"/>
	<rect x="164.86" y="373.31" class="st1" width="150.14" height="40.22"/>
</g>
<g id="Date">
	<g class="st2">
		<path class="st3" d="M93.01,403.22l-1.68,2.33c-0.04,0.06-0.1,0.08-0.15,0.08h-0.02c-0.07,0-0.12-0.02-0.16-0.08l-1.68-2.33v4.32
			c0,0.1-0.08,0.18-0.18,0.18c-0.1,0-0.19-0.08-0.19-0.18v-4.87c0-0.06,0.03-0.11,0.08-0.14c0-0.01,0.01-0.01,0.02-0.01
			c0.08-0.05,0.19-0.04,0.25,0.04l1.87,2.59l1.86-2.59c0.05-0.08,0.17-0.1,0.25-0.04c0.02,0.02,0.04,0.04,0.05,0.06
			c0.02,0.03,0.03,0.07,0.03,0.1v4.87c0,0.1-0.08,0.18-0.18,0.18c-0.1,0-0.18-0.08-0.18-0.18V403.22z"/>
	</g>
	<g class="st2">
		<path class="st3" d="M98.29,404.22v3.32c0,0.1-0.08,0.18-0.18,0.18s-0.18-0.08-0.18-0.18v-0.55c-0.32,0.44-0.82,0.73-1.38,0.73
			c-0.97,0-1.74-0.83-1.74-1.84c0-1.01,0.77-1.84,1.74-1.84c0.56,0,1.07,0.29,1.38,0.72v-0.54c0-0.11,0.08-0.18,0.18-0.18
			S98.29,404.12,98.29,404.22z M97.93,405.88c0-0.83-0.62-1.49-1.38-1.49c-0.75,0-1.38,0.66-1.38,1.49c0,0.83,0.63,1.48,1.38,1.48
			C97.31,407.36,97.93,406.71,97.93,405.88z"/>
	</g>
	<g class="st2">
		<path class="st3" d="M100.09,404.23c0-0.1,0.08-0.18,0.19-0.18c0.09,0,0.17,0.08,0.17,0.18v0.81c0.02-0.03,0.03-0.06,0.05-0.09
			c0.28-0.44,0.77-0.9,1.47-0.9c0.1,0,0.18,0.08,0.18,0.18c0,0.1-0.08,0.18-0.18,0.18c-0.48,0-0.81,0.27-1.07,0.6
			c-0.25,0.33-0.39,0.71-0.44,0.86c-0.02,0.03-0.02,0.04-0.02,0.06v1.61c0,0.1-0.08,0.18-0.17,0.18c-0.1,0-0.19-0.08-0.19-0.18
			V404.23z"/>
		<path class="st3" d="M105.33,407.4l2.46-2.21c0.29-0.27,0.45-0.63,0.45-1.01c0-0.32-0.12-0.65-0.35-0.9
			c-0.26-0.29-0.63-0.44-1-0.44c-0.33,0-0.65,0.11-0.92,0.35l-0.26,0.23c-0.07,0.08-0.19,0.07-0.25-0.01
			c-0.08-0.08-0.07-0.2,0.01-0.26l0.26-0.24c0.33-0.29,0.75-0.44,1.16-0.44c0.46,0,0.92,0.18,1.26,0.56
			c0.31,0.33,0.45,0.74,0.45,1.15c0,0.46-0.19,0.93-0.56,1.28l-2.1,1.9h2.48c0.1,0,0.18,0.08,0.18,0.19c0,0.1-0.08,0.18-0.18,0.18
			h-2.93h-0.03c-0.05,0-0.11-0.01-0.14-0.05C105.26,407.58,105.26,407.47,105.33,407.4z"/>
		<path class="st3" d="M110.62,403l-0.74,0.43c-0.02,0.02-0.06,0.03-0.09,0.03c-0.07,0-0.13-0.04-0.16-0.09
			c-0.05-0.1-0.02-0.2,0.07-0.25l1.01-0.62c0.08-0.04,0.2-0.01,0.25,0.07c0.02,0.04,0.03,0.09,0.02,0.13v4.83
			c0,0.1-0.07,0.18-0.18,0.18c-0.1,0-0.18-0.08-0.18-0.18V403z"/>
		<path class="st3" d="M114.61,405.11c0-0.08,0.06-0.14,0.14-0.14h1.6c0.08,0,0.14,0.05,0.14,0.14c0,0.09-0.07,0.15-0.14,0.15h-1.6
			C114.67,405.26,114.61,405.2,114.61,405.11z"/>
		<path class="st3" d="M123.08,406.36h-2.4l-0.47,1.24c-0.03,0.08-0.1,0.12-0.17,0.12c-0.02,0-0.04-0.01-0.07-0.01
			c-0.09-0.04-0.14-0.15-0.1-0.24l1.82-4.87c0.03-0.07,0.1-0.11,0.18-0.11c0.08,0,0.16,0.04,0.18,0.11l1.82,4.87
			c0.04,0.09-0.01,0.2-0.1,0.24c-0.03,0-0.04,0.01-0.07,0.01c-0.07,0-0.14-0.04-0.17-0.12L123.08,406.36z M120.82,405.99h2.12
			l-1.06-2.82L120.82,405.99z"/>
		<path class="st3" d="M124.97,405.94v-0.08v-0.08v-1.57c0-0.1,0.08-0.18,0.18-0.18c0.1,0,0.19,0.08,0.19,0.18v0.53
			c0.32-0.43,0.83-0.71,1.4-0.71c0.99,0,1.78,0.82,1.78,1.82c0,1-0.79,1.83-1.78,1.83c-0.57,0-1.08-0.29-1.4-0.72v2.1
			c0,0.1-0.08,0.18-0.19,0.18c-0.1,0-0.18-0.08-0.18-0.18V405.94z M125.34,405.87c0,0.81,0.64,1.46,1.4,1.47
			c0.78-0.01,1.41-0.66,1.41-1.47s-0.63-1.46-1.41-1.46c-0.74,0-1.37,0.62-1.4,1.4V405.87z"/>
		<path class="st3" d="M129.92,404.23c0-0.1,0.08-0.18,0.19-0.18c0.09,0,0.17,0.08,0.17,0.18v0.81c0.02-0.03,0.03-0.06,0.05-0.09
			c0.28-0.44,0.77-0.9,1.47-0.9c0.1,0,0.18,0.08,0.18,0.18c0,0.1-0.08,0.18-0.18,0.18c-0.48,0-0.81,0.27-1.07,0.6
			c-0.25,0.33-0.39,0.71-0.44,0.86c-0.02,0.03-0.02,0.04-0.02,0.06v1.61c0,0.1-0.08,0.18-0.17,0.18c-0.1,0-0.19-0.08-0.19-0.18
			V404.23z"/>
		<path class="st3" d="M136.03,403l-0.74,0.43c-0.02,0.02-0.06,0.03-0.09,0.03c-0.07,0-0.13-0.04-0.16-0.09
			c-0.05-0.1-0.02-0.2,0.07-0.25l1.01-0.62c0.08-0.04,0.2-0.01,0.25,0.07c0.02,0.04,0.03,0.09,0.02,0.13v4.83
			c0,0.1-0.07,0.18-0.18,0.18c-0.1,0-0.18-0.08-0.18-0.18V403z"/>
		<path class="st3" d="M139.51,402.46c0.9,0,1.63,0.67,1.73,1.53c0.01,0.01,0.01,0.02,0.01,0.04c0.01,0.14,0.02,0.29,0.02,0.45
			c0,0.7-0.15,1.47-0.5,2.09c-0.36,0.62-0.98,1.11-1.84,1.14h-0.01c-0.1,0-0.19-0.08-0.19-0.17c0-0.1,0.08-0.19,0.18-0.2
			c0.73-0.03,1.21-0.41,1.53-0.95c0.18-0.32,0.31-0.68,0.38-1.05c-0.32,0.36-0.78,0.58-1.31,0.58c-0.95,0-1.73-0.77-1.73-1.73
			C137.77,403.24,138.55,402.46,139.51,402.46z M140.88,404.19c0-0.75-0.61-1.36-1.37-1.36c-0.75,0-1.37,0.61-1.37,1.36
			c0,0.77,0.62,1.37,1.37,1.37C140.27,405.56,140.88,404.96,140.88,404.19z"/>
	</g>
</g>
<g id="Image">
	<g>
		<g>
			<g>
				<defs>
					<rect id="SVGID_1_" x="108.38" y="111.12" width="143.23" height="149.2"/>
				</defs>
				<clipPath id="SVGID_2_">
					<use xlink:href="#SVGID_1_"  style="overflow:visible;"/>
				</clipPath>
				<path class="st4" d="M166.86,230.41c0,16.52-9.15,29.91-20.44,29.91c-11.29,0-20.44-13.39-20.44-29.91s9.15-29.91,20.44-29.91
					C157.7,200.5,166.86,213.89,166.86,230.41"/>
			</g>
			<g>
				<defs>
					<rect id="SVGID_3_" x="108.38" y="111.12" width="143.23" height="149.2"/>
				</defs>
				<clipPath id="SVGID_4_">
					<use xlink:href="#SVGID_3_"  style="overflow:visible;"/>
				</clipPath>
				<path class="st5" d="M166.86,229.6c0,13.51-9.15,24.47-20.44,24.47c-11.29,0-20.44-10.95-20.44-24.47s9.15-24.47,20.44-24.47
					C157.7,205.13,166.86,216.08,166.86,229.6"/>
			</g>
			<g>
				<defs>
					<rect id="SVGID_5_" x="108.38" y="111.12" width="143.23" height="149.2"/>
				</defs>
				<clipPath id="SVGID_6_">
					<use xlink:href="#SVGID_5_"  style="overflow:visible;"/>
				</clipPath>
				<path class="st6" d="M159.68,227.83c-4.8-1.48-7.49-6.57-6.01-11.36c1.48-4.8,6.57-7.49,11.36-6.01
					c4.8,1.48,7.49,6.57,6.01,11.36C169.57,226.62,164.48,229.31,159.68,227.83"/>
			</g>
			<g>
				<defs>
					<rect id="SVGID_7_" x="108.38" y="111.12" width="143.23" height="149.2"/>
				</defs>
				<clipPath id="SVGID_8_">
					<use xlink:href="#SVGID_7_"  style="overflow:visible;"/>
				</clipPath>
				<path class="st7" d="M157.53,224.32c-2.35-0.72-3.67-3.21-2.94-5.56c0.72-2.35,3.21-3.66,5.56-2.94
					c2.35,0.72,3.67,3.21,2.94,5.56C162.37,223.72,159.88,225.04,157.53,224.32"/>
			</g>
			<g>
				<defs>
					<rect id="SVGID_9_" x="108.38" y="111.12" width="143.23" height="149.2"/>
				</defs>
				<clipPath id="SVGID_10_">
					<use xlink:href="#SVGID_9_"  style="overflow:visible;"/>
				</clipPath>
				<path class="st8" d="M128.48,227.13c-4.8-1.48-7.49-6.57-6.01-11.36c1.48-4.8,6.57-7.49,11.36-6.01
					c4.8,1.48,7.49,6.57,6.01,11.36C138.36,225.92,133.28,228.61,128.48,227.13"/>
			</g>
			<g>
				<defs>
					<rect id="SVGID_11_" x="108.38" y="111.12" width="143.23" height="149.2"/>
				</defs>
				<clipPath id="SVGID_12_">
					<use xlink:href="#SVGID_11_"  style="overflow:visible;"/>
				</clipPath>
				<path class="st9" d="M126.33,223.62c-2.35-0.72-3.67-3.21-2.94-5.56c0.72-2.35,3.21-3.66,5.56-2.94
					c2.35,0.72,3.66,3.21,2.94,5.56C131.17,223.02,128.68,224.34,126.33,223.62"/>
			</g>
			<g>
				<defs>
					<rect id="SVGID_13_" x="108.38" y="111.12" width="143.23" height="149.2"/>
				</defs>
				<clipPath id="SVGID_14_">
					<use xlink:href="#SVGID_13_"  style="overflow:visible;"/>
				</clipPath>
				<path class="st10" d="M109.3,187.67c2.66,7.38,12,10.3,17.7,8.72h0.01c1.38-0.08,2.92-0.5,4.8-1.32
					c0.53-0.23,1.57-1.04,1.95-1.3c0.88-0.61,1.59-1.38,2.13-2.24c0.01-0.01,0.02-0.03,0.03-0.05c1.59-2.57,1.67-6.01,0.02-8.92
					v-0.01c-0.14-0.27-0.31-0.54-0.49-0.8c-1.21-1.74-2.9-2.94-4.72-3.54c0.74,0.57,1.41,1.27,1.98,2.09
					c2.8,4.01,2.06,9.34-1.63,11.97h-0.01c-9.71,2.7-16.14-5.66-16.29-13.14c-0.04-1.65,0.28-3.22,0.89-4.69
					c0.24-0.59,0.71-1.07,1.32-1.3H117c5.62-2.15,11.65-1.28,16.31,1.81c3,1.99,5.43,4.9,6.82,8.52c2,5.24,1.39,10.84-1.21,15.35
					c5.76-4.76,8.13-12.84,5.31-20.2c-3.53-9.24-13.9-13.86-23.13-10.33c-0.22,0.09-0.66,0.27-0.66,0.27l-0.08,0.03
					c-0.7,0.22-2.03,0.77-2.03,0.77s-0.64,0.19-0.95,0.3C109.88,172.33,106.64,180.29,109.3,187.67"/>
			</g>
			<g>
				<defs>
					<rect id="SVGID_15_" x="108.38" y="111.12" width="143.23" height="149.2"/>
				</defs>
				<clipPath id="SVGID_16_">
					<use xlink:href="#SVGID_15_"  style="overflow:visible;"/>
				</clipPath>
				<path class="st11" d="M185.91,186.92c-2.66,7.38-12,10.3-17.7,8.72h-0.01c-1.38-0.08-2.92-0.5-4.8-1.32
					c-0.53-0.23-1.57-1.04-1.95-1.3c-0.88-0.61-1.59-1.38-2.13-2.24c-0.01-0.01-0.02-0.03-0.03-0.05c-1.59-2.57-1.67-6.01-0.02-8.92
					v-0.01c0.14-0.27,0.31-0.54,0.49-0.8c1.21-1.74,2.9-2.94,4.72-3.54c-0.74,0.57-1.41,1.27-1.98,2.09
					c-2.8,4.01-2.06,9.34,1.63,11.97h0.01c9.71,2.7,16.14-5.66,16.29-13.14c0.04-1.65-0.28-3.22-0.89-4.69
					c-0.24-0.59-0.71-1.07-1.32-1.3h-0.01c-5.62-2.15-11.65-1.28-16.31,1.81c-3,1.99-5.43,4.9-6.82,8.52
					c-2,5.24-1.39,10.84,1.21,15.35c-5.76-4.76-8.12-12.84-5.31-20.2c3.53-9.24,13.9-13.86,23.13-10.33
					c0.22,0.09,0.66,0.27,0.66,0.27l0.08,0.03c0.7,0.22,2.03,0.77,2.03,0.77s0.64,0.19,0.95,0.3
					C185.34,171.57,188.58,179.53,185.91,186.92"/>
			</g>
			<g>
				<defs>
					<rect id="SVGID_17_" x="108.38" y="111.12" width="143.23" height="149.2"/>
				</defs>
				<clipPath id="SVGID_18_">
					<use xlink:href="#SVGID_17_"  style="overflow:visible;"/>
				</clipPath>
				<path class="st12" d="M138.14,202.79c0.21,2.62-4.65,5.15-10.86,5.66c-6.21,0.51-11.42-1.2-11.63-3.82
					c-0.21-2.62,4.65-5.15,10.86-5.66C132.72,198.46,137.93,200.17,138.14,202.79"/>
			</g>
			<g>
				<defs>
					<rect id="SVGID_19_" x="108.38" y="111.12" width="143.23" height="149.2"/>
				</defs>
				<clipPath id="SVGID_20_">
					<use xlink:href="#SVGID_19_"  style="overflow:visible;"/>
				</clipPath>
				<path class="st13" d="M177.19,204.38c-0.16,2.62-5.33,4.44-11.55,4.07s-11.13-2.8-10.98-5.42c0.16-2.62,5.33-4.44,11.55-4.07
					C172.44,199.33,177.35,201.76,177.19,204.38"/>
			</g>
			<g>
				<defs>
					<rect id="SVGID_21_" x="108.38" y="111.12" width="143.23" height="149.2"/>
				</defs>
				<clipPath id="SVGID_22_">
					<use xlink:href="#SVGID_21_"  style="overflow:visible;"/>
				</clipPath>
				<path class="st14" d="M210.76,141.63c-10.94,13.74-12.98,30.33-4.54,37.05c0.77,0.61,1.6,1.12,2.47,1.53
					c-7.09-7.26-4.75-22.94,5.67-36.03c9.95-12.49,23.83-18.34,32.62-14.26c-0.35-0.36-0.73-0.7-1.13-1.02
					C237.41,122.18,221.7,127.88,210.76,141.63"/>
			</g>
			<g>
				<defs>
					<rect id="SVGID_23_" x="108.38" y="111.12" width="143.23" height="149.2"/>
				</defs>
				<clipPath id="SVGID_24_">
					<use xlink:href="#SVGID_23_"  style="overflow:visible;"/>
				</clipPath>
				<path class="st15" d="M238.97,129.11c-0.85,1.07,0.51,3.58,3.06,5.6c2.54,2.02,5.29,2.79,6.14,1.72
					c0.85-1.07-0.51-3.58-3.06-5.6C242.58,128.81,239.83,128.04,238.97,129.11"/>
			</g>
			<g>
				<defs>
					<rect id="SVGID_25_" x="108.38" y="111.12" width="143.23" height="149.2"/>
				</defs>
				<clipPath id="SVGID_26_">
					<use xlink:href="#SVGID_25_"  style="overflow:visible;"/>
				</clipPath>
				<path class="st16" d="M240.95,126.62c0.6,1.23,3.46,1.07,6.37-0.36c2.92-1.43,4.79-3.58,4.19-4.81
					c-0.6-1.23-3.46-1.07-6.37,0.36C242.22,123.24,240.34,125.4,240.95,126.62"/>
			</g>
			<g>
				<defs>
					<rect id="SVGID_27_" x="108.38" y="111.12" width="143.23" height="149.2"/>
				</defs>
				<clipPath id="SVGID_28_">
					<use xlink:href="#SVGID_27_"  style="overflow:visible;"/>
				</clipPath>
				<path class="st17" d="M233.45,127.95c1.15,0.75,3.51-0.85,5.29-3.57c1.77-2.72,2.28-5.53,1.13-6.28s-3.52,0.85-5.29,3.57
					C232.81,124.4,232.3,127.21,233.45,127.95"/>
			</g>
			<g>
				<defs>
					<rect id="SVGID_29_" x="108.38" y="111.12" width="143.23" height="149.2"/>
				</defs>
				<clipPath id="SVGID_30_">
					<use xlink:href="#SVGID_29_"  style="overflow:visible;"/>
				</clipPath>
				<path class="st18" d="M223.21,130.94c1.15,0.75,3.51-0.85,5.29-3.57c1.77-2.72,2.28-5.53,1.13-6.28s-3.52,0.85-5.29,3.57
					C222.57,127.38,222.06,130.2,223.21,130.94"/>
			</g>
			<g>
				<defs>
					<rect id="SVGID_31_" x="108.38" y="111.12" width="143.23" height="149.2"/>
				</defs>
				<clipPath id="SVGID_32_">
					<use xlink:href="#SVGID_31_"  style="overflow:visible;"/>
				</clipPath>
				<path class="st19" d="M219.1,137.14c1.37-0.02,2.44-2.67,2.4-5.91c-0.05-3.25-1.19-5.86-2.56-5.84
					c-1.37,0.02-2.44,2.67-2.4,5.91C216.58,134.54,217.73,137.16,219.1,137.14"/>
			</g>
			<g>
				<defs>
					<rect id="SVGID_33_" x="108.38" y="111.12" width="143.23" height="149.2"/>
				</defs>
				<clipPath id="SVGID_34_">
					<use xlink:href="#SVGID_33_"  style="overflow:visible;"/>
				</clipPath>
				<path class="st20" d="M211.58,142.13c1.34,0.28,2.97-2.06,3.64-5.24c0.67-3.18,0.13-5.98-1.21-6.26
					c-1.34-0.28-2.97,2.06-3.64,5.24C209.69,139.04,210.24,141.85,211.58,142.13"/>
			</g>
			<g>
				<defs>
					<rect id="SVGID_35_" x="108.38" y="111.12" width="143.23" height="149.2"/>
				</defs>
				<clipPath id="SVGID_36_">
					<use xlink:href="#SVGID_35_"  style="overflow:visible;"/>
				</clipPath>
				<path class="st21" d="M211.03,148.25c1.24-0.59,1.11-3.44-0.29-6.38c-1.4-2.93-3.53-4.83-4.76-4.25
					c-1.24,0.59-1.11,3.44,0.29,6.38C207.66,146.94,209.79,148.84,211.03,148.25"/>
			</g>
			<g>
				<defs>
					<rect id="SVGID_37_" x="108.38" y="111.12" width="143.23" height="149.2"/>
				</defs>
				<clipPath id="SVGID_38_">
					<use xlink:href="#SVGID_37_"  style="overflow:visible;"/>
				</clipPath>
				<path class="st22" d="M206.5,154.87c1.3-0.43,1.53-3.28,0.52-6.36s-2.89-5.24-4.19-4.81c-1.3,0.43-1.53,3.28-0.52,6.36
					C203.32,153.14,205.2,155.3,206.5,154.87"/>
			</g>
			<g>
				<defs>
					<rect id="SVGID_39_" x="108.38" y="111.12" width="143.23" height="149.2"/>
				</defs>
				<clipPath id="SVGID_40_">
					<use xlink:href="#SVGID_39_"  style="overflow:visible;"/>
				</clipPath>
				<path class="st23" d="M204.62,159.17c1.09-0.83,0.37-3.6-1.6-6.18c-1.97-2.58-4.45-4-5.54-3.17s-0.37,3.6,1.6,6.18
					C201.05,158.58,203.53,160,204.62,159.17"/>
			</g>
			<g>
				<defs>
					<rect id="SVGID_41_" x="108.38" y="111.12" width="143.23" height="149.2"/>
				</defs>
				<clipPath id="SVGID_42_">
					<use xlink:href="#SVGID_41_"  style="overflow:visible;"/>
				</clipPath>
				<path class="st24" d="M201.44,168.42c1.3-0.43,1.53-3.28,0.52-6.36s-2.89-5.24-4.19-4.81c-1.3,0.43-1.53,3.28-0.52,6.36
					C198.27,166.7,200.14,168.85,201.44,168.42"/>
			</g>
			<g>
				<defs>
					<rect id="SVGID_43_" x="108.38" y="111.12" width="143.23" height="149.2"/>
				</defs>
				<clipPath id="SVGID_44_">
					<use xlink:href="#SVGID_43_"  style="overflow:visible;"/>
				</clipPath>
				<path class="st25" d="M202.92,165.33c0.59,1.24,3.44,1.11,6.38-0.29c2.93-1.39,4.83-3.53,4.25-4.76
					c-0.59-1.24-3.44-1.11-6.38,0.29C204.23,161.96,202.33,164.09,202.92,165.33"/>
			</g>
			<g>
				<defs>
					<rect id="SVGID_45_" x="108.38" y="111.12" width="143.23" height="149.2"/>
				</defs>
				<clipPath id="SVGID_46_">
					<use xlink:href="#SVGID_45_"  style="overflow:visible;"/>
				</clipPath>
				<path class="st26" d="M205.8,157.56c0.89,1.04,3.61,0.18,6.08-1.93c2.47-2.11,3.75-4.66,2.87-5.7
					c-0.89-1.04-3.61-0.18-6.08,1.93C206.19,153.97,204.91,156.52,205.8,157.56"/>
			</g>
			<g>
				<defs>
					<rect id="SVGID_47_" x="108.38" y="111.12" width="143.23" height="149.2"/>
				</defs>
				<clipPath id="SVGID_48_">
					<use xlink:href="#SVGID_47_"  style="overflow:visible;"/>
				</clipPath>
				<path class="st27" d="M207.84,145.35c-0.04,1.37,2.57,2.55,5.81,2.63c3.25,0.09,5.91-0.95,5.94-2.32
					c0.04-1.37-2.57-2.55-5.81-2.63C210.54,142.94,207.88,143.98,207.84,145.35"/>
			</g>
			<g>
				<defs>
					<rect id="SVGID_49_" x="108.38" y="111.12" width="143.23" height="149.2"/>
				</defs>
				<clipPath id="SVGID_50_">
					<use xlink:href="#SVGID_49_"  style="overflow:visible;"/>
				</clipPath>
				<path class="st28" d="M219.33,134.5c-0.12,1.36,2.41,2.7,5.64,2.98c3.24,0.28,5.95-0.6,6.07-1.96c0.12-1.36-2.41-2.7-5.64-2.98
					C222.17,132.26,219.45,133.14,219.33,134.5"/>
			</g>
			<g>
				<defs>
					<rect id="SVGID_51_" x="108.38" y="111.12" width="143.23" height="149.2"/>
				</defs>
				<clipPath id="SVGID_52_">
					<use xlink:href="#SVGID_51_"  style="overflow:visible;"/>
				</clipPath>
				<path class="st29" d="M215.8,136.87c-0.51,1.27,1.52,3.28,4.53,4.49s5.87,1.16,6.38-0.11c0.51-1.27-1.52-3.28-4.53-4.49
					C219.16,135.55,216.31,135.6,215.8,136.87"/>
			</g>
			<g>
				<defs>
					<rect id="SVGID_53_" x="108.38" y="111.12" width="143.23" height="149.2"/>
				</defs>
				<clipPath id="SVGID_54_">
					<use xlink:href="#SVGID_53_"  style="overflow:visible;"/>
				</clipPath>
				<path class="st30" d="M228.81,130.37c-0.56,1.25,1.38,3.34,4.33,4.68c2.96,1.34,5.81,1.41,6.38,0.17
					c0.57-1.25-1.38-3.34-4.33-4.68C232.23,129.19,229.38,129.12,228.81,130.37"/>
			</g>
			<g>
				<defs>
					<rect id="SVGID_55_" x="108.38" y="111.12" width="143.23" height="149.2"/>
				</defs>
				<clipPath id="SVGID_56_">
					<use xlink:href="#SVGID_55_"  style="overflow:visible;"/>
				</clipPath>
				<path class="st31" d="M225.89,168.61c0.29,31.89-12.14,57.86-27.78,58c-1.42,0.01-2.82-0.19-4.19-0.59
					c14.58-2.43,25.85-27.44,25.57-57.81c-0.27-28.98-10.96-52.89-24.64-56.9c0.72-0.12,1.45-0.18,2.19-0.19
					C212.69,110.98,225.6,136.71,225.89,168.61"/>
			</g>
		</g>
		<polygon class="st32" points="198.27,123.33 220.17,136.58 217.35,140.39 		"/>
		<polygon class="st32" points="222.71,111.87 216.63,144.32 223.18,144.88 		"/>
		<polygon class="st32" points="196.53,142.73 224.9,159.62 220.99,164.91 		"/>
		<polygon class="st32" points="231.47,129.55 222.3,161.27 216.2,158.82 		"/>
		<polygon class="st32" points="204.48,156.8 225.49,182.27 220.03,185.93 		"/>
		<polygon class="st32" points="204.88,185.14 220.13,202 214.66,205.66 		"/>
		<polygon class="st32" points="233.99,148.8 224.82,180.51 218.72,178.07 		"/>
		<polygon class="st32" points="234.84,178.95 221.84,196.88 217.15,192.27 		"/>
		<g>
			<g>
				<defs>
					<rect id="SVGID_57_" x="108.38" y="111.12" width="143.23" height="149.2"/>
				</defs>
				<clipPath id="SVGID_58_">
					<use xlink:href="#SVGID_57_"  style="overflow:visible;"/>
				</clipPath>
				<path class="st33" d="M206.32,185.46c3.49,25.23-6.23,47.42-21.73,49.56c-1.41,0.2-2.82,0.22-4.21,0.08
					c14.21-3.81,22.88-25.09,19.56-49.12c-3.17-22.93-16.17-40.48-30.14-41.89c0.71-0.19,1.42-0.33,2.15-0.44
					C187.45,141.52,202.83,160.23,206.32,185.46"/>
			</g>
			<g>
				<defs>
					<rect id="SVGID_59_" x="108.38" y="111.12" width="143.23" height="149.2"/>
				</defs>
				<clipPath id="SVGID_60_">
					<use xlink:href="#SVGID_59_"  style="overflow:visible;"/>
				</clipPath>
				<path class="st34" d="M180.38,149.01c0.27,1.97-3.29,4.08-7.95,4.73c-4.66,0.64-8.66-0.43-8.94-2.39
					c-0.27-1.97,3.29-4.08,7.95-4.73C176.11,145.97,180.11,147.04,180.38,149.01"/>
			</g>
			<g>
				<defs>
					<rect id="SVGID_61_" x="108.38" y="111.12" width="143.23" height="149.2"/>
				</defs>
				<clipPath id="SVGID_62_">
					<use xlink:href="#SVGID_61_"  style="overflow:visible;"/>
				</clipPath>
				<path class="st35" d="M179.76,144.44c-1.66,1.09-5.1-1.22-7.68-5.16c-2.58-3.94-3.32-8.01-1.66-9.1
					c1.66-1.09,5.1,1.22,7.68,5.16C180.68,139.28,181.42,143.36,179.76,144.44"/>
			</g>
			<g>
				<defs>
					<rect id="SVGID_63_" x="108.38" y="111.12" width="143.23" height="149.2"/>
				</defs>
				<clipPath id="SVGID_64_">
					<use xlink:href="#SVGID_63_"  style="overflow:visible;"/>
				</clipPath>
				<path class="st36" d="M188.13,151.64c-1.98,0.08-3.75-3.66-3.95-8.36s1.24-8.58,3.23-8.67c1.98-0.08,3.75,3.66,3.95,8.36
					C191.56,147.68,190.11,151.56,188.13,151.64"/>
			</g>
			<g>
				<defs>
					<rect id="SVGID_65_" x="108.38" y="111.12" width="143.23" height="149.2"/>
				</defs>
				<clipPath id="SVGID_66_">
					<use xlink:href="#SVGID_65_"  style="overflow:visible;"/>
				</clipPath>
				<path class="st37" d="M198.69,162.94c-1.98,0.08-3.75-3.66-3.95-8.36s1.24-8.58,3.23-8.67c1.98-0.08,3.75,3.66,3.95,8.36
					C202.11,158.97,200.67,162.85,198.69,162.94"/>
			</g>
			<g>
				<defs>
					<rect id="SVGID_67_" x="108.38" y="111.12" width="143.23" height="149.2"/>
				</defs>
				<clipPath id="SVGID_68_">
					<use xlink:href="#SVGID_67_"  style="overflow:visible;"/>
				</clipPath>
				<path class="st38" d="M199.24,173.7c-1.69-1.04-1.07-5.13,1.38-9.15s5.82-6.43,7.51-5.39c1.69,1.04,1.07,5.13-1.38,9.15
					C204.3,172.32,200.93,174.74,199.24,173.7"/>
			</g>
			<g>
				<defs>
					<rect id="SVGID_69_" x="108.38" y="111.12" width="143.23" height="149.2"/>
				</defs>
				<clipPath id="SVGID_70_">
					<use xlink:href="#SVGID_69_"  style="overflow:visible;"/>
				</clipPath>
				<path class="st39" d="M204.93,185.49c-1.88-0.64-2.18-4.77-0.67-9.23c1.51-4.46,4.26-7.56,6.14-6.92s2.18,4.77,0.67,9.23
					S206.81,186.12,204.93,185.49"/>
			</g>
			<g>
				<defs>
					<rect id="SVGID_71_" x="108.38" y="111.12" width="143.23" height="149.2"/>
				</defs>
				<clipPath id="SVGID_72_">
					<use xlink:href="#SVGID_71_"  style="overflow:visible;"/>
				</clipPath>
				<path class="st40" d="M201.09,193.53c-1.11-1.65,1.16-5.11,5.07-7.74s7.97-3.42,9.08-1.77s-1.16,5.11-5.07,7.74
					C206.26,194.38,202.19,195.18,201.09,193.53"/>
			</g>
			<g>
				<defs>
					<rect id="SVGID_73_" x="108.38" y="111.12" width="143.23" height="149.2"/>
				</defs>
				<clipPath id="SVGID_74_">
					<use xlink:href="#SVGID_73_"  style="overflow:visible;"/>
				</clipPath>
				<path class="st41" d="M201.84,205.12c-1.31-1.49,0.51-5.22,4.05-8.31c3.54-3.1,7.48-4.4,8.78-2.9c1.31,1.49-0.51,5.22-4.05,8.32
					C207.08,205.32,203.15,206.62,201.84,205.12"/>
			</g>
			<g>
				<defs>
					<rect id="SVGID_75_" x="108.38" y="111.12" width="143.23" height="149.2"/>
				</defs>
				<clipPath id="SVGID_76_">
					<use xlink:href="#SVGID_75_"  style="overflow:visible;"/>
				</clipPath>
				<path class="st42" d="M201.01,211.87c-0.74-1.84,2.19-4.76,6.56-6.52s8.51-1.7,9.25,0.14s-2.19,4.76-6.56,6.52
					S201.75,213.71,201.01,211.87"/>
			</g>
			<g>
				<defs>
					<rect id="SVGID_77_" x="108.38" y="111.12" width="143.23" height="149.2"/>
				</defs>
				<clipPath id="SVGID_78_">
					<use xlink:href="#SVGID_77_"  style="overflow:visible;"/>
				</clipPath>
				<path class="st43" d="M198.13,225.76c-1.31-1.49,0.51-5.22,4.05-8.31c3.54-3.1,7.48-4.4,8.78-2.9c1.31,1.49-0.51,5.22-4.05,8.31
					S199.44,227.25,198.13,225.76"/>
			</g>
			<g>
				<defs>
					<rect id="SVGID_79_" x="108.38" y="111.12" width="143.23" height="149.2"/>
				</defs>
				<clipPath id="SVGID_80_">
					<use xlink:href="#SVGID_79_"  style="overflow:visible;"/>
				</clipPath>
				<path class="st44" d="M198.58,220.81c-1.65,1.11-5.11-1.16-7.74-5.07s-3.42-7.97-1.77-9.08s5.11,1.16,7.74,5.07
					S200.23,219.7,198.58,220.81"/>
			</g>
			<g>
				<defs>
					<rect id="SVGID_81_" x="108.38" y="111.12" width="143.23" height="149.2"/>
				</defs>
				<clipPath id="SVGID_82_">
					<use xlink:href="#SVGID_81_"  style="overflow:visible;"/>
				</clipPath>
				<path class="st45" d="M200.73,209c-1.88,0.64-4.64-2.45-6.16-6.9c-1.53-4.45-1.24-8.58,0.64-9.23c1.88-0.64,4.64,2.45,6.16,6.9
					C202.89,204.23,202.61,208.36,200.73,209"/>
			</g>
			<g>
				<defs>
					<rect id="SVGID_83_" x="108.38" y="111.12" width="143.23" height="149.2"/>
				</defs>
				<clipPath id="SVGID_84_">
					<use xlink:href="#SVGID_83_"  style="overflow:visible;"/>
				</clipPath>
				<path class="st46" d="M207.21,192.27c-0.97,1.73-5.08,1.28-9.19-1.01s-6.66-5.56-5.69-7.29s5.08-1.28,9.2,1.01
					C205.62,187.27,208.17,190.53,207.21,192.27"/>
			</g>
			<g>
				<defs>
					<rect id="SVGID_85_" x="108.38" y="111.12" width="143.23" height="149.2"/>
				</defs>
				<clipPath id="SVGID_86_">
					<use xlink:href="#SVGID_85_"  style="overflow:visible;"/>
				</clipPath>
				<path class="st47" d="M200.89,170.24c-0.86,1.79-5,1.58-9.24-0.46c-4.24-2.04-6.98-5.15-6.12-6.93s5-1.58,9.24,0.46
					C199.01,165.34,201.75,168.45,200.89,170.24"/>
			</g>
			<g>
				<defs>
					<rect id="SVGID_87_" x="108.38" y="111.12" width="143.23" height="149.2"/>
				</defs>
				<clipPath id="SVGID_88_">
					<use xlink:href="#SVGID_87_"  style="overflow:visible;"/>
				</clipPath>
				<path class="st48" d="M203.55,175.81c-0.3,1.96-4.32,2.97-8.97,2.25s-8.18-2.89-7.88-4.85s4.32-2.97,8.97-2.25
					C200.33,171.68,203.85,173.85,203.55,175.81"/>
			</g>
			<g>
				<defs>
					<rect id="SVGID_89_" x="108.38" y="111.12" width="143.23" height="149.2"/>
				</defs>
				<clipPath id="SVGID_90_">
					<use xlink:href="#SVGID_89_"  style="overflow:visible;"/>
				</clipPath>
				<path class="st49" d="M192.13,158.08c-0.22,1.97-4.19,3.15-8.87,2.64s-8.3-2.53-8.08-4.51c0.22-1.97,4.19-3.15,8.87-2.64
					C188.73,154.09,192.35,156.11,192.13,158.08"/>
			</g>
			<g>
				<defs>
					<rect id="SVGID_91_" x="108.38" y="111.12" width="143.23" height="149.2"/>
				</defs>
				<clipPath id="SVGID_92_">
					<use xlink:href="#SVGID_91_"  style="overflow:visible;"/>
				</clipPath>
				<path class="st50" d="M209.52,245.52c0,8.17-7.52,14.8-16.79,14.8s-16.79-6.63-16.79-14.8s7.52-14.8,16.79-14.8
					S209.52,237.35,209.52,245.52"/>
			</g>
			<g>
				<defs>
					<rect id="SVGID_93_" x="108.38" y="111.12" width="143.23" height="149.2"/>
				</defs>
				<clipPath id="SVGID_94_">
					<use xlink:href="#SVGID_93_"  style="overflow:visible;"/>
				</clipPath>
				<path class="st51" d="M196.52,225.85c0,6.08-4.45,11-9.93,11c-5.49,0-9.93-4.93-9.93-11s4.45-11,9.93-11
					C192.07,214.84,196.52,219.77,196.52,225.85"/>
			</g>
			<g>
				<defs>
					<rect id="SVGID_95_" x="108.38" y="111.12" width="143.23" height="149.2"/>
				</defs>
				<clipPath id="SVGID_96_">
					<use xlink:href="#SVGID_95_"  style="overflow:visible;"/>
				</clipPath>
				<path class="st52" d="M198.06,225.04c0,6.08-4.45,11-9.93,11s-9.93-4.93-9.93-11c0-6.08,4.45-11,9.93-11
					S198.06,218.96,198.06,225.04"/>
			</g>
			<g>
				<defs>
					<rect id="SVGID_97_" x="108.38" y="111.12" width="143.23" height="149.2"/>
				</defs>
				<clipPath id="SVGID_98_">
					<use xlink:href="#SVGID_97_"  style="overflow:visible;"/>
				</clipPath>
				<path class="st53" d="M213.46,242.89c0,8.63-8.01,15.62-17.9,15.62c-9.88,0-17.9-7-17.9-15.62s8.01-15.62,17.9-15.62
					C205.45,227.26,213.46,234.26,213.46,242.89"/>
			</g>
			<g>
				<defs>
					<rect id="SVGID_99_" x="108.38" y="111.12" width="143.23" height="149.2"/>
				</defs>
				<clipPath id="SVGID_100_">
					<use xlink:href="#SVGID_99_"  style="overflow:visible;"/>
				</clipPath>
				<path class="st54" d="M211.73,241.32c0,7.3-8.01,13.21-17.9,13.21c-9.88,0-17.9-5.91-17.9-13.21s8.01-13.21,17.9-13.21
					S211.73,234.02,211.73,241.32"/>
			</g>
			<g>
				<defs>
					<rect id="SVGID_101_" x="108.38" y="111.12" width="143.23" height="149.2"/>
				</defs>
				<clipPath id="SVGID_102_">
					<use xlink:href="#SVGID_101_"  style="overflow:visible;"/>
				</clipPath>
				<path class="st55" d="M209.52,243.71c0,8.17-7.52,14.8-16.79,14.8s-16.79-6.63-16.79-14.8s7.52-14.8,16.79-14.8
					S209.52,235.54,209.52,243.71"/>
			</g>
			<g>
				<defs>
					<rect id="SVGID_103_" x="108.38" y="111.12" width="143.23" height="149.2"/>
				</defs>
				<clipPath id="SVGID_104_">
					<use xlink:href="#SVGID_103_"  style="overflow:visible;"/>
				</clipPath>
				<path class="st56" d="M205.27,237.47c-0.34,0.81-3.84,0.13-7.82-1.52c-3.98-1.65-6.94-3.66-6.6-4.47s3.84-0.13,7.82,1.52
					C202.65,234.65,205.61,236.65,205.27,237.47"/>
			</g>
			<g>
				<defs>
					<rect id="SVGID_105_" x="108.38" y="111.12" width="143.23" height="149.2"/>
				</defs>
				<clipPath id="SVGID_106_">
					<use xlink:href="#SVGID_105_"  style="overflow:visible;"/>
				</clipPath>
				<path class="st57" d="M193.93,218.96c-0.31,0.74-2.2,0.65-4.23-0.19s-3.42-2.12-3.11-2.86s2.2-0.65,4.23,0.19
					C192.84,216.94,194.23,218.22,193.93,218.96"/>
			</g>
		</g>
	</g>
</g>
<g id="Name">
	<g class="st2">
		<path class="st3" d="M106.16,388.53h-3.64l-0.74,1.95c-0.13,0.33-0.45,0.53-0.78,0.53c-0.1,0-0.19-0.01-0.29-0.04
			c-0.43-0.17-0.64-0.65-0.49-1.08l3.31-8.83c0.13-0.33,0.46-0.54,0.79-0.52c0.34-0.02,0.66,0.19,0.79,0.52l3.31,8.83
			c0.15,0.43-0.06,0.92-0.5,1.08c-0.08,0.03-0.18,0.04-0.29,0.04c-0.33,0-0.65-0.2-0.76-0.53L106.16,388.53z M105.55,386.88
			l-1.21-3.22l-1.22,3.22H105.55z"/>
		<path class="st3" d="M114.95,384.3c0,0.42-0.34,0.79-0.79,0.79c-0.34,0-0.65,0.09-0.9,0.29c-0.29,0.18-0.51,0.44-0.69,0.72
			c-0.36,0.48-0.54,1.05-0.62,1.26v2.85c0,0.43-0.37,0.79-0.82,0.79c-0.44,0-0.79-0.36-0.79-0.79v-5.91c0-0.43,0.36-0.78,0.79-0.78
			c0.45,0,0.82,0.34,0.82,0.78v0.11c0.09-0.11,0.21-0.23,0.32-0.3c0.49-0.33,1.14-0.6,1.89-0.58
			C114.61,383.52,114.95,383.86,114.95,384.3z"/>
		<path class="st3" d="M118.55,381.63c0,0.45-0.34,0.83-0.81,0.83c-0.45,0-0.81-0.38-0.81-0.83v-0.31c0-0.45,0.36-0.81,0.81-0.81
			c0.47,0,0.81,0.36,0.81,0.81V381.63z M118.55,384.34v5.85c0,0.45-0.34,0.81-0.81,0.81c-0.45,0-0.81-0.36-0.81-0.81v-5.85
			c0-0.48,0.36-0.82,0.81-0.82C118.21,383.52,118.55,383.86,118.55,384.34z"/>
		<path class="st3" d="M120.61,387.25c0.01-2.04,1.6-3.75,3.66-3.75c1.95,0,3.5,1.46,3.61,3.48c0,0.01,0,0.04,0,0.07
			c0,0.03,0,0.11-0.01,0.14c-0.05,0.36-0.36,0.6-0.78,0.6h-4.77c0.07,0.34,0.24,0.74,0.51,0.99c0.31,0.36,0.92,0.63,1.44,0.67
			c0.54,0.04,1.19-0.09,1.56-0.38c0.31-0.33,0.93-0.29,1.12-0.04c0.19,0.21,0.34,0.66,0,0.97c-0.73,0.67-1.62,0.99-2.69,0.99
			C122.21,390.99,120.62,389.29,120.61,387.25z M122.24,386.52h4.24c-0.15-0.6-0.91-1.49-2.22-1.59
			C122.99,384.99,122.36,385.9,122.24,386.52z"/>
		<path class="st3" d="M129.91,388.86c0.27-0.36,0.79-0.41,1.12-0.12c0.39,0.33,1.07,0.67,1.65,0.66c0.4,0,0.78-0.14,1.02-0.29
			c0.21-0.18,0.27-0.33,0.27-0.45c0-0.08-0.01-0.11-0.04-0.15c-0.02-0.04-0.07-0.1-0.19-0.18c-0.21-0.15-0.66-0.32-1.2-0.42h-0.01
			c-0.47-0.09-0.92-0.21-1.31-0.39c-0.4-0.2-0.77-0.47-1.03-0.87c-0.17-0.27-0.26-0.6-0.26-0.95c0-0.69,0.39-1.27,0.89-1.65
			c0.52-0.36,1.15-0.56,1.84-0.56c1.04,0,1.77,0.5,2.25,0.83c0.36,0.24,0.46,0.74,0.24,1.11c-0.24,0.36-0.73,0.46-1.11,0.21
			c-0.48-0.32-0.9-0.56-1.38-0.56c-0.38,0-0.71,0.12-0.9,0.27c-0.19,0.13-0.24,0.27-0.24,0.34c0,0.06,0,0.08,0.03,0.12
			c0.02,0.03,0.06,0.09,0.17,0.15c0.19,0.13,0.58,0.27,1.09,0.36l0.02,0.02h0.02c0.49,0.09,0.96,0.22,1.4,0.43
			c0.4,0.18,0.81,0.46,1.06,0.88c0.18,0.3,0.28,0.65,0.28,0.99c0,0.74-0.4,1.35-0.94,1.74c-0.54,0.38-1.21,0.6-1.95,0.6
			c-1.17-0.01-2.07-0.55-2.67-1.04C129.68,389.7,129.64,389.19,129.91,388.86z"/>
	</g>
</g>
</svg>
