<?xml version="1.0" encoding="utf-8"?>
<!-- Generator: Adobe Illustrator 23.0.2, SVG Export Plug-In . SVG Version: 6.00 Build 0)  -->
<svg version="1.1" xmlns="http://www.w3.org/2000/svg" xmlns:xlink="http://www.w3.org/1999/xlink" x="0px" y="0px"
	 viewBox="0 0 252 252" style="enable-background:new 0 0 252 252;" xml:space="preserve">
<style type="text/css">
	.st0{display:none;}
	.st1{display:inline;fill:#FFFFFF;stroke:#252723;stroke-miterlimit:10;}
	.st2{fill:#FFFFFF;}
	.st3{fill:#C8D7BE;}
	.st4{clip-path:url(#SVGID_2_);fill:#A8CEB9;}
	.st5{clip-path:url(#SVGID_2_);fill:#4E787D;}
	.st6{fill:#4E787D;}
	.st7{clip-path:url(#SVGID_4_);fill:#7EB668;}
	.st8{clip-path:url(#SVGID_4_);fill:#9A9D2E;}
	.st9{display:inline;fill:none;stroke:#252723;stroke-miterlimit:10;}
</style>
<g id="Bleed" class="st0">
	<circle class="st1" cx="126" cy="126" r="72"/>
</g>
<g id="Background">
</g>
<g id="Image">
	<circle class="st2" cx="126" cy="126" r="57.66"/>
	<circle class="st3" cx="126" cy="126" r="50.01"/>
	<circle class="st2" cx="126" cy="126" r="45.64"/>
	<circle class="st3" cx="120.01" cy="126.69" r="44.02"/>
	<circle class="st2" cx="126" cy="126" r="40.72"/>
	<circle class="st2" cx="121.72" cy="127.63" r="31.72"/>
	<g>
		<g>
			<defs>
				<rect id="SVGID_1_" x="103" y="98.8" width="53.06" height="52.63"/>
			</defs>
			<clipPath id="SVGID_2_">
				<use xlink:href="#SVGID_1_"  style="overflow:visible;"/>
			</clipPath>
			<path class="st4" d="M139.35,111.3c-4.71,5.16-5.98,11.69-2.84,14.59c0.29,0.26,0.6,0.49,0.93,0.67
				c-2.6-3.08-1.23-9.24,3.26-14.15c4.28-4.69,9.94-6.63,13.29-4.77c-0.13-0.15-0.27-0.3-0.42-0.44
				C150.43,104.3,144.06,106.14,139.35,111.3"/>
			<path class="st4" d="M150.85,107.1c-0.37,0.4,0.1,1.44,1.05,2.31c0.95,0.87,2.01,1.25,2.38,0.85c0.37-0.4-0.1-1.43-1.05-2.31
				C152.29,107.08,151.22,106.7,150.85,107.1"/>
			<path class="st4" d="M151.7,106.16c0.2,0.51,1.33,0.52,2.53,0.03c1.19-0.49,1.99-1.29,1.79-1.8c-0.2-0.5-1.34-0.52-2.53-0.03
				C152.3,104.85,151.5,105.66,151.7,106.16"/>
			<path class="st4" d="M148.7,106.49c0.43,0.33,1.41-0.24,2.19-1.27c0.78-1.03,1.06-2.14,0.63-2.46c-0.43-0.33-1.41,0.24-2.19,1.27
				C148.55,105.06,148.27,106.16,148.7,106.49"/>
			<path class="st4" d="M144.57,107.4c0.43,0.33,1.41-0.24,2.19-1.27c0.78-1.03,1.06-2.14,0.62-2.46c-0.43-0.33-1.41,0.24-2.19,1.27
				C144.42,105.96,144.14,107.07,144.57,107.4"/>
			<path class="st4" d="M142.77,109.74c0.54,0.03,1.04-0.99,1.11-2.28c0.07-1.29-0.31-2.36-0.85-2.39
				c-0.54-0.03-1.04,0.99-1.11,2.28C141.85,108.64,142.23,109.71,142.77,109.74"/>
			<path class="st4" d="M139.66,111.52c0.52,0.15,1.23-0.74,1.59-1.98c0.35-1.24,0.22-2.37-0.3-2.52c-0.52-0.15-1.23,0.74-1.59,1.98
				C139,110.24,139.14,111.37,139.66,111.52"/>
			<path class="st4" d="M139.27,113.94c0.5-0.2,0.53-1.34,0.07-2.54c-0.47-1.2-1.26-2.01-1.76-1.82c-0.5,0.2-0.53,1.34-0.07,2.54
				C137.98,113.32,138.77,114.14,139.27,113.94"/>
			<path class="st4" d="M137.29,116.44c0.53-0.13,0.7-1.26,0.38-2.51c-0.31-1.25-0.99-2.16-1.52-2.03c-0.53,0.13-0.7,1.26-0.39,2.51
				C136.09,115.67,136.77,116.57,137.29,116.44"/>
			<path class="st4" d="M136.43,118.1c0.45-0.3,0.25-1.42-0.46-2.5c-0.71-1.08-1.65-1.71-2.1-1.41c-0.45,0.3-0.25,1.42,0.46,2.5
				C135.04,117.77,135.98,118.4,136.43,118.1"/>
			<path class="st4" d="M134.91,121.68c0.53-0.13,0.7-1.26,0.39-2.51c-0.31-1.25-1-2.16-1.52-2.03c-0.53,0.13-0.7,1.26-0.38,2.51
				C133.71,120.91,134.39,121.82,134.91,121.68"/>
			<path class="st4" d="M135.58,120.5c0.2,0.51,1.33,0.53,2.53,0.06c1.2-0.47,2.01-1.27,1.81-1.78c-0.2-0.51-1.33-0.53-2.53-0.06
				S135.39,119.99,135.58,120.5"/>
			<path class="st4" d="M136.94,117.49c0.32,0.44,1.42,0.17,2.46-0.6c1.04-0.77,1.62-1.75,1.29-2.19c-0.32-0.44-1.42-0.17-2.46,0.6
				C137.2,116.07,136.62,117.05,136.94,117.49"/>
			<path class="st4" d="M138.09,112.7c-0.05,0.54,0.94,1.08,2.22,1.2c1.28,0.12,2.36-0.22,2.41-0.76c0.05-0.54-0.94-1.08-2.22-1.2
				C139.23,111.82,138.15,112.16,138.09,112.7"/>
			<path class="st4" d="M142.94,108.7c-0.09,0.54,0.88,1.14,2.15,1.34c1.27,0.2,2.37-0.08,2.46-0.61c0.09-0.54-0.88-1.14-2.15-1.34
				C144.13,107.89,143.03,108.16,142.94,108.7"/>
			<path class="st4" d="M141.48,109.55c-0.24,0.49,0.51,1.34,1.67,1.91c1.16,0.56,2.29,0.62,2.52,0.13
				c0.24-0.49-0.51-1.35-1.66-1.91C142.84,109.12,141.71,109.06,141.48,109.55"/>
			<path class="st4" d="M146.8,107.32c-0.26,0.48,0.45,1.36,1.58,1.98c1.13,0.61,2.26,0.72,2.52,0.24c0.26-0.48-0.45-1.37-1.58-1.98
				C148.19,106.95,147.06,106.84,146.8,107.32"/>
			<path class="st5" d="M144.57,122.42c-0.78,12.67-6.43,22.64-12.61,22.28c-0.56-0.03-1.11-0.15-1.64-0.35
				c5.83-0.57,10.99-10.19,11.74-22.26c0.71-11.51-2.84-21.3-8.13-23.26c0.29-0.03,0.58-0.03,0.87-0.02
				C140.98,99.18,145.35,109.75,144.57,122.42"/>
		</g>
		<polygon class="st6" points="134.93,103.7 143.21,109.55 141.99,110.99 		"/>
		<polygon class="st6" points="144.91,99.81 144.17,112.93 141.6,112.53 		"/>
		<polygon class="st6" points="133.7,111.35 144.43,118.83 142.74,120.82 		"/>
		<polygon class="st6" points="147.88,107.07 143.36,119.41 141.02,118.27 		"/>
		<polygon class="st6" points="136.44,117.15 144.03,127.84 141.76,129.14 		"/>
		<polygon class="st6" points="135.8,128.42 141.35,135.53 139.09,136.83 		"/>
		<polygon class="st6" points="148.33,114.78 143.81,127.12 141.47,125.98 		"/>
		<polygon class="st6" points="147.82,126.77 142.17,133.54 140.45,131.58 		"/>
		<g>
			<defs>
				<rect id="SVGID_3_" x="103" y="98.8" width="53.06" height="52.63"/>
			</defs>
			<clipPath id="SVGID_4_">
				<use xlink:href="#SVGID_3_"  style="overflow:visible;"/>
			</clipPath>
			<path class="st7" d="M136.36,128.58c0.67,10.11-3.8,18.66-9.98,19.09c-0.56,0.04-1.12,0.01-1.67-0.08
				c5.72-1.13,9.75-9.34,9.12-18.97c-0.61-9.19-5.25-16.51-10.73-17.45c0.28-0.05,0.57-0.09,0.86-0.11
				C130.14,110.62,135.69,118.47,136.36,128.58"/>
			<path class="st7" d="M127.14,113.4c0.05,0.79-1.41,1.53-3.28,1.66c-1.86,0.13-3.41-0.4-3.46-1.19c-0.05-0.79,1.41-1.53,3.27-1.66
				C125.54,112.08,127.09,112.61,127.14,113.4"/>
			<path class="st7" d="M127.02,111.57c-0.69,0.39-1.98-0.62-2.89-2.26c-0.91-1.63-1.09-3.27-0.4-3.66
				c0.69-0.39,1.98,0.62,2.89,2.26C127.53,109.55,127.71,111.19,127.02,111.57"/>
			<path class="st7" d="M130.13,114.66c-0.79-0.02-1.38-1.56-1.33-3.43c0.05-1.87,0.73-3.38,1.52-3.35
				c0.79,0.02,1.38,1.56,1.33,3.43C131.59,113.18,130.91,114.68,130.13,114.66"/>
			<path class="st7" d="M133.98,119.43c-0.79-0.02-1.38-1.56-1.33-3.43c0.05-1.87,0.73-3.38,1.52-3.35
				c0.79,0.02,1.38,1.56,1.33,3.43C135.45,117.95,134.77,119.45,133.98,119.43"/>
			<path class="st7" d="M133.89,123.72c-0.64-0.46-0.28-2.07,0.81-3.59c1.08-1.53,2.48-2.4,3.12-1.94c0.64,0.46,0.28,2.07-0.8,3.59
				C135.93,123.31,134.53,124.18,133.89,123.72"/>
			<path class="st7" d="M135.81,128.55c-0.73-0.3-0.73-1.95,0-3.68c0.72-1.73,1.9-2.88,2.62-2.58c0.72,0.3,0.73,1.95,0,3.68
				C137.71,127.7,136.53,128.86,135.81,128.55"/>
			<path class="st7" d="M134.07,131.64c-0.39-0.68,0.6-2,2.22-2.94c1.62-0.94,3.25-1.14,3.64-0.46c0.39,0.68-0.6,2-2.22,2.93
				C136.09,132.12,134.46,132.33,134.07,131.64"/>
			<path class="st7" d="M134.04,136.27c-0.47-0.63,0.35-2.06,1.84-3.19c1.49-1.13,3.08-1.54,3.55-0.91
				c0.47,0.63-0.35,2.06-1.84,3.19C136.1,136.49,134.51,136.9,134.04,136.27"/>
			<path class="st7" d="M133.52,138.92c-0.24-0.75,1-1.83,2.78-2.41c1.77-0.58,3.41-0.44,3.65,0.31c0.24,0.75-1,1.83-2.78,2.41
				C135.39,139.81,133.76,139.67,133.52,138.92"/>
			<path class="st7" d="M131.99,144.36c-0.47-0.63,0.35-2.06,1.84-3.19c1.49-1.13,3.08-1.54,3.55-0.91s-0.35,2.06-1.84,3.19
				C134.05,144.58,132.46,144.99,131.99,144.36"/>
			<path class="st7" d="M132.31,142.41c-0.68,0.4-1.99-0.6-2.91-2.22c-0.93-1.62-1.13-3.26-0.45-3.65c0.68-0.4,1.99,0.6,2.91,2.22
				C132.79,140.38,132.99,142.01,132.31,142.41"/>
			<path class="st7" d="M133.49,137.78c-0.76,0.2-1.76-1.1-2.24-2.91s-0.25-3.44,0.51-3.65c0.76-0.2,1.76,1.1,2.24,2.91
				C134.48,135.94,134.25,137.57,133.49,137.78"/>
			<path class="st7" d="M136.52,131.31c-0.43,0.66-2.04,0.37-3.61-0.65c-1.56-1.02-2.48-2.39-2.04-3.05s2.04-0.37,3.61,0.65
				C136.03,129.28,136.95,130.65,136.52,131.31"/>
			<path class="st7" d="M134.65,122.39c-0.39,0.69-2.02,0.49-3.64-0.43c-1.62-0.93-2.62-2.23-2.22-2.92
				c0.39-0.69,2.02-0.49,3.64,0.43C134.04,120.4,135.04,121.7,134.65,122.39"/>
			<path class="st7" d="M135.54,124.68c-0.18,0.77-1.79,1.06-3.61,0.65c-1.82-0.41-3.15-1.37-2.98-2.14
				c0.18-0.77,1.79-1.06,3.61-0.65C134.38,122.95,135.71,123.9,135.54,124.68"/>
			<path class="st7" d="M131.53,117.32c-0.14,0.78-1.74,1.14-3.58,0.81c-1.83-0.33-3.21-1.23-3.07-2.01
				c0.14-0.78,1.74-1.14,3.58-0.81C130.29,115.65,131.67,116.55,131.53,117.32"/>
			<path class="st8" d="M125.82,149.55c-0.11,0.05-0.35,0.16-0.35,0.16l-0.04,0.02c-0.34,0.2-1.04,0.52-1.04,0.52
				s-0.31,0.18-0.47,0.27c-3.78,2.01-8.05,0.53-9.94-3.05c-1.89-3.58,0.41-8.23,3.12-9.91v-0.01c0.54-0.5,1.26-0.97,2.27-1.42
				c0.28-0.13,0.98-0.25,1.22-0.31c0.56-0.14,1.11-0.15,1.65-0.06c0.01,0,0.02,0,0.03,0.01c1.58,0.26,2.94,1.42,3.47,3.06l0,0.01
				c0.05,0.15,0.09,0.31,0.13,0.46c0.12,0.57,0.14,1.15,0.06,1.69c0.14,1.8-0.85,3.62-2.62,4.51c-0.05,0.03-0.17,0.08-0.17,0.08
				l-0.02,0.01c-0.17,0.1-0.51,0.26-0.51,0.26s-0.15,0.09-0.23,0.13c-1.83,0.98-3.9,0.26-4.82-1.48c-0.91-1.73,0.2-3.99,1.51-4.81
				c0.26-0.25,0.61-0.47,1.1-0.69c0.14-0.06,0.47-0.13,0.59-0.15c0.27-0.06,0.54-0.07,0.8-0.03h0.01c0.76,0.13,1.43,0.69,1.68,1.49
				v0.01c0.03,0.07,0.04,0.14,0.06,0.23c0.11,0.52,0.04,1.04-0.17,1.48c0.02-0.23,0.01-0.48-0.04-0.72
				c-0.26-1.2-1.39-1.95-2.54-1.69h-0.01c-2.23,1.39-1.81,4-0.42,5.28c0.3,0.28,0.65,0.49,1.04,0.61c0.15,0.05,0.33,0.04,0.48-0.03
				c0.7-0.35,1.28-0.85,1.72-1.44c0.43-0.58,0.72-1.26,0.84-1.96c0.16-0.9,0.04-1.85-0.39-2.71c-0.47-0.94-1.24-1.63-2.14-2.04h0
				c-0.48-0.07-0.99-0.04-1.5,0.07h0c-4.61,2.86-3.72,8.25-0.88,10.89c0.62,0.58,1.35,1,2.14,1.26c0.32,0.11,0.67,0.09,0.99-0.07h0
				c2.89-1.45,4.77-4.11,5.28-6.99c0.33-1.86,0.1-3.81-0.8-5.6c-0.14-0.28-0.28-0.54-0.45-0.79c-0.99-0.03-2.06-0.34-3.16-0.92
				c-3.1,0.38-6.67-1.48-8.9-4.94c-2.54-3.95-2.45-8.66,0.02-11.21c-0.1-0.72-0.29-1.48-0.6-2.24l-4.51,2.81
				c-0.17,0.11-0.35,0.19-0.52,0.24l-4.42,2.64c-0.44,0.26-1,0.1-1.26-0.35c-0.08-0.15-0.12-0.31-0.12-0.47
				c0-0.33,0.17-0.66,0.46-0.83l2.87-1.71c-0.51-0.6-0.72-1.45-0.37-2.33l2.89-7.27c0.43-1.09,1.57-1.62,2.61-1.4
				c0.03,0,0.06,0.01,0.09,0.02c0.04-0.01,0.09-0.02,0.13-0.03c1.43-0.29,3.61,0.38,5.63,1.85c2.09,1.53,3.4,3.48,3.48,4.95
				c0.64,0.6,1.19,1.35,1.61,2.22c0.57,1.19,0.82,2.42,0.76,3.57c0.16,0.74,0.19,1.49,0.12,2.18c0.53,0.98,1.05,2.1,1.52,3.32
				c1.04,2.69,1.6,5.22,1.58,6.82c1.65,0.85,3.03,2.19,3.92,3.95C132.58,141.52,130.58,147.16,125.82,149.55"/>
		</g>
	</g>
</g>
<g id="Text">
</g>
<g id="Safe_Area" class="st0">
	<circle class="st9" cx="126" cy="126" r="54"/>
</g>
</svg>
