<?xml version="1.0" encoding="utf-8"?>
<!-- Generator: Adobe Illustrator 23.0.2, SVG Export Plug-In . SVG Version: 6.00 Build 0)  -->
<svg version="1.1" xmlns="http://www.w3.org/2000/svg" xmlns:xlink="http://www.w3.org/1999/xlink" x="0px" y="0px"
	 viewBox="0 0 252 252" style="enable-background:new 0 0 252 252;" xml:space="preserve">
<style type="text/css">
	.st0{display:none;}
	.st1{display:inline;fill:#FFFFFF;stroke:#252723;stroke-miterlimit:10;}
	.st2{fill:#FFFFFF;}
	.st3{fill:#F8EDF4;}
	.st4{clip-path:url(#SVGID_2_);fill:#F3D9CF;}
	.st5{fill:#F3D9CF;}
	.st6{display:inline;fill:none;stroke:#252723;stroke-miterlimit:10;}
</style>
<g id="Bleed" class="st0">
	<circle class="st1" cx="126" cy="126" r="72"/>
</g>
<g id="Background">
</g>
<g id="Image">
	<circle class="st2" cx="126" cy="126" r="57.66"/>
	<circle class="st3" cx="126" cy="126" r="50.01"/>
	<circle class="st2" cx="126" cy="126" r="40.72"/>
	<circle class="st3" cx="126" cy="126" r="36"/>
	<g>
		<g>
			<defs>
				<rect id="SVGID_1_" x="99.21" y="103.26" width="70.74" height="70.74"/>
			</defs>
			<clipPath id="SVGID_2_">
				<use xlink:href="#SVGID_1_"  style="overflow:visible;"/>
			</clipPath>
			<path class="st4" d="M125.87,120.53c0,5.78-4.67,10.46-10.44,10.46c-5.76,0-10.44-4.68-10.44-10.46
				c0-5.78,4.67-10.46,10.44-10.46C121.2,110.07,125.87,114.75,125.87,120.53"/>
			<path class="st4" d="M146.75,120.64c0,5.78-4.67,10.46-10.44,10.46c-5.76,0-10.44-4.68-10.44-10.46
				c0-5.78,4.67-10.46,10.44-10.46C142.07,110.18,146.75,114.86,146.75,120.64"/>
		</g>
		<polygon class="st5" points="125.76,147.13 106.53,126.6 144.99,126.6 		"/>
		<polygon class="st5" points="125.38,141.68 106.53,121.15 144.23,121.15 		"/>
	</g>
</g>
<g id="Text">
	<g>
		<path class="st2" d="M105.19,88.04l-1.02,0.57l1.01,1.8c0.14,0.25,0.05,0.57-0.21,0.72c-0.25,0.14-0.57,0.05-0.71-0.2l-2.76-4.89
			c-0.14-0.26-0.05-0.57,0.2-0.71l0.01,0l1.47-0.83c0.99-0.56,2.23-0.21,2.79,0.78C106.52,86.23,106.18,87.48,105.19,88.04z
			 M103.65,87.69l1.02-0.57c0.48-0.27,0.64-0.86,0.39-1.33c-0.28-0.48-0.87-0.65-1.35-0.38l-1.02,0.57L103.65,87.69z"/>
		<path class="st2" d="M111.97,85.21l0.69,1.73c0.1,0.26-0.02,0.55-0.28,0.65c-0.23,0.09-0.47-0.01-0.61-0.2
			c-0.24,0.37-0.58,0.67-1.02,0.85c-0.6,0.24-1.22,0.2-1.76-0.05c-0.54-0.25-0.98-0.71-1.22-1.32c-0.24-0.61-0.24-1.25-0.02-1.79
			c0.22-0.56,0.64-1.02,1.24-1.26c0.44-0.18,0.9-0.18,1.33-0.08c-0.04-0.24,0.07-0.48,0.3-0.57c0.26-0.1,0.55,0.03,0.66,0.29
			L111.97,85.21z M111.03,85.59c-0.15-0.37-0.41-0.64-0.71-0.77c-0.31-0.15-0.66-0.16-0.97-0.04c-0.32,0.13-0.57,0.37-0.68,0.69
			c-0.12,0.3-0.12,0.67,0.03,1.04c0.14,0.36,0.39,0.63,0.7,0.78c0.29,0.14,0.64,0.14,0.96,0.02c0.31-0.12,0.56-0.37,0.68-0.67
			C111.17,86.32,111.18,85.95,111.03,85.59z"/>
		<path class="st2" d="M113.9,85.67c0.11-0.26,0.42-0.38,0.67-0.25c0.29,0.14,0.76,0.25,1.12,0.14c0.25-0.06,0.46-0.21,0.58-0.33
			c0.1-0.14,0.11-0.25,0.09-0.32c-0.01-0.04-0.03-0.06-0.05-0.08c-0.02-0.03-0.06-0.05-0.15-0.08c-0.15-0.06-0.45-0.09-0.8-0.07
			l-0.01,0c-0.3,0.02-0.59,0.02-0.86-0.03c-0.28-0.05-0.54-0.16-0.77-0.37c-0.14-0.14-0.25-0.33-0.31-0.54
			c-0.11-0.42,0.04-0.84,0.28-1.15c0.26-0.3,0.62-0.52,1.04-0.63c0.64-0.16,1.16,0.02,1.51,0.15c0.26,0.09,0.4,0.38,0.32,0.64
			c-0.09,0.26-0.38,0.4-0.65,0.3c-0.34-0.12-0.64-0.2-0.93-0.12c-0.23,0.06-0.41,0.19-0.51,0.31c-0.1,0.11-0.1,0.2-0.09,0.25
			c0.01,0.04,0.01,0.05,0.04,0.07c0.01,0.02,0.05,0.05,0.12,0.07c0.14,0.05,0.4,0.07,0.73,0.05l0.01,0.01l0.01,0
			c0.32-0.02,0.62-0.01,0.92,0.05c0.28,0.05,0.57,0.16,0.79,0.37c0.16,0.16,0.28,0.35,0.33,0.56c0.12,0.45-0.04,0.89-0.3,1.22
			c-0.27,0.31-0.65,0.56-1.1,0.68c-0.72,0.18-1.36-0.01-1.8-0.21C113.89,86.22,113.78,85.91,113.9,85.67z"/>
		<path class="st2" d="M118.3,84.6c0.14-0.25,0.46-0.33,0.69-0.18c0.27,0.17,0.73,0.33,1.09,0.26c0.25-0.04,0.48-0.15,0.61-0.27
			c0.12-0.13,0.14-0.23,0.13-0.31c-0.01-0.05-0.02-0.06-0.04-0.09c-0.01-0.03-0.06-0.06-0.14-0.09c-0.15-0.08-0.44-0.14-0.79-0.16
			l-0.01,0c-0.3-0.01-0.59-0.05-0.85-0.13c-0.27-0.09-0.52-0.22-0.73-0.45c-0.13-0.15-0.21-0.35-0.25-0.57
			c-0.06-0.43,0.13-0.83,0.41-1.11c0.3-0.27,0.67-0.45,1.11-0.52c0.65-0.09,1.15,0.15,1.49,0.31c0.25,0.12,0.36,0.42,0.25,0.67
			c-0.12,0.25-0.42,0.36-0.68,0.23c-0.33-0.15-0.61-0.27-0.92-0.22c-0.23,0.04-0.43,0.14-0.54,0.25c-0.11,0.1-0.13,0.19-0.12,0.24
			c0.01,0.04,0.01,0.05,0.03,0.07c0.01,0.02,0.05,0.05,0.12,0.08c0.14,0.07,0.39,0.12,0.72,0.13l0.01,0.01l0.01,0
			c0.32,0.01,0.62,0.05,0.91,0.15c0.27,0.08,0.55,0.22,0.75,0.46c0.14,0.17,0.24,0.38,0.27,0.59c0.07,0.46-0.13,0.88-0.43,1.18
			c-0.3,0.28-0.71,0.49-1.17,0.55c-0.74,0.1-1.35-0.16-1.77-0.41C118.23,85.15,118.16,84.83,118.3,84.6z"/>
		<path class="st2" d="M123.93,79.38c0.02,0.28-0.19,0.53-0.48,0.55c-0.28,0.02-0.53-0.21-0.54-0.49l-0.01-0.2
			c-0.02-0.28,0.2-0.53,0.48-0.54c0.29-0.02,0.53,0.2,0.54,0.48L123.93,79.38z M124.03,81.1l0.21,3.7c0.02,0.28-0.19,0.52-0.48,0.54
			c-0.28,0.02-0.52-0.2-0.54-0.48l-0.21-3.7c-0.02-0.3,0.2-0.54,0.48-0.55C123.78,80.59,124.01,80.8,124.03,81.1z"/>
		<path class="st2" d="M126.2,84.55c-0.39-0.44-0.61-1.04-0.58-1.7c0.03-0.64,0.3-1.19,0.73-1.63c0.45-0.43,1.01-0.68,1.66-0.65
			c0.63,0.03,1.18,0.33,1.55,0.79c0.41,0.48,0.62,1.05,0.59,1.69c-0.03,0.66-0.29,1.24-0.74,1.64c-0.41,0.43-0.99,0.68-1.62,0.65
			C127.15,85.32,126.61,85.02,126.2,84.55z M126.66,82.9c-0.02,0.41,0.09,0.75,0.3,1.02c0.23,0.24,0.53,0.38,0.9,0.39
			c0.33,0.01,0.64-0.1,0.89-0.31c0.25-0.26,0.4-0.58,0.42-0.99c0.02-0.39-0.1-0.74-0.33-1c-0.23-0.22-0.53-0.38-0.86-0.4
			c-0.36-0.02-0.68,0.12-0.93,0.32C126.81,82.17,126.68,82.51,126.66,82.9z"/>
		<path class="st2" d="M135.88,83.59l-0.41,2.23c-0.05,0.27-0.31,0.46-0.58,0.41c-0.26-0.05-0.45-0.32-0.4-0.59l0.41-2.23
			c0.1-0.52-0.26-1.03-0.8-1.12c-0.52-0.1-1.01,0.25-1.11,0.77l-0.41,2.23c-0.01,0.03-0.01,0.06-0.04,0.09
			c-0.09,0.22-0.33,0.36-0.57,0.31c-0.28-0.05-0.45-0.32-0.4-0.59l0.42-2.23l0.27-1.45c0.05-0.27,0.31-0.46,0.59-0.4
			c0.2,0.04,0.35,0.18,0.4,0.38c0.31-0.12,0.68-0.17,1.04-0.1C135.37,81.49,136.07,82.54,135.88,83.59z"/>
		<path class="st2" d="M141.51,85.74l-0.59,1.77c-0.09,0.26-0.38,0.41-0.64,0.32c-0.23-0.08-0.36-0.31-0.34-0.54
			c-0.42,0.13-0.88,0.14-1.33-0.01c-0.61-0.2-1.06-0.63-1.31-1.17c-0.25-0.54-0.29-1.18-0.09-1.79c0.21-0.62,0.62-1.11,1.14-1.38
			c0.53-0.29,1.14-0.37,1.76-0.17c0.45,0.15,0.81,0.44,1.07,0.79c0.13-0.21,0.37-0.32,0.6-0.24c0.26,0.09,0.41,0.38,0.32,0.65
			L141.51,85.74z M140.56,85.42c0.13-0.38,0.1-0.75-0.04-1.04c-0.14-0.31-0.4-0.54-0.72-0.65c-0.32-0.11-0.67-0.08-0.96,0.09
			c-0.29,0.15-0.53,0.44-0.65,0.82c-0.12,0.37-0.11,0.74,0.04,1.04c0.13,0.29,0.4,0.52,0.72,0.63c0.32,0.1,0.66,0.08,0.96-0.07
			C140.19,86.07,140.43,85.79,140.56,85.42z"/>
		<path class="st2" d="M146.03,85.72c-0.12,0.26-0.44,0.37-0.7,0.25l-0.22-0.1l-1.11,2.4c0.27,0.12,0.37,0.44,0.25,0.7
			s-0.43,0.38-0.69,0.25c-0.53-0.24-0.76-0.87-0.51-1.4l1.12-2.4l-0.25-0.12c-0.27-0.12-0.37-0.43-0.25-0.69
			c0.12-0.27,0.43-0.38,0.69-0.25l0.25,0.12l0.58-1.25c0.12-0.27,0.43-0.37,0.7-0.25c0.27,0.12,0.38,0.43,0.25,0.69l-0.58,1.25
			l0.21,0.1C146.02,85.14,146.15,85.45,146.03,85.72z"/>
		<path class="st2" d="M146.19,87.83c0.67-1.11,2.09-1.52,3.21-0.85c1.06,0.63,1.43,1.93,0.83,3.07c0,0.01-0.01,0.03-0.03,0.04
			c-0.01,0.02-0.03,0.06-0.05,0.07c-0.14,0.18-0.39,0.21-0.62,0.07l-2.59-1.55c-0.07,0.21-0.11,0.48-0.04,0.7
			c0.05,0.3,0.29,0.64,0.56,0.84c0.28,0.2,0.67,0.34,0.97,0.3c0.28-0.08,0.6,0.15,0.63,0.34c0.04,0.18-0.03,0.47-0.32,0.53
			c-0.62,0.13-1.2,0.01-1.78-0.33C145.85,90.38,145.54,88.94,146.19,87.83z M147.32,87.96l2.31,1.38c0.11-0.38-0.01-1.11-0.69-1.59
			C148.23,87.37,147.59,87.67,147.32,87.96z"/>
	</g>
	<g>
		<path d="M104.54,87.93l-1.02,0.57l1.01,1.8c0.14,0.25,0.05,0.57-0.21,0.72c-0.25,0.14-0.57,0.05-0.71-0.2l-2.76-4.89
			c-0.15-0.26-0.05-0.57,0.2-0.71l0.01,0l1.47-0.83c0.99-0.56,2.23-0.21,2.79,0.78C105.87,86.13,105.53,87.37,104.54,87.93z
			 M103,87.58l1.02-0.58c0.48-0.27,0.64-0.86,0.39-1.33c-0.28-0.48-0.87-0.65-1.35-0.38l-1.02,0.58L103,87.58z"/>
		<path d="M111.32,85.11l0.69,1.73c0.1,0.26-0.02,0.55-0.28,0.65c-0.23,0.09-0.47-0.01-0.61-0.2c-0.24,0.37-0.58,0.67-1.02,0.85
			c-0.6,0.24-1.22,0.2-1.76-0.05c-0.54-0.25-0.98-0.71-1.22-1.32c-0.24-0.61-0.24-1.25-0.02-1.79c0.22-0.56,0.64-1.02,1.24-1.26
			c0.44-0.18,0.9-0.18,1.33-0.08c-0.04-0.24,0.07-0.48,0.3-0.57c0.26-0.1,0.55,0.03,0.66,0.29L111.32,85.11z M110.39,85.48
			c-0.15-0.37-0.41-0.64-0.71-0.77c-0.31-0.15-0.66-0.16-0.97-0.04c-0.32,0.13-0.57,0.37-0.68,0.69c-0.12,0.31-0.12,0.67,0.03,1.04
			c0.15,0.36,0.4,0.63,0.7,0.78c0.29,0.14,0.64,0.14,0.96,0.02c0.31-0.12,0.56-0.37,0.68-0.67
			C110.52,86.21,110.53,85.84,110.39,85.48z"/>
		<path d="M113.25,85.56c0.11-0.26,0.42-0.37,0.67-0.25c0.29,0.14,0.76,0.24,1.12,0.14c0.25-0.06,0.46-0.21,0.58-0.33
			c0.1-0.14,0.11-0.25,0.09-0.32c-0.01-0.05-0.03-0.06-0.05-0.08c-0.02-0.03-0.06-0.05-0.15-0.08c-0.15-0.06-0.45-0.09-0.8-0.07
			l-0.01,0c-0.3,0.02-0.59,0.02-0.86-0.03c-0.28-0.05-0.54-0.16-0.77-0.37c-0.14-0.14-0.25-0.33-0.31-0.54
			c-0.11-0.42,0.04-0.84,0.28-1.15c0.26-0.3,0.62-0.52,1.04-0.63c0.64-0.16,1.16,0.02,1.51,0.15c0.26,0.09,0.4,0.38,0.32,0.64
			c-0.09,0.26-0.38,0.4-0.65,0.3c-0.34-0.12-0.64-0.2-0.93-0.12c-0.23,0.06-0.41,0.19-0.51,0.31c-0.1,0.11-0.1,0.2-0.09,0.25
			c0.01,0.04,0.01,0.05,0.04,0.07c0.01,0.02,0.05,0.05,0.12,0.07c0.14,0.05,0.4,0.07,0.73,0.05l0.01,0.01l0.01,0
			c0.32-0.02,0.62-0.01,0.92,0.05c0.28,0.04,0.57,0.16,0.79,0.37c0.16,0.16,0.28,0.35,0.33,0.56c0.12,0.45-0.04,0.89-0.3,1.22
			c-0.27,0.32-0.65,0.56-1.1,0.68c-0.72,0.18-1.36-0.01-1.8-0.21C113.24,86.11,113.13,85.8,113.25,85.56z"/>
		<path d="M117.65,84.49c0.14-0.25,0.46-0.33,0.69-0.18c0.28,0.17,0.73,0.33,1.09,0.26c0.25-0.04,0.48-0.15,0.61-0.27
			c0.12-0.13,0.14-0.23,0.13-0.31c-0.01-0.05-0.02-0.06-0.04-0.09c-0.01-0.03-0.06-0.06-0.14-0.09c-0.15-0.08-0.44-0.14-0.79-0.16
			l-0.01,0c-0.3-0.01-0.59-0.05-0.85-0.13c-0.27-0.09-0.52-0.22-0.73-0.45c-0.13-0.15-0.21-0.35-0.25-0.57
			c-0.06-0.43,0.13-0.83,0.41-1.11c0.3-0.27,0.67-0.45,1.11-0.52c0.65-0.09,1.15,0.15,1.49,0.31c0.25,0.12,0.36,0.42,0.25,0.67
			c-0.12,0.25-0.42,0.36-0.68,0.23c-0.33-0.16-0.62-0.27-0.92-0.22c-0.24,0.03-0.43,0.14-0.54,0.25c-0.11,0.1-0.13,0.19-0.12,0.24
			c0,0.04,0.01,0.05,0.03,0.07c0.01,0.02,0.05,0.05,0.12,0.08c0.13,0.07,0.39,0.12,0.72,0.13l0.01,0.01l0.01,0
			c0.32,0.01,0.62,0.05,0.91,0.15c0.27,0.08,0.55,0.22,0.75,0.46c0.14,0.17,0.24,0.38,0.27,0.59c0.07,0.46-0.13,0.88-0.43,1.18
			c-0.3,0.28-0.71,0.49-1.17,0.55c-0.73,0.1-1.35-0.16-1.77-0.41C117.58,85.04,117.51,84.72,117.65,84.49z"/>
		<path d="M123.28,79.28c0.02,0.28-0.19,0.53-0.48,0.55c-0.28,0.02-0.53-0.21-0.54-0.49l-0.01-0.2c-0.02-0.28,0.2-0.53,0.48-0.54
			c0.29-0.02,0.52,0.2,0.54,0.48L123.28,79.28z M123.38,80.99l0.21,3.7c0.02,0.28-0.19,0.52-0.48,0.54
			c-0.28,0.02-0.53-0.2-0.54-0.48l-0.21-3.7c-0.02-0.3,0.2-0.54,0.48-0.55C123.13,80.48,123.36,80.69,123.38,80.99z"/>
		<path d="M125.56,84.45c-0.39-0.44-0.61-1.04-0.58-1.7c0.03-0.64,0.3-1.19,0.73-1.63c0.45-0.43,1.01-0.68,1.67-0.65
			c0.63,0.03,1.18,0.33,1.55,0.79c0.41,0.48,0.62,1.04,0.59,1.69c-0.03,0.66-0.29,1.24-0.74,1.64c-0.41,0.43-0.99,0.68-1.62,0.65
			C126.5,85.21,125.96,84.91,125.56,84.45z M126.01,82.79c-0.02,0.41,0.09,0.75,0.3,1.02c0.23,0.24,0.54,0.38,0.9,0.39
			c0.33,0.01,0.64-0.1,0.89-0.31c0.25-0.26,0.4-0.58,0.42-0.99c0.02-0.39-0.1-0.74-0.33-1c-0.23-0.22-0.53-0.39-0.86-0.4
			c-0.36-0.02-0.68,0.12-0.93,0.32C126.17,82.07,126.03,82.4,126.01,82.79z"/>
		<path d="M135.19,83.48l-0.41,2.23c-0.05,0.27-0.31,0.46-0.58,0.41c-0.26-0.05-0.45-0.32-0.4-0.59l0.41-2.23
			c0.1-0.52-0.27-1.03-0.8-1.12c-0.52-0.1-1.01,0.25-1.11,0.77l-0.41,2.23c-0.01,0.03-0.01,0.06-0.04,0.09
			c-0.09,0.22-0.33,0.35-0.57,0.31c-0.28-0.05-0.45-0.31-0.4-0.59l0.41-2.23l0.27-1.45c0.05-0.27,0.31-0.46,0.59-0.4
			c0.2,0.04,0.35,0.18,0.4,0.37c0.31-0.13,0.68-0.17,1.04-0.11C134.68,81.38,135.39,82.42,135.19,83.48z"/>
		<path d="M140.86,85.63l-0.59,1.77c-0.09,0.26-0.38,0.41-0.64,0.32c-0.23-0.08-0.36-0.31-0.34-0.54c-0.42,0.13-0.88,0.14-1.33-0.01
			c-0.61-0.2-1.06-0.63-1.32-1.17c-0.25-0.54-0.29-1.18-0.09-1.79c0.21-0.62,0.62-1.11,1.14-1.38c0.53-0.29,1.14-0.37,1.76-0.17
			c0.45,0.15,0.81,0.44,1.07,0.79c0.13-0.21,0.37-0.32,0.6-0.24c0.26,0.09,0.41,0.38,0.32,0.65L140.86,85.63z M139.91,85.32
			c0.13-0.38,0.1-0.75-0.04-1.04c-0.13-0.31-0.4-0.54-0.72-0.65c-0.32-0.11-0.67-0.08-0.96,0.09c-0.29,0.15-0.53,0.44-0.65,0.82
			c-0.12,0.37-0.1,0.74,0.04,1.04c0.13,0.29,0.4,0.52,0.72,0.63c0.32,0.1,0.67,0.08,0.96-0.07
			C139.54,85.97,139.79,85.69,139.91,85.32z"/>
		<path d="M145.38,85.62c-0.12,0.26-0.44,0.37-0.7,0.25l-0.22-0.1l-1.11,2.4c0.27,0.12,0.37,0.44,0.25,0.7
			c-0.12,0.27-0.43,0.38-0.69,0.25c-0.53-0.24-0.76-0.87-0.51-1.4l1.12-2.4l-0.25-0.12c-0.27-0.12-0.37-0.43-0.25-0.69
			c0.12-0.27,0.43-0.38,0.69-0.25l0.25,0.12l0.58-1.25c0.12-0.27,0.43-0.37,0.7-0.25s0.38,0.43,0.25,0.69l-0.58,1.25l0.21,0.1
			C145.37,85.04,145.5,85.35,145.38,85.62z"/>
		<path d="M145.54,87.72c0.67-1.1,2.09-1.52,3.21-0.85c1.06,0.63,1.43,1.93,0.83,3.07c0,0.01-0.01,0.03-0.02,0.04
			c-0.01,0.02-0.03,0.06-0.05,0.07c-0.14,0.18-0.39,0.21-0.62,0.07l-2.59-1.55c-0.07,0.21-0.11,0.48-0.04,0.7
			c0.05,0.3,0.29,0.64,0.56,0.83c0.28,0.2,0.67,0.34,0.97,0.3c0.28-0.08,0.6,0.15,0.63,0.34c0.04,0.18-0.03,0.47-0.32,0.53
			c-0.62,0.13-1.2,0.01-1.78-0.33C145.2,90.28,144.89,88.84,145.54,87.72z M146.67,87.86l2.31,1.38c0.11-0.38-0.01-1.11-0.69-1.59
			C147.58,87.27,146.94,87.56,146.67,87.86z"/>
	</g>
</g>
<g id="Safe_Area" class="st0">
	<circle class="st6" cx="126" cy="126" r="54"/>
</g>
</svg>
