<?xml version="1.0" encoding="utf-8"?>
<!-- Generator: Adobe Illustrator 23.0.2, SVG Export Plug-In . SVG Version: 6.00 Build 0)  -->
<svg version="1.1" xmlns="http://www.w3.org/2000/svg" xmlns:xlink="http://www.w3.org/1999/xlink" x="0px" y="0px"
	 viewBox="0 0 252 252" style="enable-background:new 0 0 252 252;" xml:space="preserve">
<style type="text/css">
	.st0{display:none;}
	.st1{display:inline;fill:#FFFFFF;stroke:#252723;stroke-miterlimit:10;}
	.st2{fill:#FFFFFF;}
	.st3{fill:#D3E6E8;}
	.st4{fill:#D9C361;}
	.st5{clip-path:url(#SVGID_2_);fill:#D9C361;}
	.st6{clip-path:url(#SVGID_2_);fill:#F9DD6C;}
	.st7{fill:#FFFFF7;}
	.st8{display:inline;fill:none;stroke:#252723;stroke-miterlimit:10;}
</style>
<g id="Bleed" class="st0">
	<circle class="st1" cx="126" cy="126" r="72"/>
</g>
<g id="Background">
</g>
<g id="Image">
	<circle class="st2" cx="126" cy="126" r="57.66"/>
	<circle class="st3" cx="126" cy="126" r="50.01"/>
	<circle class="st2" cx="126" cy="126" r="40.72"/>
	<circle class="st3" cx="126" cy="126" r="36"/>
	<g>
		<rect x="123.8" y="137.73" class="st4" width="4.08" height="11.25"/>
		<rect x="116.88" y="147.33" class="st4" width="17.49" height="7.06"/>
		<g>
			<defs>
				<rect id="SVGID_1_" x="103.14" y="102.71" width="74.5" height="74.5"/>
			</defs>
			<clipPath id="SVGID_2_">
				<use xlink:href="#SVGID_1_"  style="overflow:visible;"/>
			</clipPath>
			<path class="st5" d="M144.51,121.39c0,5.81-4.52,10.52-10.11,10.52c-0.9,0-1.78-0.12-2.61-0.36c5.02-0.61,8.92-5.05,8.92-10.45
				c0-4.87-3.18-8.98-7.51-10.17c0.39-0.05,0.79-0.07,1.19-0.07C139.99,110.87,144.51,115.58,144.51,121.39"/>
			<path class="st5" d="M129.05,136.47c0,1.3-1.5,2.35-3.35,2.35c-1.85,0-3.35-1.05-3.35-2.35c0-1.3,1.5-2.35,3.35-2.35
				C127.55,134.12,129.05,135.17,129.05,136.47"/>
			<path class="st5" d="M106.73,121.39c0,5.81,4.52,10.52,10.11,10.52c0.9,0,1.78-0.12,2.61-0.36c-5.02-0.61-8.92-5.05-8.92-10.45
				c0-4.87,3.18-8.98,7.51-10.17c-0.39-0.05-0.79-0.07-1.19-0.07C111.25,110.87,106.73,115.58,106.73,121.39"/>
			<path class="st5" d="M134.37,109.91c0,0.71-3.92,1.29-8.74,1.29s-8.75-0.58-8.75-1.29c0-0.71,3.92-1.29,8.75-1.29
				S134.37,109.2,134.37,109.91"/>
			<path class="st6" d="M137.07,119.62c0,8.91-5.12,16.13-11.45,16.13s-11.45-7.22-11.45-16.13c0-3.94,1-7.54,2.67-10.34
				c2.45,0.98,5.49,1.57,8.78,1.57c3.29,0,6.33-0.58,8.78-1.57C136.07,112.07,137.07,115.68,137.07,119.62"/>
		</g>
	</g>
	<rect x="138.52" y="103.14" transform="matrix(0.5 -0.866 0.866 0.5 -19.525 175.849)" class="st7" width="8.02" height="3.38"/>
	
		<rect x="144.36" y="108.72" transform="matrix(0.8084 -0.5886 0.5886 0.8084 -36.5664 108.4775)" class="st7" width="8.02" height="3.38"/>
	
		<rect x="147.33" y="117.19" transform="matrix(0.9918 -0.1282 0.1282 0.9918 -13.9877 20.3772)" class="st7" width="8.02" height="3.38"/>
	
		<rect x="97.5" y="115" transform="matrix(0.9863 0.1652 -0.1652 0.9863 20.6763 -15.1684)" class="st7" width="8.02" height="3.38"/>
	
		<rect x="100.99" y="107.95" transform="matrix(-0.781 -0.6245 0.6245 -0.781 118.5273 260.8453)" class="st7" width="8.02" height="3.38"/>
	
		<rect x="107.41" y="101.52" transform="matrix(-0.4604 -0.8877 0.8877 -0.4604 71.0959 249.6262)" class="st7" width="8.02" height="3.38"/>
</g>
<g id="Text">
	<g>
		<path class="st2" d="M102.75,88.39c-0.87-1.67-0.2-3.76,1.48-4.66c0.74-0.39,1.54-0.5,2.29-0.38c0.29,0.06,0.48,0.34,0.44,0.63
			c-0.06,0.3-0.35,0.5-0.62,0.45c-0.53-0.11-1.08-0.02-1.6,0.26c-0.58,0.31-0.99,0.83-1.19,1.41c-0.17,0.59-0.14,1.22,0.16,1.79
			s0.81,0.97,1.39,1.14c0.59,0.16,1.25,0.11,1.83-0.2c0.52-0.28,0.89-0.68,1.11-1.18c0.12-0.25,0.45-0.38,0.72-0.26
			c0.26,0.13,0.39,0.45,0.27,0.72c-0.31,0.69-0.85,1.29-1.59,1.68C105.75,90.67,103.64,90.06,102.75,88.39z"/>
		<path class="st2" d="M110.98,87.39c-0.52-0.26-0.95-0.74-1.17-1.37c-0.21-0.61-0.16-1.22,0.08-1.79c0.26-0.56,0.69-1,1.31-1.22
			c0.59-0.2,1.22-0.13,1.74,0.17c0.55,0.29,0.96,0.75,1.17,1.36c0.22,0.63,0.18,1.26-0.08,1.8c-0.22,0.55-0.67,1-1.27,1.2
			C112.14,87.75,111.53,87.67,110.98,87.39z M110.79,85.68c0.13,0.39,0.36,0.66,0.65,0.84c0.3,0.14,0.64,0.15,0.98,0.04
			c0.31-0.11,0.56-0.32,0.71-0.62c0.14-0.33,0.16-0.69,0.02-1.07c-0.13-0.37-0.36-0.65-0.67-0.81c-0.29-0.12-0.63-0.17-0.94-0.06
			c-0.34,0.12-0.59,0.36-0.74,0.64C110.67,84.95,110.67,85.31,110.79,85.68z"/>
		<path class="st2" d="M119.56,82.95l0.44,2.23c0.05,0.27-0.12,0.54-0.39,0.59c-0.26,0.05-0.54-0.13-0.59-0.4l-0.44-2.23
			c-0.1-0.52-0.62-0.86-1.15-0.75c-0.52,0.1-0.85,0.6-0.75,1.12l0.44,2.23c0.01,0.03,0.01,0.06,0,0.1c0,0.23-0.17,0.45-0.42,0.5
			c-0.28,0.05-0.54-0.13-0.59-0.4l-0.44-2.23l-0.28-1.44c-0.05-0.27,0.12-0.54,0.4-0.59c0.2-0.04,0.4,0.04,0.51,0.2
			c0.25-0.23,0.57-0.41,0.93-0.48C118.31,81.18,119.35,81.9,119.56,82.95z"/>
		<path class="st2" d="M122.94,80.32l0.01,0.13l0.28-0.02c0.28-0.02,0.54,0.19,0.56,0.48c0.02,0.28-0.19,0.54-0.48,0.56l-0.28,0.02
			l0.27,3.34c0.02,0.28-0.18,0.54-0.48,0.56c-0.29,0.02-0.54-0.19-0.56-0.48L122,81.58l-0.25,0.02c-0.29,0.03-0.55-0.19-0.57-0.48
			c-0.02-0.29,0.19-0.54,0.49-0.56l0.25-0.02l-0.01-0.13c-0.03-0.35-0.02-0.66,0.1-0.94c0.11-0.3,0.36-0.53,0.63-0.64
			c0.18-0.07,0.36-0.11,0.56-0.12c0.28-0.02,0.54,0.19,0.56,0.48c0.02,0.29-0.19,0.55-0.48,0.57c-0.12,0.01-0.21,0.03-0.24,0.05
			c-0.04,0.01-0.05,0.02-0.05,0.03C122.98,79.83,122.92,79.97,122.94,80.32z"/>
		<path class="st2" d="M126.07,79.35c0,0.29-0.21,0.53-0.51,0.53c-0.28,0-0.52-0.23-0.52-0.52l0-0.2c0-0.29,0.22-0.52,0.51-0.52
			c0.29,0,0.52,0.22,0.52,0.51L126.07,79.35z M126.09,81.07l0.04,3.71c0,0.29-0.21,0.52-0.51,0.52c-0.29,0-0.52-0.22-0.52-0.51
			l-0.04-3.71c0-0.3,0.22-0.53,0.51-0.53C125.87,80.55,126.09,80.76,126.09,81.07z"/>
		<path class="st2" d="M131.96,85.16c-0.03,0.27-0.28,0.49-0.56,0.46c-0.25-0.02-0.44-0.22-0.46-0.46
			c-0.38,0.21-0.85,0.33-1.33,0.28c-1.28-0.12-2.2-1.3-2.08-2.58c0.12-1.3,1.25-2.28,2.53-2.16c0.46,0.04,0.9,0.24,1.23,0.52
			l0.17-1.78c0.03-0.27,0.28-0.49,0.57-0.46c0.28,0.03,0.49,0.29,0.46,0.56l-0.36,3.75c0,0,0,0,0,0.01L131.96,85.16z M129.96,81.75
			c-0.34-0.03-0.67,0.08-0.93,0.3c-0.26,0.21-0.43,0.54-0.47,0.92c-0.03,0.36,0.08,0.71,0.29,0.97c0.21,0.27,0.51,0.44,0.85,0.47
			c0.35,0.03,0.67-0.08,0.93-0.3c0.26-0.21,0.43-0.54,0.47-0.9c0.04-0.38-0.07-0.73-0.29-0.99
			C130.6,81.95,130.31,81.78,129.96,81.75z"/>
		<path class="st2" d="M133.71,83.54c0.31-1.26,1.54-2.08,2.81-1.77c1.2,0.29,1.94,1.41,1.72,2.68c0,0.01-0.01,0.03-0.01,0.05
			s-0.01,0.06-0.03,0.08c-0.08,0.22-0.31,0.32-0.57,0.26l-2.94-0.7c0,0.22,0.04,0.49,0.17,0.69c0.14,0.27,0.47,0.52,0.79,0.63
			c0.33,0.11,0.74,0.12,1.02,0c0.24-0.16,0.62-0.04,0.7,0.14c0.09,0.16,0.12,0.46-0.14,0.6c-0.55,0.31-1.14,0.37-1.8,0.21
			C134.15,86.08,133.42,84.8,133.71,83.54z M134.82,83.33l2.62,0.62c0-0.39-0.35-1.05-1.13-1.31
			C135.51,82.5,134.99,82.97,134.82,83.33z"/>
		<path class="st2" d="M143.58,86.16l-0.82,2.12c-0.1,0.26-0.39,0.39-0.64,0.29c-0.25-0.1-0.39-0.39-0.29-0.65l0.82-2.12
			c0.19-0.5-0.07-1.06-0.58-1.25c-0.5-0.19-1.04,0.06-1.23,0.55l-0.82,2.12c-0.01,0.03-0.02,0.05-0.05,0.08
			c-0.13,0.2-0.39,0.29-0.62,0.2c-0.27-0.1-0.39-0.4-0.29-0.65l0.82-2.12l0.53-1.37c0.1-0.26,0.39-0.39,0.65-0.29
			c0.19,0.07,0.31,0.24,0.33,0.44c0.33-0.07,0.7-0.04,1.04,0.09C143.47,84,143.97,85.16,143.58,86.16z"/>
		<path class="st2" d="M147.95,86.75c-0.13,0.25-0.46,0.35-0.71,0.22l-0.21-0.11l-1.23,2.35c0.26,0.14,0.35,0.45,0.22,0.71
			c-0.14,0.26-0.44,0.36-0.71,0.22c-0.51-0.27-0.71-0.91-0.44-1.42l1.23-2.35l-0.24-0.13c-0.26-0.14-0.35-0.45-0.22-0.71
			c0.14-0.26,0.44-0.36,0.71-0.22l0.24,0.13l0.64-1.22c0.14-0.26,0.45-0.35,0.71-0.22c0.26,0.14,0.36,0.45,0.22,0.71l-0.64,1.22
			l0.21,0.11C147.97,86.17,148.08,86.49,147.95,86.75z"/>
	</g>
	<g>
		<path d="M102.1,88.28c-0.87-1.67-0.2-3.76,1.48-4.66c0.74-0.39,1.54-0.5,2.29-0.38c0.29,0.06,0.48,0.34,0.44,0.63
			c-0.06,0.3-0.35,0.5-0.62,0.45c-0.53-0.11-1.08-0.02-1.6,0.26c-0.58,0.31-0.99,0.83-1.19,1.41c-0.17,0.59-0.14,1.21,0.16,1.79
			c0.3,0.57,0.81,0.97,1.39,1.14c0.59,0.16,1.25,0.11,1.83-0.2c0.52-0.28,0.89-0.68,1.11-1.18c0.12-0.25,0.45-0.38,0.72-0.26
			c0.26,0.13,0.39,0.45,0.27,0.72c-0.31,0.69-0.85,1.29-1.59,1.68C105.1,90.56,102.99,89.95,102.1,88.28z"/>
		<path d="M110.33,87.28c-0.52-0.26-0.95-0.74-1.17-1.37c-0.21-0.61-0.16-1.22,0.08-1.79c0.26-0.56,0.69-1,1.31-1.22
			c0.59-0.2,1.22-0.13,1.74,0.17c0.55,0.29,0.96,0.74,1.17,1.36c0.22,0.63,0.18,1.26-0.08,1.8c-0.22,0.55-0.67,1-1.27,1.2
			C111.49,87.64,110.88,87.56,110.33,87.28z M110.15,85.57c0.13,0.39,0.36,0.66,0.65,0.84c0.3,0.14,0.64,0.15,0.98,0.04
			c0.31-0.11,0.56-0.32,0.71-0.62c0.14-0.33,0.16-0.69,0.02-1.07c-0.13-0.37-0.36-0.65-0.67-0.81c-0.29-0.12-0.63-0.17-0.94-0.06
			c-0.34,0.12-0.59,0.36-0.75,0.64C110.02,84.84,110.02,85.2,110.15,85.57z"/>
		<path d="M118.91,82.84l0.44,2.23c0.05,0.27-0.12,0.54-0.39,0.59c-0.26,0.05-0.54-0.13-0.59-0.4l-0.44-2.23
			c-0.1-0.52-0.62-0.86-1.15-0.75c-0.52,0.1-0.85,0.6-0.75,1.12l0.44,2.23c0.01,0.03,0.01,0.06,0,0.1c0,0.23-0.17,0.45-0.42,0.5
			c-0.28,0.05-0.54-0.13-0.59-0.4l-0.44-2.23l-0.28-1.44c-0.05-0.27,0.12-0.54,0.4-0.59c0.2-0.04,0.4,0.04,0.51,0.2
			c0.25-0.23,0.57-0.41,0.93-0.48C117.67,81.07,118.71,81.79,118.91,82.84z"/>
		<path d="M122.25,80.21l0.01,0.13l0.28-0.02c0.28-0.02,0.54,0.18,0.56,0.48c0.02,0.28-0.19,0.54-0.48,0.56l-0.28,0.02l0.28,3.35
			c0.02,0.28-0.18,0.54-0.48,0.56s-0.54-0.19-0.56-0.48l-0.28-3.34l-0.25,0.02c-0.29,0.03-0.55-0.19-0.57-0.48
			c-0.02-0.29,0.19-0.54,0.49-0.57l0.25-0.02l-0.01-0.13c-0.03-0.35-0.02-0.66,0.1-0.94c0.11-0.29,0.36-0.54,0.63-0.64
			c0.18-0.07,0.36-0.11,0.56-0.12c0.28-0.02,0.54,0.19,0.56,0.48c0.02,0.29-0.19,0.55-0.48,0.57c-0.12,0.01-0.21,0.03-0.24,0.05
			c-0.04,0.01-0.05,0.02-0.05,0.03C122.29,79.72,122.23,79.86,122.25,80.21z"/>
		<path d="M125.42,79.24c0,0.28-0.21,0.52-0.51,0.53c-0.29,0-0.52-0.23-0.52-0.52l0-0.2c0-0.29,0.22-0.52,0.51-0.52
			c0.29,0,0.52,0.22,0.52,0.51L125.42,79.24z M125.44,80.96l0.04,3.71c0,0.28-0.21,0.52-0.51,0.52c-0.29,0-0.52-0.22-0.52-0.51
			l-0.04-3.71c0-0.3,0.22-0.53,0.51-0.53C125.22,80.44,125.44,80.65,125.44,80.96z"/>
		<path d="M131.31,85.05c-0.03,0.27-0.28,0.49-0.56,0.46c-0.26-0.02-0.44-0.22-0.46-0.46c-0.38,0.21-0.85,0.33-1.33,0.28
			c-1.28-0.12-2.2-1.3-2.07-2.58c0.12-1.3,1.25-2.28,2.53-2.15c0.46,0.04,0.9,0.24,1.23,0.52l0.17-1.78
			c0.03-0.28,0.28-0.49,0.57-0.46c0.28,0.03,0.49,0.29,0.46,0.56l-0.36,3.75c0,0,0,0,0,0.01L131.31,85.05z M129.32,81.64
			c-0.34-0.03-0.67,0.08-0.93,0.3c-0.26,0.21-0.43,0.54-0.47,0.92c-0.03,0.36,0.08,0.71,0.29,0.97c0.21,0.27,0.51,0.44,0.85,0.47
			c0.35,0.03,0.67-0.08,0.93-0.3c0.26-0.21,0.43-0.54,0.47-0.9c0.04-0.38-0.07-0.73-0.29-0.99
			C129.95,81.84,129.67,81.67,129.32,81.64z"/>
		<path d="M133.06,83.43c0.31-1.26,1.54-2.08,2.81-1.77c1.2,0.29,1.94,1.41,1.72,2.68c0,0.01-0.01,0.03-0.01,0.05
			c0,0.02-0.02,0.06-0.03,0.08c-0.08,0.22-0.31,0.32-0.57,0.26l-2.94-0.7c0,0.22,0.04,0.49,0.17,0.69c0.14,0.27,0.47,0.52,0.79,0.63
			c0.33,0.11,0.74,0.12,1.02,0c0.24-0.16,0.62-0.04,0.7,0.14c0.09,0.16,0.12,0.46-0.14,0.6c-0.55,0.31-1.14,0.37-1.8,0.21
			C133.5,85.97,132.77,84.69,133.06,83.43z M134.18,83.22l2.62,0.62c0-0.39-0.35-1.05-1.14-1.31
			C134.86,82.39,134.34,82.86,134.18,83.22z"/>
		<path d="M142.93,86.06l-0.82,2.12c-0.1,0.26-0.39,0.39-0.64,0.29c-0.25-0.1-0.39-0.4-0.29-0.65L142,85.7
			c0.19-0.5-0.07-1.06-0.58-1.25c-0.5-0.19-1.04,0.05-1.23,0.55l-0.82,2.12c-0.01,0.03-0.02,0.05-0.05,0.08
			c-0.13,0.2-0.39,0.29-0.62,0.2c-0.27-0.1-0.39-0.39-0.29-0.65l0.82-2.12l0.53-1.37c0.1-0.26,0.39-0.39,0.65-0.29
			c0.19,0.07,0.31,0.24,0.33,0.44c0.33-0.07,0.7-0.04,1.04,0.09C142.82,83.89,143.32,85.06,142.93,86.06z"/>
		<path d="M147.3,86.64c-0.13,0.25-0.46,0.35-0.71,0.21l-0.21-0.11l-1.23,2.35c0.26,0.14,0.35,0.45,0.22,0.71
			c-0.14,0.26-0.44,0.36-0.71,0.22c-0.51-0.27-0.71-0.91-0.44-1.42l1.23-2.35l-0.24-0.13c-0.26-0.14-0.35-0.45-0.22-0.71
			c0.14-0.26,0.44-0.36,0.71-0.22l0.24,0.13l0.64-1.22c0.14-0.26,0.45-0.35,0.71-0.22c0.26,0.14,0.36,0.45,0.22,0.71l-0.64,1.22
			l0.21,0.11C147.32,86.06,147.44,86.38,147.3,86.64z"/>
	</g>
</g>
<g id="Safe_Area" class="st0">
	<circle class="st8" cx="126" cy="126" r="54"/>
</g>
</svg>
