<?xml version="1.0" encoding="utf-8"?>
<!-- Generator: Adobe Illustrator 23.0.2, SVG Export Plug-In . SVG Version: 6.00 Build 0)  -->
<svg version="1.1" xmlns="http://www.w3.org/2000/svg" xmlns:xlink="http://www.w3.org/1999/xlink" x="0px" y="0px"
	 viewBox="0 0 252 252" style="enable-background:new 0 0 252 252;" xml:space="preserve">
<style type="text/css">
	.st0{display:none;}
	.st1{display:inline;fill:#FFFFFF;stroke:#252723;stroke-miterlimit:10;}
	.st2{fill:#FFFFFF;}
	.st3{fill:#CAE9E5;}
	.st4{clip-path:url(#SVGID_2_);fill:#212020;}
	.st5{clip-path:url(#SVGID_2_);fill:#FFFFFF;}
	.st6{clip-path:url(#SVGID_4_);fill:#616C73;}
	.st7{clip-path:url(#SVGID_4_);fill:#738087;}
	.st8{clip-path:url(#SVGID_4_);fill:#D0E7F6;}
	.st9{clip-path:url(#SVGID_4_);fill:#9EB7C8;}
	.st10{clip-path:url(#SVGID_4_);fill:#FFFFFF;}
	.st11{display:inline;fill:none;stroke:#252723;stroke-miterlimit:10;}
</style>
<g id="Bleed" class="st0">
	<circle class="st1" cx="126" cy="126" r="72"/>
</g>
<g id="Background">
</g>
<g id="Image">
	<circle class="st2" cx="126" cy="126" r="57.66"/>
	<circle class="st3" cx="126" cy="126" r="50.01"/>
	<circle class="st2" cx="126" cy="126" r="45.64"/>
	<circle class="st3" cx="120.01" cy="126.69" r="44.02"/>
	<circle class="st2" cx="126" cy="126" r="40.72"/>
	<g>
		<defs>
			<rect id="SVGID_1_" x="101.61" y="96.07" width="41.87" height="49.78"/>
		</defs>
		<clipPath id="SVGID_2_">
			<use xlink:href="#SVGID_1_"  style="overflow:visible;"/>
		</clipPath>
		<path class="st4" d="M132.82,130.01c0,8.75-4.88,15.85-10.91,15.85c-6.03,0-10.91-7.09-10.91-15.85c0-8.75,4.89-15.85,10.91-15.85
			C127.94,114.16,132.82,121.25,132.82,130.01"/>
		<path class="st5" d="M132.82,129.57c0,7.16-4.88,12.96-10.91,12.96c-6.03,0-10.91-5.8-10.91-12.96c0-7.16,4.89-12.96,10.91-12.96
			C127.94,116.61,132.82,122.42,132.82,129.57"/>
		<path class="st4" d="M128.99,128.64c-2.56-0.78-4-3.48-3.21-6.02c0.79-2.54,3.51-3.97,6.07-3.18c2.56,0.78,4,3.48,3.21,6.02
			C134.27,128,131.55,129.42,128.99,128.64"/>
		<path class="st5" d="M127.85,126.78c-1.25-0.38-1.96-1.7-1.57-2.95c0.39-1.24,1.72-1.94,2.97-1.56c1.25,0.38,1.96,1.7,1.57,2.95
			C130.43,126.46,129.1,127.16,127.85,126.78"/>
		<path class="st4" d="M112.34,128.27c-2.56-0.78-4-3.48-3.21-6.02c0.79-2.54,3.51-3.97,6.07-3.18c2.56,0.78,4,3.48,3.21,6.02
			C117.61,127.63,114.9,129.05,112.34,128.27"/>
		<path class="st5" d="M111.19,126.41c-1.25-0.38-1.96-1.7-1.57-2.95c0.39-1.24,1.72-1.94,2.97-1.56c1.25,0.38,1.96,1.7,1.57,2.95
			S112.44,126.79,111.19,126.41"/>
		<path class="st4" d="M102.1,107.37c1.42,3.91,6.4,5.46,9.45,4.62l0,0c0.74-0.04,1.56-0.26,2.56-0.7c0.28-0.12,0.84-0.55,1.04-0.69
			c0.47-0.32,0.85-0.73,1.14-1.19c0.01-0.01,0.01-0.01,0.01-0.02c0.85-1.36,0.89-3.19,0.01-4.73l0,0c-0.08-0.14-0.17-0.29-0.26-0.42
			c-0.65-0.92-1.55-1.56-2.52-1.87c0.4,0.3,0.75,0.67,1.06,1.1c1.49,2.12,1.1,4.95-0.87,6.34l0,0c-5.18,1.43-8.61-3-8.69-6.96
			c-0.02-0.87,0.15-1.71,0.48-2.49c0.13-0.31,0.38-0.57,0.7-0.69l0,0c3-1.14,6.22-0.68,8.7,0.96c1.6,1.06,2.9,2.6,3.64,4.51
			c1.07,2.78,0.74,5.74-0.65,8.13c3.07-2.52,4.34-6.8,2.83-10.7c-1.89-4.89-7.42-7.35-12.35-5.47c-0.12,0.05-0.35,0.15-0.35,0.15
			L108,97.26c-0.38,0.11-1.08,0.41-1.08,0.41s-0.34,0.1-0.51,0.16C102.41,99.24,100.68,103.46,102.1,107.37"/>
		<path class="st4" d="M142.99,106.96c-1.42,3.91-6.4,5.46-9.45,4.62l0,0c-0.74-0.04-1.56-0.26-2.56-0.7
			c-0.28-0.12-0.84-0.55-1.04-0.69c-0.47-0.32-0.85-0.73-1.14-1.19c-0.01-0.01-0.01-0.01-0.01-0.02c-0.85-1.36-0.89-3.18-0.01-4.73
			l0,0c0.08-0.15,0.16-0.29,0.26-0.42c0.65-0.92,1.55-1.56,2.52-1.87c-0.4,0.3-0.75,0.67-1.06,1.11c-1.49,2.12-1.1,4.95,0.87,6.34
			l0,0c5.18,1.43,8.61-3,8.69-6.96c0.02-0.87-0.15-1.71-0.48-2.49c-0.13-0.31-0.38-0.57-0.7-0.69l0,0c-3-1.14-6.22-0.68-8.7,0.96
			c-1.6,1.06-2.9,2.59-3.64,4.51c-1.07,2.77-0.74,5.74,0.64,8.13c-3.07-2.52-4.34-6.8-2.83-10.7c1.89-4.89,7.42-7.35,12.35-5.47
			c0.12,0.05,0.35,0.14,0.35,0.14l0.04,0.01c0.38,0.11,1.08,0.41,1.08,0.41s0.34,0.1,0.51,0.16
			C142.68,98.84,144.41,103.05,142.99,106.96"/>
		<path class="st4" d="M117.5,115.37c0.11,1.39-2.48,2.73-5.79,3c-3.31,0.27-6.09-0.64-6.21-2.02c-0.11-1.39,2.48-2.73,5.8-3
			C114.6,113.08,117.38,113.99,117.5,115.37"/>
		<path class="st4" d="M138.34,116.22c-0.08,1.39-2.84,2.35-6.16,2.16c-3.32-0.2-5.94-1.48-5.86-2.87s2.84-2.35,6.16-2.16
			C135.8,113.54,138.42,114.83,138.34,116.22"/>
	</g>
	<g>
		<defs>
			
				<rect id="SVGID_3_" x="137.26" y="125.85" transform="matrix(0.9696 -0.2449 0.2449 0.9696 -28.7648 40.7704)" width="24.65" height="20.42"/>
		</defs>
		<clipPath id="SVGID_4_">
			<use xlink:href="#SVGID_3_"  style="overflow:visible;"/>
		</clipPath>
		<path class="st6" d="M157.8,129.19c3.74,2.32,4.63,7.67,1.97,11.95c-2.65,4.28-7.84,5.86-11.58,3.53
			c-3.74-2.32-4.63-7.67-1.97-11.95C148.87,128.45,154.05,126.86,157.8,129.19"/>
		<path class="st7" d="M145.07,129.59c2.78,1.73,3.77,5.18,2.2,7.71c-1.57,2.53-5.1,3.18-7.88,1.45s-3.77-5.18-2.2-7.71
			C138.75,128.51,142.28,127.86,145.07,129.59"/>
		<path class="st8" d="M145.14,128.65c2.78,1.73,3.77,5.18,2.2,7.71c-1.57,2.53-5.1,3.18-7.88,1.45c-2.78-1.73-3.77-5.18-2.2-7.71
			C138.82,127.57,142.35,126.92,145.14,128.65"/>
		<path class="st8" d="M157.72,126.62c3.95,2.45,4.86,8.13,2.03,12.69c-2.83,4.56-8.32,6.26-12.28,3.81
			c-3.95-2.45-4.86-8.13-2.03-12.69C148.27,125.88,153.76,124.17,157.72,126.62"/>
		<path class="st9" d="M156.5,126.97c3.34,2.07,3.76,7.45,0.93,12c-2.83,4.56-7.83,6.57-11.17,4.5c-3.34-2.07-3.76-7.45-0.93-12
			C148.16,126.91,153.16,124.9,156.5,126.97"/>
		<path class="st8" d="M156.97,128.67c3.74,2.32,4.63,7.67,1.97,11.95c-2.65,4.27-7.84,5.86-11.58,3.53
			c-3.74-2.32-4.63-7.67-1.97-11.95C148.04,127.93,153.22,126.35,156.97,128.67"/>
		<path class="st10" d="M152.89,128.86c0.28,0.39-1.04,1.81-2.94,3.17s-3.66,2.16-3.94,1.77c-0.28-0.39,1.04-1.81,2.94-3.17
			C150.85,129.26,152.61,128.47,152.89,128.86"/>
		<path class="st10" d="M141.17,128.83c0.25,0.35-0.33,1.2-1.29,1.89c-0.97,0.69-1.95,0.97-2.2,0.62c-0.25-0.35,0.33-1.2,1.3-1.89
			C139.93,128.75,140.92,128.48,141.17,128.83"/>
	</g>
</g>
<g id="Text">
</g>
<g id="Safe_Area" class="st0">
	<circle class="st11" cx="126" cy="126" r="54"/>
</g>
</svg>
