<?xml version="1.0" encoding="utf-8"?>
<!-- Generator: Adobe Illustrator 23.0.2, SVG Export Plug-In . SVG Version: 6.00 Build 0)  -->
<svg version="1.1" xmlns="http://www.w3.org/2000/svg" xmlns:xlink="http://www.w3.org/1999/xlink" x="0px" y="0px"
	 viewBox="0 0 252 252" style="enable-background:new 0 0 252 252;" xml:space="preserve">
<style type="text/css">
	.st0{display:none;}
	.st1{display:inline;fill:#FFFFFF;stroke:#252723;stroke-miterlimit:10;}
	.st2{fill:#FFFFFF;}
	.st3{fill:#CED1E6;}
	.st4{clip-path:url(#SVGID_2_);fill:#A27D41;}
	.st5{clip-path:url(#SVGID_2_);fill:#FFFFFF;}
	.st6{clip-path:url(#SVGID_2_);fill:#CF585B;}
	.st7{clip-path:url(#SVGID_2_);fill:#D9A623;}
	.st8{clip-path:url(#SVGID_2_);fill:#F9EA00;}
	.st9{clip-path:url(#SVGID_2_);fill:#80B65C;}
	.st10{clip-path:url(#SVGID_2_);fill:#87C4E6;}
	.st11{clip-path:url(#SVGID_2_);fill:#A48DBD;}
	.st12{display:inline;fill:none;stroke:#252723;stroke-miterlimit:10;}
</style>
<g id="Bleed" class="st0">
	<circle class="st1" cx="126" cy="126" r="72"/>
</g>
<g id="Background">
</g>
<g id="Image">
	<circle class="st2" cx="126" cy="126" r="57.66"/>
	<circle class="st3" cx="126" cy="126" r="50.01"/>
	<circle class="st2" cx="126" cy="126" r="40.72"/>
	<circle class="st3" cx="126" cy="126" r="36"/>
	<g>
		<defs>
			<rect id="SVGID_1_" x="92.97" y="104.19" width="69.03" height="69.03"/>
		</defs>
		<clipPath id="SVGID_2_">
			<use xlink:href="#SVGID_1_"  style="overflow:visible;"/>
		</clipPath>
		<path class="st4" d="M153.83,124.33c0.26,7.5-12.25,14.03-27.95,14.58c-15.7,0.55-28.64-5.09-28.9-12.59
			c-0.26-7.51,12.25-14.03,27.95-14.58C140.62,111.19,153.56,116.83,153.83,124.33"/>
		<path class="st5" d="M118.56,126.84c0.08,2.17-4.2,4.09-9.54,4.27c-5.35,0.19-9.74-1.42-9.82-3.6c-0.08-2.17,4.2-4.09,9.54-4.27
			C114.09,123.05,118.49,124.66,118.56,126.84"/>
		<path class="st6" d="M116.04,117.34c0.02,0.63-1.26,1.18-2.87,1.23c-1.61,0.06-2.93-0.41-2.95-1.03
			c-0.02-0.63,1.27-1.18,2.87-1.23C114.7,116.25,116.02,116.71,116.04,117.34"/>
		<path class="st7" d="M124.6,114.77c0.02,0.63-1.26,1.18-2.87,1.23c-1.61,0.06-2.93-0.41-2.95-1.03c-0.02-0.63,1.27-1.18,2.87-1.23
			C123.26,113.68,124.58,114.14,124.6,114.77"/>
		<path class="st8" d="M132.98,114.48c0.02,0.63-1.26,1.18-2.87,1.23c-1.61,0.06-2.93-0.41-2.95-1.03
			c-0.02-0.63,1.27-1.18,2.87-1.23C131.64,113.39,132.96,113.85,132.98,114.48"/>
		<path class="st9" d="M140.73,116.47c0.02,0.63-1.26,1.18-2.87,1.23c-1.61,0.06-2.93-0.41-2.95-1.03
			c-0.02-0.63,1.27-1.18,2.87-1.23C139.38,115.39,140.7,115.85,140.73,116.47"/>
		<path class="st10" d="M145.93,119.98c0.02,0.63-1.26,1.18-2.87,1.23c-1.61,0.06-2.93-0.41-2.95-1.03
			c-0.02-0.63,1.27-1.18,2.87-1.23C144.59,118.89,145.91,119.36,145.93,119.98"/>
		<path class="st11" d="M149.03,125.08c0.02,0.63-1.26,1.18-2.87,1.23c-1.61,0.06-2.93-0.41-2.95-1.03
			c-0.02-0.63,1.27-1.18,2.87-1.23C147.68,123.99,149,124.46,149.03,125.08"/>
	</g>
</g>
<g id="Text">
	<g>
		<path class="st2" d="M115.26,85.15l-2.21,0.65l-0.1,1.32c-0.02,0.22-0.18,0.4-0.38,0.46c-0.06,0.02-0.12,0.03-0.18,0.02
			c-0.29-0.02-0.51-0.28-0.49-0.57l0.43-5.96c0.02-0.22,0.19-0.41,0.39-0.46c0.21-0.07,0.44,0,0.58,0.18l3.6,4.77
			c0.17,0.24,0.13,0.57-0.11,0.75c-0.04,0.03-0.1,0.06-0.17,0.08c-0.2,0.06-0.43,0-0.56-0.18L115.26,85.15z M114.59,84.26
			l-1.32-1.74l-0.16,2.18L114.59,84.26z"/>
		<path class="st2" d="M120.26,81.44c0.04,0.26-0.13,0.53-0.41,0.58c-0.22,0.04-0.39,0.12-0.53,0.27c-0.16,0.14-0.27,0.33-0.36,0.52
			c-0.18,0.34-0.23,0.71-0.25,0.85l0.3,1.78c0.04,0.27-0.15,0.54-0.43,0.58c-0.27,0.05-0.53-0.14-0.58-0.41l-0.61-3.69
			c-0.05-0.27,0.14-0.53,0.42-0.57c0.28-0.05,0.55,0.13,0.6,0.4l0.01,0.06c0.05-0.07,0.11-0.16,0.17-0.22
			c0.27-0.26,0.65-0.5,1.12-0.56C119.96,80.99,120.21,81.17,120.26,81.44z"/>
		<path class="st2" d="M123.89,81.16c0.02,0.28-0.21,0.54-0.49,0.56l-0.24,0.02l0.19,2.64c0.29-0.02,0.54,0.2,0.56,0.49
			c0.02,0.29-0.19,0.54-0.49,0.56c-0.58,0.04-1.08-0.4-1.13-0.98l-0.19-2.64l-0.28,0.02c-0.29,0.02-0.54-0.2-0.56-0.48
			c-0.02-0.29,0.19-0.54,0.48-0.56l0.27-0.02l-0.1-1.37c-0.02-0.29,0.2-0.54,0.49-0.56c0.29-0.02,0.54,0.19,0.56,0.48l0.1,1.37
			l0.24-0.02C123.61,80.66,123.87,80.87,123.89,81.16z"/>
		<path class="st2" d="M126.81,81.14l-0.03,3.71c0,0.28-0.22,0.51-0.52,0.51c-0.29,0-0.51-0.23-0.51-0.52l0.03-3.71
			c0-0.3,0.23-0.52,0.52-0.52C126.6,80.62,126.81,80.84,126.81,81.14z M126.82,79.42c0,0.28-0.22,0.52-0.52,0.52
			c-0.29,0-0.51-0.24-0.51-0.53l0-0.2c0-0.29,0.23-0.51,0.52-0.51c0.29,0,0.51,0.23,0.51,0.52L126.82,79.42z"/>
		<path class="st2" d="M128.18,84.03c0.19-0.21,0.53-0.21,0.72-0.01c0.23,0.23,0.63,0.49,1,0.51c0.26,0.02,0.5-0.04,0.66-0.12
			c0.14-0.1,0.19-0.19,0.2-0.27c0-0.05,0-0.07-0.02-0.1c-0.01-0.03-0.04-0.07-0.11-0.12c-0.12-0.11-0.4-0.24-0.73-0.34l-0.01,0
			c-0.29-0.08-0.56-0.19-0.8-0.33c-0.24-0.15-0.45-0.34-0.6-0.61c-0.09-0.18-0.12-0.39-0.11-0.61c0.04-0.44,0.32-0.78,0.66-0.99
			c0.35-0.2,0.76-0.28,1.2-0.24c0.65,0.06,1.09,0.42,1.37,0.66c0.21,0.17,0.25,0.49,0.09,0.71c-0.17,0.21-0.49,0.25-0.71,0.07
			c-0.29-0.23-0.54-0.4-0.84-0.43c-0.24-0.02-0.45,0.04-0.58,0.12c-0.13,0.07-0.17,0.16-0.17,0.2c0,0.04,0,0.05,0.01,0.08
			c0.01,0.02,0.03,0.06,0.09,0.1c0.12,0.1,0.35,0.21,0.67,0.29l0.01,0.01l0.01,0c0.31,0.09,0.59,0.2,0.85,0.36
			c0.24,0.14,0.48,0.34,0.62,0.62c0.1,0.2,0.14,0.42,0.12,0.64c-0.04,0.46-0.34,0.83-0.7,1.04c-0.36,0.2-0.8,0.31-1.27,0.26
			c-0.74-0.08-1.27-0.47-1.62-0.81C127.98,84.55,127.99,84.22,128.18,84.03z"/>
		<path class="st2" d="M135.82,82.23c-0.06,0.28-0.35,0.46-0.62,0.41l-0.23-0.05l-0.52,2.6c0.29,0.06,0.47,0.33,0.41,0.62
			c-0.06,0.29-0.33,0.47-0.62,0.41c-0.57-0.11-0.94-0.67-0.83-1.24l0.52-2.6l-0.27-0.05c-0.29-0.06-0.47-0.33-0.41-0.62
			c0.06-0.29,0.33-0.47,0.62-0.41l0.27,0.05l0.27-1.35c0.06-0.29,0.34-0.47,0.62-0.41c0.29,0.06,0.47,0.33,0.41,0.62l-0.27,1.35
			l0.23,0.05C135.68,81.66,135.88,81.94,135.82,82.23z"/>
		<path class="st2" d="M138.6,82.97l-1,3.57c-0.08,0.27-0.35,0.43-0.63,0.35c-0.27-0.08-0.43-0.36-0.36-0.63l1-3.57
			c0.08-0.29,0.36-0.44,0.63-0.36C138.53,82.41,138.68,82.68,138.6,82.97z M139.07,81.32c-0.08,0.27-0.35,0.44-0.63,0.36
			c-0.27-0.08-0.43-0.37-0.35-0.64l0.05-0.19c0.08-0.27,0.36-0.43,0.63-0.36c0.28,0.08,0.43,0.36,0.36,0.63L139.07,81.32z"/>
		<path class="st2" d="M139.45,85.12c0.47-1.23,1.88-1.82,3.11-1.36c0.53,0.21,0.95,0.59,1.22,1.03c0.14,0.24,0.06,0.55-0.16,0.69
			c-0.26,0.15-0.56,0.07-0.7-0.17c-0.17-0.26-0.4-0.48-0.73-0.61c-0.72-0.28-1.54,0.09-1.8,0.77c-0.26,0.68,0.1,1.5,0.82,1.77
			c0.32,0.12,0.66,0.12,0.95,0.04c0.25-0.08,0.53,0.07,0.63,0.35c0.07,0.25-0.08,0.52-0.35,0.62c-0.49,0.13-1.06,0.13-1.59-0.08
			C139.62,87.73,138.98,86.34,139.45,85.12z"/>
	</g>
	<g>
		<path d="M114.65,84.91l-2.21,0.65l-0.1,1.32c-0.02,0.22-0.18,0.4-0.38,0.46c-0.06,0.02-0.12,0.03-0.18,0.02
			c-0.29-0.02-0.51-0.28-0.49-0.57l0.43-5.96c0.02-0.23,0.19-0.41,0.39-0.46c0.21-0.07,0.44,0,0.58,0.18l3.6,4.77
			c0.17,0.24,0.13,0.57-0.11,0.75c-0.04,0.03-0.1,0.06-0.17,0.08c-0.2,0.06-0.43,0-0.56-0.18L114.65,84.91z M113.98,84.01
			l-1.32-1.74l-0.16,2.18L113.98,84.01z"/>
		<path d="M119.65,81.2c0.04,0.26-0.13,0.53-0.41,0.58c-0.22,0.04-0.39,0.12-0.53,0.27c-0.16,0.14-0.27,0.33-0.36,0.52
			c-0.18,0.34-0.23,0.71-0.25,0.85l0.3,1.78c0.04,0.27-0.15,0.54-0.43,0.58c-0.27,0.04-0.53-0.14-0.58-0.41l-0.62-3.69
			c-0.04-0.27,0.14-0.53,0.42-0.57c0.28-0.05,0.55,0.13,0.6,0.4l0.01,0.07c0.05-0.07,0.11-0.16,0.17-0.22
			c0.27-0.26,0.65-0.49,1.12-0.56C119.35,80.75,119.6,80.93,119.65,81.2z"/>
		<path d="M123.29,80.92c0.02,0.28-0.21,0.54-0.49,0.56l-0.24,0.02l0.19,2.65c0.29-0.02,0.54,0.2,0.56,0.49
			c0.02,0.29-0.19,0.54-0.48,0.56c-0.58,0.04-1.09-0.4-1.13-0.98l-0.19-2.64l-0.27,0.02c-0.29,0.02-0.54-0.2-0.56-0.48
			c-0.02-0.29,0.19-0.54,0.48-0.56l0.27-0.02l-0.1-1.37c-0.02-0.29,0.2-0.54,0.49-0.56c0.29-0.02,0.54,0.19,0.56,0.48l0.1,1.37
			l0.24-0.02C123,80.42,123.26,80.63,123.29,80.92z"/>
		<path d="M126.2,80.9l-0.03,3.71c0,0.29-0.22,0.51-0.52,0.51c-0.29,0-0.51-0.23-0.51-0.52l0.03-3.71c0-0.3,0.23-0.52,0.52-0.52
			C125.99,80.38,126.2,80.6,126.2,80.9z M126.21,79.18c0,0.29-0.22,0.52-0.52,0.52c-0.29,0-0.51-0.24-0.51-0.53l0-0.2
			c0-0.29,0.23-0.51,0.52-0.51c0.29,0,0.51,0.23,0.51,0.52L126.21,79.18z"/>
		<path d="M127.57,83.79c0.19-0.21,0.53-0.21,0.72-0.01c0.23,0.23,0.63,0.49,1,0.52c0.26,0.02,0.5-0.04,0.66-0.12
			c0.14-0.1,0.19-0.19,0.2-0.27c0.01-0.05,0-0.07-0.02-0.1c-0.01-0.03-0.04-0.07-0.11-0.12c-0.12-0.11-0.4-0.24-0.73-0.34l-0.01,0
			c-0.29-0.08-0.56-0.19-0.8-0.33c-0.24-0.15-0.45-0.34-0.6-0.61c-0.09-0.18-0.12-0.39-0.1-0.61c0.04-0.44,0.32-0.78,0.66-0.99
			c0.35-0.2,0.76-0.28,1.2-0.24c0.65,0.06,1.09,0.42,1.37,0.66c0.21,0.17,0.25,0.49,0.08,0.71c-0.17,0.21-0.49,0.25-0.71,0.07
			c-0.28-0.23-0.53-0.4-0.84-0.43c-0.24-0.02-0.45,0.04-0.58,0.12c-0.13,0.07-0.17,0.16-0.17,0.2c0,0.04,0,0.05,0.01,0.08
			c0.01,0.02,0.03,0.06,0.09,0.1c0.12,0.1,0.35,0.21,0.67,0.29l0.01,0.01l0.01,0c0.31,0.09,0.59,0.2,0.85,0.36
			c0.25,0.14,0.48,0.34,0.62,0.62c0.1,0.2,0.14,0.42,0.12,0.64c-0.04,0.46-0.34,0.83-0.7,1.04c-0.36,0.2-0.8,0.31-1.27,0.26
			c-0.74-0.08-1.27-0.47-1.62-0.81C127.38,84.3,127.38,83.98,127.57,83.79z"/>
		<path d="M135.21,81.98c-0.06,0.28-0.34,0.46-0.62,0.41l-0.23-0.05l-0.52,2.6c0.29,0.06,0.46,0.33,0.41,0.62
			c-0.06,0.29-0.33,0.47-0.61,0.41c-0.57-0.11-0.94-0.67-0.83-1.24l0.52-2.6l-0.27-0.05c-0.29-0.06-0.47-0.33-0.41-0.62
			c0.06-0.29,0.33-0.47,0.62-0.41l0.27,0.05l0.27-1.35c0.06-0.29,0.33-0.47,0.62-0.41c0.29,0.06,0.47,0.33,0.41,0.62l-0.27,1.35
			l0.23,0.05C135.07,81.42,135.27,81.69,135.21,81.98z"/>
		<path d="M137.99,82.73l-1,3.57c-0.08,0.27-0.35,0.43-0.63,0.35c-0.27-0.08-0.43-0.36-0.36-0.63l1-3.57
			c0.08-0.29,0.36-0.44,0.63-0.36C137.92,82.17,138.08,82.43,137.99,82.73z M138.46,81.07c-0.08,0.27-0.35,0.44-0.64,0.36
			c-0.27-0.08-0.43-0.37-0.35-0.64l0.05-0.19c0.08-0.27,0.36-0.43,0.63-0.35c0.28,0.08,0.43,0.36,0.36,0.63L138.46,81.07z"/>
		<path d="M138.84,84.88c0.48-1.23,1.88-1.82,3.11-1.36c0.53,0.21,0.95,0.59,1.22,1.03c0.14,0.24,0.06,0.55-0.16,0.69
			c-0.26,0.15-0.56,0.07-0.7-0.17c-0.17-0.26-0.41-0.48-0.73-0.61c-0.72-0.28-1.54,0.09-1.8,0.77c-0.26,0.68,0.1,1.5,0.82,1.77
			c0.32,0.12,0.66,0.12,0.95,0.04c0.25-0.08,0.53,0.07,0.63,0.35c0.07,0.25-0.08,0.52-0.35,0.62c-0.49,0.13-1.06,0.13-1.59-0.08
			C139.02,87.48,138.37,86.09,138.84,84.88z"/>
	</g>
</g>
<g id="Safe_Area" class="st0">
	<circle class="st12" cx="126" cy="126" r="54"/>
</g>
</svg>
