<?xml version="1.0" encoding="utf-8"?>
<!-- Generator: Adobe Illustrator 23.0.2, SVG Export Plug-In . SVG Version: 6.00 Build 0)  -->
<svg version="1.1" xmlns="http://www.w3.org/2000/svg" xmlns:xlink="http://www.w3.org/1999/xlink" x="0px" y="0px"
	 viewBox="0 0 252 252" style="enable-background:new 0 0 252 252;" xml:space="preserve">
<style type="text/css">
	.st0{display:none;}
	.st1{display:inline;fill:#FFFFFF;stroke:#252723;stroke-miterlimit:10;}
	.st2{fill:#FFFFFF;}
	.st3{fill:#C0D8F2;}
	.st4{clip-path:url(#SVGID_2_);fill:#212020;}
	.st5{clip-path:url(#SVGID_2_);fill:#FFFFFF;}
	.st6{display:inline;fill:none;stroke:#252723;stroke-miterlimit:10;}
</style>
<g id="Bleed" class="st0">
	<circle class="st1" cx="126" cy="126" r="72"/>
</g>
<g id="Background">
</g>
<g id="Image">
	<circle class="st2" cx="126" cy="126" r="57.66"/>
	<circle class="st3" cx="126" cy="126" r="50.01"/>
	<circle class="st2" cx="126" cy="126" r="45.64"/>
	<circle class="st3" cx="127.88" cy="130.08" r="44.02"/>
	<ellipse class="st2" cx="114.27" cy="126" rx="33.91" ry="40.72"/>
	<circle class="st3" cx="116.05" cy="139.61" r="31.28"/>
	
		<ellipse transform="matrix(0.155 -0.9879 0.9879 0.155 -28.9317 230.2964)" class="st2" cx="120.16" cy="132.06" rx="23.17" ry="28.93"/>
	<g>
		<defs>
			<rect id="SVGID_1_" x="95.58" y="118.39" width="60.83" height="27.35"/>
		</defs>
		<clipPath id="SVGID_2_">
			<use xlink:href="#SVGID_1_"  style="overflow:visible;"/>
		</clipPath>
		<path class="st4" d="M132.36,127.94c-2.51-0.6-4.06-3.13-3.46-5.65c0.6-2.52,3.12-4.07,5.63-3.47c2.51,0.6,4.06,3.13,3.46,5.65
			C137.39,126.99,134.87,128.54,132.36,127.94"/>
		<path class="st5" d="M131.14,126.2c-1.23-0.3-1.99-1.53-1.69-2.77c0.29-1.23,1.53-1.99,2.76-1.7c1.23,0.29,1.99,1.53,1.69,2.76
			C133.6,125.73,132.37,126.5,131.14,126.2"/>
		<path class="st4" d="M116.32,128.61c-2.51-0.6-4.06-3.13-3.46-5.65c0.6-2.52,3.12-4.07,5.63-3.47c2.51,0.6,4.06,3.13,3.46,5.65
			C121.36,127.66,118.83,129.22,116.32,128.61"/>
		<path class="st5" d="M115.1,126.88c-1.23-0.3-1.99-1.53-1.69-2.77c0.29-1.23,1.53-1.99,2.76-1.7c1.23,0.29,1.99,1.53,1.69,2.76
			C117.57,126.41,116.33,127.17,115.1,126.88"/>
		<path class="st4" d="M145.89,119.98c2.4-1.53,5.1-1.94,7.18-1.29l-4.48,6.56l7.82-1.29c-0.3,2.16-1.81,4.44-4.21,5.98
			c-3.7,2.36-8.12,2.05-9.86-0.69C140.6,126.49,142.19,122.34,145.89,119.98"/>
		<path class="st4" d="M106.11,119.98c-2.4-1.53-5.1-1.94-7.18-1.29l4.48,6.56l-7.82-1.29c0.3,2.16,1.81,4.44,4.21,5.98
			c3.7,2.36,8.12,2.05,9.86-0.69C111.4,126.49,109.81,122.34,106.11,119.98"/>
		<path class="st4" d="M143.43,136.14c0,5.3-7.6,9.59-16.98,9.59s-16.98-4.3-16.98-9.59s7.6-9.59,16.98-9.59
			S143.43,130.84,143.43,136.14"/>
		<path class="st4" d="M151.83,139.25c0,0.61-2.72,1.11-6.08,1.11s-6.08-0.5-6.08-1.11c0-0.61,2.72-1.11,6.08-1.11
			S151.83,138.64,151.83,139.25"/>
		<path class="st4" d="M147.71,142.58c0,0.61-2.72,1.11-6.08,1.11c-3.36,0-6.08-0.5-6.08-1.11c0-0.61,2.72-1.11,6.08-1.11
			C144.99,141.47,147.71,141.96,147.71,142.58"/>
		<path class="st4" d="M100.55,139.8c0,0.61,2.72,1.11,6.08,1.11c3.36,0,6.08-0.5,6.08-1.11c0-0.61-2.72-1.11-6.08-1.11
			C103.27,138.69,100.55,139.19,100.55,139.8"/>
		<path class="st4" d="M104.67,143.13c0,0.61,2.72,1.11,6.08,1.11c3.36,0,6.08-0.5,6.08-1.11c0-0.61-2.72-1.11-6.08-1.11
			C107.39,142.02,104.67,142.52,104.67,143.13"/>
	</g>
</g>
<g id="Text">
</g>
<g id="Safe_Area" class="st0">
	<circle class="st6" cx="126" cy="126" r="54"/>
</g>
</svg>
