<?xml version="1.0" encoding="utf-8"?>
<!-- Generator: Adobe Illustrator 23.0.2, SVG Export Plug-In . SVG Version: 6.00 Build 0)  -->
<svg version="1.1" id="Layer_1" xmlns="http://www.w3.org/2000/svg" xmlns:xlink="http://www.w3.org/1999/xlink" x="0px" y="0px"
	 viewBox="0 0 360 504" style="enable-background:new 0 0 360 504;" xml:space="preserve">
<style type="text/css">
	.st0{fill:#FFFFFF;}
	.st1{fill:#9C809E;}
	.st2{enable-background:new    ;}
	.st3{fill:#252723;}
	.st4{clip-path:url(#SVGID_2_);fill:#9BBFA5;}
	.st5{clip-path:url(#SVGID_4_);fill:#769D98;}
	.st6{clip-path:url(#SVGID_6_);fill:#769D98;}
	.st7{clip-path:url(#SVGID_8_);fill:#769D98;}
	.st8{clip-path:url(#SVGID_10_);fill:#769D98;}
	.st9{clip-path:url(#SVGID_12_);fill:#97C38A;}
	.st10{clip-path:url(#SVGID_14_);fill:#97C38A;}
	.st11{clip-path:url(#SVGID_16_);fill:#97C38A;}
	.st12{clip-path:url(#SVGID_18_);fill:#779A70;}
	.st13{clip-path:url(#SVGID_20_);fill:#779A70;}
	.st14{clip-path:url(#SVGID_22_);fill:#779A70;}
	.st15{clip-path:url(#SVGID_24_);fill:#C8A8CB;}
	.st16{clip-path:url(#SVGID_26_);fill:#C8A8CB;}
	.st17{clip-path:url(#SVGID_28_);fill:#C8A8CB;}
	.st18{fill:#C8A8CB;}
	.st19{clip-path:url(#SVGID_30_);fill:#9C6DA6;}
	.st20{clip-path:url(#SVGID_32_);fill:#9C6DA6;}
	.st21{clip-path:url(#SVGID_34_);fill:#9C6DA6;}
	.st22{fill:#9C6DA6;}
	.st23{clip-path:url(#SVGID_36_);fill:#212020;}
	.st24{clip-path:url(#SVGID_38_);fill:#FFFFFF;}
	.st25{clip-path:url(#SVGID_40_);fill:#212020;}
	.st26{clip-path:url(#SVGID_42_);fill:#FFFFFF;}
	.st27{clip-path:url(#SVGID_44_);fill:#212020;}
	.st28{clip-path:url(#SVGID_46_);fill:#212020;}
	.st29{clip-path:url(#SVGID_48_);fill:#212020;}
	.st30{clip-path:url(#SVGID_50_);fill:#212020;}
	.st31{clip-path:url(#SVGID_52_);fill:#212020;}
	.st32{clip-path:url(#SVGID_54_);fill:#212020;}
	.st33{clip-path:url(#SVGID_56_);fill:#212020;}
</style>
<g id="Color_Strip">
	<rect x="45" y="63" class="st0" width="270" height="378"/>
	<rect x="45" y="373.31" class="st1" width="27.15" height="40.22"/>
	<rect x="164.86" y="373.31" class="st1" width="150.14" height="40.22"/>
</g>
<g id="Date">
	<g class="st2">
		<path class="st3" d="M90.48,406.26c0.1-0.03,0.2,0.02,0.23,0.11c0.19,0.58,0.72,0.99,1.35,0.98c0.78,0,1.42-0.63,1.42-1.41v-3.3
			c0-0.1,0.08-0.18,0.18-0.18s0.18,0.08,0.18,0.18v3.3c0,0.99-0.8,1.78-1.78,1.78c-0.79,0-1.47-0.52-1.7-1.23
			C90.33,406.39,90.38,406.29,90.48,406.26z"/>
		<path class="st3" d="M95.09,404.21c0-0.11,0.08-0.18,0.18-0.18s0.18,0.08,0.18,0.18v2c0,0.63,0.5,1.13,1.13,1.14
			c0.63-0.01,1.14-0.51,1.14-1.14v-2c0-0.11,0.09-0.18,0.18-0.18c0.11,0,0.19,0.08,0.19,0.18v2c0,0.83-0.67,1.5-1.51,1.5
			c-0.83,0-1.49-0.68-1.49-1.5V404.21z"/>
		<path class="st3" d="M102.21,405.54c0-0.62-0.5-1.13-1.13-1.13c-0.62,0-1.13,0.51-1.14,1.13v2v0.03
			c-0.01,0.03-0.02,0.06-0.04,0.08c-0.03,0.04-0.08,0.07-0.14,0.07h-0.04c-0.05-0.01-0.1-0.05-0.12-0.1
			c-0.01-0.01-0.01-0.01-0.01-0.02s-0.01-0.01-0.01-0.01v-0.04v-2v-0.06v-1.25c0-0.1,0.08-0.18,0.18-0.18c0.1,0,0.17,0.08,0.17,0.18
			v0.35c0.27-0.32,0.68-0.53,1.14-0.53c0.83,0,1.49,0.68,1.49,1.49v2c0,0.1-0.08,0.18-0.18,0.18s-0.18-0.08-0.18-0.18V405.54z"/>
		<path class="st3" d="M106.14,407.4l2.46-2.21c0.29-0.27,0.45-0.63,0.45-1.01c0-0.32-0.12-0.65-0.35-0.9
			c-0.26-0.29-0.63-0.44-1-0.44c-0.33,0-0.65,0.11-0.92,0.35l-0.26,0.23c-0.07,0.08-0.19,0.07-0.25-0.01
			c-0.08-0.08-0.07-0.2,0.01-0.26l0.26-0.24c0.33-0.29,0.75-0.44,1.16-0.44c0.46,0,0.92,0.18,1.26,0.56
			c0.31,0.33,0.45,0.74,0.45,1.15c0,0.46-0.19,0.93-0.56,1.28l-2.1,1.9h2.48c0.1,0,0.18,0.08,0.18,0.19c0,0.1-0.08,0.18-0.18,0.18
			h-2.93h-0.03c-0.05,0-0.11-0.01-0.14-0.05C106.06,407.58,106.06,407.47,106.14,407.4z"/>
		<path class="st3" d="M111.42,403l-0.74,0.43c-0.02,0.02-0.06,0.03-0.09,0.03c-0.07,0-0.13-0.04-0.16-0.09
			c-0.05-0.1-0.02-0.2,0.07-0.25l1.01-0.62c0.08-0.04,0.2-0.01,0.25,0.07c0.02,0.04,0.03,0.09,0.02,0.13v4.83
			c0,0.1-0.07,0.18-0.18,0.18c-0.1,0-0.18-0.08-0.18-0.18V403z"/>
		<path class="st3" d="M115.41,405.11c0-0.08,0.06-0.14,0.14-0.14h1.6c0.08,0,0.14,0.05,0.14,0.14c0,0.09-0.07,0.15-0.14,0.15h-1.6
			C115.47,405.26,115.41,405.2,115.41,405.11z"/>
		<path class="st3" d="M120.69,406.26c0.1-0.03,0.2,0.02,0.23,0.11c0.19,0.58,0.72,0.99,1.35,0.98c0.78,0,1.42-0.63,1.42-1.41v-3.3
			c0-0.1,0.08-0.18,0.18-0.18s0.18,0.08,0.18,0.18v3.3c0,0.99-0.8,1.78-1.78,1.78c-0.79,0-1.47-0.52-1.7-1.23
			C120.54,406.39,120.59,406.29,120.69,406.26z"/>
		<path class="st3" d="M125.31,404.21c0-0.11,0.08-0.18,0.18-0.18s0.18,0.08,0.18,0.18v2c0,0.63,0.5,1.13,1.13,1.14
			c0.63-0.01,1.14-0.51,1.14-1.14v-2c0-0.11,0.09-0.18,0.18-0.18c0.11,0,0.19,0.08,0.19,0.18v2c0,0.83-0.67,1.5-1.51,1.5
			c-0.83,0-1.49-0.68-1.49-1.5V404.21z"/>
		<path class="st3" d="M129.8,402.64c0-0.1,0.08-0.18,0.18-0.18c0.11,0,0.19,0.08,0.19,0.18v4.9c0,0.1-0.08,0.18-0.19,0.18
			c-0.1,0-0.18-0.08-0.18-0.18V402.64z"/>
		<path class="st3" d="M133.57,407.4l2.46-2.21c0.29-0.27,0.45-0.63,0.45-1.01c0-0.32-0.12-0.65-0.35-0.9
			c-0.26-0.29-0.63-0.44-1-0.44c-0.33,0-0.65,0.11-0.92,0.35l-0.26,0.23c-0.07,0.08-0.19,0.07-0.25-0.01
			c-0.08-0.08-0.07-0.2,0.01-0.26l0.26-0.24c0.33-0.29,0.75-0.44,1.16-0.44c0.46,0,0.92,0.18,1.26,0.56
			c0.31,0.33,0.45,0.74,0.45,1.15c0,0.46-0.19,0.93-0.56,1.28l-2.1,1.9h2.48c0.1,0,0.18,0.08,0.18,0.19c0,0.1-0.08,0.18-0.18,0.18
			h-2.93h-0.03c-0.05,0-0.11-0.01-0.14-0.05C133.49,407.58,133.49,407.47,133.57,407.4z"/>
		<path class="st3" d="M137.99,407.4l2.46-2.21c0.29-0.27,0.45-0.63,0.45-1.01c0-0.32-0.12-0.65-0.35-0.9
			c-0.26-0.29-0.63-0.44-1-0.44c-0.33,0-0.65,0.11-0.92,0.35l-0.26,0.23c-0.07,0.08-0.19,0.07-0.25-0.01
			c-0.08-0.08-0.07-0.2,0.01-0.26l0.26-0.24c0.33-0.29,0.75-0.44,1.16-0.44c0.46,0,0.92,0.18,1.26,0.56
			c0.31,0.33,0.45,0.74,0.45,1.15c0,0.46-0.19,0.93-0.56,1.28l-2.1,1.9h2.48c0.1,0,0.18,0.08,0.18,0.19c0,0.1-0.08,0.18-0.18,0.18
			h-2.93h-0.03c-0.05,0-0.11-0.01-0.14-0.05C137.92,407.58,137.92,407.47,137.99,407.4z"/>
	</g>
</g>
<g id="Image">
	<g>
		<g>
			<defs>
				<rect id="SVGID_1_" x="101.86" y="141.51" width="153.24" height="120.73"/>
			</defs>
			<clipPath id="SVGID_2_">
				<use xlink:href="#SVGID_1_"  style="overflow:visible;"/>
			</clipPath>
			<path class="st4" d="M231.65,241.13c16.98-6.6,26.89-21.99,22.35-34.58v-0.01c-0.18-1.51-0.55-2.99-1.11-4.43
				c-0.51-1.31-1.15-2.53-1.93-3.67c1.73,11.79-7.85,25.01-23.25,30.98c-11.43,4.44-23.17,3.78-31.18-0.9
				c-6.27-10.34-22.4-14.17-38.15-8.48c-17.32,6.26-27.62,21.69-23.01,34.44c0,0.01,0,0.01,0.01,0.02c0.16,1.36,0.48,2.71,0.96,4.03
				c0.48,1.32,1.09,2.55,1.84,3.7c-1.45-11.83,8.43-24.8,23.96-30.42c11.48-4.16,23.16-3.24,31.08,1.57
				C199.66,243.69,215.97,247.22,231.65,241.13"/>
		</g>
		<g>
			<defs>
				<rect id="SVGID_3_" x="101.86" y="141.51" width="153.24" height="120.73"/>
			</defs>
			<clipPath id="SVGID_4_">
				<use xlink:href="#SVGID_3_"  style="overflow:visible;"/>
			</clipPath>
			<path class="st5" d="M231.65,241.13c16.98-6.6,26.89-21.99,22.35-34.58c1.43,11.68-8.11,24.64-23.31,30.55
				c-11.6,4.5-23.54,3.74-31.58-1.12c-0.01-0.05-0.02-0.09-0.04-0.13c-0.11-0.91-0.29-1.82-0.54-2.72
				c7.97,4.14,19.2,4.57,30.14,0.32c15.4-5.97,24.98-19.19,23.25-30.98c0.78,1.14,1.42,2.36,1.93,3.67l0.15,0.4
				c-0.18-1.51-0.55-2.99-1.11-4.43c-0.51-1.31-1.15-2.53-1.93-3.67c1.73,11.79-7.85,25.01-23.25,30.98
				c-11.43,4.44-23.17,3.78-31.18-0.9c-6.27-10.34-22.4-14.17-38.15-8.48c-17.32,6.26-27.62,21.69-23.01,34.44
				c-1.44-11.82,8.44-24.8,23.97-30.41c11.52-4.17,23.24-3.23,31.17,1.62c0.06,0.18,0.13,0.37,0.2,0.55
				c0.04,0.12,0.1,0.24,0.14,0.36c0.39,0.96,0.86,1.87,1.41,2.74c-0.37-0.23-0.74-0.44-1.12-0.65c-7.88-4.24-19.01-4.89-29.96-0.92
				c-15.53,5.62-25.42,18.59-23.96,30.42c-0.75-1.15-1.36-2.38-1.84-3.7c0.16,1.36,0.48,2.71,0.96,4.03
				c0.48,1.32,1.09,2.55,1.84,3.7c-1.45-11.83,8.43-24.8,23.96-30.42c11.48-4.16,23.16-3.24,31.08,1.57
				C199.66,243.69,215.97,247.22,231.65,241.13"/>
		</g>
		<g>
			<defs>
				<rect id="SVGID_5_" x="101.86" y="141.51" width="153.24" height="120.73"/>
			</defs>
			<clipPath id="SVGID_6_">
				<use xlink:href="#SVGID_5_"  style="overflow:visible;"/>
			</clipPath>
			<path class="st6" d="M192.26,229.35c-0.55-0.87-1.02-1.78-1.41-2.74c-0.08-0.11-0.16-0.22-0.23-0.33
				c0.12,0.81,0.29,1.63,0.53,2.42C191.52,228.91,191.9,229.12,192.26,229.35"/>
		</g>
		<g>
			<defs>
				<rect id="SVGID_7_" x="101.86" y="141.51" width="153.24" height="120.73"/>
			</defs>
			<clipPath id="SVGID_8_">
				<use xlink:href="#SVGID_7_"  style="overflow:visible;"/>
			</clipPath>
			<path class="st7" d="M192.26,229.35c-0.55-0.87-1.02-1.78-1.41-2.74c-0.08-0.11-0.16-0.22-0.23-0.33
				c0.12,0.81,0.29,1.63,0.53,2.42C191.52,228.91,191.9,229.12,192.26,229.35"/>
		</g>
		<g>
			<defs>
				<rect id="SVGID_9_" x="101.86" y="141.51" width="153.24" height="120.73"/>
			</defs>
			<clipPath id="SVGID_10_">
				<use xlink:href="#SVGID_9_"  style="overflow:visible;"/>
			</clipPath>
			<path class="st8" d="M192.26,229.35c-0.55-0.87-1.02-1.78-1.41-2.74c-0.08-0.11-0.16-0.22-0.23-0.33
				c0.12,0.81,0.29,1.63,0.53,2.42C191.52,228.91,191.9,229.12,192.26,229.35"/>
		</g>
		<g>
			<defs>
				<rect id="SVGID_11_" x="101.86" y="141.51" width="153.24" height="120.73"/>
			</defs>
			<clipPath id="SVGID_12_">
				<use xlink:href="#SVGID_11_"  style="overflow:visible;"/>
			</clipPath>
			<path class="st9" d="M221.25,183.45c-12.28,21.27-24.79,37.05-27.93,35.24c-3.14-1.81,4.27-20.53,16.55-41.81
				c12.28-21.27,24.79-37.05,27.93-35.24C240.95,143.46,233.54,162.18,221.25,183.45"/>
		</g>
		<g>
			<defs>
				<rect id="SVGID_13_" x="101.86" y="141.51" width="153.24" height="120.73"/>
			</defs>
			<clipPath id="SVGID_14_">
				<use xlink:href="#SVGID_13_"  style="overflow:visible;"/>
			</clipPath>
			<path class="st10" d="M216.71,207.56c-17.75,16.98-34.18,28.61-36.69,25.99s9.85-18.51,27.61-35.49
				c17.75-16.98,34.18-28.61,36.69-25.99C246.82,174.7,234.46,190.59,216.71,207.56"/>
		</g>
		<g>
			<defs>
				<rect id="SVGID_15_" x="101.86" y="141.51" width="153.24" height="120.73"/>
			</defs>
			<clipPath id="SVGID_16_">
				<use xlink:href="#SVGID_15_"  style="overflow:visible;"/>
			</clipPath>
			<path class="st11" d="M212.13,220.72c-21.84,11.24-40.89,17.75-42.55,14.52s14.7-14.96,36.54-26.2
				c21.84-11.24,40.89-17.75,42.55-14.52C250.33,197.74,233.97,209.47,212.13,220.72"/>
		</g>
		<g>
			<defs>
				<rect id="SVGID_17_" x="101.86" y="141.51" width="153.24" height="120.73"/>
			</defs>
			<clipPath id="SVGID_18_">
				<use xlink:href="#SVGID_17_"  style="overflow:visible;"/>
			</clipPath>
			<path class="st12" d="M212.69,198.16c-7.73,16.61-16.34,29.44-19.22,28.66s1.05-14.88,8.78-31.49s16.34-29.45,19.22-28.66
				C224.36,167.45,220.43,181.55,212.69,198.16"/>
		</g>
		<g>
			<defs>
				<rect id="SVGID_19_" x="101.86" y="141.51" width="153.24" height="120.73"/>
			</defs>
			<clipPath id="SVGID_20_">
				<use xlink:href="#SVGID_19_"  style="overflow:visible;"/>
			</clipPath>
			<path class="st13" d="M207.87,215.52c-13.64,13.76-26.62,23.64-28.99,22.08c-2.37-1.56,6.77-13.99,20.42-27.75
				c13.64-13.76,26.62-23.64,28.99-22.08C230.65,189.34,221.51,201.77,207.87,215.52"/>
		</g>
		<g>
			<defs>
				<rect id="SVGID_21_" x="101.86" y="141.51" width="153.24" height="120.73"/>
			</defs>
			<clipPath id="SVGID_22_">
				<use xlink:href="#SVGID_21_"  style="overflow:visible;"/>
			</clipPath>
			<path class="st14" d="M206.24,222.14c-14.5,6.14-27.34,9.24-28.67,6.93c-1.33-2.31,9.34-9.16,23.84-15.29
				c14.5-6.14,27.34-9.24,28.67-6.93C231.41,209.16,220.74,216,206.24,222.14"/>
		</g>
		<g>
			<defs>
				<rect id="SVGID_23_" x="101.86" y="141.51" width="153.24" height="120.73"/>
			</defs>
			<clipPath id="SVGID_24_">
				<use xlink:href="#SVGID_23_"  style="overflow:visible;"/>
			</clipPath>
			<path class="st15" d="M207.02,239.44c-11.25,7.01-23.49,7.7-27.33,1.54s2.17-16.84,13.43-23.86c11.25-7.01,23.49-7.7,27.33-1.54
				C224.29,221.75,218.28,232.43,207.02,239.44"/>
		</g>
		<g>
			<defs>
				<rect id="SVGID_25_" x="101.86" y="141.51" width="153.24" height="120.73"/>
			</defs>
			<clipPath id="SVGID_26_">
				<use xlink:href="#SVGID_25_"  style="overflow:visible;"/>
			</clipPath>
			<path class="st16" d="M197.13,221.19c-3.96,12.66-11.96,21.42-17.88,19.57c-5.92-1.85-7.51-13.61-3.55-26.27
				c3.96-12.66,11.96-21.42,17.88-19.57C199.49,196.77,201.08,208.53,197.13,221.19"/>
		</g>
		<g>
			<defs>
				<rect id="SVGID_27_" x="101.86" y="141.51" width="153.24" height="120.73"/>
			</defs>
			<clipPath id="SVGID_28_">
				<use xlink:href="#SVGID_27_"  style="overflow:visible;"/>
			</clipPath>
			<path class="st17" d="M200.55,256.12c-13.14-1.79-23.07-8.54-22.18-15.07c0.89-6.53,12.27-10.37,25.4-8.58
				c13.14,1.79,23.07,8.54,22.18,15.07C225.07,254.07,213.69,257.91,200.55,256.12"/>
		</g>
	</g>
	<polygon class="st18" points="179.84,257.29 175.32,249.44 173.94,247.05 168.75,238.01 168.74,238 163.65,229.16 173.56,229.18 
		173.92,229.17 177.6,229.17 180.85,229.18 181.5,229.19 183.56,229.18 183.59,229.18 186.68,229.19 192.02,229.19 193.84,229.2 
		195.36,229.2 196.11,229.2 194.41,232.13 193.47,233.76 189.88,239.96 187.08,244.8 186.94,245.04 186,246.66 184.11,249.93 
		183.96,250.19 	"/>
	<g>
		<g>
			<defs>
				<rect id="SVGID_29_" x="101.86" y="141.51" width="153.24" height="120.73"/>
			</defs>
			<clipPath id="SVGID_30_">
				<use xlink:href="#SVGID_29_"  style="overflow:visible;"/>
			</clipPath>
			<path class="st19" d="M202.04,239.99c-9.45,5.89-19.73,6.47-22.96,1.29c-3.23-5.18,1.82-14.15,11.28-20.04
				c9.45-5.89,19.73-6.47,22.96-1.29C216.55,225.12,211.5,234.09,202.04,239.99"/>
		</g>
		<g>
			<defs>
				<rect id="SVGID_31_" x="101.86" y="141.51" width="153.24" height="120.73"/>
			</defs>
			<clipPath id="SVGID_32_">
				<use xlink:href="#SVGID_31_"  style="overflow:visible;"/>
			</clipPath>
			<path class="st20" d="M193.73,224.65c-3.32,10.63-10.05,17.99-15.02,16.44s-6.31-11.43-2.98-22.07
				c3.32-10.63,10.05-17.99,15.02-16.44C195.72,204.14,197.05,214.02,193.73,224.65"/>
		</g>
		<g>
			<defs>
				<rect id="SVGID_33_" x="101.86" y="141.51" width="153.24" height="120.73"/>
			</defs>
			<clipPath id="SVGID_34_">
				<use xlink:href="#SVGID_33_"  style="overflow:visible;"/>
			</clipPath>
			<path class="st21" d="M196.61,253.99c-11.04-1.51-19.38-7.17-18.63-12.66s10.3-8.71,21.34-7.2c11.04,1.51,19.38,7.17,18.63,12.66
				C217.2,252.27,207.64,255.5,196.61,253.99"/>
		</g>
	</g>
	<polygon class="st22" points="192.88,231.38 165.61,231.34 179.21,254.98 	"/>
	<polygon class="st18" points="175.32,249.44 173.94,247.05 168.75,238.01 169.19,237.57 173.03,233.74 173.12,233.66 
		173.95,232.81 174.02,232.74 174.58,232.18 175.41,231.35 176.92,229.86 177.6,229.17 187.68,219.14 186.37,222.31 186.29,222.53 
		185.27,225.06 185.09,225.51 183.58,229.18 183.3,229.88 182.85,230.99 182.7,231.36 182.51,231.82 182.35,232.21 180.76,236.1 
		180.29,237.26 180.28,237.28 180.15,237.62 179.75,238.59 179.61,238.94 179.18,239.99 178.91,240.64 178.83,240.83 178.73,241.09 
		178.6,241.39 178.61,241.4 178.33,242.05 178.31,242.11 178.27,242.23 178.24,242.29 178.11,242.6 178,242.87 177.72,243.56 
		177.63,243.78 177.37,244.43 176.46,246.65 175.68,248.55 175.61,248.72 	"/>
	<polygon class="st18" points="201.75,222.12 180.68,245.49 173.27,235.48 	"/>
	<polygon class="st18" points="205.82,246.7 174.35,246.65 176.84,234.45 	"/>
	<g>
		<g>
			<defs>
				<rect id="SVGID_35_" x="101.86" y="141.51" width="153.24" height="120.73"/>
			</defs>
			<clipPath id="SVGID_36_">
				<use xlink:href="#SVGID_35_"  style="overflow:visible;"/>
			</clipPath>
			<path class="st23" d="M162.55,192.62c-4.14-0.99-6.7-5.15-5.71-9.29c0.99-4.14,5.15-6.7,9.29-5.71c4.14,0.99,6.7,5.15,5.71,9.29
				C170.86,191.05,166.7,193.61,162.55,192.62"/>
		</g>
		<g>
			<defs>
				<rect id="SVGID_37_" x="101.86" y="141.51" width="153.24" height="120.73"/>
			</defs>
			<clipPath id="SVGID_38_">
				<use xlink:href="#SVGID_37_"  style="overflow:visible;"/>
			</clipPath>
			<path class="st24" d="M160.54,189.76c-2.03-0.48-3.28-2.52-2.79-4.55c0.48-2.03,2.52-3.28,4.55-2.79s3.28,2.52,2.8,4.55
				C164.6,188.99,162.57,190.24,160.54,189.76"/>
		</g>
		<g>
			<defs>
				<rect id="SVGID_39_" x="101.86" y="141.51" width="153.24" height="120.73"/>
			</defs>
			<clipPath id="SVGID_40_">
				<use xlink:href="#SVGID_39_"  style="overflow:visible;"/>
			</clipPath>
			<path class="st25" d="M136.09,193.73c-4.14-0.99-6.7-5.15-5.71-9.29s5.15-6.7,9.29-5.71c4.14,0.99,6.7,5.15,5.71,9.29
				S140.23,194.72,136.09,193.73"/>
		</g>
		<g>
			<defs>
				<rect id="SVGID_41_" x="101.86" y="141.51" width="153.24" height="120.73"/>
			</defs>
			<clipPath id="SVGID_42_">
				<use xlink:href="#SVGID_41_"  style="overflow:visible;"/>
			</clipPath>
			<path class="st26" d="M134.07,190.87c-2.03-0.48-3.28-2.52-2.79-4.55c0.48-2.03,2.52-3.28,4.55-2.79
				c2.03,0.48,3.28,2.52,2.8,4.55C138.14,190.1,136.1,191.35,134.07,190.87"/>
		</g>
		<g>
			<defs>
				<rect id="SVGID_43_" x="101.86" y="141.51" width="153.24" height="120.73"/>
			</defs>
			<clipPath id="SVGID_44_">
				<use xlink:href="#SVGID_43_"  style="overflow:visible;"/>
			</clipPath>
			<path class="st27" d="M184.89,179.51c3.97-2.52,8.42-3.19,11.85-2.13l-7.4,10.79l12.91-2.13c-0.49,3.56-2.98,7.31-6.95,9.83
				c-6.11,3.89-13.41,3.38-16.28-1.14C176.15,190.22,178.78,183.4,184.89,179.51"/>
		</g>
		<g>
			<defs>
				<rect id="SVGID_45_" x="101.86" y="141.51" width="153.24" height="120.73"/>
			</defs>
			<clipPath id="SVGID_46_">
				<use xlink:href="#SVGID_45_"  style="overflow:visible;"/>
			</clipPath>
			<path class="st28" d="M119.23,179.51c-3.97-2.52-8.42-3.19-11.85-2.13l7.4,10.79l-12.91-2.13c0.49,3.56,2.98,7.31,6.95,9.83
				c6.11,3.89,13.41,3.38,16.28-1.14C127.97,190.22,125.34,183.4,119.23,179.51"/>
		</g>
		<g>
			<defs>
				<rect id="SVGID_47_" x="101.86" y="141.51" width="153.24" height="120.73"/>
			</defs>
			<clipPath id="SVGID_48_">
				<use xlink:href="#SVGID_47_"  style="overflow:visible;"/>
			</clipPath>
			<path class="st29" d="M180.83,206.11c0,8.72-12.54,15.79-28.02,15.79c-15.47,0-28.02-7.07-28.02-15.79
				c0-8.72,12.54-15.79,28.02-15.79C168.29,190.33,180.83,197.39,180.83,206.11"/>
		</g>
		<g>
			<defs>
				<rect id="SVGID_49_" x="101.86" y="141.51" width="153.24" height="120.73"/>
			</defs>
			<clipPath id="SVGID_50_">
				<use xlink:href="#SVGID_49_"  style="overflow:visible;"/>
			</clipPath>
			<path class="st30" d="M194.69,211.22c0,1.01-4.49,1.83-10.03,1.83s-10.03-0.82-10.03-1.83s4.49-1.83,10.03-1.83
				S194.69,210.22,194.69,211.22"/>
		</g>
		<g>
			<defs>
				<rect id="SVGID_51_" x="101.86" y="141.51" width="153.24" height="120.73"/>
			</defs>
			<clipPath id="SVGID_52_">
				<use xlink:href="#SVGID_51_"  style="overflow:visible;"/>
			</clipPath>
			<path class="st31" d="M187.89,216.7c0,1.01-4.49,1.83-10.03,1.83s-10.03-0.82-10.03-1.83s4.49-1.83,10.03-1.83
				S187.89,215.69,187.89,216.7"/>
		</g>
		<g>
			<defs>
				<rect id="SVGID_53_" x="101.86" y="141.51" width="153.24" height="120.73"/>
			</defs>
			<clipPath id="SVGID_54_">
				<use xlink:href="#SVGID_53_"  style="overflow:visible;"/>
			</clipPath>
			<path class="st32" d="M110.06,212.14c0,1.01,4.49,1.83,10.03,1.83s10.03-0.82,10.03-1.83s-4.49-1.83-10.03-1.83
				S110.06,211.13,110.06,212.14"/>
		</g>
		<g>
			<defs>
				<rect id="SVGID_55_" x="101.86" y="141.51" width="153.24" height="120.73"/>
			</defs>
			<clipPath id="SVGID_56_">
				<use xlink:href="#SVGID_55_"  style="overflow:visible;"/>
			</clipPath>
			<path class="st33" d="M116.86,217.61c0,1.01,4.49,1.83,10.03,1.83c5.54,0,10.03-0.82,10.03-1.83s-4.49-1.83-10.03-1.83
				S116.86,216.6,116.86,217.61"/>
		</g>
	</g>
</g>
<g id="Name">
	<g class="st2">
		<path class="st3" d="M91.11,385.6c0.02-2.97,2.5-5.38,5.5-5.4c1.32,0,2.52,0.44,3.46,1.17c0.36,0.3,0.42,0.83,0.15,1.2
			c-0.3,0.38-0.85,0.43-1.2,0.17c-0.66-0.54-1.48-0.83-2.42-0.83c-1.03,0-1.99,0.42-2.7,1.08c-0.67,0.69-1.1,1.59-1.1,2.61
			c0,1.02,0.42,1.95,1.1,2.61c0.71,0.66,1.67,1.08,2.7,1.08c0.93,0,1.74-0.29,2.42-0.83c0.34-0.25,0.9-0.19,1.2,0.17
			c0.27,0.38,0.21,0.92-0.15,1.2c-0.94,0.74-2.14,1.17-3.46,1.17C93.61,391,91.12,388.59,91.11,385.6z"/>
		<path class="st3" d="M109.32,387.27v2.94c0,0.43-0.36,0.79-0.79,0.79c-0.39,0-0.69-0.29-0.78-0.64c-0.57,0.4-1.24,0.64-1.99,0.64
			c-1.02,0-1.9-0.42-2.55-1.09c-0.65-0.69-1.02-1.62-1.02-2.64c0-1.04,0.38-1.97,1.02-2.64c0.65-0.69,1.53-1.12,2.55-1.12
			c0.75,0,1.42,0.25,1.99,0.66c0.09-0.38,0.39-0.66,0.78-0.66c0.44,0,0.79,0.36,0.79,0.81V387.27z M107.73,387.27
			c0-0.63-0.23-1.17-0.58-1.54c-0.36-0.41-0.87-0.62-1.4-0.62c-0.54,0-1.05,0.21-1.4,0.62c-0.36,0.37-0.57,0.91-0.57,1.54
			c0,0.61,0.21,1.15,0.57,1.54c0.34,0.38,0.85,0.58,1.4,0.58c0.52,0,1.03-0.21,1.4-0.58C107.5,388.42,107.73,387.88,107.73,387.27z"
			/>
		<path class="st3" d="M118.36,386.62v3.58c0,0.43-0.35,0.79-0.78,0.79c-0.42,0-0.79-0.36-0.79-0.79v-3.58
			c0-0.84-0.71-1.51-1.56-1.51c-0.84,0-1.5,0.67-1.5,1.51v3.58c0,0.04,0,0.09-0.03,0.15c-0.08,0.36-0.4,0.64-0.79,0.64
			c-0.45,0-0.79-0.36-0.79-0.79v-3.58v-2.33c0-0.43,0.34-0.79,0.79-0.79c0.31,0,0.6,0.18,0.73,0.46c0.45-0.28,1-0.46,1.59-0.46
			C116.97,383.5,118.36,384.93,118.36,386.62z"/>
		<path class="st3" d="M120.78,387.27c0-2.08,1.74-3.75,3.81-3.77c0.9,0,1.74,0.33,2.39,0.83c0.34,0.27,0.4,0.78,0.16,1.11
			c-0.3,0.36-0.78,0.42-1.12,0.15c-0.39-0.29-0.87-0.48-1.43-0.48c-1.21,0-2.22,1-2.22,2.16c0,1.15,1,2.14,2.22,2.14
			c0.54,0,1.04-0.2,1.43-0.48c0.33-0.25,0.82-0.19,1.12,0.17c0.24,0.33,0.18,0.81-0.16,1.11c-0.65,0.46-1.49,0.79-2.39,0.79
			C122.52,391,120.78,389.32,120.78,387.27z"/>
		<path class="st3" d="M129.12,387.25c0.01-2.04,1.6-3.75,3.66-3.75c1.95,0,3.5,1.46,3.61,3.48c0,0.01,0,0.04,0,0.07
			c0,0.03,0,0.11-0.01,0.14c-0.05,0.36-0.36,0.6-0.78,0.6h-4.77c0.07,0.34,0.24,0.74,0.51,0.99c0.31,0.36,0.92,0.63,1.44,0.67
			c0.54,0.04,1.19-0.09,1.56-0.38c0.31-0.33,0.93-0.29,1.12-0.04c0.19,0.21,0.34,0.66,0,0.97c-0.73,0.67-1.62,0.99-2.69,0.99
			C130.72,390.99,129.13,389.29,129.12,387.25z M130.75,386.52H135c-0.15-0.6-0.91-1.49-2.22-1.59
			C131.5,384.99,130.87,385.9,130.75,386.52z"/>
		<path class="st3" d="M143.08,384.3c0,0.42-0.34,0.79-0.79,0.79c-0.34,0-0.65,0.09-0.9,0.29c-0.29,0.18-0.51,0.44-0.69,0.72
			c-0.36,0.48-0.54,1.05-0.62,1.26v2.85c0,0.43-0.38,0.79-0.82,0.79c-0.44,0-0.79-0.36-0.79-0.79v-5.91c0-0.43,0.36-0.78,0.79-0.78
			c0.45,0,0.82,0.34,0.82,0.78v0.11c0.09-0.11,0.21-0.23,0.32-0.3c0.49-0.33,1.14-0.6,1.89-0.58
			C142.74,383.52,143.08,383.86,143.08,384.3z"/>
	</g>
</g>
</svg>
