<?xml version="1.0" encoding="utf-8"?>
<!-- Generator: Adobe Illustrator 23.0.2, SVG Export Plug-In . SVG Version: 6.00 Build 0)  -->
<svg version="1.1" xmlns="http://www.w3.org/2000/svg" xmlns:xlink="http://www.w3.org/1999/xlink" x="0px" y="0px"
	 viewBox="0 0 252 252" style="enable-background:new 0 0 252 252;" xml:space="preserve">
<style type="text/css">
	.st0{display:none;}
	.st1{display:inline;fill:#FFFFFF;stroke:#252723;stroke-miterlimit:10;}
	.st2{fill:#FFFFFF;}
	.st3{fill:#E4F0F4;}
	.st4{clip-path:url(#SVGID_2_);fill:#FFFFFF;}
	.st5{display:inline;fill:none;stroke:#252723;stroke-miterlimit:10;}
</style>
<g id="Bleed" class="st0">
	<circle class="st1" cx="126" cy="126" r="72"/>
</g>
<g id="Background">
</g>
<g id="Image">
	<circle class="st2" cx="126" cy="126" r="57.66"/>
	<circle class="st3" cx="126" cy="126" r="50.01"/>
	<circle class="st2" cx="126" cy="126" r="40.72"/>
	<circle class="st3" cx="126" cy="126" r="36"/>
	<g>
		<defs>
			
				<rect id="SVGID_1_" x="92.48" y="98.96" transform="matrix(0.2336 -0.9723 0.9723 0.2336 -33.545 235.0217)" width="79.67" height="79.67"/>
		</defs>
		<clipPath id="SVGID_2_">
			<use xlink:href="#SVGID_1_"  style="overflow:visible;"/>
		</clipPath>
		<path class="st4" d="M145.02,119.81c0.29,4.63-8.95,8.97-20.63,9.69c-11.69,0.72-21.4-2.44-21.69-7.07
			c-0.29-4.63,8.94-8.97,20.63-9.69C135.02,112.01,144.73,115.18,145.02,119.81"/>
		<path class="st4" d="M151.01,118.28c0.29,4.59-5.27,8.67-12.41,9.11c-7.15,0.44-13.17-2.92-13.46-7.51s5.27-8.67,12.41-9.11
			C144.69,110.33,150.72,113.69,151.01,118.28"/>
		<path class="st4" d="M135.61,110.12c0.29,4.59-4.57,8.63-10.86,9.02c-6.29,0.39-11.62-3.02-11.91-7.61
			c-0.29-4.59,4.57-8.63,10.86-9.02C129.99,102.12,135.32,105.53,135.61,110.12"/>
		<path class="st4" d="M117.07,136.45c0.1,1.28-0.82,2.39-2.05,2.48c-1.23,0.1-2.31-0.86-2.41-2.14c-0.1-1.28,0.82-2.39,2.05-2.48
			C115.89,134.22,116.97,135.17,117.07,136.45"/>
		<path class="st4" d="M114.67,142.77c0.1,1.28-0.82,2.39-2.05,2.48c-1.23,0.1-2.31-0.86-2.41-2.14c-0.1-1.28,0.82-2.39,2.05-2.48
			C113.49,140.54,114.57,141.5,114.67,142.77"/>
	</g>
</g>
<g id="Text">
	<g>
		<path class="st2" d="M99.99,87.02c-0.16-0.25-0.1-0.56,0.15-0.73c0.24-0.16,0.57-0.1,0.73,0.15l3.07,4.69
			c0.16,0.25,0.08,0.57-0.16,0.73c-0.25,0.16-0.56,0.09-0.72-0.15L99.99,87.02z"/>
		<path class="st2" d="M107.8,86.48c0,0.01,0.01,0.02,0.01,0.03l0.96,2.04c0.12,0.25,0.01,0.55-0.24,0.67
			c-0.24,0.11-0.56,0.01-0.68-0.24l-0.96-2.04c0-0.01-0.01-0.02-0.01-0.03c-0.23-0.47-0.81-0.67-1.29-0.44
			c-0.47,0.22-0.68,0.8-0.45,1.29l0.96,2.04c0.01,0.02,0.01,0.05,0.02,0.06c0,0.01,0.01,0.03,0.01,0.03c0,0.02,0.01,0.04,0,0.06
			c0,0.01,0.01,0.03,0.02,0.04c0,0.19-0.12,0.39-0.3,0.48c-0.03,0.02-0.06,0.02-0.09,0.03c-0.23,0.05-0.47-0.05-0.58-0.27
			l-0.96-2.04c0-0.01,0-0.01,0-0.01l-0.63-1.33c-0.12-0.27-0.01-0.56,0.24-0.68c0.18-0.08,0.39-0.07,0.53,0.07
			c0.2-0.29,0.47-0.54,0.8-0.69c0.54-0.25,1.13-0.26,1.63-0.04c0.14-0.52,0.53-0.97,1.07-1.23c0.99-0.46,2.17-0.03,2.64,0.96
			l0.96,2.04c0.12,0.25,0.01,0.55-0.24,0.67s-0.56,0.01-0.68-0.24l-0.96-2.04c-0.23-0.49-0.81-0.7-1.28-0.48
			C107.8,85.43,107.6,86,107.8,86.48z"/>
		<path class="st2" d="M116.7,83.88l0.48,1.8c0.07,0.27-0.09,0.55-0.36,0.62c-0.24,0.06-0.47-0.06-0.58-0.27
			c-0.28,0.34-0.66,0.6-1.12,0.72c-0.63,0.17-1.24,0.06-1.74-0.25c-0.51-0.32-0.89-0.83-1.06-1.45c-0.17-0.63-0.09-1.26,0.19-1.78
			c0.28-0.53,0.75-0.94,1.38-1.11c0.46-0.12,0.91-0.08,1.33,0.08c-0.01-0.24,0.13-0.47,0.37-0.53c0.27-0.07,0.55,0.09,0.62,0.37
			L116.7,83.88z M115.73,84.14c-0.1-0.39-0.33-0.68-0.61-0.85c-0.29-0.19-0.63-0.23-0.96-0.15c-0.33,0.09-0.61,0.3-0.75,0.61
			c-0.16,0.29-0.2,0.65-0.1,1.04c0.1,0.38,0.32,0.67,0.6,0.85c0.27,0.17,0.62,0.22,0.95,0.13c0.32-0.09,0.6-0.3,0.76-0.59
			C115.78,84.89,115.83,84.52,115.73,84.14z"/>
		<path class="st2" d="M123.19,82.98l0.19,1.76c0.14,1.24-0.76,2.38-2.02,2.52c-0.35,0.04-0.71-0.01-1.02-0.13
			c-0.26-0.09-0.41-0.39-0.3-0.66c0.09-0.27,0.38-0.4,0.65-0.31c0.17,0.07,0.35,0.09,0.55,0.07c0.61-0.07,1.07-0.56,1.13-1.15
			c-0.31,0.27-0.73,0.46-1.2,0.51c-0.62,0.07-1.23-0.14-1.69-0.54c-0.45-0.37-0.77-0.93-0.85-1.59c-0.07-0.65,0.12-1.27,0.48-1.75
			c0.36-0.47,0.91-0.81,1.53-0.88c0.49-0.05,0.94,0.05,1.31,0.26c0.02-0.23,0.21-0.43,0.46-0.45c0.28-0.03,0.53,0.17,0.56,0.45
			L123.19,82.98L123.19,82.98z M122.18,83.09c-0.04-0.38-0.23-0.72-0.47-0.92c-0.27-0.24-0.58-0.35-0.94-0.31
			c-0.33,0.04-0.63,0.21-0.83,0.5c-0.2,0.25-0.31,0.63-0.27,1.01c0.04,0.4,0.23,0.74,0.49,0.93c0.25,0.23,0.58,0.33,0.91,0.29
			c0.36-0.04,0.64-0.21,0.86-0.49C122.11,83.86,122.22,83.48,122.18,83.09z"/>
		<path class="st2" d="M126.3,79.35c0,0.29-0.22,0.52-0.51,0.52c-0.29,0-0.51-0.23-0.52-0.52l0-0.2c0-0.29,0.23-0.51,0.51-0.52
			c0.29,0,0.51,0.23,0.52,0.51L126.3,79.35z M126.31,81.07l0.02,3.71c0,0.29-0.22,0.51-0.51,0.52c-0.28,0-0.51-0.23-0.52-0.51
			l-0.02-3.71c0-0.3,0.23-0.52,0.51-0.52C126.09,80.55,126.31,80.77,126.31,81.07z"/>
		<path class="st2" d="M132.04,82.9l-0.22,2.26c-0.03,0.27-0.27,0.48-0.54,0.45c-0.27-0.02-0.48-0.28-0.45-0.55l0.22-2.26
			c0.05-0.53-0.35-1-0.89-1.05c-0.53-0.05-0.99,0.33-1.04,0.87l-0.22,2.26c0,0.03-0.01,0.06-0.03,0.09
			c-0.07,0.22-0.29,0.38-0.54,0.36c-0.28-0.03-0.48-0.27-0.45-0.55l0.22-2.26l0.14-1.47c0.03-0.27,0.27-0.48,0.55-0.45
			c0.2,0.02,0.37,0.15,0.44,0.34c0.3-0.15,0.66-0.23,1.03-0.2C131.34,80.85,132.14,81.83,132.04,82.9z"/>
		<path class="st2" d="M137.87,84.56l-0.43,1.81c-0.06,0.27-0.34,0.44-0.61,0.37c-0.24-0.06-0.38-0.28-0.39-0.51
			c-0.41,0.17-0.86,0.21-1.32,0.1c-0.63-0.15-1.11-0.54-1.41-1.05c-0.3-0.52-0.39-1.15-0.24-1.78c0.15-0.64,0.52-1.16,1.02-1.48
			c0.5-0.33,1.11-0.47,1.74-0.32c0.46,0.11,0.84,0.37,1.13,0.7c0.11-0.22,0.34-0.35,0.58-0.29c0.27,0.06,0.44,0.34,0.37,0.62
			L137.87,84.56z M136.89,84.33c0.09-0.39,0.03-0.75-0.13-1.04c-0.16-0.3-0.45-0.51-0.77-0.58c-0.33-0.08-0.68-0.02-0.95,0.17
			c-0.28,0.18-0.49,0.48-0.58,0.87c-0.09,0.38-0.04,0.74,0.12,1.04c0.16,0.28,0.44,0.49,0.77,0.57c0.32,0.08,0.67,0.02,0.95-0.16
			C136.58,85.01,136.8,84.71,136.89,84.33z"/>
		<path class="st2" d="M142.36,84.14c-0.1,0.27-0.41,0.41-0.68,0.31l-0.22-0.08l-0.9,2.5c0.28,0.1,0.41,0.4,0.31,0.68
			s-0.39,0.41-0.67,0.31c-0.55-0.2-0.83-0.81-0.63-1.35l0.9-2.49l-0.26-0.09c-0.28-0.1-0.41-0.4-0.31-0.67
			c0.1-0.28,0.39-0.41,0.67-0.31l0.26,0.09l0.47-1.3c0.1-0.28,0.4-0.41,0.68-0.31c0.28,0.1,0.41,0.39,0.31,0.67l-0.47,1.3l0.22,0.08
			C142.31,83.57,142.46,83.87,142.36,84.14z"/>
		<path class="st2" d="M145,85.3l-1.52,3.38c-0.12,0.26-0.41,0.38-0.68,0.26c-0.26-0.12-0.37-0.42-0.26-0.68l1.52-3.38
			c0.12-0.28,0.42-0.38,0.68-0.27C145.01,84.73,145.12,85.02,145,85.3z M145.7,83.73c-0.12,0.26-0.41,0.39-0.68,0.27
			c-0.26-0.12-0.37-0.43-0.25-0.69l0.08-0.18c0.12-0.26,0.42-0.37,0.68-0.26c0.27,0.12,0.37,0.42,0.26,0.68L145.7,83.73z"/>
		<path class="st2" d="M149.89,88.18l-3.19,2.42c-0.02,0.02-0.05,0.04-0.07,0.04c0,0.01-0.01,0-0.01,0
			c-0.03,0.01-0.06,0.02-0.08,0.03c0,0.01-0.01,0-0.01,0c-0.03,0.01-0.05,0.01-0.08,0.02c0,0-0.01-0.01-0.01,0
			c-0.03,0.01-0.05,0.01-0.08,0.01c0,0,0,0-0.02-0.01c0,0,0,0,0,0.01c-0.03-0.01-0.05-0.02-0.08-0.02c-0.01,0-0.01,0-0.02-0.01
			c-0.04-0.01-0.06-0.03-0.09-0.04c-0.02-0.01-0.04-0.02-0.07-0.05c-0.01-0.01-0.01-0.01-0.02-0.01c-0.02-0.02-0.03-0.04-0.06-0.05
			c0-0.01,0-0.01,0-0.01c-0.02-0.01-0.02-0.01-0.02-0.01c-0.02-0.02-0.03-0.05-0.05-0.08c0-0.01,0-0.01,0-0.01
			c-0.01-0.03-0.02-0.04-0.02-0.08c-0.01,0-0.01,0-0.01-0.02c0-0.02,0-0.05-0.01-0.08c-0.01,0-0.01,0,0-0.01
			c-0.01-0.02-0.01-0.05,0-0.08l0.5-3.97c0.03-0.28,0.27-0.46,0.56-0.42c0.25,0.02,0.44,0.28,0.42,0.56l-0.34,2.79l2.25-1.69
			c0.22-0.17,0.53-0.14,0.69,0.08C150.14,87.72,150.11,88.02,149.89,88.18z"/>
		<path class="st2" d="M150.14,90.25c0.79-1.02,2.24-1.28,3.28-0.49c0.98,0.75,1.21,2.07,0.49,3.14c0,0.01-0.02,0.02-0.03,0.04
			c-0.01,0.01-0.04,0.05-0.06,0.06c-0.16,0.16-0.41,0.17-0.62,0l-2.41-1.82c-0.09,0.2-0.16,0.46-0.12,0.69
			c0.02,0.3,0.22,0.67,0.47,0.89c0.26,0.23,0.63,0.41,0.93,0.41c0.29-0.05,0.58,0.21,0.58,0.41c0.02,0.18-0.08,0.47-0.37,0.49
			c-0.63,0.06-1.2-0.12-1.73-0.53C149.52,92.75,149.37,91.29,150.14,90.25z M151.24,90.51l2.14,1.62c0.15-0.36,0.11-1.1-0.51-1.65
			C152.21,90.02,151.54,90.24,151.24,90.51z"/>
	</g>
	<g>
		<path d="M99.33,86.93c-0.16-0.25-0.1-0.56,0.15-0.72c0.24-0.16,0.57-0.1,0.73,0.15l3.08,4.69c0.16,0.25,0.08,0.57-0.16,0.73
			c-0.25,0.16-0.56,0.1-0.72-0.15L99.33,86.93z"/>
		<path d="M107.15,86.39c0,0.01,0.01,0.02,0.01,0.03l0.96,2.04c0.12,0.25,0.01,0.55-0.24,0.67c-0.24,0.11-0.56,0.01-0.68-0.24
			l-0.96-2.04c0-0.01-0.01-0.02-0.01-0.03c-0.23-0.47-0.81-0.67-1.29-0.44c-0.47,0.22-0.68,0.8-0.45,1.29l0.96,2.04
			c0.01,0.02,0.01,0.05,0.02,0.06c0,0.01,0.01,0.03,0.01,0.03c0,0.02,0.01,0.04,0,0.06c0,0.01,0.01,0.03,0.02,0.04
			c-0.01,0.19-0.12,0.39-0.3,0.48c-0.03,0.02-0.06,0.02-0.09,0.03c-0.23,0.04-0.47-0.05-0.58-0.27l-0.96-2.04c0-0.01,0-0.01,0-0.01
			l-0.63-1.33c-0.13-0.27-0.01-0.56,0.24-0.68c0.18-0.08,0.39-0.07,0.53,0.06c0.2-0.29,0.47-0.54,0.8-0.69
			c0.54-0.26,1.13-0.26,1.63-0.04c0.14-0.52,0.53-0.97,1.07-1.23c0.99-0.46,2.17-0.03,2.64,0.96l0.96,2.04
			c0.12,0.25,0.01,0.55-0.24,0.67c-0.25,0.12-0.56,0.01-0.68-0.24l-0.96-2.04c-0.23-0.49-0.81-0.7-1.28-0.48
			C107.15,85.34,106.95,85.91,107.15,86.39z"/>
		<path d="M116.05,83.8l0.48,1.8c0.07,0.27-0.09,0.55-0.36,0.62c-0.24,0.06-0.47-0.06-0.58-0.27c-0.28,0.34-0.66,0.6-1.12,0.72
			c-0.62,0.17-1.24,0.06-1.74-0.25c-0.51-0.32-0.89-0.83-1.06-1.45c-0.17-0.63-0.09-1.26,0.19-1.78c0.28-0.53,0.75-0.94,1.38-1.11
			c0.46-0.12,0.91-0.08,1.33,0.08c-0.01-0.24,0.13-0.47,0.37-0.53c0.27-0.07,0.55,0.09,0.62,0.37L116.05,83.8z M115.07,84.06
			c-0.1-0.39-0.33-0.68-0.61-0.85c-0.29-0.19-0.63-0.23-0.96-0.15c-0.33,0.09-0.61,0.3-0.75,0.61c-0.16,0.29-0.2,0.65-0.1,1.04
			c0.1,0.38,0.32,0.67,0.6,0.85c0.27,0.17,0.62,0.22,0.95,0.13c0.32-0.09,0.6-0.3,0.76-0.59C115.13,84.8,115.17,84.43,115.07,84.06z
			"/>
		<path d="M122.54,82.9l0.19,1.76c0.14,1.24-0.76,2.38-2.02,2.52c-0.35,0.04-0.71-0.01-1.02-0.13c-0.26-0.09-0.41-0.39-0.3-0.66
			c0.09-0.27,0.38-0.4,0.65-0.31c0.17,0.07,0.35,0.09,0.55,0.07c0.61-0.07,1.07-0.56,1.13-1.15c-0.31,0.27-0.73,0.46-1.2,0.51
			c-0.62,0.07-1.23-0.14-1.69-0.54c-0.45-0.37-0.77-0.93-0.85-1.59c-0.07-0.65,0.12-1.27,0.48-1.76c0.36-0.47,0.91-0.81,1.53-0.88
			c0.49-0.05,0.94,0.05,1.31,0.26c0.02-0.23,0.21-0.42,0.46-0.45c0.28-0.03,0.53,0.17,0.56,0.45L122.54,82.9L122.54,82.9z
			 M121.53,83c-0.04-0.38-0.23-0.72-0.47-0.92c-0.27-0.24-0.58-0.35-0.94-0.31c-0.33,0.04-0.63,0.21-0.83,0.5
			c-0.2,0.25-0.31,0.63-0.27,1.01c0.04,0.4,0.23,0.74,0.49,0.93c0.25,0.23,0.58,0.33,0.91,0.29c0.36-0.04,0.64-0.21,0.86-0.49
			C121.46,83.78,121.57,83.4,121.53,83z"/>
		<path d="M125.65,79.27c0,0.29-0.22,0.52-0.51,0.53c-0.29,0-0.51-0.23-0.52-0.52l0-0.2c0-0.29,0.23-0.51,0.51-0.52
			c0.29,0,0.51,0.23,0.52,0.51L125.65,79.27z M125.66,80.99l0.02,3.71c0,0.29-0.22,0.52-0.51,0.52c-0.29,0-0.51-0.23-0.52-0.51
			l-0.02-3.71c0-0.3,0.23-0.52,0.51-0.53C125.44,80.47,125.66,80.68,125.66,80.99z"/>
		<path d="M131.38,82.82l-0.22,2.26c-0.03,0.27-0.27,0.48-0.54,0.45c-0.27-0.03-0.48-0.28-0.45-0.55l0.22-2.26
			c0.05-0.53-0.35-1-0.89-1.05c-0.53-0.05-0.99,0.33-1.04,0.87l-0.22,2.26c0,0.03,0,0.06-0.03,0.09c-0.07,0.22-0.29,0.38-0.54,0.36
			c-0.28-0.03-0.48-0.28-0.45-0.55l0.22-2.26l0.14-1.47c0.03-0.27,0.27-0.48,0.55-0.45c0.2,0.02,0.37,0.15,0.44,0.34
			c0.3-0.15,0.66-0.23,1.03-0.2C130.69,80.77,131.49,81.75,131.38,82.82z"/>
		<path d="M137.21,84.48l-0.43,1.81c-0.06,0.27-0.34,0.44-0.61,0.37c-0.24-0.06-0.38-0.28-0.39-0.51c-0.41,0.17-0.86,0.21-1.32,0.1
			c-0.63-0.15-1.11-0.54-1.41-1.05c-0.3-0.52-0.39-1.15-0.24-1.78c0.15-0.64,0.52-1.16,1.02-1.48c0.5-0.33,1.11-0.47,1.74-0.32
			c0.46,0.11,0.84,0.37,1.13,0.7c0.11-0.22,0.34-0.35,0.58-0.29c0.27,0.06,0.44,0.34,0.37,0.62L137.21,84.48z M136.24,84.25
			c0.09-0.39,0.03-0.75-0.13-1.04c-0.16-0.3-0.45-0.51-0.77-0.58c-0.33-0.08-0.68-0.02-0.95,0.17c-0.28,0.18-0.49,0.48-0.58,0.87
			c-0.09,0.38-0.04,0.74,0.12,1.04c0.16,0.28,0.44,0.49,0.77,0.57c0.32,0.08,0.67,0.02,0.95-0.16
			C135.93,84.93,136.15,84.63,136.24,84.25z"/>
		<path d="M141.71,84.06c-0.1,0.27-0.41,0.41-0.68,0.31l-0.22-0.08l-0.9,2.5c0.28,0.1,0.41,0.4,0.31,0.68
			c-0.1,0.28-0.39,0.41-0.67,0.31c-0.55-0.2-0.83-0.81-0.63-1.35l0.9-2.49l-0.26-0.09c-0.28-0.1-0.41-0.4-0.31-0.67
			c0.1-0.28,0.39-0.41,0.67-0.31l0.26,0.09l0.47-1.3c0.1-0.28,0.4-0.41,0.68-0.31c0.28,0.1,0.41,0.39,0.31,0.67l-0.47,1.3l0.22,0.08
			C141.65,83.48,141.81,83.78,141.71,84.06z"/>
		<path d="M144.37,85.23l-1.52,3.38c-0.12,0.26-0.41,0.38-0.68,0.26c-0.26-0.12-0.37-0.42-0.26-0.68l1.52-3.38
			c0.12-0.28,0.42-0.38,0.68-0.27C144.39,84.66,144.5,84.95,144.37,85.23z M145.08,83.66c-0.12,0.26-0.41,0.39-0.68,0.27
			c-0.26-0.12-0.37-0.43-0.25-0.69l0.08-0.18c0.12-0.26,0.42-0.38,0.68-0.26c0.27,0.12,0.38,0.42,0.26,0.68L145.08,83.66z"/>
		<path d="M149.2,88.07l-3.18,2.43c-0.02,0.02-0.05,0.04-0.07,0.04c0,0.01-0.01,0-0.01,0c-0.03,0.01-0.06,0.02-0.08,0.03
			c-0.01,0.01-0.01,0-0.01,0c-0.03,0.01-0.05,0.01-0.08,0.02c0,0-0.01,0-0.01,0c-0.03,0.01-0.05,0.01-0.08,0.01c0,0,0,0-0.02-0.01
			c0,0,0,0,0,0.01c-0.02-0.01-0.05-0.02-0.08-0.02c-0.01,0-0.01,0-0.02-0.01c-0.04-0.01-0.06-0.02-0.09-0.04
			c-0.02-0.01-0.04-0.02-0.07-0.05c-0.01,0-0.01,0-0.02-0.01c-0.02-0.02-0.03-0.04-0.06-0.05c0-0.01,0-0.01,0-0.01
			c-0.02-0.01-0.02-0.01-0.02-0.01c-0.02-0.02-0.03-0.05-0.05-0.08c0-0.01,0-0.01,0-0.01c-0.01-0.03-0.02-0.04-0.02-0.08
			c-0.01-0.01-0.01-0.01-0.01-0.02c0-0.02,0-0.06-0.01-0.08c-0.01,0-0.01,0,0-0.01c-0.01-0.02-0.01-0.05,0-0.08l0.49-3.96
			c0.03-0.28,0.27-0.46,0.56-0.42c0.25,0.01,0.44,0.28,0.42,0.56L146.35,89l2.24-1.7c0.22-0.17,0.53-0.14,0.69,0.08
			C149.46,87.61,149.43,87.91,149.2,88.07z"/>
		<path d="M149.49,90.17c0.79-1.02,2.25-1.28,3.28-0.49c0.98,0.75,1.21,2.07,0.49,3.14c-0.01,0.01-0.02,0.02-0.03,0.04
			c-0.01,0.01-0.04,0.05-0.06,0.06c-0.16,0.16-0.41,0.17-0.62,0l-2.41-1.82c-0.09,0.2-0.16,0.46-0.12,0.69
			c0.02,0.3,0.22,0.67,0.47,0.89c0.25,0.23,0.63,0.41,0.93,0.41c0.28-0.05,0.58,0.21,0.58,0.41c0.02,0.18-0.08,0.47-0.37,0.49
			c-0.63,0.06-1.2-0.12-1.73-0.53C148.87,92.67,148.71,91.2,149.49,90.17z M150.59,90.42l2.14,1.62c0.15-0.36,0.11-1.1-0.51-1.65
			C151.56,89.94,150.89,90.16,150.59,90.42z"/>
	</g>
</g>
<g id="Safe_Area" class="st0">
	<circle class="st5" cx="126" cy="126" r="54"/>
</g>
</svg>
