<?xml version="1.0" encoding="utf-8"?>
<!-- Generator: Adobe Illustrator 23.0.2, SVG Export Plug-In . SVG Version: 6.00 Build 0)  -->
<svg version="1.1" xmlns="http://www.w3.org/2000/svg" xmlns:xlink="http://www.w3.org/1999/xlink" x="0px" y="0px"
	 viewBox="0 0 252 252" style="enable-background:new 0 0 252 252;" xml:space="preserve">
<style type="text/css">
	.st0{display:none;}
	.st1{display:inline;fill:#FFFFFF;stroke:#252723;stroke-miterlimit:10;}
	.st2{fill:#FFFFFF;}
	.st3{fill:#C6EAE8;}
	.st4{fill:#97C38A;}
	.st5{clip-path:url(#SVGID_2_);fill:#694719;}
	.st6{clip-path:url(#SVGID_2_);fill:#976222;}
	.st7{clip-path:url(#SVGID_2_);fill:#AE6F26;}
	.st8{fill:#75976D;}
	.st9{clip-path:url(#SVGID_4_);fill:#4D3510;}
	.st10{clip-path:url(#SVGID_4_);fill:#6E491A;}
	.st11{clip-path:url(#SVGID_4_);fill:#87581F;}
	.st12{clip-path:url(#SVGID_6_);fill:#98A798;}
	.st13{display:inline;fill:none;stroke:#252723;stroke-miterlimit:10;}
</style>
<g id="Bleed" class="st0">
	<circle class="st1" cx="126" cy="126" r="72"/>
</g>
<g id="Background">
</g>
<g id="Image">
	<circle class="st2" cx="126" cy="126" r="57.66"/>
	<circle class="st3" cx="126" cy="126" r="50.01"/>
	<circle class="st2" cx="126" cy="126" r="45.64"/>
	<ellipse transform="matrix(0.866 -0.5 0.5 0.866 -48.349 80.4783)" class="st3" cx="126" cy="130.46" rx="42.91" ry="45.57"/>
	<ellipse transform="matrix(0.998 -0.0628 0.0628 0.998 -7.4886 8.1515)" class="st2" cx="126" cy="123.27" rx="36.28" ry="43.57"/>
	<ellipse class="st3" cx="126" cy="148.67" rx="29.3" ry="20.32"/>
	
		<ellipse transform="matrix(0.0269 -0.9996 0.9996 0.0269 -14.3976 259.3214)" class="st2" cx="126" cy="137.06" rx="23.85" ry="23.49"/>
	
		<rect x="101.1" y="146.44" transform="matrix(0.0478 -0.9989 0.9989 0.0478 -32.0839 260.7286)" class="st4" width="39.23" height="1.51"/>
	<g>
		<defs>
			
				<rect id="SVGID_1_" x="102.61" y="103.21" transform="matrix(0.8843 -0.4669 0.4669 0.8843 -46.7379 75.0177)" width="50.81" height="57.23"/>
		</defs>
		<clipPath id="SVGID_2_">
			<use xlink:href="#SVGID_1_"  style="overflow:visible;"/>
		</clipPath>
		<path class="st5" d="M125.13,122.85c-0.33,7.02-1.98,12.65-3.69,12.57c-1.71-0.08-2.83-5.84-2.5-12.86
			c0.33-7.02,1.98-12.65,3.69-12.57C124.35,110.07,125.46,115.83,125.13,122.85"/>
		<path class="st6" d="M125.09,120.63c-0.3,6.28-2.09,11.3-4.02,11.21c-1.93-0.09-3.25-5.26-2.95-11.54
			c0.3-6.28,2.09-11.3,4.02-11.21C124.06,109.18,125.38,114.35,125.09,120.63"/>
		<path class="st7" d="M123.03,117.23c-0.19,3.98-1.33,7.16-2.55,7.1c-1.22-0.06-2.06-3.33-1.87-7.31c0.19-3.98,1.33-7.16,2.55-7.1
			C122.38,109.98,123.22,113.25,123.03,117.23"/>
	</g>
	
		<rect x="112.76" y="140.75" transform="matrix(0.0473 -0.9989 0.9989 0.0473 -14.6233 267.6036)" class="st8" width="40.42" height="1.43"/>
	<g>
		<defs>
			
				<rect id="SVGID_3_" x="102.61" y="103.21" transform="matrix(0.8843 -0.4669 0.4669 0.8843 -46.7379 75.0177)" width="50.81" height="57.23"/>
		</defs>
		<clipPath id="SVGID_4_">
			<use xlink:href="#SVGID_3_"  style="overflow:visible;"/>
		</clipPath>
		<path class="st9" d="M137.71,109.88c-0.33,7.02-1.98,12.65-3.69,12.57c-1.71-0.08-2.83-5.84-2.5-12.86
			c0.33-7.02,1.98-12.65,3.69-12.57C136.92,97.1,138.04,102.86,137.71,109.88"/>
		<path class="st10" d="M137.66,107.66c-0.3,6.28-2.09,11.3-4.02,11.21c-1.92-0.09-3.25-5.26-2.95-11.54s2.09-11.3,4.02-11.21
			C136.64,96.21,137.96,101.38,137.66,107.66"/>
		<path class="st11" d="M135.61,104.26c-0.19,3.98-1.33,7.16-2.55,7.1c-1.22-0.06-2.06-3.33-1.87-7.31c0.19-3.98,1.33-7.16,2.55-7.1
			C134.96,97.01,135.79,100.28,135.61,104.26"/>
	</g>
	<g>
		<defs>
			
				<rect id="SVGID_5_" x="102.61" y="103.21" transform="matrix(0.8843 -0.4669 0.4669 0.8843 -46.7379 75.0177)" width="50.81" height="57.23"/>
		</defs>
		<clipPath id="SVGID_6_">
			<use xlink:href="#SVGID_5_"  style="overflow:visible;"/>
		</clipPath>
		<path class="st12" d="M122.72,165.09c0.01-0.5,0.03-1.02,0.06-1.54c0.11-1.77,0.29-3.65,0.55-5.62c0.59-4.41,1.53-8.83,2.72-13
			c2.33-8.19,5.61-15.41,8.97-19.62c-0.31,0.14-0.63,0.32-0.95,0.52c-0.09,0.06-0.16,0.1-0.24,0.18c-3.39,2.39-6.92,8.44-9.73,16.06
			c-1.87,5.04-3.4,10.75-4.38,16.55c-0.15,0.93-0.29,1.84-0.41,2.78c-0.22,1.59-0.37,3.12-0.48,4.59c-0.07,0.89-0.11,1.75-0.13,2.59
			L122.72,165.09z"/>
		<path class="st12" d="M133.16,161.61c0.1-0.49,0.22-1,0.33-1.5c0.43-1.72,0.95-3.54,1.56-5.42c1.38-4.23,3.11-8.4,5.03-12.28
			c3.78-7.63,8.32-14.13,12.38-17.66c-0.33,0.08-0.68,0.2-1.03,0.34c-0.1,0.04-0.17,0.07-0.28,0.14
			c-3.76,1.74-8.34,7.04-12.49,14.02c-2.75,4.62-5.3,9.95-7.31,15.48c-0.32,0.89-0.62,1.76-0.91,2.66c-0.5,1.53-0.93,3-1.3,4.43
			c-0.23,0.86-0.42,1.7-0.6,2.52L133.16,161.61z"/>
	</g>
</g>
<g id="Text">
</g>
<g id="Safe_Area" class="st0">
	<circle class="st13" cx="126" cy="126" r="54"/>
</g>
</svg>
