<?xml version="1.0" encoding="utf-8"?>
<!-- Generator: Adobe Illustrator 23.0.2, SVG Export Plug-In . SVG Version: 6.00 Build 0)  -->
<svg version="1.1" xmlns="http://www.w3.org/2000/svg" xmlns:xlink="http://www.w3.org/1999/xlink" x="0px" y="0px"
	 viewBox="0 0 252 252" style="enable-background:new 0 0 252 252;" xml:space="preserve">
<style type="text/css">
	.st0{display:none;}
	.st1{display:inline;fill:#FFFFFF;stroke:#252723;stroke-miterlimit:10;}
	.st2{fill:#FFFFFF;}
	.st3{fill:#F0CDB0;}
	.st4{clip-path:url(#SVGID_2_);fill:#A68042;}
	.st5{clip-path:url(#SVGID_2_);fill:#BE914B;}
	.st6{clip-path:url(#SVGID_2_);fill:#634E2A;}
	.st7{display:inline;fill:none;stroke:#252723;stroke-miterlimit:10;}
</style>
<g id="Bleed" class="st0">
	<circle class="st1" cx="126" cy="126" r="72"/>
</g>
<g id="Background">
</g>
<g id="Image">
	<circle class="st2" cx="126" cy="126" r="57.66"/>
	<circle class="st3" cx="126" cy="126" r="50.01"/>
	<circle class="st2" cx="126" cy="126" r="40.72"/>
	<circle class="st3" cx="126" cy="126" r="36"/>
</g>
<g id="Text">
	<g>
		<path class="st2" d="M102.18,90.91c0.04-0.27,0.29-0.45,0.56-0.42c0.53,0.08,1.36,0.05,1.93-0.31c0.41-0.25,0.7-0.59,0.84-0.91
			c0.14-0.33,0.12-0.59,0-0.8c-0.06-0.11-0.13-0.17-0.23-0.22c-0.1-0.05-0.22-0.09-0.39-0.1c-0.33-0.01-0.81,0.09-1.35,0.29
			l-0.02,0.01c-0.43,0.16-0.84,0.27-1.24,0.31c-0.4,0.04-0.79,0-1.14-0.18c-0.24-0.12-0.44-0.31-0.59-0.56
			c-0.29-0.49-0.27-1.08-0.06-1.58c0.22-0.51,0.62-0.96,1.15-1.28c0.78-0.47,1.59-0.44,2.17-0.42c0.27,0.02,0.48,0.24,0.46,0.51
			c0,0.27-0.23,0.48-0.5,0.47c-0.58-0.03-1.13-0.03-1.62,0.27c-0.37,0.22-0.62,0.53-0.75,0.83c-0.12,0.3-0.1,0.53,0,0.7
			c0.06,0.1,0.11,0.15,0.19,0.19c0.08,0.04,0.2,0.07,0.35,0.08c0.3,0.02,0.74-0.07,1.23-0.25l0.02-0.01
			c0.46-0.17,0.91-0.29,1.33-0.33c0.43-0.04,0.85,0,1.22,0.19c0.24,0.12,0.46,0.32,0.61,0.57c0.31,0.52,0.29,1.14,0.06,1.68
			c-0.22,0.53-0.65,1.02-1.23,1.37c-0.88,0.52-1.89,0.53-2.57,0.44C102.34,91.42,102.15,91.17,102.18,90.91z"/>
		<path class="st2" d="M107.19,87.18c-0.49-1.19,0.02-2.58,1.21-3.09c1.14-0.48,2.4-0.01,2.97,1.14c0,0.01,0.01,0.03,0.02,0.04
			s0.03,0.06,0.02,0.08c0.06,0.22-0.06,0.44-0.31,0.54l-2.78,1.17c0.13,0.18,0.32,0.37,0.54,0.45c0.27,0.13,0.69,0.14,1.01,0.04
			c0.33-0.11,0.67-0.34,0.82-0.6c0.1-0.27,0.47-0.4,0.65-0.3c0.17,0.08,0.36,0.3,0.24,0.57c-0.26,0.58-0.7,0.98-1.32,1.24
			C109.05,88.96,107.7,88.36,107.19,87.18z M107.97,86.35l2.48-1.04c-0.23-0.31-0.9-0.64-1.69-0.38
			C108.03,85.27,107.88,85.96,107.97,86.35z"/>
		<path class="st2" d="M112.28,80.68c0.28-0.09,0.58,0.07,0.66,0.34l1.66,5.36c0.08,0.27-0.07,0.57-0.35,0.66
			c-0.27,0.08-0.57-0.07-0.65-0.34l-1.66-5.35C111.85,81.06,112,80.76,112.28,80.68z"/>
		<path class="st2" d="M116.18,81.29l0.03,0.13l0.28-0.06c0.28-0.07,0.56,0.1,0.63,0.39c0.07,0.28-0.11,0.56-0.39,0.63l-0.28,0.07
			l0.77,3.27c0.07,0.28-0.1,0.56-0.39,0.63c-0.29,0.07-0.56-0.11-0.63-0.39l-0.77-3.27l-0.24,0.06c-0.29,0.07-0.57-0.11-0.64-0.39
			c-0.07-0.29,0.11-0.56,0.4-0.63l0.24-0.06l-0.03-0.13c-0.08-0.34-0.11-0.65-0.04-0.95c0.06-0.31,0.27-0.58,0.53-0.73
			c0.17-0.1,0.34-0.16,0.54-0.21c0.28-0.07,0.56,0.11,0.63,0.39c0.07,0.29-0.11,0.57-0.39,0.64c-0.12,0.03-0.2,0.06-0.23,0.08
			c-0.04,0.02-0.04,0.03-0.05,0.04C116.14,80.8,116.1,80.94,116.18,81.29z"/>
		<path class="st2" d="M121.29,82.62c-0.02-0.31,0.21-0.59,0.52-0.61l1.78-0.14c0.3-0.02,0.58,0.21,0.6,0.52
			c0.02,0.3-0.21,0.58-0.52,0.6l-1.78,0.14C121.59,83.16,121.32,82.92,121.29,82.62z"/>
		<path class="st2" d="M128.42,81.84c0.24-1.87,1.99-3.19,3.88-2.97c0.83,0.1,1.55,0.47,2.09,1c0.2,0.22,0.2,0.55,0,0.77
			c-0.22,0.21-0.57,0.21-0.77,0.01c-0.37-0.39-0.87-0.63-1.46-0.71c-0.65-0.08-1.29,0.11-1.78,0.47c-0.48,0.38-0.81,0.91-0.89,1.56
			c-0.08,0.64,0.11,1.26,0.49,1.73c0.39,0.47,0.96,0.81,1.62,0.89c0.58,0.07,1.12-0.04,1.58-0.33c0.24-0.13,0.58-0.05,0.74,0.2
			c0.14,0.26,0.06,0.59-0.19,0.74c-0.65,0.39-1.44,0.57-2.27,0.47C129.58,85.43,128.2,83.72,128.42,81.84z"/>
		<path class="st2" d="M135.72,85.72c-0.28-0.51-0.36-1.15-0.18-1.79c0.18-0.62,0.57-1.09,1.08-1.42c0.53-0.31,1.14-0.43,1.77-0.25
			c0.6,0.17,1.08,0.59,1.33,1.13c0.29,0.55,0.36,1.16,0.19,1.78c-0.18,0.64-0.57,1.14-1.09,1.43c-0.5,0.32-1.12,0.43-1.72,0.26
			C136.46,86.68,136.01,86.27,135.72,85.72z M136.54,84.21c-0.11,0.39-0.08,0.75,0.06,1.06c0.17,0.28,0.43,0.49,0.78,0.59
			c0.32,0.09,0.65,0.05,0.94-0.1c0.3-0.19,0.52-0.48,0.63-0.87c0.11-0.38,0.07-0.74-0.09-1.05c-0.17-0.27-0.42-0.5-0.74-0.59
			c-0.35-0.1-0.69-0.04-0.98,0.1C136.86,83.54,136.64,83.84,136.54,84.21z"/>
		<path class="st2" d="M145.34,86.98l-0.91,2.08c-0.11,0.25-0.4,0.37-0.66,0.26c-0.24-0.11-0.37-0.41-0.26-0.66l0.91-2.08
			c0.21-0.49-0.02-1.06-0.52-1.28c-0.49-0.21-1.04,0.01-1.26,0.5l-0.91,2.08c-0.01,0.03-0.02,0.05-0.06,0.08
			c-0.14,0.19-0.4,0.27-0.63,0.17c-0.26-0.11-0.37-0.41-0.26-0.66l0.92-2.08l0.59-1.35c0.11-0.25,0.4-0.37,0.66-0.26
			c0.18,0.08,0.3,0.26,0.31,0.46c0.33-0.05,0.7-0.01,1.04,0.14C145.32,84.82,145.77,86,145.34,86.98z"/>
		<path class="st2" d="M149.67,87.76c-0.14,0.25-0.48,0.33-0.72,0.18l-0.21-0.12l-1.34,2.29c0.25,0.15,0.33,0.47,0.18,0.72
			c-0.15,0.25-0.46,0.34-0.71,0.19c-0.5-0.29-0.67-0.94-0.38-1.44l1.34-2.29l-0.24-0.14c-0.25-0.15-0.33-0.47-0.19-0.71
			c0.15-0.25,0.46-0.34,0.72-0.19l0.24,0.14l0.69-1.19c0.15-0.25,0.47-0.33,0.72-0.18c0.25,0.15,0.34,0.46,0.19,0.71l-0.7,1.19
			l0.21,0.12C149.71,87.18,149.81,87.5,149.67,87.76z"/>
		<path class="st2" d="M153.1,90.05c-0.15,0.22-0.47,0.29-0.7,0.13c-0.18-0.13-0.37-0.19-0.57-0.18c-0.21-0.01-0.42,0.04-0.62,0.12
			c-0.36,0.12-0.66,0.35-0.77,0.43l-1.03,1.48c-0.16,0.23-0.48,0.28-0.71,0.12c-0.23-0.16-0.29-0.47-0.13-0.7l2.13-3.08
			c0.16-0.23,0.47-0.28,0.7-0.12c0.23,0.16,0.3,0.48,0.15,0.7l-0.04,0.05c0.08-0.02,0.19-0.04,0.27-0.04
			c0.38,0.01,0.81,0.1,1.19,0.38C153.2,89.52,153.25,89.82,153.1,90.05z"/>
		<path class="st2" d="M152.13,93.81c-0.03-0.58,0.17-1.19,0.61-1.69c0.43-0.49,0.98-0.74,1.59-0.82c0.62-0.05,1.21,0.11,1.7,0.54
			c0.47,0.41,0.72,1,0.71,1.59c0.02,0.62-0.17,1.2-0.6,1.69c-0.44,0.5-1.01,0.78-1.6,0.82c-0.59,0.08-1.2-0.09-1.67-0.51
			C152.39,95,152.16,94.43,152.13,93.81z M153.52,92.81c-0.27,0.31-0.4,0.64-0.41,0.98c0.03,0.33,0.18,0.63,0.45,0.87
			c0.25,0.22,0.56,0.33,0.89,0.31c0.35-0.04,0.67-0.2,0.94-0.51c0.26-0.29,0.38-0.64,0.38-0.99c-0.04-0.31-0.17-0.63-0.42-0.85
			c-0.27-0.24-0.61-0.33-0.92-0.33C154.1,92.34,153.78,92.51,153.52,92.81z"/>
		<path class="st2" d="M160.85,93.89c0.2,0.21,0.19,0.55-0.02,0.75l-4.1,3.82c-0.21,0.19-0.54,0.18-0.75-0.03
			c-0.19-0.21-0.18-0.54,0.03-0.74l4.1-3.83C160.32,93.66,160.65,93.68,160.85,93.89z"/>
	</g>
	<g>
		<path d="M101.34,90.96c0.04-0.27,0.29-0.45,0.56-0.42c0.54,0.08,1.36,0.04,1.93-0.32c0.41-0.25,0.7-0.59,0.83-0.92
			c0.13-0.33,0.12-0.59-0.01-0.8c-0.06-0.11-0.13-0.16-0.23-0.22c-0.1-0.05-0.22-0.09-0.39-0.09c-0.33-0.01-0.81,0.09-1.34,0.3
			l-0.02,0.01c-0.43,0.16-0.84,0.28-1.24,0.32c-0.4,0.04-0.79,0-1.14-0.17c-0.24-0.12-0.44-0.31-0.59-0.55
			c-0.3-0.49-0.28-1.08-0.07-1.58c0.21-0.51,0.62-0.96,1.14-1.29c0.78-0.47,1.59-0.44,2.16-0.43c0.27,0.02,0.48,0.24,0.46,0.51
			c0,0.27-0.23,0.48-0.5,0.47c-0.58-0.02-1.13-0.02-1.62,0.28c-0.37,0.22-0.62,0.53-0.74,0.83c-0.12,0.29-0.1,0.53,0,0.7
			c0.06,0.1,0.12,0.15,0.19,0.19c0.08,0.04,0.2,0.07,0.35,0.08c0.3,0.02,0.74-0.08,1.23-0.26l0.02-0.01
			c0.46-0.17,0.91-0.3,1.33-0.34c0.43-0.04,0.85-0.01,1.22,0.18c0.24,0.12,0.46,0.32,0.62,0.57c0.32,0.52,0.3,1.14,0.07,1.68
			c-0.22,0.53-0.64,1.03-1.22,1.38c-0.88,0.53-1.89,0.54-2.57,0.45C101.5,91.47,101.31,91.22,101.34,90.96z"/>
		<path d="M106.33,87.2c-0.5-1.19,0-2.58,1.2-3.09c1.14-0.49,2.4-0.02,2.97,1.13c0,0.01,0.01,0.03,0.02,0.04
			c0.01,0.02,0.03,0.06,0.03,0.08c0.06,0.22-0.06,0.44-0.3,0.54l-2.78,1.19c0.13,0.18,0.32,0.37,0.54,0.45
			c0.27,0.13,0.69,0.14,1.01,0.03c0.33-0.11,0.67-0.35,0.81-0.61c0.1-0.27,0.47-0.4,0.64-0.31c0.17,0.07,0.37,0.3,0.24,0.57
			c-0.26,0.58-0.7,0.98-1.32,1.25C108.2,88.97,106.85,88.38,106.33,87.2z M107.1,86.36l2.47-1.06c-0.24-0.31-0.9-0.64-1.69-0.37
			C107.16,85.29,107.02,85.98,107.1,86.36z"/>
		<path d="M111.38,80.67c0.28-0.09,0.58,0.07,0.67,0.34l1.69,5.35c0.09,0.27-0.07,0.57-0.35,0.66c-0.27,0.09-0.57-0.07-0.66-0.34
			l-1.69-5.35C110.95,81.05,111.11,80.75,111.38,80.67z"/>
		<path d="M115.29,81.26l0.03,0.13l0.28-0.07c0.28-0.07,0.56,0.1,0.63,0.38c0.07,0.28-0.11,0.56-0.39,0.63l-0.28,0.07l0.79,3.26
			c0.07,0.28-0.1,0.56-0.39,0.63s-0.56-0.11-0.63-0.39l-0.79-3.26l-0.24,0.06c-0.29,0.07-0.57-0.11-0.64-0.38
			c-0.07-0.29,0.11-0.56,0.39-0.63l0.24-0.06l-0.03-0.13c-0.08-0.34-0.12-0.65-0.04-0.95c0.06-0.31,0.27-0.58,0.53-0.73
			c0.17-0.1,0.34-0.16,0.54-0.21c0.28-0.07,0.56,0.11,0.63,0.39c0.07,0.29-0.11,0.57-0.38,0.64c-0.12,0.03-0.2,0.06-0.23,0.09
			c-0.04,0.02-0.04,0.03-0.05,0.04C115.25,80.77,115.2,80.92,115.29,81.26z"/>
		<path d="M120.41,82.56c-0.03-0.31,0.21-0.59,0.51-0.61l1.78-0.15c0.3-0.03,0.58,0.21,0.61,0.52c0.03,0.3-0.21,0.58-0.51,0.61
			l-1.78,0.15C120.71,83.1,120.43,82.87,120.41,82.56z"/>
		<path d="M127.53,81.74c0.23-1.87,1.97-3.21,3.86-2.99c0.83,0.1,1.55,0.46,2.09,0.99c0.2,0.21,0.2,0.55,0.01,0.77
			c-0.22,0.21-0.57,0.21-0.77,0.02c-0.38-0.39-0.87-0.63-1.46-0.7c-0.65-0.08-1.29,0.12-1.78,0.48c-0.48,0.38-0.81,0.92-0.88,1.56
			c-0.08,0.64,0.12,1.26,0.5,1.72c0.39,0.47,0.97,0.8,1.62,0.88c0.58,0.07,1.12-0.05,1.58-0.34c0.24-0.14,0.58-0.06,0.74,0.19
			c0.14,0.26,0.06,0.59-0.18,0.75c-0.65,0.39-1.44,0.58-2.27,0.48C128.71,85.33,127.32,83.62,127.53,81.74z"/>
		<path d="M134.85,85.58c-0.28-0.51-0.36-1.15-0.19-1.79c0.17-0.62,0.56-1.1,1.07-1.43c0.53-0.32,1.14-0.43,1.77-0.26
			c0.61,0.17,1.08,0.58,1.34,1.12c0.29,0.55,0.37,1.16,0.2,1.78c-0.18,0.64-0.56,1.15-1.08,1.44c-0.5,0.33-1.12,0.44-1.72,0.27
			C135.6,86.54,135.14,86.13,134.85,85.58z M135.66,84.07c-0.11,0.39-0.08,0.75,0.06,1.06c0.17,0.28,0.44,0.49,0.79,0.58
			c0.32,0.09,0.65,0.05,0.94-0.11c0.3-0.19,0.52-0.48,0.62-0.87c0.1-0.38,0.07-0.74-0.09-1.05c-0.17-0.26-0.43-0.49-0.75-0.58
			c-0.35-0.1-0.69-0.03-0.97,0.11C135.98,83.4,135.77,83.7,135.66,84.07z"/>
		<path d="M144.48,86.8l-0.9,2.08c-0.11,0.25-0.4,0.38-0.65,0.27c-0.25-0.1-0.37-0.41-0.26-0.66l0.9-2.08
			c0.21-0.49-0.03-1.06-0.53-1.27c-0.49-0.21-1.04,0.01-1.25,0.5l-0.9,2.08c-0.01,0.03-0.02,0.05-0.05,0.08
			c-0.13,0.19-0.4,0.27-0.62,0.17c-0.26-0.11-0.37-0.41-0.26-0.66l0.9-2.09l0.59-1.35c0.11-0.25,0.4-0.38,0.66-0.26
			c0.18,0.08,0.3,0.26,0.31,0.46c0.33-0.05,0.7-0.02,1.04,0.13C144.45,84.63,144.9,85.81,144.48,86.8z"/>
		<path d="M148.81,87.54c-0.14,0.25-0.47,0.33-0.72,0.19l-0.21-0.12l-1.32,2.3c0.26,0.15,0.33,0.47,0.19,0.72
			c-0.15,0.26-0.46,0.34-0.71,0.19c-0.5-0.29-0.68-0.94-0.39-1.44l1.32-2.3l-0.24-0.14c-0.25-0.15-0.33-0.47-0.19-0.71
			c0.15-0.26,0.46-0.34,0.71-0.19l0.24,0.14l0.69-1.19c0.15-0.26,0.47-0.33,0.72-0.19s0.34,0.46,0.19,0.71l-0.69,1.19l0.21,0.12
			C148.86,86.97,148.96,87.29,148.81,87.54z"/>
		<path d="M152.25,89.82c-0.15,0.22-0.46,0.29-0.7,0.13c-0.18-0.12-0.37-0.18-0.57-0.17c-0.21-0.01-0.42,0.04-0.62,0.13
			c-0.36,0.12-0.66,0.36-0.77,0.44l-1.02,1.49c-0.16,0.23-0.48,0.28-0.72,0.12c-0.23-0.16-0.29-0.47-0.13-0.7l2.12-3.09
			c0.16-0.23,0.47-0.28,0.7-0.12c0.23,0.16,0.31,0.48,0.15,0.7l-0.04,0.05c0.08-0.02,0.19-0.04,0.27-0.04c0.38,0,0.81,0.09,1.2,0.37
			C152.35,89.29,152.41,89.59,152.25,89.82z"/>
		<path d="M151.31,93.58c-0.03-0.58,0.17-1.19,0.6-1.69c0.42-0.49,0.98-0.75,1.59-0.82c0.62-0.06,1.21,0.1,1.71,0.53
			c0.47,0.41,0.72,0.99,0.72,1.59c0.02,0.62-0.17,1.2-0.59,1.69c-0.44,0.5-1,0.79-1.6,0.82c-0.59,0.08-1.2-0.09-1.67-0.5
			C151.57,94.77,151.34,94.2,151.31,93.58z M152.7,92.57c-0.27,0.31-0.39,0.64-0.4,0.98c0.03,0.33,0.18,0.63,0.46,0.86
			c0.25,0.22,0.56,0.33,0.89,0.31c0.35-0.04,0.67-0.21,0.94-0.52c0.26-0.29,0.38-0.64,0.37-0.99c-0.04-0.31-0.17-0.63-0.42-0.85
			c-0.27-0.24-0.61-0.33-0.92-0.33C153.27,92.1,152.95,92.27,152.7,92.57z"/>
		<path d="M160.03,93.61c0.2,0.21,0.19,0.55-0.02,0.74l-4.08,3.85c-0.21,0.2-0.54,0.19-0.75-0.03c-0.2-0.21-0.19-0.54,0.02-0.74
			l4.08-3.85C159.49,93.39,159.83,93.4,160.03,93.61z"/>
	</g>
	<g>
		<defs>
			<rect id="SVGID_1_" x="99.08" y="104.1" width="71.91" height="71.91"/>
		</defs>
		<clipPath id="SVGID_2_">
			<use xlink:href="#SVGID_1_"  style="overflow:visible;"/>
		</clipPath>
		<path class="st4" d="M148.88,119.01c2.59,7.98-5.84,17.87-18.84,22.1c-13,4.22-25.64,1.18-28.23-6.8
			c-2.59-7.98,5.84-17.87,18.84-22.1C133.65,107.99,146.29,111.03,148.88,119.01"/>
		<path class="st5" d="M143.28,114.25c2.83,6.13-3.75,15.23-14.69,20.32c-10.94,5.09-22.1,4.25-24.93-1.89
			c-2.83-6.13,3.75-15.23,14.69-20.32C129.29,107.27,140.45,108.11,143.28,114.25"/>
		<path class="st6" d="M143.9,113.71c0.25,0.78-1.94,2.2-4.9,3.16c-2.96,0.96-5.57,1.11-5.82,0.32c-0.25-0.78,1.94-2.2,4.9-3.16
			C141.04,113.07,143.64,112.93,143.9,113.71"/>
		<path class="st6" d="M121.38,116.29c0.25,0.78-1.94,2.2-4.9,3.16c-2.96,0.96-5.57,1.11-5.82,0.32c-0.25-0.78,1.94-2.2,4.9-3.16
			C118.52,115.64,121.12,115.5,121.38,116.29"/>
		<path class="st6" d="M127.73,121.82c0.5,1.55-1.03,3.43-3.42,4.21c-2.39,0.78-4.74,0.15-5.24-1.39c-0.5-1.55,1.03-3.43,3.42-4.21
			C124.88,119.65,127.23,120.27,127.73,121.82"/>
		<path class="st6" d="M146.97,125.64c0.59,1.81-1.7,4.17-5.11,5.28c-3.41,1.11-6.65,0.54-7.23-1.27c-0.59-1.81,1.7-4.17,5.11-5.28
			C143.14,123.27,146.38,123.83,146.97,125.64"/>
		<path class="st6" d="M128.69,136.01c0.51,1.57-2.51,3.95-6.74,5.33c-4.23,1.37-8.08,1.22-8.58-0.35
			c-0.51-1.57,2.51-3.96,6.74-5.33C124.34,134.28,128.18,134.44,128.69,136.01"/>
		<path class="st6" d="M112.55,129.24c0.25,0.78-1.94,2.2-4.9,3.16c-2.96,0.96-5.57,1.11-5.82,0.32c-0.25-0.78,1.94-2.2,4.9-3.16
			C109.69,128.6,112.3,128.46,112.55,129.24"/>
	</g>
</g>
<g id="Safe_Area" class="st0">
	<circle class="st7" cx="126" cy="126" r="54"/>
</g>
</svg>
