<?xml version="1.0" encoding="utf-8"?>
<!-- Generator: Adobe Illustrator 23.0.2, SVG Export Plug-In . SVG Version: 6.00 Build 0)  -->
<svg version="1.1" xmlns="http://www.w3.org/2000/svg" xmlns:xlink="http://www.w3.org/1999/xlink" x="0px" y="0px"
	 viewBox="0 0 252 252" style="enable-background:new 0 0 252 252;" xml:space="preserve">
<style type="text/css">
	.st0{display:none;}
	.st1{display:inline;fill:#FFFFFF;stroke:#252723;stroke-miterlimit:10;}
	.st2{fill:#FFFFFF;}
	.st3{fill:#C0C4D5;}
	.st4{clip-path:url(#SVGID_2_);fill:#212020;}
	.st5{clip-path:url(#SVGID_2_);fill:#FFFFFF;}
	.st6{display:inline;fill:none;stroke:#252723;stroke-miterlimit:10;}
</style>
<g id="Bleed" class="st0">
	<circle class="st1" cx="126" cy="126" r="72"/>
</g>
<g id="Background">
</g>
<g id="Image">
	<circle class="st2" cx="126" cy="126" r="57.66"/>
	<circle class="st3" cx="126" cy="126" r="50.01"/>
	<circle class="st2" cx="126" cy="126" r="45.64"/>
	<ellipse transform="matrix(0.866 -0.5 0.5 0.866 -48.349 80.4783)" class="st3" cx="126" cy="130.46" rx="42.91" ry="45.57"/>
	<ellipse transform="matrix(0.998 -0.0628 0.0628 0.998 -7.4886 8.1515)" class="st2" cx="126" cy="123.27" rx="36.28" ry="43.57"/>
	<ellipse class="st3" cx="126" cy="148.67" rx="29.3" ry="20.32"/>
	
		<ellipse transform="matrix(0.0269 -0.9996 0.9996 0.0269 -14.3976 259.3214)" class="st2" cx="126" cy="137.06" rx="23.85" ry="23.49"/>
	<g>
		<defs>
			<rect id="SVGID_1_" x="101.9" y="94.05" width="48.2" height="58.6"/>
		</defs>
		<clipPath id="SVGID_2_">
			<use xlink:href="#SVGID_1_"  style="overflow:visible;"/>
		</clipPath>
		<path class="st4" d="M142.37,124.2c0,13.4-7.28,24.26-16.25,24.26s-16.25-10.86-16.25-24.26c0-13.4,7.28-24.26,16.25-24.26
			S142.37,110.8,142.37,124.2"/>
		<path class="st5" d="M138.86,123.83c0,11.25-6.09,20.38-13.61,20.38c-7.52,0-13.61-9.12-13.61-20.38s6.09-20.38,13.61-20.38
			C132.77,103.46,138.86,112.58,138.86,123.83"/>
		<path class="st4" d="M117.28,104.38c0.64,1.79-2.27,4.58-6.49,6.23c-4.22,1.65-8.16,1.52-8.8-0.27c-0.64-1.79,2.27-4.58,6.49-6.23
			C112.7,102.47,116.64,102.59,117.28,104.38"/>
		<path class="st4" d="M134.72,103.12c-0.64,1.79,2.27,4.58,6.49,6.23c4.22,1.65,8.16,1.52,8.8-0.27c0.64-1.79-2.27-4.58-6.49-6.23
			C139.3,101.2,135.36,101.32,134.72,103.12"/>
		<path class="st4" d="M117.12,116.81c1.58,2.92,0.61,6.62-2.17,8.28c-2.79,1.66-6.33,0.64-7.91-2.28
			c-1.58-2.92-0.61-6.62,2.18-8.28C111.99,112.87,115.53,113.89,117.12,116.81"/>
		<path class="st5" d="M116.58,119.5c0.77,1.43,0.3,3.24-1.06,4.05c-1.36,0.81-3.1,0.31-3.87-1.11c-0.78-1.43-0.3-3.24,1.06-4.05
			C114.07,117.58,115.8,118.08,116.58,119.5"/>
		<path class="st4" d="M143.47,116.81c1.58,2.92,0.61,6.62-2.18,8.28c-2.78,1.66-6.33,0.64-7.91-2.28
			c-1.58-2.92-0.61-6.62,2.18-8.28C138.35,112.87,141.89,113.89,143.47,116.81"/>
		<path class="st5" d="M142.93,119.5c0.77,1.43,0.3,3.24-1.06,4.05c-1.36,0.81-3.1,0.31-3.87-1.11c-0.77-1.43-0.3-3.24,1.07-4.05
			C140.42,117.58,142.16,118.08,142.93,119.5"/>
		<path class="st4" d="M120.55,94.98l2.69,4.75c0.56,0.99,0.11,2.28-0.93,2.66l-1.98,0.72c-1.04,0.38-2.16-0.34-2.3-1.48l-0.71-5.47
			C117.06,94.18,119.58,93.26,120.55,94.98"/>
		<path class="st4" d="M134.99,96.27l-1.11,5.4c-0.23,1.13-1.4,1.75-2.41,1.29l-1.92-0.88c-1.01-0.46-1.36-1.78-0.73-2.73l3.03-4.52
			C132.95,93.21,135.39,94.32,134.99,96.27"/>
		<path class="st4" d="M132.84,150.9l-1.24-4.62c-0.16-0.59-0.8-0.86-1.31-0.56l-1.96,1.18c-0.51,0.31-0.6,1.03-0.19,1.46l3.2,3.44
			C131.98,152.5,133.09,151.83,132.84,150.9"/>
		<path class="st4" d="M128.07,151.88l0.67-4.05c0.1-0.61-0.39-1.16-0.98-1.09l-2.17,0.25c-0.59,0.07-0.95,0.71-0.73,1.29l1.5,3.8
			C126.7,152.94,127.92,152.8,128.07,151.88"/>
		<path class="st4" d="M118.43,150.78l1.24-4.62c0.16-0.59,0.8-0.86,1.31-0.56l1.96,1.18c0.51,0.31,0.6,1.03,0.19,1.46l-3.2,3.44
			C119.28,152.38,118.18,151.71,118.43,150.78"/>
		<path class="st4" d="M123.09,151.29l-0.68-3.63c-0.12-0.62,0.38-1.18,0.98-1.11l2.11,0.25c0.6,0.07,0.96,0.73,0.72,1.31
			l-1.43,3.39C124.43,152.32,123.26,152.19,123.09,151.29"/>
		<path class="st4" d="M129.5,137.87c0,1.83-2.01,3.31-4.49,3.31c-2.48,0-4.49-1.48-4.49-3.31c0-1.83,2.01-3.31,4.49-3.31
			C127.49,134.57,129.5,136.05,129.5,137.87"/>
	</g>
</g>
<g id="Text">
</g>
<g id="Safe_Area" class="st0">
	<circle class="st6" cx="126" cy="126" r="54"/>
</g>
</svg>
