<?xml version="1.0" encoding="utf-8"?>
<!-- Generator: Adobe Illustrator 23.0.2, SVG Export Plug-In . SVG Version: 6.00 Build 0)  -->
<svg version="1.1" xmlns="http://www.w3.org/2000/svg" xmlns:xlink="http://www.w3.org/1999/xlink" x="0px" y="0px"
	 viewBox="0 0 252 252" style="enable-background:new 0 0 252 252;" xml:space="preserve">
<style type="text/css">
	.st0{display:none;}
	.st1{display:inline;fill:#FFFFFF;stroke:#252723;stroke-miterlimit:10;}
	.st2{fill:#FFFFFF;}
	.st3{fill:#E4DDD9;}
	.st4{fill:#212020;}
	.st5{clip-path:url(#SVGID_2_);fill:#212020;}
	.st6{fill:#E2E2E3;}
	.st7{display:inline;fill:none;stroke:#252723;stroke-miterlimit:10;}
</style>
<g id="Bleed" class="st0">
	<circle class="st1" cx="126" cy="126" r="72"/>
</g>
<g id="Background">
</g>
<g id="Image">
	<circle class="st2" cx="126" cy="126" r="57.66"/>
	<circle class="st3" cx="126" cy="126" r="50.01"/>
	<circle class="st2" cx="126" cy="126" r="40.72"/>
	<circle class="st3" cx="126" cy="126" r="36"/>
	<g>
		<polygon class="st4" points="136.6,105.39 119.19,121.87 123.86,126.42 141.28,109.94 		"/>
		<polygon class="st4" points="109.13,111.01 128.53,125.2 132.58,120.11 113.19,105.92 		"/>
		<g>
			<defs>
				<rect id="SVGID_1_" x="100.64" y="105.39" width="50.72" height="39.37"/>
			</defs>
			<clipPath id="SVGID_2_">
				<use xlink:href="#SVGID_1_"  style="overflow:visible;"/>
			</clipPath>
			<path class="st5" d="M114.63,107.49c3.05,1.27,2.87,8.11-0.39,15.29c-3.26,7.18-8.38,11.97-11.43,10.7
				c-3.05-1.27-2.87-8.11,0.39-15.29C106.47,111.02,111.59,106.23,114.63,107.49"/>
			<path class="st5" d="M136.81,108.57c3.01-1.36,8.25,3.28,11.7,10.36c3.45,7.08,3.81,13.92,0.79,15.27
				c-3.01,1.36-8.25-3.28-11.7-10.36C134.16,116.77,133.8,109.93,136.81,108.57"/>
		</g>
		
			<rect x="112.49" y="115.36" transform="matrix(0.9994 -0.0349 0.0349 0.9994 -4.4502 4.5001)" class="st4" width="28.57" height="28.91"/>
		
			<rect x="128.73" y="117.66" transform="matrix(0.9994 -0.0349 0.0349 0.9994 -4.0908 4.7164)" class="st6" width="8.87" height="3.96"/>
	</g>
</g>
<g id="Text">
	<g>
		<path class="st2" d="M94,95.4c-1.28-1.41-1.14-3.6,0.29-4.89c0.6-0.54,1.35-0.86,2.1-0.91c0.3-0.03,0.57,0.2,0.59,0.5
			c0.02,0.29-0.21,0.56-0.51,0.58c-0.51,0.04-1.03,0.25-1.46,0.63c-0.51,0.46-0.78,1.05-0.8,1.66c-0.04,0.62,0.15,1.22,0.58,1.7
			c0.42,0.46,1.01,0.71,1.63,0.73c0.61,0.04,1.22-0.18,1.73-0.64c0.35-0.32,0.59-0.72,0.72-1.14l-0.88-0.96L97,93.58
			c-0.22,0.2-0.57,0.18-0.76-0.04c-0.2-0.23-0.17-0.56,0.04-0.76l1.39-1.26c0.01-0.01,0.01-0.01,0.01-0.01
			c0.01-0.01,0.01-0.01,0.01-0.01c0.22-0.2,0.56-0.2,0.77,0.02l1.41,1.55c0.04,0.05,0.06,0.09,0.09,0.14
			c0.01,0.02,0.01,0.03,0.02,0.05l0.01,0.01c0.04,0.08,0.04,0.18,0.02,0.29c-0.13,0.75-0.5,1.45-1.1,2
			C97.46,96.87,95.28,96.81,94,95.4z"/>
		<path class="st2" d="M101.95,92.2c-0.57-0.13-1.1-0.48-1.46-1.04c-0.35-0.54-0.45-1.15-0.36-1.75c0.11-0.61,0.42-1.14,0.97-1.5
			c0.53-0.34,1.15-0.42,1.72-0.26c0.61,0.15,1.11,0.49,1.47,1.03c0.36,0.56,0.49,1.18,0.36,1.76c-0.08,0.59-0.41,1.13-0.93,1.47
			C103.17,92.27,102.56,92.34,101.95,92.2z M101.36,90.59c0.22,0.34,0.51,0.55,0.84,0.66c0.32,0.06,0.65-0.01,0.96-0.2
			c0.28-0.18,0.47-0.45,0.54-0.77c0.05-0.35-0.02-0.7-0.24-1.05c-0.21-0.33-0.51-0.54-0.85-0.62c-0.31-0.04-0.65-0.01-0.93,0.18
			c-0.3,0.2-0.48,0.5-0.57,0.8C101.06,89.91,101.14,90.26,101.36,90.59z"/>
		<path class="st2" d="M106.92,89.16c-0.55-0.21-1.02-0.63-1.3-1.24c-0.27-0.58-0.29-1.2-0.11-1.78c0.2-0.59,0.58-1.07,1.17-1.35
			c0.57-0.27,1.2-0.26,1.74-0.02c0.58,0.23,1.03,0.64,1.31,1.22c0.28,0.6,0.32,1.24,0.11,1.8c-0.16,0.57-0.56,1.06-1.13,1.33
			C108.11,89.4,107.49,89.39,106.92,89.16z M106.55,87.49c0.17,0.37,0.43,0.62,0.74,0.77c0.31,0.11,0.65,0.08,0.97-0.07
			c0.3-0.14,0.52-0.38,0.64-0.69c0.1-0.34,0.08-0.7-0.09-1.07c-0.17-0.35-0.43-0.61-0.75-0.74c-0.3-0.09-0.64-0.1-0.94,0.04
			c-0.33,0.15-0.55,0.42-0.67,0.71C106.35,86.77,106.39,87.14,106.55,87.49z"/>
		<path class="st2" d="M115.99,85.92c0.08,0.26-0.07,0.56-0.34,0.64c-0.25,0.07-0.49-0.04-0.6-0.25c-0.27,0.34-0.66,0.63-1.12,0.76
			c-1.23,0.37-2.52-0.37-2.89-1.6c-0.38-1.25,0.29-2.58,1.52-2.95c0.45-0.13,0.93-0.12,1.33,0.01l-0.52-1.71
			c-0.08-0.26,0.07-0.56,0.35-0.64c0.27-0.08,0.56,0.08,0.64,0.34l1.09,3.6c0,0,0,0,0,0.01L115.99,85.92z M112.86,83.52
			c-0.33,0.1-0.59,0.33-0.74,0.63c-0.16,0.3-0.2,0.66-0.09,1.03c0.1,0.35,0.34,0.63,0.63,0.79c0.3,0.17,0.64,0.21,0.97,0.11
			c0.34-0.1,0.59-0.33,0.74-0.63c0.16-0.3,0.2-0.67,0.09-1.01c-0.11-0.36-0.35-0.65-0.64-0.81
			C113.53,83.47,113.2,83.42,112.86,83.52z"/>
		<path class="st2" d="M126,79.05l0.32,5.6c0.02,0.28-0.22,0.54-0.5,0.55c-0.29,0.02-0.54-0.21-0.55-0.49l-0.23-4l-1.26,1.98
			c-0.1,0.15-0.24,0.23-0.42,0.24l-0.01,0l-0.01,0c-0.17,0.01-0.34-0.06-0.45-0.19l-1.46-1.82l0.23,4c0.02,0.28-0.21,0.54-0.5,0.55
			c-0.28,0.02-0.54-0.21-0.55-0.49l-0.32-5.6c-0.02-0.28,0.21-0.54,0.49-0.55c0.01,0,0.01,0,0.03,0c0.15-0.01,0.33,0.06,0.43,0.19
			l2.04,2.51l1.74-2.73c0.1-0.15,0.25-0.23,0.42-0.24c0,0,0,0,0.01,0C125.72,78.55,125.98,78.77,126,79.05z"/>
		<path class="st2" d="M132.53,83.34l-0.2,1.85c-0.03,0.27-0.28,0.48-0.55,0.45c-0.25-0.03-0.42-0.23-0.45-0.46
			c-0.39,0.22-0.83,0.32-1.3,0.27c-0.64-0.07-1.17-0.39-1.53-0.86c-0.36-0.48-0.54-1.09-0.47-1.73c0.07-0.65,0.37-1.21,0.82-1.59
			c0.45-0.39,1.04-0.61,1.68-0.54c0.47,0.05,0.88,0.26,1.21,0.55c0.08-0.23,0.29-0.39,0.54-0.36c0.27,0.03,0.48,0.28,0.45,0.56
			L132.53,83.34z M131.53,83.23c0.04-0.4-0.06-0.75-0.27-1.01c-0.2-0.28-0.51-0.45-0.84-0.48c-0.34-0.04-0.68,0.06-0.92,0.29
			c-0.25,0.21-0.42,0.54-0.46,0.94c-0.04,0.39,0.05,0.74,0.26,1.01c0.19,0.26,0.5,0.42,0.84,0.46c0.33,0.03,0.67-0.06,0.92-0.28
			C131.31,83.95,131.49,83.62,131.53,83.23z"/>
		<path class="st2" d="M138.31,84.21l-0.54,2.21c-0.07,0.27-0.33,0.44-0.6,0.37c-0.26-0.06-0.44-0.34-0.37-0.61l0.54-2.21
			c0.13-0.52-0.21-1.04-0.73-1.17c-0.52-0.13-1.03,0.19-1.15,0.71l-0.54,2.21c-0.01,0.03-0.01,0.06-0.04,0.09
			c-0.1,0.21-0.35,0.34-0.59,0.28c-0.28-0.07-0.43-0.34-0.37-0.61l0.54-2.21l0.35-1.43c0.07-0.27,0.33-0.44,0.61-0.37
			c0.2,0.05,0.34,0.2,0.38,0.4c0.32-0.11,0.69-0.13,1.05-0.04C137.92,82.08,138.57,83.16,138.31,84.21z"/>
		<path class="st2" d="M143.82,86.7l-0.69,1.73c-0.1,0.26-0.4,0.38-0.66,0.28c-0.23-0.09-0.34-0.33-0.3-0.56
			c-0.43,0.1-0.88,0.09-1.33-0.09c-0.6-0.24-1.02-0.7-1.24-1.24c-0.22-0.56-0.22-1.19,0.02-1.79c0.24-0.61,0.68-1.07,1.22-1.31
			c0.54-0.25,1.16-0.3,1.76-0.06c0.44,0.18,0.78,0.48,1.02,0.86c0.14-0.2,0.38-0.3,0.62-0.2c0.26,0.1,0.38,0.4,0.28,0.66
			L143.82,86.7z M142.89,86.32c0.15-0.37,0.14-0.74,0.02-1.05c-0.12-0.32-0.37-0.57-0.68-0.69c-0.32-0.13-0.66-0.12-0.96,0.03
			c-0.3,0.14-0.55,0.4-0.7,0.77c-0.14,0.36-0.15,0.73-0.03,1.04c0.12,0.3,0.37,0.54,0.68,0.67c0.31,0.12,0.66,0.12,0.96-0.02
			C142.48,86.95,142.74,86.68,142.89,86.32z"/>
		<path class="st2" d="M149.58,89.88l-0.9,1.52c-0.63,1.07-2.04,1.45-3.12,0.8c-0.3-0.18-0.56-0.43-0.74-0.71
			c-0.16-0.22-0.1-0.55,0.15-0.7c0.24-0.16,0.54-0.09,0.71,0.14c0.1,0.16,0.23,0.29,0.4,0.39c0.53,0.31,1.19,0.19,1.59-0.24
			c-0.41,0.03-0.86-0.07-1.27-0.31c-0.54-0.32-0.9-0.85-1.02-1.44c-0.14-0.57-0.06-1.21,0.28-1.78c0.33-0.56,0.86-0.94,1.43-1.12
			c0.57-0.16,1.21-0.1,1.75,0.22c0.43,0.25,0.72,0.6,0.89,0.99c0.16-0.17,0.42-0.21,0.63-0.09c0.25,0.15,0.32,0.45,0.18,0.69
			L149.58,89.88L149.58,89.88z M148.71,89.35c0.19-0.33,0.25-0.72,0.18-1.02c-0.08-0.35-0.26-0.63-0.57-0.81
			c-0.29-0.17-0.63-0.21-0.96-0.09c-0.31,0.08-0.62,0.31-0.82,0.64c-0.2,0.34-0.26,0.73-0.17,1.04c0.07,0.34,0.27,0.61,0.55,0.78
			c0.31,0.18,0.63,0.22,0.98,0.12C148.19,89.93,148.5,89.7,148.71,89.35z"/>
		<path class="st2" d="M151.09,90.86c0.82-1,2.28-1.22,3.29-0.4c0.96,0.77,1.15,2.1,0.41,3.15c0,0.01-0.02,0.02-0.03,0.04
			c-0.01,0.02-0.04,0.05-0.06,0.06c-0.16,0.16-0.42,0.15-0.62-0.01l-2.36-1.89c-0.1,0.2-0.17,0.46-0.14,0.69
			c0.01,0.3,0.2,0.67,0.44,0.9c0.25,0.24,0.62,0.42,0.92,0.43c0.29-0.04,0.57,0.23,0.57,0.42c0.01,0.18-0.09,0.46-0.38,0.48
			c-0.63,0.04-1.19-0.15-1.72-0.57C150.4,93.34,150.29,91.88,151.09,90.86z M152.19,91.15l2.1,1.68c0.16-0.36,0.14-1.1-0.47-1.66
			C153.16,90.69,152.49,90.89,152.19,91.15z"/>
		<path class="st2" d="M159.07,95.46c-0.19,0.19-0.51,0.2-0.71,0c-0.15-0.15-0.33-0.25-0.53-0.28c-0.21-0.05-0.42-0.03-0.63,0.01
			c-0.38,0.05-0.71,0.23-0.84,0.29l-1.28,1.27c-0.2,0.19-0.53,0.19-0.73-0.01c-0.2-0.2-0.19-0.52,0-0.71l2.65-2.64
			c0.2-0.19,0.51-0.19,0.71,0.01c0.2,0.2,0.21,0.52,0.02,0.72l-0.05,0.05c0.09-0.01,0.19-0.01,0.28,0.01
			c0.37,0.07,0.78,0.24,1.11,0.59C159.26,94.96,159.26,95.27,159.07,95.46z"/>
	</g>
	<g>
		<path d="M93.45,96.04c-1.31-1.39-1.21-3.57,0.19-4.9c0.59-0.56,1.33-0.88,2.08-0.95c0.3-0.04,0.57,0.19,0.61,0.49
			c0.03,0.29-0.2,0.57-0.5,0.59c-0.51,0.05-1.03,0.27-1.44,0.66c-0.5,0.47-0.75,1.07-0.77,1.68c-0.03,0.62,0.17,1.22,0.62,1.69
			c0.43,0.46,1.02,0.69,1.64,0.7c0.61,0.02,1.22-0.2,1.72-0.67c0.35-0.33,0.57-0.74,0.7-1.16l-0.89-0.95l-0.99,0.93
			c-0.21,0.2-0.56,0.19-0.76-0.02c-0.21-0.22-0.19-0.56,0.03-0.76l1.36-1.29c0.01-0.01,0.01-0.01,0.01-0.01
			c0.01-0.01,0.01-0.01,0.01-0.01c0.22-0.21,0.56-0.21,0.77,0.01l1.44,1.52c0.05,0.05,0.06,0.09,0.09,0.14
			c0.01,0.02,0.01,0.03,0.02,0.05l0.01,0.01c0.04,0.08,0.05,0.18,0.03,0.29c-0.12,0.75-0.47,1.46-1.06,2.02
			C96.94,97.43,94.76,97.42,93.45,96.04z"/>
		<path d="M101.33,92.67c-0.57-0.11-1.11-0.46-1.49-1.01c-0.36-0.53-0.48-1.14-0.4-1.74c0.1-0.61,0.4-1.15,0.94-1.52
			c0.52-0.35,1.15-0.45,1.72-0.3c0.61,0.14,1.12,0.46,1.49,1c0.38,0.55,0.51,1.17,0.4,1.76c-0.07,0.59-0.38,1.14-0.9,1.49
			C102.55,92.72,101.94,92.8,101.33,92.67z M100.7,91.08c0.23,0.34,0.52,0.54,0.85,0.64c0.33,0.06,0.65-0.02,0.95-0.22
			c0.27-0.19,0.46-0.46,0.52-0.78c0.04-0.35-0.03-0.7-0.26-1.04c-0.22-0.32-0.52-0.53-0.87-0.61c-0.31-0.04-0.65,0.01-0.93,0.2
			c-0.3,0.2-0.47,0.51-0.55,0.81C100.39,90.4,100.48,90.75,100.7,91.08z"/>
		<path d="M106.23,89.54c-0.55-0.19-1.03-0.61-1.33-1.21c-0.29-0.58-0.31-1.19-0.15-1.78c0.19-0.59,0.56-1.08,1.14-1.37
			c0.56-0.28,1.19-0.28,1.74-0.06c0.59,0.22,1.05,0.62,1.33,1.2c0.29,0.6,0.34,1.23,0.14,1.79c-0.15,0.57-0.54,1.07-1.1,1.35
			C107.43,89.75,106.81,89.75,106.23,89.54z M105.83,87.87c0.18,0.37,0.44,0.61,0.75,0.75c0.31,0.1,0.65,0.07,0.97-0.09
			c0.3-0.15,0.52-0.39,0.63-0.7c0.09-0.34,0.07-0.7-0.11-1.07c-0.17-0.35-0.44-0.6-0.77-0.72c-0.31-0.08-0.65-0.08-0.94,0.06
			c-0.32,0.16-0.54,0.44-0.66,0.73C105.62,87.16,105.66,87.52,105.83,87.87z"/>
		<path d="M115.24,86.1c0.08,0.26-0.06,0.56-0.33,0.65c-0.25,0.08-0.49-0.03-0.61-0.23c-0.27,0.35-0.65,0.64-1.1,0.79
			c-1.22,0.4-2.53-0.32-2.93-1.54c-0.4-1.24,0.24-2.59,1.46-2.98c0.44-0.14,0.92-0.14,1.33-0.01l-0.55-1.7
			c-0.08-0.26,0.06-0.56,0.34-0.65c0.27-0.09,0.56,0.07,0.65,0.33l1.16,3.58c0,0,0,0,0,0.01L115.24,86.1z M112.05,83.77
			c-0.33,0.11-0.58,0.34-0.73,0.65c-0.15,0.3-0.18,0.67-0.07,1.03c0.11,0.34,0.35,0.62,0.65,0.78c0.3,0.16,0.65,0.2,0.97,0.09
			c0.33-0.11,0.58-0.34,0.73-0.65c0.15-0.3,0.18-0.67,0.07-1.01c-0.12-0.36-0.36-0.64-0.66-0.8
			C112.72,83.7,112.39,83.66,112.05,83.77z"/>
		<path d="M125.1,79.03l0.43,5.59c0.02,0.28-0.21,0.54-0.49,0.56c-0.29,0.02-0.54-0.2-0.56-0.48l-0.31-3.99l-1.22,2
			c-0.09,0.15-0.24,0.24-0.41,0.25h-0.01l-0.01,0c-0.17,0.01-0.34-0.05-0.45-0.18l-1.5-1.79l0.31,3.99c0.02,0.28-0.2,0.54-0.49,0.56
			c-0.28,0.02-0.54-0.2-0.56-0.48l-0.43-5.59c-0.02-0.28,0.2-0.54,0.48-0.56c0.01,0,0.01,0,0.03,0c0.15-0.01,0.33,0.05,0.43,0.19
			l2.09,2.47l1.68-2.76c0.09-0.15,0.24-0.24,0.41-0.25c0,0,0,0,0.01,0C124.81,78.54,125.08,78.75,125.1,79.03z"/>
		<path d="M131.72,83.18l-0.16,1.86c-0.02,0.27-0.27,0.48-0.54,0.46c-0.25-0.02-0.42-0.22-0.46-0.45c-0.38,0.22-0.82,0.34-1.29,0.3
			c-0.64-0.05-1.18-0.37-1.55-0.83c-0.37-0.47-0.56-1.08-0.5-1.72c0.06-0.65,0.34-1.22,0.78-1.61c0.44-0.4,1.03-0.63,1.67-0.57
			c0.47,0.04,0.89,0.24,1.22,0.52c0.08-0.23,0.28-0.4,0.53-0.38c0.27,0.02,0.48,0.27,0.46,0.55L131.72,83.18z M130.72,83.09
			c0.03-0.4-0.08-0.75-0.29-1.01c-0.21-0.27-0.52-0.43-0.85-0.46c-0.34-0.03-0.67,0.08-0.91,0.31c-0.25,0.22-0.41,0.55-0.44,0.94
			c-0.03,0.39,0.07,0.74,0.28,1.01c0.2,0.26,0.51,0.41,0.85,0.44c0.33,0.03,0.66-0.08,0.91-0.29
			C130.51,83.81,130.68,83.48,130.72,83.09z"/>
		<path d="M137.52,83.93l-0.5,2.22c-0.06,0.27-0.32,0.44-0.59,0.38c-0.26-0.06-0.44-0.33-0.38-0.6l0.5-2.22
			c0.12-0.52-0.23-1.03-0.75-1.15c-0.52-0.12-1.02,0.21-1.14,0.73l-0.5,2.22c-0.01,0.03-0.01,0.06-0.04,0.09
			c-0.1,0.21-0.34,0.34-0.58,0.29c-0.28-0.06-0.44-0.33-0.38-0.6l0.5-2.22l0.32-1.44c0.06-0.27,0.32-0.44,0.6-0.38
			c0.19,0.04,0.35,0.19,0.39,0.39c0.32-0.11,0.69-0.15,1.05-0.07C137.09,81.8,137.75,82.88,137.52,83.93z"/>
		<path d="M143.08,86.3l-0.66,1.74c-0.1,0.26-0.39,0.39-0.65,0.29c-0.23-0.09-0.35-0.32-0.32-0.56c-0.43,0.11-0.88,0.1-1.33-0.06
			c-0.6-0.23-1.04-0.67-1.27-1.22c-0.23-0.55-0.24-1.19-0.01-1.79c0.23-0.61,0.66-1.08,1.19-1.34c0.54-0.27,1.16-0.33,1.76-0.1
			c0.45,0.17,0.79,0.47,1.04,0.84c0.14-0.2,0.38-0.3,0.61-0.22c0.26,0.1,0.39,0.39,0.29,0.66L143.08,86.3z M142.14,85.95
			c0.14-0.37,0.13-0.74,0-1.05c-0.12-0.32-0.38-0.56-0.69-0.68c-0.32-0.12-0.67-0.11-0.96,0.05c-0.3,0.14-0.54,0.42-0.68,0.79
			c-0.14,0.36-0.13,0.73-0.01,1.04c0.12,0.3,0.38,0.54,0.7,0.66c0.31,0.12,0.66,0.11,0.96-0.04C141.74,86.58,142,86.31,142.14,85.95
			z"/>
		<path d="M148.9,89.36l-0.87,1.54c-0.61,1.08-2,1.49-3.11,0.87c-0.31-0.17-0.57-0.42-0.75-0.7c-0.16-0.22-0.11-0.55,0.14-0.71
			c0.23-0.16,0.54-0.1,0.71,0.13c0.1,0.15,0.23,0.28,0.41,0.38c0.54,0.3,1.19,0.17,1.58-0.28c-0.42,0.04-0.87-0.05-1.27-0.28
			c-0.55-0.31-0.92-0.83-1.05-1.42c-0.15-0.56-0.09-1.2,0.24-1.78c0.32-0.57,0.83-0.96,1.41-1.15c0.57-0.17,1.21-0.13,1.75,0.18
			c0.43,0.24,0.74,0.59,0.91,0.97c0.15-0.18,0.42-0.22,0.63-0.1c0.25,0.14,0.33,0.45,0.19,0.69L148.9,89.36L148.9,89.36z
			 M148.01,88.86c0.19-0.33,0.23-0.72,0.16-1.02c-0.08-0.35-0.27-0.62-0.59-0.8c-0.29-0.16-0.63-0.19-0.96-0.07
			c-0.31,0.09-0.62,0.33-0.81,0.66c-0.2,0.35-0.24,0.74-0.15,1.04c0.07,0.34,0.28,0.6,0.57,0.77c0.32,0.18,0.64,0.21,0.98,0.1
			C147.51,89.44,147.82,89.2,148.01,88.86z"/>
		<path d="M150.43,90.32c0.79-1.02,2.25-1.26,3.28-0.47c0.98,0.75,1.19,2.08,0.47,3.14c0,0.01-0.02,0.02-0.03,0.04
			c-0.01,0.02-0.04,0.05-0.06,0.06c-0.16,0.16-0.41,0.16-0.62,0l-2.39-1.84c-0.1,0.2-0.16,0.46-0.13,0.69
			c0.02,0.3,0.22,0.67,0.46,0.89c0.25,0.23,0.63,0.41,0.93,0.41c0.29-0.04,0.58,0.22,0.58,0.41c0.02,0.18-0.08,0.46-0.38,0.49
			c-0.63,0.06-1.19-0.13-1.73-0.54C149.79,92.81,149.65,91.35,150.43,90.32z M151.54,90.58l2.13,1.64c0.16-0.36,0.11-1.1-0.5-1.65
			C152.5,90.1,151.83,90.32,151.54,90.58z"/>
		<path d="M158.5,94.75c-0.19,0.19-0.51,0.21-0.71,0.01c-0.16-0.15-0.33-0.24-0.54-0.27c-0.21-0.04-0.42-0.03-0.63,0.03
			c-0.38,0.06-0.71,0.24-0.83,0.31l-1.25,1.3c-0.19,0.2-0.52,0.2-0.73,0c-0.2-0.19-0.2-0.51-0.01-0.71l2.59-2.7
			c0.19-0.2,0.51-0.2,0.71-0.01c0.21,0.2,0.23,0.52,0.03,0.72l-0.05,0.05c0.09-0.01,0.2-0.01,0.28,0c0.37,0.07,0.78,0.23,1.12,0.56
			C158.68,94.24,158.69,94.55,158.5,94.75z"/>
	</g>
</g>
<g id="Safe_Area" class="st0">
	<circle class="st7" cx="126" cy="126" r="54"/>
</g>
</svg>
