<?xml version="1.0" encoding="utf-8"?>
<!-- Generator: Adobe Illustrator 23.0.2, SVG Export Plug-In . SVG Version: 6.00 Build 0)  -->
<svg version="1.1" id="Layer_1" xmlns="http://www.w3.org/2000/svg" xmlns:xlink="http://www.w3.org/1999/xlink" x="0px" y="0px"
	 viewBox="0 0 360 504" style="enable-background:new 0 0 360 504;" xml:space="preserve">
<style type="text/css">
	.st0{fill:#FFFFFF;}
	.st1{fill:#B3D5D3;}
	.st2{enable-background:new    ;}
	.st3{fill:#252723;}
	.st4{fill:#98A798;}
	.st5{fill:#97C38A;}
	.st6{fill:#694719;}
	.st7{fill:#976222;}
	.st8{fill:#AE6F26;}
	.st9{fill:#75976D;}
	.st10{fill:#4D3510;}
	.st11{fill:#6E491A;}
	.st12{fill:#87581F;}
	.st13{fill:#212020;}
</style>
<g id="Color_Strip">
	<rect x="45" y="63" class="st0" width="270" height="378"/>
	<rect x="45" y="373.31" class="st1" width="27.15" height="40.22"/>
	<rect x="164.86" y="373.31" class="st1" width="150.14" height="40.22"/>
</g>
<g id="Date">
	<g class="st2">
		<path class="st3" d="M89.43,407.72H89.4c-0.09-0.01-0.17-0.08-0.17-0.18v-4.9c0-0.1,0.08-0.18,0.18-0.18h0.02h0.96
			c1.45,0,2.63,1.19,2.63,2.63s-1.18,2.62-2.63,2.62H89.43z M90.4,407.35c1.25,0,2.26-1.01,2.26-2.25c0-1.25-1.01-2.26-2.26-2.27
			h-0.8v4.52H90.4z"/>
		<path class="st3" d="M94.28,405.89c0-1.02,0.8-1.85,1.79-1.85c0.95,0,1.7,0.75,1.77,1.71v0.01v0.02c0,0.1-0.08,0.17-0.18,0.17
			h-3.02c0.04,0.8,0.67,1.41,1.43,1.41c0.49,0,0.94-0.25,1.19-0.67c0.05-0.09,0.17-0.11,0.24-0.06c0.08,0.06,0.11,0.17,0.06,0.26
			c-0.31,0.5-0.86,0.83-1.49,0.83C95.07,407.72,94.28,406.89,94.28,405.89z M94.66,405.59h2.79c-0.12-0.69-0.71-1.19-1.38-1.19
			C95.37,404.4,94.8,404.9,94.66,405.59z"/>
		<path class="st3" d="M98.85,405.87c0-1.02,0.84-1.83,1.89-1.83c0.44,0,0.85,0.15,1.17,0.41c0.07,0.05,0.09,0.17,0.02,0.25
			c-0.06,0.07-0.17,0.09-0.25,0.03c-0.26-0.21-0.59-0.33-0.95-0.33c-0.86,0-1.53,0.67-1.53,1.48c0,0.83,0.68,1.49,1.53,1.49
			c0.35,0,0.68-0.12,0.95-0.32c0.08-0.06,0.19-0.04,0.25,0.03c0.07,0.08,0.05,0.2-0.04,0.26c-0.31,0.24-0.72,0.39-1.16,0.39
			C99.69,407.72,98.85,406.91,98.85,405.87z"/>
		<path class="st3" d="M105.35,407.4l2.46-2.21c0.29-0.27,0.45-0.63,0.45-1.01c0-0.32-0.12-0.65-0.35-0.9
			c-0.26-0.29-0.63-0.44-1-0.44c-0.33,0-0.65,0.11-0.92,0.35l-0.26,0.23c-0.07,0.08-0.19,0.07-0.25-0.01
			c-0.08-0.08-0.07-0.2,0.01-0.26l0.26-0.24c0.33-0.29,0.75-0.44,1.16-0.44c0.46,0,0.92,0.18,1.26,0.56
			c0.31,0.33,0.45,0.74,0.45,1.15c0,0.46-0.19,0.93-0.56,1.28l-2.1,1.9h2.48c0.1,0,0.18,0.08,0.18,0.19c0,0.1-0.08,0.18-0.18,0.18
			h-2.93h-0.03c-0.05,0-0.11-0.01-0.14-0.05C105.27,407.58,105.27,407.47,105.35,407.4z"/>
		<path class="st3" d="M109.77,407.4l2.46-2.21c0.29-0.27,0.45-0.63,0.45-1.01c0-0.32-0.12-0.65-0.35-0.9
			c-0.26-0.29-0.63-0.44-1-0.44c-0.33,0-0.65,0.11-0.92,0.35l-0.26,0.23c-0.07,0.08-0.19,0.07-0.25-0.01
			c-0.08-0.08-0.07-0.2,0.01-0.26l0.26-0.24c0.33-0.29,0.75-0.44,1.16-0.44c0.46,0,0.92,0.18,1.26,0.56
			c0.31,0.33,0.45,0.74,0.45,1.15c0,0.46-0.19,0.93-0.56,1.28l-2.1,1.9h2.48c0.1,0,0.18,0.08,0.18,0.19c0,0.1-0.08,0.18-0.18,0.18
			h-2.93h-0.03c-0.05,0-0.11-0.01-0.14-0.05C109.7,407.58,109.7,407.47,109.77,407.4z"/>
		<path class="st3" d="M116.54,405.11c0-0.08,0.06-0.14,0.14-0.14h1.6c0.07,0,0.14,0.05,0.14,0.14c0,0.09-0.07,0.15-0.14,0.15h-1.6
			C116.6,405.26,116.54,405.2,116.54,405.11z"/>
		<path class="st3" d="M121.82,406.26c0.1-0.03,0.2,0.02,0.23,0.11c0.19,0.58,0.72,0.99,1.35,0.98c0.78,0,1.42-0.63,1.42-1.41v-3.3
			c0-0.1,0.08-0.18,0.18-0.18s0.18,0.08,0.18,0.18v3.3c0,0.99-0.8,1.78-1.78,1.78c-0.79,0-1.47-0.52-1.7-1.23
			C121.67,406.39,121.72,406.29,121.82,406.26z"/>
		<path class="st3" d="M129.98,404.22v3.32c0,0.1-0.08,0.18-0.18,0.18s-0.18-0.08-0.18-0.18v-0.55c-0.32,0.44-0.82,0.73-1.38,0.73
			c-0.97,0-1.74-0.83-1.74-1.84c0-1.01,0.77-1.84,1.74-1.84c0.56,0,1.07,0.29,1.38,0.72v-0.54c0-0.11,0.08-0.18,0.18-0.18
			S129.98,404.12,129.98,404.22z M129.62,405.88c0-0.83-0.62-1.49-1.38-1.49c-0.75,0-1.38,0.66-1.38,1.49
			c0,0.83,0.63,1.48,1.38,1.48C129,407.36,129.62,406.71,129.62,405.88z"/>
		<path class="st3" d="M134.09,405.54c0-0.62-0.5-1.13-1.13-1.13c-0.62,0-1.13,0.51-1.14,1.13v2v0.03
			c-0.01,0.03-0.01,0.06-0.04,0.08c-0.03,0.04-0.08,0.07-0.14,0.07h-0.04c-0.05-0.01-0.1-0.05-0.12-0.1
			c-0.01-0.01-0.01-0.01-0.01-0.02s-0.01-0.01-0.01-0.01v-0.04v-2v-0.06v-1.25c0-0.1,0.08-0.18,0.18-0.18c0.1,0,0.17,0.08,0.17,0.18
			v0.35c0.27-0.32,0.68-0.53,1.14-0.53c0.83,0,1.49,0.68,1.49,1.49v2c0,0.1-0.08,0.18-0.18,0.18s-0.18-0.08-0.18-0.18V405.54z"/>
		<path class="st3" d="M138.88,403l-0.74,0.43c-0.02,0.02-0.06,0.03-0.09,0.03c-0.07,0-0.13-0.04-0.16-0.09
			c-0.05-0.1-0.02-0.2,0.07-0.25l1.01-0.62c0.08-0.04,0.2-0.01,0.25,0.07c0.02,0.04,0.03,0.09,0.02,0.13v4.83
			c0,0.1-0.07,0.18-0.18,0.18c-0.1,0-0.18-0.08-0.18-0.18V403z"/>
		<path class="st3" d="M142.35,402.46c0.9,0,1.63,0.67,1.73,1.53c0.01,0.01,0.01,0.02,0.01,0.04c0.01,0.14,0.02,0.29,0.02,0.45
			c0,0.7-0.15,1.47-0.5,2.09c-0.36,0.62-0.98,1.11-1.84,1.14h-0.01c-0.11,0-0.19-0.08-0.19-0.17c0-0.1,0.08-0.19,0.18-0.2
			c0.73-0.03,1.21-0.41,1.53-0.95c0.18-0.32,0.31-0.68,0.38-1.05c-0.32,0.36-0.78,0.58-1.31,0.58c-0.95,0-1.73-0.77-1.73-1.73
			C140.62,403.24,141.4,402.46,142.35,402.46z M143.73,404.19c0-0.75-0.61-1.36-1.37-1.36c-0.75,0-1.37,0.61-1.37,1.36
			c0,0.77,0.62,1.37,1.37,1.37C143.12,405.56,143.73,404.96,143.73,404.19z"/>
	</g>
</g>
<g id="Image">
	<g>
		<g>
			<path class="st4" d="M184.84,225.16c0.32-0.93,0.67-1.88,1.03-2.83c1.26-3.23,2.73-6.62,4.4-10.11
				c3.75-7.85,8.16-15.49,12.88-22.53c9.26-13.82,19.7-25.28,28.48-31.08c-0.66,0.07-1.36,0.21-2.08,0.4
				c-0.2,0.06-0.36,0.09-0.57,0.19c-7.73,2.41-17.95,11.53-27.76,24.01c-6.5,8.25-12.79,17.94-18.09,28.15
				c-0.84,1.64-1.65,3.25-2.44,4.92c-1.36,2.83-2.56,5.57-3.65,8.25c-0.66,1.62-1.25,3.19-1.79,4.74L184.84,225.16z"/>
			<path class="st4" d="M174.01,238.86c0.4-0.73,0.84-1.48,1.28-2.22c1.54-2.53,3.27-5.16,5.19-7.86
				c4.3-6.05,9.14-11.83,14.13-17.05c9.82-10.26,20.28-18.36,28.51-21.95c-0.57-0.04-1.18-0.02-1.8,0.03
				c-0.18,0.02-0.31,0.03-0.51,0.08c-6.86,0.89-16.78,7.06-26.87,16.11c-6.68,5.98-13.39,13.21-19.35,21.01
				c-0.94,1.26-1.86,2.49-2.78,3.78c-1.56,2.18-2.97,4.31-4.28,6.4c-0.8,1.26-1.52,2.5-2.2,3.72L174.01,238.86z"/>
			<path class="st4" d="M189.28,215.25c-0.31-0.78-0.6-1.59-0.89-2.41c-0.96-2.8-1.88-5.81-2.72-9.01
				c-1.9-7.18-3.25-14.59-4.06-21.77c-1.61-14.11-1.14-27.33,1.36-35.96c-0.39,0.41-0.77,0.89-1.13,1.4
				c-0.1,0.15-0.18,0.26-0.26,0.44c-3.7,5.84-5.31,17.41-4.8,30.96c0.33,8.96,1.59,18.74,3.77,28.31c0.36,1.53,0.72,3.02,1.13,4.55
				c0.68,2.59,1.41,5.04,2.18,7.38c0.46,1.42,0.95,2.76,1.45,4.07L189.28,215.25z"/>
			<path class="st4" d="M175.12,230.44c0.07-0.83,0.17-1.69,0.27-2.55c0.38-2.94,0.9-6.05,1.55-9.29
				c1.48-7.28,3.56-14.52,6.01-21.32c4.81-13.36,11.09-25.01,17.16-31.63c-0.53,0.19-1.08,0.46-1.64,0.76
				c-0.15,0.09-0.28,0.15-0.43,0.28c-5.91,3.59-12.48,13.26-18.03,25.62c-3.68,8.17-6.88,17.5-9.16,27.05
				c-0.35,1.53-0.69,3.03-1,4.58c-0.54,2.63-0.97,5.15-1.32,7.58c-0.22,1.48-0.38,2.9-0.51,4.29L175.12,230.44z"/>
			<path class="st4" d="M147.91,243.75c0.62-0.56,1.28-1.11,1.95-1.67c2.29-1.88,4.8-3.78,7.5-5.69c6.07-4.27,12.55-8.12,19-11.38
				c12.67-6.41,25.23-10.57,34.19-11.22c-0.52-0.23-1.1-0.41-1.71-0.57c-0.17-0.04-0.3-0.08-0.5-0.09
				c-6.76-1.44-18.17,1.08-30.69,6.26c-8.28,3.42-17.02,8-25.23,13.38c-1.31,0.87-2.58,1.73-3.87,2.64
				c-2.2,1.54-4.24,3.08-6.16,4.61c-1.17,0.93-2.26,1.85-3.32,2.77L147.91,243.75z"/>
			<path class="st4" d="M164.27,254.83c0.53-0.65,1.1-1.3,1.66-1.95c1.97-2.21,4.15-4.48,6.53-6.79c5.33-5.17,11.13-9.97,16.99-14.2
				c11.52-8.31,23.27-14.37,32.03-16.41c-0.55-0.14-1.15-0.24-1.78-0.3c-0.18-0.01-0.31-0.03-0.51-0.01
				c-6.9-0.37-17.78,3.89-29.34,10.97c-7.65,4.67-15.56,10.56-22.84,17.15c-1.16,1.06-2.28,2.11-3.42,3.21
				c-1.93,1.86-3.71,3.7-5.37,5.52c-1.01,1.1-1.95,2.18-2.84,3.26L164.27,254.83z"/>
		</g>
		<g>
			
				<rect x="151.41" y="166.59" transform="matrix(0.5078 -0.8615 0.8615 0.5078 -53.9706 241.2478)" class="st5" width="65.44" height="2.52"/>
			<g>
				<path class="st6" d="M209.61,135.39c-5.95,10.1-12.78,17.11-15.24,15.66s0.37-10.81,6.33-20.91
					c5.95-10.1,12.78-17.11,15.24-15.66C218.4,115.93,215.57,125.29,209.61,135.39"/>
				<path class="st7" d="M211.27,132.08c-5.33,9.04-11.89,15.04-14.66,13.41c-2.77-1.63-0.7-10.28,4.63-19.32
					s11.89-15.04,14.66-13.41C218.67,114.39,216.6,123.04,211.27,132.08"/>
				<path class="st8" d="M210.88,125.47c-3.38,5.73-7.53,9.53-9.29,8.49c-1.76-1.03-0.44-6.51,2.94-12.24
					c3.38-5.73,7.53-9.53,9.29-8.49C215.57,114.26,214.26,119.74,210.88,125.47"/>
			</g>
		</g>
		
			<rect x="172.95" y="167.76" transform="matrix(0.5077 -0.8615 0.8615 0.5077 -43.8246 261.2223)" class="st9" width="67.43" height="2.39"/>
		<g>
			<path class="st10" d="M238.27,126.06c-5.95,10.1-12.78,17.11-15.24,15.66s0.37-10.81,6.33-20.91
				c5.95-10.1,12.78-17.11,15.24-15.66C247.06,106.59,244.22,115.95,238.27,126.06"/>
			<path class="st11" d="M239.93,122.74c-5.33,9.04-11.89,15.04-14.66,13.41s-0.7-10.28,4.63-19.32s11.89-15.04,14.66-13.41
				S245.26,113.7,239.93,122.74"/>
			<path class="st12" d="M239.54,116.13c-3.38,5.73-7.53,9.53-9.29,8.49c-1.76-1.03-0.44-6.51,2.94-12.24
				c3.38-5.73,7.53-9.53,9.29-8.49C244.23,104.92,242.91,110.4,239.54,116.13"/>
			<path class="st13" d="M185.56,221.87c0,22.57-12.83,40.87-28.65,40.87c-15.83,0-28.65-18.3-28.65-40.87S141.09,181,156.91,181
				C172.73,181.01,185.56,199.3,185.56,221.87"/>
			<path class="st0" d="M179.38,221.25c0,18.95-10.75,34.32-24,34.32s-24-15.36-24-34.32c0-18.95,10.75-34.32,24-34.32
				C168.64,186.94,179.38,202.3,179.38,221.25"/>
			<path class="st13" d="M141.33,188.49c1.13,3.02-4,7.72-11.44,10.49c-7.45,2.77-14.39,2.57-15.52-0.45
				c-1.13-3.02,4-7.72,11.44-10.49S140.2,185.47,141.33,188.49"/>
			<path class="st13" d="M172.08,186.36c-1.13,3.02,4,7.72,11.44,10.49c7.45,2.77,14.39,2.57,15.52-0.45
				c1.12-3.02-4-7.72-11.44-10.49C180.15,183.14,173.2,183.34,172.08,186.36"/>
			<path class="st13" d="M141.04,209.42c2.79,4.91,1.08,11.15-3.84,13.95c-4.91,2.79-11.15,1.08-13.95-3.84
				c-2.79-4.91-1.07-11.15,3.84-13.95C132,202.8,138.25,204.51,141.04,209.42"/>
			<path class="st0" d="M140.09,213.96c1.37,2.4,0.53,5.46-1.88,6.83c-2.4,1.37-5.46,0.53-6.83-1.88c-1.37-2.4-0.53-5.46,1.88-6.83
				C135.67,210.72,138.72,211.56,140.09,213.96"/>
			<path class="st13" d="M187.5,209.42c2.79,4.91,1.08,11.15-3.84,13.95c-4.91,2.79-11.15,1.08-13.95-3.84
				c-2.79-4.91-1.07-11.15,3.84-13.95C178.47,202.8,184.71,204.51,187.5,209.42"/>
			<path class="st0" d="M186.56,213.96c1.37,2.4,0.53,5.46-1.88,6.83c-2.4,1.37-5.46,0.53-6.83-1.88c-1.37-2.4-0.53-5.46,1.88-6.83
				C182.13,210.72,185.19,211.56,186.56,213.96"/>
			<path class="st13" d="M144.71,168.61l7.72,13.05c0.69,1.16,0.14,2.65-1.13,3.09l-5.69,1.98c-1.27,0.44-2.63-0.39-2.81-1.73
				l-2.04-15.03C140.46,167.68,143.53,166.61,144.71,168.61"/>
			<path class="st13" d="M173.55,170.24l-3.19,14.83c-0.28,1.32-1.7,2.04-2.93,1.5l-5.52-2.41c-1.23-0.54-1.66-2.07-0.89-3.17
				l8.71-12.42C171.06,166.67,174.04,167.97,173.55,170.24"/>
			<path class="st13" d="M169.28,268.68l-2.88-10.23c-0.19-0.68-0.98-1-1.59-0.65l-4.54,2.62c-0.62,0.36-0.73,1.2-0.24,1.7
				l7.42,7.61C168.24,270.55,169.58,269.77,169.28,268.68"/>
			<path class="st13" d="M160.06,270.15l1.57-9.12c0.12-0.71-0.47-1.35-1.19-1.27l-5.11,0.57c-0.72,0.08-1.16,0.83-0.89,1.5
				l3.54,8.55C158.4,271.39,159.88,271.22,160.06,270.15"/>
			<path class="st13" d="M142.83,268.49l2.88-10.23c0.19-0.68,0.98-1,1.59-0.65l4.54,2.62c0.62,0.36,0.73,1.2,0.24,1.7l-7.42,7.61
				C143.87,270.35,142.53,269.58,142.83,268.49"/>
			<path class="st13" d="M151.86,269.02l-1.63-8.29c-0.14-0.72,0.46-1.37,1.19-1.29l5.04,0.56c0.73,0.08,1.17,0.85,0.88,1.52
				l-3.41,7.73C153.5,270.22,152.07,270.06,151.86,269.02"/>
			<path class="st13" d="M162.88,244.91c0,3.08-3.55,5.57-7.92,5.57c-4.38,0-7.92-2.49-7.92-5.57s3.55-5.57,7.92-5.57
				S162.88,241.83,162.88,244.91"/>
		</g>
	</g>
</g>
<g id="Name">
	<g class="st2">
		<path class="st3" d="M81.21,385.6c0.02-2.97,2.5-5.38,5.5-5.4c1.32,0,2.52,0.44,3.46,1.17c0.36,0.3,0.42,0.83,0.15,1.2
			c-0.3,0.38-0.85,0.43-1.2,0.17c-0.66-0.54-1.48-0.83-2.42-0.83c-1.03,0-1.99,0.42-2.7,1.08c-0.67,0.69-1.1,1.59-1.1,2.61
			c0,1.02,0.42,1.95,1.1,2.61c0.71,0.66,1.67,1.08,2.7,1.08c0.93,0,1.74-0.29,2.42-0.83c0.34-0.25,0.9-0.19,1.2,0.17
			c0.27,0.38,0.21,0.92-0.15,1.2c-0.94,0.74-2.14,1.17-3.46,1.17C83.71,391,81.22,388.59,81.21,385.6z"/>
		<path class="st3" d="M99.42,387.27v2.94c0,0.43-0.36,0.79-0.79,0.79c-0.39,0-0.69-0.29-0.78-0.64c-0.57,0.4-1.24,0.64-1.99,0.64
			c-1.02,0-1.9-0.42-2.55-1.09c-0.65-0.69-1.02-1.62-1.02-2.64c0-1.04,0.38-1.97,1.02-2.64c0.65-0.69,1.53-1.12,2.55-1.12
			c0.75,0,1.42,0.25,1.99,0.66c0.09-0.38,0.39-0.66,0.78-0.66c0.44,0,0.79,0.36,0.79,0.81V387.27z M97.83,387.27
			c0-0.63-0.23-1.17-0.58-1.54c-0.36-0.41-0.87-0.62-1.4-0.62c-0.54,0-1.05,0.21-1.4,0.62c-0.36,0.37-0.57,0.91-0.57,1.54
			c0,0.61,0.21,1.15,0.57,1.54c0.34,0.38,0.85,0.58,1.4,0.58c0.52,0,1.03-0.21,1.4-0.58C97.6,388.42,97.83,387.88,97.83,387.27z"/>
		<path class="st3" d="M102.36,393.01v-5.73c0,0,0,0,0-0.01v-2.97c0-0.43,0.36-0.79,0.79-0.79c0.42,0,0.77,0.29,0.82,0.62
			c0.56-0.36,1.28-0.62,2.04-0.62c2,0,3.63,1.71,3.63,3.77c0,2.05-1.63,3.72-3.63,3.72c-0.75,0-1.47-0.23-2.01-0.62v2.64
			c0,0.42-0.38,0.81-0.85,0.81C102.72,393.82,102.36,393.43,102.36,393.01z M104.01,387.27c0,0.58,0.19,1.15,0.58,1.5
			c0.38,0.42,0.87,0.63,1.42,0.63c0.51,0,1.02-0.21,1.41-0.63c0.34-0.34,0.58-0.91,0.58-1.5c0-0.59-0.24-1.12-0.58-1.52
			c-0.39-0.4-0.9-0.62-1.41-0.62c-0.55,0-1.05,0.21-1.42,0.62C104.2,386.14,104.01,386.68,104.01,387.27z"/>
		<path class="st3" d="M116.88,384.3c0,0.42-0.34,0.79-0.79,0.79c-0.34,0-0.65,0.09-0.9,0.29c-0.29,0.18-0.51,0.44-0.69,0.72
			c-0.36,0.48-0.54,1.05-0.62,1.26v2.85c0,0.43-0.37,0.79-0.82,0.79c-0.44,0-0.79-0.36-0.79-0.79v-5.91c0-0.43,0.36-0.78,0.79-0.78
			c0.45,0,0.82,0.34,0.82,0.78v0.11c0.09-0.11,0.21-0.23,0.32-0.3c0.49-0.33,1.14-0.6,1.89-0.58
			C116.53,383.52,116.88,383.86,116.88,384.3z"/>
		<path class="st3" d="M120.48,381.63c0,0.45-0.34,0.83-0.81,0.83c-0.45,0-0.81-0.38-0.81-0.83v-0.31c0-0.45,0.36-0.81,0.81-0.81
			c0.47,0,0.81,0.36,0.81,0.81V381.63z M120.48,384.34v5.85c0,0.45-0.34,0.81-0.81,0.81c-0.45,0-0.81-0.36-0.81-0.81v-5.85
			c0-0.48,0.36-0.82,0.81-0.82C120.13,383.52,120.48,383.86,120.48,384.34z"/>
		<path class="st3" d="M122.53,387.27c0-2.08,1.74-3.75,3.81-3.77c0.9,0,1.74,0.33,2.39,0.83c0.34,0.27,0.4,0.78,0.16,1.11
			c-0.3,0.36-0.78,0.42-1.12,0.15c-0.39-0.29-0.87-0.48-1.43-0.48c-1.21,0-2.22,1-2.22,2.16c0,1.15,1,2.14,2.22,2.14
			c0.54,0,1.04-0.2,1.43-0.48c0.33-0.25,0.82-0.19,1.12,0.17c0.24,0.33,0.18,0.81-0.16,1.11c-0.65,0.46-1.49,0.79-2.39,0.79
			C124.27,391,122.53,389.32,122.53,387.27z"/>
		<path class="st3" d="M132.09,389.91c-0.65-0.66-1.04-1.59-1.04-2.64c0-1.02,0.39-1.91,1.04-2.62c0.67-0.71,1.54-1.14,2.58-1.14
			c0.99,0,1.89,0.44,2.5,1.14c0.67,0.72,1.05,1.6,1.05,2.62c0,1.05-0.38,1.98-1.05,2.64c-0.62,0.71-1.52,1.14-2.5,1.14
			C133.63,391.05,132.76,390.61,132.09,389.91z M132.69,387.27c0,0.64,0.19,1.17,0.54,1.59c0.38,0.36,0.87,0.55,1.44,0.55
			c0.52,0,1-0.2,1.38-0.55c0.38-0.42,0.58-0.95,0.58-1.59c0-0.62-0.21-1.16-0.58-1.56c-0.38-0.33-0.85-0.57-1.38-0.57
			c-0.57,0-1.06,0.24-1.44,0.57C132.88,386.11,132.69,386.65,132.69,387.27z"/>
		<path class="st3" d="M145.09,384.3c0,0.42-0.34,0.79-0.79,0.79c-0.34,0-0.65,0.09-0.9,0.29c-0.29,0.18-0.51,0.44-0.69,0.72
			c-0.36,0.48-0.54,1.05-0.62,1.26v2.85c0,0.43-0.37,0.79-0.82,0.79c-0.44,0-0.79-0.36-0.79-0.79v-5.91c0-0.43,0.36-0.78,0.79-0.78
			c0.45,0,0.82,0.34,0.82,0.78v0.11c0.09-0.11,0.21-0.23,0.32-0.3c0.49-0.33,1.14-0.6,1.89-0.58
			C144.75,383.52,145.09,383.86,145.09,384.3z"/>
		<path class="st3" d="M153.31,386.62v3.58c0,0.43-0.35,0.79-0.78,0.79c-0.42,0-0.79-0.36-0.79-0.79v-3.58
			c0-0.84-0.71-1.51-1.56-1.51c-0.84,0-1.5,0.67-1.5,1.51v3.58c0,0.04,0,0.09-0.03,0.15c-0.08,0.36-0.4,0.64-0.79,0.64
			c-0.45,0-0.79-0.36-0.79-0.79v-3.58v-2.33c0-0.43,0.34-0.79,0.79-0.79c0.31,0,0.6,0.18,0.73,0.46c0.45-0.28,1-0.46,1.59-0.46
			C151.92,383.5,153.31,384.93,153.31,386.62z"/>
	</g>
</g>
</svg>
