<?xml version="1.0" encoding="utf-8"?>
<!-- Generator: Adobe Illustrator 23.0.2, SVG Export Plug-In . SVG Version: 6.00 Build 0)  -->
<svg version="1.1" xmlns="http://www.w3.org/2000/svg" xmlns:xlink="http://www.w3.org/1999/xlink" x="0px" y="0px"
	 viewBox="0 0 252 252" style="enable-background:new 0 0 252 252;" xml:space="preserve">
<style type="text/css">
	.st0{display:none;}
	.st1{display:inline;fill:#FFFFFF;stroke:#252723;stroke-miterlimit:10;}
	.st2{fill:#FFFFFF;}
	.st3{fill:#DFBF6D;}
	.st4{clip-path:url(#SVGID_2_);fill:#161615;}
	.st5{clip-path:url(#SVGID_2_);fill:#FFFFFF;}
	.st6{clip-path:url(#SVGID_2_);fill:#212020;}
	.st7{clip-path:url(#SVGID_4_);fill:#FFFFFF;}
	.st8{fill:#212020;}
	.st9{display:inline;fill:none;stroke:#252723;stroke-miterlimit:10;}
</style>
<g id="Bleed" class="st0">
	<circle class="st1" cx="126" cy="126" r="72"/>
</g>
<g id="Background">
</g>
<g id="Image">
	<circle class="st2" cx="126" cy="126" r="57.66"/>
	<circle class="st3" cx="126" cy="126" r="50.01"/>
	<circle class="st2" cx="126" cy="126" r="45.64"/>
	<circle class="st3" cx="126" cy="126" r="40.51"/>
	<ellipse class="st2" cx="130.72" cy="123.43" rx="37.25" ry="39.54"/>
	<circle class="st3" cx="130.65" cy="122.91" r="35.69"/>
	
		<ellipse transform="matrix(0.0846 -0.9964 0.9964 0.0846 -8.7468 240.1157)" class="st2" cx="126.31" cy="124.82" rx="34.84" ry="32.82"/>
	<g>
		<g>
			<defs>
				<rect id="SVGID_1_" x="100.23" y="101.54" width="51.54" height="48.92"/>
			</defs>
			<clipPath id="SVGID_2_">
				<use xlink:href="#SVGID_1_"  style="overflow:visible;"/>
			</clipPath>
			<path class="st4" d="M110.26,106.51c0.45-0.33,3.82,3.44,7.51,8.42c3.69,4.98,6.32,9.29,5.86,9.62
				c-0.45,0.33-3.81-3.44-7.51-8.42C112.43,111.15,109.81,106.84,110.26,106.51"/>
			<path class="st4" d="M111.46,105.65c0.46-0.32,3.69,3.57,7.2,8.68c3.51,5.11,5.98,9.5,5.52,9.82c-0.46,0.31-3.69-3.57-7.2-8.68
				C113.46,110.36,110.99,105.96,111.46,105.65"/>
			<path class="st4" d="M113.17,104.51c0.49-0.28,3.44,3.81,6.59,9.14c3.15,5.33,5.32,9.89,4.83,10.17
				c-0.49,0.28-3.44-3.81-6.59-9.14C114.85,109.35,112.69,104.8,113.17,104.51"/>
			<path class="st4" d="M115.51,104.14c0.51-0.24,3.13,4.07,5.85,9.63c2.72,5.56,4.52,10.27,4.02,10.51
				c-0.51,0.25-3.12-4.06-5.85-9.63C116.8,109.09,115.01,104.38,115.51,104.14"/>
			<path class="st4" d="M129.47,101.7c0.56,0.07,0.35,5.1-0.45,11.24c-0.81,6.13-1.92,11.05-2.48,10.97
				c-0.56-0.07-0.35-5.1,0.45-11.24C127.8,106.54,128.91,101.62,129.47,101.7"/>
			<path class="st4" d="M130.93,101.89c0.55,0.09,0.17,5.11-0.86,11.21c-1.03,6.1-2.31,10.97-2.87,10.88
				c-0.56-0.09-0.17-5.11,0.86-11.21C129.09,106.67,130.38,101.8,130.93,101.89"/>
			<path class="st4" d="M132.96,102.26c0.55,0.13-0.18,5.11-1.62,11.13s-3.06,10.79-3.6,10.66c-0.55-0.13,0.18-5.11,1.62-11.13
				C130.8,106.9,132.41,102.13,132.96,102.26"/>
			<path class="st4" d="M134.91,103.6c0.54,0.17-0.58,5.08-2.49,10.97c-1.91,5.89-3.9,10.52-4.43,10.35
				c-0.54-0.17,0.58-5.08,2.49-10.97C132.39,108.06,134.37,103.43,134.91,103.6"/>
			<path class="st4" d="M103.59,112.41c0.29-0.48,4.87,1.67,10.24,4.8c5.37,3.13,9.49,6.06,9.21,6.55
				c-0.28,0.48-4.87-1.67-10.24-4.8C107.42,115.82,103.3,112.89,103.59,112.41"/>
			<path class="st4" d="M104.34,111.15c0.3-0.47,4.81,1.84,10.06,5.16c5.25,3.32,9.27,6.4,8.96,6.87c-0.3,0.47-4.81-1.84-10.06-5.16
				C108.06,114.69,104.04,111.62,104.34,111.15"/>
			<path class="st4" d="M105.47,109.43c0.33-0.45,4.67,2.16,9.68,5.82c5.01,3.67,8.81,7.01,8.48,7.46
				c-0.33,0.45-4.67-2.16-9.68-5.82C108.93,113.22,105.14,109.88,105.47,109.43"/>
			<path class="st4" d="M107.47,108.17c0.37-0.42,4.49,2.51,9.2,6.56c4.71,4.04,8.23,7.67,7.86,8.09c-0.37,0.42-4.49-2.51-9.2-6.56
				C110.63,112.22,107.11,108.6,107.47,108.17"/>
			<path class="st4" d="M104.34,140.25c-0.34-0.44,3.38-3.86,8.31-7.64c4.93-3.77,9.21-6.47,9.56-6.03
				c0.34,0.44-3.38,3.86-8.31,7.64C108.96,137.99,104.68,140.69,104.34,140.25"/>
			<path class="st4" d="M103.44,139.08c-0.33-0.45,3.51-3.74,8.58-7.34s9.44-6.14,9.76-5.69c0.33,0.46-3.51,3.74-8.58,7.34
				C108.14,136.99,103.77,139.54,103.44,139.08"/>
			<path class="st4" d="M102.26,137.4c-0.3-0.48,3.76-3.49,9.06-6.74c5.3-3.25,9.84-5.49,10.13-5.02c0.3,0.48-3.76,3.49-9.06,6.74
				C107.1,135.63,102.56,137.88,102.26,137.4"/>
			<path class="st4" d="M101.83,135.08c-0.26-0.5,4.03-3.19,9.56-6.02c5.54-2.83,10.24-4.71,10.5-4.21c0.26,0.5-4.02,3.19-9.56,6.02
				C106.79,133.69,102.09,135.58,101.83,135.08"/>
			<path class="st4" d="M130.05,149.98c-0.55,0.09-1.84-4.78-2.88-10.88c-1.03-6.1-1.42-11.12-0.87-11.21
				c0.56-0.09,1.84,4.78,2.88,10.88C130.22,144.87,130.61,149.89,130.05,149.98"/>
			<path class="st4" d="M128.6,150.22c-0.56,0.07-1.67-4.84-2.49-10.97c-0.81-6.13-1.02-11.16-0.46-11.24
				c0.56-0.07,1.67,4.84,2.49,10.97C128.95,145.12,129.15,150.15,128.6,150.22"/>
			<path class="st4" d="M126.55,150.46c-0.56,0.04-1.34-4.94-1.73-11.11c-0.39-6.17-0.26-11.21,0.31-11.24
				c0.56-0.04,1.34,4.94,1.73,11.11C127.25,145.39,127.11,150.43,126.55,150.46"/>
			<path class="st4" d="M124.29,149.75c-0.56-0.01-0.94-5.03-0.85-11.21c0.09-6.18,0.63-11.19,1.19-11.18
				c0.56,0.01,0.94,5.03,0.85,11.21C125.38,144.75,124.85,149.76,124.29,149.75"/>
			<path class="st4" d="M151.46,119.79c0.11,0.55-4.75,1.97-10.86,3.17c-6.11,1.2-11.15,1.74-11.26,1.19
				c-0.11-0.55,4.75-1.97,10.86-3.17C146.31,119.77,151.35,119.24,151.46,119.79"/>
			<path class="st4" d="M150.7,117.61c0.23,0.51-4.18,2.99-9.85,5.54c-5.67,2.55-10.46,4.2-10.69,3.69
				c-0.23-0.51,4.18-2.99,9.85-5.54C145.68,118.75,150.46,117.1,150.7,117.61"/>
			<path class="st4" d="M120.4,102.19c0.55-0.12,2.09,4.68,3.43,10.72c1.35,6.04,1.99,11.03,1.44,11.15
				c-0.55,0.12-2.09-4.68-3.43-10.72C120.5,107.31,119.85,102.32,120.4,102.19"/>
			<path class="st4" d="M117.92,102.45c0.54-0.17,2.55,4.44,4.5,10.32c1.95,5.87,3.1,10.78,2.57,10.95
				c-0.53,0.17-2.55-4.44-4.5-10.32S117.38,102.63,117.92,102.45"/>
			<path class="st4" d="M121.85,101.88c0.55-0.1,1.92,4.75,3.04,10.83c1.13,6.08,1.59,11.1,1.04,11.2
				c-0.55,0.1-1.92-4.75-3.04-10.83C121.76,107,121.29,101.98,121.85,101.88"/>
			<path class="st4" d="M123.88,101.54c0.56-0.06,1.59,4.87,2.3,11.01c0.71,6.15,0.83,11.18,0.27,11.24
				c-0.56,0.06-1.59-4.87-2.3-11.01C123.44,106.64,123.32,101.6,123.88,101.54"/>
			<path class="st4" d="M126.17,102.14c0.56-0.02,1.2,4.97,1.42,11.16c0.22,6.18-0.05,11.21-0.61,11.23
				c-0.56,0.02-1.2-4.98-1.42-11.16C125.34,107.18,125.61,102.16,126.17,102.14"/>
			<path class="st4" d="M137.49,104.07c0.5,0.25-1.35,4.94-4.13,10.47c-2.79,5.53-5.45,9.81-5.96,9.56
				c-0.5-0.25,1.35-4.94,4.13-10.47C134.31,108.1,136.98,103.82,137.49,104.07"/>
			<path class="st4" d="M138.8,104.73c0.49,0.27-1.52,4.89-4.51,10.32c-2.98,5.43-5.8,9.61-6.3,9.35
				c-0.49-0.27,1.52-4.89,4.51-10.32C135.49,108.65,138.31,104.46,138.8,104.73"/>
			<path class="st4" d="M140.6,105.73c0.48,0.3-1.85,4.77-5.2,9.99c-3.35,5.22-6.44,9.2-6.92,8.9c-0.48-0.3,1.85-4.77,5.2-9.99
				C137.03,109.42,140.13,105.43,140.6,105.73"/>
			<path class="st4" d="M142,107.63c0.45,0.34-2.22,4.61-5.97,9.56c-3.75,4.94-7.15,8.67-7.6,8.33c-0.45-0.34,2.22-4.61,5.97-9.55
				C138.15,111.03,141.55,107.3,142,107.63"/>
			<path class="st4" d="M145.97,111.08c0.36,0.43-3.24,3.97-8.05,7.91c-4.8,3.94-8.99,6.78-9.35,6.35
				c-0.36-0.43,3.25-3.97,8.05-7.91C141.43,113.49,145.61,110.65,145.97,111.08"/>
			<path class="st4" d="M144.61,109c0.4,0.39-2.82,4.28-7.2,8.68c-4.38,4.4-8.25,7.64-8.65,7.25c-0.4-0.39,2.83-4.28,7.2-8.67
				C140.33,111.85,144.21,108.6,144.61,109"/>
			<path class="st4" d="M146.9,112.21c0.34,0.44-3.39,3.86-8.33,7.62c-4.94,3.76-9.22,6.46-9.57,6.01
				c-0.34-0.44,3.38-3.86,8.33-7.62C142.28,114.46,146.56,111.77,146.9,112.21"/>
			<path class="st4" d="M148.14,113.85c0.31,0.47-3.64,3.62-8.83,7.04c-5.19,3.42-9.65,5.82-9.96,5.35
				c-0.31-0.47,3.64-3.62,8.83-7.04C143.37,115.79,147.83,113.39,148.14,113.85"/>
			<path class="st4" d="M148.64,116.16c0.27,0.49-3.91,3.32-9.35,6.33c-5.44,3.01-10.07,5.05-10.35,4.56
				c-0.27-0.49,3.91-3.32,9.35-6.33C143.74,117.71,148.37,115.67,148.64,116.16"/>
			<path class="st4" d="M146.83,140.27c-0.34,0.45-4.64-2.22-9.6-5.96s-8.71-7.13-8.37-7.57c0.34-0.45,4.64,2.22,9.6,5.96
				C143.42,136.43,147.17,139.83,146.83,140.27"/>
			<path class="st4" d="M145.93,141.44c-0.36,0.43-4.56-2.39-9.38-6.3c-4.82-3.91-8.45-7.43-8.09-7.87c0.36-0.43,4.56,2.39,9.38,6.3
				C142.66,137.48,146.28,141.01,145.93,141.44"/>
			<path class="st4" d="M144.61,143.01c-0.39,0.41-4.38-2.69-8.93-6.92c-4.55-4.23-7.92-7.99-7.53-8.39
				c0.38-0.41,4.38,2.69,8.93,6.92C141.62,138.84,144.99,142.6,144.61,143.01"/>
			<path class="st4" d="M142.47,144.03c-0.42,0.38-4.16-3.02-8.36-7.59c-4.2-4.57-7.26-8.58-6.85-8.95s4.16,3.02,8.36,7.59
				C139.82,139.64,142.88,143.65,142.47,144.03"/>
			<path class="st4" d="M138.33,147.27c-0.49,0.27-3.33-3.9-6.35-9.31s-5.05-10.02-4.56-10.29c0.49-0.27,3.33,3.9,6.35,9.31
				C136.78,142.39,138.82,146.99,138.33,147.27"/>
			<path class="st4" d="M140.64,146.32c-0.46,0.32-3.71-3.54-7.26-8.63c-3.55-5.08-6.05-9.46-5.58-9.78
				c0.46-0.32,3.71,3.55,7.26,8.63C138.6,141.62,141.1,146,140.64,146.32"/>
			<path class="st4" d="M137.03,147.97c-0.5,0.25-3.19-4.01-6.01-9.53c-2.82-5.52-4.69-10.19-4.19-10.45
				c0.5-0.25,3.19,4.01,6.01,9.53C135.66,143.04,137.53,147.72,137.03,147.97"/>
			<path class="st4" d="M135.18,148.87c-0.52,0.22-2.91-4.22-5.34-9.91c-2.43-5.69-3.98-10.49-3.47-10.71
				c0.52-0.22,2.91,4.22,5.34,9.91C134.15,143.86,135.7,148.65,135.18,148.87"/>
			<path class="st4" d="M132.81,148.94c-0.53,0.18-2.57-4.43-4.55-10.3c-1.98-5.87-3.15-10.76-2.61-10.94
				c0.54-0.18,2.57,4.43,4.55,10.3C132.18,143.87,133.35,148.77,132.81,148.94"/>
			<path class="st4" d="M151.25,121.06c0.1,0.55-4.79,1.87-10.92,2.95s-11.18,1.51-11.28,0.96c-0.1-0.55,4.79-1.87,10.92-2.95
				C146.11,120.94,151.16,120.51,151.25,121.06"/>
			<path class="st4" d="M151.51,122.51c0.08,0.55-4.86,1.7-11.02,2.56c-6.17,0.86-11.23,1.11-11.31,0.56
				c-0.08-0.55,4.86-1.7,11.02-2.56S151.43,121.96,151.51,122.51"/>
			<path class="st4" d="M151.77,124.54c0.04,0.56-4.96,1.37-11.17,1.82c-6.21,0.44-11.28,0.35-11.32-0.21
				c-0.04-0.56,4.96-1.37,11.17-1.82C146.66,123.89,151.73,123.98,151.77,124.54"/>
			<path class="st4" d="M151.07,126.79c0,0.56-5.05,0.98-11.28,0.94c-6.23-0.04-11.27-0.52-11.27-1.08c0-0.56,5.05-0.98,11.28-0.94
				C146.03,125.75,151.07,126.23,151.07,126.79"/>
			<path class="st4" d="M150.65,132.01c-0.14,0.54-5.15-0.22-11.19-1.69c-6.05-1.48-10.84-3.12-10.7-3.66
				c0.14-0.54,5.15,0.21,11.19,1.69C146,129.83,150.79,131.47,150.65,132.01"/>
			<path class="st4" d="M151.52,129.68c-0.08,0.55-5.14,0.3-11.31-0.57c-6.16-0.87-11.1-2.02-11.02-2.57
				c0.08-0.55,5.14-0.3,11.31,0.56C146.67,127.98,151.6,129.13,151.52,129.68"/>
			<path class="st4" d="M150.29,133.43c-0.15,0.54-5.13-0.4-11.12-2.09c-5.99-1.69-10.72-3.5-10.57-4.04
				c0.15-0.54,5.13,0.4,11.12,2.09C145.72,131.09,150.45,132.9,150.29,133.43"/>
			<path class="st4" d="M149.7,135.39c-0.19,0.53-5.1-0.74-10.96-2.83s-10.46-4.21-10.27-4.74c0.19-0.53,5.1,0.74,10.96,2.83
				C145.3,132.75,149.89,134.87,149.7,135.39"/>
			<path class="st4" d="M148.15,137.17c-0.23,0.51-5.02-1.14-10.7-3.68c-5.68-2.54-10.09-5.01-9.86-5.52
				c0.23-0.51,5.02,1.14,10.7,3.68C143.96,134.19,148.38,136.66,148.15,137.17"/>
			<path class="st4" d="M100.98,131.86c-0.13-0.54,4.68-2.14,10.74-3.55c6.06-1.42,11.08-2.13,11.21-1.58
				c0.13,0.54-4.68,2.14-10.74,3.56C106.13,131.7,101.11,132.4,100.98,131.86"/>
			<path class="st4" d="M100.65,130.43c-0.11-0.55,4.75-1.97,10.86-3.17c6.11-1.2,11.15-1.73,11.26-1.19
				c0.11,0.55-4.75,1.97-10.86,3.17C105.8,130.45,100.76,130.98,100.65,130.43"/>
			<path class="st4" d="M100.28,128.42c-0.07-0.55,4.88-1.64,11.05-2.43c6.18-0.79,11.24-0.98,11.31-0.42
				c0.07,0.55-4.88,1.64-11.05,2.43C105.41,128.78,100.35,128.97,100.28,128.42"/>
			<path class="st4" d="M100.85,126.13c-0.03-0.56,4.99-1.26,11.21-1.57c6.22-0.31,11.28-0.1,11.31,0.46
				c0.03,0.56-4.99,1.26-11.21,1.57C105.94,126.89,100.87,126.69,100.85,126.13"/>
			<path class="st4" d="M100.97,120.9c0.1-0.55,5.15-0.07,11.27,1.07c6.12,1.14,11,2.51,10.89,3.06c-0.1,0.55-5.15,0.07-11.27-1.07
				C105.74,122.82,100.86,121.45,100.97,120.9"/>
			<path class="st4" d="M100.23,123.27c0.05-0.56,5.12-0.59,11.32-0.06c6.21,0.52,11.2,1.4,11.15,1.95
				c-0.05,0.56-5.12,0.59-11.32,0.06C105.18,124.7,100.19,123.83,100.23,123.27"/>
			<path class="st4" d="M101.25,119.46c0.12-0.55,5.15,0.11,11.22,1.47c6.08,1.36,10.9,2.9,10.78,3.44
				c-0.12,0.55-5.15-0.11-11.22-1.47C105.95,121.54,101.13,120,101.25,119.46"/>
			<path class="st4" d="M101.73,117.47c0.16-0.54,5.13,0.46,11.1,2.22c5.97,1.76,10.68,3.63,10.52,4.16
				c-0.16,0.54-5.13-0.46-11.1-2.22C106.27,119.87,101.56,118,101.73,117.47"/>
			<path class="st4" d="M103.18,115.6c0.2-0.52,5.08,0.86,10.89,3.08c5.81,2.22,10.36,4.45,10.16,4.97
				c-0.2,0.52-5.08-0.85-10.89-3.08C107.52,118.35,102.98,116.13,103.18,115.6"/>
			<path class="st4" d="M121.41,150.27c-0.56-0.1-0.12-5.11,0.98-11.2c1.1-6.09,2.43-10.94,2.99-10.85c0.56,0.1,0.12,5.11-0.98,11.2
				C123.3,145.52,121.97,150.37,121.41,150.27"/>
			<path class="st4" d="M119.96,150.01c-0.55-0.12,0.07-5.12,1.38-11.16c1.31-6.05,2.82-10.85,3.37-10.73
				c0.55,0.12-0.07,5.12-1.38,11.16C122.02,145.32,120.51,150.13,119.96,150.01"/>
			<path class="st4" d="M117.95,149.55c-0.54-0.15,0.42-5.1,2.14-11.04s3.56-10.64,4.1-10.48c0.54,0.15-0.42,5.1-2.14,11.04
				C120.33,145.01,118.49,149.71,117.95,149.55"/>
			<path class="st4" d="M116.06,148.12c-0.53-0.2,0.82-5.05,3-10.84s4.39-10.33,4.91-10.13c0.53,0.2-0.82,5.05-3,10.84
				C118.79,143.78,116.59,148.32,116.06,148.12"/>
			<path class="st4" d="M111.28,145.94c-0.47-0.31,1.98-4.72,5.46-9.85s6.69-9.03,7.15-8.72c0.47,0.31-1.98,4.72-5.46,9.85
				C114.95,142.35,111.75,146.25,111.28,145.94"/>
			<path class="st4" d="M113.18,147.55c-0.5-0.26,1.49-4.9,4.43-10.35c2.95-5.45,5.74-9.65,6.23-9.39c0.5,0.26-1.49,4.9-4.44,10.35
				C116.47,143.61,113.68,147.81,113.18,147.55"/>
			<path class="st4" d="M110.06,145.11c-0.46-0.33,2.15-4.65,5.81-9.65c3.67-5,7.01-8.79,7.46-8.46c0.46,0.33-2.15,4.65-5.81,9.65
				C113.85,141.65,110.51,145.44,110.06,145.11"/>
			<path class="st4" d="M108.41,143.88c-0.43-0.36,2.46-4.49,6.46-9.24c4-4.74,7.59-8.29,8.02-7.93c0.43,0.36-2.46,4.49-6.46,9.24
				C112.43,140.69,108.84,144.24,108.41,143.88"/>
			<path class="st4" d="M107.27,141.82c-0.4-0.39,2.81-4.29,7.17-8.71c4.36-4.42,8.22-7.68,8.62-7.29c0.4,0.39-2.81,4.29-7.17,8.71
				C111.53,138.95,107.67,142.21,107.27,141.82"/>
			<path class="st5" d="M142.74,127.21c0,8.29-7.37,15-16.45,15s-16.45-6.72-16.45-15s7.37-15,16.45-15S142.74,118.93,142.74,127.21
				"/>
			<path class="st6" d="M137.15,123.64c0,2.39-1.95,4.32-4.35,4.32c-2.4,0-4.35-1.94-4.35-4.32s1.95-4.32,4.35-4.32
				C135.2,119.32,137.15,121.25,137.15,123.64"/>
			<path class="st6" d="M123.08,123.64c0,2.39-1.95,4.32-4.35,4.32c-2.4,0-4.35-1.94-4.35-4.32s1.95-4.32,4.35-4.32
				C121.13,119.32,123.08,121.25,123.08,123.64"/>
			<path class="st5" d="M121.68,125.11c0,1.17-0.95,2.12-2.13,2.12c-1.18,0-2.13-0.95-2.13-2.12s0.95-2.12,2.13-2.12
				C120.73,122.99,121.68,123.94,121.68,125.11"/>
			<path class="st5" d="M135.85,125.11c0,1.17-0.95,2.12-2.13,2.12c-1.18,0-2.13-0.95-2.13-2.12s0.95-2.12,2.13-2.12
				C134.89,122.99,135.85,123.94,135.85,125.11"/>
		</g>
		<g>
			<defs>
				<rect id="SVGID_3_" x="100.23" y="101.54" width="51.54" height="48.92"/>
			</defs>
			<clipPath id="SVGID_4_">
				<use xlink:href="#SVGID_3_"  style="overflow:visible;"/>
			</clipPath>
			<path class="st7" d="M120.02,115.62c0,1.88-1.83,3.41-4.08,3.41c-2.25,0-4.08-1.52-4.08-3.41c0-1.88,1.83-3.4,4.08-3.4
				C118.19,112.21,120.02,113.74,120.02,115.62"/>
			<path class="st7" d="M140.76,115.18c0,1.88-1.83,3.4-4.08,3.4s-4.08-1.52-4.08-3.4s1.83-3.4,4.08-3.4S140.76,113.3,140.76,115.18
				"/>
		</g>
		<ellipse class="st8" cx="126.31" cy="131.13" rx="3.86" ry="0.97"/>
	</g>
</g>
<g id="Text">
</g>
<g id="Safe_Area" class="st0">
	<circle class="st9" cx="126" cy="126" r="54"/>
</g>
</svg>
