<?xml version="1.0" encoding="utf-8"?>
<!-- Generator: Adobe Illustrator 23.0.2, SVG Export Plug-In . SVG Version: 6.00 Build 0)  -->
<svg version="1.1" xmlns="http://www.w3.org/2000/svg" xmlns:xlink="http://www.w3.org/1999/xlink" x="0px" y="0px"
	 viewBox="0 0 252 252" style="enable-background:new 0 0 252 252;" xml:space="preserve">
<style type="text/css">
	.st0{display:none;}
	.st1{display:inline;fill:#FFFFFF;stroke:#252723;stroke-miterlimit:10;}
	.st2{fill:#FFFFFF;}
	.st3{fill:#DFBF5D;}
	.st4{clip-path:url(#SVGID_2_);fill:#F7D72B;}
	.st5{clip-path:url(#SVGID_2_);fill:#FAED51;}
	.st6{clip-path:url(#SVGID_2_);fill:#7E531C;}
	.st7{clip-path:url(#SVGID_2_);fill:#533812;}
	.st8{clip-path:url(#SVGID_2_);fill:#A06622;}
	.st9{display:inline;fill:none;stroke:#252723;stroke-miterlimit:10;}
</style>
<g id="Bleed" class="st0">
	<circle class="st1" cx="126" cy="126" r="72"/>
</g>
<g id="Background">
</g>
<g id="Image">
	<circle class="st2" cx="126" cy="126" r="57.66"/>
	<circle class="st3" cx="126" cy="126" r="50.01"/>
	<circle class="st2" cx="126" cy="126" r="45.64"/>
	<circle class="st3" cx="126" cy="126" r="40.51"/>
	<ellipse class="st2" cx="130.72" cy="123.43" rx="37.25" ry="39.54"/>
	<circle class="st3" cx="130.65" cy="122.91" r="35.69"/>
	
		<ellipse transform="matrix(0.0846 -0.9964 0.9964 0.0846 -8.7468 240.1157)" class="st2" cx="126.31" cy="124.82" rx="34.84" ry="32.82"/>
	<g>
		<defs>
			<rect id="SVGID_1_" x="99" y="105.58" width="51.62" height="40.42"/>
		</defs>
		<clipPath id="SVGID_2_">
			<use xlink:href="#SVGID_1_"  style="overflow:visible;"/>
		</clipPath>
		<path class="st4" d="M123.61,116.38c-0.71,4.15-2.18,7.35-3.27,7.16c-1.09-0.19-1.4-3.71-0.68-7.86c0.71-4.15,2.18-7.35,3.27-7.16
			C124.02,108.71,124.32,112.23,123.61,116.38"/>
		<path class="st4" d="M117.77,138.48c-0.71,4.15-2.18,7.35-3.27,7.16c-1.09-0.19-1.4-3.71-0.68-7.86c0.71-4.15,2.18-7.35,3.27-7.16
			C118.18,130.81,118.48,134.33,117.77,138.48"/>
		<path class="st4" d="M128.82,122.55c-3.8,1.69-7.24,2.23-7.69,1.2c-0.44-1.03,2.27-3.23,6.07-4.93c3.8-1.69,7.24-2.23,7.69-1.2
			C135.34,118.65,132.62,120.86,128.82,122.55"/>
		<path class="st4" d="M110.18,134.98c-4.02,1.05-7.5,1.02-7.78-0.07c-0.28-1.09,2.76-2.82,6.78-3.87c4.02-1.05,7.5-1.02,7.78,0.07
			C117.23,132.2,114.19,133.93,110.18,134.98"/>
		<path class="st4" d="M128.51,132.28c-4.02-1.03-7.07-2.74-6.8-3.83c0.27-1.09,3.75-1.14,7.77-0.12c4.03,1.02,7.07,2.74,6.8,3.83
			C136.02,133.25,132.54,133.3,128.51,132.28"/>
		<path class="st4" d="M126.06,135.34c-2.99-2.92-4.79-5.94-4.02-6.75c0.77-0.81,3.81,0.9,6.8,3.82c2.99,2.92,4.79,5.94,4.02,6.75
			C132.1,139.97,129.05,138.26,126.06,135.34"/>
		<path class="st4" d="M108.34,120.63c-2.99-2.92-4.79-5.94-4.02-6.75c0.77-0.81,3.81,0.9,6.8,3.82c2.99,2.92,4.79,5.94,4.02,6.75
			C114.37,125.26,111.33,123.55,108.34,120.63"/>
		<path class="st4" d="M107.21,124.75c-4.02-1.03-7.07-2.74-6.8-3.83c0.27-1.09,3.75-1.14,7.77-0.12c4.03,1.02,7.07,2.74,6.8,3.83
			C114.72,125.73,111.24,125.78,107.21,124.75"/>
		<path class="st4" d="M121.66,135.86c-0.74-4.14-0.45-7.66,0.64-7.86c1.09-0.2,2.57,3,3.31,7.14c0.74,4.14,0.45,7.66-0.64,7.86
			C123.88,143.2,122.4,140,121.66,135.86"/>
		<path class="st4" d="M111.53,117.27c-0.74-4.14-0.45-7.66,0.64-7.86c1.09-0.2,2.57,3,3.31,7.14c0.74,4.14,0.45,7.66-0.64,7.86
			C113.75,124.6,112.26,121.41,111.53,117.27"/>
		<path class="st4" d="M123.89,115.64c2.66-3.23,5.51-5.26,6.36-4.54c0.85,0.72-0.62,3.92-3.28,7.15c-2.66,3.23-5.51,5.26-6.36,4.54
			S121.23,118.87,123.89,115.64"/>
		<path class="st4" d="M115.37,116.16c-0.24-4.2,0.46-7.66,1.56-7.73c1.11-0.07,2.2,3.29,2.44,7.49c0.24,4.2-0.46,7.66-1.56,7.73
			C116.7,123.72,115.61,120.37,115.37,116.16"/>
		<path class="st4" d="M117.89,138.09c-0.24-4.2,0.46-7.66,1.56-7.73c1.11-0.07,2.2,3.29,2.44,7.49c0.24,4.2-0.46,7.66-1.56,7.73
			C119.23,145.65,118.13,142.3,117.89,138.09"/>
		<path class="st4" d="M129.5,128.91c-4.09-0.72-7.25-2.21-7.06-3.32c0.19-1.11,3.66-1.42,7.75-0.69c4.09,0.72,7.25,2.21,7.06,3.32
			C137.05,129.32,133.59,129.63,129.5,128.91"/>
		<path class="st4" d="M130.07,126.26c-4.02,1.05-7.5,1.02-7.78-0.07c-0.28-1.09,2.76-2.82,6.78-3.87c4.02-1.05,7.5-1.02,7.78,0.07
			C137.13,123.48,134.09,125.21,130.07,126.26"/>
		<path class="st4" d="M108.39,131.83c-4.02,1.05-7.5,1.02-7.78-0.07c-0.28-1.09,2.76-2.82,6.78-3.87c4.02-1.05,7.5-1.02,7.78,0.07
			C115.44,129.04,112.41,130.78,108.39,131.83"/>
		<path class="st4" d="M107.03,128.03c-4.14,0.25-7.55-0.46-7.62-1.59s3.24-2.23,7.38-2.48c4.14-0.25,7.55,0.46,7.62,1.58
			C114.47,126.67,111.17,127.78,107.03,128.03"/>
		<path class="st4" d="M109.6,136c2.66-3.23,5.51-5.26,6.36-4.54c0.85,0.72-0.62,3.92-3.28,7.15c-2.66,3.23-5.51,5.26-6.36,4.54
			C105.47,142.43,106.94,139.23,109.6,136"/>
		<path class="st5" d="M121.15,115.59c0,4.21-0.9,7.62-2.01,7.62c-1.11,0-2.01-3.41-2.01-7.62s0.9-7.62,2.01-7.62
			C120.25,107.96,121.15,111.38,121.15,115.59"/>
		<path class="st5" d="M119.14,138.38c0,4.21-0.9,7.62-2.01,7.62c-1.11,0-2.01-3.41-2.01-7.62c0-4.21,0.9-7.62,2.01-7.62
			C118.25,130.76,119.14,134.17,119.14,138.38"/>
		<path class="st5" d="M127.33,120.76c-3.46,2.33-6.75,3.46-7.37,2.52c-0.61-0.94,1.69-3.58,5.15-5.91
			c3.46-2.33,6.75-3.46,7.37-2.52C133.09,115.78,130.79,118.43,127.33,120.76"/>
		<path class="st5" d="M111.07,136.26c-3.78,1.74-7.22,2.31-7.67,1.29c-0.46-1.02,2.24-3.26,6.02-4.99
			c3.78-1.74,7.22-2.31,7.67-1.29C117.54,132.29,114.85,134.52,111.07,136.26"/>
		<path class="st5" d="M128.68,130.39c-4.14-0.31-7.43-1.46-7.35-2.59c0.08-1.12,3.5-1.78,7.64-1.47c4.14,0.31,7.43,1.47,7.35,2.59
			C136.23,130.04,132.81,130.7,128.68,130.39"/>
		<path class="st5" d="M126.78,133.84c-3.44-2.36-5.72-5.02-5.1-5.95c0.62-0.93,3.91,0.22,7.35,2.58c3.44,2.35,5.73,5.02,5.1,5.95
			C133.51,137.35,130.22,136.19,126.78,133.84"/>
		<path class="st5" d="M106.82,122.44c-3.44-2.35-5.72-5.02-5.11-5.95c0.62-0.93,3.91,0.22,7.35,2.58c3.44,2.36,5.72,5.02,5.1,5.95
			C113.55,125.95,110.26,124.8,106.82,122.44"/>
		<path class="st5" d="M106.42,126.7c-4.14-0.31-7.43-1.47-7.35-2.59c0.08-1.12,3.5-1.78,7.64-1.47c4.14,0.31,7.43,1.46,7.35,2.59
			C113.98,126.35,110.56,127.01,106.42,126.7"/>
		<path class="st5" d="M122.53,135.12c-1.43-3.95-1.75-7.47-0.71-7.86c1.04-0.39,3.04,2.5,4.47,6.46c1.43,3.95,1.75,7.47,0.71,7.86
			C125.96,141.96,123.96,139.07,122.53,135.12"/>
		<path class="st5" d="M109.4,118.57c-1.43-3.95-1.75-7.47-0.71-7.86s3.04,2.5,4.47,6.46c1.43,3.95,1.75,7.47,0.71,7.86
			C112.83,125.41,110.83,122.52,109.4,118.57"/>
		<path class="st5" d="M121.3,114.81c2.07-3.65,4.53-6.15,5.49-5.58c0.96,0.56,0.05,3.97-2.02,7.62c-2.08,3.65-4.53,6.15-5.49,5.58
			C118.32,121.87,119.23,118.46,121.3,114.81"/>
		<path class="st5" d="M112.99,116.81c-0.95-4.1-0.85-7.63,0.23-7.89c1.08-0.26,2.72,2.86,3.67,6.95c0.95,4.1,0.85,7.63-0.23,7.89
			C115.59,124.02,113.95,120.91,112.99,116.81"/>
		<path class="st5" d="M119.2,137.98c-0.95-4.1-0.85-7.63,0.23-7.89c1.08-0.26,2.72,2.85,3.68,6.95c0.95,4.1,0.85,7.63-0.23,7.89
			C121.79,145.19,120.15,142.07,119.2,137.98"/>
		<path class="st5" d="M129.07,126.9c-4.15,0-7.51-0.91-7.51-2.03s3.36-2.03,7.51-2.03s7.51,0.91,7.51,2.03
			S133.22,126.9,129.07,126.9"/>
		<path class="st5" d="M129.19,124.19c-3.78,1.74-7.22,2.31-7.67,1.29c-0.46-1.02,2.24-3.26,6.02-5c3.78-1.74,7.22-2.31,7.67-1.29
			C135.67,120.22,132.97,122.46,129.19,124.19"/>
		<path class="st5" d="M108.77,133.46c-3.78,1.74-7.22,2.31-7.67,1.29c-0.46-1.02,2.24-3.26,6.02-4.99s7.21-2.31,7.67-1.29
			C115.25,129.49,112.55,131.73,108.77,133.46"/>
		<path class="st5" d="M106.79,129.96c-4.04,0.97-7.52,0.86-7.77-0.23c-0.25-1.09,2.81-2.76,6.85-3.73
			c4.04-0.97,7.52-0.86,7.77,0.23C113.89,127.32,110.83,128.99,106.79,129.96"/>
		<path class="st5" d="M110.67,137.36c2.08-3.65,4.53-6.15,5.49-5.58s0.06,3.97-2.02,7.62c-2.07,3.65-4.53,6.15-5.49,5.58
			C107.69,144.42,108.6,141.01,110.67,137.36"/>
		<path class="st6" d="M114.4,127.24c0,0.63-0.5,1.14-1.12,1.14c-0.62,0-1.12-0.51-1.12-1.14s0.5-1.14,1.12-1.14
			C113.89,126.1,114.4,126.61,114.4,127.24"/>
		<path class="st6" d="M115.52,125.61c0,0.63-0.5,1.14-1.12,1.14s-1.12-0.51-1.12-1.14s0.5-1.14,1.12-1.14
			S115.52,124.98,115.52,125.61"/>
		<path class="st6" d="M116.41,128.01c0,0.63-0.5,1.14-1.12,1.14c-0.62,0-1.12-0.51-1.12-1.14c0-0.63,0.5-1.14,1.12-1.14
			C115.91,126.87,116.41,127.38,116.41,128.01"/>
		<path class="st6" d="M117.63,126.1c0,0.63-0.5,1.14-1.12,1.14c-0.62,0-1.12-0.51-1.12-1.14c0-0.63,0.5-1.14,1.12-1.14
			C117.13,124.96,117.63,125.47,117.63,126.1"/>
		<path class="st6" d="M119.79,126.05c0,0.63-0.5,1.14-1.12,1.14c-0.62,0-1.12-0.51-1.12-1.14s0.5-1.14,1.12-1.14
			C119.28,124.91,119.79,125.42,119.79,126.05"/>
		<path class="st6" d="M117.8,128.01c0,0.63-0.5,1.14-1.12,1.14c-0.62,0-1.12-0.51-1.12-1.14c0-0.63,0.5-1.14,1.12-1.14
			C117.3,126.87,117.8,127.38,117.8,128.01"/>
		<path class="st6" d="M117.54,123.44c0,0.63-0.5,1.14-1.12,1.14s-1.12-0.51-1.12-1.14c0-0.63,0.5-1.14,1.12-1.14
			S117.54,122.81,117.54,123.44"/>
		<path class="st6" d="M119.79,127.38c0,0.63-0.5,1.14-1.12,1.14c-0.62,0-1.12-0.51-1.12-1.14s0.5-1.14,1.12-1.14
			C119.28,126.24,119.79,126.75,119.79,127.38"/>
		<path class="st6" d="M118.89,124.35c0,0.63-0.5,1.14-1.12,1.14c-0.62,0-1.12-0.51-1.12-1.14c0-0.63,0.5-1.14,1.12-1.14
			C118.39,123.21,118.89,123.72,118.89,124.35"/>
		<path class="st6" d="M121.93,124.87c0,0.63-0.5,1.14-1.12,1.14c-0.62,0-1.12-0.51-1.12-1.14c0-0.63,0.5-1.14,1.12-1.14
			C121.43,123.73,121.93,124.24,121.93,124.87"/>
		<path class="st7" d="M121.59,127.38c0,0.63-0.66,1.14-1.46,1.14c-0.81,0-1.46-0.51-1.46-1.14s0.66-1.14,1.46-1.14
			C120.94,126.24,121.59,126.75,121.59,127.38"/>
		<path class="st7" d="M118.46,128.05c0,0.63-0.5,1.14-1.12,1.14c-0.62,0-1.12-0.51-1.12-1.14c0-0.63,0.5-1.14,1.12-1.14
			C117.95,126.91,118.46,127.42,118.46,128.05"/>
		<path class="st7" d="M118.89,126.09c0,0.63-0.5,1.14-1.12,1.14c-0.62,0-1.12-0.51-1.12-1.14c0-0.63,0.5-1.14,1.12-1.14
			C118.39,124.95,118.89,125.46,118.89,126.09"/>
		<path class="st7" d="M115.52,126.76c0,0.63-0.5,1.14-1.12,1.14s-1.12-0.51-1.12-1.14c0-0.63,0.5-1.14,1.12-1.14
			S115.52,126.13,115.52,126.76"/>
		<path class="st7" d="M120.42,124c0,0.63-0.5,1.14-1.12,1.14c-0.62,0-1.12-0.51-1.12-1.14c0-0.63,0.5-1.14,1.12-1.14
			C119.91,122.86,120.42,123.37,120.42,124"/>
		<path class="st8" d="M117.25,124.58c0,0.63-0.5,1.14-1.12,1.14c-0.62,0-1.12-0.51-1.12-1.14c0-0.63,0.5-1.14,1.12-1.14
			C116.74,123.44,117.25,123.95,117.25,124.58"/>
		<path class="st8" d="M120.81,128.53c0,0.63-0.5,1.14-1.12,1.14s-1.12-0.51-1.12-1.14c0-0.63,0.5-1.14,1.12-1.14
			S120.81,127.9,120.81,128.53"/>
		<path class="st8" d="M115.15,129.15c0,0.63-0.5,1.14-1.12,1.14s-1.12-0.51-1.12-1.14s0.5-1.14,1.12-1.14
			S115.15,128.52,115.15,129.15"/>
		<path class="st8" d="M121.48,125.72c0,0.63-0.5,1.14-1.12,1.14c-0.62,0-1.12-0.51-1.12-1.14c0-0.63,0.5-1.14,1.12-1.14
			C120.98,124.58,121.48,125.09,121.48,125.72"/>
		<path class="st8" d="M117.63,126.79c0,0.63-0.5,1.14-1.12,1.14c-0.62,0-1.12-0.51-1.12-1.14s0.5-1.14,1.12-1.14
			C117.13,125.65,117.63,126.16,117.63,126.79"/>
		<path class="st6" d="M120.01,127.72c-0.44,0.45-0.44,1.17,0,1.61s1.15,0.45,1.59,0c0.44-0.45,0.44-1.17,0-1.61
			C121.17,127.27,120.45,127.27,120.01,127.72"/>
		<path class="st6" d="M119.56,129.47c-0.44,0.45-0.44,1.17,0,1.61c0.44,0.45,1.15,0.45,1.59,0c0.44-0.45,0.44-1.17,0-1.61
			C120.71,129.02,119.99,129.02,119.56,129.47"/>
		<path class="st6" d="M115.13,131.36c-0.44,0.45-0.44,1.17,0,1.61c0.44,0.45,1.15,0.45,1.59,0c0.44-0.45,0.44-1.17,0-1.61
			C116.28,130.91,115.57,130.91,115.13,131.36"/>
		<path class="st6" d="M119.23,130.58c-0.44,0.45-0.44,1.17,0,1.61c0.44,0.45,1.15,0.45,1.59,0s0.44-1.17,0-1.61
			S119.67,130.13,119.23,130.58"/>
		<path class="st6" d="M117.74,129c-0.44,0.45-0.44,1.17,0,1.61c0.44,0.45,1.15,0.45,1.59,0c0.44-0.45,0.44-1.17,0-1.61
			C118.89,128.55,118.18,128.55,117.74,129"/>
		<path class="st6" d="M117.77,131.8c-0.44,0.45-0.44,1.17,0,1.61c0.44,0.45,1.15,0.45,1.59,0c0.44-0.45,0.44-1.17,0-1.61
			C118.93,131.36,118.21,131.36,117.77,131.8"/>
		<path class="st8" d="M121.15,128.77c-0.44,0.45-0.44,1.17,0,1.61c0.44,0.45,1.15,0.45,1.59,0c0.44-0.45,0.44-1.17,0-1.61
			C122.3,128.32,121.58,128.32,121.15,128.77"/>
		<path class="st6" d="M116.81,129.94c-0.44,0.45-0.44,1.17,0,1.61c0.44,0.45,1.15,0.45,1.59,0c0.44-0.45,0.44-1.17,0-1.61
			C117.96,129.49,117.25,129.49,116.81,129.94"/>
		<path class="st6" d="M121.15,127.85c-0.44,0.45-0.44,1.17,0,1.61c0.44,0.45,1.15,0.45,1.59,0c0.44-0.45,0.44-1.17,0-1.61
			C122.3,127.41,121.58,127.41,121.15,127.85"/>
		<path class="st6" d="M117.04,126.62c-0.44,0.45-0.44,1.17,0,1.61s1.15,0.45,1.59,0c0.44-0.45,0.44-1.17,0-1.61
			C118.19,126.17,117.48,126.17,117.04,126.62"/>
		<path class="st7" d="M115.53,128.65c-0.44,0.45-0.33,1.28,0.24,1.86c0.57,0.58,1.39,0.69,1.83,0.24c0.44-0.45,0.33-1.28-0.24-1.86
			C116.79,128.31,115.97,128.2,115.53,128.65"/>
		<path class="st7" d="M117.28,131.36c-0.44,0.45-0.44,1.17,0,1.61c0.44,0.45,1.15,0.45,1.59,0c0.44-0.45,0.44-1.17,0-1.61
			C118.44,130.91,117.72,130.91,117.28,131.36"/>
		<path class="st7" d="M118.34,129.67c-0.44,0.45-0.44,1.17,0,1.61c0.44,0.45,1.15,0.45,1.59,0c0.44-0.45,0.44-1.17,0-1.61
			C119.49,129.22,118.78,129.22,118.34,129.67"/>
		<path class="st7" d="M120.56,126.58c-0.44,0.45-0.44,1.17,0,1.61c0.44,0.45,1.15,0.45,1.59,0c0.44-0.45,0.44-1.17,0-1.61
			C121.71,126.13,120.99,126.13,120.56,126.58"/>
		<path class="st7" d="M118.72,127.09c-0.44,0.45-0.44,1.17,0,1.61c0.44,0.45,1.15,0.45,1.59,0s0.44-1.17,0-1.61
			S119.16,126.65,118.72,127.09"/>
		<path class="st8" d="M121.59,125.77c-0.44,0.45-0.44,1.17,0,1.61c0.44,0.45,1.15,0.45,1.59,0c0.44-0.45,0.44-1.17,0-1.61
			C122.74,125.32,122.03,125.32,121.59,125.77"/>
		<path class="st8" d="M115.29,130.01c-0.44,0.45-0.44,1.17,0,1.61c0.44,0.45,1.15,0.45,1.59,0c0.44-0.45,0.44-1.17,0-1.61
			C116.44,129.57,115.73,129.57,115.29,130.01"/>
		<path class="st8" d="M114.49,129.21c-0.44,0.45-0.44,1.17,0,1.61c0.44,0.45,1.15,0.45,1.59,0c0.44-0.45,0.44-1.17,0-1.61
			C115.64,128.76,114.93,128.76,114.49,129.21"/>
		<path class="st8" d="M116.76,127.55c-0.44,0.45-0.44,1.17,0,1.61s1.15,0.45,1.59,0c0.44-0.45,0.44-1.17,0-1.61
			C117.92,127.1,117.2,127.1,116.76,127.55"/>
		<path class="st8" d="M118.74,131.07c-0.44,0.45-0.44,1.17,0,1.61c0.44,0.45,1.15,0.45,1.59,0c0.44-0.45,0.44-1.17,0-1.61
			C119.89,130.62,119.18,130.62,118.74,131.07"/>
		<path class="st4" d="M142.1,112.46c-1.12,2.84-2.64,4.89-3.38,4.59c-0.75-0.3-0.44-2.85,0.68-5.69c1.12-2.84,2.64-4.89,3.38-4.59
			C143.53,107.07,143.22,109.62,142.1,112.46"/>
		<path class="st4" d="M134.67,127.28c-1.12,2.84-2.64,4.89-3.38,4.59c-0.75-0.3-0.44-2.85,0.68-5.69s2.64-4.89,3.38-4.59
			C136.1,121.89,135.79,124.44,134.67,127.28"/>
		<path class="st4" d="M144.89,117.64c-2.95,0.62-5.48,0.48-5.64-0.32c-0.16-0.8,2.1-1.95,5.05-2.57c2.95-0.62,5.48-0.48,5.64,0.32
			C150.1,115.87,147.84,117.02,144.89,117.64"/>
		<path class="st4" d="M129.79,123.63c-3.01,0.13-5.48-0.42-5.52-1.24c-0.04-0.82,2.38-1.58,5.39-1.72
			c3.01-0.13,5.48,0.42,5.52,1.24C135.22,122.73,132.8,123.5,129.79,123.63"/>
		<path class="st4" d="M143.23,124.51c-2.71-1.34-4.62-3.03-4.27-3.76c0.35-0.73,2.84-0.24,5.55,1.1s4.62,3.03,4.26,3.76
			C148.42,126.35,145.94,125.85,143.23,124.51"/>
		<path class="st4" d="M141.03,126.31c-1.69-2.53-2.52-4.96-1.86-5.42c0.67-0.46,2.58,1.22,4.27,3.76c1.69,2.53,2.52,4.96,1.86,5.41
			C144.63,130.52,142.72,128.84,141.03,126.31"/>
		<path class="st4" d="M130.61,113.15c-1.69-2.53-2.52-4.96-1.86-5.42c0.67-0.46,2.58,1.22,4.27,3.76c1.69,2.53,2.52,4.96,1.86,5.42
			C134.21,117.36,132.3,115.68,130.61,113.15"/>
		<path class="st4" d="M129.2,115.91c-2.71-1.34-4.62-3.03-4.27-3.76c0.35-0.73,2.84-0.24,5.55,1.1c2.71,1.34,4.62,3.03,4.26,3.76
			C134.39,117.75,131.91,117.25,129.2,115.91"/>
		<path class="st4" d="M137.82,126.01c0.09-3.06,0.82-5.52,1.62-5.49c0.8,0.02,1.38,2.52,1.29,5.58c-0.09,3.06-0.82,5.52-1.62,5.49
			C138.31,131.56,137.73,129.07,137.82,126.01"/>
		<path class="st4" d="M133.38,111.24c0.09-3.06,0.82-5.52,1.62-5.49c0.8,0.02,1.38,2.52,1.29,5.58c-0.09,3.06-0.82,5.52-1.62,5.49
			C133.87,116.8,133.29,114.3,133.38,111.24"/>
		<path class="st4" d="M142.41,111.98c2.37-1.89,4.7-2.9,5.19-2.26c0.5,0.64-1.02,2.69-3.39,4.58s-4.7,2.9-5.19,2.26
			C138.52,115.92,140.04,113.87,142.41,111.98"/>
		<path class="st4" d="M136.27,111.05c0.45-3.03,1.46-5.38,2.26-5.26c0.8,0.12,1.08,2.67,0.62,5.7c-0.45,3.02-1.46,5.38-2.26,5.26
			S135.82,114.07,136.27,111.05"/>
		<path class="st4" d="M134.81,127.02c0.45-3.03,1.46-5.38,2.26-5.26c0.8,0.12,1.08,2.67,0.62,5.7c-0.45,3.02-1.46,5.38-2.26,5.26
			C134.64,132.6,134.36,130.05,134.81,127.02"/>
		<path class="st4" d="M144.43,122.27c-2.8-1.14-4.82-2.68-4.52-3.43s2.81-0.45,5.61,0.69c2.8,1.14,4.82,2.68,4.52,3.43
			C149.74,123.71,147.22,123.4,144.43,122.27"/>
		<path class="st4" d="M145.23,120.47c-3.01,0.13-5.48-0.42-5.52-1.24c-0.03-0.82,2.38-1.58,5.39-1.72
			c3.01-0.13,5.48,0.42,5.52,1.24C150.66,119.57,148.24,120.34,145.23,120.47"/>
		<path class="st4" d="M128.99,121.11c-3.01,0.13-5.48-0.42-5.52-1.24c-0.03-0.82,2.38-1.58,5.39-1.72
			c3.01-0.13,5.48,0.42,5.52,1.24C134.41,120.21,132,120.98,128.99,121.11"/>
		<path class="st4" d="M128.58,118.21c-2.98-0.46-5.3-1.48-5.18-2.29c0.12-0.81,2.63-1.09,5.62-0.63c2.98,0.46,5.3,1.48,5.18,2.29
			C134.08,118.38,131.56,118.66,128.58,118.21"/>
		<path class="st4" d="M129.23,124.27c2.37-1.89,4.7-2.9,5.19-2.26c0.5,0.64-1.02,2.7-3.39,4.58c-2.37,1.89-4.7,2.9-5.19,2.26
			C125.34,128.21,126.86,126.15,129.23,124.27"/>
		<path class="st5" d="M140.47,111.52c-0.62,2.99-1.77,5.28-2.56,5.11c-0.79-0.17-0.92-2.73-0.29-5.72
			c0.62-2.99,1.77-5.28,2.56-5.11C140.96,105.96,141.09,108.53,140.47,111.52"/>
		<path class="st5" d="M135.66,127.42c-0.62,2.99-1.77,5.28-2.56,5.11c-0.79-0.17-0.92-2.73-0.29-5.72
			c0.62-2.99,1.77-5.28,2.56-5.11C136.15,121.86,136.29,124.42,135.66,127.42"/>
		<path class="st5" d="M144.1,116.14c-2.8,1.13-5.32,1.43-5.61,0.67c-0.3-0.76,1.74-2.29,4.54-3.42c2.8-1.13,5.32-1.43,5.61-0.67
			C148.93,113.48,146.9,115.01,144.1,116.14"/>
		<path class="st5" d="M130.24,124.67c-2.95,0.66-5.47,0.54-5.65-0.26c-0.17-0.8,2.07-1.98,5.02-2.63c2.94-0.66,5.47-0.54,5.64,0.26
			C135.43,122.84,133.18,124.02,130.24,124.67"/>
		<path class="st5" d="M143.62,123.19c-2.9-0.85-5.06-2.17-4.84-2.96c0.22-0.78,2.75-0.73,5.65,0.12c2.9,0.85,5.06,2.18,4.84,2.96
			C149.05,124.1,146.52,124.04,143.62,123.19"/>
		<path class="st5" d="M141.76,125.35c-2.1-2.2-3.32-4.44-2.75-5.01c0.58-0.57,2.75,0.75,4.84,2.96c2.1,2.2,3.32,4.44,2.75,5.01
			C146.03,128.88,143.86,127.55,141.76,125.35"/>
		<path class="st5" d="M129.27,114.2c-2.1-2.2-3.33-4.44-2.75-5.01c0.58-0.57,2.75,0.76,4.84,2.96s3.33,4.44,2.75,5.01
			C133.53,117.73,131.36,116.4,129.27,114.2"/>
		<path class="st5" d="M128.35,117.17c-2.9-0.85-5.06-2.18-4.84-2.96c0.22-0.78,2.75-0.73,5.65,0.12c2.9,0.85,5.06,2.18,4.84,2.96
			C133.77,118.07,131.24,118.02,128.35,117.17"/>
		<path class="st5" d="M138.55,125.61c-0.43-3.03-0.13-5.58,0.66-5.69c0.8-0.12,1.79,2.24,2.22,5.27c0.43,3.03,0.13,5.58-0.66,5.69
			C139.98,131,138.98,128.64,138.55,125.61"/>
		<path class="st5" d="M131.67,111.85c-0.43-3.03-0.13-5.58,0.66-5.69c0.8-0.12,1.79,2.24,2.22,5.27c0.43,3.03,0.13,5.58-0.66,5.69
			C133.09,117.23,132.1,114.87,131.67,111.85"/>
		<path class="st5" d="M140.69,110.99c2.02-2.27,4.13-3.68,4.73-3.13c0.6,0.55-0.55,2.83-2.57,5.11c-2.02,2.28-4.14,3.68-4.73,3.13
			C137.53,115.56,138.68,113.27,140.69,110.99"/>
		<path class="st5" d="M134.49,111.15c-0.07-3.06,0.53-5.55,1.33-5.57c0.81-0.02,1.51,2.45,1.58,5.5c0.07,3.06-0.53,5.55-1.33,5.57
			C135.27,116.67,134.56,114.21,134.49,111.15"/>
		<path class="st5" d="M135.76,127.14c-0.07-3.06,0.53-5.55,1.33-5.57c0.8-0.02,1.51,2.44,1.58,5.5c0.07,3.06-0.53,5.55-1.33,5.57
			C136.54,132.66,135.83,130.2,135.76,127.14"/>
		<path class="st5" d="M144.42,120.78c-2.95-0.63-5.21-1.79-5.04-2.59c0.17-0.8,2.69-0.93,5.64-0.3c2.95,0.63,5.21,1.79,5.04,2.59
			C149.9,121.28,147.37,121.41,144.42,120.78"/>
		<path class="st5" d="M144.91,118.86c-2.95,0.66-5.47,0.54-5.65-0.26c-0.17-0.8,2.07-1.98,5.02-2.63c2.94-0.66,5.47-0.54,5.64,0.26
			C150.1,117.03,147.85,118.21,144.91,118.86"/>
		<path class="st5" d="M129.02,122.34c-2.94,0.66-5.47,0.54-5.64-0.26c-0.17-0.8,2.07-1.98,5.02-2.63c2.94-0.66,5.47-0.54,5.65,0.26
			C134.21,120.5,131.96,121.68,129.02,122.34"/>
		<path class="st5" d="M128.13,119.54c-3.01,0.07-5.47-0.54-5.49-1.35c-0.02-0.82,2.41-1.53,5.43-1.6c3.01-0.07,5.47,0.54,5.49,1.35
			C133.57,118.75,131.14,119.47,128.13,119.54"/>
		<path class="st5" d="M129.79,125.4c2.02-2.28,4.13-3.68,4.73-3.13c0.6,0.54-0.55,2.83-2.57,5.11c-2.01,2.27-4.13,3.68-4.73,3.13
			C126.63,129.96,127.77,127.67,129.79,125.4"/>
		<path class="st6" d="M134.31,118.06c0.28-0.36,0.23-0.88-0.12-1.17c-0.35-0.29-0.87-0.23-1.15,0.13
			c-0.28,0.36-0.23,0.88,0.12,1.17C133.51,118.47,134.03,118.42,134.31,118.06"/>
		<path class="st6" d="M134.22,119.5c0.28-0.36,0.23-0.88-0.12-1.17c-0.35-0.29-0.87-0.23-1.15,0.13c-0.28,0.36-0.23,0.88,0.12,1.17
			C133.42,119.91,133.93,119.86,134.22,119.5"/>
		<path class="st6" d="M135.8,118.56c0.28-0.36,0.23-0.88-0.12-1.17c-0.35-0.29-0.87-0.23-1.15,0.13c-0.28,0.36-0.23,0.88,0.12,1.17
			C135,118.97,135.51,118.91,135.8,118.56"/>
		<path class="st6" d="M135.63,120.2c0.28-0.36,0.23-0.88-0.12-1.17c-0.35-0.29-0.87-0.23-1.15,0.13c-0.28,0.36-0.23,0.88,0.12,1.17
			C134.83,120.61,135.35,120.56,135.63,120.2"/>
		<path class="st6" d="M136.83,121.23c0.28-0.36,0.23-0.88-0.12-1.17c-0.35-0.29-0.87-0.23-1.15,0.13
			c-0.28,0.36-0.23,0.88,0.12,1.17C136.03,121.64,136.54,121.58,136.83,121.23"/>
		<path class="st6" d="M136.58,119.2c0.28-0.36,0.23-0.88-0.12-1.17c-0.35-0.29-0.87-0.23-1.15,0.13c-0.28,0.36-0.23,0.88,0.12,1.17
			C135.79,119.61,136.3,119.56,136.58,119.2"/>
		<path class="st6" d="M134.38,121.66c0.28-0.36,0.23-0.88-0.12-1.17c-0.35-0.29-0.87-0.23-1.15,0.13
			c-0.28,0.36-0.23,0.88,0.12,1.17C133.58,122.07,134.1,122.02,134.38,121.66"/>
		<path class="st6" d="M137.43,120.47c0.28-0.36,0.23-0.88-0.12-1.17c-0.35-0.29-0.87-0.23-1.15,0.13
			c-0.28,0.36-0.23,0.88,0.12,1.17C136.63,120.88,137.14,120.83,137.43,120.47"/>
		<path class="st6" d="M135.56,121.77c0.28-0.36,0.23-0.88-0.12-1.17c-0.35-0.29-0.87-0.23-1.15,0.13
			c-0.28,0.36-0.23,0.88,0.12,1.17C134.76,122.19,135.27,122.13,135.56,121.77"/>
		<path class="st6" d="M137.51,122.89c0.28-0.36,0.23-0.88-0.12-1.17c-0.35-0.29-0.87-0.23-1.15,0.13
			c-0.28,0.36-0.23,0.88,0.12,1.17C136.71,123.3,137.23,123.24,137.51,122.89"/>
		<path class="st7" d="M138.45,121.3c0.28-0.36,0.14-0.95-0.32-1.32c-0.46-0.37-1.06-0.39-1.34-0.03c-0.28,0.36-0.14,0.95,0.32,1.32
			C137.56,121.65,138.16,121.66,138.45,121.3"/>
		<path class="st7" d="M136.97,119.48c0.28-0.36,0.23-0.88-0.12-1.17c-0.35-0.29-0.87-0.23-1.15,0.13
			c-0.28,0.36-0.23,0.88,0.12,1.17C136.17,119.89,136.69,119.84,136.97,119.48"/>
		<path class="st7" d="M136.34,120.79c0.28-0.36,0.23-0.88-0.12-1.17c-0.35-0.29-0.87-0.23-1.15,0.13
			c-0.28,0.36-0.23,0.88,0.12,1.17C135.54,121.2,136.06,121.15,136.34,120.79"/>
		<path class="st7" d="M134.73,118.85c0.28-0.36,0.23-0.88-0.12-1.17c-0.35-0.29-0.87-0.23-1.15,0.13
			c-0.28,0.36-0.23,0.88,0.12,1.17C133.93,119.27,134.44,119.21,134.73,118.85"/>
		<path class="st7" d="M136.26,122.68c0.28-0.36,0.23-0.88-0.12-1.17c-0.35-0.29-0.87-0.23-1.15,0.13
			c-0.28,0.36-0.23,0.88,0.12,1.17C135.46,123.09,135.98,123.03,136.26,122.68"/>
		<path class="st8" d="M134.73,120.88c0.28-0.36,0.23-0.88-0.12-1.17c-0.35-0.29-0.87-0.23-1.15,0.13
			c-0.28,0.36-0.23,0.88,0.12,1.17C133.93,121.29,134.45,121.24,134.73,120.88"/>
		<path class="st8" d="M138.52,120.3c0.28-0.36,0.23-0.88-0.12-1.17c-0.35-0.29-0.87-0.23-1.15,0.13c-0.28,0.36-0.23,0.88,0.12,1.17
			C137.72,120.71,138.23,120.65,138.52,120.3"/>
		<path class="st8" d="M135.6,117.33c0.28-0.36,0.23-0.88-0.12-1.17c-0.35-0.29-0.87-0.23-1.15,0.13c-0.28,0.36-0.23,0.88,0.12,1.17
			C134.8,117.74,135.31,117.69,135.6,117.33"/>
		<path class="st8" d="M137.64,122.19c0.28-0.36,0.23-0.88-0.12-1.17c-0.35-0.29-0.87-0.23-1.15,0.13
			c-0.28,0.36-0.23,0.88,0.12,1.17C136.84,122.61,137.36,122.55,137.64,122.19"/>
		<path class="st8" d="M135.94,119.81c0.28-0.36,0.23-0.88-0.12-1.17c-0.35-0.29-0.87-0.23-1.15,0.13
			c-0.28,0.36-0.23,0.88,0.12,1.17C135.14,120.22,135.66,120.16,135.94,119.81"/>
		<path class="st6" d="M137.7,120.39c-0.05-0.46,0.28-0.86,0.73-0.91c0.45-0.05,0.85,0.28,0.9,0.74c0.05,0.46-0.28,0.86-0.73,0.91
			C138.16,121.17,137.75,120.84,137.7,120.39"/>
		<path class="st6" d="M138.23,119.18c-0.05-0.45,0.28-0.86,0.72-0.91c0.45-0.05,0.85,0.28,0.9,0.74c0.05,0.46-0.28,0.86-0.73,0.91
			C138.68,119.97,138.28,119.64,138.23,119.18"/>
		<path class="st6" d="M136.58,116.07c-0.05-0.46,0.28-0.86,0.73-0.91c0.45-0.05,0.85,0.28,0.9,0.74c0.05,0.46-0.28,0.86-0.72,0.91
			C137.03,116.85,136.62,116.52,136.58,116.07"/>
		<path class="st6" d="M138.54,118.4c-0.05-0.46,0.28-0.86,0.73-0.91c0.45-0.05,0.85,0.28,0.9,0.74c0.05,0.46-0.28,0.86-0.72,0.91
			C139,119.19,138.59,118.86,138.54,118.4"/>
		<path class="st6" d="M136.99,118.61c-0.05-0.46,0.28-0.86,0.72-0.91c0.45-0.05,0.85,0.28,0.9,0.74c0.05,0.46-0.28,0.86-0.73,0.91
			C137.44,119.4,137.04,119.07,136.99,118.61"/>
		<path class="st6" d="M138.27,117.04c-0.05-0.45,0.28-0.86,0.72-0.91c0.45-0.05,0.85,0.28,0.9,0.74c0.05,0.46-0.28,0.86-0.73,0.91
			C138.72,117.82,138.32,117.49,138.27,117.04"/>
		<path class="st8" d="M138.82,120.32c-0.05-0.46,0.28-0.86,0.73-0.91c0.45-0.05,0.85,0.28,0.9,0.74c0.05,0.46-0.28,0.86-0.72,0.91
			C139.27,121.1,138.86,120.77,138.82,120.32"/>
		<path class="st6" d="M136.89,117.65c-0.05-0.45,0.28-0.86,0.72-0.91c0.45-0.05,0.85,0.28,0.9,0.74c0.05,0.46-0.28,0.86-0.73,0.91
			C137.34,118.43,136.93,118.1,136.89,117.65"/>
		<path class="st6" d="M138.41,120.83c-0.05-0.46,0.28-0.86,0.73-0.91c0.45-0.05,0.85,0.28,0.9,0.74c0.05,0.46-0.28,0.86-0.72,0.91
			C138.86,121.62,138.45,121.29,138.41,120.83"/>
		<path class="st6" d="M135.53,119.63c-0.05-0.46,0.28-0.86,0.72-0.91c0.45-0.05,0.85,0.28,0.9,0.74c0.05,0.46-0.28,0.86-0.73,0.91
			C135.98,120.42,135.58,120.09,135.53,119.63"/>
		<path class="st7" d="M135.58,117.79c-0.05-0.45,0.39-0.88,0.97-0.94c0.58-0.06,1.1,0.25,1.15,0.71c0.05,0.46-0.39,0.88-0.97,0.94
			C136.14,118.56,135.63,118.24,135.58,117.79"/>
		<path class="st7" d="M137.8,117.06c-0.05-0.46,0.28-0.86,0.72-0.91c0.45-0.05,0.85,0.28,0.9,0.74c0.05,0.46-0.28,0.86-0.73,0.91
			C138.25,117.85,137.84,117.52,137.8,117.06"/>
		<path class="st7" d="M137.63,118.51c-0.05-0.45,0.28-0.86,0.72-0.91c0.45-0.05,0.85,0.28,0.9,0.74c0.05,0.45-0.28,0.86-0.73,0.91
			C138.08,119.29,137.68,118.96,137.63,118.51"/>
		<path class="st7" d="M137.5,121.28c-0.05-0.45,0.28-0.86,0.73-0.91c0.45-0.05,0.85,0.28,0.9,0.74c0.05,0.46-0.28,0.86-0.73,0.91
			C137.95,122.07,137.55,121.74,137.5,121.28"/>
		<path class="st7" d="M136.69,120.14c-0.05-0.46,0.28-0.86,0.73-0.91c0.45-0.05,0.85,0.28,0.9,0.73c0.05,0.46-0.28,0.86-0.72,0.91
			C137.14,120.93,136.74,120.6,136.69,120.14"/>
		<path class="st8" d="M137.72,122.22c-0.05-0.46,0.28-0.86,0.73-0.91c0.45-0.05,0.85,0.28,0.9,0.74c0.05,0.46-0.28,0.86-0.72,0.91
			C138.17,123,137.77,122.67,137.72,122.22"/>
		<path class="st8" d="M136.06,116.9c-0.05-0.46,0.28-0.86,0.73-0.91c0.45-0.05,0.85,0.28,0.9,0.74c0.05,0.46-0.28,0.86-0.73,0.91
			C136.51,117.69,136.11,117.36,136.06,116.9"/>
		<path class="st8" d="M135.25,116.99c-0.05-0.46,0.28-0.87,0.72-0.91c0.45-0.05,0.85,0.28,0.9,0.74c0.05,0.45-0.28,0.86-0.73,0.91
			C135.7,117.78,135.29,117.45,135.25,116.99"/>
		<path class="st8" d="M135.79,118.98c-0.05-0.45,0.28-0.86,0.72-0.91c0.45-0.05,0.85,0.28,0.9,0.74c0.05,0.46-0.28,0.86-0.73,0.91
			C136.24,119.76,135.84,119.43,135.79,118.98"/>
		<path class="st8" d="M138.49,117.9c-0.05-0.46,0.28-0.86,0.73-0.91c0.45-0.05,0.85,0.28,0.9,0.74c0.05,0.46-0.28,0.86-0.72,0.91
			C138.94,118.69,138.54,118.36,138.49,117.9"/>
	</g>
</g>
<g id="Text">
</g>
<g id="Safe_Area" class="st0">
	<circle class="st9" cx="126" cy="126" r="54"/>
</g>
</svg>
