<?xml version="1.0" encoding="utf-8"?>
<!-- Generator: Adobe Illustrator 23.0.2, SVG Export Plug-In . SVG Version: 6.00 Build 0)  -->
<svg version="1.1" xmlns="http://www.w3.org/2000/svg" xmlns:xlink="http://www.w3.org/1999/xlink" x="0px" y="0px"
	 viewBox="0 0 252 252" style="enable-background:new 0 0 252 252;" xml:space="preserve">
<style type="text/css">
	.st0{display:none;}
	.st1{display:inline;fill:#FFFFFF;stroke:#252723;stroke-miterlimit:10;}
	.st2{fill:#FFFFFF;}
	.st3{fill:#DEE9BE;}
	.st4{fill:#A8924C;}
	.st5{fill:#A8A16B;}
	.st6{display:inline;fill:none;stroke:#252723;stroke-miterlimit:10;}
</style>
<g id="Bleed" class="st0">
	<circle class="st1" cx="126" cy="126" r="72"/>
</g>
<g id="Background">
</g>
<g id="Image">
	<circle class="st2" cx="126" cy="126" r="57.66"/>
	<circle class="st3" cx="126" cy="126" r="50.01"/>
	<circle class="st2" cx="126" cy="126" r="40.72"/>
	<circle class="st3" cx="126" cy="126" r="36"/>
	<path class="st4" d="M142.55,103.21c0-0.31,0.01-0.62,0.04-0.93h-32.63c0.03,0.31,0.04,0.62,0.04,0.93c0,4.05-2.34,7.68-6.06,10.17
		v15.36l7.12,6.77l5.49,5.22l9.45,8.99l9.45-8.99l4.8-4.56l7.81-7.43V113C144.66,110.53,142.55,107.06,142.55,103.21z
		 M144.79,128.34l-5.33,5.07l-7.7,7.32l-5.76,5.48l-5.76-5.48l-7.7-7.32l-5.33-5.07v-13.09c3.16-2.12,5.16-5.21,5.16-8.66
		c0-0.27-0.01-0.54-0.04-0.8h27.8c-0.02,0.26-0.03,0.53-0.03,0.8c0,3.27,1.8,6.23,4.69,8.33V128.34z"/>
	<path class="st4" d="M144.79,114.92v13.42l-5.33,5.07l-7.7,7.32l-5.76,5.48l-5.76-5.48l-7.7-7.32l-5.33-5.07v-13.09
		c3.16-2.12,5.16-5.21,5.16-8.66c0-0.27-0.01-0.54-0.04-0.8h27.8c-0.02,0.26-0.03,0.53-0.03,0.8
		C140.1,109.86,141.9,112.82,144.79,114.92z"/>
	<path class="st5" d="M144.94,114.84v13.52L126,146.36l-18.94-18.01v-13.19c3.19-2.13,5.2-5.25,5.2-8.72c0-0.27-0.01-0.54-0.03-0.8
		h28.01c-0.02,0.26-0.03,0.53-0.03,0.8C140.2,109.74,142.02,112.72,144.94,114.84z"/>
	<path class="st5" d="M144.79,114.92v13.42l-5.33,5.07l-7.7,7.32l-5.76,5.48l-5.76-5.48l-7.7-7.32l-5.33-5.07v-13.09
		c3.16-2.12,5.16-5.21,5.16-8.66c0-0.27-0.01-0.54-0.04-0.8h27.8c-0.02,0.26-0.03,0.53-0.03,0.8
		C140.1,109.86,141.9,112.82,144.79,114.92z"/>
	<path class="st5" d="M139.36,117v10.89L126,142.41l-13.36-14.51v-10.63c2.25-1.72,3.67-4.23,3.67-7.03c0-0.22-0.01-0.43-0.02-0.65
		h19.76c-0.02,0.21-0.02,0.43-0.02,0.65C136.02,112.9,137.3,115.3,139.36,117z"/>
	<circle class="st4" cx="126.02" cy="120.91" r="11.31"/>
	<polygon class="st5" points="131.58,129.95 125.82,126.74 119.92,129.66 121.19,123.2 116.59,118.48 123.13,117.7 126.19,111.87 
		128.96,117.84 135.45,118.95 130.62,123.43 	"/>
	<polygon class="st4" points="139.98,133.41 131.96,140.73 119.98,140.73 111.96,133.41 	"/>
	<polygon class="st4" points="119.76,140.73 119.63,140.73 112.01,133.77 112.13,133.77 	"/>
</g>
<g id="Text">
	<g>
		<path class="st2" d="M107.96,86.6l-1.06,0.5l0.88,1.87c0.12,0.26,0.01,0.57-0.26,0.7c-0.26,0.12-0.57,0.01-0.7-0.25l-2.4-5.07
			c-0.13-0.27-0.01-0.58,0.25-0.7l0.01,0l1.53-0.72c1.02-0.48,2.24-0.05,2.72,0.98C109.42,84.9,108.99,86.12,107.96,86.6z
			 M106.45,86.14l1.06-0.5c0.5-0.24,0.7-0.81,0.48-1.3c-0.24-0.5-0.82-0.71-1.32-0.47l-1.06,0.5L106.45,86.14z"/>
		<path class="st2" d="M113.26,82.81c0.08,0.25-0.05,0.55-0.32,0.64c-0.21,0.07-0.37,0.18-0.48,0.35c-0.13,0.17-0.22,0.36-0.27,0.57
			c-0.12,0.36-0.11,0.74-0.11,0.88l0.58,1.71c0.09,0.26-0.06,0.55-0.33,0.64c-0.26,0.09-0.55-0.05-0.64-0.32l-1.2-3.55
			c-0.09-0.26,0.06-0.54,0.32-0.63c0.27-0.09,0.56,0.04,0.65,0.3l0.02,0.06c0.03-0.08,0.08-0.18,0.13-0.24
			c0.23-0.3,0.56-0.59,1.02-0.74C112.89,82.41,113.17,82.55,113.26,82.81z"/>
		<path class="st2" d="M115.7,85.82c-0.49-0.32-0.85-0.85-0.99-1.5c-0.14-0.63-0.01-1.23,0.29-1.76c0.32-0.53,0.8-0.91,1.45-1.05
			c0.61-0.13,1.23,0.02,1.7,0.37c0.51,0.35,0.86,0.85,1,1.48c0.14,0.65,0.03,1.28-0.3,1.77c-0.29,0.52-0.79,0.91-1.4,1.04
			C116.81,86.32,116.21,86.17,115.7,85.82z M115.72,84.11c0.09,0.4,0.28,0.7,0.55,0.91c0.28,0.17,0.61,0.23,0.97,0.15
			c0.32-0.07,0.6-0.25,0.78-0.53c0.18-0.31,0.24-0.66,0.15-1.06c-0.08-0.38-0.28-0.69-0.57-0.89c-0.28-0.15-0.61-0.24-0.93-0.17
			c-0.35,0.08-0.63,0.29-0.81,0.55C115.69,83.37,115.64,83.73,115.72,84.11z"/>
		<path class="st2" d="M122.61,81.14c0.03,0.28-0.19,0.54-0.48,0.57l-0.24,0.02l0.26,2.64c0.29-0.03,0.54,0.18,0.57,0.48
			c0.03,0.29-0.18,0.54-0.47,0.57c-0.58,0.06-1.1-0.37-1.15-0.94l-0.26-2.64l-0.27,0.03c-0.29,0.03-0.54-0.18-0.57-0.47
			c-0.03-0.29,0.18-0.54,0.47-0.57l0.27-0.03l-0.14-1.37c-0.03-0.29,0.18-0.54,0.48-0.57s0.54,0.18,0.57,0.47l0.14,1.37l0.24-0.02
			C122.32,80.64,122.58,80.84,122.61,81.14z"/>
		<path class="st2" d="M123.81,82.87c0.02-1.29,1.03-2.37,2.33-2.37c1.24,0.01,2.21,0.93,2.28,2.22c0,0.01,0,0.03,0,0.05
			c0,0.02,0,0.07-0.01,0.09c-0.03,0.23-0.23,0.38-0.5,0.38l-3.02-0.01c0.05,0.22,0.15,0.47,0.32,0.63c0.2,0.23,0.58,0.4,0.91,0.43
			c0.34,0.03,0.75-0.05,0.99-0.23c0.2-0.21,0.59-0.18,0.71-0.02c0.12,0.13,0.22,0.42,0,0.62c-0.47,0.43-1.03,0.62-1.7,0.62
			C124.81,85.24,123.81,84.16,123.81,82.87z M124.85,82.4l2.69,0.01c-0.09-0.38-0.58-0.94-1.4-1.01
			C125.33,81.44,124.92,82.01,124.85,82.4z"/>
		<path class="st2" d="M129.7,83c0.18-1.31,1.42-2.21,2.72-2.04c0.57,0.08,1.06,0.36,1.43,0.72c0.19,0.2,0.19,0.52,0.01,0.71
			c-0.22,0.2-0.53,0.2-0.72,0c-0.22-0.21-0.5-0.38-0.85-0.42c-0.76-0.1-1.48,0.44-1.58,1.16c-0.1,0.73,0.45,1.43,1.21,1.54
			c0.34,0.05,0.67-0.03,0.94-0.18c0.23-0.13,0.53-0.05,0.69,0.2c0.12,0.23,0.04,0.52-0.2,0.68c-0.45,0.24-1,0.37-1.57,0.29
			C130.47,85.49,129.53,84.29,129.7,83z"/>
		<path class="st2" d="M138.02,82.66c-0.07,0.28-0.37,0.45-0.64,0.38l-0.23-0.06l-0.64,2.57c0.29,0.07,0.45,0.36,0.38,0.64
			c-0.07,0.29-0.35,0.45-0.63,0.38c-0.56-0.14-0.91-0.72-0.77-1.28l0.65-2.57l-0.27-0.07c-0.28-0.07-0.45-0.36-0.38-0.63
			c0.07-0.28,0.35-0.45,0.63-0.38l0.27,0.07l0.34-1.34c0.07-0.28,0.36-0.45,0.64-0.38c0.29,0.07,0.45,0.35,0.38,0.63l-0.33,1.34
			l0.23,0.06C137.9,82.09,138.09,82.37,138.02,82.66z"/>
		<path class="st2" d="M140.78,83.53l-1.17,3.52c-0.09,0.27-0.37,0.42-0.65,0.33c-0.27-0.09-0.42-0.38-0.33-0.65l1.17-3.52
			c0.1-0.29,0.38-0.42,0.65-0.33C140.73,82.97,140.87,83.25,140.78,83.53z M141.32,81.9c-0.09,0.27-0.37,0.43-0.65,0.33
			c-0.27-0.09-0.41-0.39-0.32-0.66l0.06-0.19c0.09-0.27,0.38-0.41,0.65-0.33c0.28,0.09,0.42,0.38,0.33,0.65L141.32,81.9z"/>
		<path class="st2" d="M145.9,85.89l-2.92,2.74c-0.02,0.02-0.05,0.04-0.06,0.05c0,0.01-0.01,0-0.01,0
			c-0.03,0.01-0.05,0.03-0.08,0.04c0,0.01-0.01,0-0.01,0c-0.03,0.02-0.05,0.02-0.07,0.03c0,0-0.01,0-0.01,0
			c-0.02,0.01-0.05,0.02-0.08,0.02c0,0,0,0-0.02-0.01c0,0,0,0,0,0.01c-0.03-0.01-0.06-0.02-0.08-0.01c-0.01,0-0.01,0-0.02-0.01
			c-0.04-0.01-0.06-0.02-0.09-0.03c-0.02-0.01-0.04-0.02-0.07-0.04c-0.01,0-0.01,0-0.02-0.01c-0.02-0.02-0.04-0.04-0.06-0.05
			c0-0.01,0-0.01,0-0.01c-0.02-0.01-0.02-0.01-0.02-0.01c-0.02-0.02-0.03-0.05-0.06-0.08c0-0.01,0-0.01,0-0.01
			c-0.01-0.02-0.02-0.04-0.03-0.07c-0.01,0-0.01,0-0.01-0.02c0-0.02-0.01-0.05-0.02-0.08c-0.01,0-0.01,0,0-0.01
			c-0.01-0.02-0.01-0.05-0.01-0.08l0.09-4c0-0.28,0.23-0.48,0.52-0.48c0.25-0.01,0.47,0.23,0.47,0.51l-0.05,2.81l2.06-1.92
			c0.2-0.19,0.52-0.2,0.7,0.01C146.11,85.4,146.11,85.7,145.9,85.89z"/>
		<path class="st2" d="M146.38,87.93c0.68-1.1,2.1-1.5,3.21-0.83c1.06,0.64,1.42,1.94,0.82,3.07c0,0.01-0.01,0.02-0.02,0.04
			c-0.01,0.01-0.03,0.06-0.05,0.07c-0.14,0.18-0.39,0.21-0.62,0.07l-2.58-1.56c-0.07,0.21-0.11,0.48-0.05,0.7
			c0.05,0.3,0.29,0.64,0.56,0.84c0.28,0.2,0.67,0.34,0.97,0.31c0.28-0.08,0.6,0.15,0.62,0.34c0.04,0.18-0.03,0.47-0.32,0.53
			c-0.62,0.12-1.2,0-1.78-0.34C146.03,90.48,145.72,89.04,146.38,87.93z M147.51,88.07l2.3,1.39c0.12-0.38-0.01-1.11-0.68-1.59
			C148.42,87.49,147.78,87.78,147.51,88.07z"/>
	</g>
	<g>
		<path d="M108.52,86.32l-1.06,0.49l0.86,1.88c0.12,0.26,0,0.57-0.27,0.7c-0.26,0.12-0.58,0-0.69-0.26l-2.33-5.1
			c-0.12-0.27,0-0.57,0.26-0.69l0.01,0l1.54-0.71c1.03-0.47,2.24-0.02,2.71,1.01C110,84.64,109.54,85.85,108.52,86.32z
			 M107.01,85.85l1.06-0.49c0.5-0.23,0.71-0.81,0.5-1.29c-0.24-0.5-0.81-0.72-1.31-0.49l-1.06,0.49L107.01,85.85z"/>
		<path d="M113.86,82.59c0.08,0.25-0.05,0.55-0.32,0.64c-0.21,0.07-0.37,0.18-0.49,0.35c-0.14,0.17-0.22,0.36-0.27,0.57
			c-0.12,0.36-0.12,0.74-0.12,0.88l0.56,1.72c0.08,0.26-0.07,0.55-0.34,0.64c-0.26,0.09-0.55-0.06-0.63-0.32l-1.16-3.56
			c-0.08-0.26,0.06-0.54,0.33-0.63c0.27-0.09,0.56,0.05,0.65,0.31l0.02,0.06c0.03-0.08,0.08-0.18,0.13-0.24
			c0.23-0.3,0.57-0.58,1.02-0.72C113.5,82.19,113.77,82.33,113.86,82.59z"/>
		<path d="M116.26,85.64c-0.48-0.33-0.84-0.86-0.97-1.51c-0.13-0.63,0-1.23,0.31-1.76c0.33-0.52,0.82-0.9,1.46-1.03
			c0.62-0.12,1.23,0.03,1.7,0.39c0.51,0.36,0.85,0.86,0.98,1.5c0.13,0.65,0.02,1.28-0.32,1.77c-0.29,0.51-0.8,0.9-1.41,1.02
			C117.36,86.15,116.77,85.99,116.26,85.64z M116.3,83.92c0.08,0.4,0.27,0.7,0.54,0.92c0.28,0.18,0.61,0.24,0.96,0.16
			c0.33-0.07,0.6-0.25,0.79-0.52c0.18-0.31,0.24-0.66,0.16-1.06c-0.08-0.38-0.28-0.69-0.56-0.89c-0.27-0.16-0.6-0.25-0.93-0.18
			c-0.35,0.07-0.63,0.28-0.82,0.54C116.28,83.18,116.22,83.54,116.3,83.92z"/>
		<path d="M123.23,81.03c0.03,0.28-0.2,0.54-0.48,0.57l-0.24,0.02l0.23,2.64c0.29-0.03,0.54,0.19,0.57,0.48
			c0.03,0.29-0.18,0.54-0.48,0.57c-0.58,0.05-1.09-0.38-1.14-0.96l-0.23-2.64l-0.27,0.02c-0.29,0.03-0.54-0.19-0.57-0.48
			c-0.03-0.29,0.18-0.54,0.48-0.57l0.27-0.02l-0.12-1.37c-0.03-0.29,0.19-0.54,0.48-0.57c0.29-0.03,0.54,0.18,0.57,0.47l0.12,1.37
			l0.24-0.02C122.94,80.54,123.21,80.74,123.23,81.03z"/>
		<path d="M124.41,82.78c0.03-1.29,1.06-2.36,2.36-2.34c1.24,0.02,2.2,0.96,2.25,2.24c0,0.01,0,0.03,0,0.05c0,0.02,0,0.07-0.01,0.09
			c-0.03,0.23-0.23,0.38-0.5,0.37l-3.02-0.05c0.04,0.22,0.14,0.47,0.31,0.63c0.2,0.23,0.57,0.41,0.91,0.44
			c0.34,0.03,0.75-0.05,0.99-0.22c0.2-0.21,0.59-0.17,0.71-0.02c0.12,0.14,0.21,0.42-0.01,0.62c-0.47,0.42-1.04,0.61-1.71,0.6
			C125.38,85.16,124.39,84.07,124.41,82.78z M125.45,82.33l2.69,0.04c-0.09-0.38-0.56-0.95-1.39-1.03
			C125.94,81.37,125.53,81.94,125.45,82.33z"/>
		<path d="M130.3,82.98c0.2-1.31,1.44-2.19,2.74-2c0.56,0.08,1.06,0.37,1.42,0.74c0.19,0.2,0.18,0.53,0,0.71
			c-0.22,0.2-0.53,0.19-0.72-0.01c-0.22-0.21-0.5-0.38-0.85-0.43c-0.76-0.11-1.49,0.42-1.59,1.14c-0.11,0.73,0.43,1.44,1.19,1.55
			c0.34,0.05,0.67-0.03,0.94-0.17c0.23-0.13,0.54-0.04,0.69,0.21c0.12,0.23,0.04,0.52-0.21,0.68c-0.45,0.23-1,0.36-1.57,0.27
			C131.04,85.48,130.1,84.26,130.3,82.98z"/>
		<path d="M138.62,82.74c-0.07,0.27-0.37,0.44-0.65,0.37l-0.23-0.06l-0.68,2.56c0.28,0.08,0.44,0.36,0.37,0.65
			c-0.08,0.29-0.35,0.45-0.64,0.37c-0.56-0.15-0.9-0.73-0.75-1.29l0.68-2.56l-0.27-0.07c-0.28-0.07-0.44-0.36-0.37-0.64
			c0.07-0.29,0.35-0.45,0.64-0.37l0.27,0.07l0.35-1.33c0.08-0.28,0.36-0.44,0.65-0.37c0.28,0.08,0.45,0.35,0.37,0.64L138,82.04
			l0.23,0.06C138.51,82.17,138.69,82.45,138.62,82.74z"/>
		<path d="M141.36,83.65l-1.21,3.5c-0.09,0.27-0.37,0.41-0.65,0.32c-0.27-0.09-0.41-0.38-0.32-0.65l1.21-3.5
			c0.1-0.29,0.39-0.42,0.66-0.33C141.33,83.08,141.46,83.36,141.36,83.65z M141.93,82.02c-0.09,0.27-0.38,0.42-0.66,0.33
			c-0.27-0.09-0.41-0.39-0.31-0.66l0.06-0.19c0.09-0.27,0.38-0.41,0.65-0.32c0.28,0.1,0.41,0.38,0.32,0.65L141.93,82.02z"/>
		<path d="M146.46,86.07l-2.96,2.7c-0.02,0.02-0.05,0.04-0.06,0.04c0,0.01-0.01,0-0.01,0c-0.03,0.01-0.05,0.03-0.08,0.04
			c0,0.01-0.01,0-0.01,0c-0.03,0.02-0.05,0.02-0.08,0.03c0,0-0.01,0-0.01,0c-0.02,0.01-0.05,0.02-0.08,0.02c0,0,0,0-0.02-0.01
			c0,0,0,0,0,0.01c-0.03-0.01-0.06-0.01-0.08-0.01c-0.01,0-0.01,0-0.02-0.01c-0.04-0.01-0.06-0.02-0.09-0.03
			c-0.02-0.01-0.04-0.02-0.07-0.04c-0.01,0-0.01,0-0.02-0.01c-0.02-0.02-0.04-0.04-0.06-0.05c0-0.01,0-0.01,0-0.01
			c-0.02-0.01-0.02-0.01-0.02-0.01c-0.02-0.02-0.03-0.05-0.06-0.08c0-0.01,0-0.01,0-0.01c-0.01-0.03-0.02-0.04-0.03-0.08
			c-0.01,0-0.01,0-0.01-0.02c0-0.02-0.01-0.05-0.02-0.08c-0.01,0-0.01,0,0-0.01c-0.01-0.02-0.01-0.05-0.01-0.08l0.14-4
			c0-0.28,0.23-0.48,0.52-0.47c0.25-0.01,0.47,0.23,0.46,0.52l-0.08,2.81l2.08-1.89c0.2-0.19,0.52-0.19,0.69,0.01
			C146.67,85.58,146.67,85.88,146.46,86.07z"/>
		<path d="M146.92,88.11c0.69-1.09,2.12-1.48,3.22-0.79c1.05,0.65,1.39,1.95,0.78,3.08c0,0.01-0.01,0.03-0.02,0.04
			c-0.01,0.02-0.04,0.06-0.05,0.07c-0.14,0.18-0.39,0.2-0.62,0.06l-2.57-1.6c-0.08,0.21-0.12,0.48-0.06,0.7
			c0.05,0.3,0.28,0.64,0.55,0.84c0.28,0.21,0.67,0.35,0.96,0.32c0.28-0.07,0.59,0.16,0.62,0.35c0.03,0.18-0.04,0.47-0.33,0.52
			c-0.62,0.12-1.2-0.01-1.78-0.37C146.53,90.66,146.24,89.22,146.92,88.11z M148.04,88.27l2.28,1.42c0.12-0.37,0-1.11-0.66-1.6
			C148.96,87.69,148.31,87.98,148.04,88.27z"/>
	</g>
</g>
<g id="Safe_Area" class="st0">
	<circle class="st6" cx="126" cy="126" r="54"/>
</g>
</svg>
