<?xml version="1.0" encoding="utf-8"?>
<!-- Generator: Adobe Illustrator 23.0.2, SVG Export Plug-In . SVG Version: 6.00 Build 0)  -->
<svg version="1.1" xmlns="http://www.w3.org/2000/svg" xmlns:xlink="http://www.w3.org/1999/xlink" x="0px" y="0px"
	 viewBox="0 0 252 252" style="enable-background:new 0 0 252 252;" xml:space="preserve">
<style type="text/css">
	.st0{display:none;}
	.st1{display:inline;fill:#FFFFFF;stroke:#252723;stroke-miterlimit:10;}
	.st2{fill:#FFFFFF;}
	.st3{fill:#B6D3D8;}
	.st4{fill:#A8302B;}
	.st5{fill:#EDEFF3;}
	.st6{display:inline;fill:none;stroke:#252723;stroke-miterlimit:10;}
</style>
<g id="Bleed" class="st0">
	<circle class="st1" cx="126" cy="126" r="72"/>
</g>
<g id="Background">
</g>
<g id="Image">
	<circle class="st2" cx="126" cy="126" r="57.66"/>
	<circle class="st3" cx="126" cy="126" r="50.01"/>
	<circle class="st2" cx="126" cy="126" r="40.72"/>
	<circle class="st3" cx="126" cy="126" r="36"/>
</g>
<g id="Text">
	<g>
		<path class="st2" d="M111.87,87.26l-1.7-5.35c-0.09-0.27,0.06-0.57,0.34-0.66c0.28-0.09,0.58,0.06,0.67,0.34l1.54,4.84l2.46-0.78
			c0.26-0.08,0.57,0.07,0.66,0.35c0.09,0.27-0.08,0.57-0.34,0.66l-2.94,0.94c-0.02,0-0.02,0-0.02,0c-0.01,0-0.01,0-0.01,0
			C112.25,87.69,111.96,87.53,111.87,87.26z"/>
		<path class="st2" d="M116.02,84.06c-0.22-1.27,0.58-2.52,1.86-2.75c1.21-0.22,2.34,0.51,2.64,1.76c0,0.01,0,0.03,0.01,0.05
			c0,0.02,0.01,0.07,0.01,0.08c0.01,0.23-0.16,0.41-0.42,0.46l-2.97,0.54c0.08,0.21,0.23,0.43,0.43,0.56
			c0.24,0.19,0.64,0.29,0.97,0.26c0.34-0.03,0.73-0.19,0.93-0.41c0.16-0.24,0.55-0.28,0.7-0.15c0.15,0.11,0.29,0.37,0.11,0.61
			c-0.38,0.5-0.9,0.8-1.56,0.92C117.44,86.21,116.26,85.33,116.02,84.06z M116.96,83.42l2.65-0.48c-0.16-0.36-0.74-0.82-1.56-0.74
			C117.25,82.38,116.96,83.02,116.96,83.42z"/>
		<path class="st2" d="M126.21,82.92l0.08,1.86c0.01,0.28-0.21,0.51-0.48,0.52c-0.25,0.01-0.44-0.16-0.51-0.39
			c-0.35,0.27-0.77,0.44-1.25,0.46c-0.65,0.03-1.22-0.22-1.64-0.63c-0.43-0.42-0.69-1-0.71-1.64c-0.03-0.66,0.19-1.25,0.58-1.7
			c0.39-0.45,0.94-0.75,1.58-0.78c0.47-0.02,0.91,0.12,1.28,0.37c0.05-0.24,0.23-0.43,0.48-0.44c0.27-0.01,0.51,0.21,0.52,0.49
			L126.21,82.92z M125.2,82.96c-0.02-0.4-0.17-0.73-0.41-0.96c-0.24-0.25-0.57-0.37-0.9-0.35c-0.34,0.01-0.66,0.16-0.87,0.42
			c-0.22,0.25-0.34,0.59-0.32,0.99c0.02,0.39,0.16,0.73,0.4,0.96c0.23,0.23,0.56,0.35,0.9,0.33c0.33-0.01,0.65-0.16,0.87-0.41
			C125.09,83.7,125.21,83.35,125.2,82.96z"/>
		<path class="st2" d="M132.26,85.26c-0.03,0.27-0.28,0.49-0.56,0.46c-0.25-0.03-0.43-0.23-0.46-0.46
			c-0.38,0.21-0.86,0.32-1.33,0.27c-1.28-0.13-2.18-1.32-2.05-2.59c0.14-1.3,1.27-2.27,2.55-2.13c0.46,0.05,0.9,0.25,1.23,0.53
			l0.19-1.78c0.03-0.27,0.28-0.49,0.57-0.46c0.28,0.03,0.49,0.29,0.46,0.56l-0.39,3.74c0,0,0,0,0,0.01L132.26,85.26z M130.29,81.83
			c-0.34-0.04-0.67,0.07-0.93,0.29c-0.26,0.21-0.44,0.54-0.48,0.92c-0.04,0.36,0.07,0.71,0.28,0.97c0.21,0.27,0.51,0.45,0.85,0.48
			c0.35,0.04,0.67-0.07,0.93-0.29c0.26-0.21,0.44-0.54,0.48-0.9c0.04-0.38-0.07-0.73-0.28-1C130.93,82.04,130.64,81.87,130.29,81.83
			z"/>
		<path class="st2" d="M134.02,83.66c0.32-1.25,1.56-2.06,2.82-1.75c1.2,0.3,1.93,1.43,1.69,2.69c0,0.01-0.01,0.03-0.01,0.05
			c0,0.02-0.02,0.06-0.03,0.08c-0.08,0.21-0.31,0.31-0.57,0.25l-2.93-0.73c-0.01,0.22,0.04,0.49,0.16,0.69
			c0.14,0.27,0.47,0.53,0.78,0.64c0.32,0.11,0.74,0.12,1.02,0.01c0.24-0.15,0.62-0.03,0.7,0.14c0.09,0.16,0.11,0.46-0.15,0.6
			c-0.56,0.3-1.15,0.36-1.8,0.2C134.44,86.2,133.72,84.92,134.02,83.66z M135.14,83.46l2.61,0.65c0-0.39-0.34-1.05-1.12-1.32
			C135.84,82.63,135.31,83.1,135.14,83.46z"/>
		<path class="st2" d="M143.23,84.51c-0.09,0.25-0.38,0.4-0.65,0.3c-0.21-0.08-0.4-0.09-0.6-0.03c-0.21,0.04-0.4,0.15-0.57,0.27
			c-0.32,0.21-0.55,0.5-0.64,0.61l-0.63,1.69c-0.1,0.26-0.4,0.39-0.67,0.29c-0.26-0.1-0.39-0.39-0.3-0.65l1.3-3.51
			c0.1-0.26,0.39-0.38,0.64-0.29c0.27,0.1,0.41,0.39,0.32,0.65l-0.02,0.06c0.08-0.04,0.18-0.09,0.25-0.11
			c0.37-0.09,0.81-0.1,1.25,0.07C143.2,83.97,143.33,84.25,143.23,84.51z"/>
	</g>
	<g>
		<path d="M111.03,87.14l-1.73-5.34c-0.09-0.27,0.06-0.57,0.34-0.66c0.28-0.09,0.58,0.06,0.67,0.33l1.57,4.83l2.45-0.79
			c0.26-0.08,0.57,0.07,0.66,0.35c0.09,0.27-0.07,0.57-0.34,0.66l-2.93,0.95c-0.02,0.01-0.02,0.01-0.02,0.01c-0.01,0-0.01,0-0.01,0
			C111.41,87.57,111.12,87.41,111.03,87.14z"/>
		<path d="M115.16,83.92c-0.23-1.27,0.57-2.52,1.84-2.76c1.21-0.22,2.34,0.5,2.65,1.75c0,0.01,0.01,0.03,0.01,0.05
			s0.01,0.07,0.01,0.09c0.01,0.23-0.15,0.42-0.42,0.46l-2.97,0.55c0.09,0.21,0.23,0.43,0.43,0.56c0.24,0.19,0.64,0.29,0.98,0.25
			c0.34-0.03,0.73-0.19,0.93-0.41c0.16-0.24,0.55-0.29,0.69-0.16c0.15,0.11,0.29,0.37,0.11,0.61c-0.38,0.5-0.89,0.8-1.56,0.93
			C116.59,86.06,115.41,85.18,115.16,83.92z M116.09,83.27l2.64-0.49c-0.16-0.36-0.74-0.82-1.57-0.73
			C116.38,82.23,116.1,82.87,116.09,83.27z"/>
		<path d="M125.34,82.72l0.08,1.86c0.01,0.28-0.21,0.51-0.48,0.53c-0.25,0.01-0.44-0.16-0.51-0.39c-0.35,0.27-0.77,0.45-1.24,0.47
			c-0.65,0.03-1.22-0.21-1.65-0.62c-0.43-0.42-0.69-1-0.72-1.64c-0.03-0.65,0.18-1.25,0.57-1.7c0.39-0.46,0.94-0.76,1.58-0.79
			c0.47-0.02,0.91,0.12,1.28,0.36c0.05-0.24,0.23-0.43,0.47-0.44c0.27-0.01,0.51,0.21,0.53,0.49L125.34,82.72z M124.33,82.77
			c-0.02-0.4-0.18-0.73-0.41-0.96c-0.24-0.25-0.57-0.36-0.9-0.35c-0.34,0.02-0.66,0.16-0.87,0.43c-0.22,0.25-0.33,0.6-0.32,0.99
			c0.02,0.39,0.17,0.72,0.41,0.96c0.23,0.23,0.56,0.34,0.9,0.33c0.33-0.02,0.65-0.16,0.87-0.41
			C124.22,83.5,124.35,83.16,124.33,82.77z"/>
		<path d="M131.4,85.03c-0.03,0.27-0.28,0.49-0.56,0.46c-0.25-0.03-0.44-0.22-0.46-0.46c-0.38,0.21-0.85,0.33-1.33,0.28
			c-1.28-0.13-2.19-1.31-2.06-2.58c0.13-1.3,1.26-2.27,2.54-2.15c0.46,0.05,0.9,0.24,1.23,0.52l0.18-1.78
			c0.03-0.28,0.28-0.49,0.57-0.46c0.28,0.03,0.49,0.29,0.46,0.56l-0.37,3.75c0,0,0,0,0,0.01L131.4,85.03z M129.42,81.61
			c-0.34-0.04-0.67,0.08-0.93,0.3c-0.26,0.21-0.44,0.54-0.47,0.92c-0.04,0.36,0.07,0.71,0.29,0.97c0.21,0.27,0.51,0.44,0.85,0.48
			c0.35,0.04,0.67-0.08,0.93-0.3c0.26-0.21,0.44-0.54,0.47-0.9c0.04-0.38-0.07-0.73-0.28-0.99
			C130.06,81.82,129.77,81.64,129.42,81.61z"/>
		<path d="M133.16,83.42c0.31-1.25,1.55-2.07,2.81-1.76c1.2,0.29,1.93,1.42,1.71,2.68c0,0.01-0.01,0.03-0.01,0.05
			c0,0.02-0.02,0.07-0.03,0.08c-0.08,0.21-0.31,0.32-0.57,0.25l-2.94-0.71c0,0.22,0.04,0.49,0.17,0.69
			c0.14,0.27,0.47,0.52,0.79,0.63c0.33,0.11,0.74,0.12,1.02,0c0.24-0.16,0.62-0.04,0.7,0.14c0.09,0.16,0.11,0.46-0.15,0.6
			c-0.55,0.31-1.15,0.37-1.8,0.21C133.59,85.96,132.87,84.68,133.16,83.42z M134.28,83.21l2.61,0.63c0-0.39-0.34-1.05-1.13-1.31
			C134.97,82.38,134.44,82.85,134.28,83.21z"/>
		<path d="M142.38,84.21c-0.09,0.25-0.38,0.4-0.65,0.3c-0.21-0.08-0.4-0.09-0.6-0.03c-0.21,0.05-0.4,0.15-0.57,0.28
			c-0.32,0.21-0.55,0.51-0.64,0.62l-0.62,1.7c-0.1,0.26-0.4,0.39-0.67,0.29c-0.26-0.09-0.4-0.39-0.3-0.65l1.29-3.52
			c0.1-0.26,0.38-0.39,0.64-0.29c0.27,0.1,0.42,0.38,0.32,0.64l-0.02,0.06c0.08-0.04,0.17-0.09,0.25-0.11
			c0.37-0.09,0.81-0.11,1.25,0.06C142.34,83.68,142.47,83.96,142.38,84.21z"/>
	</g>
	<ellipse class="st4" cx="143.74" cy="121.85" rx="7.14" ry="3.54"/>
	<polygon class="st4" points="138.48,121.89 132.79,125.17 132.79,118.6 	"/>
	<ellipse class="st5" cx="113.07" cy="108.2" rx="7.14" ry="3.54"/>
	<polygon class="st5" points="107.82,108.23 102.13,111.51 102.13,104.94 	"/>
	<ellipse class="st5" cx="114.97" cy="135.63" rx="7.14" ry="3.54"/>
	<polygon class="st5" points="109.72,135.66 104.02,138.95 104.02,132.37 	"/>
</g>
<g id="Safe_Area" class="st0">
	<circle class="st6" cx="126" cy="126" r="54"/>
</g>
</svg>
