<?xml version="1.0" encoding="utf-8"?>
<!-- Generator: Adobe Illustrator 23.0.2, SVG Export Plug-In . SVG Version: 6.00 Build 0)  -->
<svg version="1.1" xmlns="http://www.w3.org/2000/svg" xmlns:xlink="http://www.w3.org/1999/xlink" x="0px" y="0px"
	 viewBox="0 0 252 252" style="enable-background:new 0 0 252 252;" xml:space="preserve">
<style type="text/css">
	.st0{display:none;}
	.st1{display:inline;fill:#FFFFFF;stroke:#252723;stroke-miterlimit:10;}
	.st2{fill:#FFFFFF;}
	.st3{fill:#C3DBEB;}
	.st4{fill:#3F454C;}
	.st5{fill:#E3EBF0;}
	.st6{display:inline;fill:none;stroke:#252723;stroke-miterlimit:10;}
</style>
<g id="Bleed" class="st0">
	<circle class="st1" cx="126" cy="126" r="72"/>
</g>
<g id="Background">
</g>
<g id="Image">
	<circle class="st2" cx="126" cy="126" r="57.66"/>
	<circle class="st3" cx="126" cy="126" r="50.01"/>
	<circle class="st2" cx="126" cy="126" r="40.72"/>
	<circle class="st3" cx="126" cy="126" r="36"/>
	<g>
		<path class="st4" d="M143.22,118.57c0,4.99-2.42,9.46-6.22,12.45l-4.53,5.49v8.22h-14.24v-9.05l-3.84-4.66
			c-3.81-2.98-6.22-7.45-6.22-12.45c0-9,7.85-16.28,17.53-16.28S143.22,109.58,143.22,118.57z"/>
		<path class="st5" d="M138.44,119.09c0,4.24-1.78,8.03-4.6,10.57l-3.35,4.67v6.98h-10.52v-7.69l-2.84-3.97
			c-2.81-2.54-4.59-6.33-4.59-10.56c0-7.64,5.8-13.83,12.95-13.83C132.64,105.26,138.44,111.45,138.44,119.09z"/>
		<rect x="118.24" y="144.73" class="st4" width="14.22" height="3.79"/>
		<rect x="121.42" y="142.91" class="st2" width="7.57" height="1.19"/>
		<rect x="121.54" y="145.67" class="st2" width="7.57" height="1.19"/>
		<path class="st4" d="M128.06,151.64h-5.39c-1.12,0-2.04-0.91-2.04-2.04l0,0c0-1.12,0.91-2.04,2.04-2.04h5.39
			c1.12,0,2.04,0.91,2.04,2.04l0,0C130.1,150.73,129.19,151.64,128.06,151.64z"/>
		<path class="st2" d="M127.06,150.41h-3.19c-0.53,0-0.96-0.43-0.96-0.96l0,0c0-0.53,0.43-0.96,0.96-0.96h3.19
			c0.53,0,0.96,0.43,0.96,0.96l0,0C128.01,149.98,127.59,150.41,127.06,150.41z"/>
	</g>
</g>
<g id="Text">
	<g>
		<path class="st2" d="M110.13,81.96c-0.1-0.28,0.04-0.57,0.32-0.67c0.27-0.09,0.58,0.04,0.68,0.32l1.85,5.3
			c0.1,0.28-0.06,0.58-0.33,0.67c-0.28,0.1-0.57-0.04-0.67-0.32L110.13,81.96z"/>
		<path class="st2" d="M118.63,85.43c0.06,0.27-0.11,0.55-0.38,0.62c-0.25,0.06-0.49-0.07-0.58-0.28c-0.3,0.32-0.7,0.58-1.17,0.69
			c-1.25,0.29-2.5-0.53-2.79-1.78c-0.3-1.27,0.46-2.56,1.71-2.85c0.45-0.11,0.93-0.06,1.33,0.1l-0.41-1.74
			c-0.06-0.27,0.11-0.55,0.39-0.62c0.28-0.06,0.55,0.11,0.62,0.38l0.85,3.67c0,0,0,0,0,0.01L118.63,85.43z M115.66,82.83
			c-0.33,0.08-0.61,0.29-0.78,0.58c-0.18,0.29-0.24,0.65-0.15,1.02c0.08,0.35,0.3,0.65,0.58,0.83c0.29,0.19,0.63,0.25,0.96,0.18
			c0.34-0.08,0.61-0.29,0.78-0.58c0.18-0.29,0.24-0.65,0.16-1c-0.09-0.37-0.3-0.67-0.59-0.85C116.33,82.82,116,82.75,115.66,82.83z"
			/>
		<path class="st2" d="M119.8,83.34c-0.11-1.29,0.8-2.46,2.1-2.57c1.23-0.11,2.29,0.72,2.48,1.99c0,0.01,0,0.03,0,0.05
			c0,0.02,0.01,0.07,0,0.09c-0.01,0.23-0.19,0.4-0.46,0.42l-3.01,0.27c0.07,0.21,0.19,0.45,0.38,0.6c0.22,0.21,0.61,0.35,0.95,0.34
			c0.34,0,0.74-0.12,0.96-0.33c0.18-0.22,0.57-0.23,0.71-0.09c0.13,0.12,0.25,0.4,0.05,0.62c-0.43,0.47-0.97,0.71-1.64,0.78
			C121.02,85.6,119.92,84.62,119.8,83.34z M120.79,82.78l2.68-0.24c-0.13-0.37-0.66-0.88-1.49-0.88
			C121.18,81.77,120.83,82.39,120.79,82.78z"/>
		<path class="st2" d="M130.02,83.11l-0.09,1.86c-0.01,0.28-0.25,0.49-0.53,0.48c-0.25-0.01-0.43-0.2-0.47-0.43
			c-0.37,0.24-0.81,0.37-1.28,0.35c-0.65-0.03-1.19-0.33-1.58-0.77c-0.39-0.46-0.6-1.06-0.56-1.7c0.03-0.66,0.3-1.23,0.73-1.64
			c0.43-0.42,1-0.66,1.65-0.63c0.47,0.02,0.89,0.21,1.24,0.48c0.07-0.23,0.27-0.41,0.51-0.39c0.28,0.01,0.49,0.25,0.48,0.54
			L130.02,83.11z M129.02,83.06c0.02-0.4-0.11-0.75-0.32-1c-0.22-0.27-0.53-0.42-0.86-0.43c-0.34-0.02-0.67,0.1-0.9,0.35
			c-0.24,0.23-0.39,0.56-0.41,0.96c-0.02,0.39,0.1,0.74,0.31,1c0.21,0.25,0.52,0.4,0.86,0.42c0.33,0.02,0.66-0.1,0.9-0.33
			C128.84,83.79,129,83.45,129.02,83.06z"/>
		<path class="st2" d="M133.31,79.26c0.29,0.04,0.49,0.31,0.45,0.6l-0.84,5.54c-0.04,0.28-0.31,0.48-0.61,0.44
			c-0.28-0.04-0.48-0.31-0.44-0.59l0.84-5.54C132.76,79.42,133.03,79.22,133.31,79.26z"/>
		<path class="st2" d="M135.87,82.22l-0.78,3.63c-0.06,0.28-0.32,0.46-0.61,0.39c-0.28-0.06-0.45-0.33-0.39-0.61l0.78-3.63
			c0.06-0.3,0.33-0.46,0.61-0.4C135.76,81.66,135.93,81.92,135.87,82.22z M136.22,80.54c-0.06,0.28-0.32,0.46-0.61,0.4
			c-0.28-0.06-0.45-0.34-0.39-0.62l0.04-0.19c0.06-0.28,0.33-0.46,0.61-0.4c0.29,0.06,0.45,0.33,0.39,0.61L136.22,80.54z"/>
		<path class="st2" d="M136.64,85.33c0.23-0.17,0.56-0.1,0.7,0.14c0.17,0.27,0.52,0.61,0.88,0.71c0.25,0.08,0.5,0.06,0.67,0.02
			c0.16-0.07,0.22-0.15,0.25-0.22c0.01-0.05,0.01-0.07,0-0.1c0-0.03-0.03-0.08-0.08-0.15c-0.1-0.13-0.34-0.31-0.65-0.48l-0.01,0
			c-0.26-0.14-0.52-0.3-0.72-0.48c-0.21-0.19-0.38-0.42-0.46-0.72c-0.05-0.19-0.04-0.41,0.02-0.62c0.13-0.42,0.47-0.7,0.84-0.84
			c0.38-0.12,0.8-0.12,1.22,0.01c0.63,0.19,0.98,0.63,1.21,0.92c0.17,0.21,0.14,0.53-0.06,0.72c-0.21,0.17-0.53,0.15-0.71-0.08
			c-0.23-0.28-0.44-0.5-0.73-0.59c-0.23-0.07-0.45-0.06-0.59,0c-0.14,0.05-0.2,0.12-0.21,0.16c-0.01,0.04-0.01,0.05,0,0.08
			c0,0.02,0.02,0.07,0.07,0.12c0.09,0.12,0.3,0.27,0.6,0.42l0.01,0.01l0.01,0c0.28,0.15,0.54,0.31,0.76,0.52
			c0.21,0.18,0.41,0.43,0.48,0.73c0.05,0.22,0.05,0.44-0.01,0.65c-0.14,0.45-0.5,0.74-0.9,0.88c-0.4,0.13-0.85,0.14-1.29,0
			c-0.71-0.23-1.15-0.72-1.42-1.12C136.35,85.79,136.41,85.47,136.64,85.33z"/>
		<path class="st2" d="M144.49,85.1c-0.11,0.26-0.43,0.38-0.69,0.27l-0.22-0.09l-1.03,2.44c0.27,0.12,0.39,0.42,0.27,0.7
			c-0.11,0.27-0.41,0.39-0.68,0.28c-0.53-0.23-0.79-0.85-0.56-1.38l1.03-2.44l-0.25-0.11c-0.27-0.11-0.39-0.42-0.28-0.68
			c0.12-0.27,0.41-0.39,0.69-0.28l0.25,0.11l0.54-1.27c0.11-0.27,0.42-0.39,0.69-0.28s0.39,0.41,0.28,0.69l-0.54,1.27l0.22,0.09
			C144.47,84.52,144.61,84.83,144.49,85.1z"/>
	</g>
	<g>
		<path d="M109.25,81.85c-0.1-0.28,0.04-0.57,0.32-0.67c0.27-0.09,0.58,0.04,0.68,0.32l1.88,5.29c0.1,0.28-0.06,0.58-0.33,0.67
			c-0.28,0.1-0.57-0.04-0.67-0.32L109.25,81.85z"/>
		<path d="M117.78,85.27c0.06,0.27-0.1,0.55-0.38,0.62c-0.25,0.06-0.49-0.07-0.58-0.28c-0.29,0.32-0.7,0.59-1.16,0.7
			c-1.25,0.3-2.5-0.52-2.8-1.77c-0.3-1.27,0.44-2.56,1.69-2.86c0.45-0.11,0.93-0.07,1.33,0.09l-0.42-1.74
			c-0.06-0.27,0.1-0.55,0.39-0.62c0.28-0.07,0.55,0.11,0.62,0.38l0.87,3.66c0,0,0,0,0,0.01L117.78,85.27z M114.79,82.69
			c-0.33,0.08-0.6,0.29-0.78,0.59c-0.18,0.29-0.23,0.65-0.15,1.02c0.08,0.35,0.3,0.65,0.59,0.83c0.29,0.19,0.63,0.25,0.96,0.17
			c0.34-0.08,0.6-0.29,0.78-0.59c0.18-0.29,0.24-0.65,0.15-1c-0.09-0.37-0.31-0.67-0.59-0.85
			C115.46,82.68,115.13,82.61,114.79,82.69z"/>
		<path d="M118.93,83.17c-0.11-1.29,0.79-2.46,2.08-2.58c1.23-0.12,2.29,0.71,2.49,1.98c0,0.01,0,0.03,0,0.05
			c0,0.02,0.01,0.07,0,0.09c-0.01,0.23-0.19,0.4-0.46,0.42l-3.01,0.29c0.07,0.21,0.19,0.45,0.38,0.59c0.22,0.21,0.61,0.34,0.95,0.34
			c0.34,0,0.74-0.13,0.96-0.33c0.18-0.22,0.57-0.23,0.71-0.09c0.14,0.12,0.26,0.4,0.06,0.62c-0.42,0.47-0.96,0.72-1.63,0.78
			C120.17,85.43,119.07,84.46,118.93,83.17z M119.92,82.61l2.68-0.25c-0.13-0.37-0.67-0.88-1.49-0.87
			C120.3,81.6,119.96,82.22,119.92,82.61z"/>
		<path d="M129.16,82.89l-0.08,1.86c-0.01,0.28-0.25,0.49-0.53,0.48c-0.25-0.01-0.43-0.2-0.48-0.43c-0.37,0.24-0.81,0.37-1.28,0.35
			c-0.65-0.03-1.19-0.32-1.58-0.76c-0.39-0.45-0.6-1.05-0.57-1.7c0.03-0.66,0.29-1.23,0.72-1.64c0.43-0.42,1-0.67,1.65-0.64
			c0.47,0.02,0.89,0.2,1.24,0.47c0.07-0.23,0.27-0.41,0.51-0.4c0.28,0.01,0.49,0.25,0.48,0.54L129.16,82.89z M128.15,82.85
			c0.02-0.4-0.11-0.75-0.33-0.99c-0.22-0.27-0.53-0.41-0.87-0.43c-0.34-0.01-0.67,0.1-0.9,0.35c-0.24,0.23-0.39,0.56-0.4,0.96
			c-0.02,0.39,0.1,0.74,0.32,0.99c0.21,0.25,0.53,0.39,0.87,0.41c0.33,0.02,0.66-0.1,0.9-0.33
			C127.98,83.57,128.13,83.24,128.15,82.85z"/>
		<path d="M132.42,79.02c0.29,0.04,0.49,0.31,0.45,0.59l-0.81,5.55c-0.04,0.28-0.31,0.48-0.6,0.44c-0.28-0.04-0.48-0.31-0.44-0.59
			l0.81-5.55C131.87,79.18,132.14,78.98,132.42,79.02z"/>
		<path d="M134.99,81.97l-0.75,3.63c-0.06,0.28-0.32,0.46-0.61,0.4c-0.28-0.06-0.46-0.33-0.4-0.61l0.75-3.63
			c0.06-0.3,0.33-0.47,0.61-0.41C134.89,81.41,135.06,81.67,134.99,81.97z M135.34,80.28c-0.06,0.28-0.32,0.47-0.61,0.41
			c-0.28-0.06-0.45-0.34-0.4-0.62l0.04-0.2c0.06-0.28,0.33-0.46,0.61-0.4c0.29,0.06,0.46,0.33,0.4,0.61L135.34,80.28z"/>
		<path d="M135.78,85.07c0.23-0.17,0.56-0.1,0.7,0.13c0.18,0.27,0.52,0.6,0.88,0.7c0.25,0.07,0.5,0.06,0.67,0.01
			c0.16-0.07,0.22-0.15,0.25-0.22c0.01-0.05,0.01-0.07,0-0.1c0-0.03-0.03-0.08-0.09-0.14c-0.1-0.13-0.34-0.31-0.65-0.47l-0.01,0
			c-0.27-0.14-0.52-0.29-0.72-0.48c-0.21-0.19-0.38-0.42-0.47-0.72c-0.05-0.19-0.04-0.41,0.02-0.62c0.13-0.42,0.47-0.7,0.84-0.84
			c0.38-0.12,0.8-0.13,1.22,0c0.63,0.19,0.98,0.62,1.21,0.91c0.17,0.21,0.15,0.53-0.06,0.72c-0.21,0.17-0.53,0.15-0.71-0.07
			c-0.23-0.28-0.45-0.5-0.74-0.59c-0.23-0.07-0.45-0.06-0.59,0c-0.14,0.05-0.2,0.12-0.21,0.17c-0.01,0.04-0.01,0.05,0,0.08
			c0,0.02,0.02,0.07,0.07,0.12c0.09,0.12,0.3,0.27,0.6,0.42l0.01,0.01l0.01,0c0.28,0.15,0.54,0.31,0.77,0.52
			c0.21,0.18,0.41,0.43,0.48,0.73c0.05,0.22,0.06,0.44-0.01,0.65c-0.13,0.45-0.49,0.75-0.89,0.88c-0.4,0.13-0.85,0.14-1.29,0.01
			c-0.71-0.22-1.15-0.71-1.43-1.12C135.49,85.54,135.56,85.22,135.78,85.07z"/>
		<path d="M143.64,84.8c-0.11,0.26-0.43,0.39-0.69,0.28l-0.22-0.09l-1.02,2.45c0.27,0.11,0.39,0.42,0.28,0.69s-0.41,0.4-0.68,0.28
			c-0.54-0.22-0.79-0.84-0.57-1.38l1.02-2.45l-0.25-0.11c-0.27-0.11-0.39-0.42-0.28-0.68c0.11-0.27,0.41-0.4,0.68-0.28l0.25,0.11
			l0.53-1.27c0.11-0.27,0.42-0.39,0.69-0.28c0.27,0.11,0.4,0.41,0.28,0.68l-0.53,1.27l0.22,0.09
			C143.61,84.22,143.75,84.53,143.64,84.8z"/>
	</g>
</g>
<g id="Safe_Area" class="st0">
	<circle class="st6" cx="126" cy="126" r="54"/>
</g>
</svg>
