<?xml version="1.0" encoding="utf-8"?>
<!-- Generator: Adobe Illustrator 23.0.2, SVG Export Plug-In . SVG Version: 6.00 Build 0)  -->
<svg version="1.1" xmlns="http://www.w3.org/2000/svg" xmlns:xlink="http://www.w3.org/1999/xlink" x="0px" y="0px"
	 viewBox="0 0 252 252" style="enable-background:new 0 0 252 252;" xml:space="preserve">
<style type="text/css">
	.st0{display:none;}
	.st1{display:inline;fill:#FFFFFF;stroke:#252723;stroke-miterlimit:10;}
	.st2{fill:#FFFFFF;}
	.st3{fill:#DFCFE8;}
	.st4{fill:#A61F69;}
	.st5{clip-path:url(#SVGID_2_);fill:#A61F69;}
	.st6{clip-path:url(#SVGID_2_);fill:#7B1B4E;}
	.st7{clip-path:url(#SVGID_2_);fill:#DA8EB6;}
	.st8{clip-path:url(#SVGID_4_);fill:#A61F69;}
	.st9{clip-path:url(#SVGID_4_);fill:#7B1B4E;}
	.st10{clip-path:url(#SVGID_4_);fill:#DA8EB6;}
	.st11{clip-path:url(#SVGID_6_);fill:#A61F69;}
	.st12{clip-path:url(#SVGID_6_);fill:#7B1B4E;}
	.st13{clip-path:url(#SVGID_6_);fill:#DA8EB6;}
	.st14{clip-path:url(#SVGID_6_);fill:#7A304E;}
	.st15{clip-path:url(#SVGID_6_);fill:#5A253A;}
	.st16{clip-path:url(#SVGID_6_);fill:#A98096;}
	.st17{clip-path:url(#SVGID_6_);fill:#522C0E;}
	.st18{clip-path:url(#SVGID_6_);fill:#7D401A;}
	.st19{clip-path:url(#SVGID_6_);fill:#F5E1D7;}
	.st20{clip-path:url(#SVGID_6_);fill:#E7BAD3;}
	.st21{clip-path:url(#SVGID_6_);fill:#D26790;}
	.st22{clip-path:url(#SVGID_6_);fill:#FFF08A;}
	.st23{fill:#F5E1D7;}
	.st24{clip-path:url(#SVGID_8_);fill:#FFF490;}
	.st25{clip-path:url(#SVGID_8_);fill:#D26790;}
	.st26{display:inline;fill:none;stroke:#252723;stroke-miterlimit:10;}
</style>
<g id="Bleed" class="st0">
	<circle class="st1" cx="126" cy="126" r="72"/>
</g>
<g id="Background">
</g>
<g id="Image">
	<circle class="st2" cx="126" cy="126" r="57.66"/>
	<circle class="st3" cx="126" cy="126" r="50.01"/>
	<circle class="st2" cx="126" cy="126" r="45.64"/>
	<circle class="st3" cx="126" cy="126" r="40.51"/>
	<ellipse class="st2" cx="127.72" cy="124.43" rx="37.25" ry="39.54"/>
	<circle class="st3" cx="130.65" cy="122.91" r="35.69"/>
	<g>
		
			<rect x="125.38" y="128.15" transform="matrix(0.9939 -0.1107 0.1107 0.9939 -13.4488 15.2396)" class="st4" width="10.22" height="1.13"/>
		<g>
			<defs>
				<rect id="SVGID_1_" x="104.4" y="96.81" width="52.49" height="52.21"/>
			</defs>
			<clipPath id="SVGID_2_">
				<use xlink:href="#SVGID_1_"  style="overflow:visible;"/>
			</clipPath>
			<path class="st5" d="M136.97,126c-1.77,0.2-3.11,1.24-2.99,2.32c0.12,1.09,1.65,1.8,3.43,1.61c1.77-0.2,3.11-1.24,2.99-2.32
				C140.27,126.52,138.74,125.8,136.97,126"/>
			<path class="st6" d="M135.47,128.52c-0.47,0.06-0.91,0.18-1.29,0.34l1.31-0.15L135.47,128.52z"/>
			<path class="st6" d="M135.68,128.49c-0.07,0.01-0.14,0.02-0.21,0.03c-0.47,0.06-0.91,0.18-1.29,0.34l-0.14,0.02
				c0.01,0.01,0.01,0.02,0.02,0.03c0.5,0.75,1.78,1.19,3.21,1.03c0.67-0.07,1.26-0.27,1.75-0.54
				C138.53,128.72,137.19,128.32,135.68,128.49"/>
			<path class="st6" d="M136.84,126.01c-1.44,0.16-2.6,0.88-2.91,1.73c-0.01,0.01-0.01,0.01-0.01,0.02l0.68-0.08
				c2.02-0.23,3.66-0.87,4.06-1.53C138.13,126,137.5,125.94,136.84,126.01"/>
			<path class="st6" d="M135.68,128.49c-0.07,0.01-0.14,0.02-0.21,0.03c-0.47,0.06-0.91,0.18-1.29,0.34
				c-0.04,0.02-0.08,0.03-0.12,0.05c0.5,0.75,1.78,1.19,3.21,1.03c0.67-0.07,1.26-0.27,1.75-0.54
				C138.53,128.72,137.19,128.32,135.68,128.49"/>
			<path class="st6" d="M136.84,126.01c-1.44,0.16-2.6,0.88-2.91,1.73c0.22-0.01,0.45-0.03,0.67-0.06c2.02-0.23,3.66-0.87,4.06-1.53
				C138.13,126,137.5,125.94,136.84,126.01"/>
			<path class="st6" d="M135.52,126.69c-1.37,0.16-1.79,1.2-1.74,1.66c0.05,0.46,0.73,1.32,2.1,1.17c1.37-0.15,2.48-1.22,2.43-1.68
				C138.26,127.37,136.89,126.53,135.52,126.69"/>
			<path class="st7" d="M136.1,126.5c-0.94,0.1-1.69,0.57-1.9,1.13c0.14-0.01,0.29-0.02,0.44-0.04c1.32-0.15,2.39-0.57,2.65-1
				C136.94,126.49,136.54,126.45,136.1,126.5"/>
			<path class="st7" d="M136.74,129.59c-0.82,0.09-1.54-0.16-1.82-0.59c0.12-0.02,0.25-0.04,0.38-0.05
				c1.15-0.13,2.13,0.02,2.44,0.34C137.45,129.44,137.11,129.55,136.74,129.59"/>
		</g>
		
			<rect x="131.33" y="112.69" transform="matrix(0.2496 -0.9683 0.9683 0.2496 -7.2832 217.1074)" class="st4" width="10.22" height="1.13"/>
		<g>
			<defs>
				<rect id="SVGID_3_" x="104.4" y="96.81" width="52.49" height="52.21"/>
			</defs>
			<clipPath id="SVGID_4_">
				<use xlink:href="#SVGID_3_"  style="overflow:visible;"/>
			</clipPath>
			<path class="st8" d="M136.21,106.23c-0.44,1.73,0.05,3.35,1.11,3.62c1.06,0.27,2.28-0.9,2.72-2.63c0.45-1.73-0.05-3.35-1.11-3.62
				C137.87,103.33,136.66,104.51,136.21,106.23"/>
			<path class="st9" d="M138.04,108.53c-0.11,0.46-0.15,0.91-0.14,1.33l0.33-1.28L138.04,108.53z"/>
			<path class="st9" d="M138.09,108.32c-0.02,0.07-0.04,0.14-0.05,0.21c-0.11,0.46-0.15,0.91-0.14,1.32l-0.04,0.14
				c0.01,0,0.02,0,0.04-0.01c0.88-0.21,1.75-1.24,2.1-2.64c0.17-0.65,0.2-1.27,0.12-1.83C139.31,105.74,138.47,106.85,138.09,108.32
				"/>
			<path class="st9" d="M136.18,106.36c-0.36,1.4-0.1,2.74,0.58,3.33c0,0.01,0.01,0.01,0.01,0.01l0.17-0.67
				c0.51-1.97,0.49-3.73,0.01-4.34C136.62,105.15,136.34,105.71,136.18,106.36"/>
			<path class="st9" d="M138.09,108.32c-0.02,0.07-0.04,0.14-0.05,0.21c-0.11,0.46-0.15,0.91-0.14,1.32c0,0.05,0,0.09,0,0.13
				c0.88-0.21,1.75-1.24,2.1-2.64c0.17-0.65,0.2-1.27,0.12-1.83C139.31,105.74,138.47,106.85,138.09,108.32"/>
			<path class="st9" d="M136.18,106.36c-0.36,1.4-0.1,2.74,0.58,3.33c0.07-0.21,0.13-0.43,0.18-0.65c0.51-1.97,0.49-3.73,0.01-4.34
				C136.62,105.15,136.34,105.71,136.18,106.36"/>
			<path class="st9" d="M136.34,107.83c-0.34,1.34,0.48,2.1,0.93,2.22c0.45,0.12,1.49-0.21,1.84-1.55c0.34-1.34-0.26-2.75-0.7-2.87
				C137.95,105.51,136.68,106.49,136.34,107.83"/>
			<path class="st10" d="M136.37,107.22c-0.24,0.92-0.07,1.79,0.38,2.18c0.04-0.14,0.08-0.28,0.12-0.43
				c0.33-1.29,0.32-2.43,0.01-2.83C136.66,106.43,136.48,106.8,136.37,107.22"/>
			<path class="st10" d="M139.49,107.73c-0.21,0.8-0.7,1.39-1.2,1.5c0.02-0.12,0.05-0.25,0.09-0.37c0.29-1.12,0.78-1.99,1.18-2.16
				C139.6,107.01,139.58,107.36,139.49,107.73"/>
		</g>
		
			<rect x="105.47" y="136.65" transform="matrix(0.2496 -0.9683 0.9683 0.2496 -49.8924 210.0381)" class="st4" width="10.22" height="1.13"/>
		<g>
			<defs>
				<rect id="SVGID_5_" x="104.4" y="96.81" width="52.49" height="52.21"/>
			</defs>
			<clipPath id="SVGID_6_">
				<use xlink:href="#SVGID_5_"  style="overflow:visible;"/>
			</clipPath>
			<path class="st11" d="M110.35,130.19c-0.44,1.73,0.05,3.35,1.11,3.62c1.06,0.27,2.28-0.9,2.72-2.63s-0.05-3.35-1.11-3.62
				C112.01,127.29,110.79,128.47,110.35,130.19"/>
			<path class="st12" d="M112.17,132.49c-0.11,0.46-0.15,0.91-0.14,1.32l0.33-1.28L112.17,132.49z"/>
			<path class="st12" d="M112.22,132.28c-0.02,0.07-0.04,0.14-0.05,0.21c-0.11,0.46-0.15,0.91-0.14,1.32l-0.03,0.14
				c0.01,0,0.02,0,0.04-0.01c0.88-0.2,1.75-1.24,2.1-2.63c0.17-0.65,0.2-1.27,0.12-1.83C113.44,129.7,112.6,130.81,112.22,132.28"/>
			<path class="st12" d="M110.31,130.32c-0.36,1.4-0.1,2.74,0.58,3.33c0,0.01,0.01,0.01,0.01,0.01l0.17-0.67
				c0.51-1.97,0.49-3.73,0.01-4.34C110.75,129.11,110.48,129.67,110.31,130.32"/>
			<path class="st12" d="M112.22,132.28c-0.02,0.07-0.04,0.14-0.05,0.21c-0.11,0.46-0.15,0.91-0.14,1.32c0,0.05,0,0.09,0,0.13
				c0.88-0.2,1.75-1.24,2.1-2.63c0.17-0.65,0.2-1.27,0.12-1.83C113.44,129.7,112.6,130.81,112.22,132.28"/>
			<path class="st12" d="M110.31,130.32c-0.36,1.4-0.1,2.74,0.58,3.33c0.07-0.21,0.13-0.43,0.19-0.65c0.51-1.97,0.49-3.73,0.01-4.34
				C110.75,129.11,110.48,129.67,110.31,130.32"/>
			<path class="st12" d="M110.48,131.79c-0.34,1.34,0.48,2.1,0.93,2.22c0.45,0.12,1.49-0.21,1.84-1.55c0.34-1.34-0.26-2.75-0.7-2.87
				C112.09,129.47,110.81,130.45,110.48,131.79"/>
			<path class="st13" d="M110.51,131.18c-0.24,0.92-0.07,1.79,0.38,2.18c0.04-0.14,0.08-0.28,0.12-0.43
				c0.33-1.29,0.32-2.43,0.01-2.83C110.8,130.39,110.62,130.76,110.51,131.18"/>
			<path class="st13" d="M113.62,131.69c-0.21,0.8-0.7,1.39-1.2,1.49c0.02-0.12,0.05-0.25,0.09-0.37c0.29-1.12,0.78-1.99,1.18-2.16
				C113.73,130.96,113.72,131.32,113.62,131.69"/>
			<path class="st14" d="M121.58,139.5c-4.42-2.06-8.49-2.7-9.07-1.43c-0.59,1.27,2.52,3.96,6.94,6.02c4.42,2.06,8.49,2.7,9.07,1.43
				C129.11,144.25,126,141.56,121.58,139.5"/>
			<path class="st15" d="M120.86,138.99c-3.99-1.86-7.65-2.43-8.18-1.29c-0.53,1.14,2.27,3.57,6.26,5.43
				c3.99,1.85,7.65,2.43,8.18,1.29C127.65,143.28,124.84,140.85,120.86,138.99"/>
			<path class="st14" d="M120.62,136.72c-4.05-0.11-7.36,0.74-7.39,1.9c-0.03,1.16,3.23,2.19,7.28,2.29
				c4.05,0.11,7.36-0.74,7.39-1.9C127.93,137.85,124.67,136.83,120.62,136.72"/>
			<path class="st14" d="M126.89,119.33c-0.43,3.32,0.46,6.17,2,6.37c1.54,0.2,3.13-2.33,3.56-5.65c0.43-3.32-0.46-6.17-2-6.37
				C128.92,113.49,127.33,116.02,126.89,119.33"/>
			<path class="st16" d="M127.45,120.41c-0.39,2.99-0.25,5.48,0.31,5.55c0.56,0.07,1.33-2.29,1.72-5.28
				c0.39-2.99,0.25-5.48-0.31-5.55C128.61,115.05,127.84,117.42,127.45,120.41"/>
			<path class="st17" d="M149.08,96.81c-1.51,7.88-14.94,23.85-33.72,39.38c-3.63,3-7.24,5.8-10.75,8.37l1.32,4.47
				c3.55-2.59,7.19-5.42,10.85-8.45c22.55-18.64,37.39-37.94,33.14-43.08C149.69,97.22,149.41,96.99,149.08,96.81"/>
			<path class="st18" d="M149.07,96.81c-1.5,7.75-15.41,23.06-34.01,38.35c-3.59,2.96-7.17,5.71-10.65,8.24l1.3,4.39
				c3.52-2.55,7.12-5.33,10.75-8.32c22.34-18.35,37.05-37.34,32.84-42.4C149.07,96.81,149.4,96.99,149.07,96.81"/>
			<path class="st19" d="M149.62,109.67c-4.3-0.63-5.36,6.61-1.06,7.24c4.3,0.63,8.03-0.48,8.32-2.48
				C157.17,112.44,153.92,110.31,149.62,109.67"/>
			<path class="st20" d="M149.53,110.54c-4.3-0.63-5.36,6.61-1.06,7.24c4.3,0.63,8.03-0.48,8.32-2.48
				C157.08,113.31,153.83,111.17,149.53,110.54"/>
			<path class="st19" d="M144.32,107.4c-3.12,3.03,1.97,8.28,5.09,5.26c3.12-3.03,4.51-6.65,3.11-8.11
				C151.12,103.1,147.45,104.37,144.32,107.4"/>
			<path class="st20" d="M145.36,109.54c-2.01,1.95,1.79,5.87,3.8,3.92c2.01-1.95,2.8-4.41,1.75-5.49
				C149.86,106.89,147.37,107.59,145.36,109.54"/>
			<path class="st19" d="M151.23,113.63c-2.63-3.46-8.46,0.96-5.83,4.42c2.63,3.46,6.06,5.28,7.67,4.06
				C154.68,120.9,153.86,117.1,151.23,113.63"/>
			<path class="st20" d="M150.35,111.32c-1.32-1.75-5.97,1.78-4.65,3.52c1.32,1.74,3.44,2.37,4.72,1.4
				C151.71,115.27,151.67,113.07,150.35,111.32"/>
			<path class="st19" d="M145.31,115.29c2.07-0.26,1.17-7.52-0.9-7.26c-2.07,0.26-3.54,2.09-3.29,4.1
				C141.36,114.12,143.24,115.54,145.31,115.29"/>
			<path class="st19" d="M149.45,116.07c2.04-3.46-4.26-7.18-6.3-3.72c-2.04,3.47-2.29,7.11-0.55,8.13
				C144.34,121.51,147.41,119.54,149.45,116.07"/>
			<path class="st19" d="M142.47,111.58c1.8,1.38,6.25-4.43,4.45-5.81c-1.8-1.38-4.26-1.2-5.49,0.41
				C140.21,107.79,140.67,110.2,142.47,111.58"/>
			<path class="st20" d="M142.92,112.16c1.8,1.38,6.25-4.43,4.45-5.81c-1.8-1.38-4.26-1.2-5.49,0.41
				C140.66,108.36,141.12,110.78,142.92,112.16"/>
			<path class="st20" d="M147.85,118.01c1.83-0.99-1.65-7.43-3.48-6.44c-1.83,0.99-2.54,3.24-1.58,5.01
				C143.75,118.37,146.02,119,147.85,118.01"/>
			<path class="st21" d="M149.68,112.98c-0.36,0.04-0.62,0.36-0.58,0.72c0.04,0.36,0.36,0.62,0.72,0.58s0.62-0.36,0.58-0.72
				C150.37,113.2,150.04,112.94,149.68,112.98"/>
			<path class="st21" d="M147.4,110.09c-0.36,0.04-0.62,0.36-0.58,0.72c0.04,0.36,0.36,0.62,0.72,0.58s0.62-0.36,0.58-0.72
				C148.08,110.31,147.75,110.05,147.4,110.09"/>
			<path class="st21" d="M148.33,112.24c-0.36,0.04-0.62,0.36-0.58,0.72s0.36,0.62,0.72,0.58c0.36-0.04,0.62-0.36,0.58-0.72
				C149.02,112.46,148.69,112.2,148.33,112.24"/>
			<path class="st21" d="M149.38,115.16c-0.31-0.18-0.71-0.07-0.89,0.24c-0.18,0.31-0.07,0.71,0.24,0.89
				c0.31,0.18,0.71,0.07,0.89-0.24C149.8,115.74,149.69,115.34,149.38,115.16"/>
			<path class="st21" d="M147.7,116.47c-0.31-0.18-0.71-0.07-0.89,0.24c-0.18,0.31-0.07,0.71,0.24,0.89
				c0.31,0.18,0.71,0.07,0.89-0.24C148.12,117.04,148.01,116.65,147.7,116.47"/>
			<path class="st21" d="M148.32,114.13c-0.31-0.18-0.71-0.07-0.89,0.24c-0.18,0.31-0.07,0.71,0.24,0.89
				c0.31,0.18,0.71,0.07,0.89-0.24C148.74,114.71,148.63,114.31,148.32,114.13"/>
			<path class="st21" d="M146.2,114.4c0.24,0.27,0.65,0.3,0.92,0.06c0.27-0.24,0.3-0.65,0.06-0.92c-0.24-0.27-0.65-0.3-0.92-0.06
				C145.99,113.72,145.96,114.13,146.2,114.4"/>
			<path class="st21" d="M148.18,111.29c0.02,0.36,0.33,0.63,0.69,0.61s0.63-0.33,0.61-0.69c-0.02-0.36-0.33-0.63-0.69-0.61
				C148.43,110.62,148.16,110.93,148.18,111.29"/>
			<path class="st21" d="M146.27,112.04c0.02,0.36,0.33,0.63,0.69,0.61c0.36-0.02,0.63-0.33,0.61-0.69
				c-0.02-0.36-0.33-0.63-0.69-0.61C146.52,111.37,146.25,111.68,146.27,112.04"/>
			<path class="st22" d="M150.15,111.23c-0.17,0.02-0.27,0.39-0.22,0.83c0.05,0.44,0.23,0.78,0.4,0.76
				c0.17-0.02,0.27-0.39,0.22-0.83C150.5,111.55,150.32,111.22,150.15,111.23"/>
			<path class="st22" d="M151.06,115.05c-0.04-0.17-0.42-0.22-0.85-0.12s-0.75,0.32-0.71,0.49s0.42,0.22,0.85,0.12
				C150.79,115.44,151.1,115.22,151.06,115.05"/>
			<path class="st22" d="M147.99,112.76c-0.17-0.04-0.4,0.26-0.51,0.69s-0.07,0.81,0.09,0.85c0.17,0.05,0.4-0.26,0.51-0.69
				C148.2,113.18,148.15,112.8,147.99,112.76"/>
			<path class="st22" d="M148.11,108.95c-0.16,0.07-0.15,0.45,0.02,0.86c0.17,0.41,0.43,0.68,0.59,0.62
				c0.16-0.07,0.15-0.45-0.02-0.86C148.54,109.16,148.27,108.89,148.11,108.95"/>
			<path class="st22" d="M146.42,114.95c-0.14,0.1-0.06,0.47,0.19,0.84c0.25,0.36,0.56,0.58,0.71,0.48c0.14-0.1,0.06-0.47-0.19-0.84
				C146.88,115.07,146.57,114.86,146.42,114.95"/>
			<path class="st19" d="M122.79,125.99c-1.48,1.97,1.84,4.46,3.32,2.49c1.48-1.97,1.93-4.13,1.02-4.82
				C126.21,122.97,124.27,124.02,122.79,125.99"/>
			<path class="st19" d="M122.28,129.54c2.26,1,3.93-2.8,1.67-3.8c-2.26-0.99-4.46-0.95-4.92,0.1
				C118.56,126.89,120.02,128.55,122.28,129.54"/>
			<path class="st19" d="M125.2,126.26c-2.44,0.37-1.81,4.48,0.63,4.11c2.44-0.37,4.27-1.59,4.1-2.73
				C129.75,126.51,127.64,125.89,125.2,126.26"/>
			<path class="st19" d="M124.42,129.67c0.44-1.12-4.43-3.03-4.87-1.91c-0.44,1.12,0.3,2.45,1.64,2.98
				C122.53,131.27,123.98,130.79,124.42,129.67"/>
			<path class="st19" d="M125.93,127.81c-1.18-1.96-4.73,0.18-3.56,2.14c1.18,1.96,2.93,3.06,3.91,2.47
				C127.26,131.83,127.11,129.76,125.93,127.81"/>
			<path class="st19" d="M124.09,127.58c1.18-0.53-0.72-4.78-1.9-4.25c-1.18,0.53-1.72,1.91-1.19,3.08
				C121.52,127.58,122.9,128.11,124.09,127.58"/>
			<path class="st20" d="M122.89,126.67c-0.78,1.03,1.46,2.71,2.24,1.68c0.77-1.03,0.9-2.25,0.28-2.71
				C124.8,125.17,123.67,125.64,122.89,126.67"/>
			<path class="st20" d="M121.82,127.83c-0.01,1.29,2.16,1.31,2.17,0.02c0.01-1.29-0.47-2.34-1.07-2.35
				C122.32,125.49,121.83,126.53,121.82,127.83"/>
			<path class="st20" d="M124.89,127.15c-1.59,0.24-1.27,2.39,0.33,2.15c1.59-0.24,2.81-0.92,2.72-1.52
				C127.85,127.19,126.48,126.9,124.89,127.15"/>
			<path class="st20" d="M124.24,128.96c0.23-0.58-1.8-1.37-2.02-0.79c-0.23,0.58,0.04,1.22,0.6,1.44
				C123.38,129.83,124.02,129.54,124.24,128.96"/>
			<path class="st20" d="M125.2,128.27c-0.83-1.39-2.7-0.27-1.86,1.12c0.83,1.39,1.93,2.26,2.44,1.96
				C126.3,131.03,126.04,129.66,125.2,128.27"/>
			<path class="st20" d="M122.63,129.29c0.95-0.42,0.06-2.41-0.89-1.99c-0.94,0.42-1.51,1.21-1.27,1.76
				C120.72,129.61,121.68,129.71,122.63,129.29"/>
		</g>
		<polygon class="st23" points="124.65,126.63 124.26,127.12 123.94,126.58 123.92,127.21 123.34,126.95 123.69,127.48 
			123.07,127.61 123.66,127.83 123.24,128.3 123.85,128.14 123.79,128.76 124.18,128.27 124.5,128.81 124.52,128.18 125.1,128.44 
			124.75,127.91 125.37,127.78 124.78,127.56 125.2,127.09 124.59,127.25 		"/>
		<g>
			<defs>
				<rect id="SVGID_7_" x="104.4" y="96.81" width="52.49" height="52.21"/>
			</defs>
			<clipPath id="SVGID_8_">
				<use xlink:href="#SVGID_7_"  style="overflow:visible;"/>
			</clipPath>
			<path class="st24" d="M123.89,127.56c-0.07,0.18,0.01,0.39,0.19,0.46c0.18,0.07,0.39-0.01,0.46-0.19
				c0.07-0.18-0.01-0.39-0.19-0.46C124.17,127.29,123.97,127.38,123.89,127.56"/>
			<path class="st25" d="M123.07,126.81c-0.04,0.09,0.12,0.24,0.35,0.34c0.23,0.09,0.45,0.1,0.49,0.01
				c0.04-0.09-0.12-0.24-0.35-0.33S123.1,126.72,123.07,126.81"/>
			<path class="st25" d="M125.22,127.39c-0.09-0.03-0.22,0.15-0.29,0.39c-0.07,0.24-0.04,0.46,0.05,0.48
				c0.1,0.03,0.22-0.15,0.29-0.39C125.33,127.63,125.31,127.42,125.22,127.39"/>
			<path class="st25" d="M123.24,128.3c-0.07,0.07,0.02,0.27,0.21,0.44c0.18,0.17,0.38,0.26,0.45,0.18s-0.02-0.27-0.2-0.44
				C123.51,128.32,123.31,128.23,123.24,128.3"/>
			<path class="st25" d="M121.38,127.21c-0.01,0.1,0.18,0.2,0.43,0.22c0.25,0.03,0.46-0.03,0.47-0.13c0.01-0.1-0.18-0.2-0.43-0.22
				C121.6,127.06,121.39,127.12,121.38,127.21"/>
			<path class="st25" d="M123.91,129.68c0.01,0.1,0.22,0.16,0.47,0.13c0.25-0.02,0.44-0.12,0.43-0.22c-0.01-0.1-0.22-0.16-0.47-0.13
				C124.1,129.48,123.9,129.58,123.91,129.68"/>
		</g>
	</g>
</g>
<g id="Text">
</g>
<g id="Safe_Area" class="st0">
	<circle class="st26" cx="126" cy="126" r="54"/>
</g>
</svg>
