<?xml version="1.0" encoding="utf-8"?>
<!-- Generator: Adobe Illustrator 23.0.2, SVG Export Plug-In . SVG Version: 6.00 Build 0)  -->
<svg version="1.1" xmlns="http://www.w3.org/2000/svg" xmlns:xlink="http://www.w3.org/1999/xlink" x="0px" y="0px"
	 viewBox="0 0 252 252" style="enable-background:new 0 0 252 252;" xml:space="preserve">
<style type="text/css">
	.st0{display:none;}
	.st1{display:inline;fill:#FFFFFF;stroke:#252723;stroke-miterlimit:10;}
	.st2{fill:#FFFFFF;}
	.st3{fill:#EAC997;}
	.st4{fill:#7C5528;}
	.st5{fill:#674325;}
	.st6{fill:#68453E;}
	.st7{fill:#A07D50;}
	.st8{display:inline;fill:none;stroke:#252723;stroke-miterlimit:10;}
</style>
<g id="Bleed" class="st0">
	<circle class="st1" cx="126" cy="126" r="72"/>
</g>
<g id="Background">
</g>
<g id="Image">
	<circle class="st2" cx="126" cy="126" r="57.66"/>
	<circle class="st3" cx="126" cy="126" r="50.01"/>
	<circle class="st2" cx="126" cy="126" r="40.72"/>
	<circle class="st3" cx="126" cy="126" r="36"/>
	<g>
		<ellipse class="st4" cx="140.71" cy="127.77" rx="15.45" ry="1.37"/>
		
			<ellipse transform="matrix(0.9245 -0.3812 0.3812 0.9245 -31.8955 58.874)" class="st5" cx="132.64" cy="109.94" rx="5.35" ry="2.84"/>
		
			<ellipse transform="matrix(0.9245 -0.3812 0.3812 0.9245 -32.343 59.265)" class="st6" cx="133.41" cy="111.26" rx="6.68" ry="2.84"/>
		
			<ellipse transform="matrix(0.9245 -0.3812 0.3812 0.9245 -37.15 62.3673)" class="st5" cx="138.83" cy="124.95" rx="5.35" ry="2.84"/>
		
			<ellipse transform="matrix(0.9245 -0.3812 0.3812 0.9245 -36.6163 62.1059)" class="st6" cx="138.44" cy="123.47" rx="6.68" ry="2.84"/>
		<polygon class="st4" points="114.6,125.66 129.76,122.65 128.29,118.5 		"/>
		
			<ellipse transform="matrix(0.9001 -0.4357 0.4357 0.9001 -39.4523 68.5561)" class="st5" cx="129.76" cy="120.3" rx="1.99" ry="2.66"/>
		<path class="st7" d="M139.56,108.73l4.58,11.12c-1.77,0.01-4.13,0.53-6.56,1.53s-4.47,2.3-5.74,3.54l-4.58-11.12
			c1.77-0.01,4.13-0.53,6.56-1.53S138.29,109.97,139.56,108.73z"/>
		<path class="st7" d="M156.16,137.43c0,0.76-6.92,1.37-15.46,1.37c-8.54,0-15.45-0.61-15.45-1.37c0-0.05,0.03-0.1,0.09-0.15
			l-0.09-9.43c3.82,0.51,9.32,0.8,15.44,0.77c6.12-0.04,11.61-0.41,15.42-0.96l0.1,9.57c-0.09-0.01-0.17-0.02-0.26-0.03
			C156.09,137.27,156.16,137.35,156.16,137.43z"/>
		
			<ellipse transform="matrix(0.9245 -0.3812 0.3812 0.9245 -32.8121 59.6261)" class="st4" cx="134.08" cy="112.63" rx="8.49" ry="2.03"/>
		
			<ellipse transform="matrix(0.9245 -0.3812 0.3812 0.9245 -36.0679 61.8914)" class="st4" cx="138.17" cy="121.98" rx="8.71" ry="1.99"/>
		
			<ellipse transform="matrix(0.9001 -0.4357 0.4357 0.9001 -42.6681 63.7621)" class="st4" cx="117.69" cy="124.92" rx="0.64" ry="2.43"/>
		<polygon class="st4" points="128.12,121.38 100.25,134.87 97.89,128.11 		"/>
		
			<ellipse transform="matrix(0.9808 -0.1949 0.1949 0.9808 -23.7466 21.7962)" class="st4" cx="98.87" cy="131.56" rx="4.64" ry="3.7"/>
	</g>
</g>
<g id="Text">
	<g>
		<path class="st2" d="M106.8,89.4l-2.31-5.11c-0.12-0.27-0.01-0.57,0.26-0.69l1.02-0.46c1.67-0.76,3.64-0.01,4.39,1.66
			c0.76,1.68,0.03,3.65-1.65,4.41l-1.02,0.46C107.22,89.78,106.92,89.66,106.8,89.4z M107.54,88.48l0.54-0.24
			c1.14-0.53,1.64-1.86,1.12-3.01c-0.51-1.13-1.85-1.65-2.99-1.13l-0.54,0.24L107.54,88.48z"/>
		<path class="st2" d="M112.23,81.39c0.09,0.27-0.05,0.56-0.33,0.65c-0.27,0.09-0.56-0.07-0.65-0.34l-0.06-0.19
			c-0.09-0.27,0.06-0.56,0.33-0.65c0.28-0.09,0.56,0.06,0.65,0.33L112.23,81.39z M112.76,83.03l1.14,3.52
			c0.09,0.27-0.05,0.56-0.33,0.65c-0.27,0.09-0.56-0.06-0.65-0.33l-1.14-3.52c-0.09-0.29,0.06-0.57,0.33-0.66
			C112.39,82.6,112.66,82.74,112.76,83.03z"/>
		<path class="st2" d="M115.7,87.82l-0.75-3.55c0,0,0,0,0-0.01l-0.39-1.84c-0.06-0.27,0.12-0.54,0.39-0.6
			c0.26-0.05,0.51,0.08,0.59,0.27c0.3-0.29,0.71-0.55,1.18-0.65c1.24-0.26,2.47,0.59,2.74,1.86c0.27,1.27-0.53,2.52-1.77,2.78
			c-0.46,0.1-0.94,0.05-1.33-0.12l0.34,1.63c0.06,0.26-0.13,0.55-0.42,0.61C116.03,88.28,115.75,88.08,115.7,87.82z M115.97,84.05
			c0.08,0.36,0.27,0.69,0.56,0.85c0.29,0.21,0.62,0.28,0.96,0.21c0.32-0.07,0.6-0.26,0.79-0.58c0.17-0.26,0.24-0.64,0.17-1
			c-0.08-0.36-0.29-0.67-0.56-0.86c-0.29-0.2-0.64-0.26-0.95-0.2c-0.34,0.07-0.62,0.27-0.8,0.57
			C115.95,83.33,115.9,83.69,115.97,84.05z"/>
		<path class="st2" d="M121.15,78.85c0.29-0.03,0.55,0.18,0.58,0.46l0.6,5.57c0.03,0.28-0.18,0.54-0.47,0.58
			c-0.28,0.03-0.55-0.18-0.58-0.46l-0.6-5.57C120.66,79.14,120.87,78.88,121.15,78.85z"/>
		<path class="st2" d="M123.9,84.58c-0.41-0.41-0.67-1-0.67-1.67c-0.01-0.65,0.23-1.21,0.64-1.67c0.42-0.45,0.97-0.73,1.63-0.74
			c0.63-0.01,1.2,0.26,1.6,0.71c0.43,0.45,0.67,1.01,0.68,1.66c0.01,0.67-0.22,1.26-0.65,1.68c-0.39,0.45-0.95,0.73-1.58,0.74
			C124.89,85.29,124.33,85.02,123.9,84.58z M124.26,82.9c0,0.41,0.13,0.74,0.35,1c0.24,0.23,0.56,0.35,0.92,0.34
			c0.33,0,0.64-0.13,0.87-0.36c0.24-0.27,0.37-0.6,0.36-1.01c0-0.39-0.14-0.73-0.38-0.98c-0.24-0.21-0.55-0.36-0.88-0.35
			c-0.36,0-0.67,0.16-0.91,0.37C124.38,82.17,124.26,82.51,124.26,82.9z"/>
		<path class="st2" d="M133.53,83.13c0,0.01,0,0.02,0,0.03l-0.38,2.22c-0.05,0.27-0.31,0.46-0.58,0.41
			c-0.26-0.04-0.47-0.31-0.42-0.58l0.38-2.22c0-0.01,0-0.02,0-0.03c0.08-0.52-0.28-1.01-0.81-1.1c-0.52-0.09-1.02,0.27-1.11,0.81
			l-0.38,2.22c0,0.02-0.02,0.04-0.02,0.06c0,0.01,0,0.03,0,0.03c-0.01,0.02-0.02,0.04-0.04,0.05c0,0.01-0.01,0.03-0.01,0.05
			c-0.11,0.15-0.32,0.25-0.52,0.22c-0.04-0.01-0.06-0.02-0.09-0.03c-0.22-0.09-0.36-0.31-0.32-0.55l0.38-2.22c0-0.01,0-0.01,0-0.01
			l0.25-1.45c0.05-0.29,0.31-0.47,0.58-0.42c0.2,0.03,0.36,0.17,0.4,0.36c0.33-0.13,0.7-0.17,1.05-0.11
			c0.59,0.1,1.07,0.43,1.36,0.89c0.41-0.34,0.99-0.5,1.58-0.4c1.08,0.18,1.8,1.21,1.62,2.3l-0.38,2.22
			c-0.04,0.27-0.31,0.46-0.58,0.41s-0.47-0.31-0.42-0.58l0.38-2.22c0.09-0.53-0.27-1.04-0.78-1.12
			C134.12,82.27,133.63,82.62,133.53,83.13z"/>
		<path class="st2" d="M142.31,86.05l-0.63,1.75c-0.09,0.26-0.38,0.4-0.64,0.3c-0.23-0.08-0.35-0.32-0.33-0.55
			c-0.43,0.12-0.88,0.12-1.33-0.04c-0.61-0.22-1.05-0.66-1.29-1.2c-0.24-0.55-0.26-1.18-0.05-1.79c0.22-0.62,0.64-1.09,1.17-1.36
			c0.53-0.27,1.15-0.35,1.76-0.13c0.45,0.16,0.8,0.46,1.05,0.82c0.13-0.21,0.37-0.31,0.61-0.23c0.26,0.09,0.4,0.38,0.3,0.65
			L142.31,86.05z M141.36,85.72c0.13-0.38,0.11-0.75-0.02-1.05c-0.13-0.32-0.39-0.55-0.7-0.66c-0.32-0.12-0.67-0.1-0.96,0.07
			c-0.29,0.15-0.53,0.42-0.67,0.8c-0.13,0.37-0.12,0.73,0.01,1.04c0.13,0.3,0.39,0.53,0.71,0.65c0.31,0.11,0.66,0.1,0.96-0.05
			C140.98,86.36,141.23,86.08,141.36,85.72z"/>
		<path class="st2" d="M146.82,86.12c-0.13,0.26-0.45,0.36-0.71,0.24l-0.21-0.1l-1.17,2.38c0.26,0.13,0.37,0.44,0.24,0.71
			c-0.13,0.26-0.43,0.37-0.7,0.24c-0.52-0.26-0.74-0.89-0.48-1.41l1.17-2.38l-0.25-0.12c-0.26-0.13-0.37-0.44-0.24-0.7
			c0.13-0.26,0.43-0.37,0.7-0.24l0.25,0.12l0.61-1.24c0.13-0.26,0.44-0.37,0.71-0.24c0.27,0.13,0.37,0.43,0.24,0.7l-0.61,1.24
			l0.21,0.11C146.83,85.54,146.95,85.86,146.82,86.12z"/>
		<path class="st2" d="M149.35,87.57l-1.88,3.19c-0.14,0.25-0.45,0.33-0.7,0.18c-0.25-0.15-0.33-0.46-0.18-0.7l1.88-3.2
			c0.15-0.26,0.46-0.33,0.71-0.19C149.42,87.01,149.5,87.31,149.35,87.57z M150.22,86.08c-0.14,0.25-0.45,0.34-0.71,0.19
			c-0.25-0.14-0.32-0.46-0.18-0.71l0.1-0.17c0.14-0.25,0.46-0.33,0.7-0.18c0.25,0.15,0.33,0.46,0.18,0.7L150.22,86.08z"/>
		<path class="st2" d="M149.59,89.85c0.78-1.07,2.29-1.28,3.35-0.51c0.46,0.34,0.77,0.82,0.92,1.31c0.08,0.27-0.08,0.55-0.33,0.63
			c-0.29,0.07-0.56-0.07-0.63-0.34c-0.09-0.29-0.27-0.57-0.55-0.78c-0.62-0.45-1.51-0.31-1.94,0.28c-0.43,0.59-0.28,1.47,0.34,1.93
			c0.28,0.2,0.6,0.29,0.91,0.28c0.26-0.01,0.5,0.21,0.52,0.5c0,0.26-0.21,0.48-0.5,0.51c-0.5,0-1.06-0.14-1.52-0.48
			C149.1,92.42,148.83,90.91,149.59,89.85z"/>
	</g>
	<g>
		<path d="M107.32,89.1l-2.25-5.14c-0.12-0.27,0-0.57,0.27-0.69l1.03-0.45c1.68-0.74,3.64,0.04,4.37,1.71
			c0.74,1.69-0.02,3.65-1.7,4.39l-1.03,0.45C107.74,89.49,107.43,89.36,107.32,89.1z M108.07,88.19l0.54-0.24
			c1.15-0.51,1.67-1.84,1.16-3c-0.5-1.14-1.83-1.67-2.98-1.17l-0.54,0.24L108.07,88.19z"/>
		<path d="M112.84,81.16c0.08,0.27-0.05,0.56-0.34,0.65c-0.27,0.09-0.56-0.07-0.64-0.35l-0.06-0.19c-0.08-0.27,0.07-0.56,0.34-0.64
			c0.28-0.09,0.56,0.07,0.64,0.34L112.84,81.16z M113.35,82.8l1.1,3.54c0.08,0.27-0.06,0.56-0.34,0.64
			c-0.27,0.08-0.56-0.07-0.64-0.34l-1.1-3.54c-0.09-0.29,0.06-0.57,0.33-0.65C112.99,82.37,113.26,82.51,113.35,82.8z"/>
		<path d="M116.24,87.64l-0.7-3.56c0,0,0,0,0-0.01l-0.36-1.85c-0.05-0.27,0.13-0.54,0.4-0.59c0.26-0.05,0.51,0.08,0.59,0.28
			c0.3-0.29,0.72-0.54,1.19-0.63c1.24-0.24,2.46,0.62,2.72,1.89c0.25,1.28-0.56,2.51-1.8,2.76c-0.47,0.09-0.94,0.04-1.32-0.14
			l0.32,1.64c0.05,0.26-0.13,0.55-0.43,0.61C116.56,88.1,116.29,87.9,116.24,87.64z M116.56,83.87c0.07,0.36,0.26,0.69,0.55,0.86
			c0.29,0.22,0.62,0.28,0.96,0.22c0.32-0.06,0.61-0.26,0.8-0.56c0.17-0.26,0.25-0.64,0.18-1c-0.07-0.36-0.29-0.67-0.55-0.87
			c-0.29-0.2-0.63-0.27-0.95-0.21c-0.34,0.07-0.63,0.26-0.81,0.56C116.54,83.14,116.48,83.5,116.56,83.87z"/>
		<path d="M121.8,78.73c0.29-0.03,0.55,0.19,0.58,0.47l0.54,5.58c0.03,0.28-0.19,0.54-0.48,0.57c-0.28,0.03-0.54-0.19-0.57-0.47
			l-0.54-5.58C121.3,79.02,121.51,78.76,121.8,78.73z"/>
		<path d="M124.48,84.49c-0.41-0.42-0.65-1.01-0.65-1.67c0-0.65,0.25-1.21,0.66-1.66c0.43-0.45,0.98-0.72,1.64-0.72
			c0.63,0,1.2,0.28,1.59,0.72c0.43,0.46,0.66,1.02,0.66,1.67c0,0.67-0.24,1.25-0.67,1.67c-0.39,0.44-0.96,0.72-1.59,0.72
			C125.45,85.21,124.9,84.94,124.48,84.49z M124.86,82.82c0,0.41,0.12,0.74,0.34,1.01c0.24,0.23,0.55,0.35,0.91,0.35
			c0.33,0,0.64-0.12,0.88-0.35c0.24-0.27,0.37-0.6,0.37-1.01c0-0.39-0.13-0.73-0.37-0.99c-0.24-0.21-0.54-0.36-0.87-0.36
			c-0.36,0-0.67,0.15-0.91,0.36C124.98,82.09,124.86,82.43,124.86,82.82z"/>
		<path d="M134.12,83.16c0,0.01,0,0.02,0,0.03l-0.4,2.22c-0.05,0.27-0.32,0.46-0.59,0.41c-0.26-0.05-0.46-0.32-0.42-0.59l0.4-2.22
			c0-0.01,0-0.02,0-0.03c0.08-0.52-0.27-1.01-0.79-1.11c-0.51-0.09-1.02,0.26-1.12,0.79l-0.4,2.22c0,0.02-0.02,0.04-0.02,0.06
			c0,0.01-0.01,0.03-0.01,0.03c-0.01,0.02-0.02,0.04-0.04,0.05c0,0.01,0,0.03-0.01,0.05c-0.12,0.15-0.33,0.25-0.52,0.21
			c-0.04-0.01-0.06-0.02-0.09-0.03c-0.21-0.1-0.36-0.32-0.31-0.56l0.4-2.22c0-0.01,0-0.01,0-0.01l0.26-1.45
			c0.05-0.29,0.32-0.46,0.59-0.42c0.2,0.04,0.35,0.17,0.4,0.36c0.33-0.12,0.7-0.16,1.05-0.1c0.59,0.11,1.07,0.44,1.35,0.91
			c0.42-0.34,1-0.49,1.58-0.38c1.08,0.19,1.79,1.23,1.59,2.32l-0.4,2.21c-0.05,0.27-0.31,0.46-0.58,0.41
			c-0.27-0.05-0.46-0.32-0.42-0.59l0.4-2.22c0.1-0.53-0.26-1.04-0.77-1.13C134.73,82.31,134.23,82.65,134.12,83.16z"/>
		<path d="M142.87,86.19l-0.65,1.75c-0.1,0.26-0.39,0.39-0.65,0.3c-0.23-0.09-0.35-0.32-0.32-0.55c-0.43,0.12-0.88,0.11-1.33-0.05
			c-0.61-0.23-1.04-0.67-1.27-1.21c-0.23-0.55-0.25-1.19-0.03-1.79c0.23-0.61,0.66-1.09,1.19-1.34c0.54-0.27,1.16-0.33,1.76-0.11
			c0.45,0.17,0.79,0.46,1.04,0.83c0.14-0.2,0.38-0.31,0.61-0.22c0.26,0.1,0.39,0.39,0.29,0.66L142.87,86.19z M141.92,85.84
			c0.14-0.38,0.12-0.75-0.01-1.05c-0.12-0.32-0.38-0.56-0.69-0.67c-0.32-0.12-0.67-0.11-0.96,0.06c-0.3,0.14-0.54,0.42-0.68,0.79
			c-0.13,0.37-0.13,0.73,0,1.04c0.12,0.3,0.38,0.54,0.7,0.65c0.31,0.12,0.66,0.1,0.96-0.04C141.54,86.48,141.79,86.21,141.92,85.84z
			"/>
		<path d="M147.38,86.31c-0.13,0.25-0.46,0.36-0.71,0.23l-0.21-0.11l-1.2,2.37c0.26,0.13,0.36,0.45,0.23,0.71
			c-0.13,0.26-0.44,0.36-0.7,0.23c-0.52-0.26-0.73-0.9-0.47-1.42l1.2-2.37l-0.25-0.12c-0.26-0.13-0.36-0.45-0.23-0.7
			c0.13-0.26,0.44-0.36,0.7-0.23l0.25,0.12l0.62-1.23c0.13-0.26,0.45-0.36,0.71-0.23c0.26,0.13,0.36,0.44,0.23,0.7l-0.62,1.23
			l0.21,0.11C147.39,85.73,147.51,86.05,147.38,86.31z"/>
		<path d="M149.89,87.79l-1.92,3.17c-0.15,0.24-0.45,0.33-0.7,0.17c-0.24-0.15-0.32-0.46-0.17-0.7l1.92-3.17
			c0.16-0.26,0.46-0.33,0.71-0.18C149.97,87.23,150.04,87.53,149.89,87.79z M150.78,86.31c-0.15,0.24-0.46,0.33-0.71,0.18
			c-0.24-0.15-0.32-0.47-0.17-0.71l0.1-0.17c0.15-0.24,0.46-0.32,0.7-0.17c0.25,0.15,0.32,0.46,0.17,0.71L150.78,86.31z"/>
		<path d="M150.1,90.07c0.79-1.06,2.3-1.25,3.36-0.47c0.46,0.34,0.76,0.83,0.9,1.32c0.07,0.27-0.09,0.55-0.34,0.63
			c-0.29,0.07-0.56-0.08-0.63-0.35c-0.09-0.29-0.26-0.57-0.54-0.78c-0.62-0.46-1.51-0.33-1.95,0.26s-0.3,1.47,0.32,1.93
			c0.27,0.21,0.6,0.29,0.91,0.29c0.26,0,0.49,0.21,0.51,0.51c0,0.26-0.21,0.48-0.5,0.5c-0.5-0.01-1.06-0.16-1.51-0.5
			C149.57,92.63,149.33,91.12,150.1,90.07z"/>
	</g>
</g>
<g id="Safe_Area" class="st0">
	<circle class="st8" cx="126" cy="126" r="54"/>
</g>
</svg>
