<?xml version="1.0" encoding="utf-8"?>
<!-- Generator: Adobe Illustrator 23.0.2, SVG Export Plug-In . SVG Version: 6.00 Build 0)  -->
<svg version="1.1" xmlns="http://www.w3.org/2000/svg" xmlns:xlink="http://www.w3.org/1999/xlink" x="0px" y="0px"
	 viewBox="0 0 252 252" style="enable-background:new 0 0 252 252;" xml:space="preserve">
<style type="text/css">
	.st0{display:none;}
	.st1{display:inline;fill:#FFFFFF;stroke:#252723;stroke-miterlimit:10;}
	.st2{fill:#FFFFFF;}
	.st3{fill:#DFC2A8;}
	.st4{fill:#212020;}
	.st5{clip-path:url(#SVGID_2_);fill:#212020;}
	.st6{clip-path:url(#SVGID_4_);fill:#212020;}
	.st7{clip-path:url(#SVGID_6_);fill:#212020;}
	.st8{clip-path:url(#SVGID_8_);fill:#212020;}
	.st9{clip-path:url(#SVGID_10_);fill:#212020;}
	.st10{clip-path:url(#SVGID_12_);fill:#212020;}
	.st11{clip-path:url(#SVGID_14_);fill:#FFFFFF;}
	.st12{clip-path:url(#SVGID_14_);fill:#212020;}
	.st13{display:inline;fill:none;stroke:#252723;stroke-miterlimit:10;}
</style>
<g id="Bleed" class="st0">
	<circle class="st1" cx="126" cy="126" r="72"/>
</g>
<g id="Background">
</g>
<g id="Image">
	<circle class="st2" cx="126" cy="126" r="57.66"/>
	<circle class="st3" cx="126" cy="126" r="50.01"/>
	<circle class="st2" cx="126" cy="126" r="45.64"/>
	<circle class="st3" cx="126" cy="126" r="40.51"/>
	<ellipse class="st2" cx="127.72" cy="124.43" rx="37.25" ry="39.54"/>
	<circle class="st3" cx="130.65" cy="122.91" r="35.69"/>
	<g>
		<polygon class="st4" points="146.42,138.01 145.05,137.61 145.41,125.46 139.82,136.11 138.46,135.71 146.97,119.49 		"/>
		<g>
			<defs>
				<rect id="SVGID_1_" x="101.34" y="95.17" width="52.76" height="51.25"/>
			</defs>
			<clipPath id="SVGID_2_">
				<use xlink:href="#SVGID_1_"  style="overflow:visible;"/>
			</clipPath>
			<path class="st5" d="M142.68,135.49c-0.32,1.11-0.14,2.25,0.41,3.17c-1.29-0.95-1.92-2.67-1.45-4.32c0.6-2.1,2.76-3.31,4.81-2.7
				c0.97,0.29,1.74,0.93,2.23,1.75c-0.35-0.26-0.75-0.46-1.19-0.6C145.43,132.19,143.28,133.39,142.68,135.49"/>
			<path class="st5" d="M147.11,127.97c-0.59,1.05-2.23,1.22-3.66,0.37c-1.43-0.84-2.1-2.38-1.51-3.42
				c0.59-1.05,2.23-1.21,3.66-0.37C147.03,125.39,147.7,126.92,147.11,127.97"/>
			<path class="st5" d="M124.95,106.19c0,2.71-3.29,4.9-7.34,4.9c-4.06,0-7.34-2.2-7.34-4.9c0-0.43,0.08-0.85,0.24-1.24
				c0.82,2.11,3.69,3.66,7.1,3.66c3.41,0,6.28-1.55,7.1-3.66C124.86,105.34,124.95,105.76,124.95,106.19"/>
			<path class="st5" d="M145.06,118.32c-1.88,1.88-6.86-0.22-11.13-4.69c-4.26-4.47-6.19-9.61-4.31-11.49c0.3-0.3,0.68-0.5,1.12-0.6
				c-0.6,2.36,1.33,6.6,4.92,10.36c3.59,3.76,7.68,5.84,10.01,5.29C145.56,117.64,145.35,118.02,145.06,118.32"/>
		</g>
		<rect x="123.94" y="100.74" class="st4" width="7.47" height="10.35"/>
		<rect x="126.14" y="107.08" class="st4" width="3.33" height="32.15"/>
		<rect x="124.95" y="99.27" class="st4" width="5.53" height="2.02"/>
		<g>
			<defs>
				<rect id="SVGID_3_" x="101.34" y="95.17" width="52.76" height="51.25"/>
			</defs>
			<clipPath id="SVGID_4_">
				<use xlink:href="#SVGID_3_"  style="overflow:visible;"/>
			</clipPath>
			<path class="st6" d="M129.97,97.47c0,1.27-1.01,2.3-2.25,2.3s-2.25-1.03-2.25-2.3c0-1.27,1.01-2.3,2.25-2.3
				S129.97,96.2,129.97,97.47"/>
			<path class="st6" d="M148.33,116.61c0,1.27-1.01,2.3-2.25,2.3c-1.24,0-2.25-1.03-2.25-2.3c0-1.27,1.01-2.3,2.25-2.3
				C147.32,114.3,148.33,115.33,148.33,116.61"/>
		</g>
		<rect x="124.95" y="110.03" class="st4" width="5.53" height="2.81"/>
		<polygon class="st4" points="146.46,116.13 148.2,121.85 144.73,121.85 		"/>
		<g>
			<defs>
				<rect id="SVGID_5_" x="101.34" y="95.17" width="52.76" height="51.25"/>
			</defs>
			<clipPath id="SVGID_6_">
				<use xlink:href="#SVGID_5_"  style="overflow:visible;"/>
			</clipPath>
			<path class="st7" d="M123.76,146.05C123.76,146.05,123.76,146.05,123.76,146.05c-0.01-0.03-0.02-0.06-0.02-0.08
				c0-0.08,0.01-0.15,0.02-0.23c0-0.01,0-0.01,0.01-0.02v0.01c0.01,0.06,0.02,0.11,0.04,0.17
				C123.79,145.95,123.77,146,123.76,146.05"/>
			<path class="st7" d="M123.76,146.42l-0.01-0.05c0,0,0-0.01,0-0.01c0-0.03-0.01-0.05-0.01-0.08c0-0.01,0-0.02,0-0.03
				c0,0.04,0.01,0.09,0.01,0.13C123.76,146.39,123.76,146.41,123.76,146.42"/>
			<path class="st7" d="M153.52,136.34c0.02,0.09,0.03,0.17,0.03,0.26c0,1.74-3.48,3.15-7.78,3.15c-4.12,0-7.48-1.29-7.76-2.93
				c0-0.01,0-0.02,0-0.03c0-0.03-0.01-0.06-0.01-0.09c0,0.01,0,0.01,0,0.02c0-0.01,0-0.02,0-0.03c0-0.01,0-0.01,0-0.02
				c0-0.01,0-0.02,0-0.03c0-0.01,0-0.03,0-0.05c0-0.03,0-0.06,0.01-0.09c0,0.02,0.01,0.04,0.01,0.05c0,0,0,0,0,0
				c0.01-0.04,0.02-0.07,0.04-0.1c-0.01-0.04-0.02-0.08-0.03-0.12v0c-0.02-0.09-0.03-0.18-0.03-0.27c0-0.62,0.44-1.19,1.2-1.68
				c1.3,1,3.89,1.68,6.88,1.68c2.77,0,5.21-0.59,6.58-1.47c0.57,0.44,0.9,0.94,0.9,1.47C153.55,136.16,153.54,136.25,153.52,136.34"
				/>
			<path class="st7" d="M123.74,146.19c0-0.01,0-0.01,0-0.03c0,0.01,0,0.03,0,0.04C123.74,146.2,123.74,146.2,123.74,146.19"/>
			<path class="st7" d="M123.82,145.9c-0.02,0.05-0.04,0.1-0.05,0.15c0,0,0,0,0-0.01C123.77,146,123.79,145.95,123.82,145.9"/>
			<path class="st7" d="M123.76,146.05C123.76,146.05,123.76,146.05,123.76,146.05c-0.01-0.03-0.02-0.06-0.02-0.08
				c-0.01-0.02-0.01-0.03-0.01-0.05c0-0.06,0.01-0.12,0.03-0.17c0-0.01,0-0.01,0.01-0.01c0.01,0.06,0.02,0.11,0.04,0.17
				C123.79,145.95,123.77,146,123.76,146.05"/>
			<path class="st7" d="M102.12,127.17C102.12,127.16,102.12,127.16,102.12,127.17c-0.01-0.01-0.01-0.01-0.01-0.02
				c-0.01-0.02-0.01-0.04-0.01-0.06c0-0.01,0-0.02,0-0.03c0-0.01,0-0.02,0-0.03C102.11,127.08,102.12,127.12,102.12,127.17"/>
		</g>
		<polygon class="st4" points="145.77,123.15 151.49,135.99 153.55,136.07 146.87,121.06 		"/>
		<g>
			<defs>
				<rect id="SVGID_7_" x="101.34" y="95.17" width="52.76" height="51.25"/>
			</defs>
			<clipPath id="SVGID_8_">
				<use xlink:href="#SVGID_7_"  style="overflow:visible;"/>
			</clipPath>
			<path class="st8" d="M111.67,106.32c0,1.27-1.01,2.3-2.25,2.3c-1.24,0-2.25-1.03-2.25-2.3c0-1.27,1.01-2.3,2.25-2.3
				C110.66,104.02,111.67,105.05,111.67,106.32"/>
		</g>
		<polygon class="st4" points="109.81,105.85 111.55,111.57 108.07,111.57 		"/>
		<g>
			<defs>
				<rect id="SVGID_9_" x="101.34" y="95.17" width="52.76" height="51.25"/>
			</defs>
			<clipPath id="SVGID_10_">
				<use xlink:href="#SVGID_9_"  style="overflow:visible;"/>
			</clipPath>
			<path class="st9" d="M116.87,126.06c0.02,0.09,0.03,0.17,0.03,0.26c0,1.74-3.48,3.15-7.78,3.15c-4.12,0-7.48-1.29-7.76-2.93
				c0-0.01,0-0.02,0-0.03c-0.01-0.03-0.01-0.06-0.01-0.09c0,0.01,0,0.01,0,0.02c0-0.01,0-0.02,0-0.03c0-0.01,0-0.01,0-0.02
				c0-0.01,0-0.02,0-0.03c0-0.01,0-0.03,0-0.05c0-0.03,0-0.06,0-0.09c0,0.02,0,0.04,0.01,0.05c0,0,0,0,0,0
				c0.01-0.04,0.02-0.07,0.04-0.1c-0.01-0.04-0.02-0.08-0.03-0.12v0c-0.02-0.09-0.03-0.18-0.03-0.27c0-0.62,0.44-1.19,1.19-1.68
				c1.3,1,3.89,1.68,6.88,1.68c2.77,0,5.21-0.59,6.58-1.47c0.57,0.44,0.9,0.94,0.9,1.47C116.9,125.88,116.89,125.97,116.87,126.06"
				/>
		</g>
		<polygon class="st4" points="101.8,125.43 103.17,125.82 108.75,115.18 108.4,127.33 109.76,127.73 110.31,109.21 		"/>
		<polygon class="st4" points="109.12,112.87 114.83,125.71 116.9,125.79 110.21,110.78 		"/>
		<g>
			<defs>
				<rect id="SVGID_11_" x="101.34" y="95.17" width="52.76" height="51.25"/>
			</defs>
			<clipPath id="SVGID_12_">
				<use xlink:href="#SVGID_11_"  style="overflow:visible;"/>
			</clipPath>
			<path class="st10" d="M142.01,142.87c0,1.45-6.3,2.63-14.06,2.63s-14.06-1.18-14.06-2.63s6.3-2.63,14.06-2.63
				S142.01,141.42,142.01,142.87"/>
		</g>
		<rect x="124.95" y="138.12" class="st4" width="5.53" height="2.34"/>
		<g>
			<defs>
				<rect id="SVGID_13_" x="101.34" y="95.17" width="52.76" height="51.25"/>
			</defs>
			<clipPath id="SVGID_14_">
				<use xlink:href="#SVGID_13_"  style="overflow:visible;"/>
			</clipPath>
			<path class="st11" d="M151.97,132.6c0,2.35-1.69,4.26-3.77,4.26c-2.08,0-3.77-1.91-3.77-4.26c0-2.35,1.69-4.26,3.77-4.26
				C150.28,128.34,151.97,130.25,151.97,132.6"/>
			<path class="st12" d="M150.15,133.55c-0.66-0.21-1.04-0.93-0.83-1.61c0.2-0.68,0.91-1.06,1.57-0.85
				c0.66,0.21,1.04,0.93,0.83,1.61C151.52,133.38,150.82,133.76,150.15,133.55"/>
			<path class="st11" d="M149.86,133.05c-0.33-0.1-0.51-0.45-0.41-0.79c0.1-0.33,0.45-0.52,0.77-0.41c0.32,0.1,0.51,0.45,0.41,0.79
				C150.53,132.97,150.18,133.16,149.86,133.05"/>
			<path class="st12" d="M145.84,133.45c-0.66-0.21-1.04-0.93-0.83-1.61c0.2-0.68,0.91-1.06,1.57-0.85
				c0.66,0.21,1.04,0.93,0.83,1.61C147.21,133.28,146.5,133.66,145.84,133.45"/>
			<path class="st11" d="M145.54,132.95c-0.33-0.1-0.51-0.45-0.41-0.79c0.1-0.33,0.45-0.52,0.77-0.42c0.32,0.1,0.51,0.45,0.41,0.79
				C146.21,132.87,145.87,133.06,145.54,132.95"/>
			<path class="st12" d="M151.37,135.31c0.28-0.64,0.43-1.37,0.43-2.15c0-2.47-1.57-4.48-3.51-4.48c-1.94,0-3.51,2.01-3.51,4.48
				c0,1.14,0.33,2.17,0.88,2.97c-1.08-0.93-1.79-2.46-1.79-4.18c0-2.84,1.91-5.14,4.27-5.14c2.36,0,4.27,2.3,4.27,5.14
				C152.42,133.23,152.03,134.41,151.37,135.31"/>
			<path class="st12" d="M153.1,126.34c-1,1.76-2.31,2.9-2.94,2.53c-0.63-0.37-0.33-2.1,0.67-3.86c1-1.76,2.31-2.9,2.94-2.53
				C154.4,122.85,154.1,124.58,153.1,126.34"/>
			<path class="st12" d="M145.58,125.75c1.12,1.14,1.64,2.45,1.18,2.92c-0.46,0.47-1.74-0.07-2.86-1.21s-1.65-2.45-1.18-2.92
				C143.18,124.07,144.46,124.61,145.58,125.75"/>
			<path class="st12" d="M149.42,135.07c0,0.43-0.34,0.78-0.76,0.78c-0.42,0-0.77-0.35-0.77-0.78c0-0.43,0.34-0.78,0.77-0.78
				C149.08,134.29,149.42,134.64,149.42,135.07"/>
		</g>
	</g>
</g>
<g id="Text">
</g>
<g id="Safe_Area" class="st0">
	<circle class="st13" cx="126" cy="126" r="54"/>
</g>
</svg>
