<?xml version="1.0" encoding="utf-8"?>
<!-- Generator: Adobe Illustrator 23.0.2, SVG Export Plug-In . SVG Version: 6.00 Build 0)  -->
<svg version="1.1" xmlns="http://www.w3.org/2000/svg" xmlns:xlink="http://www.w3.org/1999/xlink" x="0px" y="0px"
	 viewBox="0 0 360 504" style="enable-background:new 0 0 360 504;" xml:space="preserve">
<style type="text/css">
	.st0{fill:#FFFFFF;}
	.st1{fill:#BFD8E4;}
	.st2{fill:#252723;}
	.st3{clip-path:url(#SVGID_2_);fill:#A1D0F1;}
	.st4{clip-path:url(#SVGID_2_);fill:#B9DCF5;}
	.st5{clip-path:url(#SVGID_2_);fill:#94B0C3;}
	.st6{clip-path:url(#SVGID_2_);fill:#212020;}
	.st7{clip-path:url(#SVGID_2_);fill:#FFFFFF;}
</style>
<g id="Color_Strip">
	<rect x="45" y="63" class="st0" width="270" height="378"/>
	<rect x="45" y="373.31" class="st1" width="27.15" height="40.22"/>
	<rect x="164.86" y="373.31" class="st1" width="150.14" height="40.22"/>
</g>
<g id="Date">
	<g>
		<path class="st2" d="M89.85,402.64c0-0.1,0.08-0.17,0.17-0.18h0.03h2.69c0.1,0,0.18,0.08,0.18,0.18c0,0.11-0.08,0.19-0.18,0.19
			h-2.52v2.08h2.21c0.1,0,0.19,0.08,0.19,0.19c0,0.1-0.08,0.18-0.19,0.18h-2.21v2.26c0,0.1-0.08,0.18-0.19,0.18
			c-0.1,0-0.18-0.08-0.18-0.18V402.64z"/>
		<path class="st2" d="M94.04,405.89c0-1.02,0.8-1.85,1.79-1.85c0.95,0,1.7,0.75,1.77,1.71v0.01v0.02c0,0.1-0.08,0.17-0.18,0.17
			H94.4c0.04,0.8,0.67,1.41,1.43,1.41c0.49,0,0.94-0.25,1.19-0.67c0.05-0.09,0.17-0.11,0.24-0.06c0.08,0.06,0.11,0.17,0.06,0.26
			c-0.31,0.5-0.86,0.83-1.49,0.83C94.83,407.72,94.04,406.89,94.04,405.89z M94.42,405.59h2.79c-0.12-0.69-0.71-1.19-1.38-1.19
			C95.13,404.4,94.56,404.9,94.42,405.59z"/>
		<path class="st2" d="M98.87,405.96v-0.08v-0.08v-3.17c0-0.1,0.08-0.18,0.18-0.18c0.1,0,0.19,0.08,0.19,0.18v2.12
			c0.32-0.44,0.83-0.72,1.41-0.72c0.99,0,1.78,0.83,1.78,1.85c0,1.01-0.79,1.83-1.78,1.83c-0.58,0-1.09-0.28-1.41-0.71v0.53
			c0,0.1-0.08,0.18-0.19,0.18c-0.1,0-0.18-0.08-0.18-0.18V405.96z M99.24,405.89c0,0.81,0.64,1.46,1.41,1.46
			c0.78,0,1.41-0.65,1.41-1.46c0-0.82-0.63-1.48-1.41-1.48c-0.76,0-1.38,0.63-1.41,1.42V405.89z"/>
		<path class="st2" d="M106.64,403l-0.74,0.43c-0.02,0.02-0.06,0.03-0.09,0.03c-0.07,0-0.13-0.04-0.16-0.09
			c-0.05-0.1-0.02-0.2,0.07-0.25l1.01-0.62c0.08-0.04,0.2-0.02,0.25,0.07c0.02,0.04,0.03,0.09,0.02,0.13v4.83
			c0,0.1-0.07,0.18-0.18,0.18c-0.1,0-0.18-0.08-0.18-0.18V403z"/>
		<path class="st2" d="M110.11,402.46c0.9,0,1.63,0.67,1.73,1.53c0.01,0.01,0.01,0.02,0.01,0.04c0.01,0.14,0.02,0.29,0.02,0.45
			c0,0.7-0.15,1.47-0.5,2.09c-0.36,0.62-0.98,1.11-1.84,1.14h-0.01c-0.1,0-0.19-0.08-0.19-0.17c0-0.1,0.08-0.19,0.18-0.2
			c0.73-0.03,1.21-0.41,1.53-0.95c0.18-0.32,0.31-0.68,0.38-1.05c-0.32,0.36-0.78,0.58-1.31,0.58c-0.95,0-1.73-0.77-1.73-1.73
			C108.38,403.24,109.16,402.46,110.11,402.46z M111.49,404.19c0-0.75-0.61-1.36-1.37-1.36c-0.75,0-1.37,0.61-1.37,1.36
			c0,0.77,0.62,1.37,1.37,1.37C110.88,405.56,111.49,404.96,111.49,404.19z"/>
		<path class="st2" d="M115.44,405.11c0-0.08,0.06-0.14,0.14-0.14h1.6c0.07,0,0.14,0.05,0.14,0.14c0,0.09-0.07,0.15-0.14,0.15h-1.6
			C115.5,405.26,115.44,405.2,115.44,405.11z"/>
		<path class="st2" d="M125.09,403.21l-1.68,2.33c-0.04,0.06-0.1,0.08-0.15,0.08h-0.02c-0.07,0-0.12-0.02-0.16-0.08l-1.68-2.33v4.32
			c0,0.1-0.08,0.18-0.18,0.18c-0.1,0-0.19-0.08-0.19-0.18v-4.86c0-0.06,0.03-0.11,0.08-0.14c0-0.01,0.01-0.01,0.02-0.01
			c0.08-0.05,0.19-0.04,0.25,0.04l1.87,2.59l1.86-2.59c0.05-0.08,0.17-0.1,0.25-0.04c0.02,0.02,0.04,0.04,0.05,0.06
			c0.02,0.03,0.03,0.07,0.03,0.1v4.86c0,0.1-0.08,0.18-0.18,0.18c-0.1,0-0.18-0.08-0.18-0.18V403.21z"/>
		<path class="st2" d="M130.37,404.22v3.32c0,0.1-0.08,0.18-0.18,0.18s-0.18-0.08-0.18-0.18v-0.55c-0.32,0.44-0.82,0.73-1.38,0.73
			c-0.97,0-1.74-0.83-1.74-1.84c0-1.01,0.77-1.84,1.74-1.84c0.56,0,1.07,0.29,1.38,0.72v-0.54c0-0.11,0.08-0.18,0.18-0.18
			S130.37,404.12,130.37,404.22z M130.01,405.88c0-0.83-0.62-1.49-1.38-1.49c-0.75,0-1.38,0.66-1.38,1.49
			c0,0.83,0.63,1.48,1.38,1.48C129.39,407.36,130.01,406.71,130.01,405.88z"/>
		<path class="st2" d="M131.93,404.23c0-0.1,0.08-0.18,0.19-0.18c0.09,0,0.17,0.08,0.17,0.18v0.81c0.02-0.03,0.03-0.06,0.05-0.09
			c0.28-0.44,0.77-0.9,1.47-0.9c0.1,0,0.18,0.08,0.18,0.18c0,0.1-0.08,0.18-0.18,0.18c-0.48,0-0.81,0.27-1.07,0.6
			c-0.25,0.33-0.39,0.71-0.44,0.86c-0.02,0.03-0.02,0.04-0.02,0.06v1.61c0,0.11-0.08,0.18-0.17,0.18c-0.1,0-0.19-0.08-0.19-0.18
			V404.23z"/>
		<path class="st2" d="M137.18,407.4l2.46-2.21c0.29-0.27,0.45-0.63,0.45-1.01c0-0.32-0.12-0.65-0.35-0.9
			c-0.26-0.29-0.63-0.44-1-0.44c-0.33,0-0.65,0.11-0.92,0.35l-0.26,0.23c-0.07,0.08-0.19,0.07-0.25-0.01
			c-0.08-0.08-0.07-0.2,0.01-0.26l0.26-0.24c0.33-0.29,0.75-0.44,1.16-0.44c0.46,0,0.92,0.18,1.26,0.56
			c0.31,0.33,0.45,0.74,0.45,1.15c0,0.47-0.19,0.93-0.56,1.28l-2.1,1.9h2.48c0.1,0,0.18,0.08,0.18,0.19c0,0.1-0.08,0.18-0.18,0.18
			h-2.93h-0.03c-0.05,0-0.11-0.01-0.14-0.05C137.1,407.58,137.1,407.47,137.18,407.4z"/>
		<path class="st2" d="M141.69,405.09c0-0.71,0.18-1.35,0.5-1.84c0.32-0.47,0.78-0.79,1.31-0.79s0.99,0.32,1.31,0.79
			c0.31,0.49,0.51,1.13,0.51,1.84c0,0.71-0.2,1.35-0.51,1.83c-0.32,0.47-0.78,0.8-1.31,0.8s-0.99-0.32-1.31-0.8
			C141.87,406.44,141.69,405.8,141.69,405.09z M142.05,405.09c0,0.65,0.17,1.22,0.44,1.63c0.27,0.4,0.63,0.63,1.01,0.63
			s0.73-0.23,1.01-0.63c0.27-0.41,0.45-0.98,0.45-1.63c0-0.65-0.18-1.22-0.45-1.63c-0.28-0.41-0.63-0.63-1.01-0.63
			s-0.74,0.22-1.01,0.63C142.23,403.87,142.05,404.45,142.05,405.09z"/>
	</g>
</g>
<g id="Image">
	<g>
		<defs>
			<rect id="SVGID_1_" x="116.58" y="134.46" width="126.83" height="136.81"/>
		</defs>
		<clipPath id="SVGID_2_">
			<use xlink:href="#SVGID_1_"  style="overflow:visible;"/>
		</clipPath>
		<path class="st3" d="M136.82,186.56c12.17-11.23,27.17-16.93,41.12-16.85c-22.42,20.87-26.67,52.84-9.42,71.53
			c7.98,8.65,19.18,12.94,31.14,13l-0.21,0.19c-22.61,20.86-54.96,22.58-72.26,3.83C109.89,239.52,114.2,207.42,136.82,186.56"/>
		<path class="st4" d="M144.9,180.19c11.02-3.63,22.3-2.72,31.28,1.67c-20.36,6.8-32.14,26.6-26.32,44.3
			c2.7,8.19,8.7,14.51,16.39,18.27l-0.19,0.06c-20.48,6.74-41.82-2.19-47.66-19.95C112.56,206.78,124.42,186.93,144.9,180.19"/>
		<path class="st5" d="M169.59,184.93c6.04,5.09,9.54,11.95,10.2,18.71c-11.21-9.36-26.88-9.12-35.06,0.58
			c-3.78,4.49-5.3,10.22-4.73,16.02l-0.1-0.09c-11.22-9.45-13.67-25-5.47-34.73C142.63,175.7,158.37,175.48,169.59,184.93"/>
		<path class="st6" d="M195.83,185.59c9.03,0.96,22.85-6.95,32.39-18.95c9.51-12,11.5-23.95,5.12-28.25
			c0.87,0.09,1.69,0.27,2.47,0.52c8.8,3,7.45,16.11-3.01,29.28c-10.47,13.18-26.09,21.43-34.87,18.42
			C197.14,186.35,196.45,186.01,195.83,185.59"/>
		<path class="st6" d="M194.31,175.84c6.89,3.59,20.39,0.01,31.78-8.78c11.37-8.8,16.72-19.77,13-25.81
			c0.67,0.34,1.26,0.76,1.8,1.23c6.06,5.49,0.84,17.78-11.65,27.43c-12.5,9.66-27.55,13.04-33.59,7.54
			C195.11,176.97,194.67,176.43,194.31,175.84"/>
		<path class="st6" d="M193.77,185.43c9.23,1.43,22.8-6.42,31.8-18.82c8.98-12.41,10.31-25.09,3.59-29.98
			c0.89,0.13,1.73,0.36,2.53,0.67c9.1,3.6,8.48,17.56-1.39,31.17c-9.88,13.63-25.26,21.76-34.35,18.15
			C195.14,186.3,194.42,185.91,193.77,185.43"/>
		<path class="st6" d="M184.3,149.73c3.39-6.85,16.47-11.69,31-11.11c14.52,0.6,25.5,6.39,26.16,13.4c0.33-0.66,0.56-1.33,0.7-2.03
			c1.56-7.91-10.11-14.84-26.05-15.49c-15.96-0.65-30.16,5.25-31.71,13.15C184.27,148.36,184.24,149.04,184.3,149.73"/>
		<path class="st6" d="M184.54,159.66c0.65-7.14,11.62-15.07,26.15-18.45c14.53-3.37,27.6-1.07,31,5.13
			c0.07-0.69,0.03-1.36-0.1-2.03c-1.56-7.61-15.76-10.77-31.7-7.05c-15.96,3.72-27.62,12.9-26.05,20.5
			C183.97,158.42,184.21,159.05,184.54,159.66"/>
		<path class="st6" d="M183.48,153.84c3.39-6.85,16.47-11.69,31-11.11c14.52,0.6,25.5,6.39,26.16,13.4c0.33-0.66,0.56-1.33,0.7-2.03
			c1.56-7.91-10.11-14.84-26.05-15.49c-15.96-0.65-30.16,5.25-31.71,13.15C183.45,152.47,183.42,153.15,183.48,153.84"/>
		<path class="st6" d="M147.36,199.85c7.13,1.82,16.9-4.26,22.87-14.62c5.95-10.37,6.06-21.45,0.6-26.16
			c0.69,0.17,1.35,0.42,1.98,0.74c7.19,3.72,7.71,15.97,1.16,27.34c-6.55,11.39-17.69,17.6-24.86,13.88
			C148.47,200.7,147.89,200.31,147.36,199.85"/>
		<path class="st6" d="M139.32,193.67c6.15,3.88,17.53,1.13,26.75-6.83c9.21-7.97,13.12-18.37,9.54-24.47
			c0.6,0.37,1.13,0.81,1.62,1.3c5.56,5.69,1.85,17.39-8.27,26.12c-10.13,8.74-22.85,11.21-28.39,5.52
			C140.08,194.8,139.66,194.26,139.32,193.67"/>
		<path class="st6" d="M143.62,197.92c7.13,1.82,16.9-4.26,22.87-14.62c5.95-10.37,6.06-21.45,0.6-26.16
			c0.69,0.17,1.35,0.42,1.98,0.74c7.19,3.72,7.71,15.97,1.16,27.34c-6.55,11.39-17.69,17.6-24.86,13.88
			C144.73,198.77,144.16,198.38,143.62,197.92"/>
		<path class="st6" d="M153.93,212.1c8.16,1.59,18.01-3.96,22.96-13.37c4.93-9.41,3.3-19.43-3.48-23.64
			c0.79,0.15,1.55,0.37,2.3,0.66c8.53,3.31,11.05,14.38,5.62,24.7c-5.43,10.34-16.76,16.03-25.28,12.71
			C155.29,212.86,154.59,212.51,153.93,212.1"/>
		<path class="st6" d="M144.06,206.57c7.41,3.46,19.55,0.9,28.49-6.35c8.92-7.26,11.59-16.69,6.67-22.18c0.72,0.33,1.38,0.72,2,1.17
			c7.04,5.1,4.8,15.7-5.01,23.66c-9.81,7.97-23.47,10.29-30.5,5.18C145.08,207.59,144.54,207.1,144.06,206.57"/>
		<path class="st6" d="M149.49,210.38c8.16,1.59,18.01-3.96,22.96-13.37c4.93-9.41,3.3-19.43-3.48-23.64
			c0.79,0.15,1.55,0.37,2.3,0.66c8.53,3.31,11.05,14.38,5.62,24.7c-5.43,10.34-16.76,16.03-25.28,12.71
			C150.85,211.14,150.15,210.79,149.49,210.38"/>
		<path class="st6" d="M151.36,204.86c8.16,1.59,18.01-3.96,22.96-13.37c4.93-9.41,3.3-19.43-3.48-23.64
			c0.79,0.15,1.55,0.37,2.3,0.66c8.54,3.31,11.05,14.38,5.62,24.7c-5.43,10.34-16.76,16.03-25.28,12.71
			C152.72,205.62,152.02,205.27,151.36,204.86"/>
		<path class="st6" d="M141.49,199.33c7.41,3.46,19.55,0.9,28.49-6.35c8.92-7.26,11.59-16.69,6.67-22.18c0.72,0.33,1.38,0.72,2,1.17
			c7.04,5.1,4.8,15.7-5.01,23.66c-9.81,7.97-23.48,10.29-30.51,5.18C142.51,200.35,141.97,199.86,141.49,199.33"/>
		<path class="st6" d="M146.92,203.15c8.16,1.59,18.01-3.96,22.96-13.37c4.93-9.41,3.3-19.43-3.48-23.64
			c0.79,0.15,1.55,0.37,2.3,0.66c8.54,3.31,11.05,14.38,5.62,24.7c-5.43,10.34-16.76,16.03-25.28,12.71
			C148.28,203.91,147.58,203.56,146.92,203.15"/>
		<path class="st6" d="M132.59,184.73c2.73-5.98,14.28-8.9,27.4-6.59c13.11,2.33,23.28,9.07,24.2,15.69
			c0.27-0.57,0.44-1.18,0.54-1.8c1.03-7.19-9.81-15.08-24.2-17.62c-14.41-2.55-26.92,1.22-27.95,8.41
			C132.49,183.46,132.5,184.09,132.59,184.73"/>
		<path class="st6" d="M133.27,194.02c0.25-6.58,9.76-12.64,22.69-14.03c12.93-1.38,24.82,2.37,28.17,8.56
			c0.03-0.63-0.04-1.27-0.19-1.91c-1.77-7.29-14.71-11.96-28.9-10.44c-14.2,1.52-24.28,8.67-22.5,15.95
			C132.7,192.81,132.94,193.42,133.27,194.02"/>
		<path class="st6" d="M132.04,188.47c2.73-5.98,14.28-8.9,27.4-6.59c13.11,2.33,23.28,9.07,24.2,15.69
			c0.27-0.57,0.44-1.18,0.54-1.8c1.03-7.19-9.81-15.08-24.2-17.62c-14.41-2.55-26.92,1.22-27.95,8.41
			C131.95,187.19,131.95,187.82,132.04,188.47"/>
		<path class="st6" d="M130.66,175.46c3.57-6.55,14.7-9.84,26.32-7.42c11.61,2.43,19.73,9.71,19.4,16.92
			c0.35-0.63,0.62-1.29,0.82-1.97c2.23-7.86-6.3-16.38-19.05-19.03c-12.77-2.66-24.92,1.56-27.14,9.41
			C130.8,174.06,130.69,174.75,130.66,175.46"/>
		<path class="st6" d="M129.28,175.48c3.78-6.79,15.16-11.11,26.94-9.85c11.76,1.27,19.87,7.65,19.37,14.8
			c0.37-0.65,0.66-1.33,0.87-2.02c2.44-7.95-6.06-15.52-18.97-16.9c-12.93-1.39-25.39,3.94-27.82,11.89
			C129.45,174.09,129.33,174.78,129.28,175.48"/>
		<path class="st6" d="M124.3,176.8c3.57-6.55,14.7-9.84,26.32-7.42c11.61,2.43,19.73,9.71,19.4,16.93
			c0.35-0.63,0.62-1.29,0.82-1.97c2.23-7.86-6.3-16.38-19.05-19.03c-12.77-2.66-24.92,1.56-27.14,9.41
			C124.45,175.4,124.34,176.09,124.3,176.8"/>
		<path class="st6" d="M130.48,178.92c3.57-6.55,14.7-9.84,26.32-7.42c11.61,2.43,19.73,9.71,19.4,16.92
			c0.35-0.63,0.62-1.29,0.82-1.97c2.24-7.86-6.3-16.38-19.05-19.03c-12.77-2.66-24.92,1.56-27.14,9.41
			C130.63,177.53,130.52,178.22,130.48,178.92"/>
		<path class="st6" d="M129.45,189.06c1.41-7.18,11.21-13.88,23.33-15.51c12.11-1.61,22.34,2.38,24.31,9.11
			c0.14-0.69,0.19-1.39,0.17-2.08c-0.32-7.94-11.36-12.94-24.64-11.15c-13.3,1.78-23.83,9.67-23.5,17.6
			C129.14,187.73,129.26,188.4,129.45,189.06"/>
		<path class="st6" d="M129.32,183c3.57-6.55,14.7-9.84,26.32-7.42c11.61,2.43,19.73,9.71,19.4,16.92c0.35-0.63,0.62-1.29,0.82-1.97
			c2.23-7.86-6.3-16.38-19.05-19.03c-12.77-2.66-24.92,1.56-27.14,9.41C129.46,181.61,129.35,182.3,129.32,183"/>
		<path class="st7" d="M226.03,136.87c4.85,2.99,5.39,8.99,1.19,13.39c-4.2,4.4-11.54,5.55-16.39,2.55
			c-4.85-2.99-5.39-8.99-1.19-13.39C213.84,135.02,221.18,133.87,226.03,136.87"/>
		<path class="st6" d="M224.89,138.06c4.13,2.55,4.58,7.64,1.01,11.39c-3.57,3.74-9.81,4.71-13.94,2.17
			c-4.13-2.55-4.58-7.64-1.01-11.39C214.52,136.49,220.76,135.52,224.89,138.06"/>
		<path class="st7" d="M225.49,141.66c2.02,1.25,2.24,3.74,0.49,5.57c-1.75,1.83-4.8,2.31-6.82,1.06c-2.02-1.25-2.24-3.74-0.49-5.57
			C220.42,140.89,223.47,140.41,225.49,141.66"/>
		<path class="st6" d="M197.58,182.37l-25.69-6.16l15.59-24.6c-1.37,5.03-1.43,10.43,0.08,15.73
			C189.3,173.48,192.88,178.6,197.58,182.37"/>
		<path class="st6" d="M201.04,160.6c0.63,2.21-0.51,4.47-2.54,5.05c-2.03,0.58-4.18-0.76-4.8-2.97c-0.21-0.73-0.22-1.47-0.07-2.14
			c0.97,1.02,2.38,1.49,3.74,1.1c1.36-0.39,2.32-1.53,2.61-2.9C200.46,159.24,200.84,159.87,201.04,160.6"/>
		<path class="st6" d="M212.1,159.25c0.63,2.21-0.51,4.47-2.54,5.05c-2.03,0.58-4.18-0.76-4.8-2.97c-0.21-0.73-0.22-1.47-0.07-2.14
			c0.97,1.02,2.38,1.49,3.74,1.1c1.36-0.39,2.32-1.53,2.61-2.9C211.52,157.89,211.9,158.53,212.1,159.25"/>
		<path class="st6" d="M221.54,156.99c0.63,2.21-0.51,4.47-2.54,5.05c-2.03,0.58-4.18-0.76-4.8-2.97c-0.21-0.73-0.22-1.47-0.07-2.14
			c0.97,1.02,2.38,1.49,3.74,1.1c1.36-0.39,2.32-1.53,2.61-2.9C220.96,155.63,221.34,156.27,221.54,156.99"/>
		<path class="st6" d="M206.88,167.2c0.63,2.21-0.51,4.47-2.54,5.05c-2.03,0.58-4.17-0.76-4.8-2.97c-0.21-0.73-0.22-1.47-0.07-2.14
			c0.97,1.02,2.38,1.49,3.74,1.1s2.32-1.53,2.61-2.9C206.29,165.83,206.67,166.47,206.88,167.2"/>
		<path class="st6" d="M217.86,165.59c0.63,2.21-0.51,4.47-2.54,5.05c-2.03,0.58-4.18-0.76-4.8-2.97c-0.21-0.73-0.22-1.47-0.07-2.14
			c0.97,1.02,2.38,1.49,3.74,1.1c1.36-0.39,2.32-1.53,2.61-2.9C217.28,164.22,217.66,164.86,217.86,165.59"/>
	</g>
</g>
<g id="Name">
	<g>
		<path class="st2" d="M100.11,386.92h-1.84v3.25c0,0.45-0.38,0.83-0.84,0.83c-0.45,0-0.82-0.38-0.82-0.83v-8.85
			c0-0.46,0.38-0.83,0.82-0.83h0.02h2.67c1.78,0,3.22,1.44,3.22,3.23C103.33,385.48,101.89,386.92,100.11,386.92z M98.26,385.26
			h1.84c0.87,0,1.54-0.69,1.56-1.53c-0.02-0.87-0.69-1.56-1.56-1.56h-1.84V385.26z"/>
		<path class="st2" d="M106.81,381.63c0,0.45-0.34,0.83-0.81,0.83c-0.45,0-0.81-0.38-0.81-0.83v-0.31c0-0.45,0.36-0.81,0.81-0.81
			c0.47,0,0.81,0.36,0.81,0.81V381.63z M106.81,384.34v5.85c0,0.45-0.34,0.81-0.81,0.81c-0.45,0-0.81-0.36-0.81-0.81v-5.85
			c0-0.48,0.36-0.82,0.81-0.82C106.47,383.52,106.81,383.86,106.81,384.34z"/>
		<path class="st2" d="M109.03,388.86c0.27-0.36,0.79-0.41,1.12-0.12c0.39,0.33,1.06,0.67,1.65,0.66c0.4,0,0.78-0.14,1.02-0.29
			c0.21-0.18,0.27-0.33,0.27-0.45c0-0.08-0.01-0.11-0.04-0.15c-0.01-0.04-0.07-0.1-0.19-0.18c-0.21-0.15-0.66-0.32-1.2-0.42h-0.01
			c-0.47-0.09-0.92-0.21-1.31-0.39c-0.4-0.2-0.77-0.47-1.03-0.87c-0.17-0.27-0.26-0.6-0.26-0.95c0-0.69,0.39-1.27,0.89-1.65
			c0.52-0.36,1.15-0.56,1.84-0.56c1.04,0,1.77,0.5,2.25,0.83c0.36,0.24,0.46,0.74,0.24,1.11c-0.24,0.36-0.73,0.46-1.11,0.21
			c-0.48-0.32-0.9-0.56-1.38-0.56c-0.38,0-0.71,0.12-0.9,0.27c-0.19,0.13-0.24,0.27-0.24,0.34c0,0.06,0,0.08,0.03,0.12
			c0.02,0.03,0.06,0.09,0.17,0.15c0.19,0.13,0.58,0.27,1.09,0.36l0.02,0.02h0.02c0.49,0.09,0.96,0.22,1.4,0.43
			c0.4,0.18,0.81,0.46,1.06,0.88c0.18,0.3,0.28,0.65,0.28,0.99c0,0.74-0.4,1.35-0.94,1.74c-0.54,0.38-1.21,0.6-1.95,0.6
			c-1.17-0.01-2.07-0.55-2.67-1.04C108.81,389.7,108.76,389.19,109.03,388.86z"/>
		<path class="st2" d="M116.25,387.27c0-2.08,1.74-3.75,3.81-3.77c0.9,0,1.74,0.33,2.39,0.83c0.34,0.27,0.4,0.78,0.16,1.11
			c-0.3,0.36-0.78,0.42-1.12,0.15c-0.39-0.29-0.87-0.48-1.43-0.48c-1.21,0-2.22,1-2.22,2.16c0,1.15,1,2.14,2.22,2.14
			c0.54,0,1.04-0.2,1.43-0.48c0.33-0.25,0.82-0.19,1.12,0.17c0.24,0.33,0.18,0.81-0.16,1.11c-0.65,0.46-1.49,0.79-2.39,0.79
			C117.99,391,116.25,389.32,116.25,387.27z"/>
		<path class="st2" d="M124.81,387.25c0.01-2.04,1.6-3.75,3.66-3.75c1.95,0,3.5,1.46,3.61,3.48c0,0.01,0,0.04,0,0.07
			c0,0.03,0,0.11-0.01,0.14c-0.05,0.36-0.36,0.6-0.78,0.6h-4.77c0.07,0.34,0.24,0.74,0.51,0.99c0.31,0.36,0.92,0.63,1.44,0.67
			c0.54,0.04,1.19-0.09,1.56-0.38c0.31-0.33,0.93-0.29,1.12-0.04c0.19,0.21,0.34,0.66,0,0.97c-0.73,0.67-1.62,0.99-2.69,0.99
			C126.42,390.99,124.83,389.29,124.81,387.25z M126.45,386.52h4.24c-0.15-0.6-0.91-1.49-2.22-1.59
			C127.2,384.99,126.57,385.9,126.45,386.52z"/>
		<path class="st2" d="M134.11,388.86c0.27-0.36,0.79-0.41,1.12-0.12c0.39,0.33,1.07,0.67,1.65,0.66c0.4,0,0.78-0.14,1.02-0.29
			c0.21-0.18,0.27-0.33,0.27-0.45c0-0.08-0.01-0.11-0.04-0.15c-0.02-0.04-0.07-0.1-0.19-0.18c-0.21-0.15-0.66-0.32-1.2-0.42h-0.01
			c-0.47-0.09-0.92-0.21-1.31-0.39c-0.4-0.2-0.77-0.47-1.03-0.87c-0.17-0.27-0.26-0.6-0.26-0.95c0-0.69,0.39-1.27,0.89-1.65
			c0.52-0.36,1.15-0.56,1.84-0.56c1.04,0,1.77,0.5,2.25,0.83c0.36,0.24,0.46,0.74,0.24,1.11c-0.24,0.36-0.73,0.46-1.11,0.21
			c-0.48-0.32-0.9-0.56-1.38-0.56c-0.38,0-0.71,0.12-0.9,0.27c-0.19,0.13-0.24,0.27-0.24,0.34c0,0.06,0,0.08,0.03,0.12
			c0.02,0.03,0.06,0.09,0.17,0.15c0.19,0.13,0.58,0.27,1.09,0.36l0.02,0.02h0.02c0.49,0.09,0.96,0.22,1.4,0.43
			c0.4,0.18,0.81,0.46,1.06,0.88c0.18,0.3,0.28,0.65,0.28,0.99c0,0.74-0.4,1.35-0.94,1.74c-0.54,0.38-1.21,0.6-1.95,0.6
			c-1.17-0.01-2.07-0.55-2.67-1.04C133.89,389.7,133.84,389.19,134.11,388.86z"/>
	</g>
</g>
</svg>
