<?xml version="1.0" encoding="utf-8"?>
<!-- Generator: Adobe Illustrator 23.0.2, SVG Export Plug-In . SVG Version: 6.00 Build 0)  -->
<svg version="1.1" xmlns="http://www.w3.org/2000/svg" xmlns:xlink="http://www.w3.org/1999/xlink" x="0px" y="0px"
	 viewBox="0 0 252 252" style="enable-background:new 0 0 252 252;" xml:space="preserve">
<style type="text/css">
	.st0{display:none;}
	.st1{display:inline;fill:#FFFFFF;stroke:#252723;stroke-miterlimit:10;}
	.st2{fill:#FFFFFF;}
	.st3{fill:#DFE0FF;}
	.st4{fill:#A593C1;}
	.st5{fill:#9D6DA6;}
	.st6{fill:#C59DC4;}
	.st7{display:inline;fill:none;stroke:#252723;stroke-miterlimit:10;}
</style>
<g id="Bleed" class="st0">
	<circle class="st1" cx="126" cy="126" r="72"/>
</g>
<g id="Background">
</g>
<g id="Image">
	<circle class="st2" cx="126" cy="126" r="57.66"/>
	<circle class="st3" cx="126" cy="126" r="50.01"/>
	<circle class="st2" cx="126" cy="126" r="45.64"/>
	<circle class="st3" cx="126" cy="126" r="40.51"/>
	<circle class="st2" cx="129.95" cy="126.92" r="40.6"/>
	<circle class="st3" cx="129.98" cy="124.45" r="38.23"/>
	<g>
		<rect x="135.55" y="115.39" class="st4" width="2.22" height="28.17"/>
		<polygon class="st4" points="140.38,137.2 139.68,137.07 141.05,126.37 141.76,126.51 		"/>
		<polygon class="st4" points="139.87,120.08 138.69,120.36 138.06,116.41 139.24,116.13 		"/>
		<polygon class="st4" points="136.91,126.53 135.53,125.56 141.19,113.64 142.58,114.61 		"/>
		<polygon class="st4" points="133.76,135.24 133.05,135.29 132.55,124.48 133.26,124.43 		"/>
		<polygon class="st4" points="133.23,134.43 132.55,134.18 134.25,127.23 134.93,127.48 		"/>
		<polygon class="st4" points="136.56,142.23 135.69,141.17 147.38,126.96 148.25,128.02 		"/>
		<polygon class="st4" points="137.21,140.68 136.19,141.52 126.95,124.85 127.97,124.02 		"/>
		<polygon class="st4" points="133.05,133.79 132.53,134.89 127.89,131.64 128.41,130.54 		"/>
		<polygon class="st4" points="144.47,126.56 145.47,126.93 143.95,133.16 142.95,132.8 		"/>
		<polygon class="st4" points="147.12,129.51 145.94,129.08 148.44,118.87 149.62,119.3 		"/>
		<polygon class="st4" points="146.29,128.32 146.86,129.65 154.64,124.74 154.64,124.74 154.08,123.41 		"/>
		<polygon class="st4" points="132.08,132.53 131.45,132.68 129.8,122.42 130.43,122.28 		"/>
		<polygon class="st4" points="130.63,123.3 130.14,123.8 127.24,119.52 127.73,119.03 		"/>
		<polygon class="st4" points="130.6,123.48 129.97,123.39 130.49,117.88 131.12,117.97 		"/>
		<polygon class="st4" points="144.64,130.78 143.83,130.93 141.68,120.67 142.5,120.52 		"/>
		<polygon class="st4" points="152.71,121.01 152.86,121.92 148.23,124.66 148.08,123.76 		"/>
		<polygon class="st4" points="135.74,120.41 136.66,119.63 130.54,108.99 129.61,109.77 		"/>
		<polygon class="st4" points="127.12,112.59 127.21,113.51 132.33,114.33 132.23,113.42 		"/>
		<polygon class="st4" points="143.5,125.39 142.58,125.05 144.91,117.43 145.84,117.78 		"/>
		<polygon class="st4" points="133.75,106.32 132.55,106.47 135.72,116.73 136.92,116.58 		"/>
		<polygon class="st4" points="137.01,117.17 135.64,116.83 139.1,109.21 140.47,109.56 		"/>
		<rect x="119.87" y="122.4" class="st5" width="2.02" height="21.16"/>
		
			<rect x="120.52" y="134.39" transform="matrix(0.1549 -0.9879 0.9879 0.1549 -27.8107 236.922)" class="st5" width="8.13" height="0.65"/>
		
			<rect x="122.43" y="123.04" transform="matrix(0.9813 -0.1923 0.1923 0.9813 -21.6508 25.9678)" class="st5" width="1.1" height="3.02"/>
		
			<rect x="117.89" y="125.2" transform="matrix(0.4999 -0.8661 0.8661 0.4999 -47.5171 169.5574)" class="st5" width="10.34" height="1.46"/>
		
			<rect x="117.35" y="129.21" transform="matrix(0.9984 -0.0568 0.0568 0.9984 -7.3838 6.9032)" class="st5" width="0.65" height="8.13"/>
		
			<rect x="115.49" y="133.67" transform="matrix(0.2852 -0.9585 0.9585 0.2852 -43.9362 209.0779)" class="st5" width="5.44" height="0.65"/>
		
			<rect x="118.18" y="136.26" transform="matrix(0.7071 -0.7071 0.7071 0.7071 -59.9243 128.978)" class="st5" width="15.1" height="1.12"/>
		
			<rect x="116.14" y="127.9" transform="matrix(0.8294 -0.5586 0.5586 0.8294 -55.7589 88.2905)" class="st5" width="1.12" height="15.1"/>
		
			<rect x="114.75" y="132.97" transform="matrix(0.4999 -0.8661 0.8661 0.4999 -59.6524 167.5222)" class="st5" width="0.95" height="4.89"/>
		
			<rect x="125.33" y="132.8" transform="matrix(0.2851 -0.9585 0.9585 0.2851 -36.4007 217.7363)" class="st5" width="4.89" height="0.95"/>
		
			<rect x="127.03" y="128.45" transform="matrix(0.2851 -0.9585 0.9585 0.2851 -29.9791 217.8276)" class="st5" width="8" height="1.12"/>
		
			<rect x="129.48" y="130.2" transform="matrix(0.8877 -0.4603 0.4603 0.8877 -45.2128 76.1282)" class="st5" width="8" height="1.12"/>
		
			<rect x="115.37" y="127.55" transform="matrix(0.9814 -0.1918 0.1918 0.9814 -23.0742 24.6289)" class="st5" width="0.58" height="7.85"/>
		
			<rect x="113.53" y="124.84" transform="matrix(0.7714 -0.6363 0.6363 0.7714 -54.7462 101.438)" class="st5" width="0.58" height="4.16"/>
		
			<rect x="113.21" y="126.08" transform="matrix(0.1131 -0.9936 0.9936 0.1131 -23.3043 226.6428)" class="st5" width="4.16" height="0.58"/>
		<polygon class="st5" points="128.17,133.96 127.42,134.07 125.46,126.37 126.21,126.26 		"/>
		<polygon class="st5" points="135.53,126.62 135.67,127.3 131.44,129.36 131.3,128.69 		"/>
		
			<rect x="117.14" y="117" transform="matrix(0.8193 -0.5733 0.5733 0.8193 -48.6199 89.4801)" class="st5" width="1.03" height="9.75"/>
		<polygon class="st5" points="112.17,120.3 112.26,120.99 116.92,121.6 116.84,120.92 		"/>
		<polygon class="st5" points="127.12,129.91 126.28,129.65 128.41,123.93 129.26,124.19 		"/>
		<polygon class="st5" points="121.12,123.29 120.02,123.4 117.12,115.7 118.22,115.59 		"/>
		<polygon class="st5" points="121.2,123.74 119.95,123.48 123.11,117.76 124.35,118.02 		"/>
		<rect x="114.06" y="117.66" class="st6" width="2.19" height="25.9"/>
		<polygon class="st6" points="111.47,137.71 112.17,137.59 110.81,127.76 110.11,127.88 		"/>
		<polygon class="st6" points="111.98,121.98 113.15,122.23 113.77,118.6 112.61,118.35 		"/>
		<polygon class="st6" points="114.9,127.9 116.27,127.01 110.67,116.05 109.3,116.94 		"/>
		<polygon class="st6" points="118.02,135.91 118.73,135.96 119.23,126.02 118.52,125.98 		"/>
		<polygon class="st6" points="118.55,135.16 119.22,134.94 117.54,128.55 116.87,128.78 		"/>
		<polygon class="st6" points="115.25,142.33 116.11,141.36 104.54,128.3 103.68,129.27 		"/>
		<polygon class="st6" points="114.61,140.91 115.62,141.68 124.76,126.36 123.76,125.59 		"/>
		<polygon class="st6" points="118.73,134.58 119.25,135.59 123.83,132.6 123.32,131.59 		"/>
		<polygon class="st6" points="107.42,127.94 106.44,128.27 107.95,134 108.93,133.67 		"/>
		<polygon class="st6" points="104.8,130.64 105.97,130.25 103.5,120.86 102.33,121.25 		"/>
		<polygon class="st6" points="97.36,126.26 105.06,130.77 105.62,129.55 97.92,125.04 		"/>
		<polygon class="st6" points="119.69,133.42 120.31,133.56 121.94,124.13 121.32,123.99 		"/>
		<polygon class="st6" points="121.12,124.94 121.61,125.39 124.48,121.46 123.99,121.01 		"/>
		<polygon class="st6" points="121.15,125.1 121.78,125.02 121.27,119.96 120.64,120.04 		"/>
		<polygon class="st6" points="107.25,131.81 108.06,131.95 110.18,122.52 109.38,122.38 		"/>
		<polygon class="st6" points="99.27,122.83 99.12,123.66 103.71,126.19 103.86,125.36 		"/>
		<polygon class="st6" points="116.07,122.28 115.15,121.56 121.22,111.78 122.13,112.5 		"/>
		<polygon class="st6" points="124.59,115.09 124.5,115.93 119.45,116.69 119.54,115.85 		"/>
		<polygon class="st6" points="108.38,126.86 109.3,126.54 106.99,119.54 106.07,119.86 		"/>
		<polygon class="st6" points="114.9,118.76 116.09,118.89 119.22,109.46 118.03,109.33 		"/>
		<polygon class="st6" points="114.81,119.3 116.16,118.98 112.74,111.99 111.39,112.3 		"/>
	</g>
</g>
<g id="Text">
</g>
<g id="Safe_Area" class="st0">
	<circle class="st7" cx="126" cy="126" r="54"/>
</g>
</svg>
