<?xml version="1.0" encoding="utf-8"?>
<!-- Generator: Adobe Illustrator 23.0.2, SVG Export Plug-In . SVG Version: 6.00 Build 0)  -->
<svg version="1.1" xmlns="http://www.w3.org/2000/svg" xmlns:xlink="http://www.w3.org/1999/xlink" x="0px" y="0px"
	 viewBox="0 0 252 252" style="enable-background:new 0 0 252 252;" xml:space="preserve">
<style type="text/css">
	.st0{display:none;}
	.st1{display:inline;fill:#FFFFFF;stroke:#252723;stroke-miterlimit:10;}
	.st2{fill:#FFFFFF;}
	.st3{fill:#C6E0FF;}
	.st4{fill:#E0AB81;}
	.st5{clip-path:url(#SVGID_2_);fill:#A1D0F1;}
	.st6{clip-path:url(#SVGID_2_);fill:#B9DCF5;}
	.st7{clip-path:url(#SVGID_2_);fill:#94B0C3;}
	.st8{clip-path:url(#SVGID_2_);fill:#212020;}
	.st9{clip-path:url(#SVGID_2_);fill:#FFFFFF;}
	.st10{display:inline;fill:none;stroke:#252723;stroke-miterlimit:10;}
</style>
<g id="Bleed" class="st0">
	<circle class="st1" cx="126" cy="126" r="72"/>
</g>
<g id="Background">
</g>
<g id="Image">
	<circle class="st2" cx="126" cy="126" r="57.66"/>
	<circle class="st3" cx="126" cy="126" r="50.01"/>
	<circle class="st2" cx="126" cy="126" r="45.64"/>
	<circle class="st3" cx="126" cy="126" r="40.51"/>
	<circle class="st2" cx="129.95" cy="126.92" r="40.6"/>
	<circle class="st3" cx="129.98" cy="124.45" r="38.23"/>
	
		<ellipse transform="matrix(0.7574 -0.6529 0.6529 0.7574 -36.4537 118.0995)" class="st4" cx="140.72" cy="108.11" rx="11.19" ry="8.33"/>
	<g>
		<defs>
			<rect id="SVGID_1_" x="102.68" y="98.87" width="51.7" height="55.77"/>
		</defs>
		<clipPath id="SVGID_2_">
			<use xlink:href="#SVGID_1_"  style="overflow:visible;"/>
		</clipPath>
		<path class="st5" d="M110.92,120.11c4.96-4.58,11.08-6.9,16.76-6.87c-9.14,8.51-10.87,21.54-3.84,29.16
			c3.25,3.53,7.82,5.27,12.69,5.3l-0.09,0.08c-9.22,8.5-22.4,9.2-29.45,1.56C99.95,141.7,101.71,128.61,110.92,120.11"/>
		<path class="st6" d="M114.22,117.51c4.49-1.48,9.09-1.11,12.75,0.68c-8.3,2.77-13.1,10.84-10.73,18.06
			c1.1,3.34,3.55,5.91,6.68,7.45l-0.08,0.03c-8.35,2.75-17.05-0.89-19.43-8.13C101.04,128.36,105.87,120.26,114.22,117.51"/>
		<path class="st7" d="M124.28,119.45c2.46,2.07,3.89,4.87,4.16,7.63c-4.57-3.82-10.96-3.72-14.29,0.24
			c-1.54,1.83-2.16,4.17-1.93,6.53l-0.04-0.04c-4.57-3.85-5.57-10.19-2.23-14.16C113.29,115.68,119.71,115.59,124.28,119.45"/>
		<path class="st8" d="M134.98,119.72c3.68,0.39,9.31-2.83,13.2-7.72c3.88-4.89,4.69-9.76,2.09-11.52c0.36,0.03,0.69,0.11,1,0.21
			c3.59,1.22,3.04,6.57-1.23,11.94c-4.27,5.37-10.63,8.74-14.22,7.51C135.52,120.03,135.23,119.89,134.98,119.72"/>
		<path class="st8" d="M134.36,115.74c2.81,1.46,8.31,0.01,12.95-3.58c4.63-3.59,6.82-8.06,5.3-10.52c0.27,0.14,0.52,0.31,0.73,0.5
			c2.47,2.24,0.34,7.25-4.75,11.18c-5.1,3.94-11.23,5.31-13.69,3.07C134.69,116.2,134.51,115.98,134.36,115.74"/>
		<path class="st8" d="M134.14,119.65c3.76,0.58,9.29-2.62,12.96-7.67c3.66-5.06,4.2-10.23,1.46-12.22
			c0.36,0.05,0.71,0.15,1.03,0.27c3.71,1.47,3.46,7.16-0.57,12.71c-4.03,5.56-10.3,8.87-14,7.4
			C134.7,120.01,134.41,119.85,134.14,119.65"/>
		<path class="st8" d="M130.28,105.1c1.38-2.79,6.71-4.77,12.64-4.53c5.92,0.24,10.4,2.61,10.67,5.46c0.14-0.27,0.23-0.54,0.29-0.83
			c0.64-3.22-4.12-6.05-10.62-6.31c-6.51-0.26-12.29,2.14-12.93,5.36C130.27,104.54,130.25,104.82,130.28,105.1"/>
		<path class="st8" d="M130.38,109.14c0.27-2.91,4.74-6.14,10.66-7.52c5.92-1.37,11.25-0.43,12.64,2.09
			c0.03-0.28,0.01-0.56-0.04-0.83c-0.64-3.1-6.43-4.39-12.92-2.87c-6.51,1.52-11.26,5.26-10.62,8.36
			C130.15,108.64,130.24,108.9,130.38,109.14"/>
		<path class="st8" d="M129.95,106.77c1.38-2.79,6.71-4.77,12.64-4.53c5.92,0.24,10.4,2.61,10.67,5.46
			c0.14-0.27,0.23-0.54,0.29-0.83c0.64-3.22-4.12-6.05-10.62-6.31c-6.51-0.26-12.29,2.14-12.93,5.36
			C129.93,106.21,129.92,106.49,129.95,106.77"/>
		<path class="st8" d="M115.22,125.53c2.9,0.74,6.89-1.73,9.32-5.96c2.43-4.23,2.47-8.74,0.25-10.66c0.28,0.07,0.55,0.17,0.81,0.3
			c2.93,1.52,3.14,6.51,0.47,11.15c-2.67,4.64-7.21,7.17-10.14,5.66C115.67,125.88,115.44,125.72,115.22,125.53"/>
		<path class="st8" d="M111.94,123.01c2.51,1.58,7.14,0.46,10.91-2.78c3.76-3.25,5.35-7.49,3.89-9.97c0.24,0.15,0.46,0.33,0.66,0.53
			c2.27,2.32,0.75,7.09-3.37,10.65c-4.13,3.56-9.31,4.57-11.57,2.25C112.25,123.47,112.09,123.25,111.94,123.01"/>
		<path class="st8" d="M113.7,124.74c2.9,0.74,6.89-1.73,9.32-5.96c2.43-4.23,2.47-8.74,0.25-10.66c0.28,0.07,0.55,0.17,0.81,0.3
			c2.93,1.52,3.14,6.51,0.47,11.15c-2.67,4.64-7.21,7.17-10.14,5.66C114.15,125.09,113.92,124.93,113.7,124.74"/>
		<path class="st8" d="M117.9,130.52c3.33,0.65,7.34-1.61,9.36-5.45c2.01-3.84,1.35-7.92-1.42-9.64c0.32,0.06,0.63,0.15,0.94,0.27
			c3.48,1.35,4.5,5.86,2.29,10.07c-2.22,4.21-6.83,6.53-10.31,5.18C118.45,130.83,118.17,130.69,117.9,130.52"/>
		<path class="st8" d="M113.88,128.27c3.02,1.41,7.97,0.37,11.61-2.59c3.64-2.96,4.72-6.8,2.72-9.04c0.29,0.13,0.56,0.29,0.82,0.47
			c2.87,2.08,1.96,6.4-2.04,9.65c-4,3.25-9.57,4.19-12.44,2.11C114.29,128.68,114.07,128.48,113.88,128.27"/>
		<path class="st8" d="M116.09,129.82c3.33,0.65,7.34-1.61,9.36-5.45c2.01-3.84,1.35-7.92-1.42-9.64c0.32,0.06,0.63,0.15,0.94,0.27
			c3.48,1.35,4.5,5.86,2.29,10.07c-2.22,4.21-6.83,6.53-10.31,5.18C116.65,130.13,116.36,129.99,116.09,129.82"/>
		<path class="st8" d="M116.85,127.57c3.33,0.65,7.34-1.61,9.36-5.45c2.01-3.84,1.35-7.92-1.42-9.64c0.32,0.06,0.63,0.15,0.94,0.27
			c3.48,1.35,4.5,5.86,2.29,10.07c-2.22,4.21-6.83,6.53-10.31,5.18C117.41,127.88,117.12,127.74,116.85,127.57"/>
		<path class="st8" d="M112.83,125.32c3.02,1.41,7.97,0.37,11.61-2.59c3.64-2.96,4.72-6.8,2.72-9.04c0.29,0.13,0.56,0.29,0.82,0.47
			c2.87,2.08,1.96,6.4-2.04,9.65c-4,3.25-9.57,4.19-12.44,2.11C113.24,125.73,113.02,125.53,112.83,125.32"/>
		<path class="st8" d="M115.04,126.87c3.33,0.65,7.34-1.61,9.36-5.45c2.01-3.84,1.35-7.92-1.42-9.64c0.32,0.06,0.63,0.15,0.94,0.27
			c3.48,1.35,4.5,5.86,2.29,10.07c-2.21,4.21-6.83,6.53-10.31,5.18C115.6,127.18,115.31,127.04,115.04,126.87"/>
		<path class="st8" d="M109.2,119.37c1.11-2.44,5.82-3.63,11.17-2.69c5.35,0.95,9.49,3.7,9.87,6.4c0.11-0.23,0.18-0.48,0.22-0.74
			c0.42-2.93-4-6.15-9.86-7.18c-5.87-1.04-10.98,0.5-11.39,3.43C109.16,118.85,109.16,119.1,109.2,119.37"/>
		<path class="st8" d="M109.48,123.15c0.1-2.68,3.98-5.15,9.25-5.72c5.27-0.56,10.12,0.96,11.48,3.49c0.01-0.26-0.01-0.52-0.08-0.78
			c-0.72-2.97-6-4.88-11.78-4.25c-5.79,0.62-9.9,3.53-9.17,6.5C109.25,122.66,109.35,122.91,109.48,123.15"/>
		<path class="st8" d="M108.98,120.89c1.11-2.44,5.82-3.63,11.17-2.69c5.35,0.95,9.49,3.7,9.87,6.4c0.11-0.23,0.18-0.48,0.22-0.74
			c0.42-2.93-4-6.15-9.86-7.18c-5.87-1.04-10.98,0.5-11.39,3.43C108.94,120.37,108.94,120.63,108.98,120.89"/>
		<path class="st8" d="M108.41,115.58c1.46-2.67,5.99-4.01,10.73-3.02c4.73,0.99,8.04,3.96,7.91,6.9c0.14-0.26,0.25-0.53,0.33-0.8
			c0.91-3.2-2.57-6.68-7.77-7.76c-5.2-1.08-10.16,0.63-11.07,3.84C108.47,115.02,108.43,115.3,108.41,115.58"/>
		<path class="st8" d="M107.85,115.59c1.54-2.77,6.18-4.53,10.98-4.02c4.8,0.52,8.1,3.12,7.9,6.03c0.15-0.27,0.27-0.54,0.36-0.82
			c1-3.24-2.47-6.33-7.73-6.89c-5.27-0.57-10.35,1.61-11.34,4.85C107.92,115.03,107.87,115.31,107.85,115.59"/>
		<path class="st8" d="M105.82,116.13c1.46-2.67,5.99-4.01,10.73-3.02c4.73,0.99,8.04,3.96,7.91,6.9c0.14-0.26,0.25-0.53,0.33-0.8
			c0.91-3.2-2.57-6.68-7.77-7.76c-5.2-1.08-10.16,0.63-11.07,3.84C105.88,115.56,105.84,115.84,105.82,116.13"/>
		<path class="st8" d="M108.34,117c1.46-2.67,5.99-4.01,10.73-3.02c4.73,0.99,8.04,3.96,7.91,6.9c0.14-0.26,0.25-0.53,0.33-0.8
			c0.91-3.2-2.57-6.68-7.77-7.76c-5.2-1.08-10.16,0.63-11.07,3.84C108.4,116.43,108.36,116.71,108.34,117"/>
		<path class="st8" d="M107.92,121.13c0.57-2.93,4.57-5.66,9.51-6.32c4.94-0.66,9.11,0.97,9.91,3.71c0.06-0.28,0.08-0.56,0.07-0.85
			c-0.13-3.24-4.63-5.27-10.05-4.55c-5.42,0.73-9.71,3.94-9.58,7.18C107.8,120.59,107.84,120.86,107.92,121.13"/>
		<path class="st8" d="M107.87,118.66c1.46-2.67,5.99-4.01,10.73-3.02c4.73,0.99,8.04,3.96,7.91,6.9c0.14-0.26,0.25-0.53,0.33-0.8
			c0.91-3.2-2.57-6.68-7.77-7.76c-5.2-1.08-10.16,0.63-11.07,3.84C107.93,118.09,107.88,118.37,107.87,118.66"/>
		<path class="st9" d="M147.29,99.85c1.98,1.22,2.2,3.66,0.48,5.46c-1.71,1.79-4.7,2.26-6.68,1.04c-1.98-1.22-2.2-3.66-0.48-5.46
			C142.32,99.1,145.31,98.63,147.29,99.85"/>
		<path class="st8" d="M146.83,100.34c1.68,1.04,1.87,3.12,0.41,4.64c-1.46,1.53-4,1.92-5.68,0.88c-1.68-1.04-1.87-3.12-0.41-4.64
			C142.6,99.7,145.15,99.3,146.83,100.34"/>
		<path class="st9" d="M147.07,101.81c0.82,0.51,0.91,1.52,0.2,2.27s-1.96,0.94-2.78,0.43c-0.82-0.51-0.91-1.53-0.2-2.27
			C145,101.49,146.25,101.3,147.07,101.81"/>
		<path class="st8" d="M135.7,118.4l-10.47-2.51l6.36-10.03c-0.56,2.05-0.58,4.25,0.03,6.41
			C132.32,114.78,133.78,116.87,135.7,118.4"/>
		<path class="st8" d="M137.11,109.53c0.26,0.9-0.21,1.82-1.03,2.06c-0.83,0.23-1.7-0.31-1.96-1.21c-0.08-0.3-0.09-0.6-0.03-0.87
			c0.39,0.42,0.97,0.61,1.52,0.45c0.55-0.16,0.94-0.62,1.06-1.18C136.87,108.97,137.02,109.23,137.11,109.53"/>
		<path class="st8" d="M141.61,108.98c0.26,0.9-0.21,1.82-1.03,2.06c-0.83,0.23-1.7-0.31-1.96-1.21c-0.08-0.3-0.09-0.6-0.03-0.87
			c0.39,0.42,0.97,0.61,1.52,0.45c0.55-0.16,0.94-0.62,1.06-1.18C141.38,108.42,141.53,108.68,141.61,108.98"/>
		<path class="st8" d="M145.46,108.06c0.26,0.9-0.21,1.82-1.03,2.06c-0.83,0.23-1.7-0.31-1.96-1.21c-0.08-0.3-0.09-0.6-0.03-0.87
			c0.39,0.42,0.97,0.61,1.52,0.45c0.55-0.16,0.94-0.62,1.06-1.18C145.23,107.5,145.38,107.76,145.46,108.06"/>
		<path class="st8" d="M139.48,112.22c0.26,0.9-0.21,1.82-1.03,2.06c-0.83,0.23-1.7-0.31-1.96-1.21c-0.08-0.3-0.09-0.6-0.03-0.87
			c0.39,0.42,0.97,0.61,1.52,0.45s0.94-0.62,1.06-1.18C139.25,111.66,139.4,111.92,139.48,112.22"/>
		<path class="st8" d="M143.96,111.56c0.26,0.9-0.21,1.82-1.03,2.06c-0.83,0.23-1.7-0.31-1.96-1.21c-0.08-0.3-0.09-0.6-0.03-0.87
			c0.39,0.42,0.97,0.61,1.52,0.45c0.55-0.16,0.94-0.62,1.06-1.18C143.72,111.01,143.88,111.27,143.96,111.56"/>
	</g>
</g>
<g id="Text">
</g>
<g id="Safe_Area" class="st0">
	<circle class="st10" cx="126" cy="126" r="54"/>
</g>
</svg>
