<?xml version="1.0" encoding="utf-8"?>
<!-- Generator: Adobe Illustrator 23.0.2, SVG Export Plug-In . SVG Version: 6.00 Build 0)  -->
<svg version="1.1" xmlns="http://www.w3.org/2000/svg" xmlns:xlink="http://www.w3.org/1999/xlink" x="0px" y="0px"
	 viewBox="0 0 252 252" style="enable-background:new 0 0 252 252;" xml:space="preserve">
<style type="text/css">
	.st0{display:none;}
	.st1{display:inline;fill:#FFFFFF;stroke:#252723;stroke-miterlimit:10;}
	.st2{fill:#FFFFFF;}
	.st3{fill:#D0D7D8;}
	.st4{fill:#CACEE0;}
	.st5{fill:#4D646E;}
	.st6{fill:#CAE0E7;}
	.st7{fill:#E8CBD9;}
	.st8{fill:#E3BDCF;}
	.st9{fill:#E2E0E6;}
	.st10{display:inline;fill:none;stroke:#252723;stroke-miterlimit:10;}
</style>
<g id="Bleed" class="st0">
	<circle class="st1" cx="126" cy="126" r="72"/>
</g>
<g id="Background">
</g>
<g id="Image">
	<circle class="st2" cx="126" cy="126" r="57.66"/>
	<circle class="st3" cx="126" cy="126" r="50.01"/>
	<circle class="st2" cx="126" cy="126" r="40.72"/>
	<circle class="st3" cx="126" cy="126" r="36"/>
	<g>
		
			<ellipse transform="matrix(0.3079 -0.9514 0.9514 0.3079 -48.4076 202.8128)" class="st4" cx="115.2" cy="134.68" rx="4.57" ry="1.95"/>
		<polygon class="st5" points="117.67,136.4 95.29,114.02 124.61,105.52 		"/>
		<polygon class="st5" points="122.06,137.95 152.13,120.72 156.71,138.88 		"/>
		
			<ellipse transform="matrix(0.3079 -0.9514 0.9514 0.3079 -48.1389 203.0968)" class="st6" cx="115.52" cy="134.64" rx="4.57" ry="1.95"/>
		
			<ellipse transform="matrix(0.7071 -0.7071 0.7071 0.7071 -55.3639 130.7902)" class="st7" cx="130.2" cy="132.23" rx="3.15" ry="10.77"/>
		<path class="st8" d="M133.54,140.82c-1.11,1.11-3.32,0.85-5.85-1.69c-2.54-2.54-3.7-5.49-2.59-6.6c1.11-1.11,4.06,0.05,6.6,2.59
			C134.23,137.66,134.64,139.71,133.54,140.82z"/>
		<path class="st7" d="M133.54,140.82c-1.17,1.17-4.69-0.04-8.79-4.14c-4.1-4.1-6.48-8.38-5.31-9.55c1.17-1.17,5.45,1.2,9.55,5.31
			C133.1,136.53,134.71,139.65,133.54,140.82z"/>
		
			<ellipse transform="matrix(0.7071 -0.7071 0.7071 0.7071 -60.8787 129.0723)" class="st8" cx="125.36" cy="138.02" rx="3.15" ry="6.48"/>
		
			<ellipse transform="matrix(0.7071 -0.7071 0.7071 0.7071 -60.0254 125.9821)" class="st7" cx="122.06" cy="135.45" rx="3.15" ry="10.77"/>
		
			<ellipse transform="matrix(0.7071 -0.7071 0.7071 0.7071 -62.3429 126.2463)" class="st8" cx="121.22" cy="138.38" rx="3.15" ry="7.69"/>
		
			<ellipse transform="matrix(0.7071 -0.7071 0.7071 0.7071 -61.8793 124.0251)" class="st7" cx="118.77" cy="136.71" rx="3.15" ry="10.77"/>
		<polygon class="st7" points="103.18,123.27 123.8,125.13 117.82,137.91 		"/>
		
			<ellipse transform="matrix(0.3079 -0.9514 0.9514 0.3079 -41.1029 203.1317)" class="st4" cx="119.07" cy="129.82" rx="4.57" ry="1.95"/>
		
			<ellipse transform="matrix(0.4227 -0.9063 0.9063 0.4227 -40.9983 191.6623)" class="st4" cx="129.93" cy="128.01" rx="3.42" ry="5.91"/>
		
			<ellipse transform="matrix(0.9141 -0.4056 0.4056 0.9141 -42.3474 66.3806)" class="st4" cx="135.46" cy="133.11" rx="2.72" ry="6.85"/>
		
			<ellipse transform="matrix(0.9805 -0.1963 0.1963 0.9805 -22.4226 26.7869)" class="st4" cx="123.9" cy="126.5" rx="4.57" ry="2.59"/>
		
			<ellipse transform="matrix(0.3079 -0.9514 0.9514 0.3079 -40.7825 202.4698)" class="st6" cx="118.77" cy="129.27" rx="4.57" ry="1.95"/>
		
			<ellipse transform="matrix(0.4227 -0.9063 0.9063 0.4227 -40.6689 191.0769)" class="st6" cx="129.64" cy="127.46" rx="3.42" ry="5.91"/>
		
			<ellipse transform="matrix(0.9141 -0.4056 0.4056 0.9141 -42.1492 66.2137)" class="st6" cx="135.16" cy="132.56" rx="2.72" ry="6.85"/>
		
			<ellipse transform="matrix(0.3079 -0.9514 0.9514 0.3079 -51.2965 207.1614)" class="st4" cx="116.74" cy="138.84" rx="2.29" ry="1.95"/>
		
			<ellipse transform="matrix(0.3079 -0.9514 0.9514 0.3079 -51.0562 207.5808)" class="st6" cx="117.15" cy="138.88" rx="2.29" ry="1.95"/>
		
			<rect x="136.24" y="127.97" transform="matrix(0.9805 -0.1963 0.1963 0.9805 -23.5488 29.8014)" class="st9" width="4.61" height="11.42"/>
		
			<ellipse transform="matrix(0.0834 -0.9965 0.9965 0.0834 -29.7832 251.6481)" class="st4" cx="121.9" cy="142.01" rx="2.29" ry="1.32"/>
		
			<rect x="109.95" y="113.37" transform="matrix(-0.064 -0.9979 0.9979 -0.064 -3.3417 242.9538)" class="st9" width="4.61" height="19.35"/>
		
			<ellipse transform="matrix(0.9805 -0.1963 0.1963 0.9805 -22.3201 26.7183)" class="st6" cx="123.61" cy="125.94" rx="4.57" ry="2.59"/>
		
			<ellipse transform="matrix(0.0834 -0.9965 0.9965 0.0834 -29.6363 251.8078)" class="st6" cx="122.06" cy="142.01" rx="2.34" ry="1.18"/>
		
			<ellipse transform="matrix(0.3079 -0.9514 0.9514 0.3079 -49.9666 210.914)" class="st4" cx="119.98" cy="139.8" rx="3.6" ry="1.95"/>
		
			<ellipse transform="matrix(0.247 -0.969 0.969 0.247 -45.0454 221.5881)" class="st6" cx="120.06" cy="139.78" rx="3.6" ry="1.67"/>
	</g>
</g>
<g id="Text">
	<g>
		<path class="st2" d="M104.71,84.8l-1.31,0.75l2.52,4.4c0.15,0.25,0.06,0.57-0.19,0.71c-0.25,0.14-0.57,0.06-0.71-0.19l-2.52-4.4
			l-1.3,0.75c-0.26,0.15-0.58,0.05-0.72-0.2c-0.15-0.25-0.06-0.57,0.19-0.71l3.52-2.02c0.25-0.14,0.57-0.06,0.71,0.19
			C105.04,84.33,104.96,84.66,104.71,84.8z"/>
		<path class="st2" d="M109.22,84.21c0.11,0.24,0.01,0.55-0.25,0.67c-0.2,0.09-0.35,0.22-0.45,0.4c-0.12,0.18-0.18,0.38-0.21,0.6
			c-0.08,0.37-0.04,0.75-0.03,0.89l0.74,1.65c0.11,0.25-0.01,0.56-0.27,0.67c-0.25,0.11-0.55,0-0.67-0.25l-1.53-3.42
			c-0.11-0.25,0.01-0.54,0.26-0.66c0.26-0.12,0.57-0.02,0.68,0.24l0.03,0.06c0.02-0.08,0.06-0.19,0.1-0.25
			c0.2-0.32,0.5-0.64,0.94-0.83C108.82,83.85,109.11,83.96,109.22,84.21z"/>
		<path class="st2" d="M113.77,87.13c-1.04,0.32-2.15-0.27-2.48-1.3l-0.67-2.17c-0.08-0.25,0.07-0.55,0.33-0.63
			c0.27-0.08,0.55,0.08,0.63,0.33l0.67,2.17c0.16,0.52,0.7,0.8,1.21,0.64c0.53-0.16,0.82-0.7,0.67-1.22l-0.67-2.17
			c-0.08-0.25,0.05-0.54,0.32-0.63c0.25-0.08,0.56,0.07,0.64,0.33l0.67,2.17C115.42,85.68,114.81,86.81,113.77,87.13z"/>
		<path class="st2" d="M116.91,84.85c0.13-0.25,0.45-0.34,0.69-0.2c0.28,0.16,0.74,0.3,1.1,0.23c0.25-0.04,0.47-0.17,0.6-0.29
			c0.11-0.14,0.13-0.24,0.12-0.31c-0.01-0.05-0.02-0.06-0.04-0.09c-0.01-0.03-0.06-0.06-0.14-0.09c-0.15-0.07-0.45-0.12-0.79-0.13
			l-0.01,0c-0.3,0-0.59-0.03-0.86-0.1c-0.27-0.08-0.53-0.2-0.74-0.43c-0.13-0.15-0.23-0.35-0.26-0.56c-0.08-0.43,0.1-0.84,0.37-1.13
			c0.29-0.28,0.66-0.48,1.09-0.55c0.65-0.12,1.16,0.11,1.5,0.26c0.25,0.11,0.37,0.41,0.27,0.67c-0.11,0.25-0.41,0.37-0.67,0.26
			c-0.33-0.14-0.62-0.25-0.92-0.19c-0.23,0.04-0.43,0.15-0.53,0.27c-0.11,0.11-0.12,0.2-0.11,0.24c0.01,0.04,0.01,0.05,0.03,0.07
			c0.01,0.02,0.05,0.05,0.12,0.08c0.14,0.06,0.4,0.1,0.72,0.1l0.01,0.01l0.01,0c0.32,0,0.62,0.03,0.92,0.11
			c0.27,0.07,0.56,0.2,0.76,0.43c0.15,0.17,0.25,0.37,0.29,0.59c0.08,0.46-0.1,0.89-0.39,1.19c-0.29,0.29-0.69,0.51-1.15,0.59
			c-0.73,0.12-1.35-0.11-1.78-0.34C116.86,85.4,116.78,85.09,116.91,84.85z"/>
		<path class="st2" d="M123.77,81.06c0.02,0.28-0.21,0.54-0.49,0.56l-0.24,0.02l0.19,2.65c0.29-0.02,0.54,0.2,0.56,0.49
			c0.02,0.29-0.19,0.54-0.48,0.56c-0.58,0.04-1.09-0.39-1.13-0.97l-0.2-2.64l-0.28,0.02c-0.29,0.02-0.54-0.2-0.56-0.48
			c-0.02-0.29,0.19-0.54,0.48-0.56l0.28-0.02l-0.1-1.38c-0.02-0.29,0.2-0.54,0.49-0.56c0.29-0.02,0.54,0.19,0.56,0.48l0.1,1.38
			l0.24-0.02C123.49,80.56,123.75,80.77,123.77,81.06z"/>
		<path class="st2" d="M131.89,81.56l-1.81,3.57c-0.01,0.02-0.02,0.05-0.04,0.07c0,0.01-0.01,0.01-0.01,0.01
			c-0.01,0.02-0.03,0.04-0.05,0.05c-0.01,0.01-0.02,0.01-0.02,0.01c-0.02,0.02-0.04,0.03-0.06,0.04c0,0.01-0.01,0.01-0.01,0.02
			c-0.03,0.02-0.05,0.03-0.09,0.04c0,0-0.01,0-0.01,0.01c-0.02,0-0.05,0.01-0.08,0.01c-0.01,0-0.01,0-0.02,0
			c-0.03,0.01-0.06,0.01-0.09,0c-0.03,0-0.06,0-0.08-0.02c-0.01,0-0.01,0-0.02,0c-0.02-0.01-0.04-0.02-0.06-0.02
			c-0.01-0.01-0.01-0.01-0.01-0.01c-0.01,0-0.01,0-0.01,0c-0.03-0.01-0.05-0.03-0.08-0.06c0,0,0,0,0-0.01
			c-0.03-0.01-0.04-0.03-0.05-0.05c0,0-0.02,0-0.02-0.01c-0.02-0.02-0.03-0.04-0.04-0.06c0,0-0.01,0-0.01-0.01
			c-0.02-0.03-0.03-0.06-0.03-0.08l-0.58-1.69l-0.78,1.59c-0.01,0.02-0.03,0.04-0.05,0.07l0,0.01c-0.02,0.02-0.04,0.04-0.06,0.05
			c0,0.01-0.01,0.01-0.01,0.01c-0.02,0.02-0.04,0.04-0.06,0.05c-0.04,0.03-0.06,0.04-0.09,0.05l-0.02,0c0,0-0.01,0-0.01,0.01
			c-0.02,0-0.05,0.01-0.06,0.01c-0.02,0-0.02,0-0.02,0c-0.04,0.01-0.07,0.01-0.09,0c-0.04,0-0.07,0-0.09-0.01c-0.01,0-0.01,0-0.03,0
			c-0.02-0.01-0.04-0.02-0.06-0.02c-0.01-0.01-0.01-0.01-0.02-0.01c-0.03-0.01-0.07-0.03-0.08-0.06c-0.01,0-0.01,0-0.01-0.01
			c-0.01-0.01-0.03-0.03-0.05-0.05c0,0,0,0-0.02-0.01c-0.01-0.02-0.03-0.04-0.03-0.06c-0.01,0-0.01,0-0.01-0.01
			c-0.02-0.03-0.02-0.06-0.04-0.08l-1.31-3.78c-0.1-0.26,0.05-0.54,0.32-0.64c0.23-0.09,0.52,0.04,0.61,0.33l0.95,2.63l0.77-1.54
			c0.1-0.18,0.29-0.29,0.48-0.27c0.21,0.01,0.38,0.14,0.44,0.34l0.57,1.63l1.29-2.47c0.11-0.27,0.42-0.36,0.66-0.24
			C131.91,81.02,132.02,81.31,131.89,81.56z"/>
		<path class="st2" d="M133.77,85.26c-0.3-0.5-0.41-1.13-0.26-1.78c0.15-0.63,0.51-1.12,1.02-1.47c0.52-0.34,1.12-0.48,1.76-0.33
			c0.61,0.14,1.1,0.54,1.38,1.06c0.31,0.54,0.42,1.14,0.27,1.77c-0.15,0.65-0.52,1.17-1.03,1.48c-0.48,0.35-1.1,0.49-1.71,0.35
			C134.56,86.19,134.08,85.8,133.77,85.26z M134.51,83.72c-0.09,0.4-0.05,0.75,0.11,1.06c0.18,0.28,0.46,0.47,0.81,0.55
			c0.32,0.08,0.65,0.02,0.93-0.14c0.29-0.21,0.5-0.5,0.59-0.9c0.09-0.38,0.04-0.74-0.14-1.05c-0.18-0.26-0.45-0.47-0.77-0.55
			c-0.35-0.08-0.69,0-0.97,0.15C134.8,83.03,134.6,83.34,134.51,83.72z"/>
		<path class="st2" d="M142.75,84.2c-0.09,0.25-0.38,0.4-0.64,0.31c-0.21-0.07-0.4-0.08-0.6-0.02c-0.21,0.05-0.4,0.15-0.56,0.28
			c-0.32,0.21-0.55,0.51-0.63,0.62l-0.61,1.7c-0.09,0.26-0.39,0.39-0.66,0.3c-0.26-0.09-0.4-0.38-0.31-0.64l1.26-3.53
			c0.09-0.26,0.38-0.39,0.64-0.3c0.27,0.1,0.42,0.38,0.33,0.64l-0.02,0.06c0.08-0.04,0.17-0.09,0.25-0.11
			c0.37-0.09,0.81-0.12,1.25,0.05C142.71,83.66,142.84,83.94,142.75,84.2z"/>
		<path class="st2" d="M146.08,85.73c-0.12,0.26-0.45,0.37-0.7,0.25l-0.22-0.1l-1.12,2.41c0.27,0.12,0.37,0.44,0.25,0.7
			c-0.12,0.27-0.43,0.38-0.7,0.25c-0.53-0.25-0.75-0.88-0.51-1.4l1.12-2.41l-0.25-0.12c-0.27-0.12-0.37-0.44-0.25-0.7
			c0.12-0.27,0.43-0.38,0.7-0.25l0.25,0.12l0.58-1.25c0.12-0.27,0.44-0.37,0.7-0.25c0.27,0.12,0.38,0.43,0.25,0.7l-0.58,1.25
			l0.21,0.1C146.08,85.15,146.2,85.47,146.08,85.73z"/>
		<path class="st2" d="M146.62,90.23c-0.15,0.25-0.47,0.32-0.73,0.17c-0.2-0.12-0.29-0.37-0.23-0.59c0.01-0.04,0.03-0.08,0.05-0.12
			l2.91-4.8c0.15-0.25,0.47-0.32,0.72-0.17c0.25,0.15,0.34,0.47,0.18,0.72l-0.86,1.41c0.34,0.02,0.7,0.1,1.01,0.29
			c0.98,0.6,1.28,1.88,0.69,2.86l-1.12,1.84c-0.15,0.25-0.47,0.33-0.72,0.17c-0.25-0.15-0.33-0.47-0.18-0.72l1.12-1.84
			c0.29-0.48,0.14-1.11-0.34-1.41c-0.48-0.28-1.1-0.12-1.4,0.35L146.62,90.23z"/>
		<path class="st2" d="M155.53,91.99l-1.41,1.75l-0.85,1.05c-0.8,0.99-2.21,1.14-3.19,0.34c-0.27-0.21-0.48-0.51-0.61-0.8
			c-0.14-0.26-0.02-0.55,0.23-0.68c0.24-0.1,0.56,0.02,0.66,0.26c0.09,0.18,0.2,0.33,0.35,0.45c0.44,0.34,1.04,0.36,1.47,0.07
			c-0.3-0.05-0.6-0.19-0.85-0.39c-0.85-0.69-0.98-1.95-0.29-2.8l1.41-1.75c0.18-0.22,0.5-0.24,0.7-0.08
			c0.23,0.19,0.26,0.49,0.08,0.71l-1.41,1.75c-0.35,0.43-0.26,1.04,0.16,1.38c0.42,0.34,1.03,0.29,1.37-0.14l1.41-1.75
			c0.18-0.22,0.48-0.26,0.7-0.08C155.66,91.45,155.71,91.77,155.53,91.99z"/>
	</g>
	<g>
		<path d="M103.83,84.86l-1.31,0.76l2.55,4.39c0.15,0.25,0.06,0.57-0.19,0.71c-0.25,0.14-0.57,0.06-0.71-0.19l-2.55-4.39l-1.3,0.75
			c-0.25,0.15-0.58,0.05-0.72-0.2c-0.15-0.25-0.07-0.57,0.19-0.71l3.51-2.04c0.25-0.14,0.57-0.07,0.71,0.19
			C104.16,84.38,104.07,84.72,103.83,84.86z"/>
		<path d="M108.34,84.25c0.11,0.24,0.01,0.55-0.25,0.67c-0.2,0.09-0.35,0.22-0.44,0.4c-0.12,0.18-0.18,0.38-0.21,0.6
			c-0.08,0.37-0.04,0.75-0.02,0.89l0.75,1.64c0.11,0.25-0.01,0.56-0.27,0.68c-0.25,0.11-0.55,0-0.67-0.25l-1.55-3.41
			c-0.11-0.25,0-0.54,0.25-0.66c0.26-0.12,0.57-0.02,0.68,0.23l0.03,0.06c0.02-0.08,0.06-0.19,0.1-0.26c0.2-0.32,0.5-0.65,0.94-0.83
			C107.93,83.89,108.22,84,108.34,84.25z"/>
		<path d="M112.9,87.14c-1.03,0.33-2.16-0.25-2.48-1.29l-0.69-2.17c-0.08-0.25,0.07-0.55,0.33-0.63c0.27-0.09,0.55,0.07,0.63,0.33
			l0.69,2.17c0.16,0.52,0.7,0.8,1.22,0.63c0.53-0.17,0.81-0.71,0.66-1.23l-0.69-2.17c-0.08-0.25,0.05-0.54,0.32-0.63
			c0.25-0.08,0.56,0.07,0.64,0.33l0.69,2.17C114.54,85.69,113.94,86.81,112.9,87.14z"/>
		<path d="M116.02,84.84c0.13-0.25,0.45-0.34,0.69-0.2c0.28,0.16,0.74,0.3,1.1,0.22c0.25-0.05,0.47-0.17,0.6-0.3
			c0.11-0.14,0.13-0.24,0.12-0.31c-0.01-0.05-0.02-0.06-0.05-0.09c-0.01-0.03-0.06-0.06-0.14-0.09c-0.15-0.07-0.45-0.12-0.8-0.12
			l-0.01,0c-0.3,0-0.59-0.03-0.86-0.09c-0.27-0.08-0.53-0.2-0.75-0.42c-0.13-0.15-0.23-0.34-0.27-0.56
			c-0.08-0.43,0.1-0.84,0.36-1.13c0.29-0.28,0.66-0.48,1.09-0.56c0.64-0.12,1.16,0.1,1.5,0.25c0.25,0.11,0.38,0.4,0.28,0.66
			c-0.11,0.25-0.4,0.38-0.67,0.26c-0.34-0.14-0.62-0.24-0.92-0.19c-0.23,0.04-0.43,0.16-0.53,0.27c-0.11,0.11-0.12,0.2-0.11,0.24
			c0.01,0.04,0.01,0.05,0.03,0.07c0.01,0.02,0.05,0.05,0.12,0.08c0.14,0.06,0.4,0.1,0.72,0.1l0.01,0.01l0.01,0
			c0.32,0,0.62,0.03,0.92,0.11c0.27,0.07,0.56,0.2,0.77,0.43c0.15,0.17,0.25,0.37,0.29,0.58c0.08,0.46-0.1,0.89-0.39,1.19
			c-0.29,0.3-0.69,0.51-1.15,0.6c-0.73,0.13-1.35-0.11-1.78-0.34C115.98,85.39,115.89,85.08,116.02,84.84z"/>
		<path d="M122.87,81.02c0.02,0.28-0.21,0.54-0.49,0.56l-0.24,0.02l0.21,2.64c0.29-0.02,0.54,0.2,0.56,0.49
			c0.02,0.29-0.19,0.54-0.48,0.56c-0.58,0.05-1.09-0.39-1.14-0.97l-0.21-2.64l-0.27,0.02c-0.29,0.02-0.54-0.2-0.56-0.48
			c-0.02-0.29,0.19-0.54,0.48-0.56l0.27-0.02l-0.11-1.37c-0.02-0.29,0.2-0.54,0.49-0.56c0.29-0.02,0.54,0.19,0.56,0.48l0.11,1.38
			l0.24-0.02C122.58,80.52,122.84,80.73,122.87,81.02z"/>
		<path d="M130.99,81.47l-1.79,3.58c-0.01,0.02-0.02,0.05-0.04,0.07c0,0.01-0.01,0.01-0.01,0.01c-0.01,0.02-0.03,0.04-0.05,0.05
			c-0.01,0.01-0.02,0.01-0.02,0.01c-0.02,0.02-0.04,0.03-0.06,0.04c0,0.01-0.01,0.01-0.01,0.02c-0.03,0.02-0.05,0.03-0.09,0.04
			c0,0-0.01,0-0.01,0.01c-0.02,0-0.05,0.01-0.08,0.01c-0.01,0-0.01,0-0.02,0c-0.03,0.01-0.06,0.01-0.1,0c-0.03,0-0.06,0-0.08-0.02
			c-0.01,0-0.01,0-0.02,0c-0.02-0.01-0.04-0.02-0.06-0.02c-0.01-0.01-0.01-0.01-0.01-0.01c-0.01,0-0.01,0-0.01,0
			c-0.03-0.01-0.06-0.03-0.08-0.06c0,0,0,0,0-0.01c-0.03-0.01-0.04-0.03-0.05-0.05c0,0-0.02,0-0.02-0.01
			c-0.02-0.02-0.04-0.04-0.04-0.06c0,0-0.01,0-0.01-0.01c-0.02-0.03-0.02-0.06-0.03-0.08l-0.59-1.68l-0.78,1.6
			c-0.01,0.02-0.03,0.05-0.05,0.07l0,0.01c-0.02,0.02-0.04,0.04-0.06,0.05c0,0.01-0.01,0.01-0.01,0.01
			c-0.02,0.02-0.04,0.04-0.06,0.05c-0.04,0.03-0.06,0.04-0.09,0.05l-0.02,0c0,0-0.01,0-0.01,0.01c-0.02,0-0.05,0.01-0.06,0.01
			c-0.02,0-0.02,0-0.02,0c-0.04,0.01-0.07,0-0.1,0c-0.04,0-0.07,0-0.09-0.02c-0.01,0-0.01,0-0.03,0c-0.02-0.01-0.04-0.02-0.06-0.02
			c-0.01-0.01-0.01-0.01-0.02-0.01c-0.03-0.01-0.06-0.03-0.08-0.06c-0.01,0-0.01,0-0.01-0.01c-0.01-0.01-0.03-0.03-0.05-0.05
			c0,0,0,0-0.02-0.01c-0.01-0.02-0.03-0.04-0.03-0.06c-0.01,0-0.01,0-0.01-0.01c-0.02-0.03-0.03-0.06-0.04-0.08l-1.33-3.78
			c-0.1-0.26,0.04-0.54,0.32-0.64c0.23-0.09,0.52,0.04,0.61,0.32l0.96,2.62l0.76-1.54c0.1-0.18,0.28-0.29,0.48-0.27
			c0.21,0.01,0.38,0.14,0.45,0.33l0.58,1.63l1.28-2.48c0.11-0.27,0.42-0.36,0.65-0.24C131,80.93,131.12,81.22,130.99,81.47z"/>
		<path d="M132.88,85.16c-0.31-0.5-0.42-1.13-0.27-1.78c0.14-0.63,0.51-1.12,1.01-1.48c0.52-0.34,1.12-0.49,1.76-0.34
			c0.61,0.14,1.11,0.53,1.39,1.05c0.32,0.54,0.42,1.14,0.28,1.77c-0.15,0.65-0.51,1.17-1.02,1.49c-0.48,0.35-1.1,0.49-1.71,0.36
			C133.68,86.08,133.2,85.69,132.88,85.16z M133.62,83.61c-0.09,0.4-0.04,0.75,0.11,1.06c0.18,0.28,0.46,0.46,0.81,0.54
			c0.33,0.07,0.65,0.02,0.93-0.15c0.29-0.21,0.49-0.5,0.58-0.9c0.09-0.38,0.03-0.74-0.14-1.05c-0.19-0.26-0.45-0.47-0.77-0.54
			c-0.35-0.08-0.69,0-0.97,0.15C133.91,82.93,133.71,83.23,133.62,83.61z"/>
		<path d="M141.86,84.05c-0.09,0.25-0.37,0.4-0.64,0.31c-0.21-0.07-0.4-0.08-0.6-0.02c-0.21,0.05-0.4,0.15-0.56,0.29
			c-0.32,0.21-0.54,0.51-0.63,0.62l-0.6,1.7c-0.09,0.26-0.39,0.4-0.66,0.3c-0.26-0.09-0.4-0.38-0.31-0.64l1.24-3.53
			c0.09-0.26,0.38-0.39,0.64-0.3c0.27,0.09,0.42,0.38,0.33,0.64l-0.02,0.06c0.08-0.04,0.17-0.09,0.25-0.11
			c0.37-0.09,0.81-0.12,1.25,0.04C141.82,83.51,141.95,83.79,141.86,84.05z"/>
		<path d="M145.2,85.56c-0.12,0.26-0.44,0.37-0.7,0.25l-0.22-0.1l-1.11,2.41c0.27,0.12,0.38,0.43,0.25,0.7
			c-0.12,0.27-0.43,0.38-0.69,0.25c-0.53-0.24-0.76-0.87-0.52-1.4l1.11-2.41l-0.25-0.12c-0.27-0.12-0.38-0.43-0.26-0.69
			c0.12-0.27,0.43-0.38,0.69-0.26l0.25,0.12l0.58-1.25c0.12-0.27,0.43-0.38,0.7-0.25c0.27,0.12,0.38,0.43,0.26,0.69l-0.58,1.25
			l0.22,0.1C145.19,84.98,145.32,85.3,145.2,85.56z"/>
		<path d="M145.77,90.06c-0.15,0.25-0.47,0.33-0.73,0.17c-0.2-0.12-0.29-0.37-0.23-0.59c0.01-0.04,0.03-0.08,0.05-0.12l2.89-4.81
			c0.15-0.25,0.47-0.33,0.72-0.18c0.25,0.15,0.34,0.47,0.19,0.72l-0.85,1.42c0.34,0.02,0.7,0.1,1.01,0.29
			c0.99,0.59,1.29,1.87,0.71,2.85l-1.11,1.84c-0.15,0.25-0.46,0.33-0.72,0.18c-0.25-0.15-0.33-0.46-0.18-0.72l1.11-1.84
			c0.29-0.48,0.13-1.11-0.35-1.41c-0.49-0.28-1.1-0.12-1.4,0.36L145.77,90.06z"/>
		<path d="M154.68,91.77l-1.4,1.75l-0.84,1.05c-0.79,1-2.2,1.15-3.19,0.36c-0.27-0.21-0.48-0.51-0.62-0.8
			c-0.14-0.25-0.03-0.54,0.23-0.68c0.24-0.1,0.56,0.02,0.66,0.26c0.09,0.18,0.2,0.33,0.35,0.45c0.44,0.34,1.04,0.36,1.47,0.06
			c-0.3-0.05-0.6-0.19-0.85-0.38c-0.86-0.68-0.99-1.94-0.31-2.8l1.4-1.75c0.18-0.22,0.5-0.25,0.7-0.09
			c0.23,0.18,0.26,0.49,0.08,0.71l-1.4,1.75c-0.34,0.43-0.25,1.04,0.17,1.37s1.03,0.28,1.37-0.15l1.4-1.75
			c0.18-0.22,0.48-0.26,0.7-0.09C154.81,91.23,154.86,91.55,154.68,91.77z"/>
	</g>
</g>
<g id="Safe_Area" class="st0">
	<circle class="st10" cx="126" cy="126" r="54"/>
</g>
</svg>
