<?xml version="1.0" encoding="utf-8"?>
<!-- Generator: Adobe Illustrator 23.0.2, SVG Export Plug-In . SVG Version: 6.00 Build 0)  -->
<svg version="1.1" xmlns="http://www.w3.org/2000/svg" xmlns:xlink="http://www.w3.org/1999/xlink" x="0px" y="0px"
	 viewBox="0 0 252 252" style="enable-background:new 0 0 252 252;" xml:space="preserve">
<style type="text/css">
	.st0{display:none;}
	.st1{display:inline;fill:#FFFFFF;stroke:#252723;stroke-miterlimit:10;}
	.st2{fill:#FFFFFF;}
	.st3{fill:#EAD0CF;}
	.st4{fill:#C48F8F;}
	.st5{fill:#DDE8EC;}
	.st6{fill:#CAE0E7;}
	.st7{fill:#E5D9E6;}
	.st8{fill:#F9F3EE;}
	.st9{display:inline;fill:none;stroke:#252723;stroke-miterlimit:10;}
</style>
<g id="Bleed" class="st0">
	<circle class="st1" cx="126" cy="126" r="72"/>
</g>
<g id="Background">
</g>
<g id="Image">
	<circle class="st2" cx="126" cy="126" r="57.66"/>
	<circle class="st3" cx="126" cy="126" r="50.01"/>
	<circle class="st2" cx="126" cy="126" r="40.72"/>
	<circle class="st3" cx="126" cy="126" r="36"/>
	<g>
		<ellipse class="st4" cx="119.12" cy="128.51" rx="15.23" ry="19.89"/>
		
			<rect x="115.96" y="111.75" transform="matrix(0.9474 -0.3201 0.3201 0.9474 -31.6632 48.9419)" class="st5" width="34.2" height="18.1"/>
		<polygon class="st6" points="134.27,124.37 113.97,117.69 146.36,106.75 		"/>
		<path class="st7" d="M139.14,118.75c0.34,1,0.07,2.07-0.6,2.8l0,0l-1.1,2.36l-0.42,0.9l-1.01,2.16l-2.11-1.11l-0.88-0.46l-2.3-1.2
			c-0.98-0.17-1.83-0.86-2.17-1.86c-0.49-1.46,0.29-3.05,1.75-3.54c1.46-0.49,3.05,0.29,3.55,1.75c-0.49-1.46,0.29-3.05,1.75-3.55
			C137.05,116.5,138.64,117.28,139.14,118.75z"/>
		<path class="st7" d="M133.01,125.39l0.88,0.46C133.57,125.76,133.28,125.6,133.01,125.39z"/>
		<path class="st7" d="M137.43,123.9c-0.08,0.32-0.23,0.62-0.42,0.9L137.43,123.9z"/>
		
			<ellipse transform="matrix(0.7381 -0.6747 0.6747 0.7381 -58.5723 124.0546)" class="st4" cx="130.5" cy="137.47" rx="13.19" ry="6.04"/>
		<ellipse class="st8" cx="119.48" cy="146.11" rx="11.02" ry="3.39"/>
	</g>
</g>
<g id="Text">
	<g>
		<path class="st2" d="M117.6,85.54l-0.81-5.5c-0.04-0.27,0.15-0.55,0.44-0.59c0.29-0.04,0.55,0.17,0.59,0.44l0.4,2.7l2.6-3.5
			c0.18-0.24,0.5-0.28,0.73-0.11c0.23,0.17,0.27,0.5,0.11,0.73l-1.77,2.36l2.49,2.43c0.22,0.19,0.23,0.52,0.03,0.73
			c-0.08,0.1-0.19,0.15-0.31,0.17c-0.14,0.02-0.29-0.02-0.41-0.13l-2.42-2.36l-0.83,1.14l0.2,1.34c0.04,0.28-0.15,0.55-0.44,0.59
			S117.64,85.82,117.6,85.54z"/>
		<path class="st2" d="M124.98,79.34c0.01,0.29-0.2,0.53-0.5,0.54c-0.29,0.01-0.52-0.22-0.53-0.5l-0.01-0.2
			c-0.01-0.29,0.21-0.52,0.5-0.53c0.29-0.01,0.52,0.21,0.53,0.5L124.98,79.34z M125.03,81.06l0.13,3.71c0.01,0.29-0.2,0.52-0.5,0.53
			c-0.29,0.01-0.52-0.21-0.53-0.5l-0.13-3.71c-0.01-0.3,0.21-0.53,0.5-0.54C124.8,80.54,125.02,80.75,125.03,81.06z"/>
		<path class="st2" d="M130.8,82.73l-0.15,2.26c-0.02,0.27-0.25,0.49-0.53,0.47c-0.26-0.02-0.49-0.26-0.47-0.54l0.15-2.26
			c0.04-0.53-0.38-0.99-0.92-1.02c-0.53-0.04-0.98,0.36-1.01,0.89l-0.15,2.26c0,0.03,0,0.06-0.03,0.09
			c-0.06,0.22-0.28,0.39-0.53,0.37c-0.28-0.02-0.49-0.26-0.47-0.54l0.15-2.26l0.1-1.47c0.02-0.27,0.25-0.49,0.54-0.47
			c0.2,0.01,0.37,0.14,0.45,0.33c0.3-0.16,0.65-0.25,1.02-0.23C130.05,80.7,130.87,81.66,130.8,82.73z"/>
		<path class="st2" d="M136.38,86.06c-0.06,0.27-0.33,0.46-0.61,0.4c-0.25-0.05-0.41-0.27-0.41-0.5c-0.4,0.17-0.88,0.23-1.35,0.13
			c-1.26-0.26-2.04-1.54-1.77-2.79c0.27-1.27,1.5-2.12,2.75-1.86c0.46,0.1,0.87,0.34,1.16,0.65l0.37-1.75
			c0.06-0.27,0.33-0.46,0.62-0.39c0.28,0.06,0.45,0.34,0.4,0.61l-0.78,3.68c0,0,0,0,0,0.01L136.38,86.06z M134.78,82.45
			c-0.33-0.07-0.67,0-0.96,0.2c-0.28,0.18-0.49,0.49-0.57,0.86c-0.08,0.35-0.01,0.72,0.18,1c0.18,0.29,0.46,0.5,0.79,0.57
			c0.34,0.07,0.67-0.01,0.96-0.2c0.28-0.18,0.49-0.49,0.57-0.84c0.08-0.37,0.01-0.74-0.17-1.02
			C135.39,82.72,135.13,82.52,134.78,82.45z"/>
	</g>
	<g>
		<path d="M118.24,85.4l-0.74-5.51c-0.04-0.27,0.16-0.55,0.45-0.59c0.29-0.04,0.55,0.18,0.59,0.45l0.36,2.71l2.64-3.47
			c0.18-0.24,0.5-0.28,0.73-0.1c0.22,0.17,0.27,0.5,0.1,0.74l-1.79,2.34l2.46,2.46c0.22,0.19,0.22,0.53,0.02,0.74
			c-0.08,0.1-0.19,0.15-0.31,0.17c-0.14,0.02-0.29-0.03-0.41-0.14l-2.39-2.39l-0.85,1.13l0.18,1.34c0.04,0.28-0.16,0.55-0.45,0.59
			C118.54,85.89,118.28,85.69,118.24,85.4z"/>
		<path d="M125.69,79.29c0.01,0.29-0.21,0.53-0.5,0.53c-0.29,0.01-0.52-0.23-0.52-0.51l0-0.2c-0.01-0.29,0.22-0.52,0.5-0.53
			c0.29-0.01,0.52,0.22,0.52,0.5L125.69,79.29z M125.73,81.01l0.08,3.71c0.01,0.29-0.21,0.52-0.5,0.52
			c-0.28,0.01-0.52-0.22-0.52-0.5l-0.08-3.71c-0.01-0.3,0.22-0.53,0.5-0.54C125.5,80.49,125.72,80.71,125.73,81.01z"/>
		<path d="M131.48,82.75l-0.18,2.26c-0.02,0.28-0.26,0.48-0.53,0.46c-0.26-0.02-0.48-0.27-0.46-0.54l0.18-2.26
			c0.04-0.53-0.37-0.99-0.91-1.03c-0.53-0.04-0.98,0.35-1.02,0.88l-0.18,2.26c0,0.03,0,0.06-0.03,0.09
			c-0.07,0.22-0.29,0.39-0.53,0.37c-0.28-0.02-0.48-0.27-0.46-0.54l0.18-2.26l0.12-1.47c0.02-0.27,0.26-0.48,0.54-0.46
			c0.2,0.02,0.37,0.14,0.44,0.33c0.3-0.16,0.66-0.24,1.03-0.21C130.75,80.71,131.56,81.69,131.48,82.75z"/>
		<path d="M137.02,86.15c-0.06,0.27-0.33,0.45-0.61,0.39c-0.25-0.06-0.41-0.28-0.4-0.51c-0.41,0.16-0.89,0.22-1.35,0.12
			c-1.25-0.28-2.02-1.56-1.74-2.81c0.28-1.27,1.52-2.11,2.78-1.83c0.46,0.1,0.87,0.35,1.16,0.67l0.39-1.75
			c0.06-0.27,0.33-0.45,0.62-0.39c0.28,0.06,0.45,0.34,0.39,0.61l-0.82,3.68c0,0,0,0,0,0.01L137.02,86.15z M135.46,82.52
			c-0.33-0.08-0.67,0-0.96,0.19c-0.28,0.18-0.5,0.48-0.58,0.85c-0.08,0.35-0.01,0.72,0.17,1c0.18,0.29,0.45,0.5,0.79,0.58
			c0.34,0.08,0.67,0,0.96-0.19c0.28-0.18,0.5-0.48,0.58-0.84c0.08-0.37,0.02-0.74-0.16-1.02C136.07,82.8,135.8,82.6,135.46,82.52z"
			/>
	</g>
</g>
<g id="Safe_Area" class="st0">
	<circle class="st9" cx="126" cy="126" r="54"/>
</g>
</svg>
