<?xml version="1.0" encoding="utf-8"?>
<!-- Generator: Adobe Illustrator 23.0.2, SVG Export Plug-In . SVG Version: 6.00 Build 0)  -->
<svg version="1.1" xmlns="http://www.w3.org/2000/svg" xmlns:xlink="http://www.w3.org/1999/xlink" x="0px" y="0px"
	 viewBox="0 0 252 252" style="enable-background:new 0 0 252 252;" xml:space="preserve">
<style type="text/css">
	.st0{display:none;}
	.st1{display:inline;fill:#FFFFFF;stroke:#252723;stroke-miterlimit:10;}
	.st2{fill:#FFFFFF;}
	.st3{fill:#EAD0CF;}
	.st4{fill:#C25B53;}
	.st5{fill:#684D32;}
	.st6{fill:#8E8277;}
	.st7{fill:#252723;}
	.st8{display:inline;fill:none;stroke:#252723;stroke-miterlimit:10;}
</style>
<g id="Bleed" class="st0">
	<circle class="st1" cx="126" cy="126" r="72"/>
</g>
<g id="Background">
</g>
<g id="Image">
	<circle class="st2" cx="126" cy="126" r="57.66"/>
	<circle class="st3" cx="126" cy="126" r="50.01"/>
	<circle class="st2" cx="126" cy="126" r="40.72"/>
	<circle class="st3" cx="126" cy="126" r="36"/>
	<g>
		<polygon class="st4" points="148.78,110.24 123.97,119.98 123.58,101.57 		"/>
		<rect x="122.44" y="101.54" class="st5" width="1.7" height="33.43"/>
		<path class="st6" d="M144.9,143.44c0,3.97-12.76,1.76-20.76,1.76c-8.01,0-20.76,1.81-20.76-2.16c0-3.97,13.15-10.45,21.16-10.45
			S144.9,139.48,144.9,143.44z"/>
	</g>
</g>
<g id="Text">
	<g>
		<path class="st2" d="M107.87,87.72l-2.06,1.05l0.15,1.31c0.02,0.23-0.1,0.43-0.29,0.52c-0.06,0.03-0.11,0.05-0.17,0.06
			c-0.29,0.03-0.55-0.18-0.59-0.47l-0.68-5.94c-0.02-0.22,0.11-0.44,0.3-0.52c0.19-0.11,0.43-0.08,0.6,0.07l4.42,4.03
			c0.21,0.2,0.23,0.53,0.03,0.75c-0.03,0.04-0.09,0.08-0.15,0.11c-0.19,0.1-0.42,0.08-0.58-0.08L107.87,87.72z M107.04,86.97
			l-1.62-1.47l0.24,2.17L107.04,86.97z"/>
		<path class="st2" d="M114.46,86.32c0.09,0.26-0.05,0.56-0.32,0.65c-0.24,0.08-0.49-0.02-0.61-0.22c-0.26,0.35-0.64,0.65-1.09,0.81
			c-1.21,0.42-2.54-0.27-2.96-1.49c-0.42-1.23,0.19-2.59,1.41-3.01c0.44-0.15,0.92-0.16,1.33-0.04l-0.58-1.69
			c-0.09-0.26,0.05-0.56,0.33-0.66c0.27-0.09,0.56,0.06,0.65,0.32l1.23,3.56c0,0,0,0,0,0.01L114.46,86.32z M111.23,84.04
			c-0.32,0.11-0.57,0.35-0.72,0.66c-0.15,0.3-0.17,0.67-0.05,1.03c0.12,0.34,0.36,0.62,0.67,0.77c0.31,0.16,0.65,0.19,0.97,0.08
			c0.33-0.12,0.57-0.35,0.72-0.66c0.15-0.3,0.17-0.67,0.05-1.01c-0.12-0.36-0.37-0.64-0.67-0.78
			C111.9,83.96,111.57,83.93,111.23,84.04z"/>
		<path class="st2" d="M119.25,81.73l-0.83,3.91c0,0.03-0.02,0.06-0.02,0.07c0,0.01-0.01,0.01-0.01,0.01
			c-0.02,0.02-0.03,0.05-0.04,0.08c0,0.01-0.01,0.01-0.01,0.01c-0.01,0.03-0.03,0.04-0.05,0.07c0,0-0.01,0-0.01,0.01
			c-0.01,0.02-0.03,0.04-0.06,0.06c0,0,0,0-0.02,0c0,0,0,0,0,0.01c-0.03,0.01-0.05,0.02-0.07,0.03c-0.01,0-0.01,0-0.02,0
			c-0.04,0.02-0.06,0.02-0.09,0.03c-0.02,0-0.05,0.01-0.09,0.01c-0.01,0-0.01,0-0.02,0c-0.03,0-0.05-0.01-0.08,0
			c0-0.01,0-0.01,0-0.01c-0.02,0-0.02,0-0.02,0c-0.03,0-0.05-0.02-0.09-0.03c0-0.01-0.01-0.01-0.01-0.01
			c-0.02-0.01-0.04-0.02-0.07-0.04c-0.01,0-0.01,0-0.02,0c-0.01-0.02-0.04-0.04-0.06-0.06c-0.01,0-0.01,0-0.01-0.01
			c-0.02,0-0.03-0.03-0.05-0.06l-2.21-3.33c-0.16-0.23-0.09-0.53,0.15-0.69c0.2-0.15,0.52-0.08,0.68,0.15l1.56,2.33l0.59-2.75
			c0.05-0.27,0.31-0.46,0.57-0.39C119.14,81.21,119.31,81.46,119.25,81.73z"/>
		<path class="st2" d="M120.8,83.12c-0.07-1.29,0.86-2.44,2.16-2.52c1.23-0.08,2.27,0.78,2.43,2.05c0,0.01,0,0.03,0,0.05
			c0,0.02,0,0.07,0,0.09c-0.01,0.23-0.2,0.39-0.47,0.41l-3.01,0.19c0.06,0.21,0.18,0.46,0.36,0.61c0.21,0.21,0.6,0.36,0.94,0.37
			c0.34,0.01,0.75-0.11,0.97-0.3c0.19-0.22,0.58-0.22,0.71-0.07c0.13,0.12,0.24,0.4,0.04,0.62c-0.44,0.46-0.98,0.69-1.66,0.74
			C121.97,85.42,120.89,84.41,120.8,83.12z M121.81,82.59l2.68-0.17c-0.12-0.37-0.64-0.9-1.47-0.91
			C122.22,81.59,121.86,82.19,121.81,82.59z"/>
		<path class="st2" d="M131.01,82.74L130.84,85c-0.02,0.28-0.25,0.49-0.53,0.47c-0.26-0.02-0.49-0.26-0.46-0.54l0.17-2.27
			c0.04-0.53-0.38-0.99-0.92-1.03c-0.53-0.04-0.98,0.36-1.02,0.89l-0.17,2.27c0,0.03,0,0.06-0.03,0.09
			c-0.06,0.22-0.29,0.39-0.53,0.37c-0.29-0.02-0.49-0.26-0.47-0.54l0.17-2.27l0.11-1.47c0.02-0.28,0.25-0.49,0.54-0.47
			c0.2,0.01,0.37,0.14,0.44,0.33c0.3-0.16,0.66-0.25,1.03-0.22C130.27,80.7,131.09,81.66,131.01,82.74z"/>
		<path class="st2" d="M135.37,82.02c-0.05,0.28-0.34,0.47-0.62,0.41l-0.23-0.04l-0.49,2.6c0.29,0.06,0.47,0.33,0.41,0.62
			s-0.32,0.47-0.61,0.42c-0.57-0.11-0.95-0.66-0.84-1.23l0.49-2.6l-0.27-0.05c-0.29-0.05-0.47-0.33-0.42-0.61
			c0.05-0.29,0.32-0.47,0.61-0.42l0.27,0.05l0.26-1.35c0.05-0.29,0.33-0.47,0.62-0.42c0.29,0.05,0.47,0.32,0.42,0.61l-0.26,1.35
			l0.23,0.04C135.22,81.46,135.42,81.73,135.37,82.02z"/>
		<path class="st2" d="M137.82,87.03c-1.04-0.32-1.63-1.44-1.31-2.47l0.67-2.17c0.08-0.25,0.37-0.41,0.63-0.33
			c0.27,0.08,0.41,0.38,0.33,0.63l-0.67,2.17c-0.16,0.52,0.12,1.05,0.64,1.21c0.53,0.16,1.07-0.12,1.24-0.63l0.67-2.17
			c0.08-0.25,0.35-0.42,0.62-0.33c0.25,0.08,0.42,0.38,0.34,0.63l-0.67,2.17C140,86.77,138.86,87.36,137.82,87.03z"/>
		<path class="st2" d="M145.75,85.57c-0.11,0.24-0.4,0.37-0.66,0.26c-0.2-0.09-0.4-0.11-0.59-0.07c-0.21,0.03-0.41,0.12-0.58,0.24
			c-0.33,0.19-0.58,0.47-0.68,0.57l-0.73,1.65c-0.11,0.25-0.42,0.36-0.68,0.25c-0.25-0.11-0.37-0.41-0.26-0.67l1.52-3.42
			c0.11-0.25,0.41-0.36,0.66-0.25c0.26,0.12,0.39,0.41,0.28,0.66l-0.03,0.06c0.08-0.04,0.18-0.08,0.26-0.09
			c0.37-0.06,0.81-0.05,1.24,0.15C145.75,85.03,145.86,85.32,145.75,85.57z"/>
		<path class="st2" d="M145.5,87.5c0.65-1.12,2.07-1.55,3.2-0.9c1.07,0.62,1.46,1.91,0.88,3.06c0,0.01-0.01,0.02-0.02,0.04
			c-0.01,0.02-0.03,0.06-0.05,0.07c-0.14,0.18-0.39,0.22-0.62,0.08l-2.62-1.51c-0.07,0.21-0.1,0.48-0.03,0.71
			c0.06,0.3,0.3,0.64,0.58,0.83c0.28,0.2,0.68,0.33,0.97,0.29c0.28-0.08,0.6,0.14,0.63,0.33c0.04,0.18-0.02,0.47-0.31,0.54
			c-0.62,0.14-1.2,0.03-1.79-0.31C145.19,90.06,144.86,88.62,145.5,87.5z M146.62,87.61l2.33,1.35c0.11-0.38-0.03-1.11-0.72-1.58
			C147.52,87.01,146.89,87.31,146.62,87.61z"/>
		<path class="st2" d="M154.07,90.85c-0.16,0.21-0.48,0.27-0.71,0.11c-0.18-0.13-0.36-0.2-0.56-0.19c-0.21-0.02-0.42,0.03-0.62,0.11
			c-0.36,0.11-0.67,0.33-0.79,0.41l-1.07,1.45c-0.16,0.22-0.49,0.26-0.72,0.09c-0.22-0.16-0.27-0.48-0.1-0.7l2.22-3.01
			c0.16-0.22,0.48-0.26,0.7-0.1c0.23,0.17,0.29,0.49,0.13,0.71l-0.04,0.05c0.09-0.02,0.19-0.04,0.27-0.04
			c0.38,0.02,0.81,0.12,1.18,0.41C154.19,90.32,154.23,90.63,154.07,90.85z"/>
	</g>
	<g>
		<path class="st7" d="M108.42,87.5l-2.07,1.03l0.13,1.31c0.02,0.22-0.11,0.43-0.29,0.52c-0.06,0.03-0.11,0.05-0.17,0.06
			c-0.29,0.03-0.55-0.19-0.58-0.47l-0.61-5.95c-0.02-0.23,0.11-0.44,0.3-0.52c0.19-0.11,0.43-0.08,0.6,0.07l4.37,4.08
			c0.21,0.21,0.22,0.54,0.02,0.75c-0.03,0.04-0.09,0.08-0.15,0.11c-0.19,0.09-0.42,0.07-0.58-0.08L108.42,87.5z M107.6,86.73
			l-1.6-1.49l0.22,2.17L107.6,86.73z"/>
		<path class="st7" d="M115.03,86.17c0.09,0.26-0.05,0.56-0.33,0.65c-0.24,0.08-0.49-0.03-0.61-0.23c-0.27,0.35-0.65,0.65-1.1,0.79
			c-1.22,0.4-2.53-0.3-2.94-1.52c-0.41-1.24,0.23-2.59,1.44-2.99c0.44-0.15,0.92-0.15,1.34-0.02l-0.56-1.7
			c-0.09-0.26,0.06-0.56,0.34-0.65c0.27-0.09,0.56,0.07,0.65,0.33l1.18,3.58c0,0,0,0,0,0.01L115.03,86.17z M111.83,83.85
			c-0.32,0.11-0.58,0.34-0.73,0.65c-0.15,0.3-0.18,0.67-0.06,1.03c0.11,0.34,0.36,0.62,0.66,0.77c0.3,0.16,0.65,0.2,0.97,0.09
			c0.33-0.11,0.58-0.34,0.73-0.65c0.15-0.3,0.18-0.67,0.07-1.01c-0.12-0.36-0.36-0.64-0.66-0.79
			C112.49,83.78,112.16,83.74,111.83,83.85z"/>
		<path class="st7" d="M119.86,81.64l-0.87,3.9c0,0.03-0.02,0.06-0.03,0.07c0,0.01-0.01,0.01-0.01,0.01
			c-0.02,0.02-0.03,0.05-0.04,0.08c0,0.01-0.01,0.01-0.01,0.01c-0.01,0.03-0.03,0.04-0.05,0.07c0,0-0.01,0-0.01,0.01
			c-0.02,0.02-0.03,0.04-0.06,0.06c0,0,0,0-0.02,0c0,0,0,0,0,0.01c-0.03,0.01-0.05,0.02-0.07,0.03c-0.01,0-0.01,0-0.02,0
			c-0.04,0.02-0.06,0.02-0.09,0.03c-0.02,0-0.05,0.01-0.09,0.01c-0.01,0-0.01,0-0.02,0c-0.03,0-0.05-0.01-0.08,0
			c0-0.01,0-0.01,0-0.01c-0.02,0-0.02,0-0.02,0c-0.03,0-0.05-0.02-0.09-0.03c0-0.01-0.01-0.01-0.01-0.01
			c-0.02-0.02-0.04-0.02-0.07-0.05c-0.01,0-0.01,0-0.02-0.01c-0.01-0.02-0.04-0.04-0.06-0.06c-0.01,0-0.01,0-0.01-0.01
			c-0.02-0.01-0.04-0.03-0.05-0.06l-2.17-3.35c-0.16-0.23-0.09-0.53,0.15-0.69c0.2-0.15,0.52-0.07,0.67,0.16l1.54,2.35l0.62-2.74
			c0.06-0.27,0.31-0.45,0.58-0.38C119.75,81.12,119.92,81.36,119.86,81.64z"/>
		<path class="st7" d="M121.4,83.05c-0.06-1.29,0.89-2.42,2.19-2.49c1.23-0.07,2.26,0.8,2.4,2.08c0,0.01,0,0.03,0,0.05
			c0,0.02,0,0.07-0.01,0.09c-0.02,0.23-0.21,0.39-0.47,0.4l-3.02,0.16c0.06,0.21,0.18,0.46,0.36,0.61c0.21,0.22,0.6,0.37,0.93,0.38
			c0.34,0.01,0.75-0.1,0.97-0.29c0.19-0.22,0.58-0.21,0.71-0.07c0.13,0.13,0.24,0.41,0.03,0.62c-0.44,0.45-0.99,0.68-1.67,0.71
			C122.54,85.36,121.48,84.34,121.4,83.05z M122.41,82.53l2.68-0.14c-0.11-0.38-0.63-0.91-1.46-0.93
			C122.84,81.54,122.47,82.14,122.41,82.53z"/>
		<path class="st7" d="M131.62,82.79l-0.19,2.26c-0.02,0.27-0.26,0.48-0.54,0.46c-0.26-0.02-0.48-0.27-0.46-0.54l0.19-2.26
			c0.04-0.53-0.36-1-0.91-1.04c-0.53-0.05-0.98,0.35-1.03,0.88l-0.19,2.26c0,0.03,0,0.06-0.03,0.09c-0.07,0.22-0.29,0.39-0.54,0.37
			c-0.28-0.02-0.48-0.27-0.46-0.54l0.19-2.26l0.12-1.47c0.02-0.28,0.26-0.48,0.54-0.46c0.2,0.02,0.37,0.15,0.44,0.33
			c0.3-0.15,0.66-0.24,1.03-0.21C130.9,80.74,131.71,81.72,131.62,82.79z"/>
		<path class="st7" d="M135.98,82.13c-0.06,0.28-0.35,0.46-0.62,0.41l-0.23-0.05l-0.52,2.6c0.29,0.06,0.46,0.34,0.41,0.62
			c-0.06,0.29-0.33,0.47-0.62,0.41c-0.57-0.11-0.94-0.67-0.82-1.24l0.52-2.6l-0.27-0.05c-0.29-0.06-0.47-0.34-0.41-0.62
			c0.06-0.29,0.33-0.47,0.62-0.41l0.27,0.06l0.27-1.35c0.06-0.29,0.34-0.47,0.62-0.41c0.29,0.06,0.47,0.33,0.41,0.62l-0.27,1.35
			l0.23,0.05C135.84,81.57,136.04,81.84,135.98,82.13z"/>
		<path class="st7" d="M138.37,87.17c-1.03-0.33-1.61-1.46-1.28-2.49l0.7-2.16c0.08-0.25,0.37-0.41,0.63-0.33
			c0.27,0.09,0.41,0.38,0.33,0.63l-0.7,2.16c-0.17,0.52,0.11,1.05,0.63,1.22c0.53,0.17,1.07-0.1,1.25-0.62l0.7-2.16
			c0.08-0.25,0.35-0.42,0.62-0.33c0.25,0.08,0.42,0.38,0.33,0.64l-0.7,2.16C140.56,86.93,139.41,87.5,138.37,87.17z"/>
		<path class="st7" d="M146.32,85.8c-0.11,0.24-0.41,0.37-0.67,0.25c-0.2-0.09-0.4-0.12-0.59-0.07c-0.21,0.03-0.41,0.12-0.59,0.23
			c-0.33,0.18-0.59,0.46-0.69,0.56l-0.75,1.64c-0.12,0.25-0.43,0.36-0.68,0.24c-0.25-0.12-0.36-0.42-0.25-0.67l1.56-3.41
			c0.12-0.25,0.41-0.35,0.66-0.24c0.26,0.12,0.38,0.42,0.27,0.67l-0.03,0.06c0.08-0.04,0.18-0.07,0.26-0.09
			c0.37-0.06,0.81-0.04,1.24,0.16C146.33,85.26,146.44,85.55,146.32,85.8z"/>
		<path class="st7" d="M146.04,87.73c0.67-1.11,2.09-1.52,3.21-0.86c1.06,0.63,1.43,1.92,0.85,3.07c0,0.01-0.01,0.02-0.02,0.04
			c-0.01,0.02-0.03,0.06-0.05,0.07c-0.14,0.18-0.39,0.21-0.62,0.08l-2.6-1.54c-0.07,0.21-0.11,0.48-0.04,0.71
			c0.05,0.3,0.29,0.64,0.57,0.83c0.28,0.2,0.67,0.33,0.97,0.3c0.28-0.08,0.6,0.15,0.63,0.34c0.04,0.18-0.02,0.47-0.31,0.53
			c-0.62,0.13-1.2,0.02-1.78-0.33C145.71,90.28,145.39,88.84,146.04,87.73z M147.17,87.85l2.31,1.37c0.11-0.37-0.02-1.1-0.7-1.58
			C148.08,87.26,147.44,87.56,147.17,87.85z"/>
		<path class="st7" d="M154.58,91.18c-0.16,0.21-0.48,0.27-0.71,0.1c-0.17-0.13-0.36-0.2-0.56-0.2c-0.21-0.02-0.42,0.02-0.62,0.1
			c-0.37,0.1-0.67,0.32-0.79,0.4l-1.09,1.44c-0.17,0.22-0.49,0.26-0.72,0.08c-0.22-0.17-0.26-0.49-0.1-0.7l2.26-2.98
			c0.17-0.22,0.48-0.26,0.7-0.09c0.23,0.17,0.28,0.49,0.12,0.71l-0.04,0.05c0.09-0.02,0.19-0.03,0.27-0.03
			c0.38,0.02,0.8,0.13,1.18,0.43C154.7,90.65,154.74,90.96,154.58,91.18z"/>
	</g>
</g>
<g id="Safe_Area" class="st0">
	<circle class="st8" cx="126" cy="126" r="54"/>
</g>
</svg>
