<?xml version="1.0" encoding="utf-8"?>
<!-- Generator: Adobe Illustrator 23.0.2, SVG Export Plug-In . SVG Version: 6.00 Build 0)  -->
<svg version="1.1" xmlns="http://www.w3.org/2000/svg" xmlns:xlink="http://www.w3.org/1999/xlink" x="0px" y="0px"
	 viewBox="0 0 252 252" style="enable-background:new 0 0 252 252;" xml:space="preserve">
<style type="text/css">
	.st0{display:none;}
	.st1{display:inline;fill:#FFFFFF;stroke:#252723;stroke-miterlimit:10;}
	.st2{fill:#FFFFFF;}
	.st3{fill:#FFE2CE;}
	.st4{clip-path:url(#SVGID_2_);fill:#212020;}
	.st5{clip-path:url(#SVGID_2_);fill:#FFFFFF;}
	.st6{fill:#212020;}
	.st7{clip-path:url(#SVGID_4_);fill:#212020;}
	.st8{display:inline;fill:none;stroke:#252723;stroke-miterlimit:10;}
</style>
<g id="Bleed" class="st0">
	<circle class="st1" cx="126" cy="126" r="72"/>
</g>
<g id="Background">
</g>
<g id="Image">
	<circle class="st2" cx="126" cy="126" r="57.66"/>
	<circle class="st3" cx="126" cy="126" r="50.01"/>
	<circle class="st2" cx="126" cy="126" r="45.64"/>
	<circle class="st3" cx="126" cy="126" r="40.51"/>
	<circle class="st2" cx="129.95" cy="126.92" r="40.6"/>
	<circle class="st3" cx="129.98" cy="124.45" r="38.23"/>
	<circle class="st3" cx="131.74" cy="128.05" r="40.51"/>
	<circle class="st2" cx="128.32" cy="125.87" r="40.6"/>
	<circle class="st3" cx="127.47" cy="128.19" r="38.23"/>
	<circle class="st2" cx="127.47" cy="128.62" r="37.12"/>
	<circle class="st3" cx="125.97" cy="126.93" r="34.95"/>
	<g>
		<g>
			<defs>
				<rect id="SVGID_1_" x="100" y="106.76" width="48.98" height="37.24"/>
			</defs>
			<clipPath id="SVGID_2_">
				<use xlink:href="#SVGID_1_"  style="overflow:visible;"/>
			</clipPath>
			<path class="st4" d="M124.86,135.89l1.42,2.63c-1.08,0.8-2.27,1.49-3.54,2.06c-8.83,3.91-18.72,0.15-22.09-8.39
				c-0.27-0.67-0.48-1.35-0.65-2.04c3.68,7.92,13.19,11.28,21.71,7.52C122.83,137.18,123.89,136.58,124.86,135.89"/>
			<path class="st4" d="M148.9,112.81c-0.54,1.88-3.85,2.47-7.4,1.33c-3.54-1.14-5.98-3.59-5.44-5.47c0.54-1.88,3.85-2.48,7.4-1.33
				C147.01,108.48,149.44,110.93,148.9,112.81"/>
			<path class="st4" d="M128.17,109.65c0.87,0.92-0.39,3.73-2.81,6.29c-2.42,2.56-5.08,3.89-5.94,2.98
				c-0.86-0.92,0.39-3.73,2.81-6.29C124.64,110.06,127.31,108.73,128.17,109.65"/>
			<path class="st4" d="M146.49,119.55c0,5.75-4.14,10.42-9.24,10.42c-5.1,0-9.24-4.66-9.24-10.42s4.14-10.42,9.24-10.42
				C142.35,109.13,146.49,113.8,146.49,119.55"/>
			<path class="st5" d="M144.82,119.54c0,5.18-4.18,9.39-9.35,9.39c-5.16,0-9.35-4.2-9.35-9.39c0-5.18,4.19-9.39,9.35-9.39
				C140.63,110.15,144.82,114.35,144.82,119.54"/>
			<path class="st4" d="M130.43,112.93c2,0.37,3.34,2.39,2.99,4.5c-0.35,2.12-2.25,3.54-4.26,3.17c-2-0.37-3.34-2.39-2.99-4.5
				C126.52,113.98,128.43,112.56,130.43,112.93"/>
			<path class="st5" d="M131.47,114.31c0.98,0.18,1.63,1.17,1.46,2.21c-0.17,1.04-1.1,1.73-2.08,1.55c-0.98-0.18-1.63-1.17-1.46-2.2
				C129.56,114.82,130.49,114.13,131.47,114.31"/>
			<path class="st4" d="M142.99,111.55c2,0.37,3.34,2.39,2.99,4.5c-0.35,2.12-2.25,3.54-4.25,3.17c-2-0.37-3.34-2.39-2.99-4.5
				C139.08,112.6,140.99,111.18,142.99,111.55"/>
			<path class="st5" d="M144.03,112.93c0.98,0.18,1.63,1.17,1.46,2.21c-0.17,1.04-1.1,1.73-2.08,1.55c-0.98-0.18-1.63-1.17-1.46-2.2
				C142.12,113.44,143.05,112.74,144.03,112.93"/>
			<path class="st4" d="M142.36,124.54c0,1.25-2.1,2.26-4.7,2.26c-2.59,0-4.7-1.01-4.7-2.26s2.1-2.26,4.7-2.26
				C140.25,122.28,142.36,123.3,142.36,124.54"/>
		</g>
		<polygon class="st6" points="110.39,143.7 139.68,143.92 126.12,119.54 		"/>
		<g>
			<defs>
				<rect id="SVGID_3_" x="100" y="106.76" width="48.98" height="37.24"/>
			</defs>
			<clipPath id="SVGID_4_">
				<use xlink:href="#SVGID_3_"  style="overflow:visible;"/>
			</clipPath>
			<path class="st7" d="M145.52,141.73c0,1.25-2.15,2.27-4.81,2.27c-2.66,0-4.81-1.02-4.81-2.27c0-1.25,2.15-2.27,4.81-2.27
				C143.37,139.46,145.52,140.48,145.52,141.73"/>
		</g>
	</g>
</g>
<g id="Text">
</g>
<g id="Safe_Area" class="st0">
	<circle class="st8" cx="126" cy="126" r="54"/>
</g>
</svg>
