<?xml version="1.0" encoding="utf-8"?>
<!-- Generator: Adobe Illustrator 23.0.2, SVG Export Plug-In . SVG Version: 6.00 Build 0)  -->
<svg version="1.1" xmlns="http://www.w3.org/2000/svg" xmlns:xlink="http://www.w3.org/1999/xlink" x="0px" y="0px"
	 viewBox="0 0 252 252" style="enable-background:new 0 0 252 252;" xml:space="preserve">
<style type="text/css">
	.st0{display:none;}
	.st1{display:inline;fill:#FFFFFF;stroke:#252723;stroke-miterlimit:10;}
	.st2{fill:#FFFFFF;}
	.st3{fill:#D0D7D8;}
	.st4{display:inline;fill:none;stroke:#252723;stroke-miterlimit:10;}
</style>
<g id="Bleed" class="st0">
	<circle class="st1" cx="126" cy="126" r="72"/>
</g>
<g id="Background">
</g>
<g id="Image">
	<circle class="st2" cx="126" cy="126" r="57.66"/>
	<circle class="st3" cx="126" cy="126" r="50.01"/>
	<circle class="st2" cx="126" cy="126" r="40.72"/>
	<circle class="st3" cx="126" cy="126" r="36"/>
	<g>
		
			<rect x="125.18" y="118.92" transform="matrix(1 4.360472e-03 -4.360472e-03 1 0.598 -0.5474)" class="st2" width="1.33" height="35.89"/>
		
			<ellipse transform="matrix(0.9351 -0.3544 0.3544 0.9351 -31.0793 51.1515)" class="st2" cx="124.1" cy="110.42" rx="0.41" ry="4.48"/>
		
			<ellipse transform="matrix(0.9471 -0.3209 0.3209 0.9471 -28.7982 45.7781)" class="st2" cx="124.5" cy="110.27" rx="0.41" ry="4.48"/>
		
			<ellipse transform="matrix(0.9667 -0.2558 0.2558 0.9667 -24.0102 35.6436)" class="st2" cx="124.99" cy="110.11" rx="0.41" ry="4.48"/>
		
			<ellipse transform="matrix(0.9838 -0.1795 0.1795 0.9838 -17.7541 24.3295)" class="st2" cx="125.59" cy="110.29" rx="0.41" ry="4.48"/>
		
			<ellipse transform="matrix(0.392 -0.92 0.92 0.392 -23.4975 185.5545)" class="st2" cx="128.63" cy="110.55" rx="4.48" ry="0.41"/>
		
			<ellipse transform="matrix(0.4245 -0.9054 0.9054 0.4245 -25.9994 180.5375)" class="st2" cx="129.02" cy="110.72" rx="4.48" ry="0.41"/>
		
			<ellipse transform="matrix(0.485 -0.8745 0.8745 0.485 -30.3306 170.3774)" class="st2" cx="129.49" cy="110.94" rx="4.48" ry="0.41"/>
		
			<ellipse transform="matrix(0.5519 -0.8339 0.8339 0.5519 -34.8062 158.1937)" class="st2" cx="129.79" cy="111.48" rx="4.48" ry="0.41"/>
		
			<ellipse transform="matrix(0.7198 -0.6942 0.6942 0.7198 -42.7595 116.0962)" class="st2" cx="122.44" cy="111.02" rx="0.41" ry="4.48"/>
		
			<ellipse transform="matrix(0.7441 -0.6681 0.6681 0.7441 -42.5582 110.3345)" class="st2" cx="122.75" cy="110.72" rx="0.41" ry="4.48"/>
		
			<ellipse transform="matrix(0.7877 -0.616 0.616 0.7877 -41.8579 99.2816)" class="st2" cx="123.13" cy="110.38" rx="0.41" ry="4.48"/>
		
			<ellipse transform="matrix(0.8335 -0.5525 0.5525 0.8335 -40.345 86.7443)" class="st2" cx="123.75" cy="110.31" rx="0.41" ry="4.48"/>
		
			<ellipse transform="matrix(0.9273 -0.3744 0.3744 0.9273 -34.9901 53.7163)" class="st2" cx="120.77" cy="116.92" rx="4.48" ry="0.41"/>
		
			<ellipse transform="matrix(0.94 -0.3411 0.3411 0.94 -32.5124 48.126)" class="st2" cx="120.61" cy="116.53" rx="4.48" ry="0.41"/>
		
			<ellipse transform="matrix(0.961 -0.2765 0.2765 0.961 -27.3913 37.8261)" class="st2" cx="120.43" cy="116.04" rx="4.48" ry="0.41"/>
		
			<ellipse transform="matrix(0.9797 -0.2005 0.2005 0.9797 -20.6988 26.5276)" class="st2" cx="120.6" cy="115.44" rx="4.48" ry="0.41"/>
		
			<ellipse transform="matrix(0.1055 -0.9944 0.9944 0.1055 -7.3637 233.1069)" class="st2" cx="125.88" cy="120.65" rx="4.48" ry="0.41"/>
		
			<ellipse transform="matrix(0.1408 -0.99 0.99 0.1408 -11.6087 227.8256)" class="st2" cx="125.46" cy="120.6" rx="4.48" ry="0.41"/>
		
			<ellipse transform="matrix(0.2077 -0.9782 0.9782 0.2077 -18.9014 217.7218)" class="st2" cx="124.95" cy="120.53" rx="4.48" ry="0.41"/>
		
			<ellipse transform="matrix(0.2835 -0.959 0.959 0.2835 -25.9698 205.4364)" class="st2" cx="124.5" cy="120.1" rx="4.48" ry="0.41"/>
		
			<ellipse transform="matrix(0.0766 -0.9971 0.9971 0.0766 7.1691 238.5678)" class="st2" cx="132.39" cy="115.41" rx="0.41" ry="4.48"/>
		
			<ellipse transform="matrix(0.9884 -0.1517 0.1517 0.9884 -15.9924 21.4189)" class="st2" cx="132.37" cy="115.51" rx="4.48" ry="0.41"/>
		
			<ellipse transform="matrix(0.0547 -0.9985 0.9985 0.0547 9.7343 230.5384)" class="st2" cx="126.62" cy="110.13" rx="4.48" ry="0.41"/>
		
			<ellipse transform="matrix(0.9989 -0.0463 0.0463 0.9989 -4.9603 5.9613)" class="st2" cx="126.09" cy="109.96" rx="0.41" ry="4.48"/>
		
			<ellipse transform="matrix(0.0902 -0.9959 0.9959 0.0902 5.8823 226.7427)" class="st2" cx="127.05" cy="110.15" rx="4.48" ry="0.41"/>
		
			<ellipse transform="matrix(0.1576 -0.9875 0.9875 0.1576 -1.3639 218.7976)" class="st2" cx="127.56" cy="110.2" rx="4.48" ry="0.41"/>
		
			<ellipse transform="matrix(0.2343 -0.9722 0.9722 0.2343 -9.4974 209.1522)" class="st2" cx="128.03" cy="110.61" rx="4.48" ry="0.41"/>
		
			<ellipse transform="matrix(0.6716 -0.7409 0.7409 0.6716 -39.8744 133.0804)" class="st2" cx="130.19" cy="111.52" rx="4.48" ry="0.41"/>
		
			<ellipse transform="matrix(0.6976 -0.7165 0.7165 0.6976 -40.6449 127.3191)" class="st2" cx="130.51" cy="111.81" rx="4.48" ry="0.41"/>
		
			<ellipse transform="matrix(0.7446 -0.6675 0.6675 0.7446 -41.4482 116.0074)" class="st2" cx="130.88" cy="112.17" rx="4.48" ry="0.41"/>
		
			<ellipse transform="matrix(0.7945 -0.6072 0.6072 0.7945 -41.5702 102.7117)" class="st2" cx="130.99" cy="112.78" rx="4.48" ry="0.41"/>
		
			<ellipse transform="matrix(0.9141 -0.4054 0.4054 0.9141 -34.7669 63.1085)" class="st2" cx="131.6" cy="113.63" rx="4.48" ry="0.41"/>
		
			<ellipse transform="matrix(0.8686 -0.4956 0.4956 0.8686 -38.757 80.0298)" class="st2" cx="131.5" cy="113.08" rx="4.48" ry="0.41"/>
		
			<ellipse transform="matrix(0.928 -0.3726 0.3726 0.928 -32.9937 57.3035)" class="st2" cx="131.77" cy="114.02" rx="4.48" ry="0.41"/>
		
			<ellipse transform="matrix(0.9511 -0.3087 0.3087 0.9511 -28.9035 46.3365)" class="st2" cx="131.96" cy="114.5" rx="4.48" ry="0.41"/>
		
			<ellipse transform="matrix(0.9724 -0.2334 0.2334 0.9724 -23.2258 33.9477)" class="st2" cx="131.81" cy="115.1" rx="4.48" ry="0.41"/>
		
			<ellipse transform="matrix(0.7965 -0.6047 0.6047 0.7965 -45.8176 103.0487)" class="st2" cx="130.17" cy="119.59" rx="0.41" ry="4.48"/>
		
			<ellipse transform="matrix(0.8175 -0.5759 0.5759 0.8175 -45.3276 96.6371)" class="st2" cx="129.83" cy="119.84" rx="0.41" ry="4.48"/>
		
			<ellipse transform="matrix(0.8547 -0.5191 0.5191 0.8547 -43.5641 84.6299)" class="st2" cx="129.41" cy="120.14" rx="0.41" ry="4.48"/>
		
			<ellipse transform="matrix(0.8927 -0.4507 0.4507 0.8927 -40.3215 70.9316)" class="st2" cx="128.79" cy="120.14" rx="0.41" ry="4.48"/>
		
			<ellipse transform="matrix(0.9731 -0.2303 0.2303 0.9731 -24.3331 32.6828)" class="st2" cx="127.84" cy="120.58" rx="0.41" ry="4.48"/>
		
			<ellipse transform="matrix(0.9449 -0.3273 0.3273 0.9449 -32.3956 48.6621)" class="st2" cx="128.39" cy="120.59" rx="0.41" ry="4.48"/>
		
			<ellipse transform="matrix(0.9807 -0.1955 0.1955 0.9807 -21.1307 27.2349)" class="st2" cx="127.42" cy="120.68" rx="0.41" ry="4.48"/>
		
			<ellipse transform="matrix(0.9917 -0.1285 0.1285 0.9917 -14.4647 17.306)" class="st2" cx="126.92" cy="120.78" rx="0.41" ry="4.48"/>
		
			<ellipse transform="matrix(0.9987 -0.0505 0.0505 0.9987 -5.928 6.5379)" class="st2" cx="126.35" cy="120.52" rx="0.41" ry="4.48"/>
		
			<ellipse transform="matrix(0.0968 -0.9953 0.9953 0.0968 4.1339 236.1396)" class="st2" cx="132.18" cy="115.79" rx="0.41" ry="4.48"/>
		
			<ellipse transform="matrix(0.1323 -0.9912 0.9912 0.1323 -0.5328 231.8276)" class="st2" cx="132.14" cy="116.22" rx="0.41" ry="4.48"/>
		
			<ellipse transform="matrix(0.1992 -0.98 0.98 0.1992 -8.6262 222.9004)" class="st2" cx="132.07" cy="116.73" rx="0.41" ry="4.48"/>
		
			<ellipse transform="matrix(0.2752 -0.9614 0.9614 0.2752 -17.2421 211.4905)" class="st2" cx="131.65" cy="117.18" rx="0.41" ry="4.48"/>
		
			<ellipse transform="matrix(0.4916 -0.8708 0.8708 0.4916 -36.1439 174.4408)" class="st2" cx="131.33" cy="118.18" rx="0.41" ry="4.48"/>
		
			<ellipse transform="matrix(0.4013 -0.916 0.916 0.4013 -29.0204 191.1569)" class="st2" cx="131.71" cy="117.78" rx="0.41" ry="4.48"/>
		
			<ellipse transform="matrix(0.5224 -0.8527 0.8527 0.5224 -38.4615 168.4341)" class="st2" cx="131.12" cy="118.55" rx="0.41" ry="4.48"/>
		
			<ellipse transform="matrix(0.579 -0.8153 0.8153 0.579 -41.9266 156.7776)" class="st2" cx="130.85" cy="118.99" rx="0.41" ry="4.48"/>
		
			<ellipse transform="matrix(0.641 -0.7675 0.7675 0.641 -44.7433 142.7973)" class="st2" cx="130.28" cy="119.23" rx="0.41" ry="4.48"/>
		
			<ellipse transform="matrix(0.041 -0.9992 0.9992 0.041 0.6615 231.0746)" class="st2" cx="120.71" cy="115.19" rx="0.41" ry="4.48"/>
		
			<ellipse transform="matrix(0.0766 -0.9971 0.9971 0.0766 -2.95 226.3443)" class="st2" cx="120.73" cy="114.76" rx="0.41" ry="4.48"/>
		
			<ellipse transform="matrix(0.1441 -0.9896 0.9896 0.1441 -9.6946 217.2946)" class="st2" cx="120.77" cy="114.25" rx="0.41" ry="4.48"/>
		
			<ellipse transform="matrix(0.2211 -0.9753 0.9753 0.2211 -16.5769 206.7974)" class="st2" cx="121.17" cy="113.78" rx="0.41" ry="4.48"/>
		
			<ellipse transform="matrix(0.4422 -0.8969 0.8969 0.4422 -33.4061 171.8143)" class="st2" cx="121.43" cy="112.76" rx="0.41" ry="4.48"/>
		
			<ellipse transform="matrix(0.3495 -0.937 0.937 0.3495 -27.2864 187.0695)" class="st2" cx="121.07" cy="113.18" rx="0.41" ry="4.48"/>
		
			<ellipse transform="matrix(0.4739 -0.8806 0.8806 0.4739 -34.9748 166.2224)" class="st2" cx="121.62" cy="112.38" rx="0.41" ry="4.48"/>
		
			<ellipse transform="matrix(0.5325 -0.8464 0.8464 0.5325 -37.7697 155.4672)" class="st2" cx="121.86" cy="111.93" rx="0.41" ry="4.48"/>
		
			<ellipse transform="matrix(0.5971 -0.8022 0.8022 0.5971 -40.2418 143.1895)" class="st2" cx="122.42" cy="111.65" rx="0.41" ry="4.48"/>
		
			<ellipse transform="matrix(0.4344 -0.9007 0.9007 0.4344 -38.1673 179.7302)" class="st2" cx="124.02" cy="120.25" rx="4.48" ry="0.41"/>
		
			<ellipse transform="matrix(0.4662 -0.8847 0.8847 0.4662 -40.2256 173.471)" class="st2" cx="123.63" cy="120.07" rx="4.48" ry="0.41"/>
		
			<ellipse transform="matrix(0.5251 -0.851 0.851 0.5251 -43.4836 161.7277)" class="st2" cx="123.18" cy="119.83" rx="4.48" ry="0.41"/>
		
			<ellipse transform="matrix(0.5901 -0.8073 0.8073 0.5901 -45.914 148.1146)" class="st2" cx="122.9" cy="119.27" rx="4.48" ry="0.41"/>
		
			<ellipse transform="matrix(0.7619 -0.6477 0.6477 0.7619 -47.7711 107.3048)" class="st2" cx="122.07" cy="118.63" rx="4.48" ry="0.41"/>
		
			<ellipse transform="matrix(0.6927 -0.7212 0.7212 0.6927 -48.3298 124.823)" class="st2" cx="122.32" cy="119.13" rx="4.48" ry="0.41"/>
		
			<ellipse transform="matrix(0.7845 -0.6201 0.6201 0.7845 -47.1169 101.0157)" class="st2" cx="121.8" cy="118.31" rx="4.48" ry="0.41"/>
		
			<ellipse transform="matrix(0.8248 -0.5654 0.5654 0.8248 -45.3819 89.3426)" class="st2" cx="121.48" cy="117.9" rx="4.48" ry="0.41"/>
		
			<ellipse transform="matrix(0.8665 -0.4992 0.4992 0.8665 -42.3312 76.2848)" class="st2" cx="121.45" cy="117.28" rx="4.48" ry="0.41"/>
	</g>
	<g>
		
			<ellipse transform="matrix(0.2291 -0.9734 0.9734 0.2291 -36.4738 213.6429)" class="st2" cx="116.65" cy="129.85" rx="2.71" ry="0.24"/>
		
			<ellipse transform="matrix(0.928 -0.3726 0.3726 0.928 -38.2275 49.2994)" class="st2" cx="108.44" cy="123.56" rx="2.71" ry="0.24"/>
		
			<ellipse transform="matrix(0.6497 -0.7602 0.7602 0.6497 -65.7789 125.3788)" class="st2" cx="103.15" cy="134.06" rx="2.71" ry="0.24"/>
		
			<ellipse transform="matrix(0.3495 -0.937 0.937 0.3495 -33.387 177.4428)" class="st2" cx="111.09" cy="112.76" rx="0.24" ry="2.71"/>
		
			<ellipse transform="matrix(0.7845 -0.6201 0.6201 0.7845 -55.4803 87.454)" class="st2" cx="98.1" cy="123.56" rx="2.71" ry="0.24"/>
	</g>
</g>
<g id="Text">
	<g>
		<path class="st2" d="M110.22,82.49l-1.4,0.58l1.93,4.69c0.11,0.27-0.01,0.57-0.28,0.68c-0.26,0.11-0.57-0.01-0.68-0.29l-1.93-4.69
			l-1.39,0.57c-0.27,0.11-0.58-0.03-0.69-0.29c-0.11-0.27,0.01-0.57,0.29-0.68l3.75-1.55c0.26-0.11,0.57,0.01,0.68,0.28
			C110.61,82.06,110.49,82.38,110.22,82.49z"/>
		<path class="st2" d="M114.77,82.49c0.08,0.25-0.07,0.55-0.34,0.63c-0.21,0.06-0.38,0.17-0.49,0.34c-0.14,0.16-0.23,0.36-0.29,0.56
			c-0.13,0.36-0.14,0.74-0.14,0.88l0.52,1.73c0.08,0.26-0.08,0.55-0.36,0.63c-0.26,0.08-0.55-0.07-0.63-0.34l-1.08-3.59
			c-0.08-0.26,0.08-0.54,0.34-0.62c0.27-0.08,0.56,0.06,0.64,0.32l0.02,0.06c0.04-0.08,0.09-0.18,0.14-0.24
			c0.24-0.29,0.58-0.57,1.04-0.7C114.42,82.08,114.69,82.23,114.77,82.49z"/>
		<path class="st2" d="M118.9,85.98c-1.07,0.19-2.1-0.54-2.29-1.61l-0.39-2.24c-0.05-0.26,0.14-0.54,0.41-0.58
			c0.28-0.05,0.54,0.15,0.58,0.41l0.39,2.24c0.09,0.53,0.59,0.88,1.12,0.79c0.54-0.09,0.9-0.59,0.82-1.13l-0.39-2.24
			c-0.04-0.26,0.12-0.53,0.4-0.58c0.26-0.05,0.55,0.15,0.59,0.41l0.39,2.24C120.72,84.75,119.98,85.79,118.9,85.98z"/>
		<path class="st2" d="M124.49,81.13c0.02,0.28-0.22,0.54-0.5,0.55l-0.24,0.01l0.16,2.65c0.29-0.02,0.54,0.21,0.55,0.5
			c0.02,0.29-0.2,0.54-0.49,0.55c-0.58,0.03-1.08-0.41-1.12-0.99l-0.16-2.65l-0.28,0.02c-0.29,0.02-0.54-0.21-0.55-0.49
			c-0.02-0.29,0.2-0.54,0.49-0.55l0.27-0.02l-0.08-1.38c-0.02-0.29,0.21-0.54,0.5-0.55c0.29-0.02,0.54,0.2,0.55,0.49l0.08,1.38
			l0.24-0.01C124.21,80.62,124.48,80.83,124.49,81.13z"/>
		<path class="st2" d="M127.12,84.83c-0.01,0.29-0.26,0.51-0.56,0.49c-0.24-0.01-0.43-0.19-0.48-0.42
			c-0.01-0.04-0.01-0.09-0.01-0.13l0.28-5.6c0.02-0.29,0.26-0.51,0.55-0.5c0.29,0.02,0.52,0.26,0.5,0.55l-0.08,1.65
			c0.31-0.15,0.66-0.24,1.03-0.22c1.15,0.06,2.02,1.04,1.96,2.18l-0.11,2.14c-0.01,0.29-0.25,0.51-0.55,0.5
			c-0.29-0.02-0.51-0.25-0.49-0.55l0.11-2.14c0.03-0.56-0.4-1.04-0.97-1.08c-0.56-0.02-1.03,0.41-1.07,0.97L127.12,84.83z"/>
		<path class="st2" d="M134.04,81l-0.02,0.13l0.28,0.05c0.28,0.05,0.48,0.31,0.43,0.6c-0.05,0.28-0.32,0.48-0.6,0.43l-0.28-0.05
			l-0.54,3.31c-0.04,0.28-0.31,0.48-0.6,0.43c-0.29-0.05-0.48-0.32-0.43-0.6l0.54-3.31l-0.24-0.04c-0.29-0.05-0.49-0.32-0.44-0.6
			c0.05-0.29,0.32-0.48,0.61-0.43l0.24,0.04l0.02-0.13c0.06-0.35,0.14-0.64,0.33-0.89c0.18-0.26,0.47-0.43,0.77-0.47
			c0.2-0.02,0.38-0.01,0.58,0.02c0.28,0.05,0.48,0.32,0.43,0.6c-0.05,0.29-0.32,0.49-0.6,0.44c-0.12-0.02-0.21-0.02-0.25-0.01
			c-0.04,0-0.05,0.01-0.06,0.02C134.19,80.53,134.1,80.65,134.04,81z"/>
		<path class="st2" d="M136.71,86.79c-1.04-0.29-1.67-1.39-1.38-2.43l0.61-2.19c0.07-0.26,0.35-0.42,0.62-0.35
			c0.27,0.08,0.42,0.36,0.35,0.62l-0.61,2.19c-0.14,0.52,0.15,1.05,0.68,1.19c0.53,0.15,1.07-0.15,1.22-0.67l0.61-2.19
			c0.07-0.26,0.34-0.43,0.61-0.35c0.26,0.07,0.43,0.37,0.36,0.62l-0.61,2.19C138.88,86.46,137.76,87.08,136.71,86.79z"/>
		<path class="st2" d="M142.94,81.83c0.28,0.1,0.41,0.41,0.31,0.67l-1.97,5.25c-0.1,0.27-0.41,0.41-0.68,0.3
			c-0.27-0.1-0.41-0.41-0.31-0.67l1.97-5.25C142.36,81.87,142.67,81.73,142.94,81.83z"/>
	</g>
	<g>
		<path d="M109.34,82.44l-1.39,0.58l1.96,4.68c0.11,0.27-0.01,0.57-0.28,0.68c-0.26,0.11-0.57-0.01-0.68-0.28l-1.96-4.68L105.6,84
			c-0.27,0.11-0.58-0.03-0.69-0.29c-0.11-0.27,0.01-0.57,0.28-0.68l3.74-1.57c0.26-0.11,0.57,0.01,0.68,0.28
			C109.73,82.01,109.6,82.33,109.34,82.44z"/>
		<path d="M113.89,82.41c0.08,0.25-0.06,0.54-0.33,0.63c-0.21,0.06-0.37,0.18-0.49,0.34c-0.14,0.16-0.23,0.36-0.28,0.57
			c-0.13,0.36-0.13,0.74-0.14,0.88l0.53,1.73c0.08,0.26-0.08,0.55-0.35,0.64c-0.26,0.08-0.55-0.07-0.63-0.33l-1.1-3.58
			c-0.08-0.26,0.07-0.54,0.34-0.62c0.27-0.08,0.56,0.05,0.65,0.32l0.02,0.06c0.04-0.08,0.09-0.18,0.14-0.24
			c0.24-0.29,0.58-0.58,1.04-0.71C113.54,82.01,113.81,82.15,113.89,82.41z"/>
		<path d="M118.04,85.87c-1.07,0.19-2.1-0.53-2.3-1.6l-0.4-2.24c-0.05-0.26,0.14-0.54,0.41-0.58c0.28-0.05,0.54,0.15,0.59,0.41
			l0.4,2.24c0.1,0.53,0.59,0.88,1.13,0.78c0.54-0.1,0.9-0.6,0.81-1.13l-0.4-2.24c-0.05-0.26,0.12-0.53,0.4-0.58
			c0.26-0.05,0.55,0.14,0.59,0.41l0.4,2.24C119.85,84.64,119.11,85.68,118.04,85.87z"/>
		<path d="M123.6,80.99c0.02,0.29-0.21,0.54-0.5,0.56l-0.24,0.02l0.17,2.65c0.29-0.02,0.54,0.2,0.56,0.5
			c0.02,0.29-0.19,0.54-0.49,0.56c-0.58,0.04-1.08-0.41-1.12-0.98l-0.17-2.65l-0.28,0.02c-0.29,0.02-0.54-0.2-0.56-0.49
			c-0.02-0.29,0.19-0.54,0.49-0.56l0.28-0.02l-0.09-1.38c-0.02-0.29,0.2-0.54,0.5-0.56c0.29-0.02,0.54,0.19,0.56,0.49l0.09,1.38
			l0.24-0.02C123.32,80.49,123.58,80.7,123.6,80.99z"/>
		<path d="M126.25,84.68c-0.01,0.29-0.26,0.51-0.55,0.5c-0.24-0.01-0.43-0.19-0.49-0.41c-0.01-0.04-0.02-0.09-0.01-0.13l0.25-5.6
			c0.01-0.29,0.26-0.51,0.55-0.5c0.29,0.01,0.52,0.25,0.51,0.55l-0.07,1.65c0.31-0.15,0.66-0.25,1.03-0.23
			c1.15,0.05,2.03,1.03,1.97,2.17l-0.1,2.14c-0.01,0.29-0.25,0.51-0.54,0.5c-0.29-0.01-0.51-0.25-0.5-0.54l0.1-2.14
			c0.03-0.56-0.41-1.04-0.98-1.07c-0.56-0.02-1.03,0.42-1.06,0.98L126.25,84.68z"/>
		<path d="M133.15,80.81l-0.02,0.13l0.28,0.04c0.28,0.04,0.48,0.31,0.43,0.6c-0.04,0.28-0.31,0.48-0.6,0.43l-0.28-0.04l-0.52,3.31
			c-0.04,0.28-0.31,0.48-0.6,0.43c-0.29-0.04-0.48-0.32-0.43-0.6l0.52-3.31l-0.24-0.04c-0.29-0.05-0.49-0.32-0.44-0.6
			c0.05-0.29,0.32-0.48,0.61-0.43l0.24,0.04l0.02-0.13c0.05-0.35,0.14-0.64,0.32-0.89c0.18-0.26,0.47-0.44,0.77-0.48
			c0.2-0.03,0.38-0.02,0.58,0.01c0.28,0.04,0.48,0.32,0.43,0.6c-0.05,0.29-0.32,0.49-0.6,0.44c-0.12-0.02-0.21-0.02-0.25-0.01
			c-0.04,0-0.05,0.01-0.06,0.02C133.3,80.34,133.21,80.46,133.15,80.81z"/>
		<path d="M135.85,86.59c-1.05-0.28-1.68-1.38-1.39-2.43l0.59-2.19c0.07-0.26,0.35-0.43,0.62-0.35c0.28,0.07,0.42,0.36,0.35,0.62
			l-0.59,2.19c-0.14,0.52,0.16,1.05,0.68,1.19c0.53,0.15,1.07-0.15,1.22-0.67l0.59-2.19c0.07-0.26,0.33-0.43,0.61-0.36
			c0.26,0.07,0.43,0.36,0.36,0.62l-0.59,2.19C138.02,86.25,136.9,86.87,135.85,86.59z"/>
		<path d="M142.05,81.59c0.28,0.1,0.42,0.41,0.32,0.67l-1.94,5.26c-0.1,0.27-0.4,0.41-0.68,0.31c-0.27-0.1-0.41-0.4-0.31-0.67
			l1.94-5.26C141.48,81.64,141.78,81.5,142.05,81.59z"/>
	</g>
</g>
<g id="Safe_Area" class="st0">
	<circle class="st4" cx="126" cy="126" r="54"/>
</g>
</svg>
