<?xml version="1.0" encoding="utf-8"?>
<!-- Generator: Adobe Illustrator 23.0.2, SVG Export Plug-In . SVG Version: 6.00 Build 0)  -->
<svg version="1.1" xmlns="http://www.w3.org/2000/svg" xmlns:xlink="http://www.w3.org/1999/xlink" x="0px" y="0px"
	 viewBox="0 0 252 252" style="enable-background:new 0 0 252 252;" xml:space="preserve">
<style type="text/css">
	.st0{display:none;}
	.st1{display:inline;fill:#FFFFFF;stroke:#252723;stroke-miterlimit:10;}
	.st2{fill:#FFFFFF;}
	.st3{fill:#E5F3D2;}
	.st4{clip-path:url(#SVGID_2_);fill:#E4ACB2;}
	.st5{clip-path:url(#SVGID_2_);fill:#E6E7E7;}
	.st6{fill:#D26785;}
	.st7{clip-path:url(#SVGID_4_);fill:#BE8439;}
	.st8{fill:#BE8439;}
	.st9{clip-path:url(#SVGID_6_);fill:#7C5928;}
	.st10{fill:#7C5928;}
	.st11{display:inline;fill:none;stroke:#252723;stroke-miterlimit:10;}
</style>
<g id="Bleed" class="st0">
	<circle class="st1" cx="126" cy="126" r="72"/>
</g>
<g id="Background">
</g>
<g id="Image">
	<circle class="st2" cx="126" cy="126" r="57.66"/>
	<circle class="st3" cx="126" cy="126" r="50.01"/>
	<circle class="st2" cx="126" cy="126" r="45.64"/>
	<circle class="st3" cx="126" cy="126" r="40.51"/>
	<circle class="st2" cx="129.95" cy="126.92" r="40.6"/>
	<circle class="st3" cx="129.98" cy="124.45" r="38.23"/>
	<circle class="st3" cx="131.74" cy="128.05" r="40.51"/>
	<circle class="st2" cx="128.32" cy="125.87" r="40.6"/>
	<circle class="st3" cx="127.47" cy="128.19" r="38.23"/>
	<circle class="st2" cx="127.47" cy="128.62" r="37.12"/>
	<circle class="st3" cx="125.97" cy="126.93" r="34.95"/>
	<g>
		<defs>
			<rect id="SVGID_1_" x="95.34" y="104.14" width="57.29" height="38.46"/>
		</defs>
		<clipPath id="SVGID_2_">
			<use xlink:href="#SVGID_1_"  style="overflow:visible;"/>
		</clipPath>
		<path class="st4" d="M152.63,123.37c0,10.62-8.37,19.23-18.69,19.23c-10.32,0-18.69-8.61-18.69-19.23s8.37-19.23,18.69-19.23
			C144.26,104.14,152.63,112.75,152.63,123.37"/>
		<path class="st5" d="M149.01,123.37c0,8.57-6.75,15.51-15.08,15.51c-8.33,0-15.08-6.94-15.08-15.51c0-8.57,6.75-15.51,15.08-15.51
			C142.26,107.86,149.01,114.8,149.01,123.37"/>
		<path class="st4" d="M146.28,123.37c0,7.02-5.53,12.7-12.35,12.7c-6.82,0-12.35-5.69-12.35-12.7c0-7.02,5.53-12.7,12.35-12.7
			C140.76,110.67,146.28,116.35,146.28,123.37"/>
		<path class="st5" d="M140.93,123.37c0,3.97-3.13,7.2-6.99,7.2s-6.99-3.22-6.99-7.2c0-3.97,3.13-7.19,6.99-7.19
			S140.93,119.4,140.93,123.37"/>
	</g>
	<polygon class="st6" points="95.34,130.5 96.61,132.58 102.49,131.88 100.6,129.88 	"/>
	<polygon class="st6" points="102.83,132.5 97.02,133.67 96.42,136.04 101.61,135 	"/>
	<g>
		<defs>
			<rect id="SVGID_3_" x="95.34" y="104.14" width="57.29" height="38.46"/>
		</defs>
		<clipPath id="SVGID_4_">
			<use xlink:href="#SVGID_3_"  style="overflow:visible;"/>
		</clipPath>
		<path class="st7" d="M131.51,125.16c-1.33,0.37-2.56,0.08-2.75-0.65s0.73-1.62,2.05-1.98c0.32-0.09,0.63-0.14,0.93-0.15l0,0
			l4.63-0.32l-3.28,2.27C132.72,124.67,132.17,124.98,131.51,125.16"/>
	</g>
	<polygon class="st8" points="131.52,124.73 102.3,133.18 101.72,131.06 130.95,122.62 	"/>
	<g>
		<defs>
			<rect id="SVGID_5_" x="95.34" y="104.14" width="57.29" height="38.46"/>
		</defs>
		<clipPath id="SVGID_6_">
			<use xlink:href="#SVGID_5_"  style="overflow:visible;"/>
		</clipPath>
		<path class="st9" d="M130.93,125.16c-1.05,0.29-2.02,0.06-2.17-0.51s0.58-1.28,1.62-1.57c0.25-0.07,0.5-0.11,0.73-0.12l0,0
			l3.65-0.25l-2.59,1.79C131.89,124.77,131.45,125.01,130.93,125.16"/>
	</g>
	<polygon class="st10" points="113.78,128.45 129.86,123.52 130.17,124.75 	"/>
</g>
<g id="Text">
</g>
<g id="Safe_Area" class="st0">
	<circle class="st11" cx="126" cy="126" r="54"/>
</g>
</svg>
