<?xml version="1.0" encoding="utf-8"?>
<!-- Generator: Adobe Illustrator 23.0.2, SVG Export Plug-In . SVG Version: 6.00 Build 0)  -->
<svg version="1.1" id="Layer_1" xmlns="http://www.w3.org/2000/svg" xmlns:xlink="http://www.w3.org/1999/xlink" x="0px" y="0px"
	 viewBox="0 0 360 504" style="enable-background:new 0 0 360 504;" xml:space="preserve">
<style type="text/css">
	.st0{fill:#FFFFFF;}
	.st1{fill:#E7B7B8;}
	.st2{enable-background:new    ;}
	.st3{fill:#252723;}
	.st4{fill:#D26785;}
	.st5{clip-path:url(#SVGID_2_);fill:#BE8439;}
	.st6{fill:#8E6B26;}
	.st7{clip-path:url(#SVGID_4_);fill:#71561F;}
	.st8{fill:#BE8439;}
	.st9{clip-path:url(#SVGID_6_);fill:#212020;}
	.st10{clip-path:url(#SVGID_8_);fill:#212020;}
	.st11{clip-path:url(#SVGID_10_);fill:#212020;}
	.st12{clip-path:url(#SVGID_12_);fill:#212020;}
	.st13{clip-path:url(#SVGID_14_);fill:#FFFFFF;}
	.st14{clip-path:url(#SVGID_16_);fill:#212020;}
	.st15{clip-path:url(#SVGID_18_);fill:#FFFFFF;}
	.st16{clip-path:url(#SVGID_20_);fill:#212020;}
	.st17{clip-path:url(#SVGID_22_);fill:#FFFFFF;}
	.st18{clip-path:url(#SVGID_24_);fill:#212020;}
	.st19{fill:#212020;}
	.st20{clip-path:url(#SVGID_26_);fill:#212020;}
	.st21{clip-path:url(#SVGID_28_);fill:#7C5928;}
	.st22{fill:#7C5928;}
	.st23{fill:#894D30;}
	.st24{fill:#A36D3F;}
</style>
<g id="Color_Strip">
	<rect x="45" y="63" class="st0" width="270" height="378"/>
	<rect x="45" y="373.31" class="st1" width="27.15" height="40.22"/>
	<rect x="164.86" y="373.31" class="st1" width="150.14" height="40.22"/>
</g>
<g id="Date">
	<g class="st2">
		<path class="st3" d="M90.24,403.24v4.3c0,0.1-0.08,0.18-0.18,0.18s-0.18-0.08-0.18-0.18v-4.82c-0.02-0.08,0-0.15,0.07-0.2
			c0.08-0.05,0.2-0.04,0.25,0.04l3.18,4.41v-4.28c0-0.1,0.08-0.18,0.18-0.18c0.11,0,0.19,0.08,0.19,0.18v4.84
			c0,0.1-0.08,0.18-0.19,0.18c-0.06,0-0.1-0.02-0.14-0.07c-0.01-0.01-0.02-0.02-0.03-0.03L90.24,403.24z"/>
		<path class="st3" d="M97.13,404.04c0.97,0,1.74,0.84,1.74,1.84c0,1-0.77,1.84-1.74,1.84c-0.96,0-1.74-0.84-1.74-1.84
			C95.39,404.88,96.17,404.04,97.13,404.04z M97.13,407.36c0.75,0,1.38-0.66,1.38-1.48c0-0.82-0.63-1.49-1.38-1.49
			c-0.75,0-1.38,0.67-1.38,1.49C95.75,406.7,96.38,407.36,97.13,407.36z"/>
		<path class="st3" d="M101.2,407.69c-0.02-0.02-0.04-0.04-0.06-0.08l-1.38-3.29c-0.04-0.09,0.01-0.2,0.09-0.23
			c0.09-0.04,0.2,0.01,0.23,0.1l1.22,2.9l1.22-2.9c0.03-0.09,0.14-0.13,0.23-0.1c0.09,0.04,0.13,0.14,0.09,0.23l-1.37,3.26
			c-0.01,0.03-0.02,0.06-0.05,0.09c-0.03,0.04-0.08,0.05-0.12,0.05c-0.02,0-0.04,0-0.06-0.01c-0.01,0-0.01,0-0.01-0.01
			C101.23,407.71,101.22,407.7,101.2,407.69z"/>
		<path class="st3" d="M106.35,407.4l2.46-2.21c0.29-0.27,0.45-0.63,0.45-1.01c0-0.32-0.12-0.65-0.35-0.9
			c-0.26-0.29-0.63-0.44-1-0.44c-0.33,0-0.65,0.11-0.92,0.35l-0.26,0.23c-0.07,0.08-0.19,0.07-0.25-0.01
			c-0.08-0.08-0.07-0.2,0.01-0.26l0.26-0.24c0.33-0.29,0.75-0.44,1.16-0.44c0.46,0,0.92,0.18,1.26,0.56
			c0.31,0.33,0.45,0.74,0.45,1.15c0,0.46-0.19,0.93-0.56,1.28l-2.1,1.9h2.48c0.1,0,0.18,0.08,0.18,0.19c0,0.1-0.08,0.18-0.18,0.18
			h-2.93h-0.03c-0.05,0-0.11-0.01-0.14-0.05C106.27,407.58,106.27,407.47,106.35,407.4z"/>
		<path class="st3" d="M110.77,407.4l2.46-2.21c0.29-0.27,0.45-0.63,0.45-1.01c0-0.32-0.12-0.65-0.35-0.9
			c-0.26-0.29-0.63-0.44-1-0.44c-0.33,0-0.65,0.11-0.92,0.35l-0.26,0.23c-0.07,0.08-0.19,0.07-0.25-0.01
			c-0.08-0.08-0.07-0.2,0.01-0.26l0.26-0.24c0.33-0.29,0.75-0.44,1.16-0.44c0.46,0,0.92,0.18,1.26,0.56
			c0.31,0.33,0.45,0.74,0.45,1.15c0,0.46-0.19,0.93-0.56,1.28l-2.1,1.9h2.48c0.1,0,0.18,0.08,0.18,0.19c0,0.1-0.08,0.18-0.18,0.18
			h-2.93h-0.03c-0.05,0-0.11-0.01-0.14-0.05C110.7,407.58,110.7,407.47,110.77,407.4z"/>
		<path class="st3" d="M117.54,405.11c0-0.08,0.06-0.14,0.14-0.14h1.6c0.07,0,0.14,0.05,0.14,0.14c0,0.09-0.07,0.15-0.14,0.15h-1.6
			C117.6,405.26,117.54,405.2,117.54,405.11z"/>
		<path class="st3" d="M123.33,407.72h-0.03c-0.09-0.01-0.17-0.08-0.17-0.18v-4.9c0-0.1,0.08-0.18,0.18-0.18h0.02h0.96
			c1.45,0,2.63,1.19,2.63,2.63s-1.18,2.62-2.63,2.62H123.33z M124.29,407.35c1.25,0,2.26-1.01,2.26-2.25c0-1.25-1.01-2.26-2.26-2.27
			h-0.8v4.52H124.29z"/>
		<path class="st3" d="M128.18,405.89c0-1.02,0.8-1.85,1.79-1.85c0.95,0,1.7,0.75,1.77,1.71v0.01v0.02c0,0.1-0.08,0.17-0.18,0.17
			h-3.02c0.04,0.8,0.67,1.41,1.43,1.41c0.49,0,0.94-0.25,1.19-0.67c0.05-0.09,0.17-0.11,0.24-0.06c0.08,0.06,0.11,0.17,0.06,0.26
			c-0.31,0.5-0.86,0.83-1.49,0.83C128.97,407.72,128.18,406.89,128.18,405.89z M128.56,405.59h2.79c-0.12-0.69-0.71-1.19-1.38-1.19
			C129.27,404.4,128.7,404.9,128.56,405.59z"/>
		<path class="st3" d="M132.75,405.87c0-1.02,0.84-1.83,1.89-1.83c0.44,0,0.85,0.15,1.17,0.41c0.07,0.05,0.09,0.17,0.02,0.25
			c-0.06,0.07-0.17,0.09-0.25,0.03c-0.26-0.21-0.59-0.33-0.95-0.33c-0.86,0-1.53,0.67-1.53,1.48c0,0.83,0.68,1.49,1.53,1.49
			c0.35,0,0.68-0.12,0.95-0.32c0.08-0.06,0.19-0.04,0.25,0.03c0.07,0.08,0.05,0.2-0.04,0.26c-0.31,0.24-0.72,0.39-1.16,0.39
			C133.59,407.72,132.75,406.91,132.75,405.87z"/>
		<path class="st3" d="M139.25,407.4l2.46-2.21c0.29-0.27,0.45-0.63,0.45-1.01c0-0.32-0.12-0.65-0.35-0.9
			c-0.26-0.29-0.63-0.44-1-0.44c-0.33,0-0.65,0.11-0.92,0.35l-0.26,0.23c-0.07,0.08-0.19,0.07-0.25-0.01
			c-0.08-0.08-0.07-0.2,0.01-0.26l0.26-0.24c0.33-0.29,0.75-0.44,1.16-0.44c0.46,0,0.92,0.18,1.26,0.56
			c0.31,0.33,0.45,0.74,0.45,1.15c0,0.46-0.19,0.93-0.56,1.28l-2.1,1.9h2.48c0.1,0,0.18,0.08,0.18,0.19c0,0.1-0.08,0.18-0.18,0.18
			h-2.93h-0.03c-0.05,0-0.11-0.01-0.14-0.05C139.17,407.58,139.17,407.47,139.25,407.4z"/>
		<path class="st3" d="M144.54,403l-0.74,0.43c-0.02,0.02-0.06,0.03-0.09,0.03c-0.07,0-0.13-0.04-0.16-0.09
			c-0.05-0.1-0.02-0.2,0.07-0.25l1.01-0.62c0.08-0.04,0.2-0.01,0.25,0.07c0.02,0.04,0.03,0.09,0.02,0.13v4.83
			c0,0.1-0.07,0.18-0.18,0.18c-0.1,0-0.18-0.08-0.18-0.18V403z"/>
	</g>
</g>
<g id="Image">
	<g>
		<polygon class="st4" points="226.28,199.67 218.4,200.58 216.7,197.88 223.74,197.07 		"/>
		<polygon class="st4" points="226.73,200.48 218.95,202.01 218.15,205.09 225.1,203.73 		"/>
		<g>
			<g>
				<defs>
					<rect id="SVGID_1_" x="88.37" y="155.58" width="183.27" height="120.55"/>
				</defs>
				<clipPath id="SVGID_2_">
					<use xlink:href="#SVGID_1_"  style="overflow:visible;"/>
				</clipPath>
				<path class="st5" d="M265.13,190.93c-1.78,0.48-3.42,0.1-3.68-0.85c-0.26-0.95,0.98-2.1,2.75-2.58c0.43-0.11,0.85-0.18,1.24-0.2
					v-0.01l6.19-0.42l-4.38,2.95C266.75,190.29,266.01,190.69,265.13,190.93"/>
			</g>
		</g>
		<polygon class="st6" points="210.83,155.58 235.13,187.4 238.2,184.81 		"/>
		<polygon class="st6" points="237.33,191.26 233.59,186.06 238.09,184.89 		"/>
		
			<rect x="226.97" y="185.84" transform="matrix(0.9682 -0.2503 0.2503 0.9682 -39.4914 63.7373)" class="st6" width="7.76" height="2.59"/>
		
			<rect x="228.05" y="186.52" transform="matrix(0.9681 -0.2504 0.2504 0.9681 -40.5671 63.5069)" class="st6" width="2.53" height="9.34"/>
		<polygon class="st6" points="236.91,245.36 241.38,205.56 245.3,206.2 		"/>
		<polygon class="st6" points="240.86,201.57 240.98,207.99 245.28,206.22 		"/>
		
			<rect x="234.45" y="207.57" transform="matrix(0.9628 -0.2704 0.2704 0.9628 -47.5982 72.2203)" class="st6" width="7.76" height="2.59"/>
		
			<rect x="232.67" y="201.94" transform="matrix(0.9628 -0.2703 0.2703 0.9628 -47.1375 70.9229)" class="st6" width="2.53" height="9.34"/>
		
			<rect x="229.72" y="196.22" transform="matrix(0.9682 -0.2503 0.2503 0.9682 -42.3351 64.3056)" class="st6" width="3.89" height="4.77"/>
		<g>
			<g>
				<defs>
					<rect id="SVGID_3_" x="88.37" y="155.58" width="183.27" height="120.55"/>
				</defs>
				<clipPath id="SVGID_4_">
					<use xlink:href="#SVGID_3_"  style="overflow:visible;"/>
				</clipPath>
				<path class="st7" d="M209.69,204.56c-6.86-24.79-6.71-46.48,0.36-48.44c0.68-0.19,1.41-0.19,2.16-0.01
					c-5.16,5.08-4.68,24.94,1.51,47.33c6.2,22.38,16,39.66,23.04,41.37c-0.55,0.55-1.18,0.92-1.86,1.11
					C227.84,247.87,216.55,229.35,209.69,204.56"/>
			</g>
		</g>
		
			<rect x="224.88" y="193.07" transform="matrix(0.9628 -0.2703 0.2703 0.9628 -43.4462 73.5163)" class="st8" width="40.64" height="2.86"/>
		<g>
			<g>
				<defs>
					<rect id="SVGID_5_" x="88.37" y="155.58" width="183.27" height="120.55"/>
				</defs>
				<clipPath id="SVGID_6_">
					<use xlink:href="#SVGID_5_"  style="overflow:visible;"/>
				</clipPath>
				<path class="st9" d="M146.04,258.37l3.3,5.77c-2.51,1.75-5.26,3.27-8.22,4.51c-20.49,8.56-43.43,0.33-51.24-18.37
					c-0.62-1.47-1.12-2.97-1.51-4.48c8.53,17.35,30.6,24.72,50.36,16.47C141.33,261.18,143.78,259.88,146.04,258.37"/>
			</g>
			<g>
				<defs>
					<rect id="SVGID_7_" x="88.37" y="155.58" width="183.27" height="120.55"/>
				</defs>
				<clipPath id="SVGID_8_">
					<use xlink:href="#SVGID_7_"  style="overflow:visible;"/>
				</clipPath>
				<path class="st10" d="M201.8,207.79c-1.25,4.12-8.93,5.42-17.16,2.92c-8.22-2.5-13.87-7.87-12.62-11.99
					c1.25-4.12,8.93-5.42,17.16-2.92C197.41,198.31,203.06,203.67,201.8,207.79"/>
			</g>
			<g>
				<defs>
					<rect id="SVGID_9_" x="88.37" y="155.58" width="183.27" height="120.55"/>
				</defs>
				<clipPath id="SVGID_10_">
					<use xlink:href="#SVGID_9_"  style="overflow:visible;"/>
				</clipPath>
				<path class="st11" d="M153.71,200.86c2.01,2.01-0.91,8.18-6.52,13.79c-5.61,5.61-11.78,8.53-13.79,6.52s0.91-8.18,6.52-13.79
					C145.54,201.77,151.71,198.85,153.71,200.86"/>
			</g>
			<g>
				<defs>
					<rect id="SVGID_11_" x="88.37" y="155.58" width="183.27" height="120.55"/>
				</defs>
				<clipPath id="SVGID_12_">
					<use xlink:href="#SVGID_11_"  style="overflow:visible;"/>
				</clipPath>
				<path class="st12" d="M196.2,222.55c0,12.61-9.6,22.83-21.44,22.83s-21.44-10.22-21.44-22.83s9.6-22.83,21.44-22.83
					C186.6,199.73,196.2,209.95,196.2,222.55"/>
			</g>
			<g>
				<defs>
					<rect id="SVGID_13_" x="88.37" y="155.58" width="183.27" height="120.55"/>
				</defs>
				<clipPath id="SVGID_14_">
					<use xlink:href="#SVGID_13_"  style="overflow:visible;"/>
				</clipPath>
				<path class="st13" d="M192.32,222.53c0,11.36-9.71,20.57-21.68,20.57c-11.98,0-21.68-9.21-21.68-20.57s9.71-20.57,21.68-20.57
					C182.62,201.96,192.32,211.17,192.32,222.53"/>
			</g>
			<g>
				<defs>
					<rect id="SVGID_15_" x="88.37" y="155.58" width="183.27" height="120.55"/>
				</defs>
				<clipPath id="SVGID_16_">
					<use xlink:href="#SVGID_15_"  style="overflow:visible;"/>
				</clipPath>
				<path class="st14" d="M158.95,208.06c4.64,0.81,7.75,5.23,6.94,9.87s-5.23,7.75-9.87,6.94s-7.75-5.23-6.94-9.87
					C149.89,210.35,154.31,207.25,158.95,208.06"/>
			</g>
			<g>
				<defs>
					<rect id="SVGID_17_" x="88.37" y="155.58" width="183.27" height="120.55"/>
				</defs>
				<clipPath id="SVGID_18_">
					<use xlink:href="#SVGID_17_"  style="overflow:visible;"/>
				</clipPath>
				<path class="st15" d="M161.37,211.08c2.27,0.4,3.79,2.56,3.4,4.83c-0.4,2.27-2.56,3.79-4.83,3.4c-2.27-0.4-3.79-2.56-3.4-4.83
					C156.94,212.2,159.1,210.68,161.37,211.08"/>
			</g>
			<g>
				<defs>
					<rect id="SVGID_19_" x="88.37" y="155.58" width="183.27" height="120.55"/>
				</defs>
				<clipPath id="SVGID_20_">
					<use xlink:href="#SVGID_19_"  style="overflow:visible;"/>
				</clipPath>
				<path class="st16" d="M188.09,205.02c4.64,0.81,7.75,5.23,6.94,9.87s-5.23,7.75-9.87,6.94s-7.75-5.23-6.94-9.87
					S183.45,204.21,188.09,205.02"/>
			</g>
			<g>
				<defs>
					<rect id="SVGID_21_" x="88.37" y="155.58" width="183.27" height="120.55"/>
				</defs>
				<clipPath id="SVGID_22_">
					<use xlink:href="#SVGID_21_"  style="overflow:visible;"/>
				</clipPath>
				<path class="st17" d="M190.51,208.04c2.27,0.4,3.79,2.56,3.4,4.83c-0.4,2.27-2.56,3.79-4.83,3.4c-2.27-0.4-3.79-2.56-3.4-4.83
					C186.07,209.17,188.23,207.65,190.51,208.04"/>
			</g>
			<g>
				<defs>
					<rect id="SVGID_23_" x="88.37" y="155.58" width="183.27" height="120.55"/>
				</defs>
				<clipPath id="SVGID_24_">
					<use xlink:href="#SVGID_23_"  style="overflow:visible;"/>
				</clipPath>
				<path class="st18" d="M186.62,233.5c0,2.73-4.88,4.95-10.9,4.95c-6.02,0-10.9-2.22-10.9-4.95s4.88-4.95,10.9-4.95
					C181.74,228.55,186.62,230.76,186.62,233.5"/>
			</g>
		</g>
		<polygon class="st19" points="148.96,222.53 112.47,275.48 180.42,275.95 		"/>
		<g>
			<g>
				<defs>
					<rect id="SVGID_25_" x="88.37" y="155.58" width="183.27" height="120.55"/>
				</defs>
				<clipPath id="SVGID_26_">
					<use xlink:href="#SVGID_25_"  style="overflow:visible;"/>
				</clipPath>
				<path class="st20" d="M193.96,271.15c0,2.75-5,4.97-11.16,4.97s-11.16-2.23-11.16-4.97c0-2.75,5-4.97,11.16-4.97
					C188.97,266.18,193.96,268.41,193.96,271.15"/>
			</g>
			<g>
				<defs>
					<rect id="SVGID_27_" x="88.37" y="155.58" width="183.27" height="120.55"/>
				</defs>
				<clipPath id="SVGID_28_">
					<use xlink:href="#SVGID_27_"  style="overflow:visible;"/>
				</clipPath>
				<path class="st21" d="M264.35,190.92c-1.4,0.38-2.7,0.08-2.91-0.67c-0.2-0.75,0.77-1.66,2.17-2.04
					c0.34-0.09,0.67-0.14,0.98-0.16v-0.01l4.89-0.33l-3.47,2.33C265.63,190.41,265.04,190.73,264.35,190.92"/>
			</g>
		</g>
		<polygon class="st22" points="241.39,195.21 262.91,188.8 263.33,190.4 		"/>
	</g>
	
		<ellipse transform="matrix(0.8798 -0.4753 0.4753 0.8798 -94.7178 83.4352)" class="st23" cx="117.63" cy="229.02" rx="11.63" ry="2.06"/>
	<g>
		<polygon class="st4" points="101.79,225.63 97.18,221.52 97.87,219.14 101.99,222.8 		"/>
		<polygon class="st4" points="101.55,226.31 96.63,222.58 94.43,223.72 98.82,227.05 		"/>
		
			<rect x="112.9" y="218.98" transform="matrix(0.5843 -0.8115 0.8115 0.5843 -143.1575 190.1269)" class="st8" width="2.22" height="31.65"/>
	</g>
	<g>
		<polygon class="st4" points="104.37,220.3 101.06,215.09 102.38,212.99 105.33,217.64 		"/>
		<polygon class="st4" points="103.95,220.9 100.24,215.96 97.81,216.45 101.12,220.86 		"/>
		
			<rect x="112.5" y="216.65" transform="matrix(0.7845 -0.6201 0.6201 0.7845 -119.6799 120.545)" class="st8" width="2.22" height="31.65"/>
	</g>
	<g>
		<polygon class="st4" points="109.77,217.45 107.31,211.79 108.94,209.92 111.14,214.97 		"/>
		<polygon class="st4" points="109.27,217.97 106.37,212.52 103.89,212.63 106.48,217.5 		"/>
		
			<rect x="115.9" y="215.11" transform="matrix(0.8713 -0.4908 0.4908 0.8713 -98.2764 87.1549)" class="st8" width="2.22" height="31.65"/>
	</g>
	<g>
		<polygon class="st4" points="115.66,215.15 113.24,209.47 114.87,207.61 117.04,212.68 		"/>
		<polygon class="st4" points="115.16,215.67 112.29,210.2 109.81,210.29 112.37,215.17 		"/>
		
			<rect x="121.71" y="212.84" transform="matrix(0.8741 -0.4857 0.4857 0.8741 -95.6048 88.437)" class="st8" width="2.22" height="31.65"/>
	</g>
	<g>
		<polygon class="st4" points="122.27,212.15 121.05,206.1 123.03,204.61 124.12,210.01 		"/>
		<polygon class="st4" points="121.67,212.56 119.97,206.62 117.53,206.2 119.04,211.5 		"/>
		
			<rect x="125.41" y="211.02" transform="matrix(0.9547 -0.2977 0.2977 0.9547 -61.7939 47.949)" class="st8" width="2.22" height="31.65"/>
	</g>
	<path class="st24" d="M127.87,223.49l25.09,46.45c0.04,0.08,0.09,0.16,0.12,0.24c2.11,4.28-0.58,10.09-6.13,13.09
		c-3.47,1.87-7.24,2.22-10.18,1.2c-1.76-0.61-3.22-1.7-4.13-3.24c-0.05-0.07-0.1-0.15-0.14-0.23l-25.09-46.45
		c0.54,1,5.56-0.67,11.21-3.72S128.41,224.5,127.87,223.49z"/>
	<path class="st23" d="M146.95,283.27c-3.47,1.88-7.25,2.22-10.19,1.21c-1.76-0.61-3.22-1.7-4.13-3.25
		c-0.05-0.07-0.1-0.15-0.13-0.22l-4.77-8.83v-47.93c0.19-0.31,0.24-0.57,0.14-0.75l25.09,46.45c0.04,0.08,0.08,0.16,0.11,0.25
		C155.19,274.47,152.5,280.28,146.95,283.27z"/>
	<path class="st24" d="M152.98,267.95l0.13,0.24l-0.01,0.01C153.07,268.11,153.02,268.03,152.98,267.95z"/>
</g>
<g id="Name">
	<g class="st2">
		<path class="st3" d="M78.7,388.39c0.27-0.33,0.77-0.38,1.09-0.1c0.66,0.54,1.8,1.17,2.87,1.16c0.75,0,1.42-0.23,1.88-0.56
			c0.45-0.33,0.64-0.71,0.64-1.08c0-0.19-0.04-0.33-0.13-0.48s-0.23-0.3-0.45-0.45c-0.43-0.29-1.17-0.54-2.05-0.71h-0.03
			c-0.71-0.13-1.37-0.31-1.94-0.58c-0.57-0.27-1.06-0.64-1.4-1.17c-0.23-0.36-0.35-0.78-0.35-1.23c0-0.9,0.51-1.68,1.2-2.19
			c0.71-0.51,1.62-0.79,2.59-0.79c1.44,0,2.5,0.71,3.27,1.2c0.34,0.24,0.45,0.72,0.21,1.07c-0.23,0.36-0.71,0.46-1.06,0.22
			c-0.77-0.51-1.5-0.96-2.42-0.96c-0.67,0-1.27,0.21-1.68,0.51c-0.41,0.3-0.57,0.63-0.57,0.95c0,0.18,0.03,0.3,0.1,0.42
			c0.08,0.12,0.21,0.25,0.41,0.39c0.39,0.27,1.06,0.51,1.88,0.66h0.03c0.77,0.15,1.47,0.34,2.07,0.63c0.62,0.3,1.16,0.69,1.5,1.25
			c0.23,0.36,0.36,0.81,0.36,1.27c0,0.96-0.54,1.79-1.29,2.33c-0.74,0.54-1.71,0.86-2.77,0.86c-1.62-0.02-2.98-0.83-3.84-1.5
			C78.49,389.22,78.44,388.72,78.7,388.39z"/>
		<path class="st3" d="M95.21,387.27v2.94c0,0.43-0.36,0.79-0.79,0.79c-0.39,0-0.69-0.29-0.78-0.64c-0.57,0.4-1.24,0.64-1.99,0.64
			c-1.02,0-1.9-0.42-2.55-1.09c-0.65-0.69-1.02-1.62-1.02-2.64c0-1.04,0.38-1.97,1.02-2.64c0.65-0.69,1.53-1.12,2.55-1.12
			c0.75,0,1.42,0.25,1.99,0.66c0.09-0.38,0.39-0.66,0.78-0.66c0.44,0,0.79,0.36,0.79,0.81V387.27z M93.62,387.27
			c0-0.63-0.23-1.17-0.58-1.54c-0.36-0.41-0.87-0.62-1.4-0.62c-0.54,0-1.05,0.21-1.4,0.62c-0.36,0.37-0.57,0.91-0.57,1.54
			c0,0.61,0.21,1.15,0.57,1.54c0.35,0.38,0.85,0.58,1.4,0.58c0.52,0,1.03-0.21,1.4-0.58C93.4,388.42,93.62,387.88,93.62,387.27z"/>
		<path class="st3" d="M105.38,387.3v2.79c0,1.96-1.6,3.6-3.6,3.6c-0.56,0-1.11-0.13-1.58-0.38c-0.39-0.18-0.57-0.67-0.36-1.08
			c0.19-0.4,0.66-0.55,1.08-0.38c0.25,0.14,0.54,0.21,0.85,0.21c0.97,0,1.77-0.69,1.96-1.61c-0.54,0.38-1.23,0.6-1.96,0.6
			c-0.99,0-1.91-0.43-2.55-1.14c-0.64-0.66-1.05-1.59-1.05-2.64c0-1.04,0.41-1.96,1.05-2.67c0.65-0.67,1.56-1.11,2.55-1.11
			c0.78,0,1.47,0.24,2.01,0.63c0.08-0.36,0.4-0.63,0.79-0.63c0.45,0,0.79,0.36,0.79,0.79v2.99V387.3z M103.78,387.28
			c0-0.6-0.24-1.17-0.57-1.53c-0.39-0.42-0.85-0.64-1.42-0.64c-0.53,0-1.02,0.22-1.38,0.64c-0.36,0.36-0.6,0.93-0.6,1.53
			c0,0.63,0.24,1.2,0.6,1.54c0.36,0.41,0.85,0.62,1.38,0.62c0.57,0,1.03-0.21,1.42-0.62C103.54,388.48,103.78,387.91,103.78,387.28z
			"/>
		<path class="st3" d="M110.21,381.63c0,0.45-0.34,0.83-0.81,0.83c-0.45,0-0.81-0.38-0.81-0.83v-0.31c0-0.45,0.36-0.81,0.81-0.81
			c0.47,0,0.81,0.36,0.81,0.81V381.63z M110.21,384.34v5.85c0,0.45-0.34,0.81-0.81,0.81c-0.45,0-0.81-0.36-0.81-0.81v-5.85
			c0-0.48,0.36-0.82,0.81-0.82C109.87,383.52,110.21,383.86,110.21,384.34z"/>
		<path class="st3" d="M116.17,384.33c0,0.45-0.39,0.83-0.84,0.83h-0.38v4.18c0.47,0,0.83,0.38,0.83,0.84s-0.36,0.83-0.83,0.83
			c-0.91,0-1.66-0.75-1.66-1.67v-4.18h-0.44c-0.47,0-0.83-0.38-0.83-0.83c0-0.46,0.36-0.83,0.83-0.83h0.44v-2.17
			c0-0.46,0.38-0.83,0.84-0.83s0.82,0.36,0.82,0.83v2.17h0.38C115.78,383.5,116.17,383.86,116.17,384.33z"/>
		<path class="st3" d="M121.22,384.33c0,0.45-0.39,0.83-0.84,0.83h-0.38v4.18c0.47,0,0.83,0.38,0.83,0.84s-0.36,0.83-0.83,0.83
			c-0.92,0-1.66-0.75-1.66-1.67v-4.18h-0.44c-0.47,0-0.83-0.38-0.83-0.83c0-0.46,0.36-0.83,0.83-0.83h0.44v-2.17
			c0-0.46,0.38-0.83,0.84-0.83s0.82,0.36,0.82,0.83v2.17h0.38C120.83,383.5,121.22,383.86,121.22,384.33z"/>
		<path class="st3" d="M129.74,387.27v2.94c0,0.43-0.36,0.79-0.79,0.79c-0.39,0-0.69-0.29-0.78-0.64c-0.57,0.4-1.24,0.64-1.99,0.64
			c-1.02,0-1.9-0.42-2.55-1.09c-0.65-0.69-1.02-1.62-1.02-2.64c0-1.04,0.38-1.97,1.02-2.64c0.65-0.69,1.53-1.12,2.55-1.12
			c0.75,0,1.42,0.25,1.99,0.66c0.09-0.38,0.39-0.66,0.78-0.66c0.44,0,0.79,0.36,0.79,0.81V387.27z M128.15,387.27
			c0-0.63-0.23-1.17-0.58-1.54c-0.36-0.41-0.87-0.62-1.4-0.62c-0.54,0-1.05,0.21-1.4,0.62c-0.36,0.37-0.57,0.91-0.57,1.54
			c0,0.61,0.21,1.15,0.57,1.54c0.35,0.38,0.85,0.58,1.4,0.58c0.52,0,1.03-0.21,1.4-0.58C127.93,388.42,128.15,387.88,128.15,387.27z
			"/>
		<path class="st3" d="M137.3,384.3c0,0.42-0.34,0.79-0.79,0.79c-0.34,0-0.65,0.09-0.9,0.29c-0.29,0.18-0.51,0.44-0.69,0.72
			c-0.36,0.48-0.54,1.05-0.62,1.26v2.85c0,0.43-0.37,0.79-0.82,0.79c-0.44,0-0.79-0.36-0.79-0.79v-5.91c0-0.43,0.36-0.78,0.79-0.78
			c0.45,0,0.82,0.34,0.82,0.78v0.11c0.09-0.11,0.21-0.23,0.32-0.3c0.49-0.33,1.14-0.6,1.89-0.58
			C136.96,383.52,137.3,383.86,137.3,384.3z"/>
		<path class="st3" d="M140.9,381.63c0,0.45-0.34,0.83-0.81,0.83c-0.45,0-0.81-0.38-0.81-0.83v-0.31c0-0.45,0.36-0.81,0.81-0.81
			c0.47,0,0.81,0.36,0.81,0.81V381.63z M140.9,384.34v5.85c0,0.45-0.34,0.81-0.81,0.81c-0.45,0-0.81-0.36-0.81-0.81v-5.85
			c0-0.48,0.36-0.82,0.81-0.82C140.56,383.52,140.9,383.86,140.9,384.34z"/>
		<path class="st3" d="M146.45,391c-1.71,0-3.12-1.41-3.12-3.12v-3.58c0-0.42,0.36-0.79,0.79-0.79c0.45,0,0.79,0.38,0.79,0.79v3.58
			c0,0.86,0.67,1.53,1.53,1.53c0.87,0,1.56-0.67,1.58-1.53v-3.58c0-0.42,0.33-0.79,0.78-0.79c0.42,0,0.81,0.38,0.81,0.79v3.58
			C149.62,389.59,148.18,391,146.45,391z"/>
		<path class="st3" d="M152.32,388.86c0.27-0.36,0.79-0.41,1.12-0.12c0.39,0.33,1.06,0.67,1.65,0.66c0.4,0,0.78-0.14,1.02-0.29
			c0.21-0.18,0.27-0.33,0.27-0.45c0-0.08-0.01-0.11-0.04-0.15c-0.01-0.04-0.07-0.1-0.19-0.18c-0.21-0.15-0.66-0.32-1.2-0.42h-0.01
			c-0.47-0.09-0.92-0.21-1.31-0.39c-0.4-0.2-0.77-0.47-1.03-0.87c-0.17-0.27-0.26-0.6-0.26-0.95c0-0.69,0.39-1.27,0.89-1.65
			c0.52-0.36,1.15-0.56,1.84-0.56c1.04,0,1.77,0.5,2.25,0.83c0.36,0.24,0.46,0.74,0.24,1.11c-0.24,0.36-0.73,0.46-1.11,0.21
			c-0.48-0.32-0.9-0.56-1.38-0.56c-0.38,0-0.71,0.12-0.9,0.27c-0.19,0.13-0.24,0.27-0.24,0.34c0,0.06,0,0.08,0.03,0.12
			c0.02,0.03,0.06,0.09,0.17,0.15c0.19,0.13,0.58,0.27,1.09,0.36l0.02,0.02h0.02c0.49,0.09,0.96,0.22,1.4,0.43
			c0.4,0.18,0.81,0.46,1.06,0.88c0.18,0.3,0.28,0.65,0.28,0.99c0,0.74-0.4,1.35-0.94,1.74c-0.54,0.38-1.21,0.6-1.95,0.6
			c-1.17-0.01-2.07-0.55-2.67-1.04C152.09,389.7,152.05,389.19,152.32,388.86z"/>
	</g>
</g>
</svg>
