<?xml version="1.0" encoding="utf-8"?>
<!-- Generator: Adobe Illustrator 23.0.2, SVG Export Plug-In . SVG Version: 6.00 Build 0)  -->
<svg version="1.1" xmlns="http://www.w3.org/2000/svg" xmlns:xlink="http://www.w3.org/1999/xlink" x="0px" y="0px"
	 viewBox="0 0 252 252" style="enable-background:new 0 0 252 252;" xml:space="preserve">
<style type="text/css">
	.st0{display:none;}
	.st1{display:inline;fill:#FFFFFF;stroke:#252723;stroke-miterlimit:10;}
	.st2{fill:#FFFFFF;}
	.st3{fill:#C1D9FF;}
	.st4{fill:#959DC0;}
	.st5{fill:#252723;}
	.st6{display:inline;fill:none;stroke:#252723;stroke-miterlimit:10;}
</style>
<g id="Bleed" class="st0">
	<circle class="st1" cx="126" cy="126" r="72"/>
</g>
<g id="Background">
</g>
<g id="Image">
	<circle class="st2" cx="126" cy="126" r="57.66"/>
	<circle class="st3" cx="126" cy="126" r="50.01"/>
	<circle class="st2" cx="126" cy="126" r="40.72"/>
	<circle class="st3" cx="126" cy="126" r="36"/>
	<g>
		
			<rect x="113.5" y="96.64" transform="matrix(0.9345 -0.3559 0.3559 0.9345 -28.6022 47.9129)" class="st4" width="4.87" height="10.12"/>
		
			<rect x="120.43" y="114.85" transform="matrix(0.9345 -0.3559 0.3559 0.9345 -34.6295 51.5731)" class="st4" width="4.87" height="10.12"/>
		
			<rect x="122.89" y="98.48" transform="matrix(0.7239 0.6899 -0.6899 0.7239 106.0397 -57.8807)" class="st4" width="4.87" height="10.12"/>
		
			<rect x="107.68" y="104.27" transform="matrix(-0.1591 0.9873 -0.9873 -0.1591 235.5752 18.0028)" class="st4" width="4.87" height="10.12"/>
		
			<rect x="127.31" y="107.87" transform="matrix(0.1591 -0.9873 0.9873 0.1591 -2.3885 223.0618)" class="st4" width="4.87" height="10.12"/>
		
			<rect x="111.33" y="113.26" transform="matrix(-0.6932 -0.7207 0.7207 -0.6932 107.3627 282.3398)" class="st4" width="4.87" height="10.12"/>
		<circle class="st4" cx="120.04" cy="111.17" r="7.87"/>
		<circle class="st2" cx="119.72" cy="110.71" r="2.81"/>
		
			<rect x="128.72" y="118.54" transform="matrix(0.9999 0.0133 -0.0133 0.9999 1.6432 -1.7271)" class="st4" width="4.06" height="8.43"/>
		
			<rect x="135.35" y="118.85" transform="matrix(0.9124 0.4092 -0.4092 0.9124 62.3834 -45.4381)" class="st4" width="4.06" height="8.43"/>
		
			<rect x="143.9" y="128.29" transform="matrix(0.3559 0.9345 -0.9345 0.3559 217.8293 -51.0198)" class="st4" width="4.06" height="8.43"/>
		
			<rect x="140.6" y="122.8" transform="matrix(0.6357 0.7719 -0.7719 0.6357 150.0073 -63.8315)" class="st4" width="4.06" height="8.43"/>
		
			<rect x="141.21" y="141.74" transform="matrix(-0.8152 0.5792 -0.5792 -0.8152 344.5341 181.9769)" class="st4" width="4.06" height="8.43"/>
		
			<rect x="144.82" y="134.98" transform="matrix(-0.2336 0.9723 -0.9723 -0.2336 316.4851 28.9195)" class="st4" width="4.06" height="8.43"/>
		
			<rect x="119.56" y="123.99" transform="matrix(-0.52 0.8542 -0.8542 -0.52 294.3213 91.0204)" class="st4" width="4.06" height="8.43"/>
		
			<rect x="116.3" y="129.77" transform="matrix(-0.1381 0.9904 -0.9904 -0.1381 267.3734 35.3007)" class="st4" width="4.06" height="8.43"/>
		
			<rect x="119.76" y="142.03" transform="matrix(0.6027 0.798 -0.798 0.6027 165.0949 -39.0738)" class="st4" width="4.06" height="8.43"/>
		
			<rect x="116.85" y="136.32" transform="matrix(0.3162 0.9487 -0.9487 0.3162 214.6122 -16.6839)" class="st4" width="4.06" height="8.43"/>
		
			<rect x="132.58" y="146.9" transform="matrix(0.9238 -0.3829 0.3829 0.9238 -47.6046 63.0598)" class="st4" width="4.06" height="8.43"/>
		
			<rect x="124.93" y="146.36" transform="matrix(0.9478 0.3187 -0.3187 0.9478 54.6156 -32.6125)" class="st4" width="4.06" height="8.43"/>
		<circle class="st4" cx="132.18" cy="136.38" r="11.8"/>
		<circle class="st2" cx="131.99" cy="135.89" r="4.22"/>
	</g>
</g>
<g id="Text">
	<g>
		<path class="st2" d="M107.32,87.95c0.08-0.26,0.35-0.41,0.61-0.33c0.52,0.15,1.34,0.24,1.96-0.04c0.44-0.19,0.78-0.48,0.96-0.79
			c0.18-0.3,0.2-0.57,0.11-0.79c-0.05-0.11-0.11-0.18-0.2-0.25c-0.09-0.07-0.21-0.12-0.37-0.15c-0.32-0.06-0.82-0.03-1.37,0.1
			l-0.02,0.01c-0.44,0.1-0.87,0.15-1.27,0.14c-0.4-0.02-0.78-0.11-1.1-0.34c-0.22-0.15-0.39-0.37-0.51-0.63
			c-0.22-0.52-0.12-1.11,0.16-1.57c0.29-0.47,0.75-0.87,1.32-1.11c0.84-0.36,1.64-0.21,2.2-0.11c0.26,0.05,0.44,0.31,0.39,0.57
			c-0.04,0.27-0.3,0.45-0.57,0.39c-0.57-0.11-1.11-0.19-1.65,0.04c-0.39,0.17-0.69,0.44-0.85,0.71c-0.16,0.28-0.18,0.51-0.1,0.69
			c0.04,0.11,0.09,0.17,0.17,0.22c0.07,0.05,0.19,0.1,0.33,0.13c0.29,0.06,0.75,0.03,1.26-0.08l0.02-0.01
			c0.48-0.1,0.94-0.16,1.36-0.15c0.43,0.02,0.84,0.12,1.18,0.35c0.22,0.15,0.41,0.38,0.53,0.66c0.24,0.56,0.13,1.17-0.18,1.67
			c-0.29,0.5-0.79,0.92-1.41,1.18c-0.95,0.39-1.94,0.26-2.61,0.08C107.4,88.48,107.25,88.21,107.32,87.95z"/>
		<path class="st2" d="M114.59,82.55c0.08,0.27-0.09,0.57-0.37,0.65L114,83.27l0.74,2.54c0.28-0.08,0.57,0.08,0.65,0.37
			c0.08,0.28-0.07,0.57-0.36,0.65c-0.56,0.16-1.15-0.16-1.31-0.72l-0.74-2.54l-0.27,0.08c-0.28,0.08-0.57-0.08-0.65-0.36
			c-0.08-0.28,0.07-0.57,0.36-0.65l0.26-0.08l-0.38-1.32c-0.08-0.28,0.08-0.57,0.36-0.65c0.28-0.08,0.57,0.07,0.65,0.36l0.38,1.32
			l0.23-0.07C114.21,82.12,114.51,82.27,114.59,82.55z"/>
		<path class="st2" d="M118.65,81.64c0.05,0.26-0.11,0.54-0.39,0.59c-0.21,0.04-0.39,0.14-0.52,0.29c-0.15,0.15-0.26,0.33-0.34,0.54
			c-0.16,0.34-0.2,0.72-0.22,0.86l0.37,1.77c0.06,0.27-0.13,0.54-0.41,0.6c-0.27,0.06-0.54-0.12-0.59-0.39l-0.76-3.67
			c-0.06-0.27,0.12-0.53,0.39-0.59c0.28-0.06,0.56,0.11,0.61,0.38l0.01,0.06c0.04-0.08,0.1-0.17,0.16-0.23
			c0.26-0.27,0.63-0.52,1.1-0.61C118.34,81.2,118.59,81.37,118.65,81.64z"/>
		<path class="st2" d="M124.1,82.95l0.17,1.86c0.02,0.27-0.18,0.52-0.46,0.55c-0.25,0.02-0.45-0.14-0.53-0.36
			c-0.34,0.29-0.75,0.48-1.22,0.52c-0.64,0.06-1.23-0.16-1.67-0.54c-0.45-0.4-0.74-0.96-0.79-1.61c-0.06-0.65,0.12-1.26,0.49-1.72
			c0.37-0.47,0.9-0.8,1.54-0.85c0.47-0.04,0.91,0.08,1.3,0.3c0.04-0.24,0.21-0.44,0.45-0.46c0.27-0.03,0.52,0.18,0.55,0.46
			L124.1,82.95z M123.1,83.04c-0.04-0.4-0.21-0.72-0.46-0.94c-0.25-0.23-0.58-0.34-0.92-0.31c-0.34,0.03-0.65,0.19-0.84,0.47
			c-0.21,0.26-0.31,0.61-0.27,1.01c0.03,0.39,0.2,0.72,0.45,0.94c0.24,0.22,0.57,0.32,0.91,0.29c0.33-0.03,0.64-0.19,0.85-0.45
			C123.02,83.78,123.13,83.43,123.1,83.04z"/>
		<path class="st2" d="M128.25,81.13c-0.01,0.28-0.26,0.52-0.54,0.51l-0.24-0.01l-0.07,2.65c0.29,0.01,0.52,0.25,0.51,0.54
			s-0.24,0.52-0.54,0.51c-0.58-0.02-1.04-0.5-1.03-1.08l0.07-2.65l-0.28-0.01c-0.29-0.01-0.52-0.25-0.51-0.54
			c0.01-0.29,0.24-0.52,0.54-0.51l0.27,0.01l0.04-1.38c0.01-0.29,0.25-0.52,0.54-0.51c0.29,0.01,0.52,0.24,0.51,0.54l-0.04,1.38
			l0.24,0C128.01,80.61,128.26,80.84,128.25,81.13z"/>
		<path class="st2" d="M129.23,83c0.18-1.28,1.31-2.22,2.6-2.06c1.22,0.16,2.08,1.2,1.99,2.48c0,0.01,0,0.03-0.01,0.05
			c0,0.02-0.01,0.06-0.02,0.08c-0.06,0.22-0.28,0.35-0.54,0.31l-2.99-0.39c0.02,0.22,0.09,0.48,0.24,0.66
			c0.17,0.25,0.52,0.47,0.85,0.54c0.34,0.07,0.75,0.04,1.01-0.11c0.22-0.18,0.61-0.1,0.71,0.06c0.1,0.15,0.16,0.44-0.08,0.61
			c-0.52,0.36-1.1,0.49-1.77,0.4C129.93,85.48,129.07,84.28,129.23,83z M130.31,82.67l2.67,0.35c-0.04-0.39-0.45-1.01-1.26-1.18
			C130.91,81.77,130.44,82.3,130.31,82.67z"/>
		<path class="st2" d="M139.48,85.09l-0.47,1.7c-0.33,1.2-1.59,1.92-2.81,1.59c-0.34-0.09-0.65-0.27-0.9-0.5
			c-0.21-0.17-0.23-0.51-0.04-0.72c0.19-0.21,0.5-0.23,0.72-0.05c0.13,0.12,0.29,0.22,0.49,0.27c0.59,0.16,1.2-0.12,1.47-0.65
			c-0.39,0.14-0.85,0.16-1.3,0.03c-0.6-0.17-1.09-0.59-1.36-1.13c-0.28-0.51-0.37-1.15-0.19-1.79c0.18-0.63,0.58-1.13,1.09-1.45
			c0.51-0.3,1.14-0.41,1.75-0.24c0.48,0.13,0.86,0.4,1.12,0.73c0.11-0.21,0.35-0.32,0.59-0.25c0.27,0.08,0.42,0.35,0.35,0.62
			L139.48,85.09L139.48,85.09z M138.51,84.81c0.1-0.37,0.05-0.75-0.09-1.03c-0.17-0.32-0.41-0.54-0.76-0.64
			c-0.32-0.09-0.66-0.04-0.95,0.16c-0.28,0.16-0.53,0.46-0.63,0.83c-0.11,0.38-0.06,0.77,0.1,1.05c0.15,0.31,0.42,0.52,0.74,0.61
			c0.35,0.1,0.67,0.05,0.97-0.13C138.16,85.5,138.4,85.19,138.51,84.81z"/>
		<path class="st2" d="M143.11,84.48l-1.37,3.45c-0.1,0.27-0.39,0.4-0.67,0.29c-0.26-0.11-0.39-0.4-0.29-0.67l1.37-3.45
			c0.11-0.28,0.4-0.4,0.67-0.3C143.1,83.91,143.22,84.19,143.11,84.48z M143.74,82.88c-0.11,0.26-0.4,0.41-0.67,0.3
			c-0.27-0.11-0.39-0.41-0.29-0.68l0.07-0.19c0.11-0.27,0.4-0.39,0.67-0.29c0.27,0.11,0.39,0.4,0.29,0.67L143.74,82.88z"/>
		<path class="st2" d="M143.7,86.69c0.6-1.18,2.06-1.62,3.23-1.03c0.51,0.26,0.89,0.69,1.11,1.15c0.12,0.25,0,0.56-0.23,0.67
			c-0.27,0.12-0.56,0.01-0.68-0.24c-0.14-0.27-0.35-0.52-0.67-0.68c-0.69-0.35-1.54-0.07-1.87,0.58c-0.33,0.65-0.05,1.5,0.64,1.85
			c0.3,0.15,0.64,0.19,0.94,0.14c0.26-0.05,0.52,0.13,0.59,0.42c0.04,0.25-0.13,0.51-0.41,0.58c-0.5,0.08-1.07,0.02-1.57-0.24
			C143.61,89.3,143.11,87.85,143.7,86.69z"/>
	</g>
	<g>
		<path class="st5" d="M106.77,88.17c0.07-0.26,0.35-0.41,0.61-0.34c0.52,0.14,1.34,0.22,1.96-0.06c0.43-0.19,0.77-0.5,0.94-0.8
			c0.18-0.31,0.19-0.57,0.1-0.79c-0.05-0.11-0.11-0.18-0.2-0.24c-0.09-0.06-0.21-0.12-0.38-0.15c-0.32-0.05-0.82-0.01-1.37,0.12
			l-0.02,0.01c-0.44,0.1-0.87,0.17-1.27,0.16c-0.4-0.01-0.78-0.1-1.11-0.32c-0.22-0.15-0.4-0.36-0.51-0.62
			c-0.23-0.52-0.13-1.1,0.13-1.58c0.28-0.48,0.74-0.88,1.3-1.12c0.83-0.37,1.63-0.23,2.2-0.14c0.26,0.05,0.44,0.3,0.39,0.56
			c-0.04,0.27-0.29,0.45-0.56,0.4c-0.57-0.1-1.11-0.17-1.64,0.06c-0.39,0.17-0.69,0.45-0.84,0.73c-0.16,0.28-0.17,0.51-0.09,0.69
			c0.05,0.1,0.09,0.17,0.17,0.22c0.07,0.05,0.19,0.09,0.33,0.12c0.29,0.06,0.75,0.02,1.25-0.1l0.02-0.01
			c0.48-0.11,0.94-0.18,1.36-0.17c0.43,0.02,0.85,0.1,1.19,0.34c0.22,0.15,0.42,0.38,0.53,0.65c0.25,0.56,0.14,1.17-0.15,1.68
			c-0.29,0.5-0.77,0.93-1.39,1.21c-0.94,0.41-1.94,0.29-2.61,0.11C106.86,88.7,106.7,88.43,106.77,88.17z"/>
		<path class="st5" d="M113.96,82.67c0.08,0.27-0.08,0.57-0.36,0.66l-0.23,0.07l0.78,2.53c0.28-0.09,0.57,0.07,0.66,0.36
			c0.09,0.28-0.06,0.57-0.35,0.65c-0.55,0.17-1.15-0.14-1.32-0.7l-0.78-2.53l-0.26,0.08c-0.28,0.09-0.57-0.07-0.65-0.35
			c-0.09-0.28,0.06-0.57,0.35-0.65l0.26-0.08l-0.4-1.32c-0.09-0.28,0.07-0.57,0.36-0.65c0.28-0.09,0.57,0.06,0.65,0.35l0.4,1.32
			l0.23-0.07C113.57,82.24,113.87,82.39,113.96,82.67z"/>
		<path class="st5" d="M118.01,81.7c0.06,0.26-0.1,0.54-0.38,0.6c-0.21,0.05-0.39,0.14-0.52,0.3c-0.15,0.15-0.26,0.34-0.33,0.54
			c-0.16,0.35-0.19,0.72-0.21,0.86l0.39,1.76c0.06,0.27-0.12,0.54-0.4,0.61c-0.27,0.06-0.54-0.11-0.6-0.38l-0.81-3.65
			c-0.06-0.27,0.12-0.53,0.38-0.59c0.28-0.06,0.56,0.1,0.62,0.37l0.01,0.06c0.04-0.08,0.1-0.17,0.15-0.23
			c0.26-0.27,0.62-0.53,1.09-0.62C117.69,81.26,117.95,81.43,118.01,81.7z"/>
		<path class="st5" d="M123.47,82.92l0.19,1.85c0.03,0.27-0.17,0.52-0.45,0.55c-0.25,0.03-0.45-0.13-0.53-0.35
			c-0.33,0.29-0.74,0.49-1.21,0.54c-0.64,0.07-1.23-0.14-1.68-0.52c-0.45-0.39-0.75-0.95-0.82-1.6c-0.07-0.65,0.11-1.26,0.47-1.73
			c0.36-0.48,0.89-0.81,1.53-0.88c0.47-0.05,0.91,0.07,1.3,0.28c0.03-0.24,0.2-0.44,0.45-0.47c0.27-0.03,0.52,0.17,0.55,0.46
			L123.47,82.92z M122.47,83.03c-0.04-0.4-0.22-0.72-0.47-0.93c-0.25-0.23-0.59-0.33-0.92-0.3c-0.34,0.04-0.65,0.2-0.84,0.48
			c-0.2,0.26-0.3,0.61-0.26,1.01c0.04,0.39,0.21,0.71,0.46,0.93c0.24,0.21,0.58,0.31,0.92,0.28c0.33-0.03,0.64-0.2,0.84-0.46
			C122.41,83.77,122.51,83.42,122.47,83.03z"/>
		<path class="st5" d="M127.6,81.05c0,0.29-0.25,0.52-0.54,0.52l-0.24,0l-0.03,2.65c0.29,0,0.52,0.24,0.52,0.54
			c0,0.29-0.23,0.52-0.53,0.52c-0.58-0.01-1.05-0.49-1.04-1.06l0.03-2.65l-0.27,0c-0.29,0-0.52-0.24-0.52-0.53
			c0-0.29,0.23-0.52,0.53-0.52l0.28,0l0.02-1.38c0-0.29,0.24-0.52,0.54-0.52c0.29,0,0.52,0.23,0.52,0.53l-0.02,1.38l0.24,0
			C127.36,80.53,127.6,80.76,127.6,81.05z"/>
		<path class="st5" d="M128.6,82.9c0.16-1.28,1.28-2.24,2.57-2.09c1.23,0.14,2.09,1.17,2.02,2.45c0,0.01,0,0.03,0,0.05
			s-0.01,0.07-0.02,0.08c-0.05,0.22-0.27,0.35-0.53,0.32l-3-0.35c0.02,0.22,0.1,0.48,0.25,0.66c0.17,0.25,0.53,0.46,0.86,0.53
			c0.34,0.07,0.75,0.03,1.01-0.12c0.22-0.18,0.61-0.11,0.71,0.05c0.11,0.15,0.17,0.44-0.07,0.61c-0.51,0.37-1.09,0.5-1.76,0.43
			C129.34,85.37,128.46,84.19,128.6,82.9z M129.68,82.56l2.67,0.31c-0.05-0.39-0.47-1-1.28-1.16
			C130.27,81.65,129.8,82.18,129.68,82.56z"/>
		<path class="st5" d="M138.89,84.84l-0.45,1.71c-0.32,1.2-1.56,1.95-2.78,1.63c-0.34-0.09-0.66-0.26-0.91-0.48
			c-0.21-0.17-0.24-0.5-0.04-0.72c0.18-0.22,0.49-0.23,0.72-0.06c0.13,0.12,0.3,0.21,0.49,0.27c0.6,0.16,1.2-0.14,1.46-0.67
			c-0.39,0.14-0.85,0.17-1.3,0.05c-0.61-0.16-1.1-0.57-1.38-1.11c-0.29-0.51-0.39-1.14-0.22-1.79c0.17-0.63,0.56-1.14,1.07-1.47
			c0.5-0.31,1.13-0.43,1.74-0.27c0.48,0.12,0.86,0.38,1.13,0.71c0.1-0.21,0.35-0.32,0.59-0.26c0.28,0.07,0.43,0.35,0.36,0.62
			L138.89,84.84L138.89,84.84z M137.91,84.57c0.1-0.37,0.04-0.76-0.1-1.03c-0.17-0.32-0.42-0.53-0.77-0.62
			c-0.32-0.09-0.66-0.03-0.95,0.17c-0.28,0.16-0.52,0.47-0.61,0.84c-0.1,0.39-0.05,0.77,0.12,1.04c0.16,0.31,0.42,0.51,0.75,0.6
			c0.35,0.09,0.67,0.04,0.97-0.15C137.57,85.27,137.8,84.96,137.91,84.57z"/>
		<path class="st5" d="M142.51,84.18l-1.31,3.47c-0.1,0.27-0.39,0.4-0.66,0.3c-0.27-0.1-0.4-0.4-0.3-0.66l1.31-3.47
			c0.11-0.28,0.4-0.41,0.67-0.31C142.49,83.61,142.61,83.89,142.51,84.18z M143.12,82.57c-0.1,0.27-0.39,0.41-0.66,0.31
			c-0.27-0.1-0.4-0.4-0.29-0.67l0.07-0.19c0.1-0.27,0.4-0.4,0.66-0.3c0.28,0.1,0.4,0.4,0.3,0.66L143.12,82.57z"/>
		<path class="st5" d="M143.13,86.38c0.58-1.18,2.04-1.65,3.22-1.08c0.51,0.25,0.9,0.67,1.13,1.14c0.12,0.25,0.01,0.56-0.22,0.68
			c-0.27,0.12-0.56,0.02-0.68-0.23c-0.14-0.27-0.36-0.51-0.68-0.67c-0.69-0.34-1.54-0.05-1.87,0.61c-0.32,0.66-0.03,1.5,0.66,1.84
			c0.31,0.15,0.64,0.18,0.94,0.12c0.26-0.05,0.52,0.12,0.59,0.41c0.04,0.25-0.12,0.51-0.4,0.59c-0.5,0.08-1.07,0.04-1.58-0.21
			C143.07,88.99,142.55,87.55,143.13,86.38z"/>
	</g>
</g>
<g id="Safe_Area" class="st0">
	<circle class="st6" cx="126" cy="126" r="54"/>
</g>
</svg>
