<?xml version="1.0" encoding="utf-8"?>
<!-- Generator: Adobe Illustrator 23.0.2, SVG Export Plug-In . SVG Version: 6.00 Build 0)  -->
<svg version="1.1" xmlns="http://www.w3.org/2000/svg" xmlns:xlink="http://www.w3.org/1999/xlink" x="0px" y="0px"
	 viewBox="0 0 252 252" style="enable-background:new 0 0 252 252;" xml:space="preserve">
<style type="text/css">
	.st0{display:none;}
	.st1{display:inline;fill:#FFFFFF;stroke:#252723;stroke-miterlimit:10;}
	.st2{fill:#FFFFFF;}
	.st3{fill:#DAEEE7;}
	.st4{clip-path:url(#SVGID_2_);fill:#7D896C;}
	.st5{clip-path:url(#SVGID_2_);fill:#717D63;}
	.st6{clip-path:url(#SVGID_2_);fill:#E4C0D8;}
	.st7{clip-path:url(#SVGID_2_);fill:#C6833E;}
	.st8{display:inline;fill:none;stroke:#252723;stroke-miterlimit:10;}
</style>
<g id="Bleed" class="st0">
	<circle class="st1" cx="126" cy="126" r="72"/>
</g>
<g id="Background">
</g>
<g id="Image">
	<circle class="st2" cx="126" cy="126" r="57.66"/>
	<circle class="st3" cx="126" cy="126" r="50.01"/>
	<circle class="st2" cx="126" cy="126" r="45.64"/>
	<circle class="st3" cx="126" cy="126" r="40.51"/>
	<circle class="st2" cx="129.24" cy="127.63" r="39.89"/>
	<circle class="st3" cx="128.24" cy="131.24" r="37.27"/>
	<g>
		<g>
			<defs>
				<rect id="SVGID_1_" x="107.93" y="103.52" width="38.28" height="48.84"/>
			</defs>
			<clipPath id="SVGID_2_">
				<use xlink:href="#SVGID_1_"  style="overflow:visible;"/>
			</clipPath>
			<path class="st4" d="M107.93,135.39c0,12.79,8.57,16.97,19.14,16.97s19.14-4.18,19.14-16.97c0-12.79-8.57-23.15-19.14-23.15
				S107.93,122.6,107.93,135.39"/>
			<path class="st5" d="M126.13,113.81c-0.17,0.67,0.26,1.35,0.95,1.51c0.7,0.16,1.4-0.25,1.57-0.92c0.17-0.67-0.26-1.35-0.95-1.51
				C127,112.73,126.3,113.14,126.13,113.81"/>
			<path class="st5" d="M122.33,116.29c0,0.69,0.58,1.25,1.3,1.25s1.3-0.56,1.3-1.25s-0.58-1.25-1.3-1.25
				S122.33,115.6,122.33,116.29"/>
			<path class="st5" d="M120.13,119.12c0,0.69,0.58,1.25,1.3,1.25c0.72,0,1.3-0.56,1.3-1.25c0-0.69-0.58-1.25-1.3-1.25
				C120.71,117.87,120.13,118.43,120.13,119.12"/>
			<path class="st5" d="M118.61,122.62c0,0.69,0.58,1.25,1.3,1.25s1.3-0.56,1.3-1.25c0-0.69-0.58-1.25-1.3-1.25
				S118.61,121.93,118.61,122.62"/>
			<path class="st5" d="M116.28,126.05c0,0.69,0.58,1.25,1.3,1.25c0.72,0,1.3-0.56,1.3-1.25s-0.58-1.25-1.3-1.25
				C116.86,124.8,116.28,125.36,116.28,126.05"/>
			<path class="st5" d="M114.62,129.54c0,0.69,0.58,1.25,1.3,1.25c0.72,0,1.3-0.56,1.3-1.25c0-0.69-0.58-1.25-1.3-1.25
				C115.2,128.29,114.62,128.85,114.62,129.54"/>
			<path class="st5" d="M113.36,133.77c0.17,0.67,0.87,1.08,1.57,0.92c0.7-0.16,1.12-0.84,0.95-1.51c-0.17-0.67-0.87-1.08-1.57-0.92
				C113.61,132.42,113.19,133.09,113.36,133.77"/>
			<path class="st5" d="M111.93,137.59c0.17,0.67,0.87,1.08,1.57,0.92c0.7-0.16,1.12-0.84,0.95-1.51c-0.17-0.67-0.87-1.08-1.57-0.92
				C112.19,136.24,111.76,136.91,111.93,137.59"/>
			<path class="st5" d="M110.13,141.41c0.17,0.67,0.87,1.08,1.57,0.92c0.7-0.16,1.12-0.84,0.95-1.51c-0.17-0.67-0.87-1.08-1.57-0.92
				C110.39,140.06,109.96,140.74,110.13,141.41"/>
			<path class="st5" d="M132.9,115.78c-0.12,0.68-0.79,1.14-1.5,1.02c-0.71-0.11-1.18-0.76-1.06-1.44c0.12-0.68,0.79-1.14,1.5-1.02
				C132.55,114.46,133.02,115.1,132.9,115.78"/>
			<path class="st5" d="M134.58,118.93c-0.12,0.68-0.79,1.14-1.5,1.02c-0.71-0.11-1.18-0.76-1.07-1.44c0.12-0.68,0.79-1.14,1.5-1.02
				C134.23,117.61,134.71,118.25,134.58,118.93"/>
			<path class="st5" d="M135.48,122.62c-0.12,0.68-0.79,1.14-1.5,1.02c-0.71-0.11-1.18-0.76-1.07-1.44c0.12-0.68,0.79-1.14,1.5-1.02
				C135.12,121.3,135.6,121.94,135.48,122.62"/>
			<path class="st5" d="M137.19,126.38c-0.12,0.68-0.79,1.14-1.5,1.02c-0.71-0.11-1.18-0.76-1.07-1.44c0.12-0.68,0.79-1.14,1.5-1.02
				C136.83,125.05,137.3,125.7,137.19,126.38"/>
			<path class="st5" d="M138.22,130.09c-0.12,0.68-0.79,1.14-1.5,1.02c-0.71-0.11-1.18-0.76-1.06-1.44c0.12-0.68,0.79-1.14,1.5-1.02
				C137.86,128.76,138.34,129.41,138.22,130.09"/>
			<path class="st5" d="M138.73,134.45c-0.28,0.63-1.05,0.93-1.71,0.65c-0.66-0.27-0.96-1.01-0.68-1.64
				c0.28-0.63,1.05-0.93,1.71-0.65C138.71,133.08,139.02,133.82,138.73,134.45"/>
			<path class="st5" d="M139.48,138.45c-0.28,0.63-1.05,0.93-1.71,0.65c-0.66-0.27-0.96-1.01-0.68-1.64
				c0.28-0.63,1.05-0.93,1.71-0.65C139.46,137.08,139.76,137.81,139.48,138.45"/>
			<path class="st5" d="M139.29,143.26c-0.71-0.06-1.25-0.66-1.19-1.35c0.06-0.69,0.68-1.2,1.4-1.15s1.25,0.66,1.19,1.35
				C140.63,142.8,140.01,143.31,139.29,143.26"/>
			<path class="st5" d="M140.59,146.7c-0.72-0.06-1.25-0.66-1.19-1.35c0.06-0.69,0.68-1.2,1.4-1.14c0.71,0.06,1.25,0.66,1.19,1.35
				C141.93,146.24,141.31,146.75,140.59,146.7"/>
			<path class="st5" d="M126.8,117.87c0,0.69,0.58,1.25,1.3,1.25c0.72,0,1.3-0.56,1.3-1.25s-0.58-1.25-1.3-1.25
				C127.38,116.62,126.8,117.18,126.8,117.87"/>
			<path class="st5" d="M126.8,121.63c0,0.69,0.58,1.25,1.3,1.25c0.72,0,1.3-0.56,1.3-1.25s-0.58-1.25-1.3-1.25
				C127.38,120.38,126.8,120.94,126.8,121.63"/>
			<path class="st5" d="M127.89,126.62c0.71,0.11,1.37-0.35,1.49-1.04c0.11-0.68-0.37-1.32-1.08-1.43
				c-0.71-0.11-1.38,0.35-1.49,1.04C126.7,125.87,127.18,126.51,127.89,126.62"/>
			<path class="st5" d="M127.89,130.02c0.71,0.11,1.37-0.35,1.49-1.04c0.11-0.68-0.37-1.32-1.08-1.43
				c-0.71-0.11-1.38,0.35-1.49,1.04C126.7,129.27,127.18,129.91,127.89,130.02"/>
			<path class="st5" d="M127.89,133.61c0.71,0.11,1.37-0.35,1.49-1.04c0.11-0.68-0.37-1.32-1.08-1.43
				c-0.71-0.11-1.38,0.35-1.49,1.04C126.7,132.86,127.18,133.5,127.89,133.61"/>
			<path class="st5" d="M127.89,137.19c0.71,0.11,1.37-0.35,1.49-1.04c0.11-0.68-0.37-1.32-1.08-1.43
				c-0.71-0.11-1.38,0.35-1.49,1.04C126.7,136.44,127.18,137.08,127.89,137.19"/>
			<path class="st5" d="M127.89,140.77c0.71,0.11,1.37-0.35,1.49-1.04c0.11-0.68-0.37-1.32-1.08-1.43
				c-0.71-0.11-1.38,0.35-1.49,1.04C126.7,140.02,127.18,140.66,127.89,140.77"/>
			<path class="st5" d="M127.89,144.35c0.71,0.11,1.37-0.35,1.49-1.04c0.11-0.68-0.37-1.32-1.08-1.43
				c-0.71-0.11-1.38,0.35-1.49,1.04C126.7,143.6,127.18,144.24,127.89,144.35"/>
			<path class="st5" d="M127.89,147.94c0.71,0.11,1.37-0.35,1.49-1.04c0.11-0.68-0.37-1.32-1.08-1.43
				c-0.71-0.11-1.38,0.35-1.49,1.03C126.7,147.19,127.18,147.83,127.89,147.94"/>
			<path class="st5" d="M127.89,151.52c0.71,0.11,1.37-0.35,1.49-1.04c0.11-0.68-0.37-1.32-1.08-1.43
				c-0.71-0.11-1.38,0.35-1.49,1.03C126.7,150.77,127.18,151.41,127.89,151.52"/>
			<path class="st6" d="M125.09,108.09c2.07,2.07,3.16,4.29,2.45,4.94c-0.71,0.66-2.97-0.49-5.03-2.56
				c-2.07-2.07-3.17-4.29-2.45-4.94C120.77,104.87,123.03,106.02,125.09,108.09"/>
			<path class="st6" d="M127.66,107.88c1,2.71,1.05,5.16,0.12,5.48c-0.93,0.32-2.49-1.62-3.49-4.33c-0.99-2.71-1.05-5.16-0.12-5.48
				C125.11,103.23,126.67,105.17,127.66,107.88"/>
			<path class="st6" d="M127.22,108.91c1.66,2.39,2.34,4.75,1.52,5.28c-0.82,0.53-2.83-0.98-4.49-3.37
				c-1.66-2.39-2.34-4.75-1.51-5.28C123.55,105.01,125.56,106.52,127.22,108.91"/>
			<path class="st6" d="M130.59,108.68c0.27,2.86-0.31,5.25-1.29,5.34c-0.98,0.09-2-2.16-2.27-5.03c-0.27-2.86,0.31-5.25,1.29-5.34
				C129.31,103.57,130.32,105.82,130.59,108.68"/>
			<path class="st6" d="M130.73,110.64c-1.61,2.42-3.58,3.97-4.41,3.46c-0.83-0.51-0.21-2.89,1.4-5.31c1.6-2.42,3.58-3.97,4.41-3.46
				S132.33,108.22,130.73,110.64"/>
			<path class="st6" d="M132.15,112.39c-2.15,1.99-4.45,3.05-5.14,2.36c-0.68-0.69,0.51-2.85,2.66-4.84
				c2.15-1.99,4.45-3.05,5.14-2.36C135.5,108.23,134.3,110.4,132.15,112.39"/>
			<path class="st6" d="M130.62,111.59c-2.15,1.99-4.45,3.05-5.14,2.36c-0.68-0.69,0.51-2.85,2.66-4.84
				c2.15-1.99,4.45-3.05,5.14-2.36C133.97,107.43,132.78,109.6,130.62,111.59"/>
			<path class="st6" d="M132.46,113.94c-2.9,0.69-5.44,0.5-5.68-0.43c-0.24-0.92,1.92-2.23,4.82-2.91c2.9-0.69,5.44-0.5,5.68,0.43
				C137.52,111.95,135.36,113.25,132.46,113.94"/>
			<path class="st6" d="M132.45,116.67c-2.97,0.26-5.46-0.3-5.54-1.25c-0.09-0.95,2.25-1.92,5.22-2.18c2.97-0.26,5.46,0.3,5.54,1.25
				C137.76,115.43,135.42,116.41,132.45,116.67"/>
			<path class="st6" d="M131.62,115.66c-2.97,0.26-5.46-0.3-5.54-1.24s2.25-1.92,5.22-2.18c2.97-0.26,5.46,0.3,5.55,1.24
				C136.93,114.42,134.59,115.4,131.62,115.66"/>
			<path class="st6" d="M132.72,113.99c2.52,1.55,4.13,3.45,3.6,4.25c-0.53,0.8-3,0.2-5.52-1.35c-2.52-1.54-4.13-3.45-3.6-4.25
				C127.74,111.84,130.21,112.44,132.72,113.99"/>
			<path class="st6" d="M132.35,115.44c1.51,2.48,2.05,4.87,1.2,5.36c-0.85,0.48-2.77-1.13-4.28-3.61c-1.51-2.48-2.05-4.87-1.2-5.35
				C128.92,111.35,130.84,112.96,132.35,115.44"/>
			<path class="st6" d="M130.16,114.77c1.51,2.47,2.05,4.87,1.2,5.36c-0.85,0.48-2.77-1.13-4.28-3.61c-1.51-2.48-2.05-4.87-1.2-5.36
				C126.73,110.68,128.65,112.3,130.16,114.77"/>
			<path class="st6" d="M129.76,116c0.9,2.74,0.86,5.19-0.08,5.48c-0.94,0.29-2.43-1.7-3.33-4.44c-0.9-2.74-0.86-5.19,0.08-5.48
				C127.38,111.27,128.87,113.26,129.76,116"/>
			<path class="st6" d="M128.24,116.37c-0.74,2.78-2.11,4.85-3.07,4.62c-0.96-0.24-1.13-2.68-0.4-5.47
				c0.74-2.78,2.11-4.85,3.07-4.62C128.8,111.14,128.98,113.58,128.24,116.37"/>
			<path class="st6" d="M129.65,115.77c-0.28,2.86-1.3,5.11-2.28,5.02c-0.98-0.09-1.56-2.48-1.28-5.34c0.28-2.86,1.3-5.11,2.28-5.02
				C129.36,110.52,129.93,112.91,129.65,115.77"/>
			<path class="st6" d="M126.51,116.74c-1.96,2.17-4.15,3.43-4.89,2.8c-0.75-0.62,0.24-2.89,2.19-5.06c1.96-2.17,4.15-3.43,4.89-2.8
				S128.46,114.56,126.51,116.74"/>
			<path class="st6" d="M124.16,115.42c-2.63,1.36-5.14,1.78-5.61,0.94c-0.47-0.84,1.29-2.61,3.92-3.97
				c2.63-1.36,5.14-1.78,5.61-0.94C128.55,112.29,126.79,114.07,124.16,115.42"/>
			<path class="st6" d="M125.39,116.06c-2.63,1.36-5.14,1.78-5.61,0.94c-0.47-0.84,1.29-2.62,3.92-3.97
				c2.63-1.36,5.14-1.78,5.61-0.94C129.78,112.93,128.02,114.71,125.39,116.06"/>
			<path class="st6" d="M122.93,113.61c-2.77-0.05-4.99-1.04-4.97-2.21c0.03-1.16,2.29-2.06,5.06-2.01
				c2.77,0.05,4.99,1.04,4.97,2.21C127.96,112.77,125.7,113.67,122.93,113.61"/>
			<path class="st7" d="M130.14,110.64c1.29,1.3,1.25,3.36-0.1,4.61c-1.35,1.25-3.49,1.2-4.79-0.1c-1.29-1.3-1.25-3.36,0.1-4.61
				C126.7,109.3,128.85,109.34,130.14,110.64"/>
		</g>
	</g>
</g>
<g id="Text">
</g>
<g id="Safe_Area" class="st0">
	<circle class="st8" cx="126" cy="126" r="54"/>
</g>
</svg>
