<?xml version="1.0" encoding="utf-8"?>
<!-- Generator: Adobe Illustrator 23.0.2, SVG Export Plug-In . SVG Version: 6.00 Build 0)  -->
<svg version="1.1" xmlns="http://www.w3.org/2000/svg" xmlns:xlink="http://www.w3.org/1999/xlink" x="0px" y="0px"
	 viewBox="0 0 252 252" style="enable-background:new 0 0 252 252;" xml:space="preserve">
<style type="text/css">
	.st0{display:none;}
	.st1{display:inline;fill:#FFFFFF;stroke:#252723;stroke-miterlimit:10;}
	.st2{fill:#FFFFFF;}
	.st3{fill:#D8B48F;}
	.st4{clip-path:url(#SVGID_2_);fill:#212020;}
	.st5{clip-path:url(#SVGID_2_);fill:#FFFFFF;}
	.st6{fill:#212020;}
	.st7{clip-path:url(#SVGID_4_);fill:#212020;}
	.st8{display:inline;fill:none;stroke:#252723;stroke-miterlimit:10;}
</style>
<g id="Bleed" class="st0">
	<circle class="st1" cx="126" cy="126" r="72"/>
</g>
<g id="Background">
</g>
<g id="Image">
	<circle class="st2" cx="126" cy="126" r="57.66"/>
	<circle class="st3" cx="126" cy="126" r="50.01"/>
	<circle class="st2" cx="126" cy="126" r="45.64"/>
	<circle class="st3" cx="126" cy="126" r="40.51"/>
	<circle class="st2" cx="129.24" cy="127.63" r="39.89"/>
	<circle class="st3" cx="128.24" cy="131.24" r="37.27"/>
	<g>
		<defs>
			<rect id="SVGID_1_" x="100.73" y="102.91" width="52.49" height="56.66"/>
		</defs>
		<clipPath id="SVGID_2_">
			<use xlink:href="#SVGID_1_"  style="overflow:visible;"/>
		</clipPath>
		<path class="st4" d="M146.85,124.11c2.46,2.34,2.73,6.04,0.6,8.26c-2.12,2.22-5.83,2.12-8.29-0.21s-2.72-6.04-0.6-8.26
			C140.68,121.67,144.39,121.77,146.85,124.11"/>
		<path class="st5" d="M143.88,127.82c2.2,2.1,2.22,5.65,0.04,7.93c-2.18,2.28-5.73,2.43-7.93,0.34c-2.2-2.1-2.22-5.65-0.04-7.93
			C138.13,125.88,141.68,125.73,143.88,127.82"/>
		<path class="st4" d="M142.58,127.65c2.46,2.34,2.73,6.04,0.6,8.26c-2.12,2.22-5.83,2.12-8.29-0.21s-2.73-6.04-0.6-8.26
			C136.41,125.22,140.12,125.31,142.58,127.65"/>
		<path class="st5" d="M140.3,129.76c2.22,2.12,2.31,5.64,0.18,7.86c-2.12,2.22-5.64,2.3-7.87,0.18c-2.22-2.12-2.31-5.64-0.18-7.86
			C134.56,127.72,138.08,127.64,140.3,129.76"/>
		<path class="st4" d="M103.57,143.75c-1.7,1.88-2.71,3.96-2.84,5.59c1.68-0.86,3.24-0.99,4.13-0.19c0.54,0.49,0.76,1.27,0.69,2.21
			c1.14-0.59,2.35-1.51,3.43-2.71c2.69-2.95,3.65-6.45,2.16-7.8C109.64,139.5,106.26,140.79,103.57,143.75"/>
		<path class="st4" d="M141.33,135c0,4.38-3.22,7.92-7.18,7.92s-7.18-3.55-7.18-7.92s3.22-7.92,7.18-7.92S141.33,130.62,141.33,135"
			/>
		<path class="st5" d="M137.2,137.25c0,4.38-3.22,7.92-7.18,7.92c-3.97,0-7.19-3.55-7.19-7.92c0-4.38,3.22-7.92,7.19-7.92
			C133.98,129.33,137.2,132.88,137.2,137.25"/>
		<path class="st4" d="M136.09,136.97c0,4.38-3.22,7.92-7.18,7.92s-7.19-3.55-7.19-7.92c0-4.38,3.22-7.92,7.19-7.92
			S136.09,132.59,136.09,136.97"/>
		<path class="st4" d="M135.69,137.3c0,4.38-3.22,7.92-7.18,7.92s-7.18-3.55-7.18-7.92s3.22-7.92,7.18-7.92
			S135.69,132.93,135.69,137.3"/>
		<path class="st5" d="M131.56,139.56c0,4.38-3.22,7.92-7.18,7.92s-7.18-3.55-7.18-7.92s3.22-7.92,7.18-7.92
			S131.56,135.18,131.56,139.56"/>
		<path class="st4" d="M130.46,139.27c0,4.38-3.22,7.92-7.18,7.92c-3.97,0-7.18-3.55-7.18-7.92c0-4.38,3.22-7.92,7.18-7.92
			C127.24,131.35,130.46,134.89,130.46,139.27"/>
		<path class="st5" d="M124.82,140.56c0,4.88-3.96,8.84-8.85,8.84s-8.85-3.96-8.85-8.84s3.96-8.84,8.85-8.84
			S124.82,135.68,124.82,140.56"/>
		<path class="st4" d="M123.28,140.75c0,4.32-3.51,7.83-7.84,7.83c-4.33,0-7.83-3.5-7.83-7.83c0-4.32,3.51-7.83,7.83-7.83
			C119.77,132.93,123.28,136.43,123.28,140.75"/>
		<path class="st5" d="M127.98,139.58c0,2.68-2.14,4.86-4.78,4.86c-2.64,0-4.78-2.18-4.78-4.86s2.14-4.86,4.78-4.86
			C125.84,134.72,127.98,136.9,127.98,139.58"/>
		<path class="st5" d="M113,138.94c0,2.68-2.14,4.86-4.78,4.86c-2.64,0-4.78-2.18-4.78-4.86s2.14-4.86,4.78-4.86
			C110.86,134.08,113,136.26,113,138.94"/>
		<path class="st4" d="M126.19,154.12c-0.63,2.45-1.82,4.44-3.11,5.45c-0.21-1.87-0.96-3.24-2.11-3.55
			c-0.71-0.18-1.48,0.07-2.23,0.64c-0.14-1.28-0.03-2.79,0.38-4.36c0.99-3.87,3.38-6.59,5.33-6.09
			C126.4,146.72,127.18,150.25,126.19,154.12"/>
		<path class="st4" d="M121.4,143.3c-2.23-0.69-3.48-3.05-2.8-5.28c0.69-2.23,3.05-3.48,5.29-2.79c2.23,0.69,3.48,3.05,2.79,5.28
			C126,142.74,123.63,143.99,121.4,143.3"/>
		<path class="st5" d="M120.4,141.67c-1.09-0.34-1.71-1.49-1.37-2.58c0.34-1.09,1.49-1.7,2.59-1.37c1.09,0.34,1.7,1.49,1.37,2.58
			C122.65,141.39,121.5,142.01,120.4,141.67"/>
		<path class="st4" d="M106.89,142.98c-2.23-0.69-3.48-3.05-2.79-5.28c0.69-2.23,3.05-3.48,5.29-2.79c2.23,0.69,3.48,3.05,2.79,5.28
			C111.49,142.42,109.12,143.67,106.89,142.98"/>
		<path class="st5" d="M105.89,141.35c-1.09-0.34-1.7-1.49-1.37-2.58c0.34-1.09,1.5-1.7,2.59-1.37c1.09,0.34,1.7,1.49,1.37,2.58
			C108.14,141.07,106.98,141.68,105.89,141.35"/>
		<path class="st4" d="M151.32,123.28c-0.9,2.05-3.8,2.75-6.49,1.58c-2.69-1.18-4.14-3.79-3.24-5.83c0.9-2.05,3.8-2.75,6.49-1.58
			C150.77,118.63,152.22,121.24,151.32,123.28"/>
		<path class="st4" d="M153.21,116.66c-0.19,2.76-2.15,4.87-4.38,4.71c-2.23-0.15-3.89-2.51-3.7-5.27c0.19-2.76,2.15-4.87,4.38-4.71
			C151.74,111.54,153.39,113.9,153.21,116.66"/>
		<path class="st4" d="M147.07,106.18c2.61,0.92,4.11,3.38,3.37,5.49c-0.75,2.11-3.47,3.06-6.08,2.14
			c-2.61-0.92-4.11-3.38-3.36-5.49C141.75,106.22,144.47,105.26,147.07,106.18"/>
		<path class="st4" d="M137.24,102.93c3.46-0.19,6.37,1.47,6.49,3.7c0.12,2.23-2.59,4.19-6.05,4.38c-3.46,0.19-6.37-1.46-6.49-3.7
			S133.78,103.12,137.24,102.93"/>
		<path class="st4" d="M128.75,110.53c0.15-2.12,1.38-3.77,2.75-3.68c1.37,0.09,2.37,1.89,2.22,4.02c-0.15,2.12-1.38,3.77-2.75,3.68
			C129.6,114.45,128.61,112.65,128.75,110.53"/>
	</g>
	<polygon class="st6" points="134.97,118.07 129.95,113.54 133.55,111.47 	"/>
	<g>
		<defs>
			<rect id="SVGID_3_" x="100.73" y="102.91" width="52.49" height="56.66"/>
		</defs>
		<clipPath id="SVGID_4_">
			<use xlink:href="#SVGID_3_"  style="overflow:visible;"/>
		</clipPath>
		<path class="st7" d="M143.59,141.51c0,1.27-1.64,2.3-3.66,2.3s-3.65-1.03-3.65-2.3s1.64-2.3,3.65-2.3S143.59,140.24,143.59,141.51
			"/>
		<path class="st7" d="M138.9,146.16c0,1.65-2.13,2.99-4.76,2.99c-2.63,0-4.76-1.34-4.76-2.99s2.13-2.99,4.76-2.99
			C136.77,143.16,138.9,144.5,138.9,146.16"/>
		<path class="st7" d="M147.67,135.84c0,0.97-1.25,1.76-2.8,1.76c-1.55,0-2.8-0.79-2.8-1.76c0-0.97,1.25-1.76,2.8-1.76
			C146.41,134.08,147.67,134.87,147.67,135.84"/>
	</g>
</g>
<g id="Text">
</g>
<g id="Safe_Area" class="st0">
	<circle class="st8" cx="126" cy="126" r="54"/>
</g>
</svg>
