<?xml version="1.0" encoding="utf-8"?>
<!-- Generator: Adobe Illustrator 23.0.2, SVG Export Plug-In . SVG Version: 6.00 Build 0)  -->
<svg version="1.1" xmlns="http://www.w3.org/2000/svg" xmlns:xlink="http://www.w3.org/1999/xlink" x="0px" y="0px"
	 viewBox="0 0 252 252" style="enable-background:new 0 0 252 252;" xml:space="preserve">
<style type="text/css">
	.st0{display:none;}
	.st1{display:inline;fill:#FFFFFF;stroke:#252723;stroke-miterlimit:10;}
	.st2{fill:#FFFFFF;}
	.st3{fill:#DBE9F6;}
	.st4{fill:#6E4139;}
	.st5{fill:#845E39;}
	.st6{fill:#837979;}
	.st7{display:inline;fill:none;stroke:#252723;stroke-miterlimit:10;}
</style>
<g id="Bleed" class="st0">
	<circle class="st1" cx="126" cy="126" r="72"/>
</g>
<g id="Background">
</g>
<g id="Image">
	<circle class="st2" cx="126" cy="126" r="57.66"/>
	<circle class="st3" cx="126" cy="126" r="50.01"/>
	<circle class="st2" cx="126" cy="126" r="40.72"/>
	<circle class="st3" cx="126" cy="126" r="36"/>
	<g>
		<ellipse class="st4" cx="125.89" cy="142.18" rx="3.56" ry="13.17"/>
		<path class="st5" d="M125.89,97.44c-9.92,0-17.96,8.04-17.96,17.96c0,9.92,8.04,17.96,17.96,17.96s17.96-8.04,17.96-17.96
			C143.85,105.48,135.81,97.44,125.89,97.44z M125.89,127.68c-6.78,0-12.28-5.5-12.28-12.28c0-6.78,5.5-12.28,12.28-12.28
			c6.78,0,12.28,5.5,12.28,12.28C138.17,122.18,132.67,127.68,125.89,127.68z"/>
		<circle class="st6" cx="129.42" cy="109.34" r="1.74"/>
		<path class="st6" d="M128.47,124.74c-0.73,0.12-1.45,0.14-2.16,0.08c3.68-1.55,5.98-5.46,5.33-9.58c-0.16-1.03-0.5-1.99-0.97-2.85
			c1.07-0.75,1.9-1.8,2.36-3.04c1.47,1.32,2.51,3.13,2.84,5.23C136.64,119.42,133.33,123.97,128.47,124.74z"/>
	</g>
</g>
<g id="Text">
	<g>
		<path class="st2" d="M108.65,85.42c-0.61-1.78,0.37-3.75,2.16-4.38c0.79-0.28,1.6-0.27,2.32-0.03c0.28,0.1,0.42,0.41,0.34,0.69
			c-0.1,0.29-0.42,0.44-0.68,0.35c-0.51-0.18-1.06-0.18-1.62,0.01c-0.62,0.22-1.11,0.67-1.39,1.21c-0.26,0.55-0.32,1.18-0.11,1.79
			c0.21,0.61,0.66,1.08,1.2,1.33c0.56,0.25,1.22,0.3,1.84,0.08c0.56-0.19,0.98-0.53,1.27-1c0.15-0.22,0.5-0.31,0.75-0.15
			c0.24,0.17,0.32,0.5,0.16,0.75c-0.41,0.64-1.04,1.15-1.83,1.42C111.28,88.13,109.29,87.21,108.65,85.42z"/>
		<path class="st2" d="M118.58,86.08c-1.07,0.19-2.11-0.52-2.3-1.59l-0.41-2.24c-0.05-0.26,0.13-0.54,0.4-0.59
			c0.28-0.05,0.54,0.14,0.59,0.41l0.41,2.24c0.1,0.53,0.59,0.88,1.13,0.78c0.54-0.1,0.9-0.6,0.81-1.13l-0.41-2.24
			c-0.05-0.26,0.12-0.53,0.4-0.58c0.26-0.05,0.55,0.14,0.6,0.4l0.41,2.23C120.39,84.84,119.65,85.88,118.58,86.08z"/>
		<path class="st2" d="M124.94,81.13c0.02,0.27-0.19,0.52-0.47,0.53c-0.22,0.01-0.4,0.08-0.56,0.22c-0.17,0.12-0.31,0.29-0.41,0.48
			c-0.21,0.32-0.3,0.68-0.34,0.82l0.11,1.8c0.02,0.28-0.21,0.52-0.49,0.54c-0.28,0.02-0.52-0.2-0.53-0.47l-0.23-3.74
			c-0.02-0.27,0.2-0.51,0.47-0.52c0.28-0.02,0.54,0.19,0.55,0.46l0,0.07c0.05-0.07,0.12-0.15,0.19-0.2c0.3-0.23,0.7-0.42,1.17-0.44
			C124.69,80.65,124.92,80.86,124.94,81.13z"/>
		<path class="st2" d="M127.43,81.2l-0.07,3.71c-0.01,0.28-0.23,0.51-0.52,0.5c-0.28-0.01-0.51-0.24-0.5-0.52l0.07-3.71
			c0.01-0.3,0.24-0.52,0.52-0.51C127.22,80.68,127.43,80.9,127.43,81.2z M127.46,79.48c-0.01,0.28-0.23,0.52-0.52,0.51
			c-0.29-0.01-0.51-0.25-0.5-0.53l0-0.2c0.01-0.29,0.24-0.51,0.52-0.5c0.29,0.01,0.51,0.24,0.5,0.52L127.46,79.48z"/>
		<path class="st2" d="M129.35,84.81c-0.35-0.46-0.53-1.08-0.45-1.74c0.08-0.64,0.39-1.17,0.85-1.57c0.48-0.39,1.06-0.6,1.71-0.52
			c0.62,0.08,1.16,0.42,1.49,0.91c0.37,0.5,0.54,1.09,0.46,1.73c-0.08,0.66-0.39,1.22-0.86,1.58c-0.44,0.4-1.04,0.6-1.66,0.52
			C130.24,85.65,129.72,85.31,129.35,84.81z M129.94,83.2c-0.05,0.41,0.03,0.75,0.22,1.04c0.21,0.25,0.5,0.42,0.86,0.46
			c0.33,0.04,0.65-0.04,0.91-0.24c0.27-0.24,0.44-0.55,0.49-0.95c0.05-0.39-0.04-0.74-0.25-1.03c-0.21-0.24-0.49-0.42-0.82-0.47
			c-0.36-0.04-0.69,0.07-0.95,0.25C130.15,82.49,129.98,82.81,129.94,83.2z"/>
		<path class="st2" d="M136.18,86.7c-1.05-0.28-1.69-1.37-1.41-2.41l0.58-2.2c0.07-0.26,0.35-0.43,0.62-0.36
			c0.28,0.07,0.43,0.36,0.36,0.62l-0.58,2.2c-0.14,0.52,0.17,1.05,0.69,1.18c0.53,0.14,1.06-0.16,1.21-0.68l0.58-2.2
			c0.07-0.26,0.33-0.43,0.61-0.36c0.26,0.07,0.44,0.36,0.37,0.62l-0.58,2.2C138.34,86.35,137.23,86.98,136.18,86.7z"/>
		<path class="st2" d="M140.05,86.44c0.24-0.15,0.56-0.05,0.69,0.19c0.15,0.29,0.47,0.65,0.82,0.78c0.24,0.1,0.49,0.1,0.67,0.07
			c0.17-0.06,0.24-0.13,0.27-0.2c0.02-0.04,0.02-0.07,0.01-0.1c0-0.03-0.02-0.08-0.07-0.15c-0.09-0.14-0.31-0.34-0.61-0.53l-0.01,0
			c-0.25-0.16-0.49-0.34-0.68-0.54c-0.19-0.21-0.34-0.45-0.4-0.75c-0.03-0.2-0.01-0.41,0.07-0.62c0.16-0.41,0.53-0.66,0.91-0.76
			c0.39-0.09,0.81-0.06,1.21,0.11c0.61,0.24,0.93,0.71,1.13,1.01c0.16,0.23,0.1,0.54-0.12,0.71c-0.23,0.15-0.54,0.1-0.7-0.14
			c-0.21-0.3-0.4-0.54-0.68-0.65c-0.22-0.09-0.44-0.1-0.59-0.05c-0.15,0.03-0.21,0.1-0.22,0.15c-0.01,0.04-0.02,0.04-0.01,0.08
			c0,0.02,0.01,0.07,0.06,0.13c0.08,0.12,0.28,0.3,0.56,0.47l0.01,0.01l0.01,0c0.27,0.17,0.51,0.36,0.72,0.58
			c0.2,0.2,0.37,0.46,0.42,0.77c0.04,0.22,0.02,0.45-0.07,0.65c-0.17,0.43-0.56,0.7-0.96,0.8c-0.41,0.09-0.86,0.07-1.29-0.11
			c-0.69-0.28-1.09-0.81-1.33-1.24C139.72,86.88,139.81,86.56,140.05,86.44z"/>
	</g>
	<g>
		<path d="M107.82,85.24c-0.62-1.78,0.35-3.75,2.14-4.4c0.79-0.28,1.6-0.28,2.32-0.04c0.28,0.1,0.43,0.4,0.34,0.69
			c-0.1,0.29-0.42,0.44-0.68,0.35c-0.51-0.18-1.06-0.18-1.62,0.02c-0.62,0.22-1.1,0.67-1.38,1.22c-0.26,0.56-0.32,1.18-0.1,1.79
			c0.22,0.61,0.67,1.08,1.21,1.33c0.56,0.24,1.22,0.29,1.84,0.07c0.56-0.2,0.98-0.54,1.27-1.01c0.15-0.23,0.5-0.31,0.75-0.16
			c0.24,0.17,0.32,0.5,0.17,0.75c-0.41,0.64-1.03,1.16-1.82,1.44C110.47,87.93,108.47,87.02,107.82,85.24z"/>
		<path d="M117.75,85.84c-1.07,0.2-2.11-0.51-2.31-1.58l-0.42-2.23c-0.05-0.26,0.13-0.54,0.4-0.59c0.28-0.05,0.54,0.14,0.59,0.4
			l0.42,2.23c0.1,0.53,0.6,0.87,1.13,0.77c0.54-0.1,0.89-0.6,0.8-1.14l-0.42-2.23c-0.05-0.26,0.11-0.53,0.39-0.59
			c0.26-0.05,0.55,0.14,0.6,0.4l0.42,2.23C119.56,84.59,118.83,85.64,117.75,85.84z"/>
		<path d="M124.09,80.86c0.02,0.27-0.18,0.52-0.47,0.54c-0.22,0.01-0.4,0.08-0.56,0.22c-0.17,0.13-0.3,0.3-0.41,0.48
			c-0.21,0.32-0.3,0.69-0.34,0.82l0.12,1.8c0.02,0.28-0.2,0.52-0.49,0.54c-0.27,0.02-0.52-0.19-0.54-0.47l-0.25-3.74
			c-0.02-0.28,0.19-0.51,0.47-0.53c0.28-0.02,0.54,0.18,0.55,0.46l0,0.07c0.05-0.07,0.12-0.15,0.19-0.2c0.3-0.23,0.7-0.43,1.17-0.45
			C123.84,80.38,124.07,80.58,124.09,80.86z"/>
		<path d="M126.58,80.92l-0.05,3.71c0,0.28-0.23,0.51-0.52,0.51c-0.29,0-0.51-0.24-0.51-0.52l0.05-3.71c0-0.3,0.24-0.52,0.52-0.52
			C126.36,80.39,126.58,80.61,126.58,80.92z M126.6,79.2c0,0.28-0.23,0.52-0.52,0.52c-0.29,0-0.51-0.24-0.51-0.53l0-0.2
			c0-0.29,0.24-0.51,0.52-0.51c0.29,0,0.51,0.24,0.51,0.52L126.6,79.2z"/>
		<path d="M128.52,84.51c-0.36-0.46-0.53-1.08-0.46-1.74c0.08-0.64,0.39-1.17,0.84-1.58c0.48-0.39,1.06-0.6,1.71-0.53
			c0.62,0.07,1.16,0.41,1.49,0.9c0.37,0.5,0.54,1.09,0.47,1.73c-0.08,0.66-0.38,1.22-0.85,1.58c-0.44,0.4-1.04,0.61-1.66,0.53
			C129.41,85.35,128.89,85.01,128.52,84.51z M129.09,82.9c-0.05,0.41,0.04,0.75,0.22,1.04c0.21,0.25,0.51,0.41,0.87,0.46
			c0.33,0.04,0.65-0.05,0.91-0.25c0.27-0.24,0.44-0.55,0.49-0.96c0.04-0.39-0.05-0.74-0.25-1.02c-0.21-0.24-0.5-0.42-0.83-0.46
			c-0.36-0.04-0.69,0.07-0.95,0.25C129.3,82.19,129.14,82.51,129.09,82.9z"/>
		<path d="M135.35,86.37c-1.05-0.27-1.69-1.36-1.42-2.41l0.56-2.2c0.07-0.26,0.35-0.43,0.61-0.36c0.28,0.07,0.43,0.36,0.36,0.61
			l-0.56,2.2c-0.13,0.52,0.17,1.04,0.7,1.18c0.53,0.14,1.06-0.17,1.21-0.69l0.56-2.2c0.07-0.26,0.33-0.44,0.6-0.37
			c0.26,0.07,0.44,0.36,0.37,0.62l-0.56,2.2C137.52,86,136.41,86.64,135.35,86.37z"/>
		<path d="M139.22,86.08c0.24-0.15,0.56-0.05,0.69,0.19c0.15,0.29,0.47,0.65,0.82,0.77c0.24,0.09,0.49,0.1,0.67,0.07
			c0.17-0.06,0.24-0.13,0.26-0.2c0.02-0.04,0.02-0.07,0.01-0.1c0-0.03-0.02-0.08-0.07-0.15c-0.09-0.14-0.32-0.34-0.61-0.53l-0.01,0
			c-0.25-0.16-0.49-0.34-0.68-0.53c-0.19-0.21-0.34-0.45-0.41-0.75c-0.04-0.2-0.01-0.41,0.07-0.62c0.16-0.41,0.53-0.66,0.9-0.77
			c0.39-0.09,0.81-0.06,1.22,0.1c0.61,0.24,0.93,0.7,1.14,1.01c0.16,0.23,0.1,0.54-0.12,0.71c-0.23,0.16-0.54,0.1-0.7-0.13
			c-0.21-0.3-0.4-0.54-0.69-0.65c-0.22-0.09-0.44-0.09-0.59-0.05c-0.15,0.03-0.21,0.1-0.22,0.15c-0.01,0.04-0.02,0.04-0.01,0.08
			c0,0.02,0.01,0.07,0.06,0.13c0.08,0.12,0.28,0.29,0.56,0.47l0,0.01l0.01,0c0.27,0.17,0.51,0.36,0.72,0.58
			c0.2,0.2,0.37,0.46,0.42,0.77c0.04,0.22,0.02,0.45-0.06,0.65c-0.17,0.43-0.55,0.7-0.96,0.81c-0.41,0.1-0.86,0.07-1.29-0.1
			c-0.69-0.28-1.09-0.81-1.33-1.23C138.89,86.52,138.99,86.21,139.22,86.08z"/>
	</g>
</g>
<g id="Safe_Area" class="st0">
	<circle class="st7" cx="126" cy="126" r="54"/>
</g>
</svg>
