<?xml version="1.0" encoding="utf-8"?>
<!-- Generator: Adobe Illustrator 23.0.2, SVG Export Plug-In . SVG Version: 6.00 Build 0)  -->
<svg version="1.1" id="Layer_1" xmlns="http://www.w3.org/2000/svg" xmlns:xlink="http://www.w3.org/1999/xlink" x="0px" y="0px"
	 viewBox="0 0 500 500" style="enable-background:new 0 0 500 500;" xml:space="preserve">
<style type="text/css">
	.st0{fill:#D5DAE5;}
	.st1{fill:#FFFFFF;}
	.st2{fill:#C0BFD7;}
	.st3{enable-background:new    ;}
	.st4{fill:#272926;}
	.st5{clip-path:url(#SVGID_2_);fill:#454A6E;}
	.st6{clip-path:url(#SVGID_4_);fill:#646DA2;}
	.st7{clip-path:url(#SVGID_6_);fill:#FFFFFF;}
	.st8{clip-path:url(#SVGID_8_);fill:#EFD479;}
	.st9{clip-path:url(#SVGID_10_);fill:#DFB06D;}
	.st10{clip-path:url(#SVGID_12_);fill:#FFFFFF;}
	.st11{clip-path:url(#SVGID_14_);fill:#FFFFFF;}
	.st12{clip-path:url(#SVGID_16_);fill:#FFFFFF;}
	.st13{clip-path:url(#SVGID_18_);fill:#FFFFFF;}
	.st14{clip-path:url(#SVGID_20_);fill:#FFFFFF;}
	.st15{clip-path:url(#SVGID_22_);fill:#FFFFFF;}
	.st16{clip-path:url(#SVGID_24_);fill:#FFFFFF;}
	.st17{clip-path:url(#SVGID_26_);fill:#FFFFFF;}
	.st18{clip-path:url(#SVGID_28_);fill:#272926;}
	.st19{clip-path:url(#SVGID_30_);fill:#272926;}
	.st20{clip-path:url(#SVGID_32_);fill:#272926;}
	.st21{clip-path:url(#SVGID_34_);fill:#272926;}
	.st22{clip-path:url(#SVGID_36_);fill:#272926;}
	.st23{clip-path:url(#SVGID_38_);fill:#272926;}
	.st24{clip-path:url(#SVGID_40_);fill:#272926;}
	.st25{clip-path:url(#SVGID_42_);fill:#272926;}
	.st26{clip-path:url(#SVGID_44_);fill:#272926;}
	.st27{clip-path:url(#SVGID_46_);fill:#272926;}
	.st28{clip-path:url(#SVGID_48_);fill:#272926;}
	.st29{clip-path:url(#SVGID_50_);fill:#272926;}
	.st30{clip-path:url(#SVGID_52_);fill:#FFFFFF;}
	.st31{clip-path:url(#SVGID_54_);fill:#FFFFFF;}
	.st32{clip-path:url(#SVGID_56_);fill:#272926;}
	.st33{clip-path:url(#SVGID_58_);fill:#FFFFFF;}
	.st34{clip-path:url(#SVGID_60_);fill:#272926;}
	.st35{clip-path:url(#SVGID_62_);fill:#FFFFFF;}
	.st36{clip-path:url(#SVGID_64_);fill:#272926;}
	.st37{clip-path:url(#SVGID_66_);fill:#272926;}
	.st38{clip-path:url(#SVGID_68_);fill:#FFFFFF;}
	.st39{clip-path:url(#SVGID_70_);fill:#FFFFFF;}
	.st40{clip-path:url(#SVGID_72_);fill:#FFFFFF;}
	.st41{clip-path:url(#SVGID_74_);fill:#FFFFFF;}
	.st42{clip-path:url(#SVGID_76_);fill:#272926;}
	.st43{clip-path:url(#SVGID_78_);fill:#272926;}
	.st44{clip-path:url(#SVGID_80_);fill:#272926;}
	.st45{clip-path:url(#SVGID_82_);fill:#272926;}
	.st46{clip-path:url(#SVGID_84_);fill:#272926;}
	.st47{clip-path:url(#SVGID_86_);fill:#FFFFFF;}
	.st48{clip-path:url(#SVGID_88_);fill:#272926;}
	.st49{clip-path:url(#SVGID_90_);fill:#FFFFFF;}
	.st50{clip-path:url(#SVGID_92_);fill:#272926;}
	.st51{fill:#EFD479;}
	.st52{fill:#DFB06D;}
</style>
<g id="Background">
	<rect class="st0" width="500" height="500"/>
</g>
<g id="Gemini">
	<g>
		<rect x="103.44" y="41.07" class="st1" width="293.12" height="417.86"/>
		<rect x="103.44" y="385.45" class="st2" width="29.48" height="43.65"/>
		<rect x="233.56" y="385.45" class="st2" width="163" height="43.65"/>
		<g class="st3">
			<path class="st4" d="M157.56,417.93l-1.82,2.52c-0.05,0.07-0.11,0.09-0.16,0.09h-0.02c-0.07,0-0.14-0.02-0.18-0.09l-1.82-2.52
				v4.7c0,0.11-0.09,0.2-0.2,0.2s-0.2-0.09-0.2-0.2v-5.27c0-0.07,0.02-0.11,0.09-0.16c0,0,0,0,0.02-0.02
				c0.09-0.07,0.2-0.05,0.27,0.05l2.04,2.82l2.04-2.82c0.07-0.09,0.18-0.11,0.27-0.05c0.02,0.02,0.05,0.05,0.07,0.07
				c0.02,0.02,0.02,0.07,0.02,0.11v5.27c0,0.11-0.09,0.2-0.2,0.2s-0.2-0.09-0.2-0.2v-4.7L157.56,417.93L157.56,417.93z"/>
		</g>
		<g class="st3">
			<path class="st4" d="M163.31,419v3.61c0,0.11-0.09,0.2-0.2,0.2s-0.2-0.09-0.2-0.2v-0.59c-0.34,0.48-0.88,0.79-1.52,0.79
				c-1.05,0-1.89-0.89-1.89-1.98c0-1.09,0.84-2,1.89-2c0.61,0,1.14,0.32,1.52,0.79v-0.59c0-0.11,0.09-0.2,0.2-0.2
				S163.31,418.89,163.31,419z M162.9,420.8c0-0.89-0.68-1.63-1.52-1.63c-0.8,0-1.52,0.71-1.52,1.63s0.68,1.61,1.52,1.61
				C162.22,422.41,162.9,421.72,162.9,420.8z"/>
		</g>
		<g class="st3">
			<path class="st4" d="M164.88,419c0-0.11,0.09-0.18,0.18-0.18c0.11,0,0.2,0.09,0.2,0.18v2.16c0,0.68,0.54,1.23,1.21,1.23
				c0.68,0,1.23-0.54,1.23-1.23V419c0-0.05,0-0.07,0.02-0.09v-0.02c0,0,0,0,0.02,0c0.02-0.02,0.05-0.05,0.07-0.05h0.02h0.02h0.02
				h0.02c0.02,0,0.07,0.02,0.09,0.05s0.05,0.05,0.05,0.07c0.02,0.02,0.02,0.07,0.02,0.09v2.16v0.07v1.23c0,1.04-0.86,1.88-1.89,1.88
				c-0.29,0-0.57-0.07-0.84-0.18c-0.09-0.07-0.14-0.18-0.09-0.27c0.05-0.09,0.16-0.11,0.25-0.09c0.2,0.09,0.43,0.16,0.66,0.16
				c0.84,0,1.52-0.66,1.52-1.48v-0.27c-0.29,0.34-0.75,0.57-1.23,0.57c-0.88,0-1.63-0.71-1.63-1.63v-2.18h0.09V419z"/>
			<path class="st4" d="M172.12,422.45l2.66-2.41c0.32-0.29,0.5-0.68,0.5-1.09c0-0.34-0.14-0.7-0.38-0.96
				c-0.29-0.32-0.68-0.48-1.09-0.48c-0.36,0-0.7,0.11-1,0.38l-0.27,0.25c-0.09,0.09-0.2,0.07-0.27,0c-0.09-0.09-0.07-0.23,0-0.27
				l0.27-0.27c0.36-0.32,0.8-0.48,1.27-0.48c0.5,0,1,0.2,1.38,0.61c0.34,0.36,0.5,0.8,0.5,1.23c0,0.5-0.2,1.02-0.61,1.39l-2.27,2.07
				h2.7c0.11,0,0.2,0.09,0.2,0.2c0,0.11-0.09,0.2-0.2,0.2h-3.18h-0.02c-0.07,0-0.11-0.02-0.14-0.07
				C172.05,422.66,172.05,422.55,172.12,422.45z"/>
			<path class="st4" d="M177.87,417.68l-0.8,0.48c-0.02,0.02-0.07,0.02-0.09,0.02c-0.07,0-0.14-0.05-0.18-0.09
				c-0.07-0.11-0.02-0.23,0.07-0.27l1.11-0.68c0.09-0.05,0.23-0.02,0.27,0.07c0.02,0.05,0.02,0.09,0.02,0.14v5.25
				c0,0.11-0.09,0.2-0.2,0.2s-0.2-0.09-0.2-0.2v-4.91h0V417.68z"/>
			<path class="st4" d="M182.2,419.98c0-0.09,0.07-0.14,0.16-0.14h1.73c0.09,0,0.16,0.07,0.16,0.14c0,0.09-0.07,0.16-0.16,0.16
				h-1.73C182.27,420.13,182.2,420.07,182.2,419.98z"/>
			<path class="st4" d="M187.93,421.21c0.11-0.02,0.23,0.02,0.25,0.11c0.2,0.63,0.79,1.09,1.47,1.05c0.86,0,1.54-0.68,1.54-1.54
				v-3.59c0-0.11,0.09-0.2,0.2-0.2s0.2,0.09,0.2,0.2v3.59c0,1.09-0.86,1.95-1.95,1.95c-0.86,0-1.61-0.57-1.84-1.32
				C187.77,421.38,187.84,421.27,187.93,421.21z"/>
		</g>
		<g class="st3">
			<path class="st4" d="M192.93,419c0-0.11,0.09-0.2,0.2-0.2s0.2,0.09,0.2,0.2v2.16c0,0.68,0.54,1.23,1.21,1.23
				c0.68,0,1.23-0.57,1.23-1.23V419c0-0.11,0.09-0.2,0.2-0.2s0.2,0.09,0.2,0.2v2.16c0,0.89-0.71,1.63-1.64,1.63
				c-0.89,0-1.63-0.71-1.63-1.63V419H192.93z"/>
		</g>
		<g class="st3">
			<path class="st4" d="M200.69,420.45c0-0.68-0.54-1.21-1.23-1.21c-0.68,0-1.21,0.57-1.23,1.21v2.16v0.02
				c0,0.05-0.02,0.07-0.05,0.09c-0.02,0.05-0.09,0.07-0.14,0.07h-0.05c-0.07-0.02-0.11-0.07-0.14-0.11v-0.02v-0.02v-0.05v-2.16
				v-0.07V419c0-0.11,0.09-0.2,0.2-0.2s0.18,0.09,0.18,0.2v0.38c0.29-0.34,0.75-0.59,1.23-0.59c0.89,0,1.63,0.71,1.63,1.63v2.16
				c0,0.11-0.09,0.2-0.2,0.2s-0.2-0.09-0.2-0.2v-2.13H200.69z"/>
			<path class="st4" d="M204.96,422.45l2.66-2.41c0.32-0.29,0.5-0.68,0.5-1.09c0-0.34-0.14-0.7-0.38-0.96
				c-0.29-0.32-0.68-0.48-1.09-0.48c-0.36,0-0.7,0.11-1,0.38l-0.27,0.25c-0.09,0.09-0.2,0.07-0.27,0c-0.09-0.09-0.07-0.23,0-0.27
				l0.27-0.27c0.36-0.32,0.8-0.48,1.27-0.48c0.5,0,1,0.2,1.38,0.61c0.34,0.36,0.5,0.8,0.5,1.23c0,0.5-0.2,1.02-0.61,1.39l-2.27,2.07
				h2.7c0.11,0,0.2,0.09,0.2,0.2c0,0.11-0.09,0.2-0.2,0.2h-3.18h-0.02c-0.07,0-0.11-0.02-0.14-0.07
				C204.87,422.66,204.87,422.55,204.96,422.45z"/>
			<path class="st4" d="M209.85,419.95c0-0.77,0.2-1.47,0.54-1.98c0.36-0.5,0.86-0.86,1.43-0.86c0.57,0,1.09,0.36,1.43,0.86
				c0.34,0.52,0.57,1.21,0.57,1.98s-0.2,1.47-0.57,1.98c-0.36,0.52-0.86,0.86-1.43,0.86c-0.57,0-1.09-0.34-1.43-0.86
				C210.03,421.41,209.85,420.71,209.85,419.95z M210.23,419.95c0,0.7,0.18,1.32,0.48,1.79c0.29,0.43,0.68,0.68,1.09,0.68
				c0.41,0,0.79-0.25,1.09-0.68c0.29-0.45,0.5-1.05,0.5-1.79c0-0.71-0.2-1.32-0.5-1.79c-0.29-0.45-0.68-0.68-1.09-0.68
				c-0.41,0-0.79,0.25-1.09,0.68C210.43,418.62,210.23,419.25,210.23,419.95z"/>
		</g>
		<g>
			<g>
				<g>
					<g>
						<g>
							<defs>
								<rect id="SVGID_1_" x="129.9" y="130.6" width="240.2" height="246.31"/>
							</defs>
							<clipPath id="SVGID_2_">
								<use xlink:href="#SVGID_1_"  style="overflow:visible;"/>
							</clipPath>
							<path class="st5" d="M210.89,198.67c-5.31,16.46-22.94,25.5-39.4,20.21c-16.46-5.31-25.5-22.94-20.21-39.4
								c5.31-16.46,22.94-25.5,39.4-20.21C207.14,164.58,216.18,182.21,210.89,198.67"/>
						</g>
					</g>
				</g>
				<g>
					<g>
						<g>
							<defs>
								<rect id="SVGID_3_" x="129.9" y="130.6" width="240.2" height="246.31"/>
							</defs>
							<clipPath id="SVGID_4_">
								<use xlink:href="#SVGID_3_"  style="overflow:visible;"/>
							</clipPath>
							<path class="st6" d="M216.5,198.85c-5.31,16.46-22.94,25.5-39.4,20.21c-16.46-5.31-25.5-22.94-20.21-39.4
								c5.31-16.46,22.94-25.5,39.4-20.21C212.75,164.76,221.81,182.39,216.5,198.85"/>
						</g>
					</g>
				</g>
				<g>
					<g>
						<g>
							<defs>
								<rect id="SVGID_5_" x="129.9" y="130.6" width="240.2" height="246.31"/>
							</defs>
							<clipPath id="SVGID_6_">
								<use xlink:href="#SVGID_5_"  style="overflow:visible;"/>
							</clipPath>
							<path class="st7" d="M227.63,196.79c-5.31,16.46-22.94,25.5-39.4,20.21c-16.46-5.29-25.5-22.94-20.21-39.4
								s22.94-25.5,39.4-20.21C223.9,162.7,232.94,180.34,227.63,196.79"/>
						</g>
					</g>
				</g>
				<g>
					<g>
						<g>
							<defs>
								<rect id="SVGID_7_" x="129.9" y="130.6" width="240.2" height="246.31"/>
							</defs>
							<clipPath id="SVGID_8_">
								<use xlink:href="#SVGID_7_"  style="overflow:visible;"/>
							</clipPath>
							<path class="st8" d="M243.44,185.13c9.24-14.61,28.59-18.94,43.2-9.7c14.61,9.24,18.94,28.59,9.7,43.2s-28.59,18.94-43.2,9.7
								C238.55,219.07,234.21,199.72,243.44,185.13"/>
						</g>
					</g>
				</g>
				<g>
					<g>
						<g>
							<defs>
								<rect id="SVGID_9_" x="129.9" y="130.6" width="240.2" height="246.31"/>
							</defs>
							<clipPath id="SVGID_10_">
								<use xlink:href="#SVGID_9_"  style="overflow:visible;"/>
							</clipPath>
							<path class="st9" d="M241.73,187.99c8.63-13.61,26.67-17.69,40.29-9.04s17.69,26.67,9.04,40.29s-26.67,17.69-40.29,9.04
								C237.15,219.64,233.1,201.6,241.73,187.99"/>
						</g>
					</g>
				</g>
				<g>
					<g>
						<g>
							<defs>
								<rect id="SVGID_11_" x="129.9" y="130.6" width="240.2" height="246.31"/>
							</defs>
							<clipPath id="SVGID_12_">
								<use xlink:href="#SVGID_11_"  style="overflow:visible;"/>
							</clipPath>
							<path class="st10" d="M234.65,198.83c7.47,4.31,9.02,15.56,3.47,25.17c-5.54,9.58-16.08,13.86-23.51,9.56
								c-7.45-4.31-9.02-15.56-3.47-25.17C216.66,198.83,227.18,194.54,234.65,198.83"/>
						</g>
					</g>
				</g>
				<g>
					<g>
						<g>
							<defs>
								<rect id="SVGID_13_" x="129.9" y="130.6" width="240.2" height="246.31"/>
							</defs>
							<clipPath id="SVGID_14_">
								<use xlink:href="#SVGID_13_"  style="overflow:visible;"/>
							</clipPath>
							<path class="st11" d="M267.46,206.24c0,9.38-10.01,16.97-22.35,16.97c-12.35,0-22.35-7.59-22.35-16.97
								s10.01-16.97,22.35-16.97C257.45,189.27,267.46,196.86,267.46,206.24"/>
						</g>
					</g>
				</g>
				<g>
					<g>
						<g>
							<defs>
								<rect id="SVGID_15_" x="129.9" y="130.6" width="240.2" height="246.31"/>
							</defs>
							<clipPath id="SVGID_16_">
								<use xlink:href="#SVGID_15_"  style="overflow:visible;"/>
							</clipPath>
							<path class="st12" d="M250.38,251.04c-9.49,8.08-25.19,5.22-35.07-6.4c-9.9-11.61-10.24-27.59-0.77-35.64
								c0.79-0.68,1.63-1.27,2.5-1.79c-7.2,8.52-6.13,22.8,2.93,33.45c9.06,10.61,22.99,13.94,32.53,8.2
								C251.88,249.64,251.16,250.36,250.38,251.04"/>
						</g>
					</g>
				</g>
			</g>
			<polygon class="st1" points="227.29,177.69 243.78,187.22 227.29,196.74 			"/>
			<polygon class="st1" points="271.31,181.55 266.4,199.94 252.95,186.47 			"/>
			<g>
				<g>
					<g>
						<g>
							<defs>
								<rect id="SVGID_17_" x="129.9" y="130.6" width="240.2" height="246.31"/>
							</defs>
							<clipPath id="SVGID_18_">
								<use xlink:href="#SVGID_17_"  style="overflow:visible;"/>
							</clipPath>
							<path class="st13" d="M225.77,203.65c0,0.88,0.07,1.75,0.23,2.59c1.45-8.75,10.17-15.49,20.73-15.49s19.28,6.72,20.73,15.49
								c0.14-0.86,0.23-1.72,0.23-2.59c0-9.99-9.38-18.06-20.96-18.06S225.77,193.67,225.77,203.65"/>
						</g>
					</g>
				</g>
				<g>
					<g>
						<g>
							<defs>
								<rect id="SVGID_19_" x="129.9" y="130.6" width="240.2" height="246.31"/>
							</defs>
							<clipPath id="SVGID_20_">
								<use xlink:href="#SVGID_19_"  style="overflow:visible;"/>
							</clipPath>
							<path class="st14" d="M265.92,214.09c-0.45,0.75-1,1.48-1.63,2.18c-0.43,0.5-0.88,0.95-1.38,1.39
								c-0.54,0.5-1.13,0.95-1.75,1.39c-1.7,1.2-3.68,2.18-5.86,2.89c-8.61,2.77-17.22-0.14-19.28-6.47
								c-0.16-0.52-0.29-1.05-0.36-1.61c2.82,5.25,10.74,7.49,18.63,4.97c0.66-0.2,1.3-0.45,1.91-0.71
								c0.18-0.07,0.36-0.16,0.57-0.25c1.43-0.66,2.7-1.43,3.88-2.3c0.57-0.43,1.11-0.88,1.61-1.36c3.11-2.95,4.79-6.68,4.32-10.22
								c0.27,0.48,0.48,0.96,0.66,1.52C268.13,208.32,267.6,211.37,265.92,214.09"/>
						</g>
					</g>
				</g>
				<g>
					<g>
						<g>
							<defs>
								<rect id="SVGID_21_" x="129.9" y="130.6" width="240.2" height="246.31"/>
							</defs>
							<clipPath id="SVGID_22_">
								<use xlink:href="#SVGID_21_"  style="overflow:visible;"/>
							</clipPath>
							<path class="st15" d="M228.44,195.4c-11.24-0.18-20.53,12.04-20.76,27.28c-0.25,15.26,8.67,27.76,19.89,27.94
								c0.93,0.02,1.84-0.05,2.75-0.23c-9.88-1.98-17.31-13.67-17.12-27.64c0.23-13.95,8.02-25.41,17.97-27.09
								C230.28,195.51,229.35,195.42,228.44,195.4"/>
						</g>
					</g>
				</g>
				<g>
					<g>
						<g>
							<defs>
								<rect id="SVGID_23_" x="129.9" y="130.6" width="240.2" height="246.31"/>
							</defs>
							<clipPath id="SVGID_24_">
								<use xlink:href="#SVGID_23_"  style="overflow:visible;"/>
							</clipPath>
							<path class="st16" d="M252.18,232.53c4.02,7.63,1.05,17.04-6.56,21.06c-7.63,4.02-17.04,1.05-21.06-6.56
								c-4.02-7.63-1.05-17.04,6.56-21.06C238.73,221.97,248.16,224.9,252.18,232.53"/>
						</g>
					</g>
				</g>
				<g>
					<g>
						<g>
							<defs>
								<rect id="SVGID_25_" x="129.9" y="130.6" width="240.2" height="246.31"/>
							</defs>
							<clipPath id="SVGID_26_">
								<use xlink:href="#SVGID_25_"  style="overflow:visible;"/>
							</clipPath>
							<path class="st17" d="M243.89,224.18c4.02,7.63,1.05,17.04-6.56,21.06c-7.63,4.02-17.04,1.05-21.06-6.56
								c-4.02-7.63-1.05-17.04,6.56-21.06C230.47,213.61,239.89,216.55,243.89,224.18"/>
						</g>
					</g>
				</g>
				<g>
					<g>
						<g>
							<defs>
								<rect id="SVGID_27_" x="129.9" y="130.6" width="240.2" height="246.31"/>
							</defs>
							<clipPath id="SVGID_28_">
								<use xlink:href="#SVGID_27_"  style="overflow:visible;"/>
							</clipPath>
							<path class="st18" d="M196.13,190.59c0,3.27-2.66,5.93-5.93,5.93s-5.93-2.66-5.93-5.93c0-3.27,2.66-5.93,5.93-5.93
								S196.13,187.32,196.13,190.59"/>
						</g>
					</g>
				</g>
				<g>
					<g>
						<g>
							<defs>
								<rect id="SVGID_29_" x="129.9" y="130.6" width="240.2" height="246.31"/>
							</defs>
							<clipPath id="SVGID_30_">
								<use xlink:href="#SVGID_29_"  style="overflow:visible;"/>
							</clipPath>
							<path class="st19" d="M234.08,199.88c7.04,4.06,8.5,14.7,3.29,23.74c-5.23,9.06-15.17,13.1-22.21,9.04
								c-7.04-4.06-8.5-14.7-3.29-23.74C217.11,199.88,227.06,195.83,234.08,199.88"/>
						</g>
					</g>
				</g>
				<g>
					<g>
						<g>
							<defs>
								<rect id="SVGID_31_" x="129.9" y="130.6" width="240.2" height="246.31"/>
							</defs>
							<clipPath id="SVGID_32_">
								<use xlink:href="#SVGID_31_"  style="overflow:visible;"/>
							</clipPath>
							<path class="st20" d="M265.08,206.91c0,8.86-9.45,16.03-21.1,16.03c-11.67,0-21.1-7.2-21.1-16.03
								c0-8.84,9.45-16.03,21.1-16.03C255.63,190.84,265.08,198.04,265.08,206.91"/>
						</g>
					</g>
				</g>
			</g>
			<polygon class="st4" points="222.99,165.03 207.44,174 222.99,182.98 			"/>
			<polygon class="st4" points="181.43,168.64 186.07,186 198.78,173.28 			"/>
			<g>
				<g>
					<g>
						<g>
							<defs>
								<rect id="SVGID_33_" x="129.9" y="130.6" width="240.2" height="246.31"/>
							</defs>
							<clipPath id="SVGID_34_">
								<use xlink:href="#SVGID_33_"  style="overflow:visible;"/>
							</clipPath>
							<path class="st21" d="M224.43,189.52c0,0.84-0.07,1.64-0.2,2.47c-1.36-8.27-9.61-14.61-19.58-14.61s-18.21,6.36-19.58,14.61
								c-0.14-0.79-0.2-1.63-0.2-2.47c0-9.43,8.86-17.06,19.78-17.06C215.57,172.46,224.43,180.09,224.43,189.52"/>
						</g>
					</g>
				</g>
			</g>
			<polygon class="st4" points="200.94,201.72 197.58,195.9 204.3,195.9 			"/>
			<polygon class="st1" points="249.2,217.61 245.84,211.8 252.55,211.8 			"/>
			<g>
				<g>
					<g>
						<g>
							<defs>
								<rect id="SVGID_35_" x="129.9" y="130.6" width="240.2" height="246.31"/>
							</defs>
							<clipPath id="SVGID_36_">
								<use xlink:href="#SVGID_35_"  style="overflow:visible;"/>
							</clipPath>
							<path class="st22" d="M214.73,200.67c-1.91,6-10.06,8.72-18.21,6.11c-8.15-2.61-13.17-9.56-11.26-15.56
								c0.16-0.5,0.36-0.96,0.61-1.43c-0.71,5.59,4.15,11.63,11.6,14.03c7.45,2.39,14.9,0.29,17.56-4.7
								C215.02,199.69,214.89,200.19,214.73,200.67"/>
						</g>
					</g>
				</g>
				<g>
					<g>
						<g>
							<defs>
								<rect id="SVGID_37_" x="129.9" y="130.6" width="240.2" height="246.31"/>
							</defs>
							<clipPath id="SVGID_38_">
								<use xlink:href="#SVGID_37_"  style="overflow:visible;"/>
							</clipPath>
							<path class="st23" d="M221.93,181.71c10.61-0.16,19.37,11.38,19.6,25.78c0.23,14.42-8.17,26.23-18.78,26.39
								c-0.88,0.02-1.75-0.05-2.61-0.2c9.34-1.88,16.37-12.9,16.15-26.09c-0.2-13.19-7.58-23.99-16.96-25.57
								C220.18,181.82,221.06,181.73,221.93,181.71"/>
						</g>
					</g>
				</g>
				<g>
					<g>
						<g>
							<defs>
								<rect id="SVGID_39_" x="129.9" y="130.6" width="240.2" height="246.31"/>
							</defs>
							<clipPath id="SVGID_40_">
								<use xlink:href="#SVGID_39_"  style="overflow:visible;"/>
							</clipPath>
							<path class="st24" d="M246.5,231.49c-5.27,7.38-17.65,7.54-27.68,0.36c-10.01-7.16-13.86-18.94-8.58-26.32
								c0.43-0.61,0.93-1.18,1.47-1.7c-3.45,7.34,0.54,17.8,9.72,24.35c9.15,6.56,20.33,6.99,26.17,1.32
								C247.3,230.22,246.93,230.85,246.5,231.49"/>
						</g>
					</g>
				</g>
				<g>
					<g>
						<g>
							<defs>
								<rect id="SVGID_41_" x="129.9" y="130.6" width="240.2" height="246.31"/>
							</defs>
							<clipPath id="SVGID_42_">
								<use xlink:href="#SVGID_41_"  style="overflow:visible;"/>
							</clipPath>
							<path class="st25" d="M248.95,249.18c-8.95,7.63-23.8,4.91-33.11-6.04c-9.34-10.95-9.67-26.01-0.71-33.66
								c0.75-0.63,1.54-1.2,2.38-1.7c-6.79,8.06-5.77,21.53,2.77,31.59c8.54,10.04,21.71,13.17,30.73,7.75
								C250.38,247.87,249.7,248.55,248.95,249.18"/>
						</g>
					</g>
				</g>
			</g>
			<polygon class="st4" points="227.15,179.96 242.69,188.93 227.15,197.9 			"/>
			<polygon class="st4" points="268.71,183.57 264.06,200.92 251.36,188.24 			"/>
			<g>
				<g>
					<g>
						<g>
							<defs>
								<rect id="SVGID_43_" x="129.9" y="130.6" width="240.2" height="246.31"/>
							</defs>
							<clipPath id="SVGID_44_">
								<use xlink:href="#SVGID_43_"  style="overflow:visible;"/>
							</clipPath>
							<path class="st26" d="M225.7,204.44c0,0.84,0.07,1.64,0.2,2.47c1.36-8.27,9.61-14.61,19.58-14.61
								c9.97,0,18.21,6.36,19.58,14.61c0.14-0.79,0.2-1.63,0.2-2.47c0-9.43-8.86-17.06-19.78-17.06
								C234.56,187.38,225.7,195.02,225.7,204.44"/>
						</g>
					</g>
				</g>
				<g>
					<g>
						<g>
							<defs>
								<rect id="SVGID_45_" x="129.9" y="130.6" width="240.2" height="246.31"/>
							</defs>
							<clipPath id="SVGID_46_">
								<use xlink:href="#SVGID_45_"  style="overflow:visible;"/>
							</clipPath>
							<path class="st27" d="M263.63,214.3c-0.43,0.7-0.95,1.39-1.54,2.05c-0.41,0.45-0.84,0.89-1.3,1.32
								c-0.52,0.45-1.09,0.89-1.66,1.32c-1.61,1.13-3.47,2.07-5.52,2.73c-8.11,2.61-16.28-0.14-18.21-6.11
								c-0.16-0.5-0.27-1-0.34-1.52c2.66,4.97,10.13,7.06,17.58,4.7c0.63-0.2,1.23-0.43,1.82-0.68c0.18-0.07,0.34-0.16,0.52-0.23
								c1.32-0.61,2.57-1.36,3.64-2.18c0.54-0.41,1.04-0.84,1.52-1.29c2.93-2.77,4.5-6.29,4.07-9.65c0.25,0.45,0.45,0.93,0.61,1.43
								C265.72,208.87,265.19,211.73,263.63,214.3"/>
						</g>
					</g>
				</g>
				<g>
					<g>
						<g>
							<defs>
								<rect id="SVGID_47_" x="129.9" y="130.6" width="240.2" height="246.31"/>
							</defs>
							<clipPath id="SVGID_48_">
								<use xlink:href="#SVGID_47_"  style="overflow:visible;"/>
							</clipPath>
							<path class="st28" d="M228.2,196.65c-10.61-0.16-19.37,11.38-19.6,25.78c-0.23,14.42,8.17,26.23,18.78,26.39
								c0.88,0.02,1.75-0.05,2.61-0.2c-9.34-1.88-16.37-12.9-16.15-26.09c0.2-13.19,7.58-23.99,16.96-25.57
								C229.95,196.76,229.08,196.67,228.2,196.65"/>
						</g>
					</g>
				</g>
				<g>
					<g>
						<g>
							<defs>
								<rect id="SVGID_49_" x="129.9" y="130.6" width="240.2" height="246.31"/>
							</defs>
							<clipPath id="SVGID_50_">
								<use xlink:href="#SVGID_49_"  style="overflow:visible;"/>
							</clipPath>
							<path class="st29" d="M231.83,270.64c10.56,1.09,20.3-9.65,21.78-23.98c1.48-14.35-5.86-26.84-16.42-27.93
								c-0.88-0.09-1.75-0.11-2.61-0.02c9.13,2.68,15.17,14.28,13.83,27.39c-1.36,13.13-9.65,23.23-19.12,23.99
								C230.1,270.39,230.95,270.55,231.83,270.64"/>
						</g>
					</g>
				</g>
				<g>
					<g>
						<g>
							<defs>
								<rect id="SVGID_51_" x="129.9" y="130.6" width="240.2" height="246.31"/>
							</defs>
							<clipPath id="SVGID_52_">
								<use xlink:href="#SVGID_51_"  style="overflow:visible;"/>
							</clipPath>
							<path class="st30" d="M267.28,205.71c0,3.81-3.09,6.9-6.9,6.9c-3.81,0-6.9-3.09-6.9-6.9s3.09-6.9,6.9-6.9
								C264.19,198.81,267.28,201.9,267.28,205.71"/>
						</g>
					</g>
				</g>
				<g>
					<g>
						<g>
							<defs>
								<rect id="SVGID_53_" x="129.9" y="130.6" width="240.2" height="246.31"/>
							</defs>
							<clipPath id="SVGID_54_">
								<use xlink:href="#SVGID_53_"  style="overflow:visible;"/>
							</clipPath>
							<path class="st31" d="M241.98,205.55c0,3.81-3.09,6.9-6.9,6.9s-6.9-3.09-6.9-6.9s3.09-6.9,6.9-6.9
								S241.98,201.74,241.98,205.55"/>
						</g>
					</g>
				</g>
				<g>
					<g>
						<g>
							<defs>
								<rect id="SVGID_55_" x="129.9" y="130.6" width="240.2" height="246.31"/>
							</defs>
							<clipPath id="SVGID_56_">
								<use xlink:href="#SVGID_55_"  style="overflow:visible;"/>
							</clipPath>
							<path class="st32" d="M239.03,211.59c3.34-1.04,5.23-4.57,4.2-7.93c-1.04-3.36-4.57-5.23-7.93-4.2
								c-3.34,1.04-5.23,4.57-4.2,7.93C232.13,210.75,235.67,212.62,239.03,211.59"/>
						</g>
					</g>
				</g>
				<g>
					<g>
						<g>
							<defs>
								<rect id="SVGID_57_" x="129.9" y="130.6" width="240.2" height="246.31"/>
							</defs>
							<clipPath id="SVGID_58_">
								<use xlink:href="#SVGID_57_"  style="overflow:visible;"/>
							</clipPath>
							<path class="st33" d="M240.51,209.16c1.64-0.5,2.55-2.23,2.05-3.88c-0.5-1.64-2.23-2.55-3.88-2.05
								c-1.64,0.5-2.55,2.23-2.05,3.88C237.15,208.73,238.89,209.66,240.51,209.16"/>
						</g>
					</g>
				</g>
				<g>
					<g>
						<g>
							<defs>
								<rect id="SVGID_59_" x="129.9" y="130.6" width="240.2" height="246.31"/>
							</defs>
							<clipPath id="SVGID_60_">
								<use xlink:href="#SVGID_59_"  style="overflow:visible;"/>
							</clipPath>
							<path class="st34" d="M260.79,211.12c3.34-1.04,5.23-4.57,4.2-7.93c-1.04-3.36-4.57-5.23-7.93-4.2
								c-3.34,1.04-5.23,4.57-4.2,7.93C253.89,210.26,257.45,212.14,260.79,211.12"/>
						</g>
					</g>
				</g>
				<g>
					<g>
						<g>
							<defs>
								<rect id="SVGID_61_" x="129.9" y="130.6" width="240.2" height="246.31"/>
							</defs>
							<clipPath id="SVGID_62_">
								<use xlink:href="#SVGID_61_"  style="overflow:visible;"/>
							</clipPath>
							<path class="st35" d="M262.29,208.66c1.64-0.5,2.55-2.23,2.05-3.88c-0.5-1.64-2.23-2.55-3.88-2.05
								c-1.64,0.5-2.55,2.23-2.05,3.88C258.92,208.26,260.65,209.16,262.29,208.66"/>
						</g>
					</g>
				</g>
				<g>
					<g>
						<g>
							<defs>
								<rect id="SVGID_63_" x="129.9" y="130.6" width="240.2" height="246.31"/>
							</defs>
							<clipPath id="SVGID_64_">
								<use xlink:href="#SVGID_63_"  style="overflow:visible;"/>
							</clipPath>
							<path class="st36" d="M250.63,231.7c3.79,7.2,1.02,16.1-6.18,19.87c-7.2,3.79-16.1,1.02-19.87-6.18
								c-3.79-7.2-1.02-16.1,6.18-19.87C237.94,221.74,246.86,224.52,250.63,231.7"/>
						</g>
					</g>
				</g>
				<g>
					<g>
						<g>
							<defs>
								<rect id="SVGID_65_" x="129.9" y="130.6" width="240.2" height="246.31"/>
							</defs>
							<clipPath id="SVGID_66_">
								<use xlink:href="#SVGID_65_"  style="overflow:visible;"/>
							</clipPath>
							<path class="st37" d="M242.82,223.81c3.79,7.2,1.02,16.1-6.18,19.87c-7.2,3.79-16.1,1.02-19.87-6.18
								c-3.79-7.2-1.02-16.1,6.18-19.87S239.05,216.63,242.82,223.81"/>
						</g>
					</g>
				</g>
				<g>
					<g>
						<g>
							<defs>
								<rect id="SVGID_67_" x="129.9" y="130.6" width="240.2" height="246.31"/>
							</defs>
							<clipPath id="SVGID_68_">
								<use xlink:href="#SVGID_67_"  style="overflow:visible;"/>
							</clipPath>
							<path class="st38" d="M260.18,214.41l3.45-0.11c-0.43,0.7-0.95,1.39-1.54,2.05l-3.45-0.66l-5.52-1.05L260.18,214.41z"/>
						</g>
					</g>
				</g>
				<g>
					<g>
						<g>
							<defs>
								<rect id="SVGID_69_" x="129.9" y="130.6" width="240.2" height="246.31"/>
							</defs>
							<clipPath id="SVGID_70_">
								<use xlink:href="#SVGID_69_"  style="overflow:visible;"/>
							</clipPath>
							<path class="st39" d="M260.79,217.68c-0.52,0.45-1.09,0.89-1.66,1.32l-4.65-0.89l-0.96-0.18l1.48-0.05L260.79,217.68z"/>
						</g>
					</g>
				</g>
				<g>
					<g>
						<g>
							<defs>
								<rect id="SVGID_71_" x="129.9" y="130.6" width="240.2" height="246.31"/>
							</defs>
							<clipPath id="SVGID_72_">
								<use xlink:href="#SVGID_71_"  style="overflow:visible;"/>
							</clipPath>
							<path class="st40" d="M236.46,215.23l-3.45-0.11c0.43,0.7,0.95,1.39,1.54,2.05l3.45-0.66l5.52-1.05L236.46,215.23z"/>
						</g>
					</g>
				</g>
				<g>
					<g>
						<g>
							<defs>
								<rect id="SVGID_73_" x="129.9" y="130.6" width="240.2" height="246.31"/>
							</defs>
							<clipPath id="SVGID_74_">
								<use xlink:href="#SVGID_73_"  style="overflow:visible;"/>
							</clipPath>
							<path class="st41" d="M235.83,218.5c0.52,0.45,1.09,0.89,1.66,1.32l4.65-0.89l0.96-0.18l-1.48-0.05L235.83,218.5z"/>
						</g>
					</g>
				</g>
				<g>
					<g>
						<g>
							<defs>
								<rect id="SVGID_75_" x="129.9" y="130.6" width="240.2" height="246.31"/>
							</defs>
							<clipPath id="SVGID_76_">
								<use xlink:href="#SVGID_75_"  style="overflow:visible;"/>
							</clipPath>
							<path class="st42" d="M213.73,197.74l3.45-0.11c-0.43,0.7-0.95,1.39-1.54,2.05l-3.45-0.66l-5.52-1.05L213.73,197.74z"/>
						</g>
					</g>
				</g>
				<g>
					<g>
						<g>
							<defs>
								<rect id="SVGID_77_" x="129.9" y="130.6" width="240.2" height="246.31"/>
							</defs>
							<clipPath id="SVGID_78_">
								<use xlink:href="#SVGID_77_"  style="overflow:visible;"/>
							</clipPath>
							<path class="st43" d="M214.34,201.01c-0.52,0.45-1.09,0.89-1.66,1.32l-4.65-0.89l-0.96-0.18l1.48-0.05L214.34,201.01z"/>
						</g>
					</g>
				</g>
				<g>
					<g>
						<g>
							<defs>
								<rect id="SVGID_79_" x="129.9" y="130.6" width="240.2" height="246.31"/>
							</defs>
							<clipPath id="SVGID_80_">
								<use xlink:href="#SVGID_79_"  style="overflow:visible;"/>
							</clipPath>
							<path class="st44" d="M190,198.56l-3.45-0.11c0.43,0.7,0.95,1.39,1.54,2.05l3.45-0.66l5.52-1.05L190,198.56z"/>
						</g>
					</g>
				</g>
				<g>
					<g>
						<g>
							<defs>
								<rect id="SVGID_81_" x="129.9" y="130.6" width="240.2" height="246.31"/>
							</defs>
							<clipPath id="SVGID_82_">
								<use xlink:href="#SVGID_81_"  style="overflow:visible;"/>
							</clipPath>
							<path class="st45" d="M189.38,201.83c0.52,0.45,1.09,0.89,1.66,1.32l4.65-0.89l0.96-0.18l-1.48-0.05L189.38,201.83z"/>
						</g>
					</g>
				</g>
			</g>
			<polygon class="st1" points="219.81,170.42 207.83,178 220.36,184.57 			"/>
			<polygon class="st1" points="184.86,171.73 188.52,186.43 199.37,176.12 			"/>
			<g>
				<g>
					<g>
						<g>
							<defs>
								<rect id="SVGID_83_" x="129.9" y="130.6" width="240.2" height="246.31"/>
							</defs>
							<clipPath id="SVGID_84_">
								<use xlink:href="#SVGID_83_"  style="overflow:visible;"/>
							</clipPath>
							<path class="st46" d="M211.14,196.67c-3.34-1.04-5.23-4.57-4.2-7.93c1.04-3.34,4.57-5.23,7.93-4.2s5.23,4.57,4.2,7.93
								C218,195.83,214.46,197.7,211.14,196.67"/>
						</g>
					</g>
				</g>
				<g>
					<g>
						<g>
							<defs>
								<rect id="SVGID_85_" x="129.9" y="130.6" width="240.2" height="246.31"/>
							</defs>
							<clipPath id="SVGID_86_">
								<use xlink:href="#SVGID_85_"  style="overflow:visible;"/>
							</clipPath>
							<path class="st47" d="M209.62,194.2c-1.64-0.5-2.55-2.23-2.05-3.88c0.5-1.64,2.23-2.55,3.88-2.05
								c1.64,0.5,2.55,2.23,2.05,3.88C213,193.81,211.27,194.72,209.62,194.2"/>
						</g>
					</g>
				</g>
				<g>
					<g>
						<g>
							<defs>
								<rect id="SVGID_87_" x="129.9" y="130.6" width="240.2" height="246.31"/>
							</defs>
							<clipPath id="SVGID_88_">
								<use xlink:href="#SVGID_87_"  style="overflow:visible;"/>
							</clipPath>
							<path class="st48" d="M189.34,196.19c-3.34-1.04-5.23-4.57-4.2-7.93c1.04-3.34,4.57-5.23,7.93-4.2
								c3.34,1.04,5.23,4.57,4.2,7.93C196.26,195.33,192.68,197.2,189.34,196.19"/>
						</g>
					</g>
				</g>
				<g>
					<g>
						<g>
							<defs>
								<rect id="SVGID_89_" x="129.9" y="130.6" width="240.2" height="246.31"/>
							</defs>
							<clipPath id="SVGID_90_">
								<use xlink:href="#SVGID_89_"  style="overflow:visible;"/>
							</clipPath>
							<path class="st49" d="M187.84,193.74c-1.64-0.5-2.55-2.23-2.05-3.88c0.5-1.64,2.23-2.55,3.88-2.05
								c1.64,0.5,2.55,2.23,2.05,3.88C191.22,193.31,189.49,194.22,187.84,193.74"/>
						</g>
					</g>
				</g>
				<g>
					<g>
						<g>
							<defs>
								<rect id="SVGID_91_" x="129.9" y="130.6" width="240.2" height="246.31"/>
							</defs>
							<clipPath id="SVGID_92_">
								<use xlink:href="#SVGID_91_"  style="overflow:visible;"/>
							</clipPath>
							<path class="st50" d="M208.69,172.78l-0.32,4.4c-5.4-1.7-10.99,0.18-14.26,5.02c0.23-0.71,0.5-1.43,0.84-2.09
								C197.69,174.42,203.17,171.74,208.69,172.78"/>
						</g>
					</g>
				</g>
			</g>
			<polygon class="st51" points="346.16,191.59 306.55,205.44 304.22,190.4 			"/>
			<polygon class="st52" points="330.85,194.17 306.58,204.26 304.67,191.88 			"/>
			<polygon class="st51" points="345.23,228.65 303.58,223.66 308.1,209.1 			"/>
			<polygon class="st52" points="332.11,224.88 303.49,223.95 308.01,209.41 			"/>
			<polygon class="st51" points="322.13,262.85 289.56,236.4 301.13,226.52 			"/>
			<polygon class="st52" points="309.73,249.59 288.93,236.94 300.53,227.04 			"/>
			<polygon class="st51" points="281.64,280.66 271.51,239.96 286.72,239.01 			"/>
			<polygon class="st52" points="280.84,262.63 273.99,239.96 284.84,239.28 			"/>
			<polygon class="st51" points="334.33,158.11 303.92,187.02 295.6,174.28 			"/>
			<polygon class="st52" points="322.59,165.69 302.88,185.41 296.6,175.78 			"/>
			<polygon class="st51" points="307.19,133.8 293.17,173.35 279.98,165.72 			"/>
			<polygon class="st52" points="296.88,153.09 293.18,173.62 280.96,166.56 			"/>
			<polygon class="st51" points="267.06,130.6 261.92,167.19 276.62,166.3 			"/>
			<polygon class="st52" points="267.06,143.94 275.8,166.33 261.1,167.24 			"/>
			<polygon class="st51" points="235.12,138.12 257.31,167.67 244.03,173.98 			"/>
			<polygon class="st52" points="241.08,151.7 256.91,167.87 243.62,174.17 			"/>
		</g>
		<g class="st3">
			<path class="st4" d="M153.5,398.83c0-3.27,2.7-5.88,6-5.88c1.38,0,2.7,0.48,3.72,1.27c0.43,0.32,0.5,0.89,0.18,1.3
				c-0.32,0.38-0.89,0.48-1.3,0.14c-0.7-0.54-1.61-0.88-2.57-0.88c-1.18,0-2.18,0.45-2.93,1.2c-0.77,0.71-1.21,1.72-1.21,2.84
				c0,1.09,0.45,2.07,1.21,2.81c0.71,0.75,1.75,1.2,2.93,1.2c0.8,0,1.57-0.25,2.23-0.61v-2.23h-2.32c-0.5,0-0.93-0.43-0.93-0.93
				c0-0.52,0.43-0.89,0.93-0.89h3.2c0.02,0,0.02,0,0.02,0c0.02,0,0.02,0,0.02,0c0.52,0,0.95,0.38,0.95,0.89v3.59
				c0,0.11-0.02,0.18-0.05,0.27c-0.02,0.02-0.02,0.05-0.02,0.09v0.02c-0.05,0.16-0.16,0.27-0.32,0.38c-1.04,0.79-2.3,1.27-3.7,1.27
				C156.2,404.67,153.5,402.08,153.5,398.83z"/>
			<path class="st4" d="M166.51,400.58c0.02-2.22,1.73-4.06,3.97-4.06c2.13,0,3.79,1.57,3.93,3.77c0,0.02,0,0.05,0,0.09
				c0,0.05,0,0.11-0.02,0.16c-0.05,0.38-0.38,0.66-0.86,0.66h-5.18c0.09,0.38,0.27,0.79,0.57,1.09c0.34,0.38,1,0.68,1.55,0.75
				c0.59,0.05,1.29-0.09,1.7-0.41c0.34-0.36,1.02-0.32,1.21-0.05c0.2,0.23,0.38,0.71,0,1.05c-0.79,0.75-1.75,1.09-2.91,1.09
				C168.24,404.63,166.53,402.79,166.51,400.58z M168.28,399.79h4.59c-0.16-0.66-1-1.61-2.41-1.72
				C169.1,398.13,168.42,399.11,168.28,399.79z"/>
			<path class="st4" d="M183.8,399.88c0,0.02,0,0.02,0,0.05v3.86c0,0.48-0.38,0.86-0.86,0.86c-0.45,0-0.88-0.38-0.88-0.86v-3.86
				c0-0.02,0-0.02,0-0.05c-0.02-0.89-0.77-1.63-1.66-1.63s-1.64,0.75-1.64,1.66v3.86c0,0.02-0.02,0.09-0.02,0.11s0,0.05,0,0.05
				c-0.02,0.02-0.02,0.07-0.05,0.09c0,0.02,0,0.05,0,0.09c-0.14,0.29-0.48,0.52-0.8,0.52c-0.07,0-0.11-0.02-0.16-0.02
				c-0.38-0.09-0.7-0.43-0.7-0.86v-3.86c0-0.02,0-0.02,0-0.02v-2.52c0-0.5,0.38-0.88,0.86-0.88c0.34,0,0.66,0.18,0.79,0.5
				c0.52-0.32,1.13-0.5,1.73-0.5c1.02,0,1.95,0.43,2.55,1.13c0.61-0.7,1.54-1.13,2.55-1.13c1.88,0,3.38,1.54,3.38,3.43v3.86
				c0,0.48-0.38,0.86-0.86,0.86c-0.48,0-0.88-0.38-0.88-0.86v-3.86c0-0.93-0.75-1.66-1.64-1.66
				C184.57,398.26,183.82,399.01,183.8,399.88z"/>
			<path class="st4" d="M194.26,394.49c0,0.5-0.38,0.89-0.88,0.89s-0.88-0.41-0.88-0.89v-0.34c0-0.5,0.38-0.88,0.88-0.88
				s0.88,0.38,0.88,0.88V394.49z M194.26,397.43v6.34c0,0.5-0.38,0.88-0.88,0.88s-0.88-0.38-0.88-0.88v-6.34
				c0-0.52,0.38-0.89,0.88-0.89S194.26,396.9,194.26,397.43z"/>
			<path class="st4" d="M203.85,399.9v3.88c0,0.48-0.38,0.86-0.86,0.86c-0.45,0-0.86-0.38-0.86-0.86v-3.88
				c0-0.89-0.77-1.64-1.7-1.64c-0.89,0-1.63,0.75-1.63,1.64v3.88c0,0.05,0,0.09-0.02,0.16c-0.09,0.38-0.43,0.7-0.86,0.7
				c-0.5,0-0.86-0.38-0.86-0.86v-3.88v-2.52c0-0.48,0.38-0.86,0.86-0.86c0.34,0,0.66,0.2,0.79,0.5c0.5-0.32,1.09-0.5,1.73-0.5
				C202.33,396.52,203.85,398.06,203.85,399.9z"/>
			<path class="st4" d="M208.82,394.49c0,0.5-0.38,0.89-0.88,0.89s-0.88-0.41-0.88-0.89v-0.34c0-0.5,0.38-0.88,0.88-0.88
				s0.88,0.38,0.88,0.88V394.49z M208.82,397.43v6.34c0,0.5-0.38,0.88-0.88,0.88s-0.88-0.38-0.88-0.88v-6.34
				c0-0.52,0.38-0.89,0.88-0.89S208.82,396.9,208.82,397.43z"/>
		</g>
	</g>
</g>
<g id="Layer_21">
	<circle class="st1" cx="21.26" cy="70.49" r="4.38"/>
	<circle class="st1" cx="34.01" cy="102.09" r="4.38"/>
	<circle class="st1" cx="102.69" cy="22.32" r="4.38"/>
	<circle class="st1" cx="78.96" cy="55.99" r="4.38"/>
	<path class="st1" d="M74.59,44.82c-10.55,0.64-19.26,8.12-21.77,18.05c-2.45-9.74-10.87-17.12-21.14-18.01l0.08-0.08
		c10.57-0.64,19.28-8.12,21.79-18.08c2.42,9.69,10.75,17.03,20.94,18.01L74.59,44.82z"/>
	<path class="st1" d="M29.63,36.2c-4.11,0.25-7.51,3.16-8.49,7.04c-0.96-3.8-4.24-6.67-8.24-7.02l0.03-0.03
		c4.12-0.25,7.52-3.17,8.5-7.05c0.94,3.78,4.19,6.64,8.17,7.02L29.63,36.2z"/>
	<path class="st1" d="M37.99,141.75c-4.11,0.25-7.51,3.16-8.49,7.04c-0.96-3.8-4.24-6.67-8.24-7.02l0.03-0.03
		c4.12-0.25,7.52-3.17,8.5-7.05c0.94,3.78,4.19,6.64,8.17,7.02L37.99,141.75z"/>
</g>
<g id="Layer_21_1_">
	<circle class="st1" cx="466.18" cy="417.73" r="5.85"/>
	<circle class="st1" cx="321.42" cy="476.97" r="5.85"/>
	<circle class="st1" cx="446.13" cy="342.6" r="5.85"/>
	<circle class="st1" cx="448.7" cy="399.11" r="5.85"/>
	<path class="st1" d="M466.18,471.66c-12.76,0.78-23.28,9.81-26.3,21.81c-2.96-11.77-13.14-20.68-25.55-21.76l0.1-0.1
		c12.77-0.78,23.3-9.82,26.33-21.85c2.93,11.71,12.99,20.58,25.3,21.77L466.18,471.66z"/>
	<path class="st1" d="M371.16,487.61c-6.2,0.38-11.31,4.77-12.78,10.6c-1.44-5.72-6.38-10.05-12.41-10.57l0.05-0.05
		c6.21-0.38,11.32-4.77,12.79-10.61c1.42,5.69,6.31,10,12.29,10.58L371.16,487.61z"/>
	<path class="st1" d="M297.91,487.6c-4.76,0.29-8.69,3.66-9.82,8.14c-1.11-4.39-4.91-7.72-9.54-8.12l0.04-0.04
		c4.77-0.29,8.7-3.67,9.83-8.16c1.09,4.37,4.85,7.68,9.45,8.13L297.91,487.6z"/>
	<path class="st1" d="M471.95,374.34c-7.09,0.43-12.94,5.45-14.62,12.12c-1.65-6.54-7.3-11.49-14.2-12.09l0.05-0.05
		c7.1-0.43,12.95-5.46,14.63-12.14c1.63,6.51,7.22,11.44,14.06,12.1L471.95,374.34z"/>
</g>
</svg>
