<?xml version="1.0" encoding="utf-8"?>
<!-- Generator: Adobe Illustrator 23.0.2, SVG Export Plug-In . SVG Version: 6.00 Build 0)  -->
<svg version="1.1" id="Layer_1" xmlns="http://www.w3.org/2000/svg" xmlns:xlink="http://www.w3.org/1999/xlink" x="0px" y="0px"
	 viewBox="0 0 972 936" style="enable-background:new 0 0 972 936;" xml:space="preserve">
<style type="text/css">
	.st0{fill:none;stroke:#000000;stroke-width:4.2238;stroke-miterlimit:10;}
</style>
<g>
	<circle cx="345.21" cy="321.36" r="30.96"/>
	<rect x="607.82" y="403.23" transform="matrix(0.7881 -0.6156 0.6156 0.7881 -100.5403 526.108)" width="211.98" height="11.69"/>
	<rect x="135.29" y="390.43" transform="matrix(0.7881 -0.6156 0.6156 0.7881 -192.8074 232.5145)" width="211.98" height="11.69"/>
	
		<rect x="701.81" y="558.04" transform="matrix(6.123234e-17 -1 1 6.123234e-17 243.9178 1371.6816)" width="211.98" height="11.69"/>
	
		<rect x="33.23" y="554.02" transform="matrix(6.123234e-17 -1 1 6.123234e-17 -420.6336 699.0865)" width="211.98" height="11.69"/>
	<rect x="607.67" y="476.62" width="211.98" height="11.69"/>
	<g>
		<path d="M153.03,279.18c0.37,0.98,0.43,2.14,0.31,3.42C153.03,281.38,152.9,280.16,153.03,279.18z"/>
		<path d="M156.14,348.22c-0.37-0.98-0.43-2.2-0.31-3.55C156.14,345.96,156.27,347.18,156.14,348.22z"/>
		<path d="M156.14,348.22c-0.37-0.98-0.43-2.2-0.31-3.55C156.14,345.96,156.27,347.18,156.14,348.22z"/>
		<path d="M153.33,282.6c-0.31-1.22-0.43-2.45-0.31-3.42C153.39,280.16,153.45,281.32,153.33,282.6z"/>
		<path d="M155.84,344.68c0.31,1.28,0.43,2.51,0.31,3.55C155.78,347.24,155.72,346.02,155.84,344.68z"/>
		<path d="M153.33,282.6c-0.31-1.22-0.43-2.45-0.31-3.42C153.39,280.16,153.45,281.32,153.33,282.6z"/>
		<path d="M165.01,301.56c5.57,5.5,11.56,9.36,16.63,11.07c-4.65,2.14-9.85,5.93-14.62,11.07c-6.73,7.28-10.82,15.23-11.19,20.92
			c-1.16-5.5-5.32-12.48-11.68-18.84c-5.5-5.57-11.5-9.42-16.57-11.13c4.65-2.08,9.85-5.87,14.56-10.95
			c6.73-7.28,10.82-15.29,11.19-21.04C154.49,288.17,158.65,295.2,165.01,301.56z"/>
	</g>
	<circle cx="137.69" cy="479.93" r="30.96"/>
	<g>
		<path d="M338.53,428.85c-0.54,1.45-0.63,3.17-0.45,5.07C338.53,432.1,338.71,430.29,338.53,428.85z"/>
		<path d="M333.92,531.01c0.54-1.45,0.63-3.26,0.45-5.25C333.92,527.66,333.74,529.47,333.92,531.01z"/>
		<path d="M333.92,531.01c0.54-1.45,0.63-3.26,0.45-5.25C333.92,527.66,333.74,529.47,333.92,531.01z"/>
		<path d="M338.08,433.91c0.45-1.81,0.63-3.62,0.45-5.07C337.99,430.29,337.9,432.01,338.08,433.91z"/>
		<path d="M334.37,525.76c-0.45,1.9-0.63,3.71-0.45,5.25C334.46,529.56,334.55,527.75,334.37,525.76z"/>
		<path d="M338.08,433.91c0.45-1.81,0.63-3.62,0.45-5.07C337.99,430.29,337.9,432.01,338.08,433.91z"/>
		<path d="M320.8,461.97c-8.23,8.14-17.1,13.85-24.61,16.38c6.88,3.17,14.57,8.78,21.63,16.38c9.95,10.77,16.02,22.53,16.56,30.95
			c1.72-8.14,7.87-18.46,17.28-27.87c8.14-8.23,17.01-13.94,24.52-16.47c-6.88-3.08-14.57-8.69-21.54-16.2
			c-9.95-10.77-16.02-22.62-16.56-31.13C336.36,442.15,330.21,452.56,320.8,461.97z"/>
	</g>
	<circle cx="137.69" cy="638.5" r="30.96"/>
	<g>
		<path d="M297.84,592.58c-0.38,1.02-0.45,2.24-0.32,3.58C297.84,594.87,297.97,593.6,297.84,592.58z"/>
		<path d="M294.59,664.68c0.38-1.02,0.45-2.3,0.32-3.7C294.59,662.31,294.46,663.59,294.59,664.68z"/>
		<path d="M294.59,664.68c0.38-1.02,0.45-2.3,0.32-3.7C294.59,662.31,294.46,663.59,294.59,664.68z"/>
		<path d="M297.52,596.15c0.32-1.28,0.45-2.55,0.32-3.58C297.46,593.6,297.4,594.81,297.52,596.15z"/>
		<path d="M294.9,660.97c-0.32,1.34-0.45,2.62-0.32,3.7C294.97,663.65,295.03,662.38,294.9,660.97z"/>
		<path d="M297.52,596.15c0.32-1.28,0.45-2.55,0.32-3.58C297.46,593.6,297.4,594.81,297.52,596.15z"/>
		<path d="M285.33,615.95c-5.81,5.75-12.07,9.77-17.37,11.56c4.85,2.24,10.28,6.19,15.26,11.56c7.02,7.6,11.3,15.9,11.69,21.84
			c1.21-5.75,5.56-13.03,12.2-19.67c5.75-5.81,12.01-9.83,17.31-11.62c-4.85-2.17-10.28-6.13-15.2-11.43
			c-7.03-7.6-11.3-15.97-11.69-21.97C296.31,601.96,291.97,609.31,285.33,615.95z"/>
	</g>
	<circle cx="807.8" cy="326.52" r="30.96"/>
	<g>
		<path d="M609.99,284.47c0.61,1.63,0.71,3.56,0.51,5.7C609.99,288.13,609.78,286.1,609.99,284.47z"/>
		<path d="M615.17,399.3c-0.61-1.63-0.71-3.66-0.51-5.9C615.17,395.54,615.38,397.58,615.17,399.3z"/>
		<path d="M615.17,399.3c-0.61-1.63-0.71-3.66-0.51-5.9C615.17,395.54,615.38,397.58,615.17,399.3z"/>
		<path d="M610.49,290.17c-0.51-2.03-0.71-4.07-0.51-5.7C610.6,286.1,610.7,288.03,610.49,290.17z"/>
		<path d="M614.66,393.4c0.51,2.14,0.71,4.17,0.51,5.9C614.56,397.68,614.46,395.64,614.66,393.4z"/>
		<path d="M610.49,290.17c-0.51-2.03-0.71-4.07-0.51-5.7C610.6,286.1,610.7,288.03,610.49,290.17z"/>
		<path d="M629.92,321.7c9.26,9.15,19.22,15.56,27.67,18.41c-7.73,3.56-16.38,9.87-24.31,18.41c-11.19,12.1-18,25.33-18.61,34.79
			c-1.93-9.15-8.85-20.75-19.43-31.33c-9.15-9.26-19.12-15.66-27.56-18.51c7.73-3.46,16.38-9.76,24.21-18.21
			c11.19-12.1,18-25.43,18.61-34.99C612.43,299.42,619.34,311.12,629.92,321.7z"/>
	</g>
	<circle cx="807.8" cy="482.46" r="30.96"/>
	<circle cx="610.09" cy="482.46" r="30.96"/>
	<circle cx="807.8" cy="643.66" r="30.96"/>
	<g>
		<path d="M648.08,573.72c0.46,1.24,0.54,2.7,0.39,4.32C648.08,576.5,647.93,574.96,648.08,573.72z"/>
		<path d="M652.02,660.91c-0.46-1.24-0.54-2.78-0.39-4.48C652.02,658.05,652.17,659.59,652.02,660.91z"/>
		<path d="M652.02,660.91c-0.46-1.24-0.54-2.78-0.39-4.48C652.02,658.05,652.17,659.59,652.02,660.91z"/>
		<path d="M648.47,578.04c-0.39-1.54-0.54-3.09-0.39-4.32C648.55,574.96,648.62,576.42,648.47,578.04z"/>
		<path d="M651.63,656.43c0.39,1.62,0.54,3.17,0.39,4.48C651.56,659.67,651.48,658.13,651.63,656.43z"/>
		<path d="M648.47,578.04c-0.39-1.54-0.54-3.09-0.39-4.32C648.55,574.96,648.62,576.42,648.47,578.04z"/>
		<path d="M663.22,601.98c7.03,6.95,14.6,11.82,21.01,13.98c-5.87,2.7-12.43,7.49-18.46,13.98c-8.49,9.19-13.67,19.23-14.13,26.41
			c-1.47-6.95-6.72-15.75-14.75-23.79c-6.95-7.03-14.52-11.89-20.93-14.06c5.87-2.63,12.43-7.41,18.38-13.82
			c8.5-9.19,13.67-19.31,14.13-26.57C649.94,585.07,655.19,593.95,663.22,601.98z"/>
	</g>
	<rect x="15.01" y="206.92" class="st0" width="934.33" height="525.65"/>
</g>
</svg>
