<?xml version="1.0" encoding="utf-8"?>
<!-- Generator: Adobe Illustrator 23.0.2, SVG Export Plug-In . SVG Version: 6.00 Build 0)  -->
<svg version="1.1" id="Layer_1" xmlns="http://www.w3.org/2000/svg" xmlns:xlink="http://www.w3.org/1999/xlink" x="0px" y="0px"
	 viewBox="0 0 500 500" style="enable-background:new 0 0 500 500;" xml:space="preserve">
<style type="text/css">
	.st0{fill:#D5DAE5;}
	.st1{fill:#FFFFFF;}
	.st2{fill:#C0BFD7;}
	.st3{enable-background:new    ;}
	.st4{fill:#272926;}
	.st5{clip-path:url(#SVGID_2_);fill:#454A6E;}
	.st6{clip-path:url(#SVGID_4_);fill:#646DA2;}
	.st7{clip-path:url(#SVGID_6_);fill:#FFFFFF;}
	.st8{clip-path:url(#SVGID_8_);fill:#EFD479;}
	.st9{clip-path:url(#SVGID_10_);fill:#DFB06D;}
	.st10{clip-path:url(#SVGID_12_);fill:#FFFFFF;}
	.st11{clip-path:url(#SVGID_14_);fill:#FFFFFF;}
	.st12{clip-path:url(#SVGID_16_);fill:#FFFFFF;}
	.st13{clip-path:url(#SVGID_18_);fill:#FFFFFF;}
	.st14{clip-path:url(#SVGID_20_);fill:#FFFFFF;}
	.st15{clip-path:url(#SVGID_22_);fill:#FFFFFF;}
	.st16{clip-path:url(#SVGID_24_);fill:#FFFFFF;}
	.st17{clip-path:url(#SVGID_26_);fill:#FFFFFF;}
	.st18{clip-path:url(#SVGID_28_);fill:#272926;}
	.st19{clip-path:url(#SVGID_30_);fill:#272926;}
	.st20{clip-path:url(#SVGID_32_);fill:#272926;}
	.st21{clip-path:url(#SVGID_34_);fill:#272926;}
	.st22{clip-path:url(#SVGID_36_);fill:#272926;}
	.st23{clip-path:url(#SVGID_38_);fill:#272926;}
	.st24{clip-path:url(#SVGID_40_);fill:#272926;}
	.st25{clip-path:url(#SVGID_42_);fill:#272926;}
	.st26{clip-path:url(#SVGID_44_);fill:#272926;}
	.st27{clip-path:url(#SVGID_46_);fill:#272926;}
	.st28{clip-path:url(#SVGID_48_);fill:#272926;}
	.st29{clip-path:url(#SVGID_50_);fill:#272926;}
	.st30{clip-path:url(#SVGID_52_);fill:#FFFFFF;}
	.st31{clip-path:url(#SVGID_54_);fill:#FFFFFF;}
	.st32{clip-path:url(#SVGID_56_);fill:#272926;}
	.st33{clip-path:url(#SVGID_58_);fill:#FFFFFF;}
	.st34{clip-path:url(#SVGID_60_);fill:#272926;}
	.st35{clip-path:url(#SVGID_62_);fill:#FFFFFF;}
	.st36{clip-path:url(#SVGID_64_);fill:#272926;}
	.st37{clip-path:url(#SVGID_66_);fill:#272926;}
	.st38{clip-path:url(#SVGID_68_);fill:#FFFFFF;}
	.st39{clip-path:url(#SVGID_70_);fill:#FFFFFF;}
	.st40{clip-path:url(#SVGID_72_);fill:#FFFFFF;}
	.st41{clip-path:url(#SVGID_74_);fill:#FFFFFF;}
	.st42{clip-path:url(#SVGID_76_);fill:#272926;}
	.st43{clip-path:url(#SVGID_78_);fill:#272926;}
	.st44{clip-path:url(#SVGID_80_);fill:#272926;}
	.st45{clip-path:url(#SVGID_82_);fill:#272926;}
	.st46{clip-path:url(#SVGID_84_);fill:#272926;}
	.st47{clip-path:url(#SVGID_86_);fill:#FFFFFF;}
	.st48{clip-path:url(#SVGID_88_);fill:#272926;}
	.st49{clip-path:url(#SVGID_90_);fill:#FFFFFF;}
	.st50{clip-path:url(#SVGID_92_);fill:#272926;}
	.st51{fill:#EFD479;}
	.st52{fill:#DFB06D;}
</style>
<g id="Background">
	<rect class="st0" width="500" height="500"/>
</g>
<g id="Gemini">
	<g>
		<rect x="108.2" y="47.9" class="st1" width="283.6" height="404.2"/>
		<rect x="108.2" y="381" class="st2" width="28.5" height="42.2"/>
		<rect x="234.1" y="381" class="st2" width="157.7" height="42.2"/>
		<g class="st3">
			<path class="st4" d="M160.6,412.5l-1.8,2.4c0,0.1-0.1,0.1-0.2,0.1h0c-0.1,0-0.1,0-0.2-0.1l-1.8-2.4v4.5c0,0.1-0.1,0.2-0.2,0.2
				c-0.1,0-0.2-0.1-0.2-0.2v-5.1c0-0.1,0-0.1,0.1-0.2c0,0,0,0,0,0c0.1-0.1,0.2,0,0.3,0l2,2.7l2-2.7c0.1-0.1,0.2-0.1,0.3,0
				c0,0,0,0,0.1,0.1s0,0.1,0,0.1v5.1c0,0.1-0.1,0.2-0.2,0.2s-0.2-0.1-0.2-0.2L160.6,412.5L160.6,412.5L160.6,412.5z"/>
		</g>
		<g class="st3">
			<path class="st4" d="M166.1,413.5v3.5c0,0.1-0.1,0.2-0.2,0.2c-0.1,0-0.2-0.1-0.2-0.2v-0.6c-0.3,0.5-0.9,0.8-1.5,0.8
				c-1,0-1.8-0.9-1.8-1.9c0-1.1,0.8-1.9,1.8-1.9c0.6,0,1.1,0.3,1.5,0.8v-0.6c0-0.1,0.1-0.2,0.2-0.2
				C166.1,413.3,166.1,413.4,166.1,413.5z M165.7,415.2c0-0.9-0.7-1.6-1.5-1.6c-0.8,0-1.5,0.7-1.5,1.6c0,0.9,0.7,1.6,1.5,1.6
				C165.1,416.8,165.7,416.1,165.7,415.2z"/>
		</g>
		<g class="st3">
			<path class="st4" d="M167.7,413.5c0-0.1,0.1-0.2,0.2-0.2c0.1,0,0.2,0.1,0.2,0.2v2.1c0,0.7,0.5,1.2,1.2,1.2c0.7,0,1.2-0.5,1.2-1.2
				v-2.1c0,0,0-0.1,0-0.1v0c0,0,0,0,0,0c0,0,0,0,0.1,0h0h0h0h0c0,0,0.1,0,0.1,0s0,0,0,0.1c0,0,0,0.1,0,0.1v2.1v0.1v1.2
				c0,1-0.8,1.8-1.8,1.8c-0.3,0-0.6-0.1-0.8-0.2c-0.1-0.1-0.1-0.2-0.1-0.3c0-0.1,0.2-0.1,0.2-0.1c0.2,0.1,0.4,0.2,0.6,0.2
				c0.8,0,1.5-0.6,1.5-1.4v-0.3c-0.3,0.3-0.7,0.6-1.2,0.6c-0.9,0-1.6-0.7-1.6-1.6L167.7,413.5L167.7,413.5L167.7,413.5L167.7,413.5z
				"/>
			<path class="st4" d="M174.7,416.8l2.6-2.3c0.3-0.3,0.5-0.7,0.5-1.1c0-0.3-0.1-0.7-0.4-0.9c-0.3-0.3-0.7-0.5-1.1-0.5
				c-0.3,0-0.7,0.1-1,0.4l-0.3,0.2c-0.1,0.1-0.2,0.1-0.3,0c-0.1-0.1-0.1-0.2,0-0.3l0.3-0.3c0.3-0.3,0.8-0.5,1.2-0.5
				c0.5,0,1,0.2,1.3,0.6c0.3,0.3,0.5,0.8,0.5,1.2c0,0.5-0.2,1-0.6,1.3l-2.2,2h2.6c0.1,0,0.2,0.1,0.2,0.2s-0.1,0.2-0.2,0.2h-3.1h0
				c-0.1,0-0.1,0-0.1-0.1C174.6,417,174.6,416.9,174.7,416.8z"/>
			<path class="st4" d="M180.2,412.2l-0.8,0.5c0,0-0.1,0-0.1,0c-0.1,0-0.1,0-0.2-0.1c-0.1-0.1,0-0.2,0.1-0.3l1.1-0.7
				c0.1,0,0.2,0,0.3,0.1c0,0,0,0.1,0,0.1v5.1c0,0.1-0.1,0.2-0.2,0.2c-0.1,0-0.2-0.1-0.2-0.2L180.2,412.2L180.2,412.2L180.2,412.2
				L180.2,412.2z"/>
			<path class="st4" d="M184.4,414.4c0-0.1,0.1-0.1,0.2-0.1h1.7c0.1,0,0.2,0.1,0.2,0.1c0,0.1-0.1,0.2-0.2,0.2h-1.7
				C184.5,414.6,184.4,414.5,184.4,414.4z"/>
			<path class="st4" d="M190,415.6c0.1,0,0.2,0,0.2,0.1c0.2,0.6,0.8,1.1,1.4,1c0.8,0,1.5-0.7,1.5-1.5v-3.5c0-0.1,0.1-0.2,0.2-0.2
				s0.2,0.1,0.2,0.2v3.5c0,1.1-0.8,1.9-1.9,1.9c-0.8,0-1.6-0.6-1.8-1.3C189.8,415.8,189.9,415.7,190,415.6z"/>
		</g>
		<g class="st3">
			<path class="st4" d="M194.8,413.5c0-0.1,0.1-0.2,0.2-0.2s0.2,0.1,0.2,0.2v2.1c0,0.7,0.5,1.2,1.2,1.2c0.7,0,1.2-0.6,1.2-1.2v-2.1
				c0-0.1,0.1-0.2,0.2-0.2c0.1,0,0.2,0.1,0.2,0.2v2.1c0,0.9-0.7,1.6-1.6,1.6c-0.9,0-1.6-0.7-1.6-1.6L194.8,413.5L194.8,413.5z"/>
		</g>
		<g class="st3">
			<path class="st4" d="M202.3,414.9c0-0.7-0.5-1.2-1.2-1.2c-0.7,0-1.2,0.6-1.2,1.2v2.1v0c0,0,0,0.1,0,0.1c0,0-0.1,0.1-0.1,0.1h0
				c-0.1,0-0.1-0.1-0.1-0.1v0v0v0v-2.1v-0.1v-1.3c0-0.1,0.1-0.2,0.2-0.2c0.1,0,0.2,0.1,0.2,0.2v0.4c0.3-0.3,0.7-0.6,1.2-0.6
				c0.9,0,1.6,0.7,1.6,1.6v2.1c0,0.1-0.1,0.2-0.2,0.2s-0.2-0.1-0.2-0.2V414.9L202.3,414.9z"/>
			<path class="st4" d="M206.4,416.8l2.6-2.3c0.3-0.3,0.5-0.7,0.5-1.1c0-0.3-0.1-0.7-0.4-0.9c-0.3-0.3-0.7-0.5-1.1-0.5
				c-0.3,0-0.7,0.1-1,0.4l-0.3,0.2c-0.1,0.1-0.2,0.1-0.3,0c-0.1-0.1-0.1-0.2,0-0.3l0.3-0.3c0.3-0.3,0.8-0.5,1.2-0.5
				c0.5,0,1,0.2,1.3,0.6c0.3,0.3,0.5,0.8,0.5,1.2c0,0.5-0.2,1-0.6,1.3l-2.2,2h2.6c0.1,0,0.2,0.1,0.2,0.2s-0.1,0.2-0.2,0.2h-3.1h0
				c-0.1,0-0.1,0-0.1-0.1C206.3,417,206.3,416.9,206.4,416.8z"/>
			<path class="st4" d="M211.2,414.4c0-0.7,0.2-1.4,0.5-1.9c0.3-0.5,0.8-0.8,1.4-0.8c0.6,0,1.1,0.3,1.4,0.8c0.3,0.5,0.6,1.2,0.6,1.9
				s-0.2,1.4-0.6,1.9c-0.3,0.5-0.8,0.8-1.4,0.8s-1.1-0.3-1.4-0.8C211.3,415.8,211.2,415.1,211.2,414.4z M211.5,414.4
				c0,0.7,0.2,1.3,0.5,1.7c0.3,0.4,0.7,0.7,1.1,0.7s0.8-0.2,1.1-0.7c0.3-0.4,0.5-1,0.5-1.7c0-0.7-0.2-1.3-0.5-1.7
				c-0.3-0.4-0.7-0.7-1.1-0.7s-0.8,0.2-1.1,0.7C211.7,413.1,211.5,413.7,211.5,414.4z"/>
		</g>
		<g>
			<g>
				<g>
					<g>
						<g>
							<g>
								<defs>
									<rect id="SVGID_1_" x="133.8" y="134.5" width="232.4" height="238.3"/>
								</defs>
								<clipPath id="SVGID_2_">
									<use xlink:href="#SVGID_1_"  style="overflow:visible;"/>
								</clipPath>
								<path class="st5" d="M212.2,200.3c-5.1,15.9-22.2,24.7-38.1,19.6c-15.9-5.1-24.7-22.2-19.6-38.1
									c5.1-15.9,22.2-24.7,38.1-19.6C208.5,167.4,217.3,184.4,212.2,200.3"/>
							</g>
						</g>
					</g>
				</g>
				<g>
					<g>
						<g>
							<g>
								<defs>
									<rect id="SVGID_3_" x="133.8" y="134.5" width="232.4" height="238.3"/>
								</defs>
								<clipPath id="SVGID_4_">
									<use xlink:href="#SVGID_3_"  style="overflow:visible;"/>
								</clipPath>
								<path class="st6" d="M217.6,200.5c-5.1,15.9-22.2,24.7-38.1,19.6c-15.9-5.1-24.7-22.2-19.6-38.1
									c5.1-15.9,22.2-24.7,38.1-19.6C214,167.5,222.7,184.6,217.6,200.5"/>
							</g>
						</g>
					</g>
				</g>
				<g>
					<g>
						<g>
							<g>
								<defs>
									<rect id="SVGID_5_" x="133.8" y="134.5" width="232.4" height="238.3"/>
								</defs>
								<clipPath id="SVGID_6_">
									<use xlink:href="#SVGID_5_"  style="overflow:visible;"/>
								</clipPath>
								<path class="st7" d="M228.4,198.5c-5.1,15.9-22.2,24.7-38.1,19.6s-24.7-22.2-19.6-38.1s22.2-24.7,38.1-19.6
									C224.8,165.5,233.5,182.6,228.4,198.5"/>
							</g>
						</g>
					</g>
				</g>
				<g>
					<g>
						<g>
							<g>
								<defs>
									<rect id="SVGID_7_" x="133.8" y="134.5" width="232.4" height="238.3"/>
								</defs>
								<clipPath id="SVGID_8_">
									<use xlink:href="#SVGID_7_"  style="overflow:visible;"/>
								</clipPath>
								<path class="st8" d="M243.7,187.2c8.9-14.1,27.7-18.3,41.8-9.4c14.1,8.9,18.3,27.7,9.4,41.8c-8.9,14.1-27.7,18.3-41.8,9.4
									C238.9,220.1,234.7,201.4,243.7,187.2"/>
							</g>
						</g>
					</g>
				</g>
				<g>
					<g>
						<g>
							<g>
								<defs>
									<rect id="SVGID_9_" x="133.8" y="134.5" width="232.4" height="238.3"/>
								</defs>
								<clipPath id="SVGID_10_">
									<use xlink:href="#SVGID_9_"  style="overflow:visible;"/>
								</clipPath>
								<path class="st9" d="M242,190c8.3-13.2,25.8-17.1,39-8.7s17.1,25.8,8.7,39c-8.4,13.2-25.8,17.1-39,8.7
									C237.6,220.6,233.7,203.2,242,190"/>
							</g>
						</g>
					</g>
				</g>
				<g>
					<g>
						<g>
							<g>
								<defs>
									<rect id="SVGID_11_" x="133.8" y="134.5" width="232.4" height="238.3"/>
								</defs>
								<clipPath id="SVGID_12_">
									<use xlink:href="#SVGID_11_"  style="overflow:visible;"/>
								</clipPath>
								<path class="st10" d="M235.2,200.5c7.2,4.2,8.7,15.1,3.4,24.3c-5.4,9.3-15.6,13.4-22.7,9.2c-7.2-4.2-8.7-15.1-3.4-24.3
									C217.7,200.5,227.9,196.3,235.2,200.5"/>
							</g>
						</g>
					</g>
				</g>
				<g>
					<g>
						<g>
							<g>
								<defs>
									<rect id="SVGID_13_" x="133.8" y="134.5" width="232.4" height="238.3"/>
								</defs>
								<clipPath id="SVGID_14_">
									<use xlink:href="#SVGID_13_"  style="overflow:visible;"/>
								</clipPath>
								<path class="st11" d="M266.9,207.7c0,9.1-9.7,16.4-21.6,16.4c-11.9,0-21.6-7.3-21.6-16.4s9.7-16.4,21.6-16.4
									C257.2,191.3,266.9,198.6,266.9,207.7"/>
							</g>
						</g>
					</g>
				</g>
				<g>
					<g>
						<g>
							<g>
								<defs>
									<rect id="SVGID_15_" x="133.8" y="134.5" width="232.4" height="238.3"/>
								</defs>
								<clipPath id="SVGID_16_">
									<use xlink:href="#SVGID_15_"  style="overflow:visible;"/>
								</clipPath>
								<path class="st12" d="M250.4,251c-9.2,7.8-24.4,5-33.9-6.2c-9.6-11.2-9.9-26.7-0.7-34.5c0.8-0.7,1.6-1.2,2.4-1.7
									c-7,8.2-5.9,22.1,2.8,32.4c8.8,10.3,22.2,13.5,31.5,7.9C251.8,249.7,251.1,250.3,250.4,251"/>
							</g>
						</g>
					</g>
				</g>
			</g>
			<polygon class="st1" points="228,180 244,189.3 228,198.5 			"/>
			<polygon class="st1" points="270.6,183.8 265.9,201.6 252.9,188.5 			"/>
			<g>
				<g>
					<g>
						<g>
							<g>
								<defs>
									<rect id="SVGID_17_" x="133.8" y="134.5" width="232.4" height="238.3"/>
								</defs>
								<clipPath id="SVGID_18_">
									<use xlink:href="#SVGID_17_"  style="overflow:visible;"/>
								</clipPath>
								<path class="st13" d="M226.6,205.2c0,0.9,0.1,1.7,0.2,2.5c1.4-8.5,9.8-15,20.1-15s18.7,6.5,20.1,15c0.1-0.8,0.2-1.7,0.2-2.5
									c0-9.7-9.1-17.5-20.3-17.5C235.6,187.7,226.6,195.5,226.6,205.2"/>
							</g>
						</g>
					</g>
				</g>
				<g>
					<g>
						<g>
							<g>
								<defs>
									<rect id="SVGID_19_" x="133.8" y="134.5" width="232.4" height="238.3"/>
								</defs>
								<clipPath id="SVGID_20_">
									<use xlink:href="#SVGID_19_"  style="overflow:visible;"/>
								</clipPath>
								<path class="st14" d="M265.4,215.3c-0.4,0.7-1,1.4-1.6,2.1c-0.4,0.5-0.9,0.9-1.3,1.3c-0.5,0.5-1.1,0.9-1.7,1.3
									c-1.6,1.2-3.6,2.1-5.7,2.8c-8.3,2.7-16.7-0.1-18.7-6.3c-0.2-0.5-0.3-1-0.3-1.6c2.7,5.1,10.4,7.2,18,4.8
									c0.6-0.2,1.3-0.4,1.8-0.7c0.2-0.1,0.3-0.2,0.6-0.2c1.4-0.6,2.6-1.4,3.8-2.2c0.6-0.4,1.1-0.9,1.6-1.3c3-2.9,4.6-6.5,4.2-9.9
									c0.3,0.5,0.5,0.9,0.6,1.5C267.5,209.7,267,212.6,265.4,215.3"/>
							</g>
						</g>
					</g>
				</g>
				<g>
					<g>
						<g>
							<g>
								<defs>
									<rect id="SVGID_21_" x="133.8" y="134.5" width="232.4" height="238.3"/>
								</defs>
								<clipPath id="SVGID_22_">
									<use xlink:href="#SVGID_21_"  style="overflow:visible;"/>
								</clipPath>
								<path class="st15" d="M229.1,197.2c-10.9-0.2-19.9,11.6-20.1,26.4c-0.2,14.8,8.4,26.9,19.2,27c0.9,0,1.8,0,2.7-0.2
									c-9.6-1.9-16.7-13.2-16.6-26.7c0.2-13.5,7.8-24.6,17.4-26.2C230.9,197.3,230,197.2,229.1,197.2"/>
							</g>
						</g>
					</g>
				</g>
				<g>
					<g>
						<g>
							<g>
								<defs>
									<rect id="SVGID_23_" x="133.8" y="134.5" width="232.4" height="238.3"/>
								</defs>
								<clipPath id="SVGID_24_">
									<use xlink:href="#SVGID_23_"  style="overflow:visible;"/>
								</clipPath>
								<path class="st16" d="M252.1,233.1c3.9,7.4,1,16.5-6.3,20.4c-7.4,3.9-16.5,1-20.4-6.3c-3.9-7.4-1-16.5,6.3-20.4
									C239.1,222.9,248.2,225.7,252.1,233.1"/>
							</g>
						</g>
					</g>
				</g>
				<g>
					<g>
						<g>
							<g>
								<defs>
									<rect id="SVGID_25_" x="133.8" y="134.5" width="232.4" height="238.3"/>
								</defs>
								<clipPath id="SVGID_26_">
									<use xlink:href="#SVGID_25_"  style="overflow:visible;"/>
								</clipPath>
								<path class="st17" d="M244.1,225c3.9,7.4,1,16.5-6.3,20.4c-7.4,3.9-16.5,1-20.4-6.3c-3.9-7.4-1-16.5,6.3-20.4
									C231.1,214.8,240.2,217.6,244.1,225"/>
							</g>
						</g>
					</g>
				</g>
				<g>
					<g>
						<g>
							<g>
								<defs>
									<rect id="SVGID_27_" x="133.8" y="134.5" width="232.4" height="238.3"/>
								</defs>
								<clipPath id="SVGID_28_">
									<use xlink:href="#SVGID_27_"  style="overflow:visible;"/>
								</clipPath>
								<path class="st18" d="M197.9,192.5c0,3.2-2.6,5.7-5.7,5.7c-3.2,0-5.7-2.6-5.7-5.7c0-3.2,2.6-5.7,5.7-5.7
									C195.3,186.8,197.9,189.4,197.9,192.5"/>
							</g>
						</g>
					</g>
				</g>
				<g>
					<g>
						<g>
							<g>
								<defs>
									<rect id="SVGID_29_" x="133.8" y="134.5" width="232.4" height="238.3"/>
								</defs>
								<clipPath id="SVGID_30_">
									<use xlink:href="#SVGID_29_"  style="overflow:visible;"/>
								</clipPath>
								<path class="st19" d="M234.6,201.5c6.8,3.9,8.2,14.2,3.2,23c-5.1,8.8-14.7,12.7-21.5,8.7c-6.8-3.9-8.2-14.2-3.2-23
									C218.2,201.5,227.8,197.6,234.6,201.5"/>
							</g>
						</g>
					</g>
				</g>
				<g>
					<g>
						<g>
							<g>
								<defs>
									<rect id="SVGID_31_" x="133.8" y="134.5" width="232.4" height="238.3"/>
								</defs>
								<clipPath id="SVGID_32_">
									<use xlink:href="#SVGID_31_"  style="overflow:visible;"/>
								</clipPath>
								<path class="st20" d="M264.6,208.3c0,8.6-9.1,15.5-20.4,15.5c-11.3,0-20.4-7-20.4-15.5c0-8.6,9.1-15.5,20.4-15.5
									C255.4,192.8,264.6,199.7,264.6,208.3"/>
							</g>
						</g>
					</g>
				</g>
			</g>
			<polygon class="st4" points="223.9,167.8 208.8,176.5 223.9,185.2 			"/>
			<polygon class="st4" points="183.7,171.3 188.2,188.1 200.5,175.8 			"/>
			<g>
				<g>
					<g>
						<g>
							<g>
								<defs>
									<rect id="SVGID_33_" x="133.8" y="134.5" width="232.4" height="238.3"/>
								</defs>
								<clipPath id="SVGID_34_">
									<use xlink:href="#SVGID_33_"  style="overflow:visible;"/>
								</clipPath>
								<path class="st21" d="M225.3,191.5c0,0.8-0.1,1.6-0.2,2.4c-1.3-8-9.3-14.1-18.9-14.1c-9.6,0-17.6,6.2-18.9,14.1
									c-0.1-0.8-0.2-1.6-0.2-2.4c0-9.1,8.6-16.5,19.1-16.5S225.3,182.4,225.3,191.5"/>
							</g>
						</g>
					</g>
				</g>
			</g>
			<polygon class="st4" points="202.5,203.3 199.3,197.7 205.8,197.7 			"/>
			<polygon class="st1" points="249.2,218.7 246,213 252.5,213 			"/>
			<g>
				<g>
					<g>
						<g>
							<g>
								<defs>
									<rect id="SVGID_35_" x="133.8" y="134.5" width="232.4" height="238.3"/>
								</defs>
								<clipPath id="SVGID_36_">
									<use xlink:href="#SVGID_35_"  style="overflow:visible;"/>
								</clipPath>
								<path class="st22" d="M215.9,202.3c-1.8,5.8-9.7,8.4-17.6,5.9c-7.9-2.5-12.7-9.2-10.9-15.1c0.2-0.5,0.3-0.9,0.6-1.4
									c-0.7,5.4,4,11.3,11.2,13.6c7.2,2.3,14.4,0.3,17-4.5C216.2,201.3,216,201.8,215.9,202.3"/>
							</g>
						</g>
					</g>
				</g>
				<g>
					<g>
						<g>
							<g>
								<defs>
									<rect id="SVGID_37_" x="133.8" y="134.5" width="232.4" height="238.3"/>
								</defs>
								<clipPath id="SVGID_38_">
									<use xlink:href="#SVGID_37_"  style="overflow:visible;"/>
								</clipPath>
								<path class="st23" d="M222.8,183.9c10.3-0.2,18.7,11,19,24.9c0.2,13.9-7.9,25.4-18.2,25.5c-0.9,0-1.7,0-2.5-0.2
									c9-1.8,15.8-12.5,15.6-25.2c-0.2-12.8-7.3-23.2-16.4-24.7C221.2,184,222,184,222.8,183.9"/>
							</g>
						</g>
					</g>
				</g>
				<g>
					<g>
						<g>
							<g>
								<defs>
									<rect id="SVGID_39_" x="133.8" y="134.5" width="232.4" height="238.3"/>
								</defs>
								<clipPath id="SVGID_40_">
									<use xlink:href="#SVGID_39_"  style="overflow:visible;"/>
								</clipPath>
								<path class="st24" d="M246.6,232.1c-5.1,7.1-17.1,7.3-26.8,0.3c-9.7-6.9-13.4-18.3-8.3-25.5c0.4-0.6,0.9-1.1,1.4-1.6
									c-3.3,7.1,0.5,17.2,9.4,23.6c8.9,6.3,19.7,6.8,25.3,1.3C247.4,230.9,247,231.5,246.6,232.1"/>
							</g>
						</g>
					</g>
				</g>
				<g>
					<g>
						<g>
							<g>
								<defs>
									<rect id="SVGID_41_" x="133.8" y="134.5" width="232.4" height="238.3"/>
								</defs>
								<clipPath id="SVGID_42_">
									<use xlink:href="#SVGID_41_"  style="overflow:visible;"/>
								</clipPath>
								<path class="st25" d="M249,249.2c-8.7,7.4-23,4.7-32-5.8c-9-10.6-9.4-25.2-0.7-32.6c0.7-0.6,1.5-1.2,2.3-1.6
									c-6.6,7.8-5.6,20.8,2.7,30.6c8.3,9.7,21,12.7,29.7,7.5C250.4,247.9,249.7,248.6,249,249.2"/>
							</g>
						</g>
					</g>
				</g>
			</g>
			<polygon class="st4" points="227.9,182.2 242.9,190.9 227.9,199.6 			"/>
			<polygon class="st4" points="268.1,185.7 263.6,202.5 251.3,190.3 			"/>
			<g>
				<g>
					<g>
						<g>
							<g>
								<defs>
									<rect id="SVGID_43_" x="133.8" y="134.5" width="232.4" height="238.3"/>
								</defs>
								<clipPath id="SVGID_44_">
									<use xlink:href="#SVGID_43_"  style="overflow:visible;"/>
								</clipPath>
								<path class="st26" d="M226.5,205.9c0,0.8,0.1,1.6,0.2,2.4c1.3-8,9.3-14.1,18.9-14.1s17.6,6.2,18.9,14.1
									c0.1-0.8,0.2-1.6,0.2-2.4c0-9.1-8.6-16.5-19.1-16.5S226.5,196.8,226.5,205.9"/>
							</g>
						</g>
					</g>
				</g>
				<g>
					<g>
						<g>
							<g>
								<defs>
									<rect id="SVGID_45_" x="133.8" y="134.5" width="232.4" height="238.3"/>
								</defs>
								<clipPath id="SVGID_46_">
									<use xlink:href="#SVGID_45_"  style="overflow:visible;"/>
								</clipPath>
								<path class="st27" d="M263.2,215.5c-0.4,0.7-0.9,1.3-1.5,2c-0.4,0.4-0.8,0.9-1.3,1.3c-0.5,0.4-1.1,0.9-1.6,1.3
									c-1.6,1.1-3.4,2-5.3,2.6c-7.8,2.5-15.7-0.1-17.6-5.9c-0.2-0.5-0.3-1-0.3-1.5c2.6,4.8,9.8,6.8,17,4.5
									c0.6-0.2,1.2-0.4,1.8-0.7c0.2-0.1,0.3-0.2,0.5-0.2c1.3-0.6,2.5-1.3,3.5-2.1c0.5-0.4,1-0.8,1.5-1.2c2.8-2.7,4.4-6.1,3.9-9.3
									c0.2,0.4,0.4,0.9,0.6,1.4C265.2,210.2,264.7,213,263.2,215.5"/>
							</g>
						</g>
					</g>
				</g>
				<g>
					<g>
						<g>
							<g>
								<defs>
									<rect id="SVGID_47_" x="133.8" y="134.5" width="232.4" height="238.3"/>
								</defs>
								<clipPath id="SVGID_48_">
									<use xlink:href="#SVGID_47_"  style="overflow:visible;"/>
								</clipPath>
								<path class="st28" d="M228.9,198.4c-10.3-0.2-18.7,11-19,24.9c-0.2,13.9,7.9,25.4,18.2,25.5c0.9,0,1.7,0,2.5-0.2
									c-9-1.8-15.8-12.5-15.6-25.2c0.2-12.8,7.3-23.2,16.4-24.7C230.6,198.5,229.8,198.4,228.9,198.4"/>
							</g>
						</g>
					</g>
				</g>
				<g>
					<g>
						<g>
							<g>
								<defs>
									<rect id="SVGID_49_" x="133.8" y="134.5" width="232.4" height="238.3"/>
								</defs>
								<clipPath id="SVGID_50_">
									<use xlink:href="#SVGID_49_"  style="overflow:visible;"/>
								</clipPath>
								<path class="st29" d="M232.4,270c10.2,1.1,19.6-9.3,21.1-23.2c1.4-13.9-5.7-26-15.9-27c-0.9-0.1-1.7-0.1-2.5,0
									c8.8,2.6,14.7,13.8,13.4,26.5c-1.3,12.7-9.3,22.5-18.5,23.2C230.7,269.7,231.6,269.9,232.4,270"/>
							</g>
						</g>
					</g>
				</g>
				<g>
					<g>
						<g>
							<g>
								<defs>
									<rect id="SVGID_51_" x="133.8" y="134.5" width="232.4" height="238.3"/>
								</defs>
								<clipPath id="SVGID_52_">
									<use xlink:href="#SVGID_51_"  style="overflow:visible;"/>
								</clipPath>
								<path class="st30" d="M266.7,207.2c0,3.7-3,6.7-6.7,6.7s-6.7-3-6.7-6.7s3-6.7,6.7-6.7C263.7,200.5,266.7,203.5,266.7,207.2"
									/>
							</g>
						</g>
					</g>
				</g>
				<g>
					<g>
						<g>
							<g>
								<defs>
									<rect id="SVGID_53_" x="133.8" y="134.5" width="232.4" height="238.3"/>
								</defs>
								<clipPath id="SVGID_54_">
									<use xlink:href="#SVGID_53_"  style="overflow:visible;"/>
								</clipPath>
								<path class="st31" d="M242.2,207c0,3.7-3,6.7-6.7,6.7c-3.7,0-6.7-3-6.7-6.7s3-6.7,6.7-6.7
									C239.3,200.3,242.2,203.3,242.2,207"/>
							</g>
						</g>
					</g>
				</g>
				<g>
					<g>
						<g>
							<g>
								<defs>
									<rect id="SVGID_55_" x="133.8" y="134.5" width="232.4" height="238.3"/>
								</defs>
								<clipPath id="SVGID_56_">
									<use xlink:href="#SVGID_55_"  style="overflow:visible;"/>
								</clipPath>
								<path class="st32" d="M239.4,212.8c3.2-1,5.1-4.4,4.1-7.7c-1-3.3-4.4-5.1-7.7-4.1c-3.2,1-5.1,4.4-4.1,7.7
									C232.7,212,236.1,213.8,239.4,212.8"/>
							</g>
						</g>
					</g>
				</g>
				<g>
					<g>
						<g>
							<g>
								<defs>
									<rect id="SVGID_57_" x="133.8" y="134.5" width="232.4" height="238.3"/>
								</defs>
								<clipPath id="SVGID_58_">
									<use xlink:href="#SVGID_57_"  style="overflow:visible;"/>
								</clipPath>
								<path class="st33" d="M240.8,210.5c1.6-0.5,2.5-2.2,2-3.8c-0.5-1.6-2.2-2.5-3.8-2c-1.6,0.5-2.5,2.2-2,3.8
									C237.6,210.1,239.3,211,240.8,210.5"/>
							</g>
						</g>
					</g>
				</g>
				<g>
					<g>
						<g>
							<g>
								<defs>
									<rect id="SVGID_59_" x="133.8" y="134.5" width="232.4" height="238.3"/>
								</defs>
								<clipPath id="SVGID_60_">
									<use xlink:href="#SVGID_59_"  style="overflow:visible;"/>
								</clipPath>
								<path class="st34" d="M260.4,212.4c3.2-1,5.1-4.4,4.1-7.7c-1-3.3-4.4-5.1-7.7-4.1c-3.2,1-5.1,4.4-4.1,7.7
									C253.8,211.6,257.2,213.4,260.4,212.4"/>
							</g>
						</g>
					</g>
				</g>
				<g>
					<g>
						<g>
							<g>
								<defs>
									<rect id="SVGID_61_" x="133.8" y="134.5" width="232.4" height="238.3"/>
								</defs>
								<clipPath id="SVGID_62_">
									<use xlink:href="#SVGID_61_"  style="overflow:visible;"/>
								</clipPath>
								<path class="st35" d="M261.9,210c1.6-0.5,2.5-2.2,2-3.8c-0.5-1.6-2.2-2.5-3.8-2c-1.6,0.5-2.5,2.2-2,3.8
									C258.6,209.6,260.3,210.5,261.9,210"/>
							</g>
						</g>
					</g>
				</g>
				<g>
					<g>
						<g>
							<g>
								<defs>
									<rect id="SVGID_63_" x="133.8" y="134.5" width="232.4" height="238.3"/>
								</defs>
								<clipPath id="SVGID_64_">
									<use xlink:href="#SVGID_63_"  style="overflow:visible;"/>
								</clipPath>
								<path class="st36" d="M250.6,232.3c3.7,7,1,15.6-6,19.2c-7,3.7-15.6,1-19.2-6c-3.7-7-1-15.6,6-19.2
									C238.3,222.7,247,225.4,250.6,232.3"/>
							</g>
						</g>
					</g>
				</g>
				<g>
					<g>
						<g>
							<g>
								<defs>
									<rect id="SVGID_65_" x="133.8" y="134.5" width="232.4" height="238.3"/>
								</defs>
								<clipPath id="SVGID_66_">
									<use xlink:href="#SVGID_65_"  style="overflow:visible;"/>
								</clipPath>
								<path class="st37" d="M243.1,224.7c3.7,7,1,15.6-6,19.2c-7,3.7-15.6,1-19.2-6c-3.7-7-1-15.6,6-19.2
									C230.8,215,239.4,217.7,243.1,224.7"/>
							</g>
						</g>
					</g>
				</g>
				<g>
					<g>
						<g>
							<g>
								<defs>
									<rect id="SVGID_67_" x="133.8" y="134.5" width="232.4" height="238.3"/>
								</defs>
								<clipPath id="SVGID_68_">
									<use xlink:href="#SVGID_67_"  style="overflow:visible;"/>
								</clipPath>
								<path class="st38" d="M259.8,215.6l3.3-0.1c-0.4,0.7-0.9,1.3-1.5,2l-3.3-0.6l-5.3-1L259.8,215.6z"/>
							</g>
						</g>
					</g>
				</g>
				<g>
					<g>
						<g>
							<g>
								<defs>
									<rect id="SVGID_69_" x="133.8" y="134.5" width="232.4" height="238.3"/>
								</defs>
								<clipPath id="SVGID_70_">
									<use xlink:href="#SVGID_69_"  style="overflow:visible;"/>
								</clipPath>
								<path class="st39" d="M260.4,218.7c-0.5,0.4-1.1,0.9-1.6,1.3l-4.5-0.9l-0.9-0.2l1.4,0L260.4,218.7z"/>
							</g>
						</g>
					</g>
				</g>
				<g>
					<g>
						<g>
							<g>
								<defs>
									<rect id="SVGID_71_" x="133.8" y="134.5" width="232.4" height="238.3"/>
								</defs>
								<clipPath id="SVGID_72_">
									<use xlink:href="#SVGID_71_"  style="overflow:visible;"/>
								</clipPath>
								<path class="st40" d="M236.9,216.4l-3.3-0.1c0.4,0.7,0.9,1.3,1.5,2l3.3-0.6l5.3-1L236.9,216.4z"/>
							</g>
						</g>
					</g>
				</g>
				<g>
					<g>
						<g>
							<g>
								<defs>
									<rect id="SVGID_73_" x="133.8" y="134.5" width="232.4" height="238.3"/>
								</defs>
								<clipPath id="SVGID_74_">
									<use xlink:href="#SVGID_73_"  style="overflow:visible;"/>
								</clipPath>
								<path class="st41" d="M236.3,219.5c0.5,0.4,1.1,0.9,1.6,1.3l4.5-0.9l0.9-0.2l-1.4,0L236.3,219.5z"/>
							</g>
						</g>
					</g>
				</g>
				<g>
					<g>
						<g>
							<g>
								<defs>
									<rect id="SVGID_75_" x="133.8" y="134.5" width="232.4" height="238.3"/>
								</defs>
								<clipPath id="SVGID_76_">
									<use xlink:href="#SVGID_75_"  style="overflow:visible;"/>
								</clipPath>
								<path class="st42" d="M214.9,199.4l3.3-0.1c-0.4,0.7-0.9,1.3-1.5,2l-3.3-0.6l-5.3-1L214.9,199.4z"/>
							</g>
						</g>
					</g>
				</g>
				<g>
					<g>
						<g>
							<g>
								<defs>
									<rect id="SVGID_77_" x="133.8" y="134.5" width="232.4" height="238.3"/>
								</defs>
								<clipPath id="SVGID_78_">
									<use xlink:href="#SVGID_77_"  style="overflow:visible;"/>
								</clipPath>
								<path class="st43" d="M215.5,202.6c-0.5,0.4-1.1,0.9-1.6,1.3l-4.5-0.9l-0.9-0.2l1.4,0L215.5,202.6z"/>
							</g>
						</g>
					</g>
				</g>
				<g>
					<g>
						<g>
							<g>
								<defs>
									<rect id="SVGID_79_" x="133.8" y="134.5" width="232.4" height="238.3"/>
								</defs>
								<clipPath id="SVGID_80_">
									<use xlink:href="#SVGID_79_"  style="overflow:visible;"/>
								</clipPath>
								<path class="st44" d="M192,200.2l-3.3-0.1c0.4,0.7,0.9,1.3,1.5,2l3.3-0.6l5.3-1L192,200.2z"/>
							</g>
						</g>
					</g>
				</g>
				<g>
					<g>
						<g>
							<g>
								<defs>
									<rect id="SVGID_81_" x="133.8" y="134.5" width="232.4" height="238.3"/>
								</defs>
								<clipPath id="SVGID_82_">
									<use xlink:href="#SVGID_81_"  style="overflow:visible;"/>
								</clipPath>
								<path class="st45" d="M191.4,203.4c0.5,0.4,1.1,0.9,1.6,1.3l4.5-0.9l0.9-0.2l-1.4,0L191.4,203.4z"/>
							</g>
						</g>
					</g>
				</g>
			</g>
			<polygon class="st1" points="220.8,173 209.2,180.3 221.3,186.7 			"/>
			<polygon class="st1" points="187,174.3 190.5,188.5 201,178.5 			"/>
			<g>
				<g>
					<g>
						<g>
							<g>
								<defs>
									<rect id="SVGID_83_" x="133.8" y="134.5" width="232.4" height="238.3"/>
								</defs>
								<clipPath id="SVGID_84_">
									<use xlink:href="#SVGID_83_"  style="overflow:visible;"/>
								</clipPath>
								<path class="st46" d="M212.4,198.4c-3.2-1-5.1-4.4-4.1-7.7c1-3.2,4.4-5.1,7.7-4.1c3.3,1,5.1,4.4,4.1,7.7
									C219,197.6,215.6,199.4,212.4,198.4"/>
							</g>
						</g>
					</g>
				</g>
				<g>
					<g>
						<g>
							<g>
								<defs>
									<rect id="SVGID_85_" x="133.8" y="134.5" width="232.4" height="238.3"/>
								</defs>
								<clipPath id="SVGID_86_">
									<use xlink:href="#SVGID_85_"  style="overflow:visible;"/>
								</clipPath>
								<path class="st47" d="M210.9,196c-1.6-0.5-2.5-2.2-2-3.8c0.5-1.6,2.2-2.5,3.8-2c1.6,0.5,2.5,2.2,2,3.8
									C214.2,195.6,212.5,196.5,210.9,196"/>
							</g>
						</g>
					</g>
				</g>
				<g>
					<g>
						<g>
							<g>
								<defs>
									<rect id="SVGID_87_" x="133.8" y="134.5" width="232.4" height="238.3"/>
								</defs>
								<clipPath id="SVGID_88_">
									<use xlink:href="#SVGID_87_"  style="overflow:visible;"/>
								</clipPath>
								<path class="st48" d="M191.3,197.9c-3.2-1-5.1-4.4-4.1-7.7c1-3.2,4.4-5.1,7.7-4.1c3.2,1,5.1,4.4,4.1,7.7
									C198,197.1,194.5,198.9,191.3,197.9"/>
							</g>
						</g>
					</g>
				</g>
				<g>
					<g>
						<g>
							<g>
								<defs>
									<rect id="SVGID_89_" x="133.8" y="134.5" width="232.4" height="238.3"/>
								</defs>
								<clipPath id="SVGID_90_">
									<use xlink:href="#SVGID_89_"  style="overflow:visible;"/>
								</clipPath>
								<path class="st49" d="M189.9,195.6c-1.6-0.5-2.5-2.2-2-3.8c0.5-1.6,2.2-2.5,3.8-2c1.6,0.5,2.5,2.2,2,3.8
									C193.1,195.2,191.5,196,189.9,195.6"/>
							</g>
						</g>
					</g>
				</g>
				<g>
					<g>
						<g>
							<g>
								<defs>
									<rect id="SVGID_91_" x="133.8" y="134.5" width="232.4" height="238.3"/>
								</defs>
								<clipPath id="SVGID_92_">
									<use xlink:href="#SVGID_91_"  style="overflow:visible;"/>
								</clipPath>
								<path class="st50" d="M210,175.3l-0.3,4.3c-5.2-1.6-10.6,0.2-13.8,4.9c0.2-0.7,0.5-1.4,0.8-2
									C199.4,176.9,204.7,174.3,210,175.3"/>
							</g>
						</g>
					</g>
				</g>
			</g>
			<polygon class="st51" points="343,193.5 304.7,206.9 302.5,192.3 			"/>
			<polygon class="st52" points="328.2,196 304.7,205.8 302.9,193.8 			"/>
			<polygon class="st51" points="342.1,229.3 301.8,224.5 306.2,210.4 			"/>
			<polygon class="st52" points="329.4,225.7 301.7,224.8 306.1,210.7 			"/>
			<polygon class="st51" points="319.8,262.4 288.3,236.8 299.5,227.3 			"/>
			<polygon class="st52" points="307.8,249.6 287.7,237.4 298.9,227.8 			"/>
			<polygon class="st51" points="280.6,279.7 270.8,240.3 285.5,239.4 			"/>
			<polygon class="st52" points="279.8,262.2 273.2,240.3 283.7,239.6 			"/>
			<polygon class="st51" points="331.6,161.1 302.2,189.1 294.1,176.7 			"/>
			<polygon class="st52" points="320.2,168.4 301.2,187.5 295.1,178.2 			"/>
			<polygon class="st51" points="305.3,137.6 291.8,175.8 279,168.5 			"/>
			<polygon class="st52" points="295.4,156.3 291.8,176.1 280,169.3 			"/>
			<polygon class="st51" points="266.5,134.5 261.5,169.9 275.8,169 			"/>
			<polygon class="st52" points="266.5,147.4 275,169.1 260.7,169.9 			"/>
			<polygon class="st51" points="235.6,141.8 257.1,170.4 244.2,176.5 			"/>
			<polygon class="st52" points="241.4,154.9 256.7,170.5 243.8,176.6 			"/>
		</g>
		<g class="st3">
			<path class="st4" d="M156.6,394c0-3.2,2.6-5.7,5.8-5.7c1.3,0,2.6,0.5,3.6,1.2c0.4,0.3,0.5,0.9,0.2,1.3c-0.3,0.4-0.9,0.5-1.3,0.1
				c-0.7-0.5-1.6-0.9-2.5-0.9c-1.1,0-2.1,0.4-2.8,1.2c-0.7,0.7-1.2,1.7-1.2,2.7c0,1.1,0.4,2,1.2,2.7c0.7,0.7,1.7,1.2,2.8,1.2
				c0.8,0,1.5-0.2,2.2-0.6v-2.2h-2.2c-0.5,0-0.9-0.4-0.9-0.9c0-0.5,0.4-0.9,0.9-0.9h3.1c0,0,0,0,0,0c0,0,0,0,0,0
				c0.5,0,0.9,0.4,0.9,0.9v3.5c0,0.1,0,0.2,0,0.3c0,0,0,0,0,0.1v0c0,0.2-0.2,0.3-0.3,0.4c-1,0.8-2.2,1.2-3.6,1.2
				C159.3,399.6,156.6,397.1,156.6,394z"/>
			<path class="st4" d="M169.2,395.7c0-2.1,1.7-3.9,3.8-3.9c2.1,0,3.7,1.5,3.8,3.6c0,0,0,0,0,0.1c0,0,0,0.1,0,0.2
				c0,0.4-0.4,0.6-0.8,0.6h-5c0.1,0.4,0.3,0.8,0.6,1.1c0.3,0.4,1,0.7,1.5,0.7c0.6,0,1.2-0.1,1.6-0.4c0.3-0.3,1-0.3,1.2,0
				c0.2,0.2,0.4,0.7,0,1c-0.8,0.7-1.7,1.1-2.8,1.1C170.9,399.6,169.3,397.8,169.2,395.7z M170.9,394.9h4.4c-0.2-0.6-1-1.6-2.3-1.7
				C171.7,393.3,171.1,394.2,170.9,394.9z"/>
			<path class="st4" d="M186,395C186,395,186,395,186,395v3.8c0,0.5-0.4,0.8-0.8,0.8c-0.4,0-0.9-0.4-0.9-0.8V395c0,0,0,0,0,0
				c0-0.9-0.7-1.6-1.6-1.6c-0.9,0-1.6,0.7-1.6,1.6v3.7c0,0,0,0.1,0,0.1c0,0,0,0,0,0c0,0,0,0.1,0,0.1c0,0,0,0,0,0.1
				c-0.1,0.3-0.5,0.5-0.8,0.5c-0.1,0-0.1,0-0.2,0c-0.4-0.1-0.7-0.4-0.7-0.8V395c0,0,0,0,0,0v-2.4c0-0.5,0.4-0.9,0.8-0.9
				c0.3,0,0.6,0.2,0.8,0.5c0.5-0.3,1.1-0.5,1.7-0.5c1,0,1.9,0.4,2.5,1.1c0.6-0.7,1.5-1.1,2.5-1.1c1.8,0,3.3,1.5,3.3,3.3v3.7
				c0,0.5-0.4,0.8-0.8,0.8s-0.9-0.4-0.9-0.8V395c0-0.9-0.7-1.6-1.6-1.6C186.7,393.4,186,394.2,186,395z"/>
			<path class="st4" d="M196.1,389.8c0,0.5-0.4,0.9-0.9,0.9c-0.5,0-0.9-0.4-0.9-0.9v-0.3c0-0.5,0.4-0.9,0.9-0.9
				c0.5,0,0.9,0.4,0.9,0.9V389.8z M196.1,392.6v6.1c0,0.5-0.4,0.9-0.9,0.9c-0.5,0-0.9-0.4-0.9-0.9v-6.1c0-0.5,0.4-0.9,0.9-0.9
				C195.7,391.8,196.1,392.1,196.1,392.6z"/>
			<path class="st4" d="M205.4,395v3.8c0,0.5-0.4,0.8-0.8,0.8c-0.4,0-0.8-0.4-0.8-0.8V395c0-0.9-0.7-1.6-1.6-1.6
				c-0.9,0-1.6,0.7-1.6,1.6v3.8c0,0,0,0.1,0,0.2c-0.1,0.4-0.4,0.7-0.8,0.7c-0.5,0-0.8-0.4-0.8-0.8V395v-2.4c0-0.5,0.4-0.8,0.8-0.8
				c0.3,0,0.6,0.2,0.8,0.5c0.5-0.3,1.1-0.5,1.7-0.5C203.9,391.7,205.4,393.2,205.4,395z"/>
			<path class="st4" d="M210.2,389.8c0,0.5-0.4,0.9-0.9,0.9c-0.5,0-0.9-0.4-0.9-0.9v-0.3c0-0.5,0.4-0.9,0.9-0.9
				c0.5,0,0.9,0.4,0.9,0.9V389.8z M210.2,392.6v6.1c0,0.5-0.4,0.9-0.9,0.9c-0.5,0-0.9-0.4-0.9-0.9v-6.1c0-0.5,0.4-0.9,0.9-0.9
				C209.8,391.8,210.2,392.1,210.2,392.6z"/>
		</g>
	</g>
</g>
<g id="Layer_21">
	<circle class="st1" cx="25.2" cy="70.5" r="4.4"/>
	<circle class="st1" cx="38" cy="102.1" r="4.4"/>
	<circle class="st1" cx="106.7" cy="22.3" r="4.4"/>
	<circle class="st1" cx="82.9" cy="56" r="4.4"/>
	<path class="st1" d="M78.6,44.8c-10.6,0.6-19.3,8.1-21.8,18c-2.4-9.7-10.9-17.1-21.1-18l0.1-0.1c10.6-0.6,19.3-8.1,21.8-18.1
		c2.4,9.7,10.8,17,20.9,18L78.6,44.8z"/>
	<path class="st1" d="M33.6,36.2c-4.1,0.2-7.5,3.2-8.5,7c-1-3.8-4.2-6.7-8.2-7l0,0c4.1-0.2,7.5-3.2,8.5-7
		C26.4,32.9,29.6,35.8,33.6,36.2L33.6,36.2z"/>
	<path class="st1" d="M42,141.8c-4.1,0.2-7.5,3.2-8.5,7c-1-3.8-4.2-6.7-8.2-7l0,0c4.1-0.2,7.5-3.2,8.5-7.1
		C34.7,138.5,38,141.3,42,141.8L42,141.8z"/>
</g>
<g id="Layer_21_1_">
	<circle class="st1" cx="464.2" cy="407" r="5.9"/>
	<circle class="st1" cx="319.5" cy="466.3" r="5.9"/>
	<circle class="st1" cx="444.2" cy="331.9" r="5.9"/>
	<circle class="st1" cx="446.7" cy="388.4" r="5.9"/>
	<path class="st1" d="M464.2,461c-12.8,0.8-23.3,9.8-26.3,21.8c-3-11.8-13.1-20.7-25.5-21.8l0.1-0.1c12.8-0.8,23.3-9.8,26.3-21.9
		c2.9,11.7,13,20.6,25.3,21.8L464.2,461z"/>
	<path class="st1" d="M369.2,476.9c-6.2,0.4-11.3,4.8-12.8,10.6c-1.4-5.7-6.4-10-12.4-10.6l0,0c6.2-0.4,11.3-4.8,12.8-10.6
		C358.3,472,363.2,476.3,369.2,476.9L369.2,476.9z"/>
	<path class="st1" d="M295.9,476.9c-4.8,0.3-8.7,3.7-9.8,8.1c-1.1-4.4-4.9-7.7-9.5-8.1l0,0c4.8-0.3,8.7-3.7,9.8-8.2
		C287.5,473.1,291.3,476.4,295.9,476.9L295.9,476.9z"/>
	<path class="st1" d="M470,363.6c-7.1,0.4-12.9,5.5-14.6,12.1c-1.6-6.5-7.3-11.5-14.2-12.1l0,0c7.1-0.4,13-5.5,14.6-12.1
		C457.5,358,463.1,362.9,470,363.6L470,363.6z"/>
</g>
</svg>
