<?xml version="1.0" encoding="utf-8"?>
<!-- Generator: Adobe Illustrator 23.0.2, SVG Export Plug-In . SVG Version: 6.00 Build 0)  -->
<svg version="1.1" xmlns="http://www.w3.org/2000/svg" xmlns:xlink="http://www.w3.org/1999/xlink" x="0px" y="0px"
	 viewBox="0 0 252 252" style="enable-background:new 0 0 252 252;" xml:space="preserve">
<style type="text/css">
	.st0{display:none;}
	.st1{display:inline;fill:#FFFFFF;stroke:#252723;stroke-miterlimit:10;}
	.st2{fill:#FFFFFF;}
	.st3{fill:#E7F5FA;}
	.st4{fill:#EDD5C5;}
	.st5{fill:#235D6F;}
	.st6{fill:#D4939C;}
	.st7{fill:#252723;}
	.st8{display:inline;fill:none;stroke:#252723;stroke-miterlimit:10;}
</style>
<g id="Bleed" class="st0">
	<circle class="st1" cx="126" cy="126" r="72"/>
</g>
<g id="Background">
</g>
<g id="Image">
	<circle class="st2" cx="126" cy="126" r="57.66"/>
	<circle class="st3" cx="126" cy="126" r="50.01"/>
	<circle class="st2" cx="126" cy="126" r="40.72"/>
	<circle class="st3" cx="126" cy="126" r="36"/>
	<g>
		<ellipse transform="matrix(0.866 -0.5 0.5 0.866 -44.9733 69.0386)" class="st4" cx="106.34" cy="118.44" rx="2.41" ry="7.08"/>
		
			<ellipse transform="matrix(0.996 -0.0892 0.0892 0.996 -9.5997 10.2377)" class="st4" cx="109.72" cy="112.5" rx="2.41" ry="10.77"/>
		<ellipse class="st4" cx="114.09" cy="111.35" rx="2.41" ry="10.77"/>
		<ellipse class="st4" cx="118.71" cy="112.5" rx="2.41" ry="10.77"/>
		
			<ellipse transform="matrix(0.109 -0.994 0.994 0.109 -6.7537 226.421)" class="st4" cx="122.92" cy="116.98" rx="10.77" ry="2.41"/>
		
			<rect x="107.72" y="118.82" transform="matrix(0.4292 0.9032 -0.9032 0.4292 177.5925 -31.6331)" class="st4" width="12.21" height="11.75"/>
		
			<rect x="113.57" y="123.74" transform="matrix(0.9266 0.376 -0.376 0.9266 57.2431 -34.7323)" class="st4" width="8.06" height="11.08"/>
		<rect x="109.72" y="113.48" class="st4" width="12.31" height="12.31"/>
		<polygon class="st4" points="111.14,131.28 110.45,139.2 119.35,139.31 119.26,135.07 		"/>
		<rect x="109.07" y="132.41" class="st5" width="12.95" height="16.99"/>
		<path class="st4" d="M147.79,119.73c-0.64,1.12-1.35,2.1-2.05,2.9l0,0l-4.68,9.86h-0.8l-0.24-0.11l-0.64-0.31l-0.9,0.42h-7.12
			l-2.61-6.42c-0.84-1.86-1.62-5.06-2.02-8.75c-0.65-5.91-0.1-10.83,1.22-10.97c1.01-0.11,2.19,2.61,2.98,6.55c0-0.11,0-0.22,0-0.33
			c0-5.95,1.08-10.77,2.41-10.77c1.05,0,1.94,2.99,2.27,7.16c0.24-4.77,1.2-8.31,2.34-8.31c1.16,0,2.13,3.68,2.36,8.57
			c0.69-4.36,1.89-7.48,2.97-7.38c1.33,0.12,1.97,5.02,1.44,10.94c-0.11,1.21-0.26,2.36-0.44,3.43c1.82-2.76,3.93-4.43,4.95-3.84
			C150.39,113.06,149.74,116.34,147.79,119.73z"/>
		<polygon class="st5" points="141.05,132.5 141.01,132.58 140.9,132.81 140.25,132.5 		"/>
		<polygon class="st4" points="140.26,132.99 132.79,136.02 132.77,135.98 131.35,132.5 138.47,132.5 139.37,132.08 140.01,132.38 
			140.06,132.5 		"/>
		<polygon class="st4" points="141.59,139.28 132.69,139.4 132.77,135.98 132.79,135.16 138.47,132.5 139.37,132.08 140.01,132.38 
			140.25,132.5 141,132.5 141.01,132.58 		"/>
		<rect x="130.02" y="132.5" class="st5" width="12.95" height="16.99"/>
		<path class="st6" d="M134.1,122.15c-0.54,0.96-1.19,1.79-1.88,2.49h0.04l-6.24,6.89l-5.92-6.54c-0.84-0.73-1.61-1.67-2.26-2.77
			c-2.12-3.6-2.05-7.57,0.16-8.87c2.21-1.3,5.72,0.55,7.84,4.15c0.04,0.06,0.07,0.12,0.11,0.18c0.02-0.04,0.04-0.08,0.07-0.12
			c2.06-3.63,5.54-5.55,7.78-4.28C136.03,114.55,136.17,118.52,134.1,122.15z"/>
	</g>
</g>
<g id="Text">
	<g>
		<path class="st2" d="M106.54,86.32c-0.72-1.77,0.17-3.77,1.96-4.5c0.75-0.3,1.56-0.34,2.29-0.13c0.3,0.07,0.46,0.39,0.39,0.67
			c-0.08,0.28-0.39,0.46-0.68,0.37c-0.5-0.14-1.06-0.12-1.58,0.09c-0.63,0.26-1.09,0.72-1.32,1.29c-0.25,0.56-0.28,1.2-0.04,1.8
			c0.23,0.58,0.7,1.02,1.27,1.25c0.56,0.24,1.21,0.26,1.85,0c0.44-0.18,0.8-0.48,1.07-0.82l-0.49-1.21l-1.26,0.51
			c-0.27,0.11-0.59-0.03-0.71-0.3c-0.11-0.28,0.03-0.59,0.3-0.7l1.73-0.7c0.01,0,0.01,0,0.01,0c0.01,0,0.01,0,0.01,0
			c0.28-0.11,0.6,0,0.71,0.29l0.79,1.95c0.03,0.06,0.02,0.1,0.03,0.16c0,0.02,0,0.03,0,0.05l0,0.01c0,0.09-0.02,0.18-0.08,0.28
			c-0.38,0.66-0.97,1.19-1.72,1.5C109.28,88.89,107.25,88.08,106.54,86.32z"/>
		<path class="st2" d="M114.15,84.55c-0.28-1.26,0.46-2.54,1.73-2.83c1.2-0.28,2.36,0.4,2.72,1.64c0,0.01,0.01,0.03,0.01,0.05
			c0,0.02,0.01,0.06,0.01,0.08c0.02,0.23-0.14,0.42-0.4,0.48l-2.94,0.67c0.09,0.2,0.25,0.42,0.45,0.54
			c0.25,0.18,0.65,0.26,0.98,0.21c0.34-0.05,0.72-0.22,0.91-0.45c0.15-0.25,0.53-0.31,0.69-0.19c0.15,0.1,0.31,0.36,0.14,0.6
			c-0.36,0.52-0.86,0.84-1.52,0.99C115.66,86.62,114.44,85.8,114.15,84.55z M115.05,83.86l2.62-0.6c-0.18-0.35-0.77-0.79-1.59-0.67
			C115.3,82.81,115.04,83.47,115.05,83.86z"/>
		<path class="st2" d="M124.17,82.54l0.2,2.26c0.02,0.27-0.17,0.52-0.45,0.54c-0.27,0.02-0.52-0.18-0.55-0.46l-0.2-2.26
			c-0.05-0.53-0.53-0.92-1.07-0.87c-0.53,0.05-0.91,0.51-0.86,1.04l0.2,2.26c0,0.03,0.01,0.06-0.01,0.1
			c-0.03,0.23-0.22,0.43-0.47,0.45c-0.28,0.03-0.52-0.18-0.54-0.46l-0.2-2.26l-0.13-1.47c-0.02-0.27,0.17-0.52,0.46-0.55
			c0.2-0.02,0.39,0.08,0.49,0.25c0.27-0.2,0.61-0.35,0.98-0.38C123.12,80.65,124.07,81.47,124.17,82.54z"/>
		<path class="st2" d="M125.85,82.88c0.08-1.29,1.14-2.32,2.44-2.26c1.23,0.06,2.17,1.03,2.18,2.32c0,0.01,0,0.03,0,0.05
			c0,0.02,0,0.07-0.01,0.08c-0.04,0.23-0.25,0.37-0.51,0.35l-3.02-0.15c0.04,0.22,0.13,0.47,0.29,0.64
			c0.19,0.24,0.56,0.43,0.89,0.47c0.34,0.05,0.75-0.02,1-0.19c0.21-0.2,0.6-0.15,0.71,0.01c0.12,0.14,0.2,0.43-0.03,0.62
			c-0.49,0.4-1.06,0.57-1.73,0.54C126.74,85.29,125.79,84.17,125.85,82.88z M126.91,82.46l2.69,0.14c-0.08-0.38-0.53-0.97-1.36-1.08
			C127.43,81.52,127,82.08,126.91,82.46z"/>
		<path class="st2" d="M135.04,81.95c-0.04,0.26-0.3,0.46-0.58,0.41c-0.22-0.04-0.41-0.01-0.59,0.08c-0.2,0.08-0.36,0.22-0.51,0.38
			c-0.28,0.26-0.45,0.6-0.52,0.72l-0.3,1.78c-0.04,0.27-0.32,0.46-0.6,0.41c-0.27-0.05-0.46-0.31-0.41-0.58l0.61-3.7
			c0.05-0.27,0.31-0.45,0.58-0.41c0.28,0.05,0.48,0.3,0.44,0.57l-0.01,0.07c0.07-0.06,0.16-0.12,0.23-0.16
			c0.34-0.15,0.78-0.26,1.24-0.17C134.9,81.43,135.08,81.68,135.04,81.95z"/>
		<path class="st2" d="M135.77,85.76c-0.28-0.51-0.36-1.15-0.17-1.79c0.18-0.62,0.57-1.1,1.09-1.42c0.53-0.31,1.14-0.43,1.77-0.25
			c0.6,0.17,1.08,0.59,1.33,1.13c0.29,0.56,0.36,1.16,0.18,1.78c-0.18,0.64-0.57,1.14-1.1,1.43c-0.5,0.32-1.12,0.43-1.73,0.26
			C136.52,86.72,136.06,86.31,135.77,85.76z M136.6,84.25c-0.11,0.39-0.08,0.75,0.05,1.06c0.17,0.28,0.44,0.49,0.78,0.59
			c0.32,0.09,0.65,0.05,0.94-0.1c0.3-0.19,0.52-0.47,0.63-0.87c0.11-0.38,0.07-0.74-0.09-1.05c-0.17-0.27-0.42-0.5-0.74-0.59
			c-0.35-0.1-0.69-0.04-0.98,0.1C136.92,83.58,136.7,83.88,136.6,84.25z"/>
		<path class="st2" d="M142.21,88.67c-0.99-0.43-1.46-1.61-1.02-2.6l0.91-2.08c0.11-0.24,0.41-0.37,0.66-0.26
			c0.26,0.12,0.37,0.42,0.26,0.67l-0.91,2.08c-0.22,0.5,0,1.06,0.5,1.28c0.51,0.22,1.08,0,1.3-0.49l0.91-2.08
			c0.11-0.24,0.39-0.38,0.65-0.26c0.24,0.11,0.38,0.42,0.27,0.67l-0.91,2.08C144.4,88.66,143.21,89.11,142.21,88.67z"/>
		<path class="st2" d="M146.11,89.02c0.26-0.11,0.56,0.04,0.65,0.3c0.11,0.31,0.36,0.71,0.69,0.89c0.22,0.13,0.47,0.18,0.65,0.17
			c0.17-0.03,0.25-0.09,0.29-0.16c0.03-0.04,0.03-0.06,0.03-0.1c0.01-0.03-0.01-0.08-0.05-0.16c-0.07-0.15-0.26-0.38-0.52-0.62
			l-0.01-0.01c-0.22-0.2-0.43-0.41-0.58-0.63c-0.16-0.24-0.27-0.5-0.28-0.81c0-0.2,0.05-0.41,0.17-0.6
			c0.22-0.38,0.62-0.57,1.02-0.61c0.4-0.03,0.81,0.07,1.19,0.29c0.56,0.33,0.8,0.84,0.96,1.18c0.12,0.25,0.02,0.55-0.23,0.68
			c-0.25,0.12-0.55,0.02-0.67-0.25c-0.16-0.33-0.31-0.59-0.57-0.75c-0.2-0.12-0.42-0.16-0.58-0.14c-0.15,0.01-0.22,0.07-0.24,0.11
			c-0.02,0.03-0.02,0.04-0.02,0.07c0,0.02,0,0.07,0.04,0.14c0.06,0.14,0.23,0.34,0.48,0.55l0,0.01l0.01,0.01
			c0.24,0.21,0.45,0.43,0.62,0.69c0.16,0.23,0.29,0.52,0.29,0.83c0,0.22-0.05,0.44-0.17,0.63c-0.24,0.4-0.66,0.61-1.08,0.64
			c-0.42,0.03-0.86-0.07-1.26-0.3c-0.63-0.39-0.95-0.97-1.12-1.43C145.71,89.41,145.85,89.12,146.11,89.02z"/>
	</g>
	<g>
		<path class="st7" d="M105.96,86.56c-0.74-1.76,0.12-3.77,1.89-4.52c0.74-0.32,1.56-0.36,2.28-0.16c0.3,0.07,0.47,0.38,0.4,0.67
			c-0.08,0.28-0.38,0.46-0.67,0.38c-0.5-0.13-1.06-0.11-1.58,0.11c-0.63,0.27-1.08,0.74-1.31,1.3c-0.24,0.57-0.26,1.2-0.01,1.8
			c0.24,0.58,0.72,1.01,1.29,1.23c0.56,0.24,1.21,0.24,1.84-0.03c0.44-0.18,0.79-0.49,1.06-0.84l-0.51-1.2l-1.25,0.53
			c-0.27,0.12-0.6-0.02-0.71-0.29c-0.12-0.28,0.02-0.59,0.29-0.7l1.72-0.73c0.01,0,0.01,0,0.01,0c0.01,0,0.01,0,0.01,0
			c0.28-0.12,0.6,0,0.71,0.28l0.82,1.93c0.03,0.06,0.02,0.1,0.04,0.16c0,0.02,0,0.03,0,0.05l0,0.01c0.01,0.09-0.02,0.18-0.08,0.28
			c-0.37,0.66-0.95,1.21-1.7,1.52C108.74,89.08,106.7,88.31,105.96,86.56z"/>
		<path class="st7" d="M113.54,84.67c-0.3-1.26,0.42-2.55,1.69-2.86c1.2-0.29,2.37,0.37,2.75,1.6c0,0.01,0.01,0.03,0.01,0.05
			c0,0.02,0.02,0.06,0.01,0.08c0.03,0.23-0.13,0.42-0.39,0.49l-2.93,0.72c0.1,0.2,0.26,0.42,0.46,0.53c0.25,0.17,0.66,0.25,0.99,0.2
			c0.34-0.05,0.72-0.23,0.9-0.46c0.14-0.25,0.53-0.32,0.69-0.2c0.15,0.1,0.31,0.35,0.15,0.6c-0.35,0.53-0.85,0.85-1.5,1.01
			C115.09,86.72,113.86,85.92,113.54,84.67z M114.44,83.97l2.61-0.64c-0.18-0.35-0.79-0.78-1.6-0.64
			C114.67,82.92,114.42,83.58,114.44,83.97z"/>
		<path class="st7" d="M123.54,82.52l0.23,2.26c0.03,0.27-0.17,0.52-0.44,0.55c-0.26,0.03-0.52-0.18-0.55-0.45l-0.23-2.26
			c-0.05-0.53-0.54-0.91-1.08-0.85c-0.53,0.05-0.9,0.52-0.85,1.05l0.23,2.26c0,0.03,0.01,0.06-0.01,0.1
			c-0.02,0.23-0.21,0.43-0.46,0.46c-0.28,0.03-0.52-0.18-0.55-0.45l-0.23-2.26l-0.15-1.46c-0.03-0.27,0.17-0.52,0.45-0.55
			c0.2-0.02,0.39,0.08,0.49,0.25c0.27-0.21,0.6-0.36,0.97-0.39C122.46,80.64,123.43,81.45,123.54,82.52z"/>
		<path class="st7" d="M125.22,82.83c0.06-1.29,1.1-2.34,2.41-2.29c1.24,0.04,2.18,1,2.21,2.29c0,0.01,0,0.03,0,0.05
			c0,0.02,0,0.07-0.01,0.09c-0.04,0.23-0.24,0.37-0.51,0.36l-3.02-0.11c0.04,0.22,0.14,0.47,0.3,0.64c0.19,0.24,0.56,0.42,0.9,0.46
			c0.34,0.04,0.75-0.03,1-0.2c0.21-0.2,0.6-0.16,0.71,0c0.12,0.14,0.2,0.43-0.02,0.62c-0.48,0.41-1.05,0.59-1.72,0.57
			C126.15,85.23,125.18,84.12,125.22,82.83z M126.27,82.4l2.69,0.1c-0.08-0.38-0.55-0.96-1.37-1.06
			C126.78,81.45,126.36,82.01,126.27,82.4z"/>
		<path class="st7" d="M134.39,81.77c-0.04,0.26-0.29,0.47-0.57,0.42c-0.22-0.03-0.41,0-0.59,0.09c-0.2,0.09-0.36,0.22-0.5,0.39
			c-0.27,0.27-0.44,0.61-0.5,0.73l-0.27,1.79c-0.04,0.27-0.31,0.46-0.59,0.42c-0.27-0.04-0.46-0.3-0.42-0.57l0.56-3.71
			c0.04-0.27,0.3-0.45,0.57-0.41c0.28,0.04,0.49,0.29,0.44,0.57l-0.01,0.07c0.07-0.06,0.15-0.12,0.23-0.16
			c0.34-0.16,0.77-0.27,1.24-0.19C134.25,81.25,134.43,81.5,134.39,81.77z"/>
		<path class="st7" d="M135.19,85.57c-0.29-0.51-0.37-1.14-0.2-1.79c0.17-0.62,0.55-1.1,1.07-1.44c0.53-0.32,1.13-0.44,1.77-0.27
			c0.61,0.16,1.09,0.58,1.35,1.11c0.29,0.55,0.38,1.16,0.21,1.78c-0.17,0.64-0.55,1.15-1.08,1.44c-0.49,0.33-1.12,0.45-1.72,0.29
			C135.95,86.52,135.48,86.11,135.19,85.57z M135.99,84.05c-0.11,0.4-0.07,0.75,0.07,1.06c0.17,0.28,0.44,0.48,0.79,0.58
			c0.32,0.09,0.65,0.04,0.94-0.11c0.3-0.2,0.51-0.48,0.62-0.88c0.1-0.38,0.06-0.74-0.1-1.05c-0.18-0.26-0.43-0.49-0.75-0.58
			c-0.35-0.09-0.69-0.03-0.97,0.11C136.3,83.37,136.09,83.67,135.99,84.05z"/>
		<path class="st7" d="M141.66,88.39c-1-0.42-1.48-1.59-1.06-2.59l0.88-2.1c0.1-0.25,0.41-0.38,0.66-0.27
			c0.26,0.11,0.37,0.41,0.27,0.66l-0.88,2.1c-0.21,0.5,0.02,1.06,0.52,1.27c0.51,0.21,1.08-0.01,1.3-0.51l0.88-2.1
			c0.1-0.25,0.39-0.38,0.65-0.27c0.25,0.1,0.38,0.42,0.28,0.66l-0.88,2.1C143.86,88.34,142.67,88.81,141.66,88.39z"/>
		<path class="st7" d="M145.57,88.68c0.26-0.11,0.56,0.03,0.66,0.29c0.11,0.3,0.37,0.71,0.7,0.88c0.22,0.13,0.47,0.17,0.65,0.17
			c0.17-0.03,0.25-0.1,0.29-0.16c0.02-0.04,0.03-0.06,0.02-0.1c0.01-0.03-0.01-0.08-0.05-0.16c-0.07-0.15-0.26-0.38-0.53-0.61
			l-0.01-0.01c-0.23-0.2-0.44-0.4-0.59-0.63c-0.16-0.24-0.27-0.5-0.29-0.8c-0.01-0.2,0.05-0.41,0.16-0.6
			c0.22-0.38,0.62-0.58,1.01-0.63c0.4-0.03,0.81,0.06,1.19,0.28c0.57,0.33,0.82,0.83,0.98,1.16c0.12,0.25,0.02,0.55-0.22,0.69
			c-0.25,0.12-0.55,0.02-0.68-0.23c-0.17-0.33-0.32-0.59-0.58-0.74c-0.21-0.12-0.42-0.16-0.58-0.14c-0.15,0.01-0.22,0.07-0.24,0.11
			c-0.02,0.03-0.02,0.04-0.02,0.08c0,0.02,0,0.07,0.04,0.13c0.06,0.13,0.24,0.33,0.49,0.54l0,0.01l0.01,0
			c0.24,0.21,0.46,0.43,0.63,0.68c0.17,0.23,0.3,0.51,0.31,0.82c0,0.22-0.05,0.44-0.16,0.63c-0.23,0.4-0.65,0.62-1.07,0.66
			c-0.42,0.04-0.86-0.05-1.26-0.29c-0.64-0.38-0.96-0.96-1.14-1.41C145.18,89.07,145.32,88.78,145.57,88.68z"/>
	</g>
</g>
<g id="Safe_Area" class="st0">
	<circle class="st8" cx="126" cy="126" r="54"/>
</g>
</svg>
