<?xml version="1.0" encoding="utf-8"?>
<!-- Generator: Adobe Illustrator 23.0.2, SVG Export Plug-In . SVG Version: 6.00 Build 0)  -->
<svg version="1.1" xmlns="http://www.w3.org/2000/svg" xmlns:xlink="http://www.w3.org/1999/xlink" x="0px" y="0px"
	 viewBox="0 0 252 252" style="enable-background:new 0 0 252 252;" xml:space="preserve">
<style type="text/css">
	.st0{display:none;}
	.st1{display:inline;fill:#FFFFFF;stroke:#252723;stroke-miterlimit:10;}
	.st2{fill:#FFFFFF;}
	.st3{fill:#D8725E;}
	.st4{clip-path:url(#SVGID_2_);fill:#212020;}
	.st5{clip-path:url(#SVGID_2_);fill:#FFFFFF;}
	.st6{display:inline;fill:none;stroke:#252723;stroke-miterlimit:10;}
</style>
<g id="Bleed" class="st0">
	<circle class="st1" cx="126" cy="126" r="72"/>
</g>
<g id="Background">
</g>
<g id="Image">
	<circle class="st2" cx="126" cy="126" r="57.66"/>
	<circle class="st3" cx="126" cy="126" r="50.01"/>
	<circle class="st2" cx="126" cy="126" r="45.64"/>
	<circle class="st3" cx="126" cy="126" r="40.51"/>
	<circle class="st2" cx="126" cy="132.23" r="38.29"/>
	<g>
		<g>
			<defs>
				<rect id="SVGID_1_" x="98.02" y="106.09" width="55.96" height="52.28"/>
			</defs>
			<clipPath id="SVGID_2_">
				<use xlink:href="#SVGID_1_"  style="overflow:visible;"/>
			</clipPath>
			<path class="st4" d="M146.18,106.41l3.99,11.34c0.11,0.31-0.12,0.62-0.44,0.62h-7.98c-0.32,0-0.55-0.32-0.44-0.62l3.99-11.34
				C145.44,105.99,146.03,105.99,146.18,106.41"/>
			<path class="st4" d="M148.88,120.03l-15,5.28c-1.02,0.36-2.14-0.18-2.5-1.2l-0.38-1.08c-0.36-1.02,0.18-2.14,1.2-2.5l15-5.28
				c1.02-0.36,2.14,0.18,2.5,1.2l0.38,1.08C150.43,118.55,149.9,119.67,148.88,120.03"/>
			<path class="st4" d="M148.87,117.24l-16.74,5.89c-0.54,0.19-1.14-0.09-1.33-0.64l-0.99-2.82c-0.19-0.54,0.09-1.14,0.63-1.33
				l16.74-5.89c0.54-0.19,1.13,0.09,1.32,0.64l0.99,2.82C149.7,116.46,149.41,117.05,148.87,117.24"/>
			<path class="st4" d="M109.46,106.41l-3.99,11.34c-0.11,0.31,0.12,0.62,0.44,0.62h7.98c0.32,0,0.55-0.32,0.44-0.62l-3.99-11.34
				C110.2,105.99,109.61,105.99,109.46,106.41"/>
			<path class="st4" d="M106.76,120.03l15,5.28c1.02,0.36,2.14-0.18,2.5-1.2l0.38-1.08c0.36-1.02-0.18-2.14-1.2-2.5l-15-5.28
				c-1.02-0.36-2.14,0.18-2.5,1.2l-0.38,1.08C105.2,118.55,105.74,119.67,106.76,120.03"/>
			<path class="st4" d="M106.77,117.24l16.74,5.89c0.54,0.19,1.14-0.09,1.33-0.64l0.99-2.82c0.19-0.54-0.09-1.14-0.64-1.33
				l-16.74-5.89c-0.54-0.19-1.13,0.09-1.32,0.64l-0.99,2.82C105.94,116.46,106.23,117.05,106.77,117.24"/>
			<path class="st4" d="M147.67,136.3c0,10.53-9.92,19.07-22.15,19.07c-12.23,0-22.15-8.54-22.15-19.07s9.92-19.07,22.15-19.07
				C137.75,117.23,147.67,125.77,147.67,136.3"/>
			<path class="st5" d="M145.6,136.3c0,9.55-8.99,17.29-20.08,17.29s-20.08-7.74-20.08-17.29s8.99-17.29,20.08-17.29
				S145.6,126.75,145.6,136.3"/>
			<path class="st4" d="M134.63,139.46c-3.65-1.12-5.69-4.99-4.57-8.63c1.12-3.65,4.99-5.69,8.63-4.57
				c3.64,1.12,5.69,4.99,4.57,8.63C142.14,138.54,138.28,140.58,134.63,139.46"/>
			<path class="st5" d="M133,136.79c-1.78-0.55-2.78-2.44-2.24-4.23c0.55-1.78,2.44-2.79,4.23-2.24c1.78,0.55,2.78,2.44,2.23,4.23
				C136.67,136.34,134.78,137.34,133,136.79"/>
			<path class="st4" d="M110.93,138.93c-3.65-1.12-5.69-4.99-4.57-8.63c1.12-3.65,4.99-5.69,8.63-4.57
				c3.64,1.12,5.69,4.99,4.56,8.63C118.43,138.01,114.57,140.05,110.93,138.93"/>
			<path class="st5" d="M109.29,136.26c-1.78-0.55-2.78-2.44-2.24-4.22c0.55-1.78,2.44-2.79,4.23-2.24
				c1.78,0.55,2.78,2.44,2.23,4.23C112.97,135.81,111.08,136.81,109.29,136.26"/>
			<path class="st4" d="M136.79,151.43c0,3.84-5.55,6.95-12.39,6.95c-6.84,0-12.39-3.11-12.39-6.95s5.55-6.94,12.39-6.94
				C131.24,144.48,136.79,147.59,136.79,151.43"/>
			<path class="st5" d="M123.19,149.7c0,1.21-0.98,2.19-2.19,2.19c-1.21,0-2.19-0.98-2.19-2.19c0-1.21,0.98-2.2,2.19-2.2
				C122.21,147.5,123.19,148.48,123.19,149.7"/>
			<path class="st5" d="M129.81,149.7c0,1.21-0.98,2.19-2.2,2.19c-1.21,0-2.19-0.98-2.19-2.19c0-1.21,0.98-2.2,2.19-2.2
				C128.83,147.5,129.81,148.48,129.81,149.7"/>
			<path class="st4" d="M105.49,127.04c3.69-0.84,6.35-2.99,5.93-4.8c-0.41-1.81-3.74-2.6-7.43-1.76c-3.69,0.84-6.35,2.99-5.93,4.8
				C98.47,127.1,101.8,127.89,105.49,127.04"/>
			<path class="st4" d="M146.51,127.04c-3.69-0.84-6.35-2.99-5.93-4.8c0.41-1.81,3.74-2.6,7.43-1.76c3.69,0.84,6.35,2.99,5.93,4.8
				C153.53,127.1,150.2,127.89,146.51,127.04"/>
		</g>
	</g>
</g>
<g id="Text">
</g>
<g id="Safe_Area" class="st0">
	<circle class="st6" cx="126" cy="126" r="54"/>
</g>
</svg>
