<?xml version="1.0" encoding="utf-8"?>
<!-- Generator: Adobe Illustrator 23.0.2, SVG Export Plug-In . SVG Version: 6.00 Build 0)  -->
<svg version="1.1" id="Layer_1" xmlns="http://www.w3.org/2000/svg" xmlns:xlink="http://www.w3.org/1999/xlink" x="0px" y="0px"
	 viewBox="0 0 360 504" style="enable-background:new 0 0 360 504;" xml:space="preserve">
<style type="text/css">
	.st0{fill:#FFFFFF;}
	.st1{fill:#BFDBCA;}
	.st2{enable-background:new    ;}
	.st3{fill:#252723;}
	.st4{clip-path:url(#SVGID_2_);fill:#212020;}
	.st5{clip-path:url(#SVGID_4_);fill:#212020;}
	.st6{clip-path:url(#SVGID_6_);fill:#212020;}
	.st7{clip-path:url(#SVGID_8_);fill:#212020;}
	.st8{clip-path:url(#SVGID_10_);fill:#212020;}
	.st9{clip-path:url(#SVGID_12_);fill:#212020;}
	.st10{clip-path:url(#SVGID_14_);fill:#212020;}
	.st11{clip-path:url(#SVGID_16_);fill:#FFFFFF;}
	.st12{clip-path:url(#SVGID_18_);fill:#212020;}
	.st13{clip-path:url(#SVGID_20_);fill:#FFFFFF;}
	.st14{clip-path:url(#SVGID_22_);fill:#212020;}
	.st15{clip-path:url(#SVGID_24_);fill:#FFFFFF;}
	.st16{clip-path:url(#SVGID_26_);fill:#212020;}
	.st17{clip-path:url(#SVGID_28_);fill:#FFFFFF;}
	.st18{clip-path:url(#SVGID_30_);fill:#FFFFFF;}
	.st19{clip-path:url(#SVGID_32_);fill:#212020;}
	.st20{clip-path:url(#SVGID_34_);fill:#212020;}
	.st21{clip-path:url(#SVGID_36_);fill:#4E8238;}
	.st22{clip-path:url(#SVGID_38_);fill:#4E8238;}
	.st23{clip-path:url(#SVGID_40_);fill:#4E8238;}
	.st24{clip-path:url(#SVGID_42_);fill:#4E8238;}
	.st25{clip-path:url(#SVGID_44_);fill:#4E8238;}
	.st26{clip-path:url(#SVGID_46_);fill:#4E8238;}
	.st27{clip-path:url(#SVGID_48_);fill:#4E8238;}
	.st28{clip-path:url(#SVGID_50_);fill:#4E8238;}
	.st29{clip-path:url(#SVGID_52_);fill:#AAC538;}
	.st30{clip-path:url(#SVGID_54_);fill:#AAC538;}
	.st31{clip-path:url(#SVGID_56_);fill:#AAC538;}
	.st32{clip-path:url(#SVGID_58_);fill:#AAC538;}
	.st33{clip-path:url(#SVGID_60_);fill:#AAC538;}
	.st34{clip-path:url(#SVGID_62_);fill:#AAC538;}
	.st35{clip-path:url(#SVGID_64_);fill:#AAC538;}
	.st36{clip-path:url(#SVGID_66_);fill:#AAC538;}
	.st37{clip-path:url(#SVGID_68_);fill:#C93635;}
	.st38{clip-path:url(#SVGID_70_);fill:#C93635;}
	.st39{clip-path:url(#SVGID_72_);fill:#C93635;}
	.st40{clip-path:url(#SVGID_74_);fill:#C93635;}
	.st41{clip-path:url(#SVGID_76_);fill:#C93635;}
	.st42{clip-path:url(#SVGID_78_);fill:#D36768;}
	.st43{clip-path:url(#SVGID_80_);fill:#D36768;}
	.st44{clip-path:url(#SVGID_82_);fill:#D36768;}
	.st45{clip-path:url(#SVGID_84_);fill:#D36768;}
	.st46{clip-path:url(#SVGID_86_);fill:#D36768;}
	.st47{clip-path:url(#SVGID_88_);fill:#DFB61D;}
	.st48{clip-path:url(#SVGID_90_);fill:#DFB61D;}
	.st49{clip-path:url(#SVGID_92_);fill:#DFB61D;}
	.st50{clip-path:url(#SVGID_94_);fill:#DFB61D;}
	.st51{clip-path:url(#SVGID_96_);fill:#DFB61D;}
	.st52{clip-path:url(#SVGID_98_);fill:#EFD018;}
	.st53{clip-path:url(#SVGID_100_);fill:#EFD018;}
	.st54{clip-path:url(#SVGID_102_);fill:#EFD018;}
	.st55{clip-path:url(#SVGID_104_);fill:#EFD018;}
	.st56{clip-path:url(#SVGID_106_);fill:#EFD018;}
	.st57{clip-path:url(#SVGID_108_);fill:#653020;}
	.st58{clip-path:url(#SVGID_110_);fill:#653020;}
	.st59{clip-path:url(#SVGID_112_);fill:#653020;}
	.st60{clip-path:url(#SVGID_114_);fill:#653020;}
	.st61{clip-path:url(#SVGID_116_);fill:#653020;}
	.st62{clip-path:url(#SVGID_118_);fill:#518E3E;}
	.st63{clip-path:url(#SVGID_120_);fill:#518E3E;}
	.st64{clip-path:url(#SVGID_122_);fill:#518E3E;}
	.st65{clip-path:url(#SVGID_124_);fill:#518E3E;}
	.st66{clip-path:url(#SVGID_126_);fill:#518E3E;}
	.st67{clip-path:url(#SVGID_128_);fill:#518E3E;}
	.st68{clip-path:url(#SVGID_130_);fill:#518E3E;}
	.st69{clip-path:url(#SVGID_132_);fill:#518E3E;}
	.st70{clip-path:url(#SVGID_134_);fill:#80BCA7;}
	.st71{clip-path:url(#SVGID_136_);fill:#80BCA7;}
	.st72{clip-path:url(#SVGID_138_);fill:#80BCA7;}
	.st73{clip-path:url(#SVGID_140_);fill:#80BCA7;}
	.st74{clip-path:url(#SVGID_142_);fill:#80BCA7;}
	.st75{clip-path:url(#SVGID_144_);fill:#80BCA7;}
	.st76{clip-path:url(#SVGID_146_);fill:#80BCA7;}
	.st77{clip-path:url(#SVGID_148_);fill:#80BCA7;}
	.st78{clip-path:url(#SVGID_150_);fill:#5FA847;}
	.st79{clip-path:url(#SVGID_152_);fill:#5FA847;}
	.st80{clip-path:url(#SVGID_154_);fill:#5FA847;}
	.st81{clip-path:url(#SVGID_156_);fill:#5FA847;}
	.st82{clip-path:url(#SVGID_158_);fill:#5FA847;}
	.st83{clip-path:url(#SVGID_160_);fill:#5FA847;}
	.st84{clip-path:url(#SVGID_162_);fill:#5FA847;}
	.st85{clip-path:url(#SVGID_164_);fill:#5FA847;}
	.st86{clip-path:url(#SVGID_166_);fill:#3F7033;}
	.st87{clip-path:url(#SVGID_168_);fill:#3F7033;}
	.st88{clip-path:url(#SVGID_170_);fill:#3F7033;}
	.st89{clip-path:url(#SVGID_172_);fill:#3F7033;}
	.st90{clip-path:url(#SVGID_174_);fill:#3F7033;}
	.st91{clip-path:url(#SVGID_176_);fill:#3F7033;}
	.st92{clip-path:url(#SVGID_178_);fill:#3F7033;}
	.st93{clip-path:url(#SVGID_180_);fill:#3F7033;}
	.st94{clip-path:url(#SVGID_182_);fill:#82B541;}
	.st95{clip-path:url(#SVGID_184_);fill:#82B541;}
	.st96{clip-path:url(#SVGID_186_);fill:#82B541;}
	.st97{clip-path:url(#SVGID_188_);fill:#82B541;}
	.st98{clip-path:url(#SVGID_190_);fill:#82B541;}
	.st99{clip-path:url(#SVGID_192_);fill:#82B541;}
	.st100{clip-path:url(#SVGID_194_);fill:#82B541;}
	.st101{clip-path:url(#SVGID_196_);fill:#82B541;}
	.st102{clip-path:url(#SVGID_198_);fill:#80BCA7;}
	.st103{clip-path:url(#SVGID_200_);fill:#80BCA7;}
	.st104{clip-path:url(#SVGID_202_);fill:#80BCA7;}
	.st105{clip-path:url(#SVGID_204_);fill:#80BCA7;}
	.st106{clip-path:url(#SVGID_206_);fill:#80BCA7;}
	.st107{clip-path:url(#SVGID_208_);fill:#80BCA7;}
	.st108{clip-path:url(#SVGID_210_);fill:#80BCA7;}
	.st109{clip-path:url(#SVGID_212_);fill:#80BCA7;}
	.st110{clip-path:url(#SVGID_214_);fill:#D87E7F;}
	.st111{clip-path:url(#SVGID_216_);fill:#D87E7F;}
	.st112{clip-path:url(#SVGID_218_);fill:#D87E7F;}
	.st113{clip-path:url(#SVGID_220_);fill:#D87E7F;}
	.st114{clip-path:url(#SVGID_222_);fill:#D87E7F;}
	.st115{clip-path:url(#SVGID_224_);fill:#FDF4A5;}
	.st116{clip-path:url(#SVGID_226_);fill:#FDF4A5;}
	.st117{clip-path:url(#SVGID_228_);fill:#FDF4A5;}
	.st118{clip-path:url(#SVGID_230_);fill:#FDF4A5;}
	.st119{clip-path:url(#SVGID_232_);fill:#FDF4A5;}
	.st120{clip-path:url(#SVGID_234_);fill:#D87E7F;}
	.st121{clip-path:url(#SVGID_236_);fill:#D87E7F;}
	.st122{clip-path:url(#SVGID_238_);fill:#D87E7F;}
	.st123{clip-path:url(#SVGID_240_);fill:#D87E7F;}
	.st124{clip-path:url(#SVGID_242_);fill:#D87E7F;}
	.st125{clip-path:url(#SVGID_244_);fill:#FDF4A5;}
	.st126{clip-path:url(#SVGID_246_);fill:#FDF4A5;}
	.st127{clip-path:url(#SVGID_248_);fill:#FDF4A5;}
	.st128{clip-path:url(#SVGID_250_);fill:#FDF4A5;}
	.st129{clip-path:url(#SVGID_252_);fill:#FDF4A5;}
	.st130{clip-path:url(#SVGID_254_);fill:#D87E7F;}
	.st131{clip-path:url(#SVGID_256_);fill:#D87E7F;}
	.st132{clip-path:url(#SVGID_258_);fill:#D87E7F;}
	.st133{clip-path:url(#SVGID_260_);fill:#D87E7F;}
	.st134{clip-path:url(#SVGID_262_);fill:#D87E7F;}
	.st135{clip-path:url(#SVGID_264_);fill:#FDF4A5;}
	.st136{clip-path:url(#SVGID_266_);fill:#FDF4A5;}
	.st137{clip-path:url(#SVGID_268_);fill:#FDF4A5;}
	.st138{clip-path:url(#SVGID_270_);fill:#FDF4A5;}
	.st139{clip-path:url(#SVGID_272_);fill:#FDF4A5;}
	.st140{clip-path:url(#SVGID_274_);fill:#D87E7F;}
	.st141{clip-path:url(#SVGID_276_);fill:#D87E7F;}
	.st142{clip-path:url(#SVGID_278_);fill:#D87E7F;}
	.st143{clip-path:url(#SVGID_280_);fill:#D87E7F;}
	.st144{clip-path:url(#SVGID_282_);fill:#D87E7F;}
	.st145{clip-path:url(#SVGID_284_);fill:#FDF4A5;}
	.st146{clip-path:url(#SVGID_286_);fill:#FDF4A5;}
	.st147{clip-path:url(#SVGID_288_);fill:#FDF4A5;}
	.st148{clip-path:url(#SVGID_290_);fill:#FDF4A5;}
	.st149{clip-path:url(#SVGID_292_);fill:#FDF4A5;}
</style>
<g id="Color_Strip">
	<rect x="45" y="63" class="st0" width="270" height="378"/>
	<rect x="45" y="373.31" class="st1" width="27.15" height="40.22"/>
	<rect x="164.86" y="373.31" class="st1" width="150.14" height="40.22"/>
</g>
<g id="Date">
	<g class="st2">
		<path class="st3" d="M92.8,406.36h-2.4l-0.47,1.24c-0.03,0.08-0.1,0.12-0.17,0.12c-0.02,0-0.04-0.01-0.07-0.01
			c-0.09-0.04-0.14-0.15-0.11-0.24l1.82-4.87c0.03-0.07,0.1-0.11,0.18-0.11c0.08,0,0.16,0.04,0.18,0.11l1.82,4.87
			c0.04,0.09-0.01,0.2-0.1,0.24c-0.03,0-0.04,0.01-0.07,0.01c-0.07,0-0.14-0.04-0.17-0.12L92.8,406.36z M90.54,405.99h2.12
			l-1.06-2.82L90.54,405.99z"/>
		<path class="st3" d="M94.68,405.94v-0.08v-0.08v-1.57c0-0.1,0.08-0.18,0.18-0.18c0.1,0,0.19,0.08,0.19,0.18v0.53
			c0.32-0.43,0.83-0.71,1.4-0.71c0.99,0,1.78,0.82,1.78,1.82c0,1-0.79,1.83-1.78,1.83c-0.57,0-1.08-0.29-1.4-0.72v2.1
			c0,0.1-0.08,0.18-0.19,0.18c-0.1,0-0.18-0.08-0.18-0.18V405.94z M95.05,405.87c0,0.81,0.64,1.46,1.4,1.47
			c0.78-0.01,1.41-0.66,1.41-1.47s-0.63-1.46-1.41-1.46c-0.74,0-1.37,0.62-1.4,1.4V405.87z"/>
		<path class="st3" d="M99.63,404.23c0-0.1,0.08-0.18,0.19-0.18c0.09,0,0.17,0.08,0.17,0.18v0.81c0.02-0.03,0.03-0.06,0.05-0.09
			c0.28-0.44,0.77-0.9,1.47-0.9c0.1,0,0.18,0.08,0.18,0.18c0,0.1-0.08,0.18-0.18,0.18c-0.48,0-0.81,0.27-1.07,0.6
			c-0.25,0.33-0.39,0.71-0.44,0.86c-0.02,0.03-0.02,0.04-0.02,0.06v1.61c0,0.1-0.08,0.18-0.17,0.18c-0.1,0-0.19-0.08-0.19-0.18
			V404.23z"/>
		<path class="st3" d="M104.88,407.4l2.46-2.21c0.29-0.27,0.45-0.63,0.45-1.01c0-0.32-0.12-0.65-0.35-0.9
			c-0.26-0.29-0.63-0.44-1-0.44c-0.33,0-0.65,0.11-0.92,0.35l-0.26,0.23c-0.07,0.08-0.19,0.07-0.25-0.01
			c-0.08-0.08-0.07-0.2,0.01-0.26l0.26-0.24c0.33-0.29,0.75-0.44,1.16-0.44c0.46,0,0.92,0.18,1.26,0.56
			c0.31,0.33,0.45,0.74,0.45,1.15c0,0.46-0.19,0.93-0.56,1.28l-2.1,1.9h2.48c0.1,0,0.18,0.08,0.18,0.19c0,0.1-0.08,0.18-0.18,0.18
			h-2.93h-0.03c-0.05,0-0.11-0.01-0.14-0.05C104.81,407.58,104.81,407.47,104.88,407.4z"/>
		<path class="st3" d="M109.39,405.09c0-0.71,0.18-1.35,0.5-1.84c0.32-0.47,0.78-0.79,1.31-0.79c0.53,0,0.99,0.32,1.31,0.79
			c0.32,0.49,0.51,1.13,0.51,1.84c0,0.71-0.19,1.35-0.51,1.83c-0.32,0.47-0.78,0.8-1.31,0.8c-0.53,0-0.99-0.32-1.31-0.8
			C109.57,406.44,109.39,405.8,109.39,405.09z M109.76,405.09c0,0.65,0.17,1.22,0.44,1.63c0.27,0.4,0.63,0.63,1.01,0.63
			s0.73-0.23,1.01-0.63c0.27-0.41,0.45-0.98,0.45-1.63s-0.18-1.22-0.45-1.63c-0.28-0.41-0.63-0.63-1.01-0.63s-0.74,0.22-1.01,0.63
			C109.93,403.87,109.76,404.45,109.76,405.09z"/>
		<path class="st3" d="M116.97,405.11c0-0.08,0.06-0.14,0.14-0.14h1.6c0.08,0,0.14,0.05,0.14,0.14c0,0.09-0.07,0.15-0.14,0.15h-1.6
			C117.03,405.26,116.97,405.2,116.97,405.11z"/>
		<path class="st3" d="M126.62,403.22l-1.68,2.33c-0.04,0.06-0.1,0.08-0.15,0.08h-0.02c-0.07,0-0.12-0.02-0.16-0.08l-1.68-2.33v4.32
			c0,0.1-0.08,0.18-0.18,0.18c-0.1,0-0.19-0.08-0.19-0.18v-4.87c0-0.06,0.03-0.11,0.08-0.14c0-0.01,0.01-0.01,0.01-0.01
			c0.08-0.05,0.2-0.04,0.26,0.04l1.87,2.59l1.86-2.59c0.05-0.08,0.17-0.1,0.25-0.04c0.02,0.02,0.04,0.04,0.05,0.06
			c0.02,0.03,0.03,0.07,0.03,0.1v4.87c0,0.1-0.08,0.18-0.18,0.18c-0.11,0-0.18-0.08-0.18-0.18V403.22z"/>
		<path class="st3" d="M131.9,404.22v3.32c0,0.1-0.08,0.18-0.18,0.18s-0.18-0.08-0.18-0.18v-0.55c-0.32,0.44-0.82,0.73-1.38,0.73
			c-0.97,0-1.74-0.83-1.74-1.84c0-1.01,0.77-1.84,1.74-1.84c0.56,0,1.07,0.29,1.38,0.72v-0.54c0-0.11,0.08-0.18,0.18-0.18
			S131.9,404.12,131.9,404.22z M131.54,405.88c0-0.83-0.62-1.49-1.38-1.49c-0.75,0-1.38,0.66-1.38,1.49c0,0.83,0.63,1.48,1.38,1.48
			C130.92,407.36,131.54,406.71,131.54,405.88z"/>
		<path class="st3" d="M133.38,404.21c0-0.1,0.08-0.17,0.17-0.17c0.1,0,0.19,0.08,0.19,0.17v2c0,0.63,0.5,1.13,1.13,1.13
			c0.63,0,1.13-0.5,1.14-1.13v-2c0-0.03,0.01-0.07,0.03-0.09c0-0.01,0.01-0.02,0.01-0.02c0.01,0,0.01-0.01,0.01-0.01
			c0.02-0.02,0.05-0.04,0.07-0.04h0.02c0.01,0,0.01-0.01,0.02-0.01h0.02h0.02c0.03,0.01,0.06,0.02,0.09,0.04
			c0.02,0.01,0.04,0.04,0.05,0.06c0.01,0.02,0.02,0.05,0.02,0.08v2v0.07v1.15c0,0.96-0.78,1.73-1.75,1.73
			c-0.27,0-0.53-0.07-0.76-0.17c-0.08-0.05-0.12-0.16-0.08-0.24c0.04-0.09,0.14-0.11,0.23-0.09c0.18,0.09,0.39,0.14,0.6,0.14
			c0.77,0,1.38-0.61,1.39-1.37v-0.24c-0.28,0.32-0.68,0.53-1.14,0.53c-0.82-0.01-1.49-0.68-1.49-1.5V404.21z"/>
		<path class="st3" d="M140.06,407.4l2.46-2.21c0.29-0.27,0.45-0.63,0.45-1.01c0-0.32-0.12-0.65-0.35-0.9
			c-0.26-0.29-0.63-0.44-1-0.44c-0.33,0-0.65,0.11-0.92,0.35l-0.26,0.23c-0.07,0.08-0.19,0.07-0.25-0.01
			c-0.08-0.08-0.07-0.2,0.01-0.26l0.26-0.24c0.33-0.29,0.75-0.44,1.16-0.44c0.46,0,0.92,0.18,1.26,0.56
			c0.31,0.33,0.45,0.74,0.45,1.15c0,0.46-0.19,0.93-0.56,1.28l-2.1,1.9h2.48c0.1,0,0.18,0.08,0.18,0.19c0,0.1-0.08,0.18-0.18,0.18
			h-2.93h-0.03c-0.05,0-0.11-0.01-0.14-0.05C139.98,407.58,139.98,407.47,140.06,407.4z"/>
		<path class="st3" d="M144.56,405.09c0-0.71,0.18-1.35,0.5-1.84c0.32-0.47,0.78-0.79,1.31-0.79s0.99,0.32,1.31,0.79
			c0.31,0.49,0.51,1.13,0.51,1.84c0,0.71-0.2,1.35-0.51,1.83c-0.32,0.47-0.78,0.8-1.31,0.8s-0.99-0.32-1.31-0.8
			C144.75,406.44,144.56,405.8,144.56,405.09z M144.93,405.09c0,0.65,0.17,1.22,0.44,1.63c0.27,0.4,0.63,0.63,1.01,0.63
			s0.73-0.23,1.01-0.63c0.27-0.41,0.45-0.98,0.45-1.63s-0.18-1.22-0.45-1.63c-0.28-0.41-0.63-0.63-1.01-0.63s-0.74,0.22-1.01,0.63
			C145.11,403.87,144.93,404.45,144.93,405.09z"/>
	</g>
</g>
<g id="Image">
	<g>
		<g>
			<defs>
				<rect id="SVGID_1_" x="116.19" y="136.85" width="127.62" height="137.44"/>
			</defs>
			<clipPath id="SVGID_2_">
				<use xlink:href="#SVGID_1_"  style="overflow:visible;"/>
			</clipPath>
			<path class="st4" d="M215.81,137.5l8.26,23.46c0.22,0.63-0.25,1.29-0.92,1.29h-16.51c-0.67,0-1.14-0.66-0.92-1.29l8.26-23.46
				C214.28,136.63,215.5,136.63,215.81,137.5"/>
		</g>
		<g>
			<defs>
				<rect id="SVGID_3_" x="116.19" y="136.85" width="127.62" height="137.44"/>
			</defs>
			<clipPath id="SVGID_4_">
				<use xlink:href="#SVGID_3_"  style="overflow:visible;"/>
			</clipPath>
			<path class="st5" d="M221.39,165.68l-31.02,10.92c-2.11,0.74-4.43-0.37-5.17-2.48l-0.79-2.23c-0.74-2.11,0.37-4.43,2.48-5.18
				l31.02-10.92c2.11-0.74,4.43,0.37,5.17,2.48l0.79,2.23C224.61,162.62,223.5,164.93,221.39,165.68"/>
		</g>
		<g>
			<defs>
				<rect id="SVGID_5_" x="116.19" y="136.85" width="127.62" height="137.44"/>
			</defs>
			<clipPath id="SVGID_6_">
				<use xlink:href="#SVGID_5_"  style="overflow:visible;"/>
			</clipPath>
			<path class="st6" d="M221.38,159.91l-34.62,12.18c-1.12,0.39-2.35-0.19-2.74-1.31l-2.05-5.83c-0.39-1.12,0.19-2.35,1.31-2.74
				l34.62-12.18c1.12-0.39,2.35,0.19,2.74,1.31l2.05,5.83C223.09,158.29,222.5,159.51,221.38,159.91"/>
		</g>
		<g>
			<defs>
				<rect id="SVGID_7_" x="116.19" y="136.85" width="127.62" height="137.44"/>
			</defs>
			<clipPath id="SVGID_8_">
				<use xlink:href="#SVGID_7_"  style="overflow:visible;"/>
			</clipPath>
			<path class="st7" d="M139.86,137.5l-8.26,23.46c-0.22,0.63,0.25,1.29,0.92,1.29h16.51c0.67,0,1.14-0.66,0.92-1.29l-8.26-23.46
				C141.38,136.63,140.16,136.63,139.86,137.5"/>
		</g>
		<g>
			<defs>
				<rect id="SVGID_9_" x="116.19" y="136.85" width="127.62" height="137.44"/>
			</defs>
			<clipPath id="SVGID_10_">
				<use xlink:href="#SVGID_9_"  style="overflow:visible;"/>
			</clipPath>
			<path class="st8" d="M134.28,165.68l31.02,10.92c2.11,0.74,4.43-0.37,5.17-2.48l0.79-2.23c0.74-2.11-0.37-4.43-2.48-5.18
				l-31.02-10.92c-2.11-0.74-4.43,0.37-5.17,2.48l-0.79,2.23C131.05,162.62,132.16,164.93,134.28,165.68"/>
		</g>
		<g>
			<defs>
				<rect id="SVGID_11_" x="116.19" y="136.85" width="127.62" height="137.44"/>
			</defs>
			<clipPath id="SVGID_12_">
				<use xlink:href="#SVGID_11_"  style="overflow:visible;"/>
			</clipPath>
			<path class="st9" d="M134.28,159.91l34.62,12.18c1.12,0.39,2.35-0.19,2.74-1.31l2.05-5.83c0.39-1.12-0.19-2.35-1.31-2.74
				l-34.62-12.18c-1.12-0.39-2.35,0.19-2.74,1.31l-2.05,5.83C132.58,158.29,133.16,159.51,134.28,159.91"/>
		</g>
		<g>
			<defs>
				<rect id="SVGID_13_" x="116.19" y="136.85" width="127.62" height="137.44"/>
			</defs>
			<clipPath id="SVGID_14_">
				<use xlink:href="#SVGID_13_"  style="overflow:visible;"/>
			</clipPath>
			<path class="st10" d="M218.89,199.33c0,21.79-20.51,39.45-45.82,39.45c-25.3,0-45.82-17.66-45.82-39.45s20.51-39.45,45.82-39.45
				S218.89,177.54,218.89,199.33"/>
		</g>
		<g>
			<defs>
				<rect id="SVGID_15_" x="116.19" y="136.85" width="127.62" height="137.44"/>
			</defs>
			<clipPath id="SVGID_16_">
				<use xlink:href="#SVGID_15_"  style="overflow:visible;"/>
			</clipPath>
			<path class="st11" d="M214.6,199.33c0,19.75-18.59,35.76-41.53,35.76s-41.53-16.01-41.53-35.76s18.59-35.76,41.53-35.76
				S214.6,179.58,214.6,199.33"/>
		</g>
		<g>
			<defs>
				<rect id="SVGID_17_" x="116.19" y="136.85" width="127.62" height="137.44"/>
			</defs>
			<clipPath id="SVGID_18_">
				<use xlink:href="#SVGID_17_"  style="overflow:visible;"/>
			</clipPath>
			<path class="st12" d="M191.92,205.86c-7.54-2.32-11.77-10.32-9.44-17.86c2.32-7.54,10.32-11.77,17.86-9.44
				c7.54,2.32,11.77,10.32,9.44,17.86C207.45,203.96,199.46,208.18,191.92,205.86"/>
		</g>
		<g>
			<defs>
				<rect id="SVGID_19_" x="116.19" y="136.85" width="127.62" height="137.44"/>
			</defs>
			<clipPath id="SVGID_20_">
				<use xlink:href="#SVGID_19_"  style="overflow:visible;"/>
			</clipPath>
			<path class="st13" d="M188.54,200.34c-3.69-1.14-5.76-5.05-4.62-8.74s5.05-5.76,8.74-4.62s5.76,5.05,4.62,8.74
				C196.15,199.4,192.23,201.47,188.54,200.34"/>
		</g>
		<g>
			<defs>
				<rect id="SVGID_21_" x="116.19" y="136.85" width="127.62" height="137.44"/>
			</defs>
			<clipPath id="SVGID_22_">
				<use xlink:href="#SVGID_21_"  style="overflow:visible;"/>
			</clipPath>
			<path class="st14" d="M142.89,204.76c-7.54-2.32-11.77-10.32-9.44-17.86c2.32-7.54,10.32-11.77,17.86-9.44
				c7.54,2.32,11.77,10.32,9.44,17.86C158.42,202.86,150.42,207.08,142.89,204.76"/>
		</g>
		<g>
			<defs>
				<rect id="SVGID_23_" x="116.19" y="136.85" width="127.62" height="137.44"/>
			</defs>
			<clipPath id="SVGID_24_">
				<use xlink:href="#SVGID_23_"  style="overflow:visible;"/>
			</clipPath>
			<path class="st15" d="M139.51,199.24c-3.69-1.14-5.76-5.05-4.62-8.74s5.05-5.76,8.74-4.62s5.76,5.05,4.62,8.74
				C147.11,198.3,143.2,200.37,139.51,199.24"/>
		</g>
		<g>
			<defs>
				<rect id="SVGID_25_" x="116.19" y="136.85" width="127.62" height="137.44"/>
			</defs>
			<clipPath id="SVGID_26_">
				<use xlink:href="#SVGID_25_"  style="overflow:visible;"/>
			</clipPath>
			<path class="st16" d="M196.38,230.62c0,7.93-11.47,14.37-25.63,14.37s-25.63-6.43-25.63-14.37c0-7.93,11.47-14.37,25.63-14.37
				S196.38,222.69,196.38,230.62"/>
		</g>
		<g>
			<defs>
				<rect id="SVGID_27_" x="116.19" y="136.85" width="127.62" height="137.44"/>
			</defs>
			<clipPath id="SVGID_28_">
				<use xlink:href="#SVGID_27_"  style="overflow:visible;"/>
			</clipPath>
			<path class="st17" d="M168.25,227.04c0,2.51-2.03,4.54-4.54,4.54s-4.54-2.03-4.54-4.54s2.03-4.54,4.54-4.54
				S168.25,224.53,168.25,227.04"/>
		</g>
		<g>
			<defs>
				<rect id="SVGID_29_" x="116.19" y="136.85" width="127.62" height="137.44"/>
			</defs>
			<clipPath id="SVGID_30_">
				<use xlink:href="#SVGID_29_"  style="overflow:visible;"/>
			</clipPath>
			<path class="st18" d="M181.95,227.04c0,2.51-2.03,4.54-4.54,4.54s-4.54-2.03-4.54-4.54s2.03-4.54,4.54-4.54
				C179.91,222.5,181.95,224.53,181.95,227.04"/>
		</g>
		<g>
			<defs>
				<rect id="SVGID_31_" x="116.19" y="136.85" width="127.62" height="137.44"/>
			</defs>
			<clipPath id="SVGID_32_">
				<use xlink:href="#SVGID_31_"  style="overflow:visible;"/>
			</clipPath>
			<path class="st19" d="M131.64,180.18c7.63-1.74,13.12-6.19,12.27-9.94c-0.85-3.75-7.73-5.38-15.36-3.64s-13.12,6.19-12.27,9.94
				S124.01,181.92,131.64,180.18"/>
		</g>
		<g>
			<defs>
				<rect id="SVGID_33_" x="116.19" y="136.85" width="127.62" height="137.44"/>
			</defs>
			<clipPath id="SVGID_34_">
				<use xlink:href="#SVGID_33_"  style="overflow:visible;"/>
			</clipPath>
			<path class="st20" d="M216.49,180.18c-7.63-1.74-13.12-6.19-12.27-9.94c0.85-3.75,7.73-5.38,15.36-3.64s13.12,6.19,12.27,9.94
				C231,180.29,224.12,181.92,216.49,180.18"/>
		</g>
		<g>
			<defs>
				<rect id="SVGID_35_" x="116.19" y="136.85" width="127.62" height="137.44"/>
			</defs>
			<clipPath id="SVGID_36_">
				<use xlink:href="#SVGID_35_"  style="overflow:visible;"/>
			</clipPath>
			<path class="st21" d="M202.13,267.36l1.96-3.09c0.18-0.5,0.56-1.01,1.08-1.41c1.11-0.84,2.47-0.9,3.05-0.14
				c0.58,0.76,0.15,2.07-0.95,2.91c-0.52,0.4-1.11,0.62-1.64,0.66L202.13,267.36z"/>
		</g>
		<g>
			<defs>
				<rect id="SVGID_37_" x="116.19" y="136.85" width="127.62" height="137.44"/>
			</defs>
			<clipPath id="SVGID_38_">
				<use xlink:href="#SVGID_37_"  style="overflow:visible;"/>
			</clipPath>
			<path class="st22" d="M202.29,267.42l-0.98-3.3c-0.25-0.44-0.37-1.02-0.32-1.64c0.12-1.29,0.98-2.27,1.94-2.18s1.64,1.2,1.52,2.5
				c-0.05,0.61-0.28,1.15-0.6,1.55L202.29,267.42z"/>
		</g>
		<g>
			<defs>
				<rect id="SVGID_39_" x="116.19" y="136.85" width="127.62" height="137.44"/>
			</defs>
			<clipPath id="SVGID_40_">
				<use xlink:href="#SVGID_39_"  style="overflow:visible;"/>
			</clipPath>
			<path class="st23" d="M202.11,267.44l-0.71,3.28c-0.21,0.45-0.29,1.02-0.19,1.61c0.22,1.24,1.16,2.11,2.11,1.94
				s1.53-1.31,1.31-2.55c-0.1-0.59-0.37-1.09-0.73-1.44L202.11,267.44z"/>
		</g>
		<g>
			<defs>
				<rect id="SVGID_41_" x="116.19" y="136.85" width="127.62" height="137.44"/>
			</defs>
			<clipPath id="SVGID_42_">
				<use xlink:href="#SVGID_41_"  style="overflow:visible;"/>
			</clipPath>
			<path class="st24" d="M202.35,267.44l-3.06,1.58c-0.49,0.13-0.99,0.44-1.4,0.9c-0.85,0.98-0.96,2.28-0.23,2.91
				c0.72,0.63,2,0.35,2.85-0.63c0.4-0.46,0.64-1,0.7-1.51L202.35,267.44z"/>
		</g>
		<g>
			<defs>
				<rect id="SVGID_43_" x="116.19" y="136.85" width="127.62" height="137.44"/>
			</defs>
			<clipPath id="SVGID_44_">
				<use xlink:href="#SVGID_43_"  style="overflow:visible;"/>
			</clipPath>
			<path class="st25" d="M202.14,267.41l3.45,0.67c0.46,0.16,1.06,0.25,1.72,0.23c1.37-0.05,2.43-0.56,2.38-1.16
				c-0.06-0.59-1.21-1.04-2.58-0.99c-0.65,0.02-1.23,0.15-1.65,0.34L202.14,267.41z"/>
		</g>
		<g>
			<defs>
				<rect id="SVGID_45_" x="116.19" y="136.85" width="127.62" height="137.44"/>
			</defs>
			<clipPath id="SVGID_46_">
				<use xlink:href="#SVGID_45_"  style="overflow:visible;"/>
			</clipPath>
			<path class="st26" d="M202.17,267.26l1.31,2c0.07,0.31,0.34,0.64,0.79,0.93c0.95,0.6,2.35,0.75,3.12,0.35
				c0.78-0.4,0.64-1.21-0.31-1.8c-0.45-0.28-1-0.46-1.54-0.54L202.17,267.26z"/>
		</g>
		<g>
			<defs>
				<rect id="SVGID_47_" x="116.19" y="136.85" width="127.62" height="137.44"/>
			</defs>
			<clipPath id="SVGID_48_">
				<use xlink:href="#SVGID_47_"  style="overflow:visible;"/>
			</clipPath>
			<path class="st27" d="M202.67,267.36l-3.56-0.95c-0.48-0.22-1.1-0.35-1.76-0.35c-1.38,0.01-2.4,0.61-2.28,1.35
				c0.12,0.74,1.34,1.33,2.71,1.32c0.65,0,1.23-0.14,1.64-0.37L202.67,267.36z"/>
		</g>
		<g>
			<defs>
				<rect id="SVGID_49_" x="116.19" y="136.85" width="127.62" height="137.44"/>
			</defs>
			<clipPath id="SVGID_50_">
				<use xlink:href="#SVGID_49_"  style="overflow:visible;"/>
			</clipPath>
			<path class="st28" d="M202.65,267.54l-1.53-2.52c-0.11-0.39-0.41-0.81-0.9-1.17c-1.02-0.77-2.45-1.01-3.19-0.55
				c-0.74,0.47-0.52,1.47,0.5,2.24c0.48,0.37,1.06,0.61,1.61,0.72L202.65,267.54z"/>
		</g>
		<g>
			<defs>
				<rect id="SVGID_51_" x="116.19" y="136.85" width="127.62" height="137.44"/>
			</defs>
			<clipPath id="SVGID_52_">
				<use xlink:href="#SVGID_51_"  style="overflow:visible;"/>
			</clipPath>
			<path class="st29" d="M230,199.54l-4.97-0.14c-0.71,0.14-1.56,0.05-2.4-0.28c-1.75-0.71-2.78-2.26-2.29-3.47s2.3-1.62,4.06-0.91
				c0.83,0.34,1.5,0.86,1.92,1.45L230,199.54z"/>
		</g>
		<g>
			<defs>
				<rect id="SVGID_53_" x="116.19" y="136.85" width="127.62" height="137.44"/>
			</defs>
			<clipPath id="SVGID_54_">
				<use xlink:href="#SVGID_53_"  style="overflow:visible;"/>
			</clipPath>
			<path class="st30" d="M229.96,199.31l-3.17,3.45c-0.34,0.6-0.93,1.15-1.69,1.51c-1.59,0.77-3.34,0.43-3.9-0.74
				c-0.57-1.18,0.26-2.75,1.85-3.52c0.75-0.36,1.54-0.48,2.23-0.37L229.96,199.31z"/>
		</g>
		<g>
			<defs>
				<rect id="SVGID_55_" x="116.19" y="136.85" width="127.62" height="137.44"/>
			</defs>
			<clipPath id="SVGID_56_">
				<use xlink:href="#SVGID_55_"  style="overflow:visible;"/>
			</clipPath>
			<path class="st31" d="M230.11,199.5l4.32-1.46c0.67-0.07,1.39-0.37,2.01-0.9c1.29-1.12,1.65-2.83,0.79-3.81
				c-0.85-0.99-2.6-0.88-3.89,0.24c-0.61,0.53-1.01,1.19-1.18,1.85L230.11,199.5z"/>
		</g>
		<g>
			<defs>
				<rect id="SVGID_57_" x="116.19" y="136.85" width="127.62" height="137.44"/>
			</defs>
			<clipPath id="SVGID_58_">
				<use xlink:href="#SVGID_57_"  style="overflow:visible;"/>
			</clipPath>
			<path class="st32" d="M229.94,199.22l3.98,2.47c0.49,0.49,1.2,0.86,2.03,1c1.74,0.31,3.33-0.48,3.56-1.76s-0.99-2.58-2.73-2.89
				c-0.82-0.15-1.61-0.05-2.24,0.24L229.94,199.22z"/>
		</g>
		<g>
			<defs>
				<rect id="SVGID_59_" x="116.19" y="136.85" width="127.62" height="137.44"/>
			</defs>
			<clipPath id="SVGID_60_">
				<use xlink:href="#SVGID_59_"  style="overflow:visible;"/>
			</clipPath>
			<path class="st33" d="M230.06,199.5l-1.62-4.5c-0.13-0.65-0.45-1.42-0.93-2.16c-1.01-1.57-2.35-2.45-3.01-1.97
				c-0.65,0.48-0.37,2.14,0.64,3.71c0.48,0.74,1.03,1.33,1.55,1.69L230.06,199.5z"/>
		</g>
		<g>
			<defs>
				<rect id="SVGID_61_" x="116.19" y="136.85" width="127.62" height="137.44"/>
			</defs>
			<clipPath id="SVGID_62_">
				<use xlink:href="#SVGID_61_"  style="overflow:visible;"/>
			</clipPath>
			<path class="st34" d="M229.87,199.56l1.42-2.92c0.31-0.3,0.51-0.85,0.53-1.57c0.03-1.52-0.76-3.26-1.76-3.89
				c-1.01-0.63-1.85,0.1-1.89,1.62c-0.02,0.72,0.15,1.49,0.44,2.17L229.87,199.56z"/>
		</g>
		<g>
			<defs>
				<rect id="SVGID_63_" x="116.19" y="136.85" width="127.62" height="137.44"/>
			</defs>
			<clipPath id="SVGID_64_">
				<use xlink:href="#SVGID_63_"  style="overflow:visible;"/>
			</clipPath>
			<path class="st35" d="M229.63,198.91l1.37,4.82c0.08,0.71,0.36,1.53,0.82,2.29c0.97,1.6,2.39,2.37,3.16,1.72
				c0.78-0.65,0.62-2.48-0.35-4.09c-0.46-0.76-1.02-1.33-1.57-1.65L229.63,198.91z"/>
		</g>
		<g>
			<defs>
				<rect id="SVGID_65_" x="116.19" y="136.85" width="127.62" height="137.44"/>
			</defs>
			<clipPath id="SVGID_66_">
				<use xlink:href="#SVGID_65_"  style="overflow:visible;"/>
			</clipPath>
			<path class="st36" d="M229.86,198.8l-1.87,3.55c-0.38,0.4-0.66,1.05-0.74,1.87c-0.19,1.73,0.52,3.56,1.59,4.1
				c1.06,0.54,2.08-0.42,2.26-2.15c0.09-0.82-0.03-1.66-0.28-2.38L229.86,198.8z"/>
		</g>
		<g>
			<defs>
				<rect id="SVGID_67_" x="116.19" y="136.85" width="127.62" height="137.44"/>
			</defs>
			<clipPath id="SVGID_68_">
				<use xlink:href="#SVGID_67_"  style="overflow:visible;"/>
			</clipPath>
			<path class="st37" d="M209.22,240.63l-15.8,6.3c-2.03,1.32-4.82,2.23-7.94,2.45c-6.55,0.46-12.08-2.33-12.35-6.23
				s4.81-7.44,11.36-7.89c3.11-0.22,5.98,0.3,8.18,1.32L209.22,240.63z"/>
		</g>
		<g>
			<defs>
				<rect id="SVGID_69_" x="116.19" y="136.85" width="127.62" height="137.44"/>
			</defs>
			<clipPath id="SVGID_70_">
				<use xlink:href="#SVGID_69_"  style="overflow:visible;"/>
			</clipPath>
			<path class="st38" d="M197.64,245.72l6.43-15.74c0.46-2.38,1.74-5.02,3.75-7.42c4.22-5.03,10.06-7.07,13.06-4.56
				c3,2.51,2.01,8.63-2.21,13.66c-2,2.38-4.37,4.09-6.62,4.97L197.64,245.72z"/>
		</g>
		<g>
			<defs>
				<rect id="SVGID_71_" x="116.19" y="136.85" width="127.62" height="137.44"/>
			</defs>
			<clipPath id="SVGID_72_">
				<use xlink:href="#SVGID_71_"  style="overflow:visible;"/>
			</clipPath>
			<path class="st39" d="M194.43,242.05l16.32-4.78c2.15-1.12,5.01-1.77,8.14-1.69c6.57,0.16,11.8,3.46,11.7,7.37
				c-0.1,3.91-5.49,6.95-12.06,6.79c-3.11-0.08-5.92-0.86-8.01-2.08L194.43,242.05z"/>
		</g>
		<g>
			<defs>
				<rect id="SVGID_73_" x="116.19" y="136.85" width="127.62" height="137.44"/>
			</defs>
			<clipPath id="SVGID_74_">
				<use xlink:href="#SVGID_73_"  style="overflow:visible;"/>
			</clipPath>
			<path class="st40" d="M203.29,243.88l-10.23-9.61c-1.79-1.05-3.41-2.82-4.48-5.1c-2.25-4.79-1.2-10.01,2.34-11.67
				s8.23,0.87,10.48,5.66c1.07,2.27,1.39,4.64,1.06,6.68L203.29,243.88z"/>
		</g>
		<g>
			<defs>
				<rect id="SVGID_75_" x="116.19" y="136.85" width="127.62" height="137.44"/>
			</defs>
			<clipPath id="SVGID_76_">
				<use xlink:href="#SVGID_75_"  style="overflow:visible;"/>
			</clipPath>
			<path class="st41" d="M205.31,232.07l-0.47,17c0.41,2.39,0.14,5.31-0.89,8.26c-2.17,6.2-6.92,10.17-10.61,8.87
				c-3.69-1.29-4.93-7.36-2.75-13.56c1.03-2.94,2.64-5.37,4.44-6.99L205.31,232.07z"/>
		</g>
		<g>
			<defs>
				<rect id="SVGID_77_" x="116.19" y="136.85" width="127.62" height="137.44"/>
			</defs>
			<clipPath id="SVGID_78_">
				<use xlink:href="#SVGID_77_"  style="overflow:visible;"/>
			</clipPath>
			<path class="st42" d="M206.7,239.47l-13.66,5.45c-1.76,1.14-4.17,1.93-6.87,2.12c-5.67,0.4-10.45-2.02-10.68-5.39
				c-0.23-3.37,4.16-6.43,9.83-6.83c2.69-0.19,5.17,0.26,7.07,1.14L206.7,239.47z"/>
		</g>
		<g>
			<defs>
				<rect id="SVGID_79_" x="116.19" y="136.85" width="127.62" height="137.44"/>
			</defs>
			<clipPath id="SVGID_80_">
				<use xlink:href="#SVGID_79_"  style="overflow:visible;"/>
			</clipPath>
			<path class="st43" d="M196.69,243.86l5.57-13.61c0.4-2.06,1.51-4.34,3.25-6.41c3.65-4.35,8.7-6.12,11.3-3.94
				c2.59,2.17,1.74,7.46-1.91,11.81c-1.73,2.06-3.78,3.54-5.73,4.3L196.69,243.86z"/>
		</g>
		<g>
			<defs>
				<rect id="SVGID_81_" x="116.19" y="136.85" width="127.62" height="137.44"/>
			</defs>
			<clipPath id="SVGID_82_">
				<use xlink:href="#SVGID_81_"  style="overflow:visible;"/>
			</clipPath>
			<path class="st44" d="M194.2,241.64l14.12-4.13c1.86-0.97,4.34-1.53,7.04-1.46c5.68,0.14,10.21,2.99,10.12,6.38
				c-0.08,3.38-4.75,6.01-10.43,5.87c-2.69-0.07-5.12-0.75-6.93-1.8L194.2,241.64z"/>
		</g>
		<g>
			<defs>
				<rect id="SVGID_83_" x="116.19" y="136.85" width="127.62" height="137.44"/>
			</defs>
			<clipPath id="SVGID_84_">
				<use xlink:href="#SVGID_83_"  style="overflow:visible;"/>
			</clipPath>
			<path class="st45" d="M201.57,242.28l-8.85-8.31c-1.55-0.91-2.95-2.44-3.88-4.41c-1.94-4.14-1.04-8.66,2.02-10.1
				s7.12,0.75,9.07,4.89c0.92,1.96,1.2,4.01,0.91,5.78L201.57,242.28z"/>
		</g>
		<g>
			<defs>
				<rect id="SVGID_85_" x="116.19" y="136.85" width="127.62" height="137.44"/>
			</defs>
			<clipPath id="SVGID_86_">
				<use xlink:href="#SVGID_85_"  style="overflow:visible;"/>
			</clipPath>
			<path class="st46" d="M203.31,232.06l-0.4,14.7c0.35,2.07,0.12,4.59-0.77,7.15c-1.88,5.36-5.99,8.8-9.18,7.68
				s-4.26-6.37-2.38-11.73c0.89-2.54,2.28-4.65,3.84-6.04L203.31,232.06z"/>
		</g>
		<g>
			<defs>
				<rect id="SVGID_87_" x="116.19" y="136.85" width="127.62" height="137.44"/>
			</defs>
			<clipPath id="SVGID_88_">
				<use xlink:href="#SVGID_87_"  style="overflow:visible;"/>
			</clipPath>
			<path class="st47" d="M204.16,240.16l-5.05,2.01c-0.65,0.42-1.54,0.71-2.54,0.78c-2.09,0.15-3.86-0.75-3.95-1.99
				c-0.09-1.25,1.54-2.38,3.63-2.52c0.99-0.07,1.91,0.1,2.61,0.42L204.16,240.16z"/>
		</g>
		<g>
			<defs>
				<rect id="SVGID_89_" x="116.19" y="136.85" width="127.62" height="137.44"/>
			</defs>
			<clipPath id="SVGID_90_">
				<use xlink:href="#SVGID_89_"  style="overflow:visible;"/>
			</clipPath>
			<path class="st48" d="M200.46,241.78l2.06-5.03c0.15-0.76,0.56-1.6,1.2-2.37c1.35-1.61,3.22-2.26,4.17-1.46
				c0.96,0.8,0.64,2.76-0.71,4.37c-0.64,0.76-1.4,1.31-2.12,1.59L200.46,241.78z"/>
		</g>
		<g>
			<defs>
				<rect id="SVGID_91_" x="116.19" y="136.85" width="127.62" height="137.44"/>
			</defs>
			<clipPath id="SVGID_92_">
				<use xlink:href="#SVGID_91_"  style="overflow:visible;"/>
			</clipPath>
			<path class="st49" d="M199.43,240.61l5.22-1.53c0.69-0.36,1.6-0.56,2.6-0.54c2.1,0.05,3.77,1.11,3.74,2.36s-1.76,2.22-3.85,2.17
				c-0.99-0.02-1.89-0.28-2.56-0.67L199.43,240.61z"/>
		</g>
		<g>
			<defs>
				<rect id="SVGID_93_" x="116.19" y="136.85" width="127.62" height="137.44"/>
			</defs>
			<clipPath id="SVGID_94_">
				<use xlink:href="#SVGID_93_"  style="overflow:visible;"/>
			</clipPath>
			<path class="st50" d="M202.26,241.2l-3.27-3.07c-0.57-0.33-1.09-0.9-1.43-1.63c-0.72-1.53-0.38-3.2,0.75-3.73
				s2.63,0.28,3.35,1.81c0.34,0.73,0.44,1.48,0.34,2.13L202.26,241.2z"/>
		</g>
		<g>
			<defs>
				<rect id="SVGID_95_" x="116.19" y="136.85" width="127.62" height="137.44"/>
			</defs>
			<clipPath id="SVGID_96_">
				<use xlink:href="#SVGID_95_"  style="overflow:visible;"/>
			</clipPath>
			<path class="st51" d="M202.91,237.42l-0.15,5.43c0.13,0.76,0.04,1.7-0.29,2.64c-0.7,1.98-2.21,3.25-3.39,2.84
				s-1.57-2.35-0.88-4.33c0.33-0.94,0.84-1.72,1.42-2.23L202.91,237.42z"/>
		</g>
		<g>
			<defs>
				<rect id="SVGID_97_" x="116.19" y="136.85" width="127.62" height="137.44"/>
			</defs>
			<clipPath id="SVGID_98_">
				<use xlink:href="#SVGID_97_"  style="overflow:visible;"/>
			</clipPath>
			<path class="st52" d="M203.64,240.85l-3.61,1.44c-0.46,0.3-1.1,0.51-1.81,0.56c-1.5,0.1-2.76-0.53-2.82-1.42
				c-0.06-0.89,1.1-1.7,2.6-1.8c0.71-0.05,1.36,0.07,1.87,0.3L203.64,240.85z"/>
		</g>
		<g>
			<defs>
				<rect id="SVGID_99_" x="116.19" y="136.85" width="127.62" height="137.44"/>
			</defs>
			<clipPath id="SVGID_100_">
				<use xlink:href="#SVGID_99_"  style="overflow:visible;"/>
			</clipPath>
			<path class="st53" d="M201,242.01l1.47-3.6c0.11-0.54,0.4-1.15,0.86-1.69c0.96-1.15,2.3-1.62,2.98-1.04
				c0.68,0.57,0.46,1.97-0.5,3.12c-0.46,0.54-1,0.94-1.51,1.13L201,242.01z"/>
		</g>
		<g>
			<defs>
				<rect id="SVGID_101_" x="116.19" y="136.85" width="127.62" height="137.44"/>
			</defs>
			<clipPath id="SVGID_102_">
				<use xlink:href="#SVGID_101_"  style="overflow:visible;"/>
			</clipPath>
			<path class="st54" d="M200.26,241.17l3.73-1.09c0.49-0.26,1.14-0.4,1.86-0.39c1.5,0.04,2.7,0.79,2.67,1.68
				c-0.02,0.89-1.26,1.59-2.75,1.55c-0.71-0.02-1.35-0.2-1.83-0.48L200.26,241.17z"/>
		</g>
		<g>
			<defs>
				<rect id="SVGID_103_" x="116.19" y="136.85" width="127.62" height="137.44"/>
			</defs>
			<clipPath id="SVGID_104_">
				<use xlink:href="#SVGID_103_"  style="overflow:visible;"/>
			</clipPath>
			<path class="st55" d="M202.29,241.59l-2.34-2.19c-0.41-0.24-0.78-0.64-1.02-1.16c-0.51-1.09-0.27-2.29,0.53-2.67
				c0.81-0.38,1.88,0.2,2.39,1.29c0.24,0.52,0.32,1.06,0.24,1.53L202.29,241.59z"/>
		</g>
		<g>
			<defs>
				<rect id="SVGID_105_" x="116.19" y="136.85" width="127.62" height="137.44"/>
			</defs>
			<clipPath id="SVGID_106_">
				<use xlink:href="#SVGID_105_"  style="overflow:visible;"/>
			</clipPath>
			<path class="st56" d="M202.75,238.89l-0.11,3.88c0.09,0.55,0.03,1.21-0.2,1.89c-0.5,1.42-1.58,2.32-2.42,2.03
				c-0.84-0.3-1.13-1.68-0.63-3.1c0.24-0.67,0.6-1.23,1.02-1.6L202.75,238.89z"/>
		</g>
		<g>
			<defs>
				<rect id="SVGID_107_" x="116.19" y="136.85" width="127.62" height="137.44"/>
			</defs>
			<clipPath id="SVGID_108_">
				<use xlink:href="#SVGID_107_"  style="overflow:visible;"/>
			</clipPath>
			<path class="st57" d="M199.84,240.2c0.51,0.02,2.24,0.31,2.23,0.62c-0.01,0.3-1.74,0.5-2.25,0.48c-0.51-0.01-0.92-0.27-0.92-0.58
				C198.9,240.42,199.32,240.18,199.84,240.2"/>
		</g>
		<g>
			<defs>
				<rect id="SVGID_109_" x="116.19" y="136.85" width="127.62" height="137.44"/>
			</defs>
			<clipPath id="SVGID_110_">
				<use xlink:href="#SVGID_109_"  style="overflow:visible;"/>
			</clipPath>
			<path class="st58" d="M201.49,238.41c0.22,0.47,0.72,2.15,0.45,2.28s-1.23-1.35-1.44-1.82c-0.22-0.47-0.17-0.95,0.11-1.08
				C200.87,237.67,201.27,237.94,201.49,238.41"/>
		</g>
		<g>
			<defs>
				<rect id="SVGID_111_" x="116.19" y="136.85" width="127.62" height="137.44"/>
			</defs>
			<clipPath id="SVGID_112_">
				<use xlink:href="#SVGID_111_"  style="overflow:visible;"/>
			</clipPath>
			<path class="st59" d="M203.48,239.15c-0.22,0.46-1.19,1.92-1.46,1.79s0.25-1.81,0.47-2.27s0.62-0.73,0.9-0.6
				C203.65,238.2,203.7,238.68,203.48,239.15"/>
		</g>
		<g>
			<defs>
				<rect id="SVGID_113_" x="116.19" y="136.85" width="127.62" height="137.44"/>
			</defs>
			<clipPath id="SVGID_114_">
				<use xlink:href="#SVGID_113_"  style="overflow:visible;"/>
			</clipPath>
			<path class="st60" d="M200.94,242.62c0.15-0.49,0.89-2.08,1.18-1.99s0.01,1.82-0.14,2.32c-0.15,0.49-0.51,0.82-0.8,0.73
				C200.9,243.59,200.79,243.11,200.94,242.62"/>
		</g>
		<g>
			<defs>
				<rect id="SVGID_115_" x="116.19" y="136.85" width="127.62" height="137.44"/>
			</defs>
			<clipPath id="SVGID_116_">
				<use xlink:href="#SVGID_115_"  style="overflow:visible;"/>
			</clipPath>
			<path class="st61" d="M203.94,241.95c-0.49-0.16-2.06-0.95-1.96-1.24c0.09-0.29,1.81,0.03,2.3,0.19s0.81,0.53,0.72,0.82
				C204.9,242.01,204.43,242.11,203.94,241.95"/>
		</g>
		<g>
			<defs>
				<rect id="SVGID_117_" x="116.19" y="136.85" width="127.62" height="137.44"/>
			</defs>
			<clipPath id="SVGID_118_">
				<use xlink:href="#SVGID_117_"  style="overflow:visible;"/>
			</clipPath>
			<path class="st62" d="M222.39,213.06l1.59-6.81c0.01-1.02,0.37-2.17,1.07-3.22c1.47-2.21,3.9-3.19,5.43-2.17
				c1.53,1.01,1.58,3.63,0.11,5.85c-0.7,1.05-1.61,1.82-2.54,2.23L222.39,213.06z"/>
		</g>
		<g>
			<defs>
				<rect id="SVGID_119_" x="116.19" y="136.85" width="127.62" height="137.44"/>
			</defs>
			<clipPath id="SVGID_120_">
				<use xlink:href="#SVGID_119_"  style="overflow:visible;"/>
			</clipPath>
			<path class="st63" d="M222.72,213.07l-3.85-5.34c-0.73-0.64-1.32-1.6-1.61-2.75c-0.61-2.41,0.35-4.72,2.12-5.17
				c1.78-0.45,3.71,1.14,4.32,3.55c0.29,1.14,0.22,2.26-0.11,3.17L222.72,213.07z"/>
		</g>
		<g>
			<defs>
				<rect id="SVGID_121_" x="116.19" y="136.85" width="127.62" height="137.44"/>
			</defs>
			<clipPath id="SVGID_122_">
				<use xlink:href="#SVGID_121_"  style="overflow:visible;"/>
			</clipPath>
			<path class="st64" d="M222.42,213.23l0.79,6.37c-0.1,0.95,0.12,2.02,0.68,3.02c1.18,2.1,3.43,3.07,5.03,2.17
				c1.6-0.9,1.94-3.33,0.77-5.43c-0.56-0.99-1.36-1.73-2.22-2.14L222.42,213.23z"/>
		</g>
		<g>
			<defs>
				<rect id="SVGID_123_" x="116.19" y="136.85" width="127.62" height="137.44"/>
			</defs>
			<clipPath id="SVGID_124_">
				<use xlink:href="#SVGID_123_"  style="overflow:visible;"/>
			</clipPath>
			<path class="st65" d="M222.85,213.07l-4.53,4.78c-0.81,0.54-1.52,1.41-1.96,2.51c-0.92,2.31-0.28,4.72,1.42,5.4
				s3.83-0.63,4.75-2.94c0.44-1.09,0.52-2.21,0.31-3.16L222.85,213.07z"/>
		</g>
		<g>
			<defs>
				<rect id="SVGID_125_" x="116.19" y="136.85" width="127.62" height="137.44"/>
			</defs>
			<clipPath id="SVGID_126_">
				<use xlink:href="#SVGID_125_"  style="overflow:visible;"/>
			</clipPath>
			<path class="st66" d="M222.44,213.16l6.66-0.96c0.93,0.01,2.08-0.21,3.24-0.67c2.44-0.95,4.04-2.55,3.56-3.59
				s-2.85-1.11-5.29-0.16c-1.16,0.45-2.12,1.05-2.77,1.66L222.44,213.16z"/>
		</g>
		<g>
			<defs>
				<rect id="SVGID_127_" x="116.19" y="136.85" width="127.62" height="137.44"/>
			</defs>
			<clipPath id="SVGID_128_">
				<use xlink:href="#SVGID_127_"  style="overflow:visible;"/>
			</clipPath>
			<path class="st67" d="M222.4,212.88l3.62,2.78c0.33,0.52,1.02,0.95,2.02,1.17c2.09,0.48,4.71-0.12,5.86-1.33s0.39-2.58-1.7-3.06
				c-0.99-0.23-2.1-0.21-3.12,0L222.4,212.88z"/>
		</g>
		<g>
			<defs>
				<rect id="SVGID_129_" x="116.19" y="136.85" width="127.62" height="137.44"/>
			</defs>
			<clipPath id="SVGID_130_">
				<use xlink:href="#SVGID_129_"  style="overflow:visible;"/>
			</clipPath>
			<path class="st68" d="M223.37,212.74l-7.03,0.52c-1.01-0.09-2.21,0.06-3.39,0.49c-2.48,0.89-3.94,2.62-3.26,3.87
				c0.68,1.25,3.25,1.55,5.73,0.67c1.18-0.42,2.12-1.03,2.72-1.69L223.37,212.74z"/>
		</g>
		<g>
			<defs>
				<rect id="SVGID_131_" x="116.19" y="136.85" width="127.62" height="137.44"/>
			</defs>
			<clipPath id="SVGID_132_">
				<use xlink:href="#SVGID_131_"  style="overflow:visible;"/>
			</clipPath>
			<path class="st69" d="M223.46,213.07l-4.36-3.58c-0.44-0.64-1.26-1.2-2.36-1.55c-2.33-0.75-5.06-0.29-6.1,1.03
				c-1.04,1.31-0.01,2.98,2.32,3.73c1.1,0.35,2.3,0.43,3.36,0.28L223.46,213.07z"/>
		</g>
		<g>
			<defs>
				<rect id="SVGID_133_" x="116.19" y="136.85" width="127.62" height="137.44"/>
			</defs>
			<clipPath id="SVGID_134_">
				<use xlink:href="#SVGID_133_"  style="overflow:visible;"/>
			</clipPath>
			<path class="st70" d="M209.91,257.18l-2.91-4.91c-0.57-0.61-1.01-1.48-1.19-2.5c-0.39-2.13,0.49-4.08,1.96-4.35
				s2.98,1.24,3.37,3.38c0.18,1.01,0.08,1.98-0.23,2.75L209.91,257.18z"/>
		</g>
		<g>
			<defs>
				<rect id="SVGID_135_" x="116.19" y="136.85" width="127.62" height="137.44"/>
			</defs>
			<clipPath id="SVGID_136_">
				<use xlink:href="#SVGID_135_"  style="overflow:visible;"/>
			</clipPath>
			<path class="st71" d="M210.11,257l-5.29-0.97c-0.79,0.04-1.68-0.2-2.5-0.71c-1.72-1.07-2.46-2.97-1.67-4.24
				c0.79-1.27,2.83-1.43,4.55-0.36c0.81,0.51,1.41,1.2,1.73,1.93L210.11,257z"/>
		</g>
		<g>
			<defs>
				<rect id="SVGID_137_" x="116.19" y="136.85" width="127.62" height="137.44"/>
			</defs>
			<clipPath id="SVGID_138_">
				<use xlink:href="#SVGID_137_"  style="overflow:visible;"/>
			</clipPath>
			<path class="st72" d="M210.02,257.26l4.06,3.3c0.48,0.61,1.21,1.12,2.11,1.39c1.88,0.57,3.75-0.13,4.19-1.56
				c0.43-1.43-0.74-3.06-2.62-3.63c-0.89-0.27-1.78-0.25-2.52-0.01L210.02,257.26z"/>
		</g>
		<g>
			<defs>
				<rect id="SVGID_139_" x="116.19" y="136.85" width="127.62" height="137.44"/>
			</defs>
			<clipPath id="SVGID_140_">
				<use xlink:href="#SVGID_139_"  style="overflow:visible;"/>
			</clipPath>
			<path class="st73" d="M210.19,256.93l0.04,5.38c-0.17,0.78-0.1,1.69,0.27,2.59c0.76,1.88,2.5,2.94,3.89,2.38s1.9-2.54,1.14-4.42
				c-0.36-0.89-0.94-1.6-1.6-2.03L210.19,256.93z"/>
		</g>
		<g>
			<defs>
				<rect id="SVGID_141_" x="116.19" y="136.85" width="127.62" height="137.44"/>
			</defs>
			<clipPath id="SVGID_142_">
				<use xlink:href="#SVGID_141_"  style="overflow:visible;"/>
			</clipPath>
			<path class="st74" d="M210,257.21l3.38-4.33c0.55-0.52,1.1-1.3,1.53-2.23c0.9-1.94,0.93-3.78,0.07-4.12
				c-0.87-0.34-2.3,0.95-3.21,2.89c-0.43,0.92-0.66,1.82-0.69,2.54L210,257.21z"/>
		</g>
		<g>
			<defs>
				<rect id="SVGID_143_" x="116.19" y="136.85" width="127.62" height="137.44"/>
			</defs>
			<clipPath id="SVGID_144_">
				<use xlink:href="#SVGID_143_"  style="overflow:visible;"/>
			</clipPath>
			<path class="st75" d="M209.81,257.07l3.71-0.41c0.49,0.12,1.14-0.02,1.85-0.45c1.5-0.9,2.7-2.73,2.69-4.1
				c-0.01-1.36-1.23-1.74-2.73-0.84c-0.71,0.43-1.35,1.06-1.84,1.76L209.81,257.07z"/>
		</g>
		<g>
			<defs>
				<rect id="SVGID_145_" x="116.19" y="136.85" width="127.62" height="137.44"/>
			</defs>
			<clipPath id="SVGID_146_">
				<use xlink:href="#SVGID_145_"  style="overflow:visible;"/>
			</clipPath>
			<path class="st76" d="M210.31,256.44l-3.84,4.28c-0.64,0.52-1.26,1.29-1.72,2.2c-0.96,1.93-0.84,3.77,0.27,4.12
				s2.79-0.92,3.75-2.85c0.46-0.91,0.67-1.81,0.65-2.53L210.31,256.44z"/>
		</g>
		<g>
			<defs>
				<rect id="SVGID_147_" x="116.19" y="136.85" width="127.62" height="137.44"/>
			</defs>
			<clipPath id="SVGID_148_">
				<use xlink:href="#SVGID_147_"  style="overflow:visible;"/>
			</clipPath>
			<path class="st77" d="M210.55,256.59l-4.59,0.36c-0.62-0.13-1.42,0-2.27,0.42c-1.79,0.88-3.14,2.69-3.01,4.06
				c0.13,1.36,1.68,1.76,3.47,0.88c0.85-0.42,1.6-1.04,2.14-1.73L210.55,256.59z"/>
		</g>
		<g>
			<defs>
				<rect id="SVGID_149_" x="116.19" y="136.85" width="127.62" height="137.44"/>
			</defs>
			<clipPath id="SVGID_150_">
				<use xlink:href="#SVGID_149_"  style="overflow:visible;"/>
			</clipPath>
			<path class="st78" d="M218.03,260.26l2.9,2c0.48,0.19,0.95,0.57,1.32,1.09c0.77,1.1,0.78,2.42,0.02,2.95s-2,0.08-2.77-1.02
				c-0.37-0.52-0.56-1.09-0.58-1.6L218.03,260.26z"/>
		</g>
		<g>
			<defs>
				<rect id="SVGID_151_" x="116.19" y="136.85" width="127.62" height="137.44"/>
			</defs>
			<clipPath id="SVGID_152_">
				<use xlink:href="#SVGID_151_"  style="overflow:visible;"/>
			</clipPath>
			<path class="st79" d="M217.97,260.42l3.22-0.83c0.44-0.23,1-0.32,1.59-0.25c1.24,0.16,2.15,1.03,2.04,1.95
				c-0.12,0.92-1.22,1.54-2.46,1.38c-0.59-0.07-1.1-0.31-1.47-0.64L217.97,260.42z"/>
		</g>
		<g>
			<defs>
				<rect id="SVGID_153_" x="116.19" y="136.85" width="127.62" height="137.44"/>
			</defs>
			<clipPath id="SVGID_154_">
				<use xlink:href="#SVGID_153_"  style="overflow:visible;"/>
			</clipPath>
			<path class="st80" d="M217.95,260.25l-3.13-0.8c-0.43-0.22-0.97-0.32-1.54-0.24c-1.2,0.17-2.07,1.05-1.94,1.96
				s1.21,1.52,2.41,1.36c0.57-0.08,1.06-0.32,1.41-0.65L217.95,260.25z"/>
		</g>
		<g>
			<defs>
				<rect id="SVGID_155_" x="116.19" y="136.85" width="127.62" height="137.44"/>
			</defs>
			<clipPath id="SVGID_156_">
				<use xlink:href="#SVGID_155_"  style="overflow:visible;"/>
			</clipPath>
			<path class="st81" d="M217.94,260.48l-1.42-3.01c-0.1-0.48-0.38-0.97-0.82-1.38c-0.91-0.86-2.17-1-2.8-0.33
				c-0.63,0.68-0.41,1.92,0.51,2.77c0.43,0.41,0.94,0.65,1.43,0.72L217.94,260.48z"/>
		</g>
		<g>
			<defs>
				<rect id="SVGID_157_" x="116.19" y="136.85" width="127.62" height="137.44"/>
			</defs>
			<clipPath id="SVGID_158_">
				<use xlink:href="#SVGID_157_"  style="overflow:visible;"/>
			</clipPath>
			<path class="st82" d="M217.98,260.27l-0.77,3.31c-0.17,0.44-0.28,1.02-0.28,1.65c0,1.32,0.46,2.36,1.03,2.33
				c0.57-0.03,1.04-1.13,1.05-2.45c0-0.63-0.1-1.19-0.27-1.61L217.98,260.27z"/>
		</g>
		<g>
			<defs>
				<rect id="SVGID_159_" x="116.19" y="136.85" width="127.62" height="137.44"/>
			</defs>
			<clipPath id="SVGID_160_">
				<use xlink:href="#SVGID_159_"  style="overflow:visible;"/>
			</clipPath>
			<path class="st83" d="M218.12,260.3l-1.97,1.19c-0.3,0.06-0.63,0.31-0.92,0.73c-0.61,0.89-0.81,2.23-0.45,3
				c0.36,0.76,1.14,0.66,1.75-0.23c0.29-0.42,0.48-0.95,0.57-1.46L218.12,260.3z"/>
		</g>
		<g>
			<defs>
				<rect id="SVGID_161_" x="116.19" y="136.85" width="127.62" height="137.44"/>
			</defs>
			<clipPath id="SVGID_162_">
				<use xlink:href="#SVGID_161_"  style="overflow:visible;"/>
			</clipPath>
			<path class="st84" d="M218,260.78l1.05-3.4c0.23-0.46,0.38-1.05,0.4-1.68c0.04-1.33-0.51-2.33-1.22-2.24s-1.33,1.24-1.37,2.57
				c-0.02,0.63,0.09,1.19,0.29,1.59L218,260.78z"/>
		</g>
		<g>
			<defs>
				<rect id="SVGID_163_" x="116.19" y="136.85" width="127.62" height="137.44"/>
			</defs>
			<clipPath id="SVGID_164_">
				<use xlink:href="#SVGID_163_"  style="overflow:visible;"/>
			</clipPath>
			<path class="st85" d="M217.83,260.76l2.48-1.39c0.38-0.09,0.79-0.37,1.16-0.82c0.78-0.96,1.06-2.32,0.64-3.06
				c-0.43-0.73-1.4-0.55-2.18,0.41c-0.37,0.45-0.63,1-0.75,1.53L217.83,260.76z"/>
		</g>
		<g>
			<defs>
				<rect id="SVGID_165_" x="116.19" y="136.85" width="127.62" height="137.44"/>
			</defs>
			<clipPath id="SVGID_166_">
				<use xlink:href="#SVGID_165_"  style="overflow:visible;"/>
			</clipPath>
			<path class="st86" d="M219.94,248.74l3.51-0.31c0.49-0.15,1.1-0.16,1.71,0c1.29,0.35,2.14,1.36,1.9,2.26
				c-0.24,0.89-1.49,1.33-2.78,0.98c-0.61-0.17-1.13-0.48-1.47-0.86L219.94,248.74z"/>
		</g>
		<g>
			<defs>
				<rect id="SVGID_167_" x="116.19" y="136.85" width="127.62" height="137.44"/>
			</defs>
			<clipPath id="SVGID_168_">
				<use xlink:href="#SVGID_167_"  style="overflow:visible;"/>
			</clipPath>
			<path class="st87" d="M219.99,248.9l1.95-2.69c0.19-0.45,0.56-0.89,1.06-1.2c1.06-0.67,2.31-0.58,2.81,0.2
				c0.49,0.78,0.04,1.96-1.02,2.63c-0.5,0.32-1.05,0.46-1.54,0.45L219.99,248.9z"/>
		</g>
		<g>
			<defs>
				<rect id="SVGID_169_" x="116.19" y="136.85" width="127.62" height="137.44"/>
			</defs>
			<clipPath id="SVGID_170_">
				<use xlink:href="#SVGID_169_"  style="overflow:visible;"/>
			</clipPath>
			<path class="st88" d="M219.87,248.78l-2.93,1.38c-0.47,0.1-0.95,0.38-1.34,0.8c-0.82,0.9-0.93,2.13-0.25,2.75s1.9,0.41,2.72-0.49
				c0.39-0.42,0.62-0.92,0.68-1.4L219.87,248.78z"/>
		</g>
		<g>
			<defs>
				<rect id="SVGID_171_" x="116.19" y="136.85" width="127.62" height="137.44"/>
			</defs>
			<clipPath id="SVGID_172_">
				<use xlink:href="#SVGID_171_"  style="overflow:visible;"/>
			</clipPath>
			<path class="st89" d="M220.01,248.96l-3.01-1.41c-0.39-0.3-0.92-0.5-1.51-0.54c-1.25-0.08-2.31,0.61-2.36,1.53
				c-0.06,0.92,0.91,1.74,2.16,1.81c0.59,0.04,1.14-0.1,1.56-0.35L220.01,248.96z"/>
		</g>
		<g>
			<defs>
				<rect id="SVGID_173_" x="116.19" y="136.85" width="127.62" height="137.44"/>
			</defs>
			<clipPath id="SVGID_174_">
				<use xlink:href="#SVGID_173_"  style="overflow:visible;"/>
			</clipPath>
			<path class="st90" d="M219.9,248.78l1.51,3.04c0.14,0.45,0.43,0.96,0.83,1.45c0.84,1.02,1.86,1.53,2.28,1.14s0.08-1.54-0.76-2.56
				c-0.4-0.48-0.84-0.85-1.23-1.06L219.9,248.78z"/>
		</g>
		<g>
			<defs>
				<rect id="SVGID_175_" x="116.19" y="136.85" width="127.62" height="137.44"/>
			</defs>
			<clipPath id="SVGID_176_">
				<use xlink:href="#SVGID_175_"  style="overflow:visible;"/>
			</clipPath>
			<path class="st91" d="M220.03,248.71l-0.76,2.18c-0.2,0.24-0.29,0.64-0.24,1.15c0.1,1.08,0.8,2.24,1.56,2.6s1.3-0.22,1.2-1.3
				c-0.05-0.51-0.23-1.04-0.49-1.49L220.03,248.71z"/>
		</g>
		<g>
			<defs>
				<rect id="SVGID_177_" x="116.19" y="136.85" width="127.62" height="137.44"/>
			</defs>
			<clipPath id="SVGID_178_">
				<use xlink:href="#SVGID_177_"  style="overflow:visible;"/>
			</clipPath>
			<path class="st92" d="M220.25,249.16l-1.36-3.29c-0.11-0.5-0.38-1.05-0.77-1.55c-0.82-1.05-1.88-1.47-2.37-0.95
				c-0.49,0.53-0.23,1.8,0.59,2.85c0.39,0.5,0.83,0.85,1.24,1.04L220.25,249.16z"/>
		</g>
		<g>
			<defs>
				<rect id="SVGID_179_" x="116.19" y="136.85" width="127.62" height="137.44"/>
			</defs>
			<clipPath id="SVGID_180_">
				<use xlink:href="#SVGID_179_"  style="overflow:visible;"/>
			</clipPath>
			<path class="st93" d="M220.11,249.25l1.03-2.65c0.24-0.31,0.38-0.79,0.37-1.38c-0.01-1.23-0.66-2.47-1.46-2.76
				c-0.79-0.29-1.43,0.47-1.42,1.7c0.01,0.58,0.16,1.17,0.4,1.65L220.11,249.25z"/>
		</g>
		<g>
			<defs>
				<rect id="SVGID_181_" x="116.19" y="136.85" width="127.62" height="137.44"/>
			</defs>
			<clipPath id="SVGID_182_">
				<use xlink:href="#SVGID_181_"  style="overflow:visible;"/>
			</clipPath>
			<path class="st94" d="M226.42,229.72l-1.41-5.67c-0.38-0.76-0.55-1.75-0.43-2.8c0.25-2.21,1.68-3.86,3.2-3.69s2.56,2.1,2.31,4.3
				c-0.12,1.05-0.5,1.97-1.04,2.63L226.42,229.72z"/>
		</g>
		<g>
			<defs>
				<rect id="SVGID_183_" x="116.19" y="136.85" width="127.62" height="137.44"/>
			</defs>
			<clipPath id="SVGID_184_">
				<use xlink:href="#SVGID_183_"  style="overflow:visible;"/>
			</clipPath>
			<path class="st95" d="M226.67,229.6l-4.9-2.5c-0.79-0.2-1.59-0.69-2.24-1.43c-1.37-1.56-1.54-3.64-0.39-4.65s3.2-0.57,4.56,0.99
				c0.65,0.74,1.03,1.6,1.12,2.4L226.67,229.6z"/>
		</g>
		<g>
			<defs>
				<rect id="SVGID_185_" x="116.19" y="136.85" width="127.62" height="137.44"/>
			</defs>
			<clipPath id="SVGID_186_">
				<use xlink:href="#SVGID_185_"  style="overflow:visible;"/>
			</clipPath>
			<path class="st96" d="M226.5,229.83l3.01,4.43c0.29,0.74,0.86,1.46,1.66,1.99c1.68,1.11,3.72,0.97,4.57-0.3
				c0.85-1.28,0.18-3.22-1.5-4.33c-0.79-0.53-1.67-0.77-2.47-0.75L226.5,229.83z"/>
		</g>
		<g>
			<defs>
				<rect id="SVGID_187_" x="116.19" y="136.85" width="127.62" height="137.44"/>
			</defs>
			<clipPath id="SVGID_188_">
				<use xlink:href="#SVGID_187_"  style="overflow:visible;"/>
			</clipPath>
			<path class="st97" d="M226.76,229.55l-1.54,5.28c-0.4,0.71-0.59,1.63-0.5,2.61c0.2,2.07,1.59,3.62,3.12,3.48s2.61-1.93,2.41-4
				c-0.09-0.98-0.46-1.84-0.97-2.47L226.76,229.55z"/>
		</g>
		<g>
			<defs>
				<rect id="SVGID_189_" x="116.19" y="136.85" width="127.62" height="137.44"/>
			</defs>
			<clipPath id="SVGID_190_">
				<use xlink:href="#SVGID_189_"  style="overflow:visible;"/>
			</clipPath>
			<path class="st98" d="M226.49,229.78l4.59-3.26c0.7-0.35,1.46-0.95,2.16-1.73c1.46-1.64,2.03-3.44,1.28-4.02
				c-0.75-0.59-2.54,0.26-4,1.9c-0.69,0.77-1.18,1.59-1.43,2.29L226.49,229.78z"/>
		</g>
		<g>
			<defs>
				<rect id="SVGID_191_" x="116.19" y="136.85" width="127.62" height="137.44"/>
			</defs>
			<clipPath id="SVGID_192_">
				<use xlink:href="#SVGID_191_"  style="overflow:visible;"/>
			</clipPath>
			<path class="st99" d="M226.35,229.58l3.76,0.69c0.44,0.26,1.12,0.31,1.95,0.1c1.73-0.44,3.45-1.88,3.85-3.22
				c0.39-1.34-0.69-2.07-2.43-1.63c-0.82,0.21-1.64,0.64-2.32,1.19L226.35,229.58z"/>
		</g>
		<g>
			<defs>
				<rect id="SVGID_193_" x="116.19" y="136.85" width="127.62" height="137.44"/>
			</defs>
			<clipPath id="SVGID_194_">
				<use xlink:href="#SVGID_193_"  style="overflow:visible;"/>
			</clipPath>
			<path class="st100" d="M227.02,229.11l-5.03,3.07c-0.78,0.32-1.62,0.89-2.34,1.66c-1.51,1.61-1.93,3.45-0.95,4.12
				c0.99,0.67,3.01-0.08,4.52-1.69c0.72-0.76,1.19-1.58,1.38-2.29L227.02,229.11z"/>
		</g>
		<g>
			<defs>
				<rect id="SVGID_195_" x="116.19" y="136.85" width="127.62" height="137.44"/>
			</defs>
			<clipPath id="SVGID_196_">
				<use xlink:href="#SVGID_195_"  style="overflow:visible;"/>
			</clipPath>
			<path class="st101" d="M227.21,229.32l-4.6-1c-0.57-0.31-1.39-0.41-2.35-0.25c-2.02,0.33-3.87,1.72-4.15,3.09
				s1.13,2.22,3.15,1.89c0.95-0.16,1.87-0.55,2.61-1.07L227.21,229.32z"/>
		</g>
		<g>
			<defs>
				<rect id="SVGID_197_" x="116.19" y="136.85" width="127.62" height="137.44"/>
			</defs>
			<clipPath id="SVGID_198_">
				<use xlink:href="#SVGID_197_"  style="overflow:visible;"/>
			</clipPath>
			<path class="st102" d="M235.78,216.61l2.87-2.75c0.32-0.48,0.85-0.92,1.51-1.2c1.39-0.6,2.84-0.32,3.26,0.64
				s-0.37,2.22-1.75,2.82c-0.66,0.29-1.33,0.37-1.9,0.28L235.78,216.61z"/>
		</g>
		<g>
			<defs>
				<rect id="SVGID_199_" x="116.19" y="136.85" width="127.62" height="137.44"/>
			</defs>
			<clipPath id="SVGID_200_">
				<use xlink:href="#SVGID_199_"  style="overflow:visible;"/>
			</clipPath>
			<path class="st103" d="M235.93,216.72l-0.18-3.74c-0.15-0.53-0.13-1.17,0.08-1.81c0.46-1.34,1.62-2.14,2.61-1.81
				c0.99,0.34,1.42,1.69,0.96,3.03c-0.22,0.63-0.59,1.15-1.04,1.48L235.93,216.72z"/>
		</g>
		<g>
			<defs>
				<rect id="SVGID_201_" x="116.19" y="136.85" width="127.62" height="137.44"/>
			</defs>
			<clipPath id="SVGID_202_">
				<use xlink:href="#SVGID_201_"  style="overflow:visible;"/>
			</clipPath>
			<path class="st104" d="M235.74,216.69l-1.6,3.28c-0.34,0.42-0.57,1-0.61,1.65c-0.09,1.37,0.68,2.53,1.73,2.59
				c1.04,0.07,1.96-0.98,2.04-2.35c0.04-0.65-0.11-1.25-0.39-1.71L235.74,216.69z"/>
		</g>
		<g>
			<defs>
				<rect id="SVGID_203_" x="116.19" y="136.85" width="127.62" height="137.44"/>
			</defs>
			<clipPath id="SVGID_204_">
				<use xlink:href="#SVGID_203_"  style="overflow:visible;"/>
			</clipPath>
			<path class="st105" d="M235.99,216.76l-3.64,0.88c-0.55,0.01-1.16,0.2-1.71,0.59c-1.15,0.82-1.6,2.16-0.99,3.02
				c0.6,0.85,2.02,0.88,3.18,0.07c0.55-0.39,0.93-0.89,1.12-1.41L235.99,216.76z"/>
		</g>
		<g>
			<defs>
				<rect id="SVGID_205_" x="116.19" y="136.85" width="127.62" height="137.44"/>
			</defs>
			<clipPath id="SVGID_206_">
				<use xlink:href="#SVGID_205_"  style="overflow:visible;"/>
			</clipPath>
			<path class="st106" d="M235.77,216.67l3.47,1.6c0.44,0.29,1.06,0.54,1.75,0.69c1.46,0.31,2.71,0.03,2.81-0.61
				c0.09-0.64-1.01-1.41-2.47-1.71c-0.69-0.14-1.34-0.16-1.83-0.07L235.77,216.67z"/>
		</g>
		<g>
			<defs>
				<rect id="SVGID_207_" x="116.19" y="136.85" width="127.62" height="137.44"/>
			</defs>
			<clipPath id="SVGID_208_">
				<use xlink:href="#SVGID_207_"  style="overflow:visible;"/>
			</clipPath>
			<path class="st107" d="M235.84,216.52l0.87,2.45c0,0.35,0.2,0.77,0.6,1.18c0.85,0.87,2.28,1.4,3.2,1.18s0.99-1.11,0.14-1.98
				c-0.4-0.41-0.94-0.75-1.49-0.97L235.84,216.52z"/>
		</g>
		<g>
			<defs>
				<rect id="SVGID_209_" x="116.19" y="136.85" width="127.62" height="137.44"/>
			</defs>
			<clipPath id="SVGID_210_">
				<use xlink:href="#SVGID_209_"  style="overflow:visible;"/>
			</clipPath>
			<path class="st108" d="M236.35,216.76l-3.51-1.93c-0.45-0.35-1.07-0.65-1.77-0.82c-1.46-0.35-2.69,0.03-2.75,0.84
				s1.07,1.75,2.53,2.09c0.69,0.16,1.33,0.16,1.82,0.04L236.35,216.76z"/>
		</g>
		<g>
			<defs>
				<rect id="SVGID_211_" x="116.19" y="136.85" width="127.62" height="137.44"/>
			</defs>
			<clipPath id="SVGID_212_">
				<use xlink:href="#SVGID_211_"  style="overflow:visible;"/>
			</clipPath>
			<path class="st109" d="M236.28,216.94l-0.97-3.05c-0.01-0.44-0.23-0.96-0.65-1.47c-0.88-1.08-2.32-1.7-3.23-1.4
				c-0.9,0.3-0.93,1.42-0.05,2.5c0.42,0.51,0.96,0.92,1.52,1.17L236.28,216.94z"/>
		</g>
		<g>
			<defs>
				<rect id="SVGID_213_" x="116.19" y="136.85" width="127.62" height="137.44"/>
			</defs>
			<clipPath id="SVGID_214_">
				<use xlink:href="#SVGID_213_"  style="overflow:visible;"/>
			</clipPath>
			<path class="st110" d="M225.71,191.74l-3.39,1.35c-0.44,0.28-1.04,0.48-1.71,0.53c-1.41,0.1-2.59-0.5-2.65-1.34
				s1.03-1.6,2.44-1.7c0.67-0.05,1.28,0.06,1.76,0.28L225.71,191.74z"/>
		</g>
		<g>
			<defs>
				<rect id="SVGID_215_" x="116.19" y="136.85" width="127.62" height="137.44"/>
			</defs>
			<clipPath id="SVGID_216_">
				<use xlink:href="#SVGID_215_"  style="overflow:visible;"/>
			</clipPath>
			<path class="st111" d="M221.94,193.42l1.38-3.38c0.1-0.51,0.37-1.08,0.81-1.59c0.91-1.08,2.16-1.52,2.81-0.98
				c0.64,0.54,0.43,1.85-0.47,2.93c-0.43,0.51-0.94,0.88-1.42,1.07L221.94,193.42z"/>
		</g>
		<g>
			<defs>
				<rect id="SVGID_217_" x="116.19" y="136.85" width="127.62" height="137.44"/>
			</defs>
			<clipPath id="SVGID_218_">
				<use xlink:href="#SVGID_217_"  style="overflow:visible;"/>
			</clipPath>
			<path class="st112" d="M221.37,190.46l3.63,0.41c0.52-0.04,1.14,0.07,1.75,0.34c1.29,0.58,2.05,1.67,1.71,2.43
				c-0.35,0.77-1.67,0.92-2.95,0.34c-0.61-0.27-1.1-0.66-1.41-1.08L221.37,190.46z"/>
		</g>
		<g>
			<defs>
				<rect id="SVGID_219_" x="116.19" y="136.85" width="127.62" height="137.44"/>
			</defs>
			<clipPath id="SVGID_220_">
				<use xlink:href="#SVGID_219_"  style="overflow:visible;"/>
			</clipPath>
			<path class="st113" d="M223.79,192.73l-2.2-2.06c-0.38-0.22-0.73-0.61-0.96-1.1c-0.48-1.03-0.26-2.15,0.5-2.51
				s1.77,0.19,2.25,1.22c0.23,0.49,0.3,1,0.23,1.43L223.79,192.73z"/>
		</g>
		<g>
			<defs>
				<rect id="SVGID_221_" x="116.19" y="136.85" width="127.62" height="137.44"/>
			</defs>
			<clipPath id="SVGID_222_">
				<use xlink:href="#SVGID_221_"  style="overflow:visible;"/>
			</clipPath>
			<path class="st114" d="M222.52,189.32l1.35,3.39c0.28,0.44,0.48,1.04,0.53,1.71c0.1,1.41-0.5,2.59-1.34,2.65s-1.6-1.03-1.69-2.44
				c-0.05-0.67,0.07-1.28,0.28-1.76L222.52,189.32z"/>
		</g>
		<g>
			<defs>
				<rect id="SVGID_223_" x="116.19" y="136.85" width="127.62" height="137.44"/>
			</defs>
			<clipPath id="SVGID_224_">
				<use xlink:href="#SVGID_223_"  style="overflow:visible;"/>
			</clipPath>
			<path class="st115" d="M223.7,191.51l-0.9,0.36c-0.12,0.07-0.27,0.13-0.45,0.14c-0.37,0.03-0.68-0.13-0.7-0.35
				s0.27-0.42,0.65-0.45c0.18-0.01,0.34,0.02,0.46,0.07L223.7,191.51z"/>
		</g>
		<g>
			<defs>
				<rect id="SVGID_225_" x="116.19" y="136.85" width="127.62" height="137.44"/>
			</defs>
			<clipPath id="SVGID_226_">
				<use xlink:href="#SVGID_225_"  style="overflow:visible;"/>
			</clipPath>
			<path class="st116" d="M223.04,191.8l0.37-0.89c0.03-0.14,0.1-0.28,0.21-0.42c0.24-0.28,0.57-0.4,0.74-0.26s0.11,0.49-0.13,0.77
				c-0.11,0.14-0.25,0.23-0.38,0.28L223.04,191.8z"/>
		</g>
		<g>
			<defs>
				<rect id="SVGID_227_" x="116.19" y="136.85" width="127.62" height="137.44"/>
			</defs>
			<clipPath id="SVGID_228_">
				<use xlink:href="#SVGID_227_"  style="overflow:visible;"/>
			</clipPath>
			<path class="st117" d="M222.86,191.59l0.93-0.27c0.12-0.06,0.29-0.1,0.46-0.1c0.37,0.01,0.67,0.2,0.66,0.42s-0.31,0.39-0.68,0.39
				c-0.18,0-0.34-0.05-0.45-0.12L222.86,191.59z"/>
		</g>
		<g>
			<defs>
				<rect id="SVGID_229_" x="116.19" y="136.85" width="127.62" height="137.44"/>
			</defs>
			<clipPath id="SVGID_230_">
				<use xlink:href="#SVGID_229_"  style="overflow:visible;"/>
			</clipPath>
			<path class="st118" d="M223.36,191.69l-0.58-0.55c-0.1-0.06-0.19-0.16-0.25-0.29c-0.13-0.27-0.07-0.57,0.13-0.66
				c0.2-0.09,0.47,0.05,0.59,0.32c0.06,0.13,0.08,0.26,0.06,0.38L223.36,191.69z"/>
		</g>
		<g>
			<defs>
				<rect id="SVGID_231_" x="116.19" y="136.85" width="127.62" height="137.44"/>
			</defs>
			<clipPath id="SVGID_232_">
				<use xlink:href="#SVGID_231_"  style="overflow:visible;"/>
			</clipPath>
			<path class="st119" d="M223.48,191.02l-0.03,0.96c0.02,0.14,0.01,0.3-0.05,0.47c-0.12,0.35-0.39,0.58-0.6,0.5
				c-0.21-0.07-0.28-0.42-0.16-0.77c0.06-0.17,0.15-0.31,0.25-0.4L223.48,191.02z"/>
		</g>
		<g>
			<defs>
				<rect id="SVGID_233_" x="116.19" y="136.85" width="127.62" height="137.44"/>
			</defs>
			<clipPath id="SVGID_234_">
				<use xlink:href="#SVGID_233_"  style="overflow:visible;"/>
			</clipPath>
			<path class="st120" d="M238.18,224.26l-0.18,3.65c0.08,0.52,0.01,1.14-0.23,1.77c-0.49,1.32-1.53,2.15-2.32,1.86
				c-0.79-0.29-1.03-1.6-0.53-2.92c0.23-0.63,0.59-1.14,0.98-1.48L238.18,224.26z"/>
		</g>
		<g>
			<defs>
				<rect id="SVGID_235_" x="116.19" y="136.85" width="127.62" height="137.44"/>
			</defs>
			<clipPath id="SVGID_236_">
				<use xlink:href="#SVGID_235_"  style="overflow:visible;"/>
			</clipPath>
			<path class="st121" d="M238.15,228.39l-2.5-2.66c-0.42-0.3-0.83-0.79-1.12-1.39c-0.61-1.27-0.49-2.6,0.27-2.96
				c0.76-0.36,1.87,0.38,2.47,1.65c0.29,0.6,0.41,1.22,0.38,1.74L238.15,228.39z"/>
		</g>
		<g>
			<defs>
				<rect id="SVGID_237_" x="116.19" y="136.85" width="127.62" height="137.44"/>
			</defs>
			<clipPath id="SVGID_238_">
				<use xlink:href="#SVGID_237_"  style="overflow:visible;"/>
			</clipPath>
			<path class="st122" d="M235.22,227.68l1.88-3.13c0.18-0.49,0.53-1.01,1.04-1.45c1.06-0.93,2.37-1.17,2.92-0.54
				s0.15,1.9-0.91,2.83c-0.5,0.44-1.06,0.73-1.57,0.84L235.22,227.68z"/>
		</g>
		<g>
			<defs>
				<rect id="SVGID_239_" x="116.19" y="136.85" width="127.62" height="137.44"/>
			</defs>
			<clipPath id="SVGID_240_">
				<use xlink:href="#SVGID_239_"  style="overflow:visible;"/>
			</clipPath>
			<path class="st123" d="M238.29,226.42l-2.79,1.15c-0.36,0.26-0.85,0.42-1.4,0.42c-1.14,0.01-2.06-0.66-2.07-1.5
				c-0.01-0.84,0.9-1.53,2.04-1.55c0.54-0.01,1.03,0.14,1.4,0.39L238.29,226.42z"/>
		</g>
		<g>
			<defs>
				<rect id="SVGID_241_" x="116.19" y="136.85" width="127.62" height="137.44"/>
			</defs>
			<clipPath id="SVGID_242_">
				<use xlink:href="#SVGID_241_"  style="overflow:visible;"/>
			</clipPath>
			<path class="st124" d="M234.66,226.16l3.65,0.18c0.52-0.08,1.14-0.01,1.77,0.23c1.32,0.5,2.15,1.53,1.86,2.32
				c-0.29,0.79-1.6,1.02-2.93,0.53c-0.63-0.23-1.14-0.59-1.48-0.99L234.66,226.16z"/>
		</g>
		<g>
			<defs>
				<rect id="SVGID_243_" x="116.19" y="136.85" width="127.62" height="137.44"/>
			</defs>
			<clipPath id="SVGID_244_">
				<use xlink:href="#SVGID_243_"  style="overflow:visible;"/>
			</clipPath>
			<path class="st125" d="M237.14,225.99l-0.05,0.96c0.02,0.14,0,0.3-0.06,0.47c-0.13,0.35-0.4,0.57-0.61,0.49s-0.27-0.42-0.14-0.77
				c0.06-0.17,0.16-0.3,0.26-0.39L237.14,225.99z"/>
		</g>
		<g>
			<defs>
				<rect id="SVGID_245_" x="116.19" y="136.85" width="127.62" height="137.44"/>
			</defs>
			<clipPath id="SVGID_246_">
				<use xlink:href="#SVGID_245_"  style="overflow:visible;"/>
			</clipPath>
			<path class="st126" d="M237.13,226.71l-0.66-0.7c-0.11-0.08-0.22-0.21-0.29-0.37c-0.16-0.34-0.13-0.69,0.07-0.78
				c0.2-0.1,0.49,0.1,0.65,0.44c0.08,0.16,0.11,0.32,0.1,0.46L237.13,226.71z"/>
		</g>
		<g>
			<defs>
				<rect id="SVGID_247_" x="116.19" y="136.85" width="127.62" height="137.44"/>
			</defs>
			<clipPath id="SVGID_248_">
				<use xlink:href="#SVGID_247_"  style="overflow:visible;"/>
			</clipPath>
			<path class="st127" d="M236.86,226.79l0.14-0.95c-0.01-0.14,0.03-0.3,0.1-0.46c0.16-0.34,0.46-0.53,0.66-0.43
				s0.23,0.45,0.07,0.78c-0.08,0.16-0.18,0.29-0.3,0.36L236.86,226.79z"/>
		</g>
		<g>
			<defs>
				<rect id="SVGID_249_" x="116.19" y="136.85" width="127.62" height="137.44"/>
			</defs>
			<clipPath id="SVGID_250_">
				<use xlink:href="#SVGID_249_"  style="overflow:visible;"/>
			</clipPath>
			<path class="st128" d="M237.17,226.38l-0.74,0.3c-0.1,0.07-0.23,0.11-0.37,0.11c-0.3,0-0.55-0.17-0.55-0.4
				c0-0.22,0.24-0.4,0.54-0.41c0.14,0,0.27,0.04,0.37,0.1L237.17,226.38z"/>
		</g>
		<g>
			<defs>
				<rect id="SVGID_251_" x="116.19" y="136.85" width="127.62" height="137.44"/>
			</defs>
			<clipPath id="SVGID_252_">
				<use xlink:href="#SVGID_251_"  style="overflow:visible;"/>
			</clipPath>
			<path class="st129" d="M236.6,225.99l0.87,0.42c0.13,0.04,0.28,0.12,0.4,0.24c0.27,0.26,0.36,0.6,0.21,0.76
				c-0.15,0.16-0.5,0.08-0.76-0.18c-0.13-0.12-0.22-0.26-0.26-0.39L236.6,225.99z"/>
		</g>
		<g>
			<defs>
				<rect id="SVGID_253_" x="116.19" y="136.85" width="127.62" height="137.44"/>
			</defs>
			<clipPath id="SVGID_254_">
				<use xlink:href="#SVGID_253_"  style="overflow:visible;"/>
			</clipPath>
			<path class="st130" d="M212.26,267.58l-3.39,1.35c-0.44,0.28-1.04,0.48-1.71,0.53c-1.41,0.1-2.59-0.5-2.65-1.34
				s1.03-1.6,2.44-1.7c0.67-0.05,1.28,0.06,1.76,0.28L212.26,267.58z"/>
		</g>
		<g>
			<defs>
				<rect id="SVGID_255_" x="116.19" y="136.85" width="127.62" height="137.44"/>
			</defs>
			<clipPath id="SVGID_256_">
				<use xlink:href="#SVGID_255_"  style="overflow:visible;"/>
			</clipPath>
			<path class="st131" d="M208.49,269.26l1.38-3.38c0.1-0.51,0.37-1.08,0.81-1.59c0.91-1.08,2.16-1.52,2.81-0.98
				c0.64,0.54,0.43,1.85-0.47,2.93c-0.43,0.51-0.94,0.88-1.42,1.07L208.49,269.26z"/>
		</g>
		<g>
			<defs>
				<rect id="SVGID_257_" x="116.19" y="136.85" width="127.62" height="137.44"/>
			</defs>
			<clipPath id="SVGID_258_">
				<use xlink:href="#SVGID_257_"  style="overflow:visible;"/>
			</clipPath>
			<path class="st132" d="M207.92,266.29l3.63,0.41c0.52-0.04,1.14,0.07,1.75,0.34c1.29,0.58,2.05,1.67,1.71,2.43
				c-0.34,0.77-1.67,0.92-2.95,0.34c-0.61-0.27-1.1-0.66-1.41-1.08L207.92,266.29z"/>
		</g>
		<g>
			<defs>
				<rect id="SVGID_259_" x="116.19" y="136.85" width="127.62" height="137.44"/>
			</defs>
			<clipPath id="SVGID_260_">
				<use xlink:href="#SVGID_259_"  style="overflow:visible;"/>
			</clipPath>
			<path class="st133" d="M210.34,268.57l-2.2-2.06c-0.38-0.23-0.73-0.61-0.96-1.1c-0.48-1.03-0.26-2.15,0.5-2.51
				c0.76-0.36,1.77,0.19,2.25,1.22c0.23,0.49,0.3,1,0.23,1.43L210.34,268.57z"/>
		</g>
		<g>
			<defs>
				<rect id="SVGID_261_" x="116.19" y="136.85" width="127.62" height="137.44"/>
			</defs>
			<clipPath id="SVGID_262_">
				<use xlink:href="#SVGID_261_"  style="overflow:visible;"/>
			</clipPath>
			<path class="st134" d="M209.07,265.15l1.35,3.39c0.28,0.44,0.48,1.04,0.53,1.71c0.1,1.41-0.5,2.59-1.34,2.65s-1.6-1.03-1.7-2.44
				c-0.05-0.67,0.07-1.28,0.28-1.76L209.07,265.15z"/>
		</g>
		<g>
			<defs>
				<rect id="SVGID_263_" x="116.19" y="136.85" width="127.62" height="137.44"/>
			</defs>
			<clipPath id="SVGID_264_">
				<use xlink:href="#SVGID_263_"  style="overflow:visible;"/>
			</clipPath>
			<path class="st135" d="M210.25,267.34l-0.9,0.36c-0.12,0.07-0.27,0.13-0.45,0.14c-0.37,0.03-0.68-0.13-0.7-0.35
				c-0.01-0.22,0.27-0.42,0.65-0.45c0.18-0.01,0.34,0.02,0.46,0.07L210.25,267.34z"/>
		</g>
		<g>
			<defs>
				<rect id="SVGID_265_" x="116.19" y="136.85" width="127.62" height="137.44"/>
			</defs>
			<clipPath id="SVGID_266_">
				<use xlink:href="#SVGID_265_"  style="overflow:visible;"/>
			</clipPath>
			<path class="st136" d="M209.59,267.63l0.37-0.89c0.03-0.13,0.1-0.28,0.21-0.42c0.24-0.29,0.57-0.4,0.74-0.26
				c0.17,0.14,0.11,0.49-0.13,0.78c-0.11,0.14-0.25,0.23-0.38,0.28L209.59,267.63z"/>
		</g>
		<g>
			<defs>
				<rect id="SVGID_267_" x="116.19" y="136.85" width="127.62" height="137.44"/>
			</defs>
			<clipPath id="SVGID_268_">
				<use xlink:href="#SVGID_267_"  style="overflow:visible;"/>
			</clipPath>
			<path class="st137" d="M209.41,267.42l0.93-0.27c0.12-0.06,0.29-0.1,0.46-0.1c0.37,0.01,0.67,0.2,0.66,0.42s-0.31,0.39-0.68,0.39
				c-0.18,0-0.34-0.05-0.45-0.12L209.41,267.42z"/>
		</g>
		<g>
			<defs>
				<rect id="SVGID_269_" x="116.19" y="136.85" width="127.62" height="137.44"/>
			</defs>
			<clipPath id="SVGID_270_">
				<use xlink:href="#SVGID_269_"  style="overflow:visible;"/>
			</clipPath>
			<path class="st138" d="M209.91,267.53l-0.58-0.55c-0.1-0.06-0.19-0.16-0.25-0.29c-0.13-0.27-0.07-0.57,0.13-0.66
				c0.2-0.09,0.47,0.05,0.59,0.32c0.06,0.13,0.08,0.26,0.06,0.38L209.91,267.53z"/>
		</g>
		<g>
			<defs>
				<rect id="SVGID_271_" x="116.19" y="136.85" width="127.62" height="137.44"/>
			</defs>
			<clipPath id="SVGID_272_">
				<use xlink:href="#SVGID_271_"  style="overflow:visible;"/>
			</clipPath>
			<path class="st139" d="M210.03,266.86l-0.03,0.96c0.02,0.14,0.01,0.3-0.05,0.47c-0.12,0.35-0.39,0.58-0.6,0.5
				c-0.21-0.07-0.28-0.42-0.16-0.77c0.06-0.17,0.15-0.31,0.25-0.4L210.03,266.86z"/>
		</g>
		<g>
			<defs>
				<rect id="SVGID_273_" x="116.19" y="136.85" width="127.62" height="137.44"/>
			</defs>
			<clipPath id="SVGID_274_">
				<use xlink:href="#SVGID_273_"  style="overflow:visible;"/>
			</clipPath>
			<path class="st140" d="M219.59,234.2l-3.39,1.35c-0.44,0.28-1.04,0.48-1.71,0.53c-1.41,0.1-2.59-0.5-2.65-1.34s1.03-1.6,2.44-1.7
				c0.67-0.05,1.28,0.06,1.76,0.28L219.59,234.2z"/>
		</g>
		<g>
			<defs>
				<rect id="SVGID_275_" x="116.19" y="136.85" width="127.62" height="137.44"/>
			</defs>
			<clipPath id="SVGID_276_">
				<use xlink:href="#SVGID_275_"  style="overflow:visible;"/>
			</clipPath>
			<path class="st141" d="M215.82,235.88l1.38-3.38c0.1-0.51,0.38-1.08,0.81-1.59c0.91-1.08,2.16-1.52,2.81-0.98
				c0.64,0.54,0.43,1.85-0.47,2.93c-0.43,0.51-0.94,0.88-1.42,1.07L215.82,235.88z"/>
		</g>
		<g>
			<defs>
				<rect id="SVGID_277_" x="116.19" y="136.85" width="127.62" height="137.44"/>
			</defs>
			<clipPath id="SVGID_278_">
				<use xlink:href="#SVGID_277_"  style="overflow:visible;"/>
			</clipPath>
			<path class="st142" d="M215.26,232.92l3.63,0.41c0.52-0.04,1.14,0.07,1.75,0.34c1.29,0.58,2.05,1.67,1.71,2.43
				c-0.35,0.77-1.67,0.92-2.95,0.34c-0.61-0.27-1.1-0.66-1.41-1.08L215.26,232.92z"/>
		</g>
		<g>
			<defs>
				<rect id="SVGID_279_" x="116.19" y="136.85" width="127.62" height="137.44"/>
			</defs>
			<clipPath id="SVGID_280_">
				<use xlink:href="#SVGID_279_"  style="overflow:visible;"/>
			</clipPath>
			<path class="st143" d="M217.67,235.19l-2.2-2.06c-0.38-0.22-0.73-0.61-0.96-1.1c-0.48-1.03-0.26-2.15,0.5-2.51
				s1.77,0.19,2.25,1.21c0.23,0.49,0.3,1,0.23,1.44L217.67,235.19z"/>
		</g>
		<g>
			<defs>
				<rect id="SVGID_281_" x="116.19" y="136.85" width="127.62" height="137.44"/>
			</defs>
			<clipPath id="SVGID_282_">
				<use xlink:href="#SVGID_281_"  style="overflow:visible;"/>
			</clipPath>
			<path class="st144" d="M216.41,231.78l1.35,3.39c0.28,0.44,0.48,1.04,0.53,1.71c0.1,1.41-0.5,2.59-1.34,2.65s-1.6-1.03-1.69-2.44
				c-0.05-0.67,0.07-1.28,0.28-1.76L216.41,231.78z"/>
		</g>
		<g>
			<defs>
				<rect id="SVGID_283_" x="116.19" y="136.85" width="127.62" height="137.44"/>
			</defs>
			<clipPath id="SVGID_284_">
				<use xlink:href="#SVGID_283_"  style="overflow:visible;"/>
			</clipPath>
			<path class="st145" d="M217.58,233.97l-0.9,0.36c-0.12,0.07-0.27,0.13-0.45,0.14c-0.37,0.03-0.68-0.13-0.7-0.35
				c-0.01-0.22,0.27-0.42,0.65-0.45c0.18-0.01,0.34,0.02,0.46,0.08L217.58,233.97z"/>
		</g>
		<g>
			<defs>
				<rect id="SVGID_285_" x="116.19" y="136.85" width="127.62" height="137.44"/>
			</defs>
			<clipPath id="SVGID_286_">
				<use xlink:href="#SVGID_285_"  style="overflow:visible;"/>
			</clipPath>
			<path class="st146" d="M216.93,234.26l0.37-0.89c0.03-0.13,0.1-0.28,0.21-0.42c0.24-0.28,0.57-0.4,0.74-0.26s0.11,0.49-0.13,0.78
				c-0.11,0.13-0.25,0.23-0.38,0.28L216.93,234.26z"/>
		</g>
		<g>
			<defs>
				<rect id="SVGID_287_" x="116.19" y="136.85" width="127.62" height="137.44"/>
			</defs>
			<clipPath id="SVGID_288_">
				<use xlink:href="#SVGID_287_"  style="overflow:visible;"/>
			</clipPath>
			<path class="st147" d="M216.74,234.05l0.93-0.27c0.12-0.06,0.28-0.1,0.46-0.1c0.37,0.01,0.67,0.2,0.66,0.42s-0.31,0.39-0.68,0.39
				c-0.18,0-0.34-0.05-0.45-0.12L216.74,234.05z"/>
		</g>
		<g>
			<defs>
				<rect id="SVGID_289_" x="116.19" y="136.85" width="127.62" height="137.44"/>
			</defs>
			<clipPath id="SVGID_290_">
				<use xlink:href="#SVGID_289_"  style="overflow:visible;"/>
			</clipPath>
			<path class="st148" d="M217.25,234.15l-0.58-0.55c-0.1-0.06-0.19-0.16-0.25-0.29c-0.13-0.27-0.07-0.57,0.13-0.66
				c0.2-0.09,0.47,0.05,0.59,0.32c0.06,0.13,0.08,0.26,0.06,0.38L217.25,234.15z"/>
		</g>
		<g>
			<defs>
				<rect id="SVGID_291_" x="116.19" y="136.85" width="127.62" height="137.44"/>
			</defs>
			<clipPath id="SVGID_292_">
				<use xlink:href="#SVGID_291_"  style="overflow:visible;"/>
			</clipPath>
			<path class="st149" d="M217.36,233.48l-0.03,0.96c0.02,0.14,0.01,0.3-0.05,0.47c-0.12,0.35-0.39,0.58-0.6,0.5
				c-0.21-0.07-0.28-0.42-0.16-0.77c0.06-0.17,0.15-0.31,0.25-0.4L217.36,233.48z"/>
		</g>
	</g>
</g>
<g id="Name">
	<g class="st2">
		<path class="st3" d="M100.05,382.17h-2.38v8.01c0,0.46-0.36,0.83-0.82,0.83c-0.45,0-0.83-0.36-0.83-0.83v-8.01h-2.37
			c-0.46,0-0.82-0.39-0.82-0.84c0-0.46,0.36-0.83,0.82-0.83h6.4c0.45,0,0.83,0.36,0.83,0.83
			C100.87,381.78,100.5,382.17,100.05,382.17z"/>
		<path class="st3" d="M107.5,387.27v2.94c0,0.43-0.36,0.79-0.79,0.79c-0.39,0-0.69-0.29-0.78-0.64c-0.57,0.4-1.24,0.64-1.99,0.64
			c-1.02,0-1.9-0.42-2.55-1.09c-0.65-0.69-1.02-1.62-1.02-2.64c0-1.04,0.38-1.97,1.02-2.64c0.65-0.69,1.53-1.12,2.55-1.12
			c0.75,0,1.42,0.25,1.99,0.66c0.09-0.38,0.39-0.66,0.78-0.66c0.44,0,0.79,0.36,0.79,0.81V387.27z M105.91,387.27
			c0-0.63-0.23-1.17-0.58-1.54c-0.36-0.41-0.87-0.62-1.4-0.62c-0.54,0-1.05,0.21-1.4,0.62c-0.36,0.37-0.57,0.91-0.57,1.54
			c0,0.61,0.21,1.15,0.57,1.54c0.34,0.38,0.85,0.58,1.4,0.58c0.52,0,1.03-0.21,1.4-0.58C105.69,388.42,105.91,387.88,105.91,387.27z
			"/>
		<path class="st3" d="M113.41,391c-1.71,0-3.12-1.41-3.12-3.12v-3.58c0-0.42,0.36-0.79,0.79-0.79c0.45,0,0.79,0.38,0.79,0.79v3.58
			c0,0.86,0.67,1.53,1.53,1.53c0.87,0,1.56-0.67,1.58-1.53v-3.58c0-0.42,0.33-0.79,0.78-0.79c0.42,0,0.81,0.38,0.81,0.79v3.58
			C116.58,389.59,115.14,391,113.41,391z"/>
		<path class="st3" d="M124.26,384.3c0,0.42-0.34,0.79-0.79,0.79c-0.34,0-0.65,0.09-0.9,0.29c-0.29,0.18-0.51,0.44-0.69,0.72
			c-0.36,0.48-0.54,1.05-0.62,1.26v2.85c0,0.43-0.38,0.79-0.82,0.79c-0.44,0-0.79-0.36-0.79-0.79v-5.91c0-0.43,0.36-0.78,0.79-0.78
			c0.45,0,0.82,0.34,0.82,0.78v0.11c0.09-0.11,0.21-0.23,0.32-0.3c0.49-0.33,1.14-0.6,1.89-0.58
			C123.91,383.52,124.26,383.86,124.26,384.3z"/>
		<path class="st3" d="M129.19,391c-1.71,0-3.12-1.41-3.12-3.12v-3.58c0-0.42,0.36-0.79,0.79-0.79c0.45,0,0.79,0.38,0.79,0.79v3.58
			c0,0.86,0.67,1.53,1.53,1.53c0.87,0,1.56-0.67,1.58-1.53v-3.58c0-0.42,0.33-0.79,0.78-0.79c0.42,0,0.81,0.38,0.81,0.79v3.58
			C132.36,389.59,130.92,391,129.19,391z"/>
		<path class="st3" d="M135.06,388.86c0.27-0.36,0.79-0.41,1.12-0.12c0.39,0.33,1.07,0.67,1.65,0.66c0.4,0,0.78-0.14,1.02-0.29
			c0.21-0.18,0.27-0.33,0.27-0.45c0-0.08-0.01-0.11-0.04-0.15c-0.02-0.04-0.07-0.1-0.19-0.18c-0.21-0.15-0.66-0.32-1.2-0.42h-0.01
			c-0.47-0.09-0.92-0.21-1.31-0.39c-0.4-0.2-0.77-0.47-1.03-0.87c-0.17-0.27-0.26-0.6-0.26-0.95c0-0.69,0.39-1.27,0.89-1.65
			c0.52-0.36,1.15-0.56,1.84-0.56c1.04,0,1.77,0.5,2.25,0.83c0.36,0.24,0.46,0.74,0.24,1.11c-0.24,0.36-0.73,0.46-1.11,0.21
			c-0.48-0.32-0.9-0.56-1.38-0.56c-0.38,0-0.71,0.12-0.9,0.27c-0.19,0.13-0.24,0.27-0.24,0.34c0,0.06,0,0.08,0.03,0.12
			c0.02,0.03,0.06,0.09,0.17,0.15c0.19,0.13,0.58,0.27,1.09,0.36l0.02,0.02h0.02c0.49,0.09,0.96,0.22,1.4,0.43
			c0.4,0.18,0.81,0.46,1.06,0.88c0.18,0.3,0.28,0.65,0.28,0.99c0,0.74-0.4,1.35-0.94,1.74c-0.54,0.38-1.21,0.6-1.95,0.6
			c-1.17-0.01-2.07-0.55-2.67-1.04C134.83,389.7,134.79,389.19,135.06,388.86z"/>
	</g>
</g>
</svg>
