<?xml version="1.0" encoding="utf-8"?>
<!-- Generator: Adobe Illustrator 23.0.2, SVG Export Plug-In . SVG Version: 6.00 Build 0)  -->
<svg version="1.1" xmlns="http://www.w3.org/2000/svg" xmlns:xlink="http://www.w3.org/1999/xlink" x="0px" y="0px"
	 viewBox="0 0 252 252" style="enable-background:new 0 0 252 252;" xml:space="preserve">
<style type="text/css">
	.st0{display:none;}
	.st1{display:inline;fill:#FFFFFF;stroke:#252723;stroke-miterlimit:10;}
	.st2{fill:#FFFFFF;}
	.st3{fill:#DFE8BA;}
	.st4{clip-path:url(#SVGID_2_);fill:#4E8238;}
	.st5{clip-path:url(#SVGID_2_);fill:#AAC538;}
	.st6{clip-path:url(#SVGID_2_);fill:#C93635;}
	.st7{clip-path:url(#SVGID_2_);fill:#D36768;}
	.st8{clip-path:url(#SVGID_2_);fill:#DFB61D;}
	.st9{clip-path:url(#SVGID_2_);fill:#EFD018;}
	.st10{clip-path:url(#SVGID_2_);fill:#653020;}
	.st11{clip-path:url(#SVGID_2_);fill:#518E3E;}
	.st12{clip-path:url(#SVGID_2_);fill:#80BCA7;}
	.st13{clip-path:url(#SVGID_2_);fill:#5FA847;}
	.st14{clip-path:url(#SVGID_2_);fill:#3F7033;}
	.st15{clip-path:url(#SVGID_2_);fill:#82B541;}
	.st16{clip-path:url(#SVGID_2_);fill:#D87E7F;}
	.st17{clip-path:url(#SVGID_2_);fill:#FDF4A5;}
	.st18{display:inline;fill:none;stroke:#252723;stroke-miterlimit:10;}
</style>
<g id="Bleed" class="st0">
	<circle class="st1" cx="126" cy="126" r="72"/>
</g>
<g id="Background">
</g>
<g id="Image">
	<circle class="st2" cx="126" cy="126" r="57.66"/>
	<circle class="st3" cx="126" cy="126" r="50.01"/>
	<circle class="st2" cx="126" cy="126" r="45.64"/>
	<circle class="st3" cx="126" cy="126" r="40.51"/>
	<circle class="st2" cx="126" cy="132.23" r="38.29"/>
	<g>
		<defs>
			
				<rect id="SVGID_1_" x="92.11" y="111.23" transform="matrix(0.9905 -0.1374 0.1374 0.9905 -17.7424 18.4642)" width="65.57" height="53.08"/>
		</defs>
		<clipPath id="SVGID_2_">
			<use xlink:href="#SVGID_1_"  style="overflow:visible;"/>
		</clipPath>
		<path class="st4" d="M96.92,136.85l2.5,1.14c0.39,0.08,0.81,0.31,1.16,0.66c0.74,0.74,0.93,1.75,0.42,2.26
			c-0.51,0.51-1.52,0.33-2.26-0.41c-0.35-0.35-0.58-0.76-0.66-1.15L96.92,136.85z"/>
		<path class="st4" d="M96.89,136.97l2.35-1.07c0.3-0.23,0.72-0.38,1.18-0.41c0.97-0.05,1.79,0.5,1.83,1.22
			c0.03,0.72-0.73,1.34-1.7,1.39c-0.46,0.02-0.89-0.09-1.21-0.29L96.89,136.97z"/>
		<path class="st4" d="M96.86,136.84l-2.51-0.19c-0.36-0.11-0.79-0.11-1.22,0.03c-0.9,0.29-1.45,1.08-1.22,1.77
			c0.22,0.69,1.13,1.01,2.03,0.71c0.43-0.14,0.77-0.39,1-0.69L96.86,136.84z"/>
		<path class="st4" d="M96.88,137.02l-1.49-2.11c-0.15-0.35-0.43-0.69-0.82-0.95c-0.82-0.53-1.8-0.48-2.19,0.13
			c-0.39,0.6-0.05,1.52,0.76,2.06c0.39,0.25,0.81,0.37,1.19,0.36L96.88,137.02z"/>
		<path class="st4" d="M96.88,136.86l-0.15,2.64c-0.07,0.36-0.08,0.82,0.01,1.3c0.18,1.01,0.67,1.75,1.11,1.65
			c0.44-0.1,0.65-1.01,0.47-2.02c-0.08-0.48-0.24-0.9-0.43-1.19L96.88,136.86z"/>
		<path class="st4" d="M96.99,136.86l-1.35,1.18c-0.22,0.09-0.44,0.32-0.61,0.69c-0.34,0.77-0.32,1.82,0.06,2.36
			c0.38,0.54,0.96,0.35,1.31-0.42c0.16-0.36,0.24-0.79,0.24-1.2L96.99,136.86z"/>
		<path class="st4" d="M96.97,137.25l0.34-2.75c0.11-0.38,0.15-0.86,0.07-1.34c-0.15-1.02-0.7-1.72-1.24-1.55
			c-0.54,0.17-0.85,1.13-0.7,2.15c0.07,0.49,0.23,0.9,0.44,1.18L96.97,137.25z"/>
		<path class="st4" d="M96.84,137.26l1.71-1.4c0.28-0.12,0.56-0.39,0.78-0.79c0.47-0.84,0.5-1.93,0.08-2.43
			c-0.43-0.5-1.15-0.23-1.62,0.61c-0.22,0.4-0.34,0.85-0.37,1.27L96.84,137.26z"/>
		<path class="st5" d="M150.23,150.58l-0.41-3.71c-0.17-0.52-0.2-1.16-0.03-1.81c0.34-1.38,1.39-2.3,2.34-2.06
			c0.95,0.24,1.44,1.54,1.1,2.92c-0.16,0.65-0.49,1.2-0.88,1.58L150.23,150.58z"/>
		<path class="st5" d="M150.4,150.53l-2.89-2c-0.48-0.19-0.95-0.57-1.3-1.1c-0.73-1.1-0.67-2.44,0.15-2.98
			c0.82-0.54,2.07-0.09,2.81,1.02c0.35,0.52,0.51,1.1,0.51,1.62L150.4,150.53z"/>
		<path class="st5" d="M150.28,150.66l1.53,3.06c0.12,0.5,0.42,1,0.88,1.4c0.97,0.85,2.27,0.93,2.92,0.2
			c0.65-0.74,0.39-2.02-0.58-2.87c-0.46-0.4-0.99-0.63-1.5-0.68L150.28,150.66z"/>
		<path class="st5" d="M150.47,150.5l-1.43,3.21c-0.31,0.42-0.51,0.98-0.54,1.61c-0.05,1.32,0.7,2.43,1.68,2.47
			c0.98,0.04,1.82-1,1.87-2.33c0.02-0.63-0.13-1.21-0.41-1.64L150.47,150.5z"/>
		<path class="st5" d="M150.27,150.62l3.18-1.67c0.47-0.16,1.01-0.48,1.51-0.91c1.06-0.91,1.58-2,1.15-2.44
			c-0.42-0.44-1.63-0.05-2.69,0.86c-0.5,0.43-0.88,0.9-1.1,1.33L150.27,150.62z"/>
		<path class="st5" d="M150.2,150.48l2.32,0.76c0.26,0.2,0.68,0.29,1.22,0.23c1.14-0.13,2.35-0.9,2.71-1.71
			c0.36-0.82-0.26-1.37-1.4-1.24c-0.54,0.06-1.09,0.27-1.57,0.55L150.2,150.48z"/>
		<path class="st5" d="M150.67,150.24l-3.45,1.52c-0.52,0.13-1.1,0.43-1.62,0.85c-1.09,0.89-1.52,2.02-0.95,2.53
			c0.57,0.51,1.91,0.2,3-0.68c0.52-0.42,0.88-0.9,1.07-1.34L150.67,150.24z"/>
		<path class="st5" d="M150.77,150.4l-2.83-1.03c-0.33-0.24-0.84-0.38-1.47-0.36c-1.31,0.04-2.6,0.76-2.89,1.6
			c-0.29,0.85,0.53,1.5,1.83,1.46c0.62-0.02,1.23-0.19,1.74-0.46L150.77,150.4z"/>
		<path class="st6" d="M117.53,139.36l-6.31-11.1c-1.19-1.38-2.16-3.36-2.64-5.65c-1.02-4.83,0.49-9.22,3.36-9.83
			c2.87-0.61,6.03,2.81,7.04,7.64c0.48,2.29,0.39,4.48-0.14,6.22L117.53,139.36z"/>
		<path class="st6" d="M112.55,131.28l12.37,3.16c1.82,0.1,3.91,0.78,5.9,2.03c4.18,2.62,6.3,6.75,4.74,9.24
			c-1.56,2.49-6.21,2.39-10.39-0.23c-1.98-1.24-3.49-2.83-4.38-4.41L112.55,131.28z"/>
		<path class="st6" d="M114.95,128.51l5.24,11.65c1.06,1.48,1.83,3.55,2.1,5.88c0.55,4.9-1.36,9.13-4.28,9.46s-5.74-3.37-6.29-8.27
			c-0.26-2.32,0.03-4.49,0.72-6.18L114.95,128.51z"/>
		<path class="st6" d="M114.5,135.29l6.09-8.6c0.59-1.44,1.74-2.83,3.33-3.86c3.33-2.17,7.32-1.93,8.92,0.54
			c1.6,2.46,0.2,6.21-3.13,8.38c-1.58,1.03-3.31,1.51-4.86,1.47L114.5,135.29z"/>
		<path class="st6" d="M123.49,135.57l-12.69,1.41c-1.74,0.55-3.94,0.65-6.24,0.19c-4.83-0.98-8.28-4.1-7.69-6.98
			c0.58-2.88,4.97-4.42,9.8-3.45c2.29,0.46,4.27,1.41,5.65,2.58L123.49,135.57z"/>
		<path class="st7" d="M118.14,137.37l-5.46-9.6c-1.03-1.19-1.87-2.9-2.28-4.89c-0.88-4.17,0.42-7.98,2.91-8.5
			c2.49-0.52,5.21,2.43,6.09,6.61c0.42,1.98,0.34,3.87-0.12,5.38L118.14,137.37z"/>
		<path class="st7" d="M113.83,130.37l10.7,2.74c1.57,0.08,3.38,0.67,5.11,1.75c3.61,2.27,5.45,5.84,4.1,7.99s-5.37,2.06-8.98-0.2
			c-1.71-1.07-3.02-2.44-3.79-3.82L113.83,130.37z"/>
		<path class="st7" d="M115.23,128.3l4.53,10.07c0.91,1.28,1.58,3.07,1.81,5.08c0.48,4.24-1.17,7.9-3.7,8.19
			c-2.52,0.29-4.96-2.91-5.44-7.15c-0.23-2.01,0.03-3.89,0.63-5.34L115.23,128.3z"/>
		<path class="st7" d="M115.52,133.84l5.27-7.44c0.51-1.24,1.51-2.44,2.88-3.34c2.88-1.87,6.33-1.67,7.72,0.46
			c1.38,2.13,0.18,5.37-2.7,7.25c-1.37,0.89-2.86,1.31-4.2,1.28L115.52,133.84z"/>
		<path class="st7" d="M123.29,134.09l-10.98,1.22c-1.5,0.48-3.4,0.57-5.4,0.16c-4.18-0.85-7.16-3.54-6.65-6.03
			c0.5-2.49,4.3-3.83,8.48-2.98c1.98,0.4,3.69,1.22,4.89,2.24L123.29,134.09z"/>
		<path class="st8" d="M117.36,135.55l-2.02-3.55c-0.38-0.44-0.69-1.07-0.84-1.81c-0.32-1.54,0.16-2.95,1.07-3.14
			c0.92-0.19,1.93,0.9,2.25,2.44c0.15,0.73,0.12,1.43-0.04,1.99L117.36,135.55z"/>
		<path class="st8" d="M115.77,132.97l3.95,1.01c0.58,0.03,1.25,0.25,1.89,0.65c1.33,0.84,2.01,2.16,1.51,2.95
			c-0.5,0.79-1.99,0.76-3.32-0.07c-0.63-0.4-1.12-0.9-1.4-1.41L115.77,132.97z"/>
		<path class="st8" d="M116.53,132.08l1.67,3.72c0.34,0.47,0.58,1.13,0.67,1.88c0.18,1.57-0.43,2.92-1.37,3.02
			c-0.93,0.11-1.83-1.08-2.01-2.64c-0.08-0.74,0.01-1.44,0.23-1.97L116.53,132.08z"/>
		<path class="st8" d="M116.39,134.25l1.95-2.75c0.19-0.46,0.56-0.9,1.06-1.23c1.06-0.69,2.34-0.62,2.85,0.17
			c0.51,0.79,0.06,1.99-1,2.68c-0.51,0.33-1.06,0.48-1.55,0.47L116.39,134.25z"/>
		<path class="st8" d="M119.26,134.34l-4.06,0.45c-0.55,0.18-1.26,0.21-1.99,0.06c-1.54-0.31-2.64-1.31-2.46-2.23
			c0.19-0.92,1.59-1.41,3.13-1.1c0.73,0.15,1.36,0.45,1.81,0.83L119.26,134.34z"/>
		<path class="st9" d="M116.79,135.24l-1.44-2.53c-0.27-0.32-0.49-0.77-0.6-1.29c-0.23-1.1,0.11-2.11,0.77-2.25
			c0.66-0.14,1.38,0.64,1.61,1.75c0.11,0.52,0.09,1.02-0.03,1.42L116.79,135.24z"/>
		<path class="st9" d="M115.66,133.39l2.83,0.72c0.42,0.02,0.89,0.18,1.35,0.46c0.96,0.6,1.44,1.54,1.08,2.11
			c-0.36,0.57-1.42,0.54-2.37-0.05c-0.45-0.28-0.8-0.65-1-1.01L115.66,133.39z"/>
		<path class="st9" d="M116.2,132.76l1.2,2.66c0.24,0.34,0.42,0.81,0.48,1.34c0.13,1.12-0.31,2.09-0.98,2.16
			c-0.67,0.08-1.31-0.77-1.44-1.89c-0.06-0.53,0.01-1.03,0.17-1.41L116.2,132.76z"/>
		<path class="st9" d="M116.1,134.3l1.39-1.96c0.14-0.33,0.4-0.65,0.76-0.88c0.76-0.49,1.67-0.44,2.04,0.12
			c0.36,0.56,0.05,1.42-0.71,1.91c-0.36,0.23-0.75,0.35-1.11,0.34L116.1,134.3z"/>
		<path class="st9" d="M118.16,134.37l-2.9,0.32c-0.4,0.12-0.9,0.15-1.43,0.04c-1.1-0.22-1.89-0.94-1.76-1.59
			c0.13-0.66,1.14-1.01,2.24-0.79c0.52,0.11,0.98,0.32,1.29,0.59L118.16,134.37z"/>
		<path class="st10" d="M116.88,132.34c0.04,0.38,0,1.7-0.23,1.72c-0.23,0.03-0.55-1.24-0.59-1.63c-0.04-0.38,0.11-0.72,0.34-0.74
			S116.84,131.96,116.88,132.34"/>
		<path class="st10" d="M118.38,133.39c-0.33,0.21-1.53,0.76-1.65,0.57c-0.12-0.19,0.88-1.05,1.21-1.26
			c0.33-0.21,0.69-0.23,0.81-0.03C118.87,132.85,118.71,133.18,118.38,133.39"/>
		<path class="st10" d="M118.04,134.94c-0.37-0.12-1.55-0.68-1.48-0.9c0.07-0.22,1.37,0,1.74,0.12c0.37,0.12,0.61,0.39,0.54,0.6
			C118.76,134.97,118.41,135.06,118.04,134.94"/>
		<path class="st10" d="M115.2,133.41c0.38,0.06,1.64,0.45,1.6,0.68c-0.04,0.22-1.36,0.2-1.74,0.14c-0.38-0.06-0.66-0.29-0.62-0.52
			S114.82,133.35,115.2,133.41"/>
		<path class="st10" d="M116.01,135.57c0.07-0.38,0.49-1.63,0.72-1.59c0.22,0.04,0.17,1.35,0.1,1.73c-0.07,0.38-0.31,0.66-0.53,0.62
			C116.06,136.29,115.93,135.95,116.01,135.57"/>
		<path class="st11" d="M139.39,146.31l5.23,0.48c0.76-0.09,1.65,0.05,2.51,0.46c1.8,0.86,2.77,2.57,2.18,3.81
			c-0.6,1.24-2.54,1.55-4.34,0.69c-0.85-0.41-1.52-1.01-1.92-1.66L139.39,146.31z"/>
		<path class="st11" d="M139.42,146.56l3.58-3.42c0.4-0.61,1.06-1.15,1.88-1.48c1.73-0.7,3.55-0.23,4.06,1.05
			c0.52,1.28-0.46,2.88-2.19,3.58c-0.82,0.33-1.66,0.4-2.37,0.24L139.42,146.56z"/>
		<path class="st11" d="M139.27,146.35l-4.65,1.24c-0.72,0.02-1.49,0.3-2.18,0.82c-1.44,1.09-1.93,2.87-1.1,3.96
			c0.83,1.1,2.68,1.1,4.11,0.01c0.68-0.52,1.15-1.19,1.37-1.87L139.27,146.35z"/>
		<path class="st11" d="M139.43,146.66l-4.02-2.87c-0.49-0.55-1.21-0.98-2.07-1.2c-1.81-0.45-3.54,0.28-3.87,1.61
			c-0.33,1.34,0.87,2.79,2.68,3.23c0.86,0.21,1.7,0.16,2.38-0.09L139.43,146.66z"/>
		<path class="st11" d="M139.32,146.36l1.4,4.85c0.09,0.7,0.37,1.52,0.83,2.34c0.96,1.72,2.31,2.74,3.04,2.28
			c0.72-0.46,0.53-2.23-0.42-3.95c-0.45-0.81-1-1.47-1.52-1.89L139.32,146.36z"/>
		<path class="st11" d="M139.53,146.3l-1.7,2.98c-0.35,0.3-0.6,0.86-0.66,1.62c-0.14,1.6,0.57,3.49,1.59,4.22
			c1.02,0.73,1.96,0.03,2.1-1.58c0.07-0.76-0.06-1.58-0.32-2.32L139.53,146.3z"/>
		<path class="st11" d="M139.73,147.01l-1.11-5.18c-0.04-0.76-0.27-1.64-0.71-2.47c-0.92-1.76-2.35-2.66-3.22-2.02
			c-0.86,0.64-0.82,2.58,0.09,4.33c0.43,0.83,0.99,1.47,1.54,1.85L139.73,147.01z"/>
		<path class="st11" d="M139.49,147.11l2.21-3.61c0.43-0.39,0.76-1.06,0.91-1.92c0.31-1.81-0.31-3.79-1.39-4.43
			c-1.08-0.64-2.22,0.3-2.53,2.11c-0.15,0.86-0.09,1.75,0.14,2.53L139.49,147.11z"/>
		<path class="st12" d="M105.29,141.59l3.35-2.67c0.39-0.49,1-0.9,1.74-1.14c1.55-0.51,3.08-0.06,3.44,1.01
			c0.35,1.07-0.62,2.35-2.16,2.86c-0.73,0.24-1.46,0.27-2.07,0.11L105.29,141.59z"/>
		<path class="st12" d="M105.45,141.72l0.17-4.03c-0.11-0.59-0.03-1.27,0.27-1.93c0.62-1.39,1.96-2.14,2.98-1.68
			c1.03,0.46,1.36,1.96,0.73,3.34c-0.3,0.66-0.75,1.17-1.26,1.48L105.45,141.72z"/>
		<path class="st12" d="M105.24,141.67l-2.04,3.36c-0.41,0.42-0.71,1.02-0.82,1.71c-0.23,1.46,0.48,2.78,1.6,2.95
			c1.11,0.18,2.2-0.86,2.43-2.32c0.11-0.69,0.01-1.35-0.25-1.87L105.24,141.67z"/>
		<path class="st12" d="M105.51,141.76l-4,0.58c-0.59-0.05-1.27,0.1-1.89,0.47c-1.32,0.76-1.93,2.16-1.37,3.14
			c0.56,0.97,2.08,1.15,3.4,0.39c0.62-0.36,1.09-0.87,1.35-1.4L105.51,141.76z"/>
		<path class="st12" d="M105.28,141.65l3.57,2.07c0.45,0.36,1.08,0.69,1.81,0.91c1.54,0.47,2.91,0.3,3.07-0.38
			c0.16-0.68-0.95-1.61-2.48-2.09c-0.73-0.22-1.42-0.3-1.96-0.25L105.28,141.65z"/>
		<path class="st12" d="M105.37,141.5l0.69,2.71c-0.04,0.37,0.13,0.84,0.52,1.33c0.82,1.02,2.31,1.73,3.32,1.58
			c1.01-0.15,1.17-1.09,0.35-2.12c-0.39-0.48-0.93-0.9-1.5-1.18L105.37,141.5z"/>
		<path class="st12" d="M105.89,141.8l-3.58-2.42c-0.45-0.43-1.09-0.81-1.82-1.05c-1.53-0.52-2.89-0.24-3.04,0.63
			c-0.15,0.86,0.97,1.98,2.5,2.5c0.73,0.24,1.41,0.31,1.95,0.22L105.89,141.8z"/>
		<path class="st12" d="M105.8,142l-0.74-3.38c0.03-0.47-0.15-1.05-0.55-1.65c-0.84-1.24-2.33-2.06-3.33-1.82
			c-1,0.24-1.13,1.43-0.3,2.68c0.4,0.59,0.94,1.08,1.51,1.41L105.8,142z"/>
		<path class="st13" d="M103.84,147.94l-1.19,2.37c-0.1,0.38-0.33,0.77-0.68,1.09c-0.74,0.69-1.72,0.83-2.19,0.32
			c-0.47-0.51-0.26-1.48,0.47-2.16c0.35-0.33,0.75-0.53,1.13-0.6L103.84,147.94z"/>
		<path class="st13" d="M103.72,147.91l0.95,2.31c0.21,0.3,0.34,0.71,0.35,1.15c0.01,0.94-0.54,1.71-1.24,1.71
			c-0.69,0.01-1.27-0.75-1.28-1.69c-0.01-0.45,0.12-0.85,0.32-1.16L103.72,147.91z"/>
		<path class="st13" d="M103.84,147.88l0.27-2.41c0.12-0.34,0.13-0.76,0.02-1.17c-0.25-0.88-0.99-1.43-1.66-1.24
			c-0.67,0.19-1.01,1.05-0.76,1.93c0.12,0.42,0.35,0.76,0.63,0.98L103.84,147.88z"/>
		<path class="st13" d="M103.67,147.9l2.09-1.36c0.35-0.13,0.68-0.39,0.94-0.75c0.54-0.77,0.52-1.71-0.05-2.11s-1.47-0.1-2.01,0.66
			c-0.26,0.37-0.39,0.77-0.39,1.14L103.67,147.9z"/>
		<path class="st13" d="M103.83,147.9l-2.54-0.23c-0.34-0.08-0.78-0.1-1.25-0.04c-0.98,0.13-1.71,0.58-1.63,1.01
			c0.09,0.42,0.95,0.66,1.93,0.53c0.47-0.06,0.87-0.2,1.17-0.37L103.83,147.9z"/>
		<path class="st13" d="M103.82,148.01l-1.09-1.34c-0.07-0.22-0.29-0.44-0.64-0.61c-0.73-0.36-1.74-0.37-2.27-0.03
			c-0.53,0.35-0.37,0.92,0.35,1.28c0.34,0.17,0.75,0.26,1.15,0.28L103.82,148.01z"/>
		<path class="st13" d="M103.45,147.98l2.63,0.43c0.36,0.12,0.82,0.17,1.29,0.12c0.99-0.11,1.68-0.62,1.54-1.14
			s-1.06-0.86-2.05-0.75c-0.47,0.05-0.87,0.19-1.15,0.38L103.45,147.98z"/>
		<path class="st13" d="M103.45,147.84l1.29,1.7c0.11,0.27,0.36,0.55,0.73,0.78c0.79,0.48,1.84,0.55,2.34,0.16
			c0.5-0.39,0.27-1.1-0.53-1.58c-0.38-0.23-0.81-0.36-1.21-0.4L103.45,147.84z"/>
		<path class="st14" d="M112.61,148.17l0.59,2.58c0.16,0.35,0.23,0.8,0.17,1.27c-0.13,1-0.79,1.73-1.48,1.64
			c-0.69-0.09-1.14-0.97-1.01-1.97c0.06-0.47,0.24-0.89,0.49-1.18L112.61,148.17z"/>
		<path class="st14" d="M112.49,148.23l2.2,1.17c0.36,0.1,0.72,0.33,1,0.67c0.61,0.72,0.67,1.66,0.14,2.11
			c-0.53,0.45-1.45,0.23-2.06-0.48c-0.29-0.34-0.45-0.73-0.49-1.1L112.49,148.23z"/>
		<path class="st14" d="M112.57,148.12l-1.33-2.03c-0.12-0.34-0.38-0.67-0.74-0.91c-0.75-0.52-1.68-0.47-2.07,0.1
			c-0.39,0.57-0.11,1.46,0.64,1.97c0.36,0.24,0.75,0.36,1.11,0.36L112.57,148.12z"/>
		<path class="st14" d="M112.45,148.25l0.74-2.38c0.18-0.32,0.28-0.74,0.25-1.18c-0.07-0.94-0.69-1.65-1.38-1.6s-1.2,0.85-1.13,1.79
			c0.03,0.44,0.19,0.84,0.42,1.13L112.45,148.25z"/>
		<path class="st14" d="M112.57,148.15l-2.1,1.44c-0.32,0.15-0.67,0.42-0.99,0.77c-0.67,0.73-0.95,1.54-0.61,1.81
			c0.34,0.27,1.15-0.1,1.83-0.83c0.32-0.35,0.55-0.71,0.67-1.03L112.57,148.15z"/>
		<path class="st14" d="M112.63,148.24l-1.7-0.34c-0.2-0.12-0.51-0.15-0.88-0.06c-0.79,0.19-1.58,0.83-1.77,1.43
			c-0.19,0.61,0.3,0.94,1.09,0.76c0.37-0.09,0.75-0.28,1.06-0.52L112.63,148.24z"/>
		<path class="st14" d="M112.33,148.45l2.3-1.35c0.36-0.14,0.74-0.39,1.07-0.73c0.7-0.72,0.9-1.55,0.46-1.86
			c-0.44-0.31-1.36,0.01-2.06,0.73c-0.33,0.34-0.55,0.7-0.64,1.03L112.33,148.45z"/>
		<path class="st14" d="M112.24,148.35l2.08,0.49c0.26,0.14,0.63,0.2,1.06,0.13c0.92-0.14,1.77-0.75,1.9-1.37
			c0.14-0.62-0.49-1.02-1.41-0.88c-0.43,0.06-0.85,0.24-1.19,0.46L112.24,148.35z"/>
		<path class="st15" d="M127.42,151.03l4.07-1.63c0.53-0.36,1.25-0.59,2.04-0.61c1.67-0.04,3.04,0.85,3.07,2
			c0.03,1.15-1.29,2.12-2.96,2.16c-0.79,0.02-1.51-0.17-2.06-0.5L127.42,151.03z"/>
		<path class="st15" d="M127.53,151.2l1.36-3.9c0.07-0.61,0.35-1.25,0.83-1.82c1.02-1.18,2.55-1.52,3.42-0.77
			c0.87,0.75,0.75,2.32-0.26,3.5c-0.48,0.56-1.08,0.93-1.67,1.08L127.53,151.2z"/>
		<path class="st15" d="M127.35,151.1l-2.99,2.7c-0.52,0.29-1,0.79-1.31,1.44c-0.65,1.36-0.34,2.87,0.7,3.36
			c1.04,0.5,2.41-0.2,3.06-1.56c0.31-0.65,0.4-1.32,0.3-1.91L127.35,151.1z"/>
		<path class="st15" d="M127.58,151.27l-4.09-0.6c-0.57-0.22-1.27-0.27-2-0.1c-1.52,0.36-2.53,1.56-2.26,2.68
			c0.27,1.12,1.71,1.74,3.22,1.38c0.72-0.17,1.32-0.53,1.73-0.98L127.58,151.27z"/>
		<path class="st15" d="M127.39,151.09l2.89,3.08c0.33,0.48,0.86,0.99,1.51,1.43c1.37,0.91,2.77,1.15,3.13,0.53
			c0.36-0.62-0.45-1.86-1.82-2.78c-0.65-0.43-1.3-0.71-1.85-0.82L127.39,151.09z"/>
		<path class="st15" d="M127.52,150.97l-0.12,2.86c-0.15,0.36-0.12,0.87,0.12,1.46c0.51,1.24,1.76,2.38,2.79,2.53
			c1.04,0.15,1.47-0.73,0.96-1.97c-0.24-0.59-0.65-1.15-1.12-1.6L127.52,150.97z"/>
		<path class="st15" d="M127.94,151.41l-2.8-3.42c-0.32-0.55-0.83-1.11-1.47-1.57c-1.35-0.96-2.77-1.08-3.16-0.28
			c-0.4,0.8,0.37,2.23,1.72,3.18c0.64,0.45,1.29,0.72,1.85,0.79L127.94,151.41z"/>
		<path class="st15" d="M127.8,151.58l0.27-3.53c0.17-0.45,0.16-1.08-0.05-1.77c-0.46-1.47-1.68-2.7-2.73-2.76
			c-1.05-0.06-1.54,1.07-1.08,2.54c0.22,0.69,0.61,1.34,1.07,1.83L127.8,151.58z"/>
		<path class="st12" d="M138.14,156.64l2.34,1.85c0.39,0.19,0.77,0.54,1.05,1c0.59,0.97,0.53,2.08-0.14,2.49
			c-0.67,0.41-1.69-0.05-2.28-1.01c-0.28-0.46-0.41-0.95-0.4-1.38L138.14,156.64z"/>
		<path class="st12" d="M138.07,156.76l2.76-0.52c0.38-0.17,0.86-0.22,1.35-0.12c1.04,0.2,1.76,0.99,1.61,1.76
			c-0.15,0.77-1.11,1.23-2.15,1.03c-0.49-0.1-0.91-0.32-1.21-0.62L138.07,156.76z"/>
		<path class="st12" d="M138.07,156.62l-2.6-0.85c-0.35-0.21-0.8-0.32-1.29-0.28c-1.02,0.08-1.81,0.77-1.75,1.55
			c0.06,0.78,0.93,1.35,1.96,1.28c0.49-0.04,0.92-0.21,1.23-0.47L138.07,156.62z"/>
		<path class="st12" d="M138.05,156.81l-1.03-2.62c-0.06-0.41-0.27-0.84-0.62-1.21c-0.72-0.77-1.77-0.96-2.35-0.43
			c-0.57,0.54-0.45,1.6,0.28,2.37c0.34,0.37,0.76,0.6,1.16,0.69L138.05,156.81z"/>
		<path class="st12" d="M138.09,156.64l-0.83,2.75c-0.17,0.36-0.29,0.84-0.33,1.37c-0.08,1.12,0.26,2.02,0.74,2.02
			c0.49,0,0.95-0.9,1.02-2.02c0.04-0.53-0.02-1.01-0.14-1.37L138.09,156.64z"/>
		<path class="st12" d="M138.21,156.68l-1.73,0.9c-0.26,0.03-0.55,0.22-0.82,0.57c-0.56,0.72-0.81,1.84-0.54,2.51
			c0.26,0.66,0.93,0.62,1.49-0.1c0.27-0.34,0.46-0.77,0.56-1.2L138.21,156.68z"/>
		<path class="st12" d="M138.08,157.08l1.07-2.81c0.22-0.37,0.38-0.86,0.42-1.4c0.11-1.12-0.3-2-0.91-1.96
			c-0.61,0.04-1.19,0.97-1.3,2.09c-0.05,0.53,0.01,1.01,0.16,1.36L138.08,157.08z"/>
		<path class="st12" d="M137.94,157.05l2.17-1.04c0.32-0.06,0.69-0.27,1.03-0.63c0.71-0.77,1.03-1.9,0.71-2.55
			c-0.32-0.64-1.15-0.54-1.86,0.22c-0.34,0.36-0.58,0.81-0.72,1.25L137.94,157.05z"/>
		<path class="st16" d="M155.59,146.58l-1.36-2.38c-0.26-0.3-0.46-0.72-0.57-1.21c-0.22-1.04,0.1-1.98,0.72-2.11
			c0.62-0.13,1.29,0.6,1.51,1.64c0.1,0.49,0.08,0.96-0.03,1.34L155.59,146.58z"/>
		<path class="st16" d="M153.95,143.95l2.66,0.68c0.39,0.02,0.84,0.17,1.27,0.44c0.9,0.56,1.35,1.45,1.02,1.98
			c-0.34,0.54-1.33,0.51-2.23-0.05c-0.42-0.27-0.75-0.61-0.94-0.95L153.95,143.95z"/>
		<path class="st16" d="M156.1,143.23l0.07,2.74c0.09,0.38,0.07,0.86-0.07,1.34c-0.3,1.02-1.03,1.7-1.63,1.52
			c-0.6-0.18-0.86-1.14-0.56-2.16c0.14-0.48,0.38-0.89,0.66-1.16L156.1,143.23z"/>
		<path class="st16" d="M154.66,145.26l1.31-1.85c0.13-0.31,0.37-0.61,0.71-0.83c0.72-0.47,1.57-0.41,1.92,0.11
			c0.34,0.53,0.04,1.34-0.67,1.8c-0.34,0.22-0.71,0.32-1.04,0.32L154.66,145.26z"/>
		<path class="st16" d="M157.07,143.96l-2.39,1.36c-0.3,0.26-0.72,0.46-1.22,0.57c-1.04,0.22-1.98-0.11-2.11-0.72
			s0.6-1.29,1.64-1.51c0.49-0.1,0.96-0.08,1.34,0.03L157.07,143.96z"/>
		<path class="st17" d="M155.56,145.07l-0.36-0.63c-0.07-0.08-0.12-0.19-0.15-0.32c-0.06-0.27,0.03-0.52,0.19-0.56
			s0.34,0.16,0.4,0.43c0.03,0.13,0.02,0.25-0.01,0.35L155.56,145.07z"/>
		<path class="st17" d="M155.28,144.61l0.7,0.18c0.1,0.01,0.22,0.04,0.34,0.12c0.24,0.15,0.36,0.38,0.27,0.53
			c-0.09,0.14-0.35,0.13-0.59-0.01c-0.11-0.07-0.2-0.16-0.25-0.25L155.28,144.61z"/>
		<path class="st17" d="M155.41,144.45l0.3,0.66c0.06,0.08,0.1,0.2,0.12,0.33c0.03,0.28-0.08,0.52-0.24,0.54
			c-0.17,0.02-0.32-0.19-0.36-0.47c-0.01-0.13,0-0.25,0.04-0.35L155.41,144.45z"/>
		<path class="st17" d="M155.39,144.83l0.35-0.49c0.03-0.08,0.1-0.16,0.19-0.22c0.19-0.12,0.42-0.11,0.51,0.03
			c0.09,0.14,0.01,0.35-0.18,0.48c-0.09,0.06-0.19,0.09-0.28,0.08L155.39,144.83z"/>
		<path class="st17" d="M155.9,144.85l-0.72,0.08c-0.1,0.03-0.22,0.04-0.35,0.01c-0.27-0.06-0.47-0.23-0.44-0.4
			c0.03-0.16,0.28-0.25,0.56-0.2c0.13,0.03,0.24,0.08,0.32,0.15L155.9,144.85z"/>
		<path class="st16" d="M132.69,159.22l-2.73,0.25c-0.38,0.11-0.85,0.12-1.34,0.01c-1.03-0.23-1.76-0.92-1.62-1.53
			c0.14-0.62,1.09-0.93,2.12-0.7c0.49,0.11,0.91,0.32,1.2,0.58L132.69,159.22z"/>
		<path class="st16" d="M129.62,159.62l1.72-2.14c0.18-0.35,0.5-0.69,0.92-0.97c0.88-0.58,1.88-0.63,2.23-0.1
			c0.35,0.53-0.09,1.43-0.97,2.01c-0.42,0.28-0.86,0.43-1.25,0.46L129.62,159.62z"/>
		<path class="st16" d="M129.85,157.36l2.52,1.07c0.38,0.08,0.81,0.29,1.19,0.62c0.8,0.69,1.12,1.64,0.71,2.12
			c-0.41,0.48-1.4,0.31-2.2-0.39c-0.38-0.33-0.65-0.71-0.79-1.08L129.85,157.36z"/>
		<path class="st16" d="M131.09,159.52l-1.14-1.96c-0.23-0.24-0.4-0.59-0.46-1c-0.13-0.84,0.28-1.6,0.9-1.7
			c0.62-0.09,1.23,0.51,1.36,1.36c0.06,0.4,0,0.78-0.14,1.08L131.09,159.52z"/>
		<path class="st16" d="M130.92,156.79l0.24,2.73c0.11,0.38,0.12,0.85,0.01,1.34c-0.23,1.03-0.92,1.76-1.53,1.62
			c-0.62-0.14-0.93-1.09-0.7-2.12c0.11-0.49,0.32-0.91,0.58-1.2L130.92,156.79z"/>
		<path class="st17" d="M131.3,158.62l-0.72,0.07c-0.1,0.03-0.22,0.03-0.35,0c-0.27-0.06-0.46-0.24-0.43-0.41
			c0.04-0.16,0.29-0.25,0.56-0.18c0.13,0.03,0.24,0.09,0.32,0.15L131.3,158.62z"/>
		<path class="st17" d="M130.76,158.68l0.45-0.56c0.05-0.09,0.13-0.18,0.24-0.26c0.23-0.15,0.5-0.17,0.59-0.03
			c0.09,0.14-0.02,0.38-0.26,0.53c-0.11,0.07-0.23,0.11-0.33,0.12L130.76,158.68z"/>
		<path class="st17" d="M130.67,158.5l0.72,0c0.1-0.02,0.23-0.01,0.35,0.03c0.27,0.09,0.44,0.28,0.39,0.44
			c-0.05,0.16-0.31,0.22-0.57,0.13c-0.13-0.04-0.23-0.11-0.3-0.18L130.67,158.5z"/>
		<path class="st17" d="M131.01,158.68l-0.3-0.52c-0.06-0.06-0.11-0.16-0.12-0.26c-0.03-0.22,0.07-0.42,0.24-0.45
			c0.16-0.02,0.33,0.14,0.36,0.36c0.01,0.11,0,0.21-0.04,0.29L131.01,158.68z"/>
		<path class="st17" d="M131.24,158.22l-0.23,0.69c-0.01,0.1-0.06,0.22-0.14,0.33c-0.16,0.23-0.41,0.33-0.54,0.23
			c-0.14-0.1-0.11-0.36,0.05-0.59c0.08-0.11,0.17-0.19,0.27-0.23L131.24,158.22z"/>
		<path class="st16" d="M97.8,144.4l-1.36-2.38c-0.26-0.3-0.46-0.72-0.57-1.22c-0.22-1.04,0.1-1.98,0.72-2.11
			c0.62-0.13,1.29,0.6,1.51,1.64c0.1,0.49,0.08,0.96-0.03,1.34L97.8,144.4z"/>
		<path class="st16" d="M96.16,141.77l2.66,0.68c0.39,0.02,0.84,0.17,1.27,0.44c0.9,0.56,1.35,1.45,1.02,1.98
			c-0.34,0.54-1.33,0.51-2.23-0.05c-0.42-0.27-0.75-0.61-0.94-0.95L96.16,141.77z"/>
		<path class="st16" d="M98.31,141.05l0.07,2.74c0.09,0.38,0.07,0.86-0.07,1.34c-0.3,1.02-1.03,1.7-1.63,1.52
			c-0.6-0.18-0.86-1.14-0.56-2.16c0.14-0.48,0.38-0.89,0.66-1.16L98.31,141.05z"/>
		<path class="st16" d="M96.87,143.07l1.31-1.85c0.13-0.31,0.37-0.61,0.71-0.83c0.72-0.47,1.57-0.41,1.92,0.11
			c0.34,0.53,0.04,1.34-0.67,1.8c-0.34,0.22-0.71,0.32-1.04,0.32L96.87,143.07z"/>
		<path class="st16" d="M99.28,141.78l-2.39,1.36c-0.3,0.26-0.72,0.46-1.22,0.57c-1.04,0.22-1.98-0.11-2.11-0.72
			c-0.13-0.62,0.6-1.29,1.64-1.51c0.49-0.1,0.96-0.08,1.34,0.03L99.28,141.78z"/>
		<path class="st17" d="M97.77,142.89l-0.36-0.63c-0.07-0.08-0.12-0.19-0.15-0.32c-0.06-0.27,0.03-0.52,0.19-0.56
			s0.34,0.16,0.4,0.43c0.03,0.13,0.02,0.25-0.01,0.35L97.77,142.89z"/>
		<path class="st17" d="M97.49,142.43l0.7,0.18c0.1,0.01,0.22,0.04,0.34,0.12c0.24,0.15,0.36,0.38,0.27,0.53
			c-0.09,0.14-0.35,0.13-0.59-0.01c-0.11-0.07-0.2-0.16-0.25-0.25L97.49,142.43z"/>
		<path class="st17" d="M97.62,142.27l0.3,0.66c0.06,0.08,0.1,0.2,0.12,0.33c0.03,0.28-0.08,0.52-0.24,0.54
			c-0.17,0.02-0.32-0.19-0.36-0.47c-0.01-0.13,0-0.25,0.04-0.35L97.62,142.27z"/>
		<path class="st17" d="M97.6,142.65l0.35-0.49c0.03-0.08,0.1-0.16,0.19-0.22c0.19-0.12,0.42-0.11,0.51,0.03
			c0.09,0.14,0.01,0.35-0.18,0.48c-0.09,0.06-0.19,0.09-0.28,0.08L97.6,142.65z"/>
		<path class="st17" d="M98.11,142.67l-0.72,0.08c-0.1,0.03-0.22,0.04-0.35,0.01c-0.27-0.06-0.47-0.23-0.44-0.4
			c0.03-0.16,0.28-0.25,0.56-0.2c0.13,0.03,0.24,0.08,0.32,0.15L98.11,142.67z"/>
		<path class="st16" d="M123.38,146.41l-1.36-2.38c-0.26-0.3-0.46-0.72-0.57-1.21c-0.22-1.04,0.1-1.98,0.72-2.11
			c0.62-0.13,1.29,0.6,1.51,1.64c0.1,0.49,0.08,0.96-0.03,1.34L123.38,146.41z"/>
		<path class="st16" d="M121.74,143.78l2.66,0.68c0.39,0.02,0.84,0.17,1.27,0.44c0.9,0.56,1.35,1.45,1.02,1.99
			c-0.34,0.53-1.34,0.51-2.23-0.05c-0.42-0.27-0.75-0.61-0.94-0.95L121.74,143.78z"/>
		<path class="st16" d="M123.89,143.06l0.07,2.74c0.09,0.38,0.07,0.86-0.07,1.34c-0.3,1.02-1.03,1.7-1.63,1.52
			c-0.6-0.18-0.86-1.14-0.56-2.16c0.14-0.48,0.38-0.89,0.66-1.16L123.89,143.06z"/>
		<path class="st16" d="M122.45,145.08l1.31-1.85c0.13-0.31,0.37-0.61,0.71-0.83c0.72-0.47,1.57-0.41,1.92,0.11s0.04,1.34-0.67,1.8
			c-0.34,0.22-0.71,0.32-1.04,0.32L122.45,145.08z"/>
		<path class="st16" d="M124.86,143.79l-2.39,1.36c-0.3,0.26-0.72,0.46-1.22,0.57c-1.04,0.22-1.98-0.11-2.11-0.72
			c-0.13-0.62,0.6-1.29,1.64-1.51c0.49-0.1,0.96-0.08,1.34,0.03L124.86,143.79z"/>
		<path class="st17" d="M123.35,144.9l-0.36-0.63c-0.07-0.08-0.12-0.19-0.15-0.32c-0.06-0.27,0.03-0.52,0.19-0.56
			c0.16-0.03,0.34,0.16,0.4,0.43c0.03,0.13,0.02,0.25-0.01,0.35L123.35,144.9z"/>
		<path class="st17" d="M123.07,144.44l0.7,0.18c0.1,0.01,0.22,0.04,0.34,0.12c0.24,0.15,0.36,0.38,0.27,0.53
			c-0.09,0.14-0.35,0.14-0.59-0.01c-0.11-0.07-0.2-0.16-0.25-0.25L123.07,144.44z"/>
		<path class="st17" d="M123.2,144.28l0.3,0.66c0.06,0.08,0.1,0.2,0.12,0.33c0.03,0.28-0.08,0.52-0.24,0.54
			c-0.17,0.02-0.32-0.19-0.36-0.47c-0.01-0.13,0-0.25,0.04-0.35L123.2,144.28z"/>
		<path class="st17" d="M123.18,144.66l0.35-0.49c0.03-0.08,0.1-0.16,0.19-0.22c0.19-0.12,0.42-0.11,0.51,0.03
			c0.09,0.14,0.01,0.35-0.18,0.48c-0.09,0.06-0.19,0.09-0.28,0.08L123.18,144.66z"/>
		<path class="st17" d="M123.69,144.68l-0.72,0.08c-0.1,0.03-0.22,0.04-0.35,0.01c-0.27-0.06-0.47-0.23-0.44-0.4
			c0.03-0.16,0.28-0.25,0.56-0.2c0.13,0.03,0.24,0.08,0.32,0.15L123.69,144.68z"/>
	</g>
</g>
<g id="Text">
</g>
<g id="Safe_Area" class="st0">
	<circle class="st18" cx="126" cy="126" r="54"/>
</g>
</svg>
