<?xml version="1.0" encoding="utf-8"?>
<!-- Generator: Adobe Illustrator 23.0.2, SVG Export Plug-In . SVG Version: 6.00 Build 0)  -->
<svg version="1.1" xmlns="http://www.w3.org/2000/svg" xmlns:xlink="http://www.w3.org/1999/xlink" x="0px" y="0px"
	 viewBox="0 0 252 252" style="enable-background:new 0 0 252 252;" xml:space="preserve">
<style type="text/css">
	.st0{display:none;}
	.st1{display:inline;fill:#FFFFFF;stroke:#252723;stroke-miterlimit:10;}
	.st2{fill:#FFFFFF;}
	.st3{fill:#EFE2ED;}
	.st4{fill:#837979;}
	.st5{fill:#FDFDFC;}
	.st6{display:inline;fill:none;stroke:#252723;stroke-miterlimit:10;}
</style>
<g id="Bleed" class="st0">
	<circle class="st1" cx="126" cy="126" r="72"/>
</g>
<g id="Background">
</g>
<g id="Image">
	<circle class="st2" cx="126" cy="126" r="57.66"/>
	<circle class="st3" cx="126" cy="126" r="50.01"/>
	<circle class="st2" cx="126" cy="126" r="40.72"/>
	<circle class="st3" cx="126" cy="126" r="36"/>
	<g>
		<ellipse class="st4" cx="125.92" cy="98.09" rx="13.17" ry="1.85"/>
		<path class="st4" d="M125.86,125.82l-12.92-25.5l10.54,1.58c1.66,0.25,3.35,0.26,5.02,0.04l10.66-1.43L125.86,125.82z"/>
		<ellipse class="st4" cx="126.01" cy="153.91" rx="13.17" ry="1.85"/>
		<path class="st4" d="M125.96,126.18l-12.92,25.5l10.54-1.58c1.66-0.25,3.35-0.26,5.02-0.04l10.66,1.43L125.96,126.18z"/>
		<polygon class="st4" points="139.25,102.38 137.52,106 137.52,144.91 139.16,149.2 		"/>
		<polygon class="st4" points="113.03,102.59 114.77,106.22 114.77,145.12 113.13,149.41 		"/>
		<polygon class="st5" points="120.37,112.71 123.61,111.06 125.52,111.06 126.83,113.5 128.91,113.5 131.25,113.5 125.86,126.26 		
			"/>
		<polygon class="st5" points="120.37,148.21 125.81,147.38 128.78,148.21 131.25,148.21 132.9,148.21 128.45,145.9 125.81,145.24 
			122.02,146.72 		"/>
		<polygon class="st5" points="125.81,129.69 125.54,130.62 125.81,131.17 		"/>
		<polygon class="st5" points="126.01,132.6 125.68,134.3 126.64,134.74 		"/>
	</g>
</g>
<g id="Text">
	<g>
		<path class="st2" d="M113.07,84.7l-1.11,0.36l0.64,1.96c0.09,0.27-0.06,0.57-0.35,0.66c-0.27,0.09-0.57-0.06-0.66-0.34l-1.73-5.34
			c-0.09-0.28,0.06-0.57,0.34-0.66l0.01,0l1.61-0.52c1.08-0.35,2.23,0.24,2.58,1.31C114.74,83.2,114.15,84.35,113.07,84.7z
			 M111.64,84.06l1.11-0.36c0.52-0.17,0.8-0.72,0.64-1.23c-0.18-0.52-0.72-0.81-1.25-0.64l-1.11,0.36L111.64,84.06z"/>
		<path class="st2" d="M120.28,83.28l0.33,1.83c0.05,0.27-0.13,0.54-0.41,0.59c-0.24,0.04-0.46-0.1-0.56-0.32
			c-0.31,0.32-0.7,0.54-1.17,0.63c-0.64,0.12-1.24-0.05-1.71-0.39c-0.48-0.36-0.82-0.89-0.94-1.53c-0.12-0.65,0.01-1.27,0.34-1.76
			c0.32-0.5,0.83-0.88,1.46-0.99c0.47-0.08,0.92,0,1.32,0.19c0.01-0.25,0.17-0.46,0.41-0.5c0.27-0.05,0.54,0.13,0.59,0.42
			L120.28,83.28z M119.29,83.46c-0.07-0.39-0.27-0.71-0.54-0.9c-0.27-0.21-0.61-0.28-0.94-0.23c-0.34,0.06-0.63,0.25-0.8,0.54
			c-0.18,0.28-0.25,0.63-0.18,1.03c0.07,0.38,0.26,0.7,0.53,0.9c0.26,0.2,0.6,0.27,0.94,0.21c0.33-0.06,0.62-0.25,0.8-0.52
			C119.28,84.2,119.36,83.84,119.29,83.46z"/>
		<path class="st2" d="M124.24,81.11c0.02,0.28-0.21,0.54-0.5,0.56l-0.24,0.01l0.17,2.65c0.29-0.02,0.54,0.2,0.56,0.5
			c0.02,0.29-0.19,0.54-0.49,0.55c-0.58,0.04-1.08-0.41-1.12-0.99l-0.17-2.65l-0.27,0.02c-0.29,0.02-0.54-0.2-0.55-0.49
			c-0.02-0.29,0.19-0.54,0.49-0.55l0.28-0.02l-0.09-1.37c-0.02-0.29,0.2-0.54,0.5-0.56c0.29-0.02,0.54,0.19,0.55,0.49l0.09,1.38
			l0.24-0.02C123.96,80.6,124.22,80.81,124.24,81.11z"/>
		<path class="st2" d="M127.14,81.1l-0.05,3.71c0,0.29-0.23,0.51-0.52,0.51c-0.29,0-0.51-0.24-0.51-0.52l0.05-3.71
			c0-0.3,0.24-0.52,0.52-0.52C126.93,80.58,127.15,80.8,127.14,81.1z M127.17,79.38c0,0.29-0.23,0.52-0.52,0.52
			c-0.28,0-0.51-0.24-0.51-0.53l0-0.2c0-0.28,0.24-0.51,0.52-0.51c0.29,0,0.51,0.23,0.51,0.52L127.17,79.38z"/>
		<path class="st2" d="M128.51,82.95c0.16-1.28,1.28-2.25,2.57-2.1c1.23,0.14,2.1,1.17,2.03,2.45c0,0.01,0,0.03,0,0.05
			c0,0.02-0.01,0.07-0.02,0.08c-0.05,0.22-0.27,0.35-0.53,0.32l-3-0.34c0.02,0.22,0.1,0.48,0.25,0.66c0.17,0.25,0.53,0.46,0.86,0.53
			c0.34,0.07,0.75,0.03,1.01-0.12c0.22-0.18,0.61-0.11,0.71,0.05c0.11,0.15,0.17,0.44-0.07,0.61c-0.51,0.37-1.09,0.51-1.76,0.43
			C129.26,85.42,128.38,84.24,128.51,82.95z M129.6,82.61l2.67,0.3c-0.05-0.39-0.47-1-1.28-1.16
			C130.18,81.7,129.71,82.23,129.6,82.61z"/>
		<path class="st2" d="M138.63,84.38l-0.57,2.2c-0.07,0.27-0.34,0.44-0.6,0.37c-0.26-0.07-0.43-0.35-0.36-0.61l0.56-2.2
			c0.13-0.52-0.19-1.04-0.72-1.18c-0.52-0.13-1.03,0.18-1.16,0.7l-0.56,2.2c-0.01,0.03-0.01,0.06-0.04,0.09
			c-0.1,0.21-0.35,0.33-0.59,0.27c-0.28-0.07-0.43-0.35-0.36-0.61l0.56-2.2l0.37-1.43c0.07-0.27,0.34-0.43,0.61-0.36
			c0.19,0.05,0.34,0.21,0.38,0.4c0.32-0.1,0.69-0.13,1.05-0.04C138.26,82.25,138.9,83.34,138.63,84.38z"/>
		<path class="st2" d="M143.01,84.43c-0.1,0.27-0.42,0.4-0.68,0.3l-0.22-0.08l-0.94,2.48c0.28,0.11,0.4,0.41,0.3,0.68
			c-0.1,0.28-0.4,0.41-0.67,0.3c-0.54-0.21-0.82-0.82-0.61-1.36l0.94-2.48l-0.26-0.1c-0.27-0.1-0.4-0.41-0.3-0.67
			c0.1-0.28,0.4-0.41,0.67-0.3l0.26,0.1l0.49-1.29c0.1-0.27,0.41-0.4,0.68-0.3s0.41,0.4,0.3,0.67l-0.49,1.29l0.22,0.08
			C142.97,83.86,143.12,84.16,143.01,84.43z"/>
	</g>
	<g>
		<path d="M112.19,84.54l-1.11,0.37l0.65,1.96c0.09,0.27-0.06,0.57-0.34,0.66c-0.27,0.09-0.57-0.06-0.66-0.33l-1.76-5.33
			c-0.09-0.28,0.06-0.57,0.33-0.66l0.01,0l1.61-0.53c1.07-0.36,2.23,0.22,2.58,1.3C113.85,83.03,113.27,84.19,112.19,84.54z
			 M110.75,83.91l1.11-0.37c0.52-0.17,0.79-0.72,0.63-1.23c-0.18-0.52-0.73-0.8-1.25-0.63l-1.11,0.37L110.75,83.91z"/>
		<path d="M119.39,83.08l0.34,1.83c0.05,0.27-0.13,0.54-0.4,0.59c-0.24,0.05-0.46-0.1-0.56-0.31c-0.31,0.32-0.7,0.55-1.17,0.64
			c-0.64,0.12-1.24-0.04-1.72-0.38c-0.48-0.35-0.82-0.89-0.94-1.53c-0.12-0.65,0-1.27,0.33-1.76c0.32-0.5,0.82-0.88,1.46-1
			c0.47-0.09,0.92-0.01,1.32,0.18c0.01-0.24,0.17-0.46,0.41-0.5c0.27-0.05,0.54,0.13,0.59,0.41L119.39,83.08z M118.4,83.27
			c-0.07-0.39-0.28-0.7-0.54-0.89c-0.27-0.21-0.61-0.28-0.94-0.22c-0.34,0.06-0.63,0.25-0.8,0.55c-0.18,0.28-0.25,0.64-0.17,1.03
			c0.07,0.38,0.27,0.7,0.54,0.9c0.26,0.19,0.6,0.27,0.94,0.2c0.33-0.06,0.62-0.25,0.8-0.53C118.39,84.01,118.47,83.65,118.4,83.27z"
			/>
		<path d="M123.34,80.89c0.02,0.28-0.21,0.54-0.49,0.56l-0.24,0.02l0.18,2.65c0.29-0.02,0.54,0.2,0.56,0.49s-0.19,0.54-0.49,0.56
			c-0.58,0.04-1.08-0.4-1.12-0.98l-0.18-2.64l-0.27,0.02c-0.29,0.02-0.54-0.2-0.56-0.49c-0.02-0.29,0.19-0.54,0.49-0.56l0.27-0.02
			l-0.09-1.37c-0.02-0.29,0.2-0.54,0.5-0.56c0.29-0.02,0.54,0.19,0.56,0.48l0.09,1.38l0.24-0.02
			C123.06,80.39,123.32,80.6,123.34,80.89z"/>
		<path d="M126.24,80.87l-0.03,3.71c0,0.29-0.22,0.51-0.52,0.51c-0.29,0-0.51-0.23-0.51-0.52l0.03-3.71c0-0.3,0.23-0.52,0.52-0.52
			C126.03,80.35,126.25,80.57,126.24,80.87z M126.26,79.15c0,0.29-0.22,0.52-0.52,0.52c-0.29,0-0.51-0.24-0.51-0.53l0-0.2
			c0-0.29,0.23-0.51,0.52-0.51c0.29,0,0.51,0.23,0.51,0.52L126.26,79.15z"/>
		<path d="M127.62,82.71c0.15-1.28,1.27-2.25,2.56-2.11c1.23,0.13,2.1,1.16,2.04,2.44c0,0.01,0,0.03-0.01,0.05
			c0,0.02-0.01,0.07-0.02,0.08c-0.05,0.22-0.27,0.35-0.53,0.33l-3-0.33c0.02,0.22,0.1,0.48,0.25,0.66c0.17,0.25,0.53,0.46,0.86,0.52
			c0.34,0.07,0.75,0.02,1.01-0.13c0.22-0.19,0.61-0.12,0.71,0.05c0.11,0.15,0.17,0.44-0.07,0.61c-0.51,0.38-1.09,0.51-1.76,0.44
			C128.38,85.17,127.49,83.99,127.62,82.71z M128.7,82.36l2.67,0.29c-0.05-0.39-0.48-1-1.29-1.15
			C129.28,81.45,128.82,81.98,128.7,82.36z"/>
		<path d="M137.75,84.08l-0.55,2.21c-0.07,0.27-0.33,0.44-0.6,0.37c-0.26-0.06-0.43-0.34-0.37-0.61l0.55-2.21
			c0.13-0.52-0.2-1.04-0.73-1.17c-0.52-0.13-1.03,0.18-1.16,0.7l-0.55,2.21c-0.01,0.03-0.01,0.05-0.04,0.09
			c-0.1,0.21-0.35,0.33-0.59,0.27c-0.28-0.07-0.43-0.34-0.37-0.61l0.55-2.21l0.36-1.43c0.07-0.27,0.33-0.44,0.61-0.37
			c0.19,0.05,0.34,0.2,0.38,0.4c0.32-0.11,0.69-0.13,1.05-0.04C137.37,81.95,138.01,83.04,137.75,84.08z"/>
		<path d="M142.13,84.11c-0.1,0.27-0.42,0.4-0.68,0.3l-0.22-0.08l-0.93,2.48c0.28,0.1,0.41,0.41,0.3,0.68s-0.4,0.41-0.67,0.31
			c-0.54-0.2-0.82-0.82-0.62-1.36l0.93-2.48l-0.26-0.1c-0.28-0.1-0.41-0.41-0.31-0.67c0.1-0.28,0.4-0.41,0.67-0.31l0.26,0.1
			l0.48-1.29c0.1-0.28,0.41-0.41,0.68-0.3c0.28,0.1,0.41,0.4,0.31,0.67l-0.48,1.29l0.22,0.08
			C142.08,83.54,142.23,83.84,142.13,84.11z"/>
	</g>
</g>
<g id="Safe_Area" class="st0">
	<circle class="st6" cx="126" cy="126" r="54"/>
</g>
</svg>
