<?xml version="1.0" encoding="utf-8"?>
<!-- Generator: Adobe Illustrator 23.0.2, SVG Export Plug-In . SVG Version: 6.00 Build 0)  -->
<svg version="1.1" xmlns="http://www.w3.org/2000/svg" xmlns:xlink="http://www.w3.org/1999/xlink" x="0px" y="0px"
	 viewBox="0 0 252 252" style="enable-background:new 0 0 252 252;" xml:space="preserve">
<style type="text/css">
	.st0{display:none;}
	.st1{display:inline;fill:#FFFFFF;stroke:#252723;stroke-miterlimit:10;}
	.st2{fill:#FFFFFF;}
	.st3{fill:#DAEFF7;}
	.st4{fill:#8F6D4E;}
	.st5{fill:#D6DBE1;}
	.st6{fill:#252723;}
	.st7{display:inline;fill:none;stroke:#252723;stroke-miterlimit:10;}
</style>
<g id="Bleed" class="st0">
	<circle class="st1" cx="126" cy="126" r="72"/>
</g>
<g id="Background">
</g>
<g id="Image">
	<circle class="st2" cx="126" cy="126" r="57.66"/>
	<circle class="st3" cx="126" cy="126" r="50.01"/>
	<circle class="st2" cx="126" cy="126" r="40.72"/>
	<circle class="st3" cx="126" cy="126" r="36"/>
	<g>
		<path class="st4" d="M126.77,124.97c-2.5-5.01-4.9-9.91-7.13-14.55l5.38-2.69c2.23,4.64,4.63,9.53,7.13,14.55
			c3.31,6.63,6.55,12.95,9.59,18.75l0.02,0.03c1.3,2.48,2.57,4.87,3.8,7.16l-5.38,2.69C136.09,143.3,131.51,134.45,126.77,124.97z"
			/>
		
			<ellipse transform="matrix(0.9117 -0.4108 0.4108 0.9117 -38.1691 53.015)" class="st5" cx="104.26" cy="115.31" rx="1.45" ry="5"/>
		
			<ellipse transform="matrix(0.9117 -0.4108 0.4108 0.9117 -36.9676 54.5539)" class="st5" cx="108.45" cy="113.29" rx="1.45" ry="5"/>
		<polygon class="st5" points="110.7,117.75 106.13,119.96 102,110.86 106.57,108.64 		"/>
		<polygon class="st5" points="112.25,107.96 114.44,103.83 126.59,99.27 135.87,99.9 135.87,112.08 131.31,103.57 128.63,101.87 
			128.9,106.4 119.73,109.31 115.12,107.79 		"/>
		<polygon class="st5" points="115.64,112.69 107.91,116.44 105.53,111.19 113.27,107.44 		"/>
		
			<rect x="111.99" y="104.48" transform="matrix(0.9055 -0.4244 0.4244 0.9055 -34.2369 61.187)" class="st5" width="16.48" height="5.94"/>
		<polygon class="st5" points="124.24,116.3 113.65,113.55 128.9,106.4 		"/>
		<polygon class="st5" points="127.99,114.64 128.9,106.4 125.36,110.52 		"/>
		
			<rect x="121.33" y="110.7" transform="matrix(0.8838 -0.4678 0.4678 0.8838 -39.2743 71.8468)" class="st5" width="7.35" height="8.58"/>
	</g>
</g>
<g id="Text">
	<g>
		<path class="st2" d="M100.8,93.26l-3.17-4.63c-0.17-0.24-0.11-0.56,0.14-0.73c0.24-0.17,0.57-0.11,0.73,0.13l1.29,1.88l2.03-1.39
			l-1.29-1.88c-0.17-0.24-0.11-0.56,0.14-0.73s0.57-0.11,0.73,0.13l3.17,4.63c0.17,0.24,0.1,0.57-0.14,0.73
			c-0.24,0.17-0.56,0.11-0.73-0.14l-1.29-1.88l-2.03,1.39l1.29,1.88c0.17,0.24,0.1,0.57-0.14,0.73
			C101.29,93.56,100.97,93.5,100.8,93.26z"/>
		<path class="st2" d="M109.05,86.31l0.81,1.68c0.12,0.25,0.01,0.55-0.23,0.67c-0.22,0.11-0.47,0.03-0.62-0.15
			c-0.21,0.39-0.53,0.71-0.96,0.92c-0.58,0.28-1.2,0.29-1.76,0.08c-0.56-0.22-1.03-0.64-1.31-1.22c-0.29-0.59-0.33-1.22-0.15-1.79
			c0.18-0.57,0.56-1.06,1.14-1.35c0.43-0.21,0.88-0.25,1.32-0.17c-0.05-0.24,0.04-0.48,0.26-0.59c0.25-0.12,0.55-0.02,0.68,0.24
			L109.05,86.31z M108.14,86.75c-0.17-0.36-0.45-0.61-0.76-0.72c-0.32-0.13-0.67-0.11-0.97,0.04c-0.31,0.15-0.54,0.41-0.62,0.74
			c-0.1,0.31-0.07,0.68,0.1,1.04c0.17,0.35,0.44,0.6,0.75,0.72c0.3,0.12,0.65,0.1,0.96-0.05c0.3-0.14,0.53-0.41,0.63-0.72
			C108.33,87.47,108.31,87.1,108.14,86.75z"/>
		<path class="st2" d="M113.02,82.88c0.09,0.25-0.04,0.55-0.31,0.64c-0.21,0.07-0.37,0.19-0.48,0.36c-0.13,0.17-0.22,0.37-0.26,0.58
			c-0.12,0.36-0.11,0.74-0.11,0.88l0.59,1.71c0.09,0.26-0.06,0.55-0.33,0.65c-0.26,0.09-0.55-0.05-0.64-0.31l-1.22-3.54
			c-0.09-0.26,0.06-0.54,0.32-0.63c0.27-0.09,0.57,0.04,0.66,0.3l0.02,0.06c0.03-0.08,0.08-0.18,0.13-0.25
			c0.23-0.3,0.56-0.59,1.01-0.74C112.65,82.48,112.93,82.62,113.02,82.88z"/>
		<path class="st2" d="M119.27,85.24c0.06,0.27-0.11,0.55-0.39,0.61c-0.25,0.05-0.48-0.08-0.58-0.29c-0.3,0.32-0.71,0.57-1.18,0.67
			c-1.26,0.27-2.49-0.57-2.76-1.83c-0.28-1.27,0.5-2.55,1.75-2.82c0.46-0.1,0.93-0.05,1.33,0.12l-0.38-1.75
			c-0.06-0.27,0.11-0.55,0.4-0.61c0.28-0.06,0.55,0.12,0.61,0.39l0.8,3.68c0,0,0,0,0,0.01L119.27,85.24z M116.33,82.59
			c-0.33,0.07-0.61,0.28-0.79,0.57c-0.18,0.28-0.25,0.65-0.17,1.02c0.08,0.35,0.29,0.66,0.57,0.84c0.29,0.19,0.62,0.26,0.96,0.19
			c0.34-0.07,0.61-0.28,0.79-0.57c0.18-0.28,0.25-0.65,0.17-1c-0.08-0.37-0.29-0.68-0.58-0.86C117,82.59,116.67,82.52,116.33,82.59z
			"/>
		<path class="st2" d="M127,81.17l-1.41,3.75c-0.01,0.02-0.02,0.05-0.03,0.08c0,0.01-0.01,0.01-0.01,0.01
			c-0.01,0.02-0.03,0.04-0.05,0.06c-0.01,0.01-0.02,0.01-0.02,0.01c-0.02,0.02-0.04,0.04-0.05,0.05c0,0.01-0.01,0.01-0.01,0.02
			c-0.03,0.02-0.05,0.04-0.08,0.05c0,0-0.01,0-0.01,0.01c-0.02,0-0.05,0.01-0.08,0.02c-0.01,0-0.01,0-0.02,0
			c-0.03,0.01-0.06,0.01-0.09,0.01c-0.03,0-0.06,0-0.09-0.01c-0.01,0-0.01,0-0.02,0c-0.02-0.01-0.04-0.02-0.07-0.02
			c-0.01-0.01-0.01-0.01-0.01-0.01c-0.01,0-0.01,0-0.01,0c-0.03-0.01-0.06-0.03-0.09-0.05c0,0,0,0,0-0.01
			c-0.03-0.01-0.04-0.03-0.06-0.04c0,0-0.02,0-0.02-0.01c-0.02-0.02-0.04-0.04-0.05-0.05c0,0-0.01,0-0.01-0.01
			c-0.02-0.03-0.03-0.06-0.04-0.07l-0.77-1.61l-0.6,1.67c-0.01,0.02-0.03,0.05-0.04,0.08l0,0.01c-0.02,0.02-0.04,0.04-0.05,0.06
			c0,0.01-0.01,0.01-0.01,0.01c-0.02,0.02-0.04,0.04-0.05,0.06c-0.04,0.03-0.05,0.05-0.08,0.06l-0.02,0c0,0-0.01,0-0.01,0.01
			c-0.02,0-0.05,0.01-0.06,0.02c-0.02,0-0.02,0-0.02,0c-0.04,0.01-0.07,0.01-0.09,0.01c-0.04,0-0.07,0-0.1-0.01
			c-0.01,0-0.01,0-0.03,0c-0.02-0.01-0.04-0.02-0.06-0.02c-0.01-0.01-0.01-0.01-0.02-0.01c-0.03-0.01-0.07-0.03-0.09-0.05
			c-0.01,0-0.01,0-0.01-0.01c-0.01-0.01-0.03-0.03-0.06-0.04c0,0,0,0-0.02-0.01c-0.01-0.02-0.03-0.04-0.04-0.06
			c-0.01,0-0.01,0-0.01-0.01c-0.02-0.03-0.03-0.06-0.05-0.08l-1.72-3.61c-0.12-0.25-0.01-0.54,0.25-0.67
			c0.22-0.11,0.52-0.01,0.64,0.26l1.23,2.5l0.6-1.61c0.08-0.19,0.25-0.32,0.45-0.32c0.21-0.01,0.39,0.1,0.48,0.28l0.74,1.56
			l1.01-2.6c0.08-0.28,0.38-0.41,0.62-0.31C126.96,80.63,127.1,80.91,127,81.17z"/>
		<path class="st2" d="M129.28,84.65c-0.36-0.46-0.53-1.08-0.45-1.74c0.08-0.64,0.39-1.17,0.85-1.57c0.48-0.39,1.06-0.6,1.71-0.53
			c0.62,0.07,1.16,0.42,1.49,0.9c0.37,0.5,0.54,1.09,0.46,1.73c-0.08,0.66-0.38,1.22-0.86,1.58c-0.44,0.4-1.04,0.6-1.66,0.53
			C130.16,85.48,129.65,85.14,129.28,84.65z M129.85,83.03c-0.05,0.41,0.04,0.75,0.22,1.04c0.21,0.26,0.51,0.42,0.87,0.46
			c0.33,0.04,0.65-0.05,0.91-0.25c0.27-0.24,0.44-0.55,0.49-0.96c0.05-0.39-0.05-0.74-0.25-1.03c-0.21-0.24-0.5-0.42-0.83-0.46
			c-0.36-0.04-0.69,0.07-0.95,0.25C130.06,82.32,129.9,82.65,129.85,83.03z"/>
		<path class="st2" d="M138.09,82.6c-0.06,0.26-0.33,0.44-0.61,0.38c-0.21-0.05-0.41-0.04-0.6,0.04c-0.2,0.07-0.38,0.19-0.53,0.34
			c-0.29,0.24-0.49,0.57-0.56,0.69l-0.41,1.76c-0.06,0.27-0.35,0.44-0.62,0.37c-0.27-0.06-0.44-0.34-0.38-0.61l0.86-3.65
			c0.06-0.27,0.34-0.43,0.6-0.37c0.28,0.07,0.46,0.33,0.4,0.6l-0.01,0.07c0.07-0.05,0.16-0.11,0.24-0.14
			c0.35-0.13,0.79-0.2,1.25-0.09C137.99,82.07,138.15,82.34,138.09,82.6z"/>
		<path class="st2" d="M138.31,86.55l1.89-5.28c0.1-0.27,0.39-0.42,0.67-0.31c0.28,0.1,0.42,0.4,0.32,0.67l-1.11,3.09l2.49-1.18
			c0.25-0.12,0.58,0,0.7,0.25c0.13,0.27,0.01,0.58-0.25,0.7l-1.82,0.86l0.78,2.15c0.09,0.28-0.05,0.58-0.32,0.67
			c-0.12,0.05-0.25,0.04-0.35,0c-0.14-0.05-0.26-0.17-0.31-0.31l-0.74-2.06l-0.67,0.32l-0.28,0.79c-0.1,0.27-0.4,0.41-0.68,0.31
			C138.35,87.12,138.22,86.82,138.31,86.55z"/>
		<path class="st2" d="M145.68,85.53l-1.57,3.36c-0.12,0.26-0.42,0.37-0.68,0.25c-0.26-0.12-0.37-0.43-0.25-0.68l1.57-3.36
			c0.13-0.28,0.43-0.38,0.69-0.26C145.71,84.96,145.81,85.25,145.68,85.53z M146.41,83.97c-0.12,0.26-0.42,0.38-0.69,0.26
			c-0.26-0.12-0.36-0.43-0.24-0.69l0.08-0.18c0.12-0.26,0.42-0.37,0.68-0.25c0.27,0.12,0.37,0.42,0.25,0.68L146.41,83.97z"/>
		<path class="st2" d="M150.07,89.64l-1.17,1.95c-0.14,0.24-0.45,0.32-0.68,0.18c-0.23-0.14-0.32-0.46-0.17-0.69l1.17-1.95
			c0.27-0.46,0.11-1.05-0.36-1.33c-0.46-0.27-1.04-0.12-1.31,0.34l-1.17,1.95c-0.01,0.02-0.03,0.05-0.06,0.07
			c-0.16,0.17-0.43,0.22-0.64,0.09c-0.25-0.15-0.32-0.46-0.17-0.69l1.17-1.95l0.76-1.26c0.14-0.24,0.45-0.32,0.69-0.17
			c0.17,0.1,0.27,0.29,0.25,0.49c0.34-0.01,0.7,0.07,1.02,0.26C150.32,87.49,150.62,88.71,150.07,89.64z"/>
		<path class="st2" d="M154.75,93.79l-1.11,1.37c-0.78,0.97-2.23,1.13-3.21,0.33c-0.27-0.22-0.49-0.51-0.62-0.81
			c-0.12-0.25-0.01-0.56,0.25-0.67c0.26-0.12,0.55-0.01,0.68,0.25c0.07,0.17,0.18,0.32,0.34,0.45c0.48,0.39,1.15,0.37,1.61,0
			c-0.42-0.03-0.84-0.2-1.21-0.49c-0.49-0.39-0.76-0.97-0.8-1.58c-0.05-0.58,0.12-1.2,0.54-1.72c0.41-0.51,0.98-0.8,1.58-0.89
			c0.59-0.07,1.21,0.08,1.7,0.47c0.38,0.31,0.63,0.71,0.74,1.11c0.18-0.15,0.45-0.15,0.64,0.01c0.22,0.18,0.25,0.5,0.07,0.71
			L154.75,93.79L154.75,93.79z M153.97,93.14c0.24-0.29,0.35-0.67,0.33-0.98c-0.02-0.36-0.16-0.66-0.44-0.89
			c-0.26-0.21-0.59-0.3-0.94-0.23c-0.32,0.03-0.67,0.22-0.91,0.51c-0.25,0.31-0.36,0.69-0.32,1c0.02,0.34,0.17,0.64,0.43,0.85
			c0.28,0.23,0.59,0.31,0.95,0.27C153.38,93.64,153.72,93.45,153.97,93.14z"/>
	</g>
	<g>
		<path class="st6" d="M100.27,93.57L97.03,89c-0.17-0.24-0.12-0.56,0.13-0.73c0.24-0.17,0.57-0.12,0.74,0.12l1.32,1.86l2.01-1.42
			l-1.32-1.86c-0.17-0.24-0.12-0.56,0.13-0.73c0.24-0.17,0.57-0.12,0.74,0.12l3.24,4.58c0.17,0.24,0.11,0.56-0.13,0.73
			s-0.56,0.12-0.73-0.12l-1.32-1.86l-2.01,1.42l1.32,1.86c0.17,0.24,0.11,0.56-0.13,0.73C100.75,93.87,100.44,93.82,100.27,93.57z"
			/>
		<path class="st6" d="M108.41,86.51l0.84,1.66c0.12,0.25,0.02,0.55-0.22,0.68c-0.22,0.11-0.47,0.03-0.63-0.14
			c-0.21,0.39-0.52,0.72-0.95,0.93c-0.58,0.29-1.2,0.31-1.76,0.11c-0.56-0.21-1.04-0.63-1.33-1.21c-0.29-0.59-0.35-1.22-0.17-1.79
			c0.17-0.57,0.55-1.07,1.12-1.36c0.42-0.21,0.88-0.26,1.32-0.19c-0.06-0.24,0.03-0.48,0.25-0.6c0.25-0.12,0.55-0.02,0.68,0.23
			L108.41,86.51z M107.51,86.96c-0.18-0.36-0.46-0.6-0.77-0.71c-0.32-0.13-0.67-0.1-0.97,0.05c-0.31,0.15-0.53,0.42-0.61,0.75
			c-0.1,0.32-0.06,0.68,0.12,1.04c0.18,0.35,0.45,0.59,0.76,0.71c0.3,0.11,0.65,0.09,0.96-0.07c0.3-0.15,0.53-0.41,0.62-0.73
			C107.71,87.68,107.68,87.31,107.51,86.96z"/>
		<path class="st6" d="M112.33,83.01c0.09,0.25-0.03,0.55-0.3,0.64c-0.21,0.08-0.36,0.19-0.48,0.36c-0.13,0.17-0.21,0.37-0.26,0.58
			c-0.11,0.36-0.1,0.74-0.1,0.88l0.61,1.7c0.09,0.26-0.05,0.55-0.32,0.65c-0.26,0.09-0.55-0.04-0.65-0.3l-1.27-3.52
			c-0.09-0.26,0.05-0.54,0.31-0.64c0.27-0.1,0.57,0.03,0.66,0.29l0.02,0.06c0.03-0.08,0.08-0.18,0.12-0.25c0.22-0.3,0.55-0.6,1-0.76
			C111.96,82.62,112.24,82.75,112.33,83.01z"/>
		<path class="st6" d="M118.61,85.28c0.06,0.27-0.11,0.55-0.38,0.62c-0.25,0.06-0.49-0.07-0.58-0.28c-0.3,0.32-0.7,0.58-1.17,0.69
			c-1.25,0.29-2.5-0.53-2.79-1.79c-0.3-1.27,0.46-2.56,1.71-2.85c0.45-0.11,0.93-0.06,1.33,0.1l-0.4-1.74
			c-0.06-0.27,0.11-0.55,0.39-0.62c0.28-0.06,0.55,0.12,0.62,0.38l0.85,3.67c0,0,0,0,0,0.01L118.61,85.28z M115.64,82.68
			c-0.33,0.08-0.61,0.29-0.78,0.58c-0.18,0.29-0.24,0.65-0.15,1.02c0.08,0.35,0.3,0.65,0.58,0.83c0.29,0.19,0.62,0.25,0.96,0.18
			c0.34-0.08,0.61-0.29,0.78-0.58c0.18-0.29,0.24-0.65,0.16-1c-0.09-0.37-0.3-0.67-0.59-0.85C116.31,82.67,115.98,82.6,115.64,82.68
			z"/>
		<path class="st6" d="M126.28,81.1l-1.35,3.77c-0.01,0.02-0.02,0.05-0.03,0.08c0,0.01-0.01,0.01-0.01,0.01
			c-0.01,0.02-0.03,0.04-0.04,0.06c-0.01,0.01-0.02,0.01-0.02,0.01c-0.02,0.02-0.04,0.04-0.05,0.05c0,0.01-0.01,0.01-0.01,0.02
			c-0.03,0.02-0.04,0.04-0.08,0.05c0,0-0.01,0-0.01,0.01c-0.02,0-0.05,0.01-0.07,0.02c-0.01,0-0.01,0-0.02,0
			c-0.03,0.01-0.06,0.01-0.09,0.01c-0.03,0-0.06,0-0.09,0c-0.01,0-0.01,0-0.02,0c-0.02-0.01-0.04-0.02-0.07-0.01
			c-0.01-0.01-0.01-0.01-0.01-0.01c-0.01,0-0.01,0-0.01,0c-0.03-0.01-0.06-0.02-0.09-0.05c0,0,0,0,0-0.01
			c-0.03-0.01-0.04-0.03-0.06-0.04c0,0-0.02,0-0.02-0.01c-0.02-0.02-0.04-0.04-0.05-0.05c0,0-0.01,0-0.01-0.01
			c-0.02-0.03-0.03-0.06-0.04-0.07l-0.79-1.6L122.66,85c-0.01,0.02-0.03,0.05-0.04,0.08l0,0.01c-0.02,0.02-0.04,0.04-0.05,0.06
			c0,0.01-0.01,0.01-0.01,0.01c-0.02,0.02-0.04,0.04-0.05,0.06c-0.04,0.03-0.05,0.05-0.08,0.06l-0.02,0c0,0-0.01,0-0.01,0.01
			c-0.02,0-0.05,0.01-0.06,0.02c-0.02,0-0.02,0-0.02,0c-0.04,0.01-0.07,0.01-0.09,0.01c-0.04,0-0.07,0-0.1,0c-0.01,0-0.01,0-0.03,0
			c-0.02-0.01-0.04-0.02-0.06-0.01c-0.01-0.01-0.01-0.01-0.02-0.01c-0.03-0.01-0.07-0.02-0.09-0.05c-0.01,0-0.01,0-0.01-0.01
			c-0.01-0.01-0.03-0.03-0.06-0.04c0,0,0,0-0.02-0.01c-0.01-0.02-0.03-0.04-0.04-0.05c-0.01,0-0.01,0-0.01-0.01
			c-0.02-0.03-0.03-0.06-0.05-0.07l-1.77-3.59c-0.13-0.25-0.02-0.54,0.24-0.67c0.22-0.12,0.52-0.02,0.64,0.25l1.27,2.49l0.57-1.62
			c0.07-0.19,0.25-0.32,0.45-0.33c0.21-0.01,0.4,0.09,0.48,0.28l0.77,1.54l0.97-2.62c0.08-0.28,0.38-0.41,0.62-0.32
			C126.23,80.56,126.38,80.84,126.28,81.1z"/>
		<path class="st6" d="M128.61,84.55c-0.36-0.46-0.55-1.07-0.48-1.73c0.07-0.64,0.37-1.17,0.82-1.59c0.47-0.4,1.05-0.62,1.7-0.55
			c0.62,0.06,1.16,0.4,1.5,0.88c0.38,0.5,0.56,1.08,0.49,1.72c-0.07,0.66-0.37,1.22-0.83,1.6c-0.43,0.4-1.03,0.62-1.65,0.55
			C129.51,85.37,128.99,85.04,128.61,84.55z M129.16,82.92c-0.04,0.41,0.05,0.75,0.24,1.04c0.21,0.25,0.51,0.41,0.87,0.45
			c0.33,0.03,0.65-0.06,0.91-0.26c0.26-0.24,0.43-0.56,0.47-0.96c0.04-0.39-0.06-0.74-0.27-1.02c-0.22-0.23-0.5-0.42-0.83-0.45
			c-0.36-0.04-0.69,0.08-0.95,0.26C129.36,82.21,129.2,82.53,129.16,82.92z"/>
		<path class="st6" d="M137.39,82.37c-0.06,0.26-0.32,0.44-0.6,0.38c-0.21-0.05-0.41-0.03-0.6,0.05c-0.2,0.07-0.38,0.2-0.52,0.35
			c-0.29,0.25-0.48,0.58-0.55,0.7l-0.39,1.76c-0.06,0.27-0.34,0.44-0.62,0.38c-0.27-0.06-0.44-0.33-0.38-0.6l0.8-3.66
			c0.06-0.27,0.33-0.43,0.6-0.37c0.28,0.06,0.46,0.33,0.4,0.59l-0.01,0.07c0.07-0.05,0.16-0.11,0.24-0.14
			c0.35-0.14,0.79-0.22,1.25-0.1C137.28,81.84,137.45,82.1,137.39,82.37z"/>
		<path class="st6" d="M137.67,86.32l1.81-5.31c0.09-0.27,0.39-0.42,0.66-0.33c0.28,0.09,0.43,0.4,0.33,0.67l-1.06,3.11l2.47-1.21
			c0.25-0.12,0.58-0.01,0.7,0.24c0.13,0.27,0.02,0.58-0.24,0.7l-1.81,0.89l0.82,2.14c0.1,0.27-0.04,0.58-0.31,0.68
			c-0.12,0.05-0.25,0.05-0.35,0.01c-0.14-0.05-0.27-0.16-0.32-0.31l-0.77-2.05l-0.66,0.32l-0.27,0.79
			c-0.09,0.27-0.39,0.42-0.67,0.32C137.72,86.88,137.58,86.58,137.67,86.32z"/>
		<path class="st6" d="M145.03,85.19l-1.52,3.38c-0.12,0.26-0.41,0.38-0.68,0.26c-0.26-0.12-0.38-0.42-0.26-0.68l1.52-3.38
			c0.12-0.28,0.42-0.38,0.68-0.27C145.04,84.62,145.15,84.91,145.03,85.19z M145.74,83.62c-0.12,0.26-0.41,0.39-0.68,0.27
			c-0.26-0.12-0.37-0.43-0.25-0.69l0.08-0.18c0.12-0.26,0.42-0.37,0.68-0.26c0.27,0.12,0.37,0.42,0.26,0.68L145.74,83.62z"/>
		<path class="st6" d="M149.47,89.23l-1.14,1.97c-0.14,0.24-0.44,0.33-0.68,0.19c-0.23-0.13-0.32-0.45-0.18-0.69l1.14-1.97
			c0.27-0.46,0.09-1.06-0.38-1.33c-0.46-0.27-1.04-0.11-1.3,0.36l-1.14,1.97c-0.01,0.02-0.03,0.05-0.06,0.07
			c-0.16,0.17-0.43,0.22-0.64,0.1c-0.25-0.14-0.32-0.45-0.18-0.69l1.14-1.97l0.74-1.28c0.14-0.24,0.44-0.33,0.69-0.18
			c0.17,0.1,0.27,0.29,0.25,0.49c0.34-0.01,0.7,0.06,1.02,0.25C149.7,87.08,150.01,88.3,149.47,89.23z"/>
		<path class="st6" d="M154.22,93.32l-1.1,1.39c-0.77,0.98-2.21,1.16-3.2,0.38c-0.28-0.22-0.5-0.5-0.64-0.8
			c-0.12-0.24-0.02-0.56,0.24-0.68c0.26-0.12,0.55-0.02,0.68,0.24c0.07,0.17,0.19,0.32,0.34,0.44c0.48,0.38,1.15,0.35,1.61-0.03
			c-0.42-0.03-0.85-0.18-1.21-0.47c-0.49-0.39-0.78-0.96-0.82-1.57c-0.06-0.58,0.1-1.2,0.51-1.73c0.41-0.51,0.97-0.82,1.57-0.92
			c0.59-0.08,1.21,0.06,1.7,0.45c0.39,0.31,0.64,0.7,0.75,1.1c0.18-0.15,0.45-0.16,0.64,0c0.22,0.18,0.25,0.49,0.08,0.71
			L154.22,93.32L154.22,93.32z M153.43,92.68c0.24-0.3,0.34-0.68,0.32-0.98c-0.03-0.36-0.17-0.66-0.46-0.88
			c-0.26-0.21-0.6-0.29-0.94-0.22c-0.32,0.04-0.66,0.23-0.9,0.52c-0.25,0.31-0.35,0.69-0.31,1c0.02,0.34,0.18,0.64,0.45,0.85
			c0.28,0.22,0.6,0.3,0.95,0.25C152.84,93.18,153.18,92.99,153.43,92.68z"/>
	</g>
</g>
<g id="Safe_Area" class="st0">
	<circle class="st7" cx="126" cy="126" r="54"/>
</g>
</svg>
