<?xml version="1.0" encoding="utf-8"?>
<!-- Generator: Adobe Illustrator 23.0.2, SVG Export Plug-In . SVG Version: 6.00 Build 0)  -->
<svg version="1.1" xmlns="http://www.w3.org/2000/svg" xmlns:xlink="http://www.w3.org/1999/xlink" x="0px" y="0px"
	 viewBox="0 0 252 252" style="enable-background:new 0 0 252 252;" xml:space="preserve">
<style type="text/css">
	.st0{display:none;}
	.st1{display:inline;fill:#FFFFFF;stroke:#252723;stroke-miterlimit:10;}
	.st2{fill:#FFFFFF;}
	.st3{fill:#DDEDF0;}
	.st4{clip-path:url(#SVGID_2_);fill:#C9DFCA;}
	.st5{clip-path:url(#SVGID_2_);fill:#99B7A5;}
	.st6{clip-path:url(#SVGID_2_);fill:#B0D2BC;}
	.st7{clip-path:url(#SVGID_2_);fill:#97A899;}
	.st8{clip-path:url(#SVGID_2_);fill:#A6D0D4;}
	.st9{fill:#997969;}
	.st10{clip-path:url(#SVGID_4_);fill:#78A2D5;}
	.st11{clip-path:url(#SVGID_4_);fill:#B9C9E8;}
	.st12{fill:#78A2D5;}
	.st13{fill:#BEDDF0;}
	.st14{clip-path:url(#SVGID_6_);fill:#BEDDF0;}
	.st15{display:inline;fill:none;stroke:#252723;stroke-miterlimit:10;}
</style>
<g id="Bleed" class="st0">
	<circle class="st1" cx="126" cy="126" r="72"/>
</g>
<g id="Background">
</g>
<g id="Image">
	<circle class="st2" cx="126" cy="126" r="57.66"/>
	<circle class="st3" cx="126" cy="126" r="50.01"/>
	<circle class="st2" cx="126" cy="126" r="45.64"/>
	
		<ellipse transform="matrix(0.9972 -0.0742 0.0742 0.9972 -9.0203 9.5718)" class="st3" cx="124.25" cy="126.13" rx="45.26" ry="40.51"/>
	<circle class="st2" cx="129.35" cy="127.38" r="39.89"/>
	
		<ellipse transform="matrix(0.9681 -0.2504 0.2504 0.9681 -27.7555 36.3001)" class="st3" cx="128.8" cy="127.24" rx="45.26" ry="40.51"/>
	<circle class="st2" cx="126.52" cy="124.25" r="40.6"/>
	<g>
		<g>
			<defs>
				<rect id="SVGID_1_" x="111.68" y="87.54" width="28.65" height="71.01"/>
			</defs>
			<clipPath id="SVGID_2_">
				<use xlink:href="#SVGID_1_"  style="overflow:visible;"/>
			</clipPath>
			<path class="st4" d="M131.92,102.28c-0.41-0.39-0.82-1.1-1.09-2c-0.48-1.57-0.35-3.11,0.28-3.43c0.32-0.16,0.7,0.01,1.07,0.43
				l0,0c0.21,0.51,0.35,1.19,0.39,1.96C132.63,100.58,132.36,101.77,131.92,102.28"/>
			<path class="st4" d="M133.49,98.48c-0.41-0.39-0.82-1.1-1.09-2c-0.48-1.57-0.35-3.11,0.28-3.43c0.32-0.16,0.7,0.01,1.07,0.43l0,0
				c0.21,0.51,0.35,1.19,0.39,1.96C134.21,96.78,133.94,97.97,133.49,98.48"/>
			<path class="st4" d="M134.65,97.28c-0.13-0.62-0.09-1.52,0.14-2.48c0.4-1.69,1.25-2.92,1.89-2.77c0.32,0.08,0.53,0.5,0.61,1.11v0
				c-0.09,0.58-0.31,1.27-0.66,1.96C136.03,96.3,135.24,97.14,134.65,97.28"/>
			<path class="st4" d="M132.96,99.94c0.23-0.62,0.71-1.35,1.38-1.99c1.17-1.13,2.43-1.56,2.82-0.96c0.2,0.3,0.14,0.81-0.12,1.38
				l0,0c-0.37,0.43-0.89,0.85-1.5,1.18C134.48,100.12,133.46,100.25,132.96,99.94"/>
			<path class="st4" d="M129.66,108.59c-0.53-0.14-1.15-0.57-1.72-1.23c-0.99-1.15-1.39-2.56-0.91-3.15
				c0.25-0.3,0.67-0.33,1.16-0.14l0,0c0.37,0.35,0.74,0.88,1.04,1.54C129.75,106.75,129.9,107.92,129.66,108.59"/>
			<path class="st4" d="M130.05,106.64c-0.36-0.46-0.67-1.24-0.82-2.18c-0.28-1.65,0.03-3.17,0.69-3.39
				c0.33-0.11,0.69,0.14,0.99,0.62l0,0c0.14,0.54,0.2,1.25,0.14,2.03C130.95,105.06,130.54,106.2,130.05,106.64"/>
			<path class="st4" d="M131.27,104.67c0.08-0.65,0.4-1.5,0.9-2.31c0.89-1.44,2.04-2.25,2.56-1.82c0.26,0.22,0.32,0.72,0.2,1.34l0,0
				c-0.26,0.52-0.68,1.09-1.21,1.59C132.81,104.35,131.84,104.8,131.27,104.67"/>
			<path class="st4" d="M129.25,109.25c0.08-0.65,0.4-1.5,0.9-2.31c0.89-1.44,2.04-2.25,2.56-1.82c0.26,0.22,0.32,0.72,0.2,1.34v0
				c-0.26,0.52-0.68,1.09-1.21,1.59C130.79,108.93,129.82,109.38,129.25,109.25"/>
			<path class="st4" d="M127.33,114.56c0.01-0.65,0.24-1.53,0.66-2.41c0.74-1.55,1.8-2.52,2.38-2.17c0.29,0.18,0.4,0.65,0.34,1.28
				l0,0c-0.21,0.55-0.57,1.17-1.04,1.74C128.84,114.01,127.92,114.6,127.33,114.56"/>
			<path class="st4" d="M128.69,113.46c-0.03-0.39,0.06-0.92,0.26-1.47c0.36-0.97,0.95-1.63,1.31-1.47
				c0.18,0.08,0.28,0.36,0.28,0.73v0c-0.1,0.34-0.28,0.73-0.53,1.11C129.56,113.02,129.04,113.44,128.69,113.46"/>
			<path class="st4" d="M133.47,97.99c-0.24-0.24-0.47-0.68-0.62-1.23c-0.26-0.96-0.16-1.88,0.22-2.06
				c0.19-0.09,0.42,0.03,0.63,0.29l0,0c0.12,0.31,0.19,0.73,0.2,1.19C133.92,96.99,133.74,97.7,133.47,97.99"/>
			<path class="st4" d="M126.73,116.41c0.31-0.57,0.89-1.2,1.63-1.7c1.3-0.89,2.59-1.06,2.88-0.38c0.15,0.34,0.01,0.84-0.32,1.36
				l0,0c-0.42,0.35-0.99,0.67-1.63,0.87C128.18,116.9,127.17,116.82,126.73,116.41"/>
			<path class="st4" d="M127.02,116.49c0.2-0.41,0.56-0.86,1.01-1.23c0.8-0.65,1.58-0.79,1.75-0.31c0.08,0.24,0,0.59-0.22,0.97h0
				c-0.26,0.26-0.61,0.49-1,0.64C127.88,116.83,127.28,116.78,127.02,116.49"/>
			<path class="st4" d="M125.78,122.39c0.08-0.65,0.4-1.5,0.9-2.31c0.89-1.44,2.04-2.25,2.56-1.82c0.26,0.22,0.32,0.72,0.2,1.34v0
				c-0.26,0.52-0.68,1.09-1.21,1.59C127.31,122.07,126.34,122.52,125.78,122.39"/>
			<path class="st4" d="M125.95,122.07c0.08-0.43,0.34-1.01,0.74-1.57c0.71-0.99,1.6-1.58,1.99-1.32c0.2,0.13,0.23,0.46,0.12,0.87v0
				c-0.21,0.36-0.54,0.75-0.96,1.1C127.13,121.79,126.38,122.14,125.95,122.07"/>
			<path class="st4" d="M125.3,124.52c-0.53-0.11-1.18-0.51-1.77-1.13c-1.04-1.09-1.5-2.47-1.03-3.09c0.23-0.31,0.66-0.36,1.16-0.2
				l0,0c0.39,0.32,0.78,0.83,1.1,1.47C125.33,122.69,125.52,123.85,125.3,124.52"/>
			<path class="st4" d="M125.73,125.59c-0.47-0.13-1.04-0.54-1.57-1.18c-0.93-1.12-1.35-2.51-0.96-3.11c0.2-0.3,0.57-0.34,1.01-0.16
				l0,0c0.34,0.34,0.7,0.86,0.99,1.5C125.72,123.77,125.91,124.93,125.73,125.59"/>
			<path class="st4" d="M126.39,119.12c-0.5-0.22-1.07-0.75-1.56-1.49c-0.85-1.3-1.1-2.78-0.56-3.29c0.27-0.26,0.7-0.23,1.16,0.03
				l0,0c0.33,0.4,0.64,0.99,0.86,1.7C126.68,117.29,126.7,118.49,126.39,119.12"/>
			<path class="st4" d="M126.32,119.2c-0.36-0.17-0.78-0.56-1.14-1.1c-0.63-0.96-0.83-2.02-0.45-2.38c0.19-0.18,0.49-0.15,0.83,0.06
				v0c0.19,0.24,0.38,0.56,0.54,0.95c-0.11-0.25-0.23-0.45-0.36-0.61l0,0c-0.26-0.16-0.5-0.18-0.65-0.04
				c-0.3,0.28-0.14,1.12,0.36,1.87c0.28,0.43,0.61,0.73,0.89,0.87c0.09-0.19,0.12-0.48,0.1-0.82
				C126.48,118.48,126.45,118.92,126.32,119.2"/>
			<path class="st4" d="M130.91,105.05c0.4-0.02,0.94-0.22,1.49-0.59c0.96-0.64,1.57-1.55,1.37-2.02c-0.1-0.24-0.4-0.32-0.78-0.26h0
				c-0.27,0.15-0.58,0.37-0.87,0.67c0.2-0.19,0.4-0.33,0.58-0.43h0c0.3-0.05,0.53,0.02,0.61,0.21c0.16,0.37-0.32,1.08-1.07,1.58
				c-0.43,0.29-0.85,0.45-1.17,0.46c-0.01-0.21,0.08-0.49,0.24-0.8C131.04,104.33,130.9,104.75,130.91,105.05"/>
			<path class="st4" d="M127.73,114.95c-0.53-0.11-1.18-0.51-1.77-1.13c-1.04-1.09-1.5-2.47-1.03-3.09c0.23-0.31,0.66-0.36,1.16-0.2
				l0,0c0.39,0.32,0.78,0.83,1.1,1.47C127.76,113.12,127.95,114.28,127.73,114.95"/>
			<path class="st4" d="M127.14,114.11c-0.35-0.07-0.78-0.33-1.16-0.74c-0.68-0.72-0.98-1.63-0.68-2.03
				c0.15-0.2,0.44-0.24,0.76-0.13l0,0c0.25,0.21,0.51,0.55,0.73,0.97C127.16,112.9,127.28,113.67,127.14,114.11"/>
			<path class="st4" d="M129.83,107.71c-0.35-0.07-0.78-0.33-1.16-0.74c-0.68-0.72-0.98-1.63-0.68-2.03
				c0.15-0.2,0.44-0.24,0.76-0.13l0,0c0.25,0.21,0.51,0.55,0.73,0.97C129.85,106.51,129.97,107.27,129.83,107.71"/>
			<path class="st4" d="M128.12,112.03c-0.48-0.26-1.02-0.84-1.45-1.63c-0.76-1.38-0.92-2.88-0.35-3.35
				c0.29-0.24,0.7-0.17,1.14,0.14l0,0c0.3,0.43,0.57,1.05,0.75,1.78C128.52,110.22,128.47,111.43,128.12,112.03"/>
			<path class="st4" d="M126.06,127.07c-0.29,0.3-0.54,0.43-0.73,0.36c-1.15-0.42,0.13-7.69,2.86-16.26
				c2.73-8.56,5.88-15.16,7.03-14.75c0.06,0.02,0.12,0.06,0.17,0.13c-1.46,1.49-4.02,7.26-6.29,14.39
				C126.5,119.04,125.21,125.99,126.06,127.07"/>
			<path class="st4" d="M125.55,98.57c-0.43-0.33-0.86-0.93-1.16-1.67c-0.53-1.3-0.47-2.55,0.15-2.79c0.31-0.12,0.7,0.04,1.08,0.39
				l0,0c0.23,0.42,0.4,0.99,0.46,1.62C126.2,97.22,125.97,98.17,125.55,98.57"/>
			<path class="st4" d="M126.97,95.53c-0.43-0.33-0.86-0.93-1.16-1.67c-0.53-1.3-0.47-2.55,0.15-2.79c0.31-0.12,0.7,0.04,1.08,0.39
				l0,0c0.23,0.42,0.4,0.99,0.46,1.62C127.61,94.17,127.38,95.13,126.97,95.53"/>
			<path class="st4" d="M128.07,94.59c-0.15-0.51-0.15-1.25,0.04-2.02c0.34-1.36,1.13-2.35,1.77-2.19c0.32,0.08,0.55,0.43,0.65,0.93
				v0c-0.07,0.48-0.26,1.03-0.58,1.58C129.4,93.84,128.65,94.5,128.07,94.59"/>
			<path class="st4" d="M126.49,96.7c0.2-0.5,0.66-1.08,1.29-1.58c1.11-0.88,2.35-1.19,2.76-0.68c0.21,0.25,0.17,0.67-0.07,1.13l0,0
				c-0.35,0.34-0.85,0.66-1.44,0.91C128.01,96.9,127,96.97,126.49,96.7"/>
			<path class="st4" d="M123.55,103.65c-0.53-0.14-1.17-0.51-1.75-1.07c-1.02-0.98-1.48-2.15-1.02-2.61
				c0.23-0.23,0.65-0.24,1.15-0.07l0,0c0.38,0.3,0.77,0.75,1.09,1.29C123.57,102.15,123.76,103.12,123.55,103.65"/>
			<path class="st4" d="M123.86,102.07c-0.37-0.39-0.71-1.04-0.9-1.82c-0.34-1.36-0.09-2.59,0.55-2.74
				c0.32-0.08,0.69,0.14,1.01,0.54v0c0.16,0.45,0.25,1.03,0.22,1.67C124.7,100.81,124.33,101.73,123.86,102.07"/>
			<path class="st4" d="M125,100.51c0.06-0.53,0.34-1.21,0.81-1.86c0.83-1.14,1.94-1.77,2.47-1.39c0.27,0.19,0.35,0.6,0.25,1.1l0,0
				c-0.24,0.42-0.63,0.86-1.14,1.26C126.51,100.3,125.57,100.64,125,100.51"/>
			<path class="st4" d="M123.17,104.18c0.06-0.53,0.34-1.21,0.81-1.86c0.83-1.14,1.94-1.77,2.47-1.39c0.27,0.19,0.35,0.6,0.25,1.1
				l0,0c-0.24,0.42-0.63,0.86-1.14,1.26C124.69,103.97,123.74,104.3,123.17,104.18"/>
			<path class="st4" d="M121.47,108.45c-0.01-0.53,0.18-1.24,0.56-1.94c0.68-1.24,1.69-1.99,2.27-1.69
				c0.29,0.15,0.42,0.55,0.39,1.06l0,0c-0.19,0.44-0.52,0.93-0.97,1.39C122.95,108.05,122.05,108.5,121.47,108.45"/>
			<path class="st4" d="M122.77,107.6c-0.04-0.32,0.02-0.75,0.21-1.2c0.32-0.78,0.88-1.29,1.25-1.15c0.19,0.07,0.29,0.3,0.3,0.61
				l0,0c-0.08,0.28-0.25,0.59-0.48,0.89C123.63,107.27,123.12,107.59,122.77,107.6"/>
			<path class="st4" d="M126.92,95.13c-0.25-0.21-0.5-0.57-0.66-1.03c-0.29-0.79-0.23-1.54,0.14-1.67c0.19-0.07,0.42,0.04,0.64,0.26
				v0c0.13,0.26,0.22,0.6,0.25,0.98C127.34,94.32,127.18,94.9,126.92,95.13"/>
			<path class="st4" d="M120.95,109.94c0.29-0.45,0.84-0.95,1.55-1.33c1.25-0.68,2.53-0.77,2.84-0.2c0.16,0.28,0.05,0.68-0.26,1.1
				l0,0c-0.4,0.27-0.95,0.51-1.58,0.65C122.4,110.39,121.4,110.29,120.95,109.94"/>
			<path class="st4" d="M121.23,110.02c0.18-0.33,0.52-0.69,0.96-0.97c0.77-0.5,1.54-0.58,1.73-0.19c0.09,0.2,0.02,0.49-0.18,0.78
				l0,0c-0.25,0.2-0.59,0.37-0.97,0.48C122.11,110.32,121.5,110.26,121.23,110.02"/>
			<path class="st4" d="M120.23,114.79c0.06-0.53,0.34-1.21,0.81-1.86c0.83-1.14,1.94-1.77,2.47-1.39c0.27,0.19,0.35,0.6,0.25,1.1
				l0,0c-0.24,0.42-0.63,0.86-1.14,1.26C121.74,114.58,120.8,114.92,120.23,114.79"/>
			<path class="st4" d="M120.39,114.54c0.06-0.35,0.3-0.81,0.68-1.25c0.67-0.78,1.53-1.23,1.92-1c0.2,0.12,0.24,0.38,0.15,0.72l0,0
				c-0.2,0.28-0.51,0.59-0.91,0.87C121.55,114.35,120.82,114.6,120.39,114.54"/>
			<path class="st4" d="M119.84,116.52c-0.53-0.11-1.19-0.46-1.8-0.99c-1.07-0.93-1.58-2.08-1.15-2.56
				c0.22-0.24,0.64-0.27,1.14-0.12h0c0.4,0.28,0.81,0.71,1.15,1.24C119.8,115.02,120.03,115.98,119.84,116.52"/>
			<path class="st4" d="M120.31,117.41c-0.47-0.12-1.06-0.48-1.6-1.03c-0.96-0.95-1.44-2.11-1.07-2.58c0.19-0.24,0.56-0.26,1-0.09h0
				c0.35,0.29,0.72,0.73,1.04,1.27C120.23,115.92,120.46,116.87,120.31,117.41"/>
			<path class="st4" d="M120.71,112.14c-0.51-0.2-1.09-0.65-1.6-1.27c-0.89-1.1-1.2-2.31-0.68-2.71c0.26-0.2,0.68-0.16,1.15,0.07
				l0,0c0.34,0.34,0.67,0.83,0.92,1.42C120.93,110.65,121,111.64,120.71,112.14"/>
			<path class="st4" d="M120.64,112.2c-0.37-0.15-0.79-0.49-1.17-0.95c-0.66-0.8-0.9-1.68-0.54-1.96c0.18-0.14,0.48-0.1,0.82,0.08
				l0,0c0.2,0.2,0.4,0.48,0.57,0.8c-0.12-0.21-0.25-0.38-0.39-0.52v0c-0.27-0.14-0.5-0.17-0.65-0.06c-0.28,0.22-0.09,0.91,0.43,1.54
				c0.29,0.36,0.63,0.62,0.92,0.74c0.08-0.15,0.1-0.39,0.06-0.67C120.78,111.62,120.76,111.98,120.64,112.2"/>
			<path class="st4" d="M124.66,100.81c0.4,0,0.93-0.15,1.45-0.43c0.93-0.49,1.5-1.21,1.28-1.6c-0.11-0.2-0.41-0.28-0.79-0.24h0
				c-0.27,0.11-0.56,0.28-0.84,0.52c0.19-0.14,0.38-0.25,0.56-0.33h0c0.3-0.03,0.53,0.04,0.62,0.19c0.17,0.31-0.28,0.87-1,1.26
				c-0.41,0.22-0.83,0.33-1.14,0.33c-0.01-0.17,0.06-0.4,0.21-0.64C124.76,100.22,124.64,100.56,124.66,100.81"/>
			<path class="st4" d="M121.88,108.78c-0.53-0.11-1.19-0.46-1.8-0.99c-1.07-0.93-1.58-2.08-1.15-2.56
				c0.22-0.24,0.64-0.27,1.14-0.12h0c0.4,0.28,0.81,0.71,1.15,1.24C121.84,107.28,122.07,108.24,121.88,108.78"/>
			<path class="st4" d="M121.27,108.07c-0.35-0.07-0.78-0.3-1.18-0.65c-0.7-0.61-1.04-1.37-0.75-1.68c0.14-0.16,0.42-0.18,0.75-0.08
				h0c0.26,0.18,0.53,0.47,0.76,0.82C121.24,107.09,121.39,107.72,121.27,108.07"/>
			<path class="st4" d="M123.68,102.94c-0.35-0.07-0.78-0.3-1.18-0.65c-0.7-0.61-1.04-1.37-0.75-1.68c0.14-0.16,0.42-0.18,0.75-0.08
				h0c0.26,0.18,0.53,0.47,0.76,0.82C123.66,101.96,123.81,102.59,123.68,102.94"/>
			<path class="st4" d="M122.16,106.41c-0.49-0.23-1.04-0.72-1.5-1.38c-0.81-1.16-1.02-2.39-0.48-2.76
				c0.28-0.18,0.69-0.11,1.14,0.15l0,0c0.32,0.37,0.61,0.88,0.81,1.48C122.49,104.94,122.48,105.93,122.16,106.41"/>
			<path class="st4" d="M120.69,118.63c-0.28,0.23-0.52,0.33-0.71,0.26c-1.16-0.38-0.17-6.29,2.21-13.18
				c2.38-6.9,5.24-12.18,6.4-11.8c0.06,0.02,0.12,0.06,0.17,0.11c-1.39,1.16-3.71,5.79-5.69,11.53
				C120.82,112.08,119.81,117.71,120.69,118.63"/>
			<path class="st5" d="M125.84,107.87c-0.46-0.28-0.96-0.83-1.35-1.53c-0.68-1.23-0.77-2.48-0.19-2.79
				c0.29-0.16,0.7-0.04,1.12,0.27v0c0.28,0.4,0.51,0.94,0.65,1.55C126.32,106.44,126.21,107.42,125.84,107.87"/>
			<path class="st5" d="M126.89,104.68c-0.46-0.28-0.96-0.83-1.35-1.53c-0.68-1.23-0.77-2.48-0.19-2.79
				c0.29-0.16,0.7-0.04,1.12,0.27v0c0.28,0.4,0.51,0.94,0.65,1.55C127.36,103.26,127.25,104.24,126.89,104.68"/>
			<path class="st5" d="M127.87,103.62c-0.21-0.49-0.3-1.22-0.2-2.01c0.17-1.39,0.84-2.46,1.49-2.38c0.33,0.04,0.6,0.36,0.75,0.85v0
				c-0.01,0.48-0.14,1.05-0.39,1.64C129.1,102.73,128.43,103.47,127.87,103.62"/>
			<path class="st5" d="M126.55,105.9c0.14-0.52,0.52-1.14,1.09-1.71c1-1,2.19-1.45,2.66-1c0.24,0.23,0.25,0.64,0.07,1.13l0,0
				c-0.3,0.37-0.76,0.76-1.32,1.07C128.08,105.93,127.1,106.11,126.55,105.9"/>
			<path class="st5" d="M124.46,113.14c-0.54-0.08-1.22-0.37-1.87-0.86c-1.13-0.85-1.73-1.96-1.33-2.47c0.2-0.26,0.62-0.32,1.13-0.2
				h0c0.42,0.25,0.85,0.65,1.24,1.16C124.31,111.65,124.61,112.59,124.46,113.14"/>
			<path class="st5" d="M124.58,111.53c-0.42-0.34-0.83-0.95-1.11-1.7c-0.5-1.32-0.4-2.56,0.22-2.79c0.31-0.11,0.7,0.06,1.07,0.42
				l0,0c0.22,0.43,0.37,1,0.42,1.63C125.26,110.19,125.01,111.15,124.58,111.53"/>
			<path class="st5" d="M125.53,109.85c-0.01-0.53,0.19-1.24,0.58-1.94c0.69-1.23,1.71-1.98,2.29-1.67
				c0.29,0.16,0.41,0.55,0.38,1.07v0c-0.19,0.44-0.53,0.93-0.98,1.38C127.01,109.47,126.11,109.91,125.53,109.85"/>
			<path class="st5" d="M124.15,113.7c-0.01-0.53,0.19-1.24,0.58-1.94c0.69-1.23,1.71-1.98,2.29-1.67c0.29,0.16,0.41,0.55,0.38,1.07
				v0c-0.19,0.44-0.53,0.93-0.98,1.38C125.63,113.33,124.73,113.77,124.15,113.7"/>
			<path class="st5" d="M122.97,118.14c-0.08-0.53,0.03-1.25,0.32-2c0.52-1.31,1.44-2.17,2.06-1.94c0.31,0.12,0.48,0.5,0.51,1.01v0
				c-0.13,0.46-0.4,0.99-0.79,1.49C124.39,117.58,123.56,118.13,122.97,118.14"/>
			<path class="st5" d="M124.16,117.15c-0.08-0.31-0.07-0.75,0.06-1.21c0.23-0.81,0.72-1.39,1.1-1.29c0.19,0.05,0.32,0.27,0.37,0.57
				v0c-0.05,0.28-0.17,0.61-0.38,0.94C124.97,116.72,124.51,117.1,124.16,117.15"/>
			<path class="st5" d="M126.79,104.29c-0.27-0.18-0.56-0.51-0.78-0.94c-0.39-0.75-0.41-1.5-0.06-1.68
				c0.18-0.09,0.42-0.01,0.67,0.18l0,0c0.16,0.24,0.29,0.57,0.36,0.94C127.11,103.44,127.02,104.03,126.79,104.29"/>
			<path class="st5" d="M122.63,119.68c0.23-0.48,0.72-1.04,1.38-1.5c1.16-0.82,2.42-1.05,2.8-0.53c0.19,0.27,0.13,0.68-0.13,1.12
				l0,0c-0.37,0.32-0.88,0.61-1.49,0.83C124.13,119.97,123.13,119.98,122.63,119.68"/>
			<path class="st5" d="M122.92,119.73c0.14-0.35,0.44-0.74,0.84-1.07c0.7-0.59,1.46-0.76,1.69-0.38c0.12,0.19,0.08,0.48-0.08,0.8h0
				c-0.22,0.23-0.54,0.44-0.9,0.59C123.83,119.93,123.22,119.94,122.92,119.73"/>
			<path class="st5" d="M122.5,124.58c-0.01-0.53,0.19-1.24,0.58-1.94c0.69-1.23,1.71-1.98,2.29-1.67c0.29,0.16,0.41,0.55,0.38,1.07
				v0c-0.19,0.44-0.53,0.93-0.98,1.38C123.98,124.2,123.08,124.64,122.5,124.58"/>
			<path class="st5" d="M122.63,124.32c0.02-0.36,0.2-0.84,0.52-1.32c0.57-0.85,1.37-1.4,1.79-1.22c0.21,0.09,0.29,0.35,0.23,0.7
				l0,0c-0.16,0.3-0.44,0.65-0.8,0.97C123.76,124,123.06,124.33,122.63,124.32"/>
			<path class="st5" d="M122.32,126.34c-0.54-0.05-1.24-0.32-1.9-0.77c-1.17-0.8-1.82-1.88-1.44-2.41c0.19-0.27,0.61-0.34,1.12-0.25
				l0,0c0.43,0.23,0.89,0.61,1.29,1.1C122.09,124.86,122.44,125.78,122.32,126.34"/>
			<path class="st5" d="M122.89,127.17c-0.48-0.07-1.11-0.36-1.71-0.83c-1.07-0.83-1.68-1.92-1.37-2.43
				c0.16-0.26,0.52-0.32,0.98-0.21h0c0.39,0.25,0.81,0.64,1.19,1.14C122.63,125.7,122.97,126.63,122.89,127.17"/>
			<path class="st5" d="M122.66,121.89c-0.53-0.14-1.16-0.52-1.74-1.08c-1.02-0.99-1.46-2.16-1-2.62c0.23-0.23,0.66-0.24,1.15-0.06
				l0,0c0.38,0.3,0.77,0.75,1.08,1.3C122.7,120.4,122.88,121.36,122.66,121.89"/>
			<path class="st5" d="M122.6,121.97c-0.38-0.11-0.85-0.39-1.27-0.81c-0.75-0.72-1.1-1.57-0.77-1.89c0.16-0.16,0.47-0.16,0.82-0.02
				h0c0.23,0.18,0.45,0.43,0.66,0.73c-0.14-0.19-0.29-0.35-0.44-0.47l0,0c-0.28-0.11-0.52-0.11-0.65,0.02
				c-0.25,0.25,0.02,0.91,0.61,1.48c0.33,0.32,0.7,0.54,1,0.63c0.06-0.16,0.06-0.4-0.02-0.67
				C122.67,121.37,122.69,121.73,122.6,121.97"/>
			<path class="st5" d="M125.22,110.19c0.39-0.05,0.9-0.25,1.39-0.59c0.86-0.59,1.34-1.37,1.08-1.74c-0.13-0.18-0.44-0.23-0.81-0.15
				l0,0c-0.25,0.14-0.52,0.35-0.77,0.61c0.17-0.17,0.35-0.3,0.52-0.39l0,0c0.29-0.06,0.53-0.02,0.64,0.12
				c0.21,0.29-0.17,0.9-0.85,1.36c-0.38,0.26-0.78,0.43-1.09,0.46c-0.03-0.17,0.01-0.4,0.13-0.66
				C125.26,109.59,125.17,109.94,125.22,110.19"/>
			<path class="st5" d="M123.42,118.43c-0.54-0.05-1.24-0.32-1.9-0.77c-1.17-0.8-1.82-1.88-1.44-2.41c0.19-0.27,0.61-0.34,1.12-0.25
				l0,0c0.43,0.23,0.89,0.61,1.29,1.1C123.2,116.95,123.55,117.87,123.42,118.43"/>
			<path class="st5" d="M122.72,117.79c-0.36-0.03-0.81-0.21-1.25-0.51c-0.77-0.53-1.2-1.24-0.95-1.58c0.12-0.18,0.4-0.23,0.74-0.17
				l0,0c0.28,0.15,0.58,0.4,0.85,0.72C122.58,116.82,122.8,117.43,122.72,117.79"/>
			<path class="st5" d="M124.51,112.42c-0.36-0.03-0.81-0.21-1.25-0.51c-0.77-0.53-1.2-1.24-0.95-1.58c0.12-0.18,0.4-0.23,0.74-0.17
				h0c0.28,0.15,0.58,0.4,0.85,0.72C124.36,111.44,124.59,112.05,124.51,112.42"/>
			<path class="st5" d="M123.41,116.04c-0.52-0.18-1.12-0.6-1.66-1.2c-0.94-1.05-1.3-2.26-0.81-2.68c0.25-0.21,0.67-0.19,1.15,0.02
				h0c0.36,0.33,0.71,0.81,0.98,1.38C123.56,114.55,123.67,115.53,123.41,116.04"/>
			<path class="st5" d="M123.41,128.34c-0.25,0.26-0.48,0.39-0.68,0.34c-1.2-0.25-0.92-6.22,0.62-13.35
				c1.54-7.12,3.75-12.7,4.95-12.45c0.06,0.01,0.12,0.04,0.18,0.09c-1.24,1.32-2.99,6.17-4.27,12.1
				C122.76,121.82,122.43,127.53,123.41,128.34"/>
			<path class="st6" d="M133.5,109.55c-0.32-0.43-0.56-1.13-0.65-1.92c-0.15-1.4,0.26-2.58,0.92-2.65c0.33-0.03,0.66,0.22,0.93,0.67
				v0c0.1,0.47,0.11,1.06-0.01,1.68C134.5,108.42,134.02,109.28,133.5,109.55"/>
			<path class="st6" d="M135.71,107c-0.32-0.43-0.56-1.13-0.65-1.92c-0.15-1.4,0.26-2.58,0.92-2.65c0.33-0.03,0.66,0.22,0.93,0.67v0
				c0.1,0.47,0.11,1.06-0.01,1.68C136.71,105.87,136.23,106.73,135.71,107"/>
			<path class="st6" d="M137.04,106.39c0-0.53,0.2-1.24,0.6-1.93c0.7-1.22,1.74-1.96,2.31-1.64c0.29,0.16,0.41,0.56,0.36,1.07l0,0
				c-0.19,0.44-0.54,0.92-1,1.37C138.52,106.03,137.62,106.46,137.04,106.39"/>
			<path class="st6" d="M134.93,108c0.33-0.43,0.93-0.86,1.68-1.17c1.32-0.55,2.59-0.51,2.85,0.08c0.13,0.3-0.02,0.69-0.38,1.07l0,0
				c-0.43,0.23-1,0.41-1.64,0.49C136.33,108.6,135.35,108.4,134.93,108"/>
			<path class="st6" d="M130.16,113.9c-0.47-0.27-0.98-0.8-1.38-1.5c-0.71-1.22-0.83-2.46-0.26-2.78c0.29-0.16,0.7-0.06,1.12,0.24
				l0,0c0.28,0.39,0.53,0.92,0.69,1.54C130.61,112.46,130.52,113.44,130.16,113.9"/>
			<path class="st6" d="M130.9,112.46c-0.25-0.48-0.39-1.19-0.36-1.99c0.06-1.4,0.64-2.52,1.29-2.49c0.33,0.01,0.62,0.31,0.82,0.79
				l0,0c0.03,0.48-0.05,1.06-0.25,1.66C132.06,111.48,131.45,112.26,130.9,112.46"/>
			<path class="st6" d="M132.43,111.26c0.2-0.5,0.66-1.07,1.29-1.57c1.12-0.88,2.35-1.18,2.77-0.68c0.21,0.25,0.17,0.67-0.07,1.12
				l0,0c-0.35,0.34-0.85,0.66-1.44,0.91C133.95,111.47,132.95,111.54,132.43,111.26"/>
			<path class="st6" d="M129.65,114.3c0.2-0.5,0.66-1.07,1.29-1.57c1.12-0.88,2.36-1.18,2.77-0.68c0.21,0.25,0.17,0.67-0.07,1.12
				l0,0c-0.35,0.34-0.85,0.66-1.44,0.91C131.17,114.51,130.17,114.58,129.65,114.3"/>
			<path class="st6" d="M126.83,117.96c0.14-0.52,0.52-1.15,1.08-1.72c0.99-1.01,2.18-1.46,2.66-1.01c0.24,0.23,0.25,0.64,0.08,1.13
				l0,0c-0.3,0.38-0.76,0.76-1.32,1.08C128.36,117.98,127.38,118.17,126.83,117.96"/>
			<path class="st6" d="M128.32,117.49c0.05-0.32,0.23-0.72,0.53-1.1c0.53-0.67,1.21-1.01,1.52-0.77c0.16,0.12,0.19,0.37,0.12,0.67
				l0,0c-0.15,0.24-0.4,0.5-0.71,0.73C129.23,117.4,128.66,117.58,128.32,117.49"/>
			<path class="st6" d="M135.78,106.6c-0.18-0.27-0.32-0.69-0.35-1.16c-0.06-0.84,0.21-1.54,0.6-1.57c0.2-0.01,0.39,0.15,0.54,0.42
				v0c0.05,0.28,0.04,0.64-0.04,1.01C136.4,105.94,136.1,106.45,135.78,106.6"/>
			<path class="st6" d="M125.91,119.25c0.4-0.36,1.07-0.69,1.86-0.87c1.39-0.32,2.64-0.06,2.79,0.57c0.08,0.32-0.14,0.67-0.56,0.98
				h0c-0.46,0.16-1.06,0.23-1.7,0.2C127.18,120.08,126.25,119.71,125.91,119.25"/>
			<path class="st6" d="M126.16,119.4c0.26-0.27,0.69-0.52,1.19-0.68c0.88-0.28,1.65-0.15,1.71,0.28c0.03,0.22-0.12,0.47-0.39,0.71
				h0c-0.29,0.13-0.67,0.2-1.07,0.21C126.92,119.93,126.36,119.71,126.16,119.4"/>
			<path class="st6" d="M123.87,123.73c0.2-0.5,0.66-1.07,1.29-1.57c1.12-0.88,2.36-1.18,2.77-0.68c0.21,0.25,0.17,0.67-0.07,1.12
				l0,0c-0.35,0.34-0.85,0.66-1.44,0.91C125.38,123.93,124.38,124,123.87,123.73"/>
			<path class="st6" d="M124.1,123.53c0.16-0.32,0.51-0.7,1-1.03c0.86-0.57,1.81-0.77,2.13-0.45c0.16,0.17,0.13,0.43-0.06,0.73v0
				c-0.27,0.22-0.66,0.43-1.12,0.59C125.26,123.66,124.49,123.71,124.1,123.53"/>
			<path class="st6" d="M123.01,125.28c-0.48-0.25-1.02-0.76-1.46-1.43c-0.77-1.18-0.94-2.42-0.39-2.77
				c0.28-0.18,0.69-0.09,1.13,0.19l0,0c0.3,0.37,0.58,0.9,0.76,1.5C123.39,123.83,123.35,124.81,123.01,125.28"/>
			<path class="st6" d="M123.21,126.27c-0.42-0.25-0.88-0.75-1.25-1.41c-0.66-1.17-0.8-2.41-0.31-2.76c0.25-0.18,0.61-0.1,0.99,0.18
				l0,0c0.26,0.37,0.5,0.89,0.65,1.5C123.55,124.81,123.51,125.79,123.21,126.27"/>
			<path class="st6" d="M125.07,121.31c-0.43-0.33-0.87-0.92-1.18-1.65c-0.55-1.29-0.51-2.54,0.1-2.79c0.31-0.12,0.7,0.03,1.08,0.38
				l0,0c0.23,0.42,0.41,0.98,0.49,1.61C125.7,119.94,125.48,120.9,125.07,121.31"/>
			<path class="st6" d="M124.99,121.35c-0.31-0.25-0.63-0.68-0.86-1.22c-0.41-0.95-0.4-1.86,0.03-2.03
				c0.21-0.09,0.49,0.03,0.77,0.29l0,0c0.14,0.25,0.25,0.56,0.32,0.92c-0.06-0.23-0.13-0.43-0.23-0.6l0,0
				c-0.22-0.2-0.44-0.3-0.61-0.23c-0.33,0.14-0.34,0.85-0.02,1.6c0.18,0.42,0.43,0.77,0.68,0.96c0.12-0.13,0.21-0.35,0.25-0.63
				C125.28,120.83,125.16,121.17,124.99,121.35"/>
			<path class="st6" d="M132.02,111.46c0.38,0.1,0.93,0.11,1.52-0.02c1.03-0.22,1.78-0.76,1.68-1.2c-0.05-0.22-0.31-0.37-0.69-0.44
				h0c-0.29,0.03-0.62,0.12-0.95,0.27c0.22-0.09,0.44-0.14,0.63-0.17h0c0.29,0.06,0.5,0.18,0.54,0.35c0.08,0.34-0.51,0.77-1.32,0.94
				c-0.46,0.1-0.89,0.1-1.19,0.02c0.03-0.17,0.17-0.37,0.38-0.56C132.29,110.92,132.07,111.21,132.02,111.46"/>
			<path class="st6" d="M127.13,118.39c-0.48-0.25-1.02-0.76-1.46-1.43c-0.77-1.18-0.94-2.42-0.39-2.77
				c0.28-0.18,0.69-0.09,1.13,0.19l0,0c0.3,0.37,0.58,0.9,0.76,1.5C127.51,116.94,127.47,117.92,127.13,118.39"/>
			<path class="st6" d="M126.74,117.54c-0.32-0.16-0.67-0.5-0.96-0.94c-0.51-0.78-0.62-1.59-0.26-1.82
				c0.19-0.11,0.46-0.06,0.75,0.12v0c0.2,0.25,0.38,0.59,0.5,0.99C126.98,116.59,126.96,117.23,126.74,117.54"/>
			<path class="st6" d="M130.49,113.25c-0.32-0.16-0.67-0.5-0.96-0.94c-0.51-0.78-0.62-1.59-0.26-1.82
				c0.19-0.11,0.46-0.06,0.75,0.12v0c0.2,0.25,0.38,0.59,0.5,0.99C130.74,112.3,130.71,112.94,130.49,113.25"/>
			<path class="st6" d="M128.06,116.18c-0.41-0.36-0.8-0.98-1.06-1.73c-0.46-1.33-0.32-2.57,0.3-2.78c0.32-0.1,0.7,0.08,1.05,0.45v0
				c0.2,0.44,0.34,1.01,0.37,1.64C128.78,114.86,128.5,115.81,128.06,116.18"/>
			<path class="st6" d="M123.24,127.54c-0.33,0.15-0.59,0.18-0.76,0.06c-1.01-0.68,1.59-6.09,5.8-12.09c4.21-6,8.44-10.31,9.44-9.63
				c0.05,0.04,0.1,0.08,0.13,0.15c-1.66,0.75-5.18,4.57-8.68,9.57C125.19,121.27,122.65,126.43,123.24,127.54"/>
			<path class="st7" d="M120.09,96.64c-0.51-0.19-1.1-0.63-1.62-1.25c-0.91-1.08-1.23-2.29-0.72-2.7c0.26-0.21,0.68-0.17,1.15,0.06
				l0,0c0.35,0.34,0.68,0.83,0.94,1.41C120.29,95.16,120.37,96.14,120.09,96.64"/>
			<path class="st7" d="M120.5,93.32c-0.51-0.19-1.1-0.63-1.62-1.25c-0.91-1.08-1.23-2.29-0.72-2.7c0.26-0.21,0.68-0.17,1.15,0.06
				l0,0c0.35,0.34,0.68,0.83,0.94,1.41C120.7,91.83,120.78,92.82,120.5,93.32"/>
			<path class="st7" d="M121.26,92.09c-0.3-0.45-0.53-1.14-0.58-1.94c-0.1-1.4,0.35-2.57,1.01-2.62c0.33-0.02,0.65,0.25,0.9,0.7v0
				c0.08,0.47,0.07,1.06-0.06,1.68C122.3,90.99,121.78,91.84,121.26,92.09"/>
			<path class="st7" d="M120.41,94.58c0.04-0.53,0.29-1.22,0.74-1.88c0.79-1.17,1.88-1.83,2.42-1.47c0.28,0.18,0.37,0.59,0.28,1.09
				l0,0c-0.23,0.42-0.6,0.88-1.09,1.29C121.92,94.32,120.98,94.68,120.41,94.58"/>
			<path class="st7" d="M119.75,102.07c-0.54,0.03-1.27-0.14-2-0.5c-1.28-0.63-2.07-1.61-1.78-2.19c0.15-0.29,0.55-0.43,1.07-0.41h0
				c0.46,0.17,0.96,0.48,1.44,0.91C119.31,100.63,119.79,101.5,119.75,102.07"/>
			<path class="st7" d="M119.56,100.47c-0.48-0.26-1-0.78-1.42-1.46c-0.74-1.2-0.89-2.44-0.32-2.78c0.28-0.17,0.7-0.07,1.13,0.22
				l0,0c0.29,0.38,0.56,0.91,0.72,1.52C119.97,99.03,119.91,100.01,119.56,100.47"/>
			<path class="st7" d="M120.16,98.65c-0.11-0.52-0.05-1.25,0.19-2.01c0.44-1.34,1.3-2.26,1.93-2.06c0.32,0.1,0.51,0.47,0.57,0.98v0
				c-0.1,0.47-0.34,1.01-0.7,1.54C121.54,98,120.74,98.6,120.16,98.65"/>
			<path class="st7" d="M119.55,102.69c-0.11-0.52-0.05-1.25,0.19-2.01c0.44-1.34,1.3-2.26,1.93-2.06c0.32,0.1,0.51,0.47,0.57,0.98
				v0c-0.1,0.47-0.34,1.01-0.7,1.54C120.93,102.04,120.13,102.64,119.55,102.69"/>
			<path class="st7" d="M119.25,107.26c-0.18-0.51-0.21-1.24-0.07-2.02c0.26-1.38,1-2.4,1.65-2.28c0.33,0.06,0.57,0.4,0.7,0.9v0
				c-0.04,0.48-0.2,1.04-0.49,1.61C120.54,106.45,119.83,107.14,119.25,107.26"/>
			<path class="st7" d="M120.23,106.06c-0.14-0.29-0.21-0.72-0.17-1.2c0.07-0.84,0.44-1.49,0.83-1.47c0.2,0.01,0.37,0.2,0.48,0.49v0
				c0.01,0.29-0.05,0.63-0.19,0.99C120.94,105.5,120.56,105.96,120.23,106.06"/>
			<path class="st7" d="M120.34,92.95c-0.3-0.12-0.65-0.4-0.95-0.78c-0.52-0.67-0.69-1.4-0.38-1.64c0.16-0.12,0.41-0.09,0.69,0.06v0
				c0.2,0.21,0.39,0.51,0.54,0.86C120.48,92.06,120.51,92.65,120.34,92.95"/>
			<path class="st7" d="M119.21,108.84c0.13-0.52,0.51-1.15,1.07-1.73c0.98-1.02,2.17-1.48,2.65-1.04c0.24,0.23,0.26,0.64,0.09,1.12
				l0,0c-0.3,0.38-0.75,0.77-1.31,1.09C120.74,108.84,119.76,109.04,119.21,108.84"/>
			<path class="st7" d="M119.51,108.83c0.07-0.37,0.29-0.81,0.61-1.21c0.58-0.7,1.29-1.01,1.59-0.69c0.15,0.16,0.17,0.46,0.07,0.8h0
				c-0.17,0.26-0.44,0.53-0.77,0.75C120.44,108.86,119.84,108.98,119.51,108.83"/>
			<path class="st7" d="M120.03,113.67c-0.11-0.52-0.05-1.25,0.19-2.01c0.44-1.34,1.3-2.26,1.93-2.06c0.32,0.1,0.51,0.47,0.57,0.98
				v0c-0.1,0.47-0.34,1.01-0.7,1.54C121.41,113.03,120.61,113.63,120.03,113.67"/>
			<path class="st7" d="M120.11,113.39c-0.05-0.35,0.03-0.86,0.26-1.4c0.4-0.94,1.08-1.63,1.52-1.53c0.23,0.05,0.35,0.29,0.36,0.64
				v0c-0.1,0.33-0.3,0.71-0.6,1.1C121.15,112.87,120.53,113.32,120.11,113.39"/>
			<path class="st7" d="M120.19,115.44c-0.54,0.05-1.28-0.08-2.02-0.41c-1.31-0.57-2.15-1.51-1.88-2.1c0.13-0.3,0.53-0.45,1.05-0.46
				l0,0c0.46,0.15,0.99,0.44,1.48,0.84C119.68,114.02,120.2,114.87,120.19,115.44"/>
			<path class="st7" d="M120.91,116.15c-0.49,0.02-1.16-0.15-1.84-0.5c-1.21-0.62-2.02-1.58-1.81-2.14
				c0.11-0.28,0.45-0.41,0.92-0.39h0c0.43,0.17,0.91,0.48,1.38,0.9C120.37,114.75,120.89,115.59,120.91,116.15"/>
			<path class="st7" d="M119.67,111c-0.54-0.04-1.24-0.3-1.92-0.74c-1.19-0.78-1.85-1.85-1.49-2.38c0.19-0.27,0.6-0.36,1.12-0.27
				l0,0c0.43,0.22,0.9,0.6,1.31,1.08C119.42,109.53,119.78,110.44,119.67,111"/>
			<path class="st7" d="M119.62,111.09c-0.4-0.04-0.91-0.23-1.41-0.55c-0.88-0.57-1.38-1.34-1.12-1.71
				c0.13-0.19,0.43-0.24,0.81-0.17h0c0.25,0.13,0.53,0.33,0.79,0.59c-0.17-0.16-0.36-0.29-0.53-0.38l0,0
				c-0.29-0.05-0.53-0.01-0.63,0.14c-0.2,0.29,0.19,0.89,0.88,1.34c0.39,0.25,0.79,0.41,1.1,0.43c0.03-0.17-0.02-0.4-0.15-0.66
				C119.57,110.49,119.67,110.84,119.62,111.09"/>
			<path class="st7" d="M119.93,99.03c0.38-0.12,0.84-0.41,1.25-0.84c0.73-0.74,1.05-1.59,0.72-1.91c-0.17-0.16-0.47-0.14-0.83,0
				l0,0c-0.22,0.18-0.44,0.44-0.64,0.74c0.14-0.19,0.28-0.36,0.43-0.48l0,0c0.28-0.11,0.52-0.12,0.65,0
				c0.26,0.24,0.01,0.91-0.57,1.49c-0.33,0.33-0.69,0.56-0.98,0.66c-0.07-0.16-0.07-0.4,0-0.67
				C119.85,98.44,119.83,98.8,119.93,99.03"/>
			<path class="st7" d="M119.75,107.46c-0.54,0.05-1.28-0.08-2.02-0.41c-1.31-0.57-2.15-1.51-1.88-2.1c0.14-0.3,0.53-0.45,1.05-0.46
				l0,0c0.46,0.15,0.99,0.44,1.48,0.84C119.24,106.04,119.76,106.89,119.75,107.46"/>
			<path class="st7" d="M118.94,106.97c-0.36,0.03-0.84-0.05-1.33-0.27c-0.86-0.37-1.41-0.99-1.24-1.38c0.09-0.19,0.35-0.3,0.69-0.3
				l0,0c0.3,0.1,0.65,0.29,0.97,0.55C118.61,106.03,118.95,106.59,118.94,106.97"/>
			<path class="st7" d="M119.66,101.36c-0.36,0.03-0.84-0.05-1.33-0.27c-0.86-0.37-1.41-0.99-1.24-1.38c0.09-0.19,0.35-0.3,0.69-0.3
				h0c0.3,0.1,0.65,0.29,0.97,0.55C119.33,100.43,119.67,100.98,119.66,101.36"/>
			<path class="st7" d="M119.28,105.12c-0.54-0.08-1.22-0.38-1.86-0.87c-1.13-0.86-1.71-1.97-1.31-2.48
				c0.2-0.26,0.62-0.31,1.13-0.19l0,0c0.41,0.25,0.85,0.66,1.23,1.17C119.14,103.62,119.43,104.56,119.28,105.12"/>
			<path class="st7" d="M121.65,117.2c-0.19,0.31-0.39,0.47-0.6,0.46c-1.22-0.02-2.1-5.94-1.96-13.22
				c0.14-7.28,1.24-13.16,2.46-13.14c0.07,0,0.13,0.02,0.19,0.06c-0.96,1.52-1.75,6.61-1.86,12.68
				C119.75,110.92,120.53,116.58,121.65,117.2"/>
			<path class="st8" d="M115.69,105.35c-0.54-0.05-1.24-0.31-1.91-0.76c-1.18-0.79-1.83-1.87-1.46-2.4c0.19-0.27,0.6-0.35,1.12-0.26
				h0c0.43,0.23,0.89,0.61,1.3,1.1C115.46,103.87,115.81,104.79,115.69,105.35"/>
			<path class="st8" d="M115.15,102.04c-0.54-0.05-1.24-0.31-1.91-0.76c-1.18-0.79-1.83-1.87-1.46-2.4c0.19-0.27,0.6-0.35,1.12-0.26
				h0c0.43,0.23,0.89,0.61,1.3,1.1C114.92,100.56,115.27,101.48,115.15,102.04"/>
			<path class="st8" d="M115.53,100.66c-0.42-0.35-0.83-0.96-1.11-1.7c-0.49-1.32-0.39-2.56,0.23-2.79c0.31-0.11,0.7,0.06,1.07,0.42
				l0,0c0.21,0.43,0.37,1,0.41,1.63C116.22,99.32,115.96,100.27,115.53,100.66"/>
			<path class="st8" d="M115.41,103.28c-0.11-0.52-0.06-1.25,0.18-2.01c0.43-1.34,1.29-2.27,1.91-2.07c0.32,0.1,0.52,0.46,0.58,0.97
				v0c-0.1,0.47-0.33,1.01-0.69,1.54C116.79,102.62,116,103.23,115.41,103.28"/>
			<path class="st8" d="M116.9,110.66c-0.52,0.17-1.26,0.21-2.06,0.06c-1.41-0.26-2.45-0.98-2.33-1.62
				c0.06-0.32,0.41-0.56,0.92-0.68h0c0.49,0.04,1.06,0.2,1.64,0.49C116.07,109.4,116.77,110.1,116.9,110.66"/>
			<path class="st8" d="M116.26,109.18c-0.53-0.12-1.18-0.48-1.78-1.02c-1.05-0.95-1.54-2.11-1.09-2.58
				c0.23-0.24,0.65-0.26,1.14-0.1l0,0c0.39,0.29,0.79,0.72,1.13,1.27C116.25,107.68,116.46,108.64,116.26,109.18"/>
			<path class="st8" d="M116.33,107.26c-0.25-0.47-0.41-1.19-0.38-1.99c0.04-1.4,0.61-2.52,1.27-2.5c0.33,0.01,0.63,0.31,0.83,0.78
				v0c0.03,0.48-0.04,1.06-0.23,1.66C117.47,106.26,116.87,107.05,116.33,107.26"/>
			<path class="st8" d="M116.88,111.3c-0.25-0.47-0.41-1.19-0.38-1.99c0.04-1.4,0.61-2.52,1.27-2.5c0.33,0.01,0.63,0.31,0.83,0.78v0
				c0.03,0.48-0.04,1.06-0.23,1.66C118.02,110.31,117.43,111.1,116.88,111.3"/>
			<path class="st8" d="M117.88,115.78c-0.31-0.44-0.56-1.13-0.63-1.92c-0.14-1.4,0.28-2.58,0.94-2.64
				c0.33-0.03,0.66,0.23,0.92,0.67v0c0.1,0.47,0.1,1.06-0.02,1.68C118.89,114.65,118.4,115.51,117.88,115.78"/>
			<path class="st8" d="M118.48,114.37c-0.22-0.24-0.41-0.64-0.5-1.11c-0.18-0.82,0-1.56,0.39-1.63c0.19-0.04,0.41,0.1,0.59,0.34v0
				c0.09,0.27,0.13,0.63,0.1,1C119.01,113.63,118.77,114.17,118.48,114.37"/>
			<path class="st8" d="M114.88,101.73c-0.32-0.04-0.74-0.21-1.13-0.49c-0.69-0.5-1.06-1.16-0.83-1.47c0.12-0.16,0.37-0.2,0.68-0.13
				h0c0.25,0.15,0.52,0.38,0.76,0.68C114.77,100.84,114.97,101.4,114.88,101.73"/>
			<path class="st8" d="M118.29,117.31c-0.02-0.53,0.16-1.24,0.54-1.95c0.66-1.24,1.67-2.01,2.25-1.71c0.3,0.15,0.43,0.54,0.4,1.06
				l0,0c-0.18,0.45-0.5,0.94-0.95,1.4C119.76,116.9,118.87,117.35,118.29,117.31"/>
			<path class="st8" d="M118.57,117.22c-0.04-0.37,0.05-0.85,0.25-1.33c0.36-0.83,0.95-1.32,1.33-1.09c0.19,0.12,0.29,0.39,0.3,0.75
				v0c-0.09,0.3-0.27,0.63-0.53,0.93C119.47,116.99,118.94,117.27,118.57,117.22"/>
			<path class="st8" d="M120.44,121.73c-0.25-0.47-0.41-1.19-0.38-1.99c0.04-1.4,0.61-2.52,1.27-2.5c0.33,0.01,0.63,0.31,0.83,0.78
				v0c0.03,0.48-0.04,1.06-0.23,1.66C121.58,120.74,120.98,121.53,120.44,121.73"/>
			<path class="st8" d="M120.43,121.44c-0.15-0.33-0.21-0.84-0.15-1.41c0.11-1.02,0.58-1.86,1.03-1.88
				c0.23-0.01,0.42,0.19,0.53,0.52v0c-0.01,0.34-0.09,0.77-0.26,1.22C121.29,120.65,120.82,121.26,120.43,121.44"/>
			<path class="st8" d="M121.09,123.38c-0.51,0.2-1.25,0.27-2.05,0.16c-1.42-0.19-2.49-0.87-2.4-1.51c0.05-0.32,0.38-0.58,0.88-0.72
				h0c0.49,0.02,1.07,0.15,1.66,0.41C120.2,122.16,120.94,122.83,121.09,123.38"/>
			<path class="st8" d="M121.98,123.87c-0.46,0.15-1.15,0.17-1.91,0.02c-1.34-0.27-2.39-0.97-2.35-1.56
				c0.02-0.3,0.32-0.52,0.78-0.62h0c0.46,0.05,1.01,0.21,1.58,0.49C121.07,122.67,121.81,123.34,121.98,123.87"/>
			<path class="st8" d="M119.34,119.26c-0.53,0.11-1.28,0.05-2.05-0.19c-1.36-0.43-2.3-1.27-2.1-1.89c0.1-0.31,0.48-0.5,1-0.56h0
				c0.48,0.1,1.03,0.33,1.57,0.68C118.68,117.91,119.29,118.69,119.34,119.26"/>
			<path class="st8" d="M119.32,119.36c-0.39,0.07-0.94,0.03-1.51-0.15c-1-0.31-1.7-0.91-1.56-1.34c0.07-0.21,0.35-0.35,0.73-0.38v0
				c0.28,0.06,0.6,0.18,0.92,0.35c-0.21-0.11-0.42-0.18-0.61-0.22h0c-0.3,0.03-0.51,0.13-0.57,0.3c-0.11,0.34,0.44,0.81,1.23,1.05
				c0.45,0.14,0.87,0.18,1.18,0.12c-0.02-0.17-0.14-0.38-0.33-0.59C119.1,118.8,119.29,119.11,119.32,119.36"/>
			<path class="st8" d="M116.21,107.69c0.33-0.22,0.69-0.63,0.97-1.14c0.5-0.91,0.56-1.82,0.16-2.03c-0.21-0.1-0.5-0.01-0.79,0.23v0
				c-0.16,0.23-0.3,0.54-0.41,0.89c0.08-0.22,0.17-0.42,0.28-0.58v0c0.23-0.18,0.46-0.26,0.62-0.18c0.32,0.16,0.26,0.88-0.13,1.59
				c-0.22,0.41-0.5,0.73-0.76,0.9c-0.11-0.14-0.18-0.37-0.19-0.65C115.97,107.14,116.05,107.49,116.21,107.69"/>
			<path class="st8" d="M118.41,115.84c-0.51,0.2-1.25,0.27-2.05,0.16c-1.42-0.19-2.49-0.87-2.4-1.51c0.05-0.32,0.38-0.58,0.88-0.72
				h0c0.49,0.02,1.07,0.15,1.66,0.41C117.53,114.61,118.27,115.28,118.41,115.84"/>
			<path class="st8" d="M117.5,115.58c-0.33,0.13-0.82,0.18-1.35,0.1c-0.93-0.13-1.64-0.57-1.58-0.99c0.03-0.21,0.25-0.38,0.58-0.48
				h0c0.32,0.01,0.71,0.1,1.09,0.27C116.92,114.78,117.4,115.22,117.5,115.58"/>
			<path class="st8" d="M116.61,110c-0.33,0.13-0.82,0.18-1.35,0.1c-0.93-0.13-1.64-0.57-1.58-0.99c0.03-0.21,0.25-0.38,0.58-0.48
				c0.32,0.01,0.71,0.1,1.09,0.27C116.03,109.19,116.51,109.63,116.61,110"/>
			<path class="st8" d="M117.3,113.71c-0.54,0.07-1.28-0.04-2.03-0.33c-1.33-0.52-2.2-1.43-1.96-2.03c0.12-0.3,0.51-0.47,1.03-0.49
				h0c0.47,0.13,1,0.4,1.51,0.79C116.74,112.32,117.29,113.14,117.3,113.71"/>
			<path class="st8" d="M122.99,124.68c-0.1,0.35-0.25,0.56-0.44,0.61c-1.18,0.31-3.7-5.14-5.62-12.17
				c-1.92-7.03-2.53-12.99-1.34-13.3c0.06-0.02,0.13-0.02,0.2,0c-0.5,1.72,0.19,6.83,1.79,12.69
				C119.39,119.16,121.74,124.39,122.99,124.68"/>
		</g>
		<polygon class="st9" points="116.46,126.94 123.85,158.55 131.24,126.94 		"/>
		<g>
			<defs>
				<rect id="SVGID_3_" x="111.68" y="87.54" width="28.65" height="71.01"/>
			</defs>
			<clipPath id="SVGID_4_">
				<use xlink:href="#SVGID_3_"  style="overflow:visible;"/>
			</clipPath>
			<path class="st10" d="M124.63,142.96c-2.46,4.3-6.48,6.67-8.97,5.3c-0.68-0.37-1.17-0.99-1.48-1.76
				c2.39-0.01,5.39-2.23,7.37-5.69c1.79-3.13,2.28-6.42,1.44-8.5c0.58-0.01,1.12,0.12,1.6,0.39
				C127.09,134.06,127.1,138.66,124.63,142.96"/>
			<path class="st11" d="M126.82,144.75c-2.01,5.84-5.63,9.92-8.09,9.11c-0.67-0.22-1.18-0.78-1.53-1.6
				c2.26-0.78,4.93-4.35,6.55-9.05c1.47-4.25,1.68-8.27,0.73-10.45c0.55-0.19,1.07-0.22,1.54-0.06
				C128.48,133.51,128.83,138.9,126.82,144.75"/>
			<path class="st11" d="M124.43,141.43c-1.86,4.52-5.31,7.41-7.72,6.46c-0.65-0.26-1.16-0.78-1.52-1.48
				c2.19-0.37,4.73-2.96,6.22-6.6c1.35-3.29,1.49-6.54,0.53-8.42c0.53-0.09,1.03-0.05,1.5,0.13
				C125.85,132.47,126.29,136.9,124.43,141.43"/>
			<path class="st10" d="M127.21,143.11c-1.31,5.57-4.49,9.6-7.11,9.01c-0.28-0.06-0.53-0.17-0.78-0.33
				c2.42-0.31,5.09-4.06,6.26-9.05c1.17-4.98,0.45-9.49-1.6-10.81c0.29-0.04,0.57-0.03,0.85,0.03
				C127.46,132.56,128.52,137.55,127.21,143.11"/>
		</g>
		<polygon class="st12" points="118.14,138.78 123.77,130.3 112.82,130.22 		"/>
		<polygon class="st12" points="124.59,130.96 135.54,131.05 129.91,139.53 		"/>
		<polygon class="st13" points="125,130.62 135.95,130.7 130.32,139.18 		"/>
		<polygon class="st12" points="133.31,132.16 130.59,136.84 125.8,131.68 		"/>
		<polygon class="st13" points="117.81,138.13 123.44,129.64 112.49,129.56 		"/>
		<polygon class="st12" points="117.77,132.86 117.1,135.03 122.88,130.65 		"/>
		<polygon class="st12" points="116.37,130.61 115,132.67 122.36,129.82 		"/>
		<g>
			<defs>
				<rect id="SVGID_5_" x="111.68" y="87.54" width="28.65" height="71.01"/>
			</defs>
			<clipPath id="SVGID_6_">
				<use xlink:href="#SVGID_5_"  style="overflow:visible;"/>
			</clipPath>
			<path class="st14" d="M124.95,133.42l-1.65-0.32c-1.31-0.25-2.16-1.5-1.91-2.78c0.25-1.28,1.53-2.12,2.84-1.87l1.65,0.32
				c1.31,0.25,2.16,1.5,1.91,2.78C127.54,132.83,126.26,133.67,124.95,133.42"/>
		</g>
	</g>
</g>
<g id="Text">
</g>
<g id="Safe_Area" class="st0">
	<circle class="st15" cx="126" cy="126" r="54"/>
</g>
</svg>
