<?xml version="1.0" encoding="utf-8"?>
<!-- Generator: Adobe Illustrator 23.0.2, SVG Export Plug-In . SVG Version: 6.00 Build 0)  -->
<svg version="1.1" id="Layer_1" xmlns="http://www.w3.org/2000/svg" xmlns:xlink="http://www.w3.org/1999/xlink" x="0px" y="0px"
	 viewBox="0 0 360 504" style="enable-background:new 0 0 360 504;" xml:space="preserve">
<style type="text/css">
	.st0{fill:#FFFFFF;}
	.st1{fill:#BBA5CB;}
	.st2{enable-background:new    ;}
	.st3{fill:#252723;}
	.st4{clip-path:url(#SVGID_2_);fill:#BBA5CB;}
	.st5{clip-path:url(#SVGID_4_);fill:#BBA5CB;}
	.st6{clip-path:url(#SVGID_6_);fill:#BBA5CB;}
	.st7{clip-path:url(#SVGID_8_);fill:#BBA5CB;}
	.st8{clip-path:url(#SVGID_10_);fill:#BBA5CB;}
	.st9{clip-path:url(#SVGID_12_);fill:#BBA5CB;}
	.st10{clip-path:url(#SVGID_14_);fill:#BBA5CB;}
	.st11{clip-path:url(#SVGID_16_);fill:#BBA5CB;}
	.st12{clip-path:url(#SVGID_18_);fill:#BBA5CB;}
	.st13{clip-path:url(#SVGID_20_);fill:#BBA5CB;}
	.st14{clip-path:url(#SVGID_22_);fill:#BBA5CB;}
	.st15{clip-path:url(#SVGID_24_);fill:#BBA5CB;}
	.st16{clip-path:url(#SVGID_26_);fill:#BBA5CB;}
	.st17{clip-path:url(#SVGID_28_);fill:#BBA5CB;}
	.st18{clip-path:url(#SVGID_30_);fill:#BBA5CB;}
	.st19{clip-path:url(#SVGID_32_);fill:#BBA5CB;}
	.st20{clip-path:url(#SVGID_34_);fill:#BBA5CB;}
	.st21{clip-path:url(#SVGID_36_);fill:#BBA5CB;}
	.st22{clip-path:url(#SVGID_38_);fill:#BBA5CB;}
	.st23{clip-path:url(#SVGID_40_);fill:#BBA5CB;}
	.st24{clip-path:url(#SVGID_42_);fill:#BBA5CB;}
	.st25{clip-path:url(#SVGID_44_);fill:#BBA5CB;}
	.st26{clip-path:url(#SVGID_46_);fill:#BBA5CB;}
	.st27{clip-path:url(#SVGID_48_);fill:#BBA5CB;}
	.st28{clip-path:url(#SVGID_50_);fill:#BBA5CB;}
	.st29{clip-path:url(#SVGID_52_);fill:#BBA5CB;}
	.st30{clip-path:url(#SVGID_54_);fill:#BBA5CB;}
	.st31{clip-path:url(#SVGID_56_);fill:#BBA5CB;}
	.st32{clip-path:url(#SVGID_58_);fill:#BBA5CB;}
	.st33{clip-path:url(#SVGID_60_);fill:#BBA5CB;}
	.st34{clip-path:url(#SVGID_62_);fill:#BBA5CB;}
	.st35{clip-path:url(#SVGID_64_);fill:#BBA5CB;}
	.st36{clip-path:url(#SVGID_66_);fill:#BBA5CB;}
	.st37{clip-path:url(#SVGID_68_);fill:#BBA5CB;}
	.st38{clip-path:url(#SVGID_70_);fill:#BBA5CB;}
	.st39{clip-path:url(#SVGID_72_);fill:#BBA5CB;}
	.st40{clip-path:url(#SVGID_74_);fill:#BBA5CB;}
	.st41{clip-path:url(#SVGID_76_);fill:#BBA5CB;}
	.st42{clip-path:url(#SVGID_78_);fill:#BBA5CB;}
	.st43{clip-path:url(#SVGID_80_);fill:#BBA5CB;}
	.st44{clip-path:url(#SVGID_82_);fill:#BBA5CB;}
	.st45{clip-path:url(#SVGID_84_);fill:#BBA5CB;}
	.st46{clip-path:url(#SVGID_86_);fill:#BBA5CB;}
	.st47{clip-path:url(#SVGID_88_);fill:#BBA5CB;}
	.st48{clip-path:url(#SVGID_90_);fill:#BBA5CB;}
	.st49{clip-path:url(#SVGID_92_);fill:#BBA5CB;}
	.st50{clip-path:url(#SVGID_94_);fill:#BBA5CB;}
	.st51{clip-path:url(#SVGID_96_);fill:#BBA5CB;}
	.st52{clip-path:url(#SVGID_98_);fill:#BBA5CB;}
	.st53{clip-path:url(#SVGID_100_);fill:#BBA5CB;}
	.st54{clip-path:url(#SVGID_102_);fill:#7A63A2;}
	.st55{clip-path:url(#SVGID_104_);fill:#7A63A2;}
	.st56{clip-path:url(#SVGID_106_);fill:#7A63A2;}
	.st57{clip-path:url(#SVGID_108_);fill:#7A63A2;}
	.st58{clip-path:url(#SVGID_110_);fill:#7A63A2;}
	.st59{clip-path:url(#SVGID_112_);fill:#7A63A2;}
	.st60{clip-path:url(#SVGID_114_);fill:#7A63A2;}
	.st61{clip-path:url(#SVGID_116_);fill:#7A63A2;}
	.st62{clip-path:url(#SVGID_118_);fill:#7A63A2;}
	.st63{clip-path:url(#SVGID_120_);fill:#7A63A2;}
	.st64{clip-path:url(#SVGID_122_);fill:#7A63A2;}
	.st65{clip-path:url(#SVGID_124_);fill:#7A63A2;}
	.st66{clip-path:url(#SVGID_126_);fill:#7A63A2;}
	.st67{clip-path:url(#SVGID_128_);fill:#7A63A2;}
	.st68{clip-path:url(#SVGID_130_);fill:#7A63A2;}
	.st69{clip-path:url(#SVGID_132_);fill:#7A63A2;}
	.st70{clip-path:url(#SVGID_134_);fill:#7A63A2;}
	.st71{clip-path:url(#SVGID_136_);fill:#7A63A2;}
	.st72{clip-path:url(#SVGID_138_);fill:#7A63A2;}
	.st73{clip-path:url(#SVGID_140_);fill:#7A63A2;}
	.st74{clip-path:url(#SVGID_142_);fill:#7A63A2;}
	.st75{clip-path:url(#SVGID_144_);fill:#7A63A2;}
	.st76{clip-path:url(#SVGID_146_);fill:#7A63A2;}
	.st77{clip-path:url(#SVGID_148_);fill:#7A63A2;}
	.st78{clip-path:url(#SVGID_150_);fill:#7A63A2;}
	.st79{clip-path:url(#SVGID_152_);fill:#7A63A2;}
	.st80{clip-path:url(#SVGID_154_);fill:#7A63A2;}
	.st81{clip-path:url(#SVGID_156_);fill:#7A63A2;}
	.st82{clip-path:url(#SVGID_158_);fill:#7A63A2;}
	.st83{clip-path:url(#SVGID_160_);fill:#7A63A2;}
	.st84{clip-path:url(#SVGID_162_);fill:#7A63A2;}
	.st85{clip-path:url(#SVGID_164_);fill:#7A63A2;}
	.st86{clip-path:url(#SVGID_166_);fill:#7A63A2;}
	.st87{clip-path:url(#SVGID_168_);fill:#7A63A2;}
	.st88{clip-path:url(#SVGID_170_);fill:#7A63A2;}
	.st89{clip-path:url(#SVGID_172_);fill:#7A63A2;}
	.st90{clip-path:url(#SVGID_174_);fill:#7A63A2;}
	.st91{clip-path:url(#SVGID_176_);fill:#7A63A2;}
	.st92{clip-path:url(#SVGID_178_);fill:#7A63A2;}
	.st93{clip-path:url(#SVGID_180_);fill:#7A63A2;}
	.st94{clip-path:url(#SVGID_182_);fill:#7A63A2;}
	.st95{clip-path:url(#SVGID_184_);fill:#7A63A2;}
	.st96{clip-path:url(#SVGID_186_);fill:#7A63A2;}
	.st97{clip-path:url(#SVGID_188_);fill:#7A63A2;}
	.st98{clip-path:url(#SVGID_190_);fill:#7A63A2;}
	.st99{clip-path:url(#SVGID_192_);fill:#7A63A2;}
	.st100{clip-path:url(#SVGID_194_);fill:#7A63A2;}
	.st101{clip-path:url(#SVGID_196_);fill:#7A63A2;}
	.st102{clip-path:url(#SVGID_198_);fill:#7A63A2;}
	.st103{clip-path:url(#SVGID_200_);fill:#7A63A2;}
	.st104{clip-path:url(#SVGID_202_);fill:#7A63A2;}
	.st105{clip-path:url(#SVGID_204_);fill:#7A63A2;}
	.st106{clip-path:url(#SVGID_206_);fill:#7A63A2;}
	.st107{clip-path:url(#SVGID_208_);fill:#7A63A2;}
	.st108{clip-path:url(#SVGID_210_);fill:#7A63A2;}
	.st109{clip-path:url(#SVGID_212_);fill:#7A63A2;}
	.st110{clip-path:url(#SVGID_214_);fill:#7A63A2;}
	.st111{clip-path:url(#SVGID_216_);fill:#7A63A2;}
	.st112{clip-path:url(#SVGID_218_);fill:#7A63A2;}
	.st113{clip-path:url(#SVGID_220_);fill:#7A63A2;}
	.st114{clip-path:url(#SVGID_222_);fill:#7A63A2;}
	.st115{clip-path:url(#SVGID_224_);fill:#7A63A2;}
	.st116{clip-path:url(#SVGID_226_);fill:#7A63A2;}
	.st117{clip-path:url(#SVGID_228_);fill:#7A63A2;}
	.st118{clip-path:url(#SVGID_230_);fill:#7A63A2;}
	.st119{clip-path:url(#SVGID_232_);fill:#7A63A2;}
	.st120{clip-path:url(#SVGID_234_);fill:#7A63A2;}
	.st121{clip-path:url(#SVGID_236_);fill:#7A63A2;}
	.st122{clip-path:url(#SVGID_238_);fill:#7A63A2;}
	.st123{clip-path:url(#SVGID_240_);fill:#7A63A2;}
	.st124{clip-path:url(#SVGID_242_);fill:#7A63A2;}
	.st125{clip-path:url(#SVGID_244_);fill:#7A63A2;}
	.st126{clip-path:url(#SVGID_246_);fill:#7A63A2;}
	.st127{clip-path:url(#SVGID_248_);fill:#7A63A2;}
	.st128{clip-path:url(#SVGID_250_);fill:#7A63A2;}
	.st129{clip-path:url(#SVGID_252_);fill:#BBA5CB;}
	.st130{clip-path:url(#SVGID_254_);fill:#BBA5CB;}
	.st131{clip-path:url(#SVGID_256_);fill:#BBA5CB;}
	.st132{clip-path:url(#SVGID_258_);fill:#BBA5CB;}
	.st133{clip-path:url(#SVGID_260_);fill:#BBA5CB;}
	.st134{clip-path:url(#SVGID_262_);fill:#BBA5CB;}
	.st135{clip-path:url(#SVGID_264_);fill:#BBA5CB;}
	.st136{clip-path:url(#SVGID_266_);fill:#BBA5CB;}
	.st137{clip-path:url(#SVGID_268_);fill:#BBA5CB;}
	.st138{clip-path:url(#SVGID_270_);fill:#BBA5CB;}
	.st139{clip-path:url(#SVGID_272_);fill:#BBA5CB;}
	.st140{clip-path:url(#SVGID_274_);fill:#BBA5CB;}
	.st141{clip-path:url(#SVGID_276_);fill:#BBA5CB;}
	.st142{clip-path:url(#SVGID_278_);fill:#BBA5CB;}
	.st143{clip-path:url(#SVGID_280_);fill:#BBA5CB;}
	.st144{clip-path:url(#SVGID_282_);fill:#BBA5CB;}
	.st145{clip-path:url(#SVGID_284_);fill:#BBA5CB;}
	.st146{clip-path:url(#SVGID_286_);fill:#BBA5CB;}
	.st147{clip-path:url(#SVGID_288_);fill:#BBA5CB;}
	.st148{clip-path:url(#SVGID_290_);fill:#BBA5CB;}
	.st149{clip-path:url(#SVGID_292_);fill:#BBA5CB;}
	.st150{clip-path:url(#SVGID_294_);fill:#BBA5CB;}
	.st151{clip-path:url(#SVGID_296_);fill:#BBA5CB;}
	.st152{clip-path:url(#SVGID_298_);fill:#BBA5CB;}
	.st153{clip-path:url(#SVGID_300_);fill:#BBA5CB;}
	.st154{fill:#CEE0C0;}
	.st155{clip-path:url(#SVGID_302_);fill:#212020;}
	.st156{clip-path:url(#SVGID_304_);fill:#212020;}
	.st157{clip-path:url(#SVGID_306_);fill:#212020;}
	.st158{clip-path:url(#SVGID_308_);fill:#FFFFFF;}
	.st159{clip-path:url(#SVGID_310_);fill:#212020;}
	.st160{clip-path:url(#SVGID_312_);fill:#FFFFFF;}
	.st161{clip-path:url(#SVGID_314_);fill:#212020;}
	.st162{clip-path:url(#SVGID_316_);fill:#FFFFFF;}
	.st163{fill:#212020;}
	.st164{clip-path:url(#SVGID_318_);fill:#D188B3;}
	.st165{clip-path:url(#SVGID_320_);fill:#D8A1C3;}
	.st166{clip-path:url(#SVGID_322_);fill:#D8A1C3;}
	.st167{clip-path:url(#SVGID_324_);fill:#D188B3;}
	.st168{fill:#D8A1C3;}
	.st169{fill:#E2C5DB;}
	.st170{clip-path:url(#SVGID_326_);fill:#E2C5DB;}
</style>
<g id="Color_Strip">
	<rect x="45" y="63" class="st0" width="270" height="378"/>
	<rect x="45" y="373.31" class="st1" width="27.15" height="40.22"/>
	<rect x="164.86" y="373.31" class="st1" width="150.14" height="40.22"/>
</g>
<g id="Date">
	<g class="st2">
		<path class="st3" d="M91.99,406.36h-2.4l-0.47,1.24c-0.03,0.08-0.1,0.12-0.17,0.12c-0.02,0-0.04-0.01-0.07-0.01
			c-0.09-0.04-0.14-0.15-0.11-0.24l1.82-4.87c0.03-0.07,0.1-0.11,0.18-0.11c0.08,0,0.16,0.04,0.18,0.11l1.82,4.87
			c0.04,0.09-0.01,0.2-0.1,0.24c-0.03,0-0.04,0.01-0.07,0.01c-0.07,0-0.14-0.04-0.17-0.12L91.99,406.36z M89.73,405.99h2.12
			l-1.06-2.82L89.73,405.99z"/>
		<path class="st3" d="M93.73,404.21c0-0.11,0.08-0.18,0.18-0.18s0.18,0.08,0.18,0.18v2c0,0.63,0.5,1.13,1.13,1.14
			c0.63-0.01,1.14-0.51,1.14-1.14v-2c0-0.11,0.09-0.18,0.18-0.18c0.11,0,0.19,0.08,0.19,0.18v2c0,0.83-0.67,1.5-1.51,1.5
			c-0.83,0-1.49-0.68-1.49-1.5V404.21z"/>
		<path class="st3" d="M101.62,407.43c0,0.95-0.77,1.73-1.73,1.73c-0.27,0-0.53-0.07-0.77-0.17c-0.08-0.05-0.12-0.16-0.08-0.24
			c0.04-0.1,0.15-0.14,0.24-0.08c0.19,0.09,0.38,0.13,0.6,0.13c0.77,0,1.37-0.61,1.37-1.37v-0.45c-0.31,0.44-0.81,0.72-1.37,0.72
			c-0.96,0-1.73-0.82-1.73-1.83c0-0.99,0.77-1.82,1.73-1.82c0.56,0,1.07,0.29,1.37,0.72v-0.54c0-0.1,0.08-0.18,0.19-0.18
			c0.09,0,0.17,0.08,0.17,0.18V407.43z M101.26,405.87c0-0.82-0.62-1.46-1.37-1.46c-0.75,0-1.37,0.65-1.37,1.46
			c0,0.83,0.62,1.48,1.37,1.48C100.64,407.34,101.26,406.69,101.26,405.87z"/>
		<path class="st3" d="M105.31,407.4l2.46-2.21c0.29-0.27,0.45-0.63,0.45-1.01c0-0.32-0.12-0.65-0.35-0.9
			c-0.26-0.29-0.63-0.44-1-0.44c-0.33,0-0.65,0.11-0.92,0.35l-0.26,0.23c-0.07,0.08-0.19,0.07-0.25-0.01
			c-0.08-0.08-0.07-0.2,0.01-0.26l0.26-0.24c0.33-0.29,0.75-0.44,1.16-0.44c0.46,0,0.92,0.18,1.26,0.56
			c0.31,0.33,0.45,0.74,0.45,1.15c0,0.46-0.19,0.93-0.56,1.28l-2.1,1.9h2.48c0.1,0,0.18,0.08,0.18,0.19c0,0.1-0.08,0.18-0.18,0.18
			h-2.93h-0.03c-0.05,0-0.11-0.01-0.14-0.05C105.24,407.58,105.24,407.47,105.31,407.4z"/>
		<path class="st3" d="M112.92,402.79l-1.36,1.4c0.33,0.07,0.65,0.23,0.9,0.48c0.35,0.34,0.52,0.8,0.52,1.26s-0.17,0.92-0.53,1.26
			c-0.35,0.35-0.8,0.53-1.26,0.53c-0.45,0-0.91-0.17-1.25-0.53c-0.07-0.07-0.07-0.19,0-0.26c0.07-0.08,0.19-0.08,0.26,0
			c0.28,0.27,0.63,0.41,0.99,0.41s0.72-0.13,1-0.41c0.28-0.28,0.41-0.64,0.41-1s-0.14-0.72-0.41-0.99
			c-0.27-0.28-0.63-0.41-0.99-0.41c-0.06,0-0.11-0.03-0.15-0.08h-0.01c-0.08-0.08-0.08-0.2,0-0.27l1.31-1.34h-2.01
			c-0.1,0-0.19-0.08-0.19-0.19s0.08-0.19,0.19-0.19h2.46c0.1,0,0.19,0.08,0.19,0.19c0,0.03-0.01,0.06-0.02,0.08
			C112.95,402.76,112.93,402.78,112.92,402.79z"/>
		<path class="st3" d="M116.65,405.11c0-0.08,0.06-0.14,0.14-0.14h1.6c0.07,0,0.14,0.05,0.14,0.14c0,0.09-0.07,0.15-0.14,0.15h-1.6
			C116.71,405.26,116.65,405.2,116.65,405.11z"/>
		<path class="st3" d="M122.01,406.74c0.06-0.08,0.17-0.08,0.23-0.02c0.39,0.32,1.04,0.68,1.73,0.68c0.46,0,0.87-0.14,1.16-0.35
			c0.29-0.21,0.45-0.49,0.45-0.78c0-0.3-0.14-0.53-0.43-0.72c-0.29-0.19-0.71-0.33-1.22-0.43h-0.02c-0.49-0.09-0.92-0.22-1.24-0.44
			c-0.32-0.21-0.54-0.53-0.54-0.92c0-0.4,0.22-0.74,0.55-0.98c0.33-0.24,0.77-0.38,1.27-0.38c0.69,0,1.21,0.34,1.62,0.61
			c0.08,0.05,0.1,0.15,0.04,0.23c-0.04,0.08-0.15,0.1-0.23,0.04c-0.41-0.27-0.86-0.56-1.44-0.56c-0.43,0-0.81,0.13-1.07,0.32
			c-0.26,0.2-0.41,0.45-0.41,0.72c0.01,0.26,0.13,0.46,0.39,0.64c0.26,0.18,0.65,0.31,1.13,0.4H124c0.53,0.1,0.99,0.25,1.34,0.48
			c0.35,0.22,0.58,0.57,0.58,0.99c0,0.42-0.24,0.8-0.59,1.05c-0.35,0.25-0.83,0.41-1.35,0.41c-0.8-0.01-1.5-0.41-1.94-0.76
			C121.96,406.91,121.95,406.8,122.01,406.74z"/>
		<path class="st3" d="M126.9,405.89c0-1.02,0.8-1.85,1.79-1.85c0.95,0,1.7,0.75,1.77,1.71v0.01v0.02c0,0.1-0.08,0.17-0.18,0.17
			h-3.02c0.04,0.8,0.67,1.41,1.43,1.41c0.49,0,0.94-0.25,1.19-0.67c0.05-0.09,0.17-0.11,0.24-0.06c0.08,0.06,0.11,0.17,0.06,0.26
			c-0.32,0.5-0.86,0.83-1.49,0.83C127.7,407.72,126.9,406.89,126.9,405.89z M127.29,405.59h2.79c-0.12-0.69-0.71-1.19-1.38-1.19
			C128,404.4,127.42,404.9,127.29,405.59z"/>
		<path class="st3" d="M131.73,405.94v-0.08v-0.08v-1.57c0-0.1,0.08-0.18,0.18-0.18c0.1,0,0.19,0.08,0.19,0.18v0.53
			c0.32-0.43,0.83-0.71,1.4-0.71c0.99,0,1.78,0.82,1.78,1.82c0,1-0.79,1.83-1.78,1.83c-0.57,0-1.08-0.29-1.4-0.72v2.1
			c0,0.1-0.08,0.18-0.19,0.18c-0.1,0-0.18-0.08-0.18-0.18V405.94z M132.1,405.87c0,0.81,0.64,1.46,1.4,1.47
			c0.78-0.01,1.41-0.66,1.41-1.47s-0.63-1.46-1.41-1.46c-0.74,0-1.37,0.62-1.4,1.4V405.87z"/>
		<path class="st3" d="M138.64,407.4l2.46-2.21c0.29-0.27,0.45-0.63,0.45-1.01c0-0.32-0.12-0.65-0.35-0.9
			c-0.26-0.29-0.63-0.44-1-0.44c-0.33,0-0.65,0.11-0.92,0.35l-0.26,0.23c-0.07,0.08-0.19,0.07-0.25-0.01
			c-0.08-0.08-0.07-0.2,0.01-0.26l0.26-0.24c0.33-0.29,0.75-0.44,1.16-0.44c0.46,0,0.92,0.18,1.26,0.56
			c0.31,0.33,0.45,0.74,0.45,1.15c0,0.46-0.19,0.93-0.56,1.28l-2.1,1.9h2.48c0.1,0,0.18,0.08,0.18,0.19c0,0.1-0.08,0.18-0.18,0.18
			h-2.93h-0.03c-0.05,0-0.11-0.01-0.14-0.05C138.56,407.58,138.56,407.47,138.64,407.4z"/>
		<path class="st3" d="M143.06,407.4l2.46-2.21c0.29-0.27,0.45-0.63,0.45-1.01c0-0.32-0.12-0.65-0.35-0.9
			c-0.26-0.29-0.63-0.44-1-0.44c-0.33,0-0.65,0.11-0.92,0.35l-0.26,0.23c-0.07,0.08-0.19,0.07-0.25-0.01
			c-0.08-0.08-0.07-0.2,0.01-0.26l0.26-0.24c0.33-0.29,0.75-0.44,1.16-0.44c0.46,0,0.92,0.18,1.26,0.56
			c0.31,0.33,0.45,0.74,0.45,1.15c0,0.46-0.19,0.93-0.56,1.28l-2.1,1.9h2.48c0.1,0,0.18,0.08,0.18,0.19c0,0.1-0.08,0.18-0.18,0.18
			h-2.93h-0.03c-0.05,0-0.11-0.01-0.14-0.05C142.99,407.58,142.99,407.47,143.06,407.4z"/>
	</g>
</g>
<g id="Image">
	<g>
		<g>
			<g>
				<defs>
					<rect id="SVGID_1_" x="103.32" y="136.32" width="153.36" height="146.81"/>
				</defs>
				<clipPath id="SVGID_2_">
					<use xlink:href="#SVGID_1_"  style="overflow:visible;"/>
				</clipPath>
				<path class="st4" d="M134.96,223.55c-0.76,1.21-2.34,2.58-4.43,3.69c-3.68,1.97-7.57,2.46-8.7,1.08
					c-0.57-0.69-0.32-1.73,0.54-2.84l0,0c1.16-0.77,2.8-1.48,4.7-1.96C130.37,222.68,133.47,222.74,134.96,223.55"/>
			</g>
			<g>
				<defs>
					<rect id="SVGID_3_" x="103.32" y="136.32" width="153.36" height="146.81"/>
				</defs>
				<clipPath id="SVGID_4_">
					<use xlink:href="#SVGID_3_"  style="overflow:visible;"/>
				</clipPath>
				<path class="st5" d="M124.69,221.66c-0.76,1.21-2.34,2.58-4.43,3.69c-3.68,1.97-7.57,2.46-8.7,1.08
					c-0.56-0.69-0.32-1.73,0.54-2.84l0,0c1.16-0.77,2.8-1.48,4.7-1.97C120.1,220.79,123.2,220.85,124.69,221.66"/>
			</g>
			<g>
				<defs>
					<rect id="SVGID_5_" x="103.32" y="136.32" width="153.36" height="146.81"/>
				</defs>
				<clipPath id="SVGID_6_">
					<use xlink:href="#SVGID_5_"  style="overflow:visible;"/>
				</clipPath>
				<path class="st6" d="M121.1,219.46c-1.49,0.63-3.75,1.01-6.25,0.94c-4.41-0.12-7.93-1.54-7.87-3.19
					c0.04-0.83,0.98-1.56,2.47-2.06h0.01c1.5-0.09,3.34,0.1,5.24,0.6C117.98,216.59,120.46,218.09,121.1,219.46"/>
			</g>
			<g>
				<defs>
					<rect id="SVGID_7_" x="103.32" y="136.32" width="153.36" height="146.81"/>
				</defs>
				<clipPath id="SVGID_8_">
					<use xlink:href="#SVGID_7_"  style="overflow:visible;"/>
				</clipPath>
				<path class="st7" d="M128.6,222.22c-1.66-0.23-3.73-1.05-5.66-2.34c-3.41-2.27-5.13-5.14-3.84-6.41
					c0.65-0.64,1.95-0.76,3.51-0.42h0.01c1.26,0.67,2.57,1.73,3.7,3.06C128.28,218.41,129.12,220.82,128.6,222.22"/>
			</g>
			<g>
				<defs>
					<rect id="SVGID_9_" x="103.32" y="136.32" width="153.36" height="146.81"/>
				</defs>
				<clipPath id="SVGID_10_">
					<use xlink:href="#SVGID_9_"  style="overflow:visible;"/>
				</clipPath>
				<path class="st8" d="M151.85,225.83c-0.09,1.36-0.85,3.12-2.2,4.83c-2.38,3.01-5.69,4.73-7.41,3.85
					c-0.86-0.45-1.16-1.48-0.93-2.77l0,0c0.68-1.09,1.82-2.27,3.31-3.34C147.22,226.54,150.08,225.58,151.85,225.83"/>
			</g>
			<g>
				<defs>
					<rect id="SVGID_11_" x="103.32" y="136.32" width="153.36" height="146.81"/>
				</defs>
				<clipPath id="SVGID_12_">
					<use xlink:href="#SVGID_11_"  style="overflow:visible;"/>
				</clipPath>
				<path class="st9" d="M146.79,225.88c-0.97,1.11-2.77,2.28-5.03,3.15c-3.99,1.53-7.93,1.56-8.8,0.07
					c-0.44-0.75-0.01-1.75,1.03-2.75H134c1.29-0.63,3.03-1.14,5-1.4C142.4,224.48,145.46,224.9,146.79,225.88"/>
			</g>
			<g>
				<defs>
					<rect id="SVGID_13_" x="103.32" y="136.32" width="153.36" height="146.81"/>
				</defs>
				<clipPath id="SVGID_14_">
					<use xlink:href="#SVGID_13_"  style="overflow:visible;"/>
				</clipPath>
				<path class="st10" d="M141.26,223.91c-1.67,0.14-3.94-0.2-6.23-1.01c-4.04-1.44-6.65-3.82-5.84-5.33
					c0.41-0.76,1.63-1.15,3.24-1.17h0.01c1.43,0.37,3.05,1.1,4.59,2.13C139.68,220.31,141.3,222.45,141.26,223.91"/>
			</g>
			<g>
				<defs>
					<rect id="SVGID_15_" x="103.32" y="136.32" width="153.36" height="146.81"/>
				</defs>
				<clipPath id="SVGID_16_">
					<use xlink:href="#SVGID_15_"  style="overflow:visible;"/>
				</clipPath>
				<path class="st11" d="M153.71,226.48c-1.67,0.14-3.94-0.19-6.23-1.01c-4.04-1.44-6.65-3.82-5.84-5.33
					c0.41-0.76,1.63-1.15,3.24-1.17h0.01c1.43,0.37,3.05,1.1,4.59,2.13C152.13,222.88,153.75,225.02,153.71,226.48"/>
			</g>
			<g>
				<defs>
					<rect id="SVGID_17_" x="103.32" y="136.32" width="153.36" height="146.81"/>
				</defs>
				<clipPath id="SVGID_18_">
					<use xlink:href="#SVGID_17_"  style="overflow:visible;"/>
				</clipPath>
				<path class="st12" d="M167.94,228.43c-1.64,0.31-3.94,0.21-6.34-0.37c-4.23-1.01-7.2-3.11-6.62-4.69
					c0.29-0.8,1.43-1.31,3.03-1.49h0.01c1.48,0.22,3.2,0.78,4.88,1.65C165.81,225.02,167.75,226.98,167.94,228.43"/>
			</g>
			<g>
				<defs>
					<rect id="SVGID_19_" x="103.32" y="136.32" width="153.36" height="146.81"/>
				</defs>
				<clipPath id="SVGID_20_">
					<use xlink:href="#SVGID_19_"  style="overflow:visible;"/>
				</clipPath>
				<path class="st13" d="M164.5,225.69c-0.95,0.27-2.33,0.33-3.81,0.11c-2.61-0.38-4.54-1.48-4.33-2.45
					c0.11-0.49,0.75-0.86,1.69-1.05l0,0c0.9,0.06,1.97,0.3,3.04,0.73C162.96,223.76,164.27,224.83,164.5,225.69"/>
			</g>
			<g>
				<defs>
					<rect id="SVGID_21_" x="103.32" y="136.32" width="153.36" height="146.81"/>
				</defs>
				<clipPath id="SVGID_22_">
					<use xlink:href="#SVGID_21_"  style="overflow:visible;"/>
				</clipPath>
				<path class="st14" d="M123.48,221.98c-0.49,0.72-1.46,1.51-2.74,2.15c-2.25,1.12-4.6,1.35-5.24,0.51
					c-0.32-0.43-0.15-1.04,0.39-1.7l0,0c0.72-0.45,1.71-0.84,2.86-1.11C120.75,221.38,122.61,221.47,123.48,221.98"/>
			</g>
			<g>
				<defs>
					<rect id="SVGID_23_" x="103.32" y="136.32" width="153.36" height="146.81"/>
				</defs>
				<clipPath id="SVGID_24_">
					<use xlink:href="#SVGID_23_"  style="overflow:visible;"/>
				</clipPath>
				<path class="st15" d="M172.86,228.94c-1.58-0.46-3.44-1.56-5.08-3.1c-2.87-2.71-3.95-5.78-2.4-6.85
					c0.78-0.54,2.08-0.47,3.55,0.08l0,0c1.09,0.84,2.16,2.07,2.99,3.53C173.36,225.15,173.67,227.64,172.86,228.94"/>
			</g>
			<g>
				<defs>
					<rect id="SVGID_25_" x="103.32" y="136.32" width="153.36" height="146.81"/>
				</defs>
				<clipPath id="SVGID_26_">
					<use xlink:href="#SVGID_25_"  style="overflow:visible;"/>
				</clipPath>
				<path class="st16" d="M172.92,228.2c-1.12-0.27-2.44-0.92-3.59-1.84c-2.02-1.62-2.76-3.47-1.65-4.12
					c0.56-0.33,1.49-0.3,2.53,0.03l0,0c0.77,0.5,1.52,1.24,2.1,2.12C173.32,225.91,173.51,227.41,172.92,228.2"/>
			</g>
			<g>
				<defs>
					<rect id="SVGID_27_" x="103.32" y="136.32" width="153.36" height="146.81"/>
				</defs>
				<clipPath id="SVGID_28_">
					<use xlink:href="#SVGID_27_"  style="overflow:visible;"/>
				</clipPath>
				<path class="st17" d="M188.26,228.19c-1.67,0.14-3.94-0.2-6.23-1.01c-4.04-1.44-6.65-3.82-5.84-5.33
					c0.41-0.76,1.63-1.15,3.24-1.17h0.01c1.43,0.37,3.05,1.1,4.59,2.13C186.68,224.59,188.3,226.73,188.26,228.19"/>
			</g>
			<g>
				<defs>
					<rect id="SVGID_29_" x="103.32" y="136.32" width="153.36" height="146.81"/>
				</defs>
				<clipPath id="SVGID_30_">
					<use xlink:href="#SVGID_29_"  style="overflow:visible;"/>
				</clipPath>
				<path class="st18" d="M187.39,227.92c-1.13,0.03-2.68-0.31-4.29-1.01c-2.83-1.23-4.75-3.11-4.29-4.19
					c0.23-0.55,1.03-0.79,2.12-0.73l0,0c1,0.34,2.14,0.94,3.24,1.77C186.09,225.18,187.33,226.84,187.39,227.92"/>
			</g>
			<g>
				<defs>
					<rect id="SVGID_31_" x="103.32" y="136.32" width="153.36" height="146.81"/>
				</defs>
				<clipPath id="SVGID_32_">
					<use xlink:href="#SVGID_31_"  style="overflow:visible;"/>
				</clipPath>
				<path class="st19" d="M193.83,228.25c-0.01,1.36-0.66,3.15-1.91,4.91c-2.2,3.1-5.41,4.94-7.17,4.12
					c-0.89-0.41-1.24-1.43-1.09-2.74l0,0c0.61-1.11,1.68-2.34,3.11-3.46C189.24,229.13,192.05,228.06,193.83,228.25"/>
			</g>
			<g>
				<defs>
					<rect id="SVGID_33_" x="103.32" y="136.32" width="153.36" height="146.81"/>
				</defs>
				<clipPath id="SVGID_34_">
					<use xlink:href="#SVGID_33_"  style="overflow:visible;"/>
				</clipPath>
				<path class="st20" d="M196.29,226.65c-0.09,1.21-0.83,2.83-2.16,4.45c-2.33,2.84-5.59,4.61-7.27,3.95
					c-0.85-0.34-1.14-1.23-0.91-2.4l0,0c0.67-1.02,1.79-2.15,3.25-3.2C191.73,227.61,194.55,226.55,196.29,226.65"/>
			</g>
			<g>
				<defs>
					<rect id="SVGID_35_" x="103.32" y="136.32" width="153.36" height="146.81"/>
				</defs>
				<clipPath id="SVGID_36_">
					<use xlink:href="#SVGID_35_"  style="overflow:visible;"/>
				</clipPath>
				<path class="st21" d="M179.79,228.37c-0.3,1.34-1.32,3.01-2.92,4.57c-2.82,2.75-6.38,4.12-7.94,3.07
					c-0.79-0.53-0.92-1.58-0.5-2.85l0,0c0.84-1.01,2.15-2.07,3.8-2.98C175.08,228.61,178.07,227.94,179.79,228.37"/>
			</g>
			<g>
				<defs>
					<rect id="SVGID_37_" x="103.32" y="136.32" width="153.36" height="146.81"/>
				</defs>
				<clipPath id="SVGID_38_">
					<use xlink:href="#SVGID_37_"  style="overflow:visible;"/>
				</clipPath>
				<path class="st22" d="M180.03,228.52c-0.24,0.97-1.01,2.2-2.18,3.35c-2.06,2.03-4.62,3.08-5.71,2.34
					c-0.55-0.37-0.61-1.13-0.28-2.05l0,0c0.5-0.6,1.21-1.23,2.1-1.8c-0.56,0.39-1.02,0.81-1.35,1.21l0,0
					c-0.26,0.72-0.2,1.32,0.23,1.61c0.85,0.58,2.86-0.24,4.48-1.84c0.92-0.9,1.52-1.86,1.71-2.62c-0.52-0.12-1.27-0.05-2.1,0.19
					C178.16,228.48,179.28,228.34,180.03,228.52"/>
			</g>
			<g>
				<defs>
					<rect id="SVGID_39_" x="103.32" y="136.32" width="153.36" height="146.81"/>
				</defs>
				<clipPath id="SVGID_40_">
					<use xlink:href="#SVGID_39_"  style="overflow:visible;"/>
				</clipPath>
				<path class="st23" d="M142.4,224.58c-0.26-0.97-1.03-2.19-2.22-3.33c-2.09-2.02-4.66-3.04-5.74-2.3
					c-0.54,0.38-0.6,1.14-0.26,2.05l0,0c0.5,0.59,1.23,1.22,2.12,1.79c-0.56-0.39-1.02-0.8-1.36-1.2l0,0
					c-0.27-0.72-0.22-1.31,0.21-1.61c0.85-0.58,2.86,0.22,4.5,1.81c0.93,0.9,1.54,1.85,1.74,2.61c-0.52,0.13-1.27,0.06-2.11-0.18
					C140.52,224.63,141.64,224.76,142.4,224.58"/>
			</g>
			<g>
				<defs>
					<rect id="SVGID_41_" x="103.32" y="136.32" width="153.36" height="146.81"/>
				</defs>
				<clipPath id="SVGID_42_">
					<use xlink:href="#SVGID_41_"  style="overflow:visible;"/>
				</clipPath>
				<path class="st24" d="M168.72,227.25c-0.01,1.36-0.66,3.15-1.91,4.91c-2.2,3.1-5.41,4.94-7.17,4.12
					c-0.89-0.41-1.24-1.43-1.09-2.74l0,0c0.61-1.11,1.68-2.34,3.11-3.46C164.13,228.14,166.93,227.06,168.72,227.25"/>
			</g>
			<g>
				<defs>
					<rect id="SVGID_43_" x="103.32" y="136.32" width="153.36" height="146.81"/>
				</defs>
				<clipPath id="SVGID_44_">
					<use xlink:href="#SVGID_43_"  style="overflow:visible;"/>
				</clipPath>
				<path class="st25" d="M166.92,229.13c-0.01,0.9-0.44,2.07-1.26,3.23c-1.45,2.04-3.56,3.25-4.72,2.71
					c-0.59-0.27-0.82-0.94-0.72-1.8l0,0c0.4-0.73,1.11-1.54,2.05-2.28C163.9,229.71,165.74,229,166.92,229.13"/>
			</g>
			<g>
				<defs>
					<rect id="SVGID_45_" x="103.32" y="136.32" width="153.36" height="146.81"/>
				</defs>
				<clipPath id="SVGID_46_">
					<use xlink:href="#SVGID_45_"  style="overflow:visible;"/>
				</clipPath>
				<path class="st26" d="M149.59,225.86c-0.01,0.9-0.44,2.07-1.26,3.23c-1.45,2.04-3.56,3.25-4.72,2.71
					c-0.59-0.27-0.82-0.94-0.72-1.8l0,0c0.4-0.73,1.11-1.54,2.05-2.28C146.57,226.44,148.41,225.74,149.59,225.86"/>
			</g>
			<g>
				<defs>
					<rect id="SVGID_47_" x="103.32" y="136.32" width="153.36" height="146.81"/>
				</defs>
				<clipPath id="SVGID_48_">
					<use xlink:href="#SVGID_47_"  style="overflow:visible;"/>
				</clipPath>
				<path class="st27" d="M161.23,227.8c-0.42,1.32-1.58,2.93-3.32,4.39c-3.06,2.58-6.73,3.74-8.19,2.6
					c-0.74-0.58-0.78-1.63-0.24-2.87l0,0c0.93-0.96,2.33-1.94,4.05-2.75C156.51,227.76,159.55,227.27,161.23,227.8"/>
			</g>
			<g>
				<defs>
					<rect id="SVGID_49_" x="103.32" y="136.32" width="153.36" height="146.81"/>
				</defs>
				<clipPath id="SVGID_50_">
					<use xlink:href="#SVGID_49_"  style="overflow:visible;"/>
				</clipPath>
				<path class="st28" d="M199.8,225.08c0.9,0.56,1.34,1.1,1.26,1.61c-0.46,3.03-19.27,3.66-42.01,1.41s-40.82-6.53-40.36-9.56
					c0.02-0.16,0.1-0.32,0.23-0.47c4.46,2.8,20.15,6.08,39.09,7.95C179.54,228.15,197.54,227.7,199.8,225.08"/>
			</g>
			<g>
				<defs>
					<rect id="SVGID_51_" x="103.32" y="136.32" width="153.36" height="146.81"/>
				</defs>
				<clipPath id="SVGID_52_">
					<use xlink:href="#SVGID_51_"  style="overflow:visible;"/>
				</clipPath>
				<path class="st29" d="M128.95,241.05c-0.62,1.21-1.89,2.58-3.59,3.69c-2.98,1.97-6.13,2.46-7.04,1.08
					c-0.46-0.69-0.26-1.73,0.44-2.84l0,0c0.94-0.77,2.27-1.48,3.8-1.97C125.23,240.17,127.74,240.23,128.95,241.05"/>
			</g>
			<g>
				<defs>
					<rect id="SVGID_53_" x="103.32" y="136.32" width="153.36" height="146.81"/>
				</defs>
				<clipPath id="SVGID_54_">
					<use xlink:href="#SVGID_53_"  style="overflow:visible;"/>
				</clipPath>
				<path class="st30" d="M120.63,239.16c-0.62,1.21-1.89,2.58-3.59,3.69c-2.98,1.97-6.13,2.46-7.04,1.08
					c-0.46-0.69-0.26-1.73,0.44-2.84l0,0c0.94-0.77,2.27-1.48,3.8-1.97C116.91,238.28,119.42,238.34,120.63,239.16"/>
			</g>
			<g>
				<defs>
					<rect id="SVGID_55_" x="103.32" y="136.32" width="153.36" height="146.81"/>
				</defs>
				<clipPath id="SVGID_56_">
					<use xlink:href="#SVGID_55_"  style="overflow:visible;"/>
				</clipPath>
				<path class="st31" d="M117.72,236.95c-1.21,0.63-3.03,1.01-5.06,0.94c-3.57-0.12-6.42-1.55-6.37-3.19
					c0.03-0.83,0.79-1.56,2-2.06l0,0c1.22-0.09,2.71,0.1,4.24,0.6C115.2,234.08,117.21,235.58,117.72,236.95"/>
			</g>
			<g>
				<defs>
					<rect id="SVGID_57_" x="103.32" y="136.32" width="153.36" height="146.81"/>
				</defs>
				<clipPath id="SVGID_58_">
					<use xlink:href="#SVGID_57_"  style="overflow:visible;"/>
				</clipPath>
				<path class="st32" d="M123.79,239.71c-1.34-0.23-3.02-1.05-4.59-2.34c-2.76-2.27-4.15-5.14-3.11-6.41
					c0.53-0.64,1.58-0.76,2.84-0.42l0,0c1.02,0.67,2.08,1.73,3,3.06C123.54,235.9,124.22,238.32,123.79,239.71"/>
			</g>
			<g>
				<defs>
					<rect id="SVGID_59_" x="103.32" y="136.32" width="153.36" height="146.81"/>
				</defs>
				<clipPath id="SVGID_60_">
					<use xlink:href="#SVGID_59_"  style="overflow:visible;"/>
				</clipPath>
				<path class="st33" d="M142.63,243.33c-0.07,1.36-0.68,3.12-1.78,4.83c-1.93,3.01-4.61,4.73-6,3.85
					c-0.7-0.45-0.94-1.48-0.75-2.77l0,0c0.55-1.09,1.47-2.27,2.68-3.34C138.87,244.03,141.19,243.07,142.63,243.33"/>
			</g>
			<g>
				<defs>
					<rect id="SVGID_61_" x="103.32" y="136.32" width="153.36" height="146.81"/>
				</defs>
				<clipPath id="SVGID_62_">
					<use xlink:href="#SVGID_61_"  style="overflow:visible;"/>
				</clipPath>
				<path class="st34" d="M138.53,243.37c-0.78,1.11-2.24,2.28-4.08,3.15c-3.23,1.53-6.42,1.56-7.12,0.07
					c-0.35-0.75-0.01-1.75,0.84-2.75l0,0c1.04-0.63,2.45-1.14,4.04-1.4C134.97,241.98,137.45,242.39,138.53,243.37"/>
			</g>
			<g>
				<defs>
					<rect id="SVGID_63_" x="103.32" y="136.32" width="153.36" height="146.81"/>
				</defs>
				<clipPath id="SVGID_64_">
					<use xlink:href="#SVGID_63_"  style="overflow:visible;"/>
				</clipPath>
				<path class="st35" d="M134.05,241.4c-1.36,0.14-3.19-0.2-5.05-1.01c-3.27-1.44-5.39-3.82-4.73-5.33
					c0.33-0.76,1.32-1.15,2.62-1.17h0.01c1.16,0.37,2.47,1.1,3.71,2.13C132.77,237.8,134.08,239.94,134.05,241.4"/>
			</g>
			<g>
				<defs>
					<rect id="SVGID_65_" x="103.32" y="136.32" width="153.36" height="146.81"/>
				</defs>
				<clipPath id="SVGID_66_">
					<use xlink:href="#SVGID_65_"  style="overflow:visible;"/>
				</clipPath>
				<path class="st36" d="M144.13,243.97c-1.36,0.14-3.19-0.2-5.05-1.01c-3.27-1.44-5.39-3.82-4.73-5.33
					c0.34-0.76,1.32-1.15,2.62-1.17h0.01c1.16,0.37,2.47,1.1,3.71,2.13C142.85,240.37,144.16,242.52,144.13,243.97"/>
			</g>
			<g>
				<defs>
					<rect id="SVGID_67_" x="103.32" y="136.32" width="153.36" height="146.81"/>
				</defs>
				<clipPath id="SVGID_68_">
					<use xlink:href="#SVGID_67_"  style="overflow:visible;"/>
				</clipPath>
				<path class="st37" d="M155.65,245.92c-1.33,0.31-3.19,0.21-5.14-0.37c-3.43-1.01-5.83-3.11-5.36-4.69
					c0.24-0.8,1.16-1.31,2.45-1.49l0,0c1.2,0.22,2.59,0.78,3.95,1.65C153.93,242.51,155.5,244.47,155.65,245.92"/>
			</g>
			<g>
				<defs>
					<rect id="SVGID_69_" x="103.32" y="136.32" width="153.36" height="146.81"/>
				</defs>
				<clipPath id="SVGID_70_">
					<use xlink:href="#SVGID_69_"  style="overflow:visible;"/>
				</clipPath>
				<path class="st38" d="M152.87,243.18c-0.77,0.27-1.89,0.33-3.09,0.11c-2.11-0.38-3.68-1.48-3.5-2.45
					c0.09-0.49,0.61-0.86,1.37-1.05l0,0c0.73,0.06,1.6,0.3,2.47,0.73C151.62,241.26,152.69,242.32,152.87,243.18"/>
			</g>
			<g>
				<defs>
					<rect id="SVGID_71_" x="103.32" y="136.32" width="153.36" height="146.81"/>
				</defs>
				<clipPath id="SVGID_72_">
					<use xlink:href="#SVGID_71_"  style="overflow:visible;"/>
				</clipPath>
				<path class="st39" d="M119.65,239.47c-0.39,0.72-1.18,1.51-2.22,2.15c-1.83,1.12-3.73,1.35-4.24,0.51
					c-0.26-0.43-0.12-1.04,0.32-1.7l0,0c0.58-0.45,1.39-0.84,2.32-1.11C117.44,238.88,118.94,238.96,119.65,239.47"/>
			</g>
			<g>
				<defs>
					<rect id="SVGID_73_" x="103.32" y="136.32" width="153.36" height="146.81"/>
				</defs>
				<clipPath id="SVGID_74_">
					<use xlink:href="#SVGID_73_"  style="overflow:visible;"/>
				</clipPath>
				<path class="st40" d="M159.63,246.44c-1.28-0.46-2.79-1.56-4.11-3.1c-2.33-2.71-3.2-5.78-1.95-6.85
					c0.63-0.54,1.69-0.47,2.87,0.08l0,0c0.88,0.84,1.75,2.07,2.42,3.53C160.04,242.64,160.29,245.14,159.63,246.44"/>
			</g>
			<g>
				<defs>
					<rect id="SVGID_75_" x="103.32" y="136.32" width="153.36" height="146.81"/>
				</defs>
				<clipPath id="SVGID_76_">
					<use xlink:href="#SVGID_75_"  style="overflow:visible;"/>
				</clipPath>
				<path class="st41" d="M159.69,245.7c-0.91-0.27-1.98-0.92-2.91-1.84c-1.64-1.62-2.24-3.47-1.34-4.12
					c0.45-0.33,1.2-0.3,2.05,0.03l0,0c0.62,0.5,1.23,1.24,1.7,2.12C160.01,243.4,160.17,244.91,159.69,245.7"/>
			</g>
			<g>
				<defs>
					<rect id="SVGID_77_" x="103.32" y="136.32" width="153.36" height="146.81"/>
				</defs>
				<clipPath id="SVGID_78_">
					<use xlink:href="#SVGID_77_"  style="overflow:visible;"/>
				</clipPath>
				<path class="st42" d="M172.11,245.69c-1.36,0.14-3.19-0.2-5.05-1.01c-3.27-1.44-5.39-3.82-4.73-5.33
					c0.34-0.76,1.32-1.15,2.62-1.17h0.01c1.16,0.37,2.47,1.1,3.71,2.13C170.83,242.08,172.14,244.23,172.11,245.69"/>
			</g>
			<g>
				<defs>
					<rect id="SVGID_79_" x="103.32" y="136.32" width="153.36" height="146.81"/>
				</defs>
				<clipPath id="SVGID_80_">
					<use xlink:href="#SVGID_79_"  style="overflow:visible;"/>
				</clipPath>
				<path class="st43" d="M171.41,245.41c-0.91,0.03-2.17-0.31-3.48-1.01c-2.29-1.23-3.85-3.11-3.48-4.19
					c0.19-0.55,0.83-0.79,1.72-0.73l0,0c0.81,0.34,1.73,0.94,2.63,1.77C170.35,242.68,171.35,244.33,171.41,245.41"/>
			</g>
			<g>
				<defs>
					<rect id="SVGID_81_" x="103.32" y="136.32" width="153.36" height="146.81"/>
				</defs>
				<clipPath id="SVGID_82_">
					<use xlink:href="#SVGID_81_"  style="overflow:visible;"/>
				</clipPath>
				<path class="st44" d="M176.62,245.74c-0.01,1.36-0.54,3.15-1.55,4.91c-1.78,3.1-4.38,4.94-5.81,4.12
					c-0.72-0.41-1.01-1.43-0.88-2.73v-0.01c0.5-1.11,1.36-2.34,2.52-3.46C172.9,246.63,175.17,245.55,176.62,245.74"/>
			</g>
			<g>
				<defs>
					<rect id="SVGID_83_" x="103.32" y="136.32" width="153.36" height="146.81"/>
				</defs>
				<clipPath id="SVGID_84_">
					<use xlink:href="#SVGID_83_"  style="overflow:visible;"/>
				</clipPath>
				<path class="st45" d="M178.61,244.14c-0.07,1.21-0.67,2.83-1.75,4.45c-1.89,2.84-4.52,4.61-5.89,3.95
					c-0.69-0.34-0.92-1.23-0.74-2.4l0,0c0.54-1.02,1.44-2.15,2.63-3.2C174.92,245.11,177.2,244.04,178.61,244.14"/>
			</g>
			<g>
				<defs>
					<rect id="SVGID_85_" x="103.32" y="136.32" width="153.36" height="146.81"/>
				</defs>
				<clipPath id="SVGID_86_">
					<use xlink:href="#SVGID_85_"  style="overflow:visible;"/>
				</clipPath>
				<path class="st46" d="M165.25,245.87c-0.24,1.34-1.07,3.01-2.37,4.57c-2.28,2.75-5.16,4.12-6.43,3.07
					c-0.64-0.53-0.75-1.58-0.4-2.85l0,0c0.68-1.01,1.74-2.07,3.07-2.98C161.43,246.1,163.86,245.44,165.25,245.87"/>
			</g>
			<g>
				<defs>
					<rect id="SVGID_87_" x="103.32" y="136.32" width="153.36" height="146.81"/>
				</defs>
				<clipPath id="SVGID_88_">
					<use xlink:href="#SVGID_87_"  style="overflow:visible;"/>
				</clipPath>
				<path class="st47" d="M165.45,246.01c-0.2,0.97-0.82,2.2-1.77,3.35c-1.67,2.03-3.74,3.08-4.62,2.34
					c-0.44-0.37-0.5-1.13-0.23-2.05l0,0c0.4-0.6,0.98-1.23,1.7-1.8c-0.45,0.39-0.82,0.81-1.09,1.21l0,0
					c-0.21,0.72-0.16,1.32,0.18,1.61c0.69,0.58,2.31-0.24,3.63-1.84c0.75-0.9,1.23-1.86,1.39-2.62c-0.43-0.12-1.03-0.05-1.7,0.19
					C163.93,245.97,164.83,245.83,165.45,246.01"/>
			</g>
			<g>
				<defs>
					<rect id="SVGID_89_" x="103.32" y="136.32" width="153.36" height="146.81"/>
				</defs>
				<clipPath id="SVGID_90_">
					<use xlink:href="#SVGID_89_"  style="overflow:visible;"/>
				</clipPath>
				<path class="st48" d="M134.97,242.08c-0.21-0.97-0.84-2.19-1.8-3.33c-1.69-2.02-3.77-3.04-4.64-2.3
					c-0.44,0.38-0.49,1.13-0.21,2.05l0,0c0.41,0.59,0.99,1.22,1.72,1.79c-0.46-0.39-0.83-0.8-1.1-1.2l0,0
					c-0.22-0.72-0.18-1.31,0.17-1.61c0.69-0.58,2.32,0.22,3.64,1.81c0.75,0.9,1.25,1.85,1.41,2.61c-0.42,0.13-1.03,0.06-1.71-0.18
					C133.45,242.13,134.36,242.26,134.97,242.08"/>
			</g>
			<g>
				<defs>
					<rect id="SVGID_91_" x="103.32" y="136.32" width="153.36" height="146.81"/>
				</defs>
				<clipPath id="SVGID_92_">
					<use xlink:href="#SVGID_91_"  style="overflow:visible;"/>
				</clipPath>
				<path class="st49" d="M156.28,244.74c-0.01,1.36-0.54,3.15-1.55,4.91c-1.78,3.1-4.38,4.94-5.81,4.12
					c-0.72-0.41-1.01-1.43-0.88-2.74l0,0c0.5-1.11,1.36-2.34,2.52-3.46C152.57,245.63,154.84,244.56,156.28,244.74"/>
			</g>
			<g>
				<defs>
					<rect id="SVGID_93_" x="103.32" y="136.32" width="153.36" height="146.81"/>
				</defs>
				<clipPath id="SVGID_94_">
					<use xlink:href="#SVGID_93_"  style="overflow:visible;"/>
				</clipPath>
				<path class="st50" d="M154.82,246.62c-0.01,0.9-0.35,2.07-1.02,3.23c-1.17,2.04-2.88,3.25-3.82,2.71
					c-0.47-0.27-0.66-0.94-0.58-1.8l0,0c0.33-0.73,0.9-1.54,1.66-2.28C152.38,247.2,153.87,246.5,154.82,246.62"/>
			</g>
			<g>
				<defs>
					<rect id="SVGID_95_" x="103.32" y="136.32" width="153.36" height="146.81"/>
				</defs>
				<clipPath id="SVGID_96_">
					<use xlink:href="#SVGID_95_"  style="overflow:visible;"/>
				</clipPath>
				<path class="st51" d="M140.79,243.36c-0.01,0.9-0.35,2.07-1.02,3.23c-1.17,2.04-2.88,3.25-3.82,2.71
					c-0.47-0.27-0.66-0.94-0.58-1.8l0,0c0.33-0.73,0.9-1.54,1.66-2.28C138.35,243.94,139.84,243.23,140.79,243.36"/>
			</g>
			<g>
				<defs>
					<rect id="SVGID_97_" x="103.32" y="136.32" width="153.36" height="146.81"/>
				</defs>
				<clipPath id="SVGID_98_">
					<use xlink:href="#SVGID_97_"  style="overflow:visible;"/>
				</clipPath>
				<path class="st52" d="M150.22,245.29c-0.34,1.32-1.28,2.93-2.69,4.39c-2.48,2.58-5.45,3.74-6.63,2.6
					c-0.6-0.58-0.63-1.63-0.2-2.87l0,0c0.75-0.96,1.89-1.94,3.28-2.75C146.4,245.26,148.86,244.76,150.22,245.29"/>
			</g>
			<g>
				<defs>
					<rect id="SVGID_99_" x="103.32" y="136.32" width="153.36" height="146.81"/>
				</defs>
				<clipPath id="SVGID_100_">
					<use xlink:href="#SVGID_99_"  style="overflow:visible;"/>
				</clipPath>
				<path class="st53" d="M181.45,242.58c0.73,0.56,1.08,1.1,1.02,1.61c-0.37,3.03-15.6,3.66-34.02,1.41s-33.05-6.53-32.68-9.56
					c0.02-0.16,0.08-0.32,0.19-0.47c3.61,2.8,16.32,6.08,31.66,7.95C165.05,245.65,179.62,245.2,181.45,242.58"/>
			</g>
			<g>
				<defs>
					<rect id="SVGID_101_" x="103.32" y="136.32" width="153.36" height="146.81"/>
				</defs>
				<clipPath id="SVGID_102_">
					<use xlink:href="#SVGID_101_"  style="overflow:visible;"/>
				</clipPath>
				<path class="st54" d="M152,235.53c-0.47,1.28-1.58,2.78-3.13,4.09c-2.73,2.31-5.8,3.16-6.87,1.9c-0.54-0.64-0.46-1.69,0.1-2.87
					l0,0c0.85-0.88,2.08-1.74,3.55-2.4C148.2,235.1,150.7,234.86,152,235.53"/>
			</g>
			<g>
				<defs>
					<rect id="SVGID_103_" x="103.32" y="136.32" width="153.36" height="146.81"/>
				</defs>
				<clipPath id="SVGID_104_">
					<use xlink:href="#SVGID_103_"  style="overflow:visible;"/>
				</clipPath>
				<path class="st55" d="M143.52,234.63c-0.47,1.28-1.58,2.78-3.13,4.09c-2.73,2.31-5.8,3.16-6.87,1.9
					c-0.54-0.64-0.46-1.69,0.1-2.87l0,0c0.85-0.88,2.08-1.74,3.55-2.4C139.72,234.19,142.22,233.96,143.52,234.63"/>
			</g>
			<g>
				<defs>
					<rect id="SVGID_105_" x="103.32" y="136.32" width="153.36" height="146.81"/>
				</defs>
				<clipPath id="SVGID_106_">
					<use xlink:href="#SVGID_105_"  style="overflow:visible;"/>
				</clipPath>
				<path class="st56" d="M140.37,232.77c-1.12,0.77-2.89,1.35-4.92,1.53c-3.56,0.3-6.56-0.78-6.7-2.42
					c-0.07-0.83,0.6-1.64,1.74-2.28h0.01c1.2-0.23,2.7-0.21,4.28,0.1C137.52,230.22,139.7,231.48,140.37,232.77"/>
			</g>
			<g>
				<defs>
					<rect id="SVGID_107_" x="103.32" y="136.32" width="153.36" height="146.81"/>
				</defs>
				<clipPath id="SVGID_108_">
					<use xlink:href="#SVGID_107_"  style="overflow:visible;"/>
				</clipPath>
				<path class="st57" d="M146.72,234.81c-1.36-0.07-3.12-0.69-4.83-1.79c-3.01-1.93-4.72-4.62-3.84-6c0.45-0.7,1.48-0.94,2.77-0.75
					h0.01c1.09,0.55,2.27,1.47,3.34,2.68C146.02,231.05,146.98,233.37,146.72,234.81"/>
			</g>
			<g>
				<defs>
					<rect id="SVGID_109_" x="103.32" y="136.32" width="153.36" height="146.81"/>
				</defs>
				<clipPath id="SVGID_110_">
					<use xlink:href="#SVGID_109_"  style="overflow:visible;"/>
				</clipPath>
				<path class="st58" d="M165.85,236.19c0.09,1.36-0.31,3.18-1.2,5.01c-1.56,3.22-4.02,5.24-5.5,4.52
					c-0.75-0.36-1.1-1.36-1.07-2.67l0,0c0.42-1.15,1.2-2.43,2.27-3.63C162.2,237.33,164.39,236.1,165.85,236.19"/>
			</g>
			<g>
				<defs>
					<rect id="SVGID_111_" x="103.32" y="136.32" width="153.36" height="146.81"/>
				</defs>
				<clipPath id="SVGID_112_">
					<use xlink:href="#SVGID_111_"  style="overflow:visible;"/>
				</clipPath>
				<path class="st59" d="M161.78,236.72c-0.65,1.2-1.96,2.53-3.68,3.6c-3.03,1.9-6.19,2.3-7.07,0.9c-0.44-0.71-0.21-1.74,0.51-2.83
					l0,0c0.96-0.75,2.3-1.42,3.85-1.87C158.09,235.75,160.59,235.87,161.78,236.72"/>
			</g>
			<g>
				<defs>
					<rect id="SVGID_113_" x="103.32" y="136.32" width="153.36" height="146.81"/>
				</defs>
				<clipPath id="SVGID_114_">
					<use xlink:href="#SVGID_113_"  style="overflow:visible;"/>
				</clipPath>
				<path class="st60" d="M157.11,235.28c-1.33,0.3-3.19,0.18-5.13-0.41c-3.42-1.04-5.8-3.17-5.32-4.74
					c0.24-0.79,1.17-1.3,2.47-1.47l0,0c1.2,0.23,2.58,0.81,3.94,1.68C155.41,231.85,156.96,233.83,157.11,235.28"/>
			</g>
			<g>
				<defs>
					<rect id="SVGID_115_" x="103.32" y="136.32" width="153.36" height="146.81"/>
				</defs>
				<clipPath id="SVGID_116_">
					<use xlink:href="#SVGID_115_"  style="overflow:visible;"/>
				</clipPath>
				<path class="st61" d="M167.42,236.66c-1.33,0.3-3.19,0.18-5.13-0.41c-3.42-1.04-5.8-3.17-5.32-4.74
					c0.24-0.79,1.17-1.3,2.47-1.47l0,0c1.2,0.23,2.59,0.81,3.94,1.68C165.72,233.23,167.28,235.2,167.42,236.66"/>
			</g>
			<g>
				<defs>
					<rect id="SVGID_117_" x="103.32" y="136.32" width="153.36" height="146.81"/>
				</defs>
				<clipPath id="SVGID_118_">
					<use xlink:href="#SVGID_117_"  style="overflow:visible;"/>
				</clipPath>
				<path class="st62" d="M179.08,237.24c-1.28,0.46-3.14,0.58-5.14,0.24c-3.52-0.6-6.15-2.41-5.87-4.03c0.14-0.82,1-1.44,2.26-1.77
					h0.01c1.22,0.08,2.67,0.47,4.12,1.17C176.97,234.05,178.76,235.82,179.08,237.24"/>
			</g>
			<g>
				<defs>
					<rect id="SVGID_119_" x="103.32" y="136.32" width="153.36" height="146.81"/>
				</defs>
				<clipPath id="SVGID_120_">
					<use xlink:href="#SVGID_119_"  style="overflow:visible;"/>
				</clipPath>
				<path class="st63" d="M176,234.84c-0.74,0.36-1.84,0.55-3.05,0.48c-2.14-0.13-3.83-1.04-3.77-2.02c0.03-0.5,0.5-0.92,1.24-1.2
					l0,0c0.73-0.03,1.62,0.11,2.53,0.43C174.54,233.08,175.72,234.02,176,234.84"/>
			</g>
			<g>
				<defs>
					<rect id="SVGID_121_" x="103.32" y="136.32" width="153.36" height="146.81"/>
				</defs>
				<clipPath id="SVGID_122_">
					<use xlink:href="#SVGID_121_"  style="overflow:visible;"/>
				</clipPath>
				<path class="st64" d="M142.58,235.06c-0.31,0.76-1,1.64-1.96,2.39c-1.68,1.33-3.54,1.78-4.16,1.01
					c-0.31-0.39-0.24-1.02,0.12-1.72l0,0c0.52-0.51,1.28-1,2.17-1.37C140.31,234.72,141.82,234.63,142.58,235.06"/>
			</g>
			<g>
				<defs>
					<rect id="SVGID_123_" x="103.32" y="136.32" width="153.36" height="146.81"/>
				</defs>
				<clipPath id="SVGID_124_">
					<use xlink:href="#SVGID_123_"  style="overflow:visible;"/>
				</clipPath>
				<path class="st65" d="M183.1,237.29c-1.33-0.31-2.95-1.22-4.45-2.6c-2.63-2.42-3.85-5.37-2.74-6.58
					c0.56-0.61,1.62-0.66,2.86-0.25l0,0c0.98,0.73,1.98,1.85,2.82,3.22C183.06,233.47,183.6,235.92,183.1,237.29"/>
			</g>
			<g>
				<defs>
					<rect id="SVGID_125_" x="103.32" y="136.32" width="153.36" height="146.81"/>
				</defs>
				<clipPath id="SVGID_126_">
					<use xlink:href="#SVGID_125_"  style="overflow:visible;"/>
				</clipPath>
				<path class="st66" d="M183.07,236.54c-0.94-0.16-2.07-0.68-3.1-1.49c-1.82-1.42-2.63-3.18-1.81-3.94
					c0.41-0.38,1.16-0.43,2.04-0.21l0,0c0.68,0.42,1.37,1.08,1.94,1.9C183.11,234.23,183.45,235.7,183.07,236.54"/>
			</g>
			<g>
				<defs>
					<rect id="SVGID_127_" x="103.32" y="136.32" width="153.36" height="146.81"/>
				</defs>
				<clipPath id="SVGID_128_">
					<use xlink:href="#SVGID_127_"  style="overflow:visible;"/>
				</clipPath>
				<path class="st67" d="M195.4,235.08c-1.33,0.3-3.19,0.18-5.13-0.41c-3.42-1.04-5.8-3.17-5.32-4.74c0.24-0.79,1.17-1.3,2.47-1.47
					l0,0c1.2,0.23,2.58,0.81,3.94,1.68C193.71,231.65,195.26,233.63,195.4,235.08"/>
			</g>
			<g>
				<defs>
					<rect id="SVGID_129_" x="103.32" y="136.32" width="153.36" height="146.81"/>
				</defs>
				<clipPath id="SVGID_130_">
					<use xlink:href="#SVGID_129_"  style="overflow:visible;"/>
				</clipPath>
				<path class="st68" d="M194.67,234.89c-0.9,0.14-2.19-0.05-3.57-0.59c-2.42-0.95-4.19-2.63-3.94-3.75
					c0.12-0.56,0.74-0.88,1.62-0.93l0,0c0.84,0.24,1.83,0.73,2.82,1.45C193.31,232.3,194.49,233.82,194.67,234.89"/>
			</g>
			<g>
				<defs>
					<rect id="SVGID_131_" x="103.32" y="136.32" width="153.36" height="146.81"/>
				</defs>
				<clipPath id="SVGID_132_">
					<use xlink:href="#SVGID_131_"  style="overflow:visible;"/>
				</clipPath>
				<path class="st69" d="M199.89,234.6c0.15,1.35-0.16,3.19-0.96,5.06c-1.41,3.29-3.77,5.42-5.29,4.78
					c-0.76-0.33-1.17-1.31-1.2-2.61v-0.01c0.36-1.16,1.08-2.48,2.1-3.73C196.3,235.92,198.43,234.59,199.89,234.6"/>
			</g>
			<g>
				<defs>
					<rect id="SVGID_133_" x="103.32" y="136.32" width="153.36" height="146.81"/>
				</defs>
				<clipPath id="SVGID_134_">
					<use xlink:href="#SVGID_133_"  style="overflow:visible;"/>
				</clipPath>
				<path class="st70" d="M201.67,232.78c0.07,1.21-0.34,2.89-1.21,4.62c-1.54,3.05-3.95,5.11-5.38,4.61
					c-0.72-0.25-1.06-1.11-1.01-2.29l0,0c0.42-1.07,1.18-2.3,2.24-3.49C198.13,234.17,200.26,232.85,201.67,232.78"/>
			</g>
			<g>
				<defs>
					<rect id="SVGID_135_" x="103.32" y="136.32" width="153.36" height="146.81"/>
				</defs>
				<clipPath id="SVGID_136_">
					<use xlink:href="#SVGID_135_"  style="overflow:visible;"/>
				</clipPath>
				<path class="st71" d="M188.61,236.06c-0.08,1.36-0.71,3.12-1.82,4.82c-1.95,3-4.64,4.7-6.02,3.8c-0.7-0.45-0.93-1.49-0.73-2.78
					l0,0c0.56-1.09,1.49-2.26,2.7-3.32C184.85,236.74,187.18,235.8,188.61,236.06"/>
			</g>
			<g>
				<defs>
					<rect id="SVGID_137_" x="103.32" y="136.32" width="153.36" height="146.81"/>
				</defs>
				<clipPath id="SVGID_138_">
					<use xlink:href="#SVGID_137_"  style="overflow:visible;"/>
				</clipPath>
				<path class="st72" d="M188.82,236.18c-0.08,0.99-0.55,2.28-1.36,3.53c-1.42,2.21-3.36,3.49-4.32,2.87
					c-0.48-0.32-0.63-1.07-0.47-2.01l0,0c0.33-0.64,0.83-1.33,1.48-1.99c-0.4,0.44-0.72,0.9-0.94,1.33l0,0
					c-0.12,0.74-0.01,1.33,0.37,1.58c0.75,0.49,2.27-0.51,3.39-2.25c0.64-0.98,1.01-1.99,1.07-2.77c-0.44-0.07-1.03,0.07-1.67,0.39
					C187.31,236.32,188.19,236.08,188.82,236.18"/>
			</g>
			<g>
				<defs>
					<rect id="SVGID_139_" x="103.32" y="136.32" width="153.36" height="146.81"/>
				</defs>
				<clipPath id="SVGID_140_">
					<use xlink:href="#SVGID_139_"  style="overflow:visible;"/>
				</clipPath>
				<path class="st73" d="M158.1,235.84c-0.32-0.94-1.09-2.08-2.18-3.1c-1.91-1.8-4.1-2.58-4.88-1.74
					c-0.39,0.42-0.35,1.18,0.03,2.06l0,0c0.47,0.54,1.13,1.09,1.91,1.57c-0.5-0.33-0.92-0.7-1.23-1.06l0,0
					c-0.3-0.69-0.33-1.28-0.02-1.62c0.61-0.66,2.33-0.05,3.83,1.37c0.85,0.8,1.46,1.69,1.71,2.43c-0.41,0.17-1.01,0.18-1.71,0.03
					C156.6,236.07,157.51,236.1,158.1,235.84"/>
			</g>
			<g>
				<defs>
					<rect id="SVGID_141_" x="103.32" y="136.32" width="153.36" height="146.81"/>
				</defs>
				<clipPath id="SVGID_142_">
					<use xlink:href="#SVGID_141_"  style="overflow:visible;"/>
				</clipPath>
				<path class="st74" d="M179.58,236c0.15,1.35-0.16,3.19-0.96,5.06c-1.41,3.29-3.77,5.42-5.29,4.78c-0.76-0.33-1.17-1.31-1.2-2.61
					l0,0c0.36-1.16,1.08-2.48,2.1-3.73C175.99,237.31,178.12,235.98,179.58,236"/>
			</g>
			<g>
				<defs>
					<rect id="SVGID_143_" x="103.32" y="136.32" width="153.36" height="146.81"/>
				</defs>
				<clipPath id="SVGID_144_">
					<use xlink:href="#SVGID_143_"  style="overflow:visible;"/>
				</clipPath>
				<path class="st75" d="M178.35,238.03c0.1,0.89-0.11,2.1-0.63,3.33c-0.92,2.16-2.48,3.57-3.48,3.14
					c-0.5-0.22-0.77-0.86-0.79-1.72l0,0c0.24-0.77,0.71-1.63,1.38-2.45C175.99,238.9,177.39,238.02,178.35,238.03"/>
			</g>
			<g>
				<defs>
					<rect id="SVGID_145_" x="103.32" y="136.32" width="153.36" height="146.81"/>
				</defs>
				<clipPath id="SVGID_146_">
					<use xlink:href="#SVGID_145_"  style="overflow:visible;"/>
				</clipPath>
				<path class="st76" d="M164.03,236.43c0.1,0.89-0.11,2.1-0.63,3.33c-0.92,2.16-2.48,3.57-3.48,3.14
					c-0.5-0.22-0.77-0.86-0.79-1.72l0,0c0.24-0.77,0.71-1.63,1.38-2.45C161.67,237.3,163.07,236.42,164.03,236.43"/>
			</g>
			<g>
				<defs>
					<rect id="SVGID_147_" x="103.32" y="136.32" width="153.36" height="146.81"/>
				</defs>
				<clipPath id="SVGID_148_">
					<use xlink:href="#SVGID_147_"  style="overflow:visible;"/>
				</clipPath>
				<path class="st77" d="M173.62,237.25c-0.18,1.35-0.93,3.06-2.16,4.68c-2.16,2.85-4.97,4.35-6.28,3.36
					c-0.66-0.5-0.82-1.55-0.53-2.82l0,0c0.63-1.04,1.65-2.15,2.94-3.12C169.82,237.66,172.21,236.89,173.62,237.25"/>
			</g>
			<g>
				<defs>
					<rect id="SVGID_149_" x="103.32" y="136.32" width="153.36" height="146.81"/>
				</defs>
				<clipPath id="SVGID_150_">
					<use xlink:href="#SVGID_149_"  style="overflow:visible;"/>
				</clipPath>
				<path class="st78" d="M204.32,230.89c0.79,0.47,1.21,0.97,1.2,1.48c-0.01,3.05-15.07,5.46-33.62,5.39
					c-18.55-0.08-33.59-2.62-33.58-5.67c0-0.16,0.04-0.33,0.13-0.49c3.91,2.35,16.92,4.12,32.37,4.19
					C188.38,235.87,202.8,233.71,204.32,230.89"/>
			</g>
			<g>
				<defs>
					<rect id="SVGID_151_" x="103.32" y="136.32" width="153.36" height="146.81"/>
				</defs>
				<clipPath id="SVGID_152_">
					<use xlink:href="#SVGID_151_"  style="overflow:visible;"/>
				</clipPath>
				<path class="st79" d="M152.31,215.92c-0.93,1-2.52,1.96-4.46,2.58c-3.41,1.08-6.57,0.69-7.07-0.88
					c-0.25-0.79,0.22-1.74,1.19-2.61l0,0c1.12-0.49,2.59-0.81,4.2-0.85C148.97,214.06,151.37,214.81,152.31,215.92"/>
			</g>
			<g>
				<defs>
					<rect id="SVGID_153_" x="103.32" y="136.32" width="153.36" height="146.81"/>
				</defs>
				<clipPath id="SVGID_154_">
					<use xlink:href="#SVGID_153_"  style="overflow:visible;"/>
				</clipPath>
				<path class="st80" d="M144.83,211.83c-0.93,1-2.52,1.96-4.46,2.58c-3.41,1.08-6.57,0.69-7.07-0.88
					c-0.25-0.79,0.22-1.74,1.19-2.61l0,0c1.12-0.49,2.59-0.81,4.2-0.85C141.49,209.97,143.89,210.72,144.83,211.83"/>
			</g>
			<g>
				<defs>
					<rect id="SVGID_155_" x="103.32" y="136.32" width="153.36" height="146.81"/>
				</defs>
				<clipPath id="SVGID_156_">
					<use xlink:href="#SVGID_155_"  style="overflow:visible;"/>
				</clipPath>
				<path class="st81" d="M142.63,208.91c-1.33,0.28-3.19,0.14-5.13-0.48c-3.4-1.09-5.76-3.24-5.26-4.81
					c0.25-0.79,1.19-1.29,2.49-1.44h0.01c1.19,0.25,2.57,0.84,3.92,1.73C140.98,205.47,142.51,207.46,142.63,208.91"/>
			</g>
			<g>
				<defs>
					<rect id="SVGID_157_" x="103.32" y="136.32" width="153.36" height="146.81"/>
				</defs>
				<clipPath id="SVGID_158_">
					<use xlink:href="#SVGID_157_"  style="overflow:visible;"/>
				</clipPath>
				<path class="st82" d="M147.72,213.23c-1.23-0.59-2.62-1.83-3.77-3.5c-2.04-2.94-2.59-6.08-1.24-7.02
					c0.68-0.47,1.73-0.3,2.85,0.37l0,0c0.79,0.93,1.53,2.23,2.05,3.76C148.51,209.49,148.51,212,147.72,213.23"/>
			</g>
			<g>
				<defs>
					<rect id="SVGID_159_" x="103.32" y="136.32" width="153.36" height="146.81"/>
				</defs>
				<clipPath id="SVGID_160_">
					<use xlink:href="#SVGID_159_"  style="overflow:visible;"/>
				</clipPath>
				<path class="st83" d="M164.85,221.84c-0.44,1.29-1.51,2.82-3.03,4.16c-2.67,2.37-5.73,3.29-6.82,2.06
					c-0.55-0.62-0.5-1.68,0.03-2.87l0,0c0.83-0.9,2.04-1.78,3.49-2.48C161.04,221.5,163.54,221.21,164.85,221.84"/>
			</g>
			<g>
				<defs>
					<rect id="SVGID_161_" x="103.32" y="136.32" width="153.36" height="146.81"/>
				</defs>
				<clipPath id="SVGID_162_">
					<use xlink:href="#SVGID_161_"  style="overflow:visible;"/>
				</clipPath>
				<path class="st84" d="M160.89,220.77c-1.06,0.86-2.78,1.58-4.78,1.91c-3.53,0.59-6.6-0.26-6.87-1.88
					c-0.13-0.82,0.47-1.69,1.56-2.42h0.01c1.18-0.32,2.67-0.43,4.27-0.25C157.85,218.46,160.12,219.54,160.89,220.77"/>
			</g>
			<g>
				<defs>
					<rect id="SVGID_163_" x="103.32" y="136.32" width="153.36" height="146.81"/>
				</defs>
				<clipPath id="SVGID_164_">
					<use xlink:href="#SVGID_163_"  style="overflow:visible;"/>
				</clipPath>
				<path class="st85" d="M157.13,217.65c-1.34-0.24-3.02-1.06-4.58-2.35c-2.76-2.28-4.14-5.15-3.09-6.42
					c0.53-0.64,1.58-0.75,2.84-0.41l0,0c1.01,0.68,2.08,1.74,2.99,3.07C156.88,213.84,157.55,216.26,157.13,217.65"/>
			</g>
			<g>
				<defs>
					<rect id="SVGID_165_" x="103.32" y="136.32" width="153.36" height="146.81"/>
				</defs>
				<clipPath id="SVGID_166_">
					<use xlink:href="#SVGID_165_"  style="overflow:visible;"/>
				</clipPath>
				<path class="st86" d="M166.12,222.88c-1.34-0.24-3.01-1.06-4.58-2.35c-2.76-2.28-4.14-5.15-3.09-6.42
					c0.53-0.64,1.58-0.75,2.84-0.41l0,0c1.01,0.68,2.08,1.74,2.99,3.07C165.87,219.07,166.55,221.48,166.12,222.88"/>
			</g>
			<g>
				<defs>
					<rect id="SVGID_167_" x="103.32" y="136.32" width="153.36" height="146.81"/>
				</defs>
				<clipPath id="SVGID_168_">
					<use xlink:href="#SVGID_167_"  style="overflow:visible;"/>
				</clipPath>
				<path class="st87" d="M176.67,227.9c-1.36-0.07-3.12-0.67-4.84-1.76c-3.02-1.91-4.76-4.59-3.88-5.98
					c0.44-0.7,1.47-0.95,2.77-0.77h0.01c1.09,0.54,2.28,1.46,3.35,2.66C175.94,224.14,176.92,226.46,176.67,227.9"/>
			</g>
			<g>
				<defs>
					<rect id="SVGID_169_" x="103.32" y="136.32" width="153.36" height="146.81"/>
				</defs>
				<clipPath id="SVGID_170_">
					<use xlink:href="#SVGID_169_"  style="overflow:visible;"/>
				</clipPath>
				<path class="st88" d="M174.74,224.5c-0.82,0.05-1.91-0.2-3-0.73c-1.93-0.94-3.13-2.43-2.7-3.32c0.22-0.45,0.82-0.66,1.6-0.64
					l0,0c0.69,0.25,1.46,0.72,2.17,1.37C174.07,222.31,174.8,223.63,174.74,224.5"/>
			</g>
			<g>
				<defs>
					<rect id="SVGID_171_" x="103.32" y="136.32" width="153.36" height="146.81"/>
				</defs>
				<clipPath id="SVGID_172_">
					<use xlink:href="#SVGID_171_"  style="overflow:visible;"/>
				</clipPath>
				<path class="st89" d="M143.8,211.87c-0.57,0.58-1.55,1.13-2.72,1.46c-2.06,0.58-3.95,0.29-4.22-0.66
					c-0.14-0.48,0.17-1.04,0.77-1.54l0,0c0.68-0.27,1.57-0.43,2.53-0.43C141.83,210.69,143.26,211.18,143.8,211.87"/>
			</g>
			<g>
				<defs>
					<rect id="SVGID_173_" x="103.32" y="136.32" width="153.36" height="146.81"/>
				</defs>
				<clipPath id="SVGID_174_">
					<use xlink:href="#SVGID_173_"  style="overflow:visible;"/>
				</clipPath>
				<path class="st90" d="M180.36,229.48c-1.11-0.8-2.26-2.26-3.11-4.11c-1.5-3.25-1.49-6.43,0-7.12c0.76-0.35,1.75,0.01,2.74,0.86
					l0,0c0.62,1.05,1.12,2.47,1.36,4.06C181.79,225.94,181.35,228.41,180.36,229.48"/>
			</g>
			<g>
				<defs>
					<rect id="SVGID_175_" x="103.32" y="136.32" width="153.36" height="146.81"/>
				</defs>
				<clipPath id="SVGID_176_">
					<use xlink:href="#SVGID_175_"  style="overflow:visible;"/>
				</clipPath>
				<path class="st91" d="M180.62,228.78c-0.8-0.51-1.65-1.43-2.29-2.57c-1.13-2.01-1.2-3.95-0.16-4.33
					c0.53-0.19,1.24,0.04,1.96,0.59l0,0c0.46,0.65,0.85,1.52,1.06,2.5C181.55,226.66,181.29,228.15,180.62,228.78"/>
			</g>
			<g>
				<defs>
					<rect id="SVGID_177_" x="103.32" y="136.32" width="153.36" height="146.81"/>
				</defs>
				<clipPath id="SVGID_178_">
					<use xlink:href="#SVGID_177_"  style="overflow:visible;"/>
				</clipPath>
				<path class="st92" d="M192.57,232.16c-1.34-0.24-3.01-1.06-4.58-2.35c-2.76-2.28-4.14-5.15-3.09-6.42
					c0.53-0.64,1.58-0.75,2.84-0.41l0,0c1.01,0.68,2.08,1.74,2.99,3.07C192.32,228.35,192.99,230.77,192.57,232.16"/>
			</g>
			<g>
				<defs>
					<rect id="SVGID_179_" x="103.32" y="136.32" width="153.36" height="146.81"/>
				</defs>
				<clipPath id="SVGID_180_">
					<use xlink:href="#SVGID_179_"  style="overflow:visible;"/>
				</clipPath>
				<path class="st93" d="M191.96,231.71c-0.89-0.22-2.01-0.89-3.07-1.92c-1.87-1.81-2.85-4.04-2.2-4.98
					c0.33-0.47,1.02-0.53,1.85-0.24l0,0c0.68,0.54,1.41,1.38,2.04,2.42C191.7,228.79,192.21,230.65,191.96,231.71"/>
			</g>
			<g>
				<defs>
					<rect id="SVGID_181_" x="103.32" y="136.32" width="153.36" height="146.81"/>
				</defs>
				<clipPath id="SVGID_182_">
					<use xlink:href="#SVGID_181_"  style="overflow:visible;"/>
				</clipPath>
				<path class="st94" d="M196.89,233.45c-0.38,1.31-1.38,2.88-2.83,4.3c-2.56,2.5-5.57,3.56-6.71,2.38
					c-0.58-0.6-0.58-1.65-0.1-2.87l0,0c0.78-0.94,1.95-1.88,3.37-2.64C193.07,233.28,195.55,232.87,196.89,233.45"/>
			</g>
			<g>
				<defs>
					<rect id="SVGID_183_" x="103.32" y="136.32" width="153.36" height="146.81"/>
				</defs>
				<clipPath id="SVGID_184_">
					<use xlink:href="#SVGID_183_"  style="overflow:visible;"/>
				</clipPath>
				<path class="st95" d="M199.24,232.45c-0.4,1.15-1.42,2.54-2.89,3.8c-2.59,2.22-5.61,3.2-6.74,2.19
					c-0.57-0.51-0.55-1.43-0.06-2.51l0,0c0.79-0.83,1.98-1.67,3.4-2.36C195.43,232.37,197.91,231.97,199.24,232.45"/>
			</g>
			<g>
				<defs>
					<rect id="SVGID_185_" x="103.32" y="136.32" width="153.36" height="146.81"/>
				</defs>
				<clipPath id="SVGID_186_">
					<use xlink:href="#SVGID_185_"  style="overflow:visible;"/>
				</clipPath>
				<path class="st96" d="M185.92,230.47c-0.6,1.22-1.85,2.61-3.53,3.75c-2.95,2.02-6.09,2.56-7.02,1.2
					c-0.47-0.69-0.29-1.73,0.39-2.85l0,0c0.93-0.79,2.24-1.52,3.77-2.03C182.18,229.65,184.69,229.67,185.92,230.47"/>
			</g>
			<g>
				<defs>
					<rect id="SVGID_187_" x="103.32" y="136.32" width="153.36" height="146.81"/>
				</defs>
				<clipPath id="SVGID_188_">
					<use xlink:href="#SVGID_187_"  style="overflow:visible;"/>
				</clipPath>
				<path class="st97" d="M186.07,230.66c-0.46,0.88-1.39,1.89-2.61,2.74c-2.16,1.5-4.44,1.94-5.09,0.99
					c-0.32-0.48-0.17-1.22,0.34-2.03l0,0c0.55-0.47,1.28-0.91,2.13-1.27c-0.54,0.25-1.01,0.55-1.38,0.86l0,0
					c-0.4,0.64-0.52,1.22-0.26,1.6c0.51,0.74,2.29,0.4,3.99-0.78c0.96-0.66,1.69-1.45,2.05-2.15c-0.38-0.23-0.98-0.33-1.69-0.28
					C184.62,230.2,185.53,230.32,186.07,230.66"/>
			</g>
			<g>
				<defs>
					<rect id="SVGID_189_" x="103.32" y="136.32" width="153.36" height="146.81"/>
				</defs>
				<clipPath id="SVGID_190_">
					<use xlink:href="#SVGID_189_"  style="overflow:visible;"/>
				</clipPath>
				<path class="st98" d="M157.82,218.55c0.07-0.99-0.21-2.33-0.82-3.7c-1.08-2.4-2.8-3.96-3.84-3.48
					c-0.53,0.24-0.78,0.96-0.76,1.92l0,0c0.23,0.68,0.62,1.44,1.16,2.19c-0.33-0.5-0.58-1-0.73-1.45l0,0
					c-0.01-0.75,0.19-1.31,0.6-1.5c0.82-0.37,2.17,0.85,3.01,2.73c0.48,1.07,0.7,2.12,0.64,2.9c-0.44,0.01-1-0.22-1.59-0.63
					C156.35,218.19,157.19,218.56,157.82,218.55"/>
			</g>
			<g>
				<defs>
					<rect id="SVGID_191_" x="103.32" y="136.32" width="153.36" height="146.81"/>
				</defs>
				<clipPath id="SVGID_192_">
					<use xlink:href="#SVGID_191_"  style="overflow:visible;"/>
				</clipPath>
				<path class="st99" d="M177.6,226.94c-0.38,1.31-1.38,2.88-2.83,4.3c-2.56,2.5-5.56,3.56-6.71,2.38c-0.58-0.6-0.58-1.65-0.1-2.87
					l0,0c0.78-0.94,1.95-1.88,3.37-2.64C173.78,226.77,176.26,226.36,177.6,226.94"/>
			</g>
			<g>
				<defs>
					<rect id="SVGID_193_" x="103.32" y="136.32" width="153.36" height="146.81"/>
				</defs>
				<clipPath id="SVGID_194_">
					<use xlink:href="#SVGID_193_"  style="overflow:visible;"/>
				</clipPath>
				<path class="st100" d="M175.68,228.34c-0.25,0.86-0.91,1.9-1.86,2.83c-1.68,1.64-3.66,2.34-4.42,1.57
					c-0.38-0.39-0.38-1.09-0.07-1.89l0,0c0.51-0.62,1.28-1.23,2.21-1.74C173.17,228.24,174.8,227.97,175.68,228.34"/>
			</g>
			<g>
				<defs>
					<rect id="SVGID_195_" x="103.32" y="136.32" width="153.36" height="146.81"/>
				</defs>
				<clipPath id="SVGID_196_">
					<use xlink:href="#SVGID_195_"  style="overflow:visible;"/>
				</clipPath>
				<path class="st101" d="M163.07,221.37c-0.25,0.86-0.91,1.9-1.86,2.83c-1.68,1.64-3.66,2.34-4.42,1.57
					c-0.38-0.39-0.38-1.09-0.07-1.89l0,0c0.51-0.62,1.28-1.23,2.21-1.74C160.56,221.27,162.19,221,163.07,221.37"/>
			</g>
			<g>
				<defs>
					<rect id="SVGID_197_" x="103.32" y="136.32" width="153.36" height="146.81"/>
				</defs>
				<clipPath id="SVGID_198_">
					<use xlink:href="#SVGID_197_"  style="overflow:visible;"/>
				</clipPath>
				<path class="st102" d="M171.62,225.81c-0.68,1.18-2.03,2.47-3.79,3.49c-3.09,1.8-6.26,2.11-7.09,0.69
					c-0.42-0.72-0.16-1.74,0.59-2.81l0,0c0.98-0.72,2.35-1.35,3.91-1.75C167.95,224.73,170.46,224.93,171.62,225.81"/>
			</g>
			<g>
				<defs>
					<rect id="SVGID_199_" x="103.32" y="136.32" width="153.36" height="146.81"/>
				</defs>
				<clipPath id="SVGID_200_">
					<use xlink:href="#SVGID_199_"  style="overflow:visible;"/>
				</clipPath>
				<path class="st103" d="M202.4,231.72c0.54,0.74,0.74,1.36,0.54,1.83c-1.18,2.81-16.01-0.74-33.11-7.93
					c-17.1-7.19-30.01-15.31-28.83-18.12c0.06-0.15,0.16-0.29,0.31-0.4c2.71,3.68,14.04,10.3,28.28,16.29
					C185.78,230.2,199.92,233.74,202.4,231.72"/>
			</g>
			<g>
				<defs>
					<rect id="SVGID_201_" x="103.32" y="136.32" width="153.36" height="146.81"/>
				</defs>
				<clipPath id="SVGID_202_">
					<use xlink:href="#SVGID_201_"  style="overflow:visible;"/>
				</clipPath>
				<path class="st104" d="M126.89,255.4c-0.22,1.34-1.02,3.03-2.3,4.61c-2.24,2.78-5.1,4.2-6.38,3.16
					c-0.65-0.52-0.77-1.57-0.44-2.84l0,0c0.66-1.02,1.71-2.1,3.03-3.02C123.08,255.69,125.49,254.99,126.89,255.4"/>
			</g>
			<g>
				<defs>
					<rect id="SVGID_203_" x="103.32" y="136.32" width="153.36" height="146.81"/>
				</defs>
				<clipPath id="SVGID_204_">
					<use xlink:href="#SVGID_203_"  style="overflow:visible;"/>
				</clipPath>
				<path class="st105" d="M118.39,256.11c-0.22,1.34-1.02,3.03-2.3,4.61c-2.24,2.78-5.1,4.2-6.38,3.16
					c-0.65-0.52-0.77-1.57-0.44-2.84l0,0c0.67-1.02,1.71-2.1,3.03-3.02C114.58,256.4,116.99,255.7,118.39,256.11"/>
			</g>
			<g>
				<defs>
					<rect id="SVGID_205_" x="103.32" y="136.32" width="153.36" height="146.81"/>
				</defs>
				<clipPath id="SVGID_206_">
					<use xlink:href="#SVGID_205_"  style="overflow:visible;"/>
				</clipPath>
				<path class="st106" d="M114.95,254.89c-0.96,0.97-2.59,1.88-4.54,2.43c-3.44,0.97-6.59,0.47-7.04-1.11
					c-0.22-0.8,0.28-1.73,1.28-2.57l0,0c1.13-0.45,2.61-0.72,4.22-0.71C111.67,252.92,114.05,253.74,114.95,254.89"/>
			</g>
			<g>
				<defs>
					<rect id="SVGID_207_" x="103.32" y="136.32" width="153.36" height="146.81"/>
				</defs>
				<clipPath id="SVGID_208_">
					<use xlink:href="#SVGID_207_"  style="overflow:visible;"/>
				</clipPath>
				<path class="st107" d="M121.57,255.69c-1.35,0.18-3.19-0.09-5.08-0.84c-3.32-1.33-5.51-3.64-4.9-5.17
					c0.31-0.77,1.28-1.2,2.58-1.26h0.01c1.17,0.33,2.51,1.02,3.78,2.01C120.17,252.13,121.55,254.23,121.57,255.69"/>
			</g>
			<g>
				<defs>
					<rect id="SVGID_209_" x="103.32" y="136.32" width="153.36" height="146.81"/>
				</defs>
				<clipPath id="SVGID_210_">
					<use xlink:href="#SVGID_209_"  style="overflow:visible;"/>
				</clipPath>
				<path class="st108" d="M140.62,253.43c0.34,1.32,0.29,3.18-0.23,5.14c-0.92,3.45-2.96,5.9-4.55,5.48
					c-0.8-0.22-1.34-1.13-1.56-2.42l0,0c0.19-1.2,0.72-2.61,1.54-3.99C137.25,255.24,139.17,253.62,140.62,253.43"/>
			</g>
			<g>
				<defs>
					<rect id="SVGID_211_" x="103.32" y="136.32" width="153.36" height="146.81"/>
				</defs>
				<clipPath id="SVGID_212_">
					<use xlink:href="#SVGID_211_"  style="overflow:visible;"/>
				</clipPath>
				<path class="st109" d="M136.73,254.72c-0.41,1.3-1.44,2.85-2.93,4.23c-2.62,2.43-5.65,3.43-6.77,2.22
					c-0.56-0.61-0.54-1.67-0.03-2.87l0,0c0.8-0.92,1.99-1.83,3.43-2.56C132.91,254.46,135.4,254.11,136.73,254.72"/>
			</g>
			<g>
				<defs>
					<rect id="SVGID_213_" x="103.32" y="136.32" width="153.36" height="146.81"/>
				</defs>
				<clipPath id="SVGID_214_">
					<use xlink:href="#SVGID_213_"  style="overflow:visible;"/>
				</clipPath>
				<path class="st110" d="M131.86,254.19c-1.25,0.54-3.1,0.78-5.12,0.56c-3.55-0.38-6.29-2.02-6.12-3.65
					c0.09-0.83,0.91-1.5,2.15-1.91h0.01c1.22,0.01,2.69,0.3,4.18,0.91C129.55,251.14,131.45,252.79,131.86,254.19"/>
			</g>
			<g>
				<defs>
					<rect id="SVGID_215_" x="103.32" y="136.32" width="153.36" height="146.81"/>
				</defs>
				<clipPath id="SVGID_216_">
					<use xlink:href="#SVGID_215_"  style="overflow:visible;"/>
				</clipPath>
				<path class="st111" d="M142.25,253.59c-1.25,0.54-3.1,0.78-5.12,0.56c-3.55-0.38-6.29-2.02-6.12-3.65
					c0.09-0.83,0.91-1.5,2.15-1.91h0.01c1.22,0.01,2.69,0.3,4.18,0.91C139.94,250.55,141.83,252.19,142.25,253.59"/>
			</g>
			<g>
				<defs>
					<rect id="SVGID_217_" x="103.32" y="136.32" width="153.36" height="146.81"/>
				</defs>
				<clipPath id="SVGID_218_">
					<use xlink:href="#SVGID_217_"  style="overflow:visible;"/>
				</clipPath>
				<path class="st112" d="M153.82,251.96c-1.17,0.7-2.98,1.16-5.01,1.2c-3.57,0.07-6.49-1.21-6.53-2.85
					c-0.02-0.83,0.71-1.6,1.89-2.17h0.01c1.21-0.15,2.71-0.04,4.27,0.37C151.14,249.24,153.23,250.63,153.82,251.96"/>
			</g>
			<g>
				<defs>
					<rect id="SVGID_219_" x="103.32" y="136.32" width="153.36" height="146.81"/>
				</defs>
				<clipPath id="SVGID_220_">
					<use xlink:href="#SVGID_219_"  style="overflow:visible;"/>
				</clipPath>
				<path class="st113" d="M150.34,250.19c-0.65,0.49-1.7,0.89-2.91,1.04c-2.13,0.28-3.95-0.3-4.08-1.28
					c-0.06-0.49,0.32-1,0.99-1.42l0,0c0.71-0.17,1.61-0.2,2.57-0.05C148.56,248.74,149.9,249.43,150.34,250.19"/>
			</g>
			<g>
				<defs>
					<rect id="SVGID_221_" x="103.32" y="136.32" width="153.36" height="146.81"/>
				</defs>
				<clipPath id="SVGID_222_">
					<use xlink:href="#SVGID_221_"  style="overflow:visible;"/>
				</clipPath>
				<path class="st114" d="M117.56,256.71c-0.16,0.8-0.67,1.8-1.47,2.72c-1.4,1.63-3.14,2.42-3.89,1.77
					c-0.38-0.33-0.43-0.96-0.21-1.71l0,0c0.42-0.6,1.07-1.22,1.88-1.76C115.26,256.81,116.72,256.44,117.56,256.71"/>
			</g>
			<g>
				<defs>
					<rect id="SVGID_223_" x="103.32" y="136.32" width="153.36" height="146.81"/>
				</defs>
				<clipPath id="SVGID_224_">
					<use xlink:href="#SVGID_223_"  style="overflow:visible;"/>
				</clipPath>
				<path class="st115" d="M157.77,251.25c-1.36-0.05-3.13-0.64-4.86-1.71c-3.04-1.88-4.79-4.54-3.93-5.94
					c0.44-0.71,1.47-0.96,2.76-0.79h0.01c1.1,0.53,2.29,1.44,3.38,2.63C157.01,247.51,158,249.81,157.77,251.25"/>
			</g>
			<g>
				<defs>
					<rect id="SVGID_225_" x="103.32" y="136.32" width="153.36" height="146.81"/>
				</defs>
				<clipPath id="SVGID_226_">
					<use xlink:href="#SVGID_225_"  style="overflow:visible;"/>
				</clipPath>
				<path class="st116" d="M157.6,250.53c-0.95,0.02-2.16-0.28-3.33-0.88c-2.05-1.05-3.18-2.63-2.52-3.53
					c0.33-0.45,1.06-0.65,1.96-0.59l0,0c0.75,0.29,1.55,0.81,2.26,1.5C157.2,248.24,157.81,249.63,157.6,250.53"/>
			</g>
			<g>
				<defs>
					<rect id="SVGID_227_" x="103.32" y="136.32" width="153.36" height="146.81"/>
				</defs>
				<clipPath id="SVGID_228_">
					<use xlink:href="#SVGID_227_"  style="overflow:visible;"/>
				</clipPath>
				<path class="st117" d="M169.43,246.76c-1.25,0.54-3.1,0.78-5.12,0.56c-3.55-0.38-6.29-2.02-6.12-3.65
					c0.09-0.83,0.91-1.5,2.15-1.91h0.01c1.22,0.01,2.69,0.3,4.18,0.91C167.12,243.72,169.02,245.36,169.43,246.76"/>
			</g>
			<g>
				<defs>
					<rect id="SVGID_229_" x="103.32" y="136.32" width="153.36" height="146.81"/>
				</defs>
				<clipPath id="SVGID_230_">
					<use xlink:href="#SVGID_229_"  style="overflow:visible;"/>
				</clipPath>
				<path class="st118" d="M168.68,246.71c-0.86,0.31-2.16,0.36-3.62,0.09c-2.56-0.48-4.61-1.8-4.58-2.94
					c0.01-0.58,0.56-1,1.42-1.22l0,0c0.87,0.08,1.94,0.38,3.04,0.89C166.85,244.43,168.3,245.7,168.68,246.71"/>
			</g>
			<g>
				<defs>
					<rect id="SVGID_231_" x="103.32" y="136.32" width="153.36" height="146.81"/>
				</defs>
				<clipPath id="SVGID_232_">
					<use xlink:href="#SVGID_231_"  style="overflow:visible;"/>
				</clipPath>
				<path class="st119" d="M173.75,245.45c0.4,1.3,0.44,3.16,0.01,5.15c-0.76,3.49-2.68,6.04-4.29,5.69
					c-0.81-0.18-1.39-1.06-1.67-2.34l0,0c0.14-1.21,0.59-2.64,1.35-4.06C170.47,247.42,172.31,245.71,173.75,245.45"/>
			</g>
			<g>
				<defs>
					<rect id="SVGID_233_" x="103.32" y="136.32" width="153.36" height="146.81"/>
				</defs>
				<clipPath id="SVGID_234_">
					<use xlink:href="#SVGID_233_"  style="overflow:visible;"/>
				</clipPath>
				<path class="st120" d="M175.16,243.33c0.3,1.18,0.22,2.9-0.32,4.77c-0.94,3.28-2.92,5.76-4.42,5.54
					c-0.76-0.11-1.25-0.89-1.43-2.06v-0.01c0.21-1.13,0.73-2.48,1.54-3.85C171.94,245.36,173.78,243.66,175.16,243.33"/>
			</g>
			<g>
				<defs>
					<rect id="SVGID_235_" x="103.32" y="136.32" width="153.36" height="146.81"/>
				</defs>
				<clipPath id="SVGID_236_">
					<use xlink:href="#SVGID_235_"  style="overflow:visible;"/>
				</clipPath>
				<path class="st121" d="M162.95,249.01c0.18,1.35-0.11,3.19-0.87,5.07c-1.35,3.31-3.67,5.49-5.2,4.87
					c-0.77-0.31-1.19-1.28-1.24-2.59v-0.01c0.34-1.17,1.04-2.5,2.03-3.77C159.38,250.39,161.49,249.02,162.95,249.01"/>
			</g>
			<g>
				<defs>
					<rect id="SVGID_237_" x="103.32" y="136.32" width="153.36" height="146.81"/>
				</defs>
				<clipPath id="SVGID_238_">
					<use xlink:href="#SVGID_237_"  style="overflow:visible;"/>
				</clipPath>
				<path class="st122" d="M163.18,249.09c0.11,0.99-0.11,2.34-0.67,3.73c-0.98,2.44-2.64,4.06-3.7,3.63
					c-0.53-0.22-0.82-0.93-0.84-1.88l0,0c0.2-0.69,0.56-1.47,1.07-2.23c-0.31,0.51-0.54,1.02-0.68,1.48l0,0
					c0.02,0.75,0.24,1.3,0.66,1.48c0.83,0.34,2.13-0.93,2.9-2.85c0.44-1.09,0.61-2.15,0.53-2.92c-0.44,0.01-1,0.26-1.57,0.7
					C161.72,249.51,162.54,249.1,163.18,249.09"/>
			</g>
			<g>
				<defs>
					<rect id="SVGID_239_" x="103.32" y="136.32" width="153.36" height="146.81"/>
				</defs>
				<clipPath id="SVGID_240_">
					<use xlink:href="#SVGID_239_"  style="overflow:visible;"/>
				</clipPath>
				<path class="st123" d="M132.94,254.56c-0.49-0.86-1.46-1.83-2.72-2.63c-2.22-1.41-4.51-1.76-5.12-0.79
					c-0.31,0.49-0.12,1.23,0.42,2.02l0,0c0.57,0.44,1.31,0.86,2.18,1.18c-0.55-0.23-1.03-0.51-1.41-0.81l0,0
					c-0.42-0.62-0.57-1.2-0.33-1.59c0.48-0.76,2.28-0.49,4.02,0.62c0.99,0.63,1.75,1.39,2.13,2.06c-0.37,0.25-0.96,0.37-1.68,0.35
					C131.51,255.06,132.41,254.91,132.94,254.56"/>
			</g>
			<g>
				<defs>
					<rect id="SVGID_241_" x="103.32" y="136.32" width="153.36" height="146.81"/>
				</defs>
				<clipPath id="SVGID_242_">
					<use xlink:href="#SVGID_241_"  style="overflow:visible;"/>
				</clipPath>
				<path class="st124" d="M154.06,250.65c0.4,1.3,0.44,3.16,0.01,5.15c-0.76,3.49-2.68,6.04-4.29,5.69
					c-0.81-0.18-1.39-1.06-1.67-2.34v-0.01c0.14-1.21,0.59-2.64,1.35-4.06C150.79,252.62,152.63,250.91,154.06,250.65"/>
			</g>
			<g>
				<defs>
					<rect id="SVGID_243_" x="103.32" y="136.32" width="153.36" height="146.81"/>
				</defs>
				<clipPath id="SVGID_244_">
					<use xlink:href="#SVGID_243_"  style="overflow:visible;"/>
				</clipPath>
				<path class="st125" d="M153.24,252.88c0.27,0.86,0.29,2.08,0.01,3.39c-0.5,2.3-1.76,3.97-2.82,3.74
					c-0.53-0.12-0.92-0.7-1.1-1.54l0,0c0.09-0.8,0.39-1.74,0.89-2.67C151.09,254.18,152.3,253.05,153.24,252.88"/>
			</g>
			<g>
				<defs>
					<rect id="SVGID_245_" x="103.32" y="136.32" width="153.36" height="146.81"/>
				</defs>
				<clipPath id="SVGID_246_">
					<use xlink:href="#SVGID_245_"  style="overflow:visible;"/>
				</clipPath>
				<path class="st126" d="M138.88,254.01c0.27,0.85,0.29,2.08,0.01,3.39c-0.5,2.3-1.76,3.97-2.82,3.74
					c-0.53-0.12-0.92-0.7-1.1-1.54l0,0c0.09-0.8,0.39-1.74,0.89-2.67C136.72,255.31,137.93,254.19,138.88,254.01"/>
			</g>
			<g>
				<defs>
					<rect id="SVGID_247_" x="103.32" y="136.32" width="153.36" height="146.81"/>
				</defs>
				<clipPath id="SVGID_248_">
					<use xlink:href="#SVGID_247_"  style="overflow:visible;"/>
				</clipPath>
				<path class="st127" d="M148.45,253.01c0.08,1.36-0.34,3.18-1.24,5c-1.58,3.21-4.06,5.21-5.54,4.48
					c-0.74-0.37-1.09-1.37-1.05-2.67v-0.01c0.42-1.14,1.21-2.42,2.29-3.61C144.8,254.13,147,252.92,148.45,253.01"/>
			</g>
			<g>
				<defs>
					<rect id="SVGID_249_" x="103.32" y="136.32" width="153.36" height="146.81"/>
				</defs>
				<clipPath id="SVGID_250_">
					<use xlink:href="#SVGID_249_"  style="overflow:visible;"/>
				</clipPath>
				<path class="st128" d="M177.4,240.97c0.86,0.32,1.37,0.72,1.46,1.22c0.56,3-13.77,8.21-32,11.63
					c-18.23,3.43-33.48,3.77-34.04,0.77c-0.03-0.16-0.02-0.33,0.04-0.5c4.29,1.57,17.39,0.86,32.58-2
					C162.69,248.86,176.44,244.02,177.4,240.97"/>
			</g>
			<g>
				<defs>
					<rect id="SVGID_251_" x="103.32" y="136.32" width="153.36" height="146.81"/>
				</defs>
				<clipPath id="SVGID_252_">
					<use xlink:href="#SVGID_251_"  style="overflow:visible;"/>
				</clipPath>
				<path class="st129" d="M150.85,261.67c0.16,1.35-0.15,3.19-0.94,5.06c-1.39,3.29-3.74,5.44-5.26,4.81
					c-0.76-0.32-1.17-1.3-1.21-2.61l0,0c0.36-1.17,1.07-2.49,2.08-3.75C147.27,263,149.39,261.66,150.85,261.67"/>
			</g>
			<g>
				<defs>
					<rect id="SVGID_253_" x="103.32" y="136.32" width="153.36" height="146.81"/>
				</defs>
				<clipPath id="SVGID_254_">
					<use xlink:href="#SVGID_253_"  style="overflow:visible;"/>
				</clipPath>
				<path class="st130" d="M142.88,264.7c0.16,1.35-0.15,3.19-0.94,5.06c-1.39,3.29-3.74,5.44-5.26,4.81
					c-0.77-0.32-1.17-1.3-1.21-2.61l0,0c0.36-1.17,1.07-2.49,2.08-3.75C139.3,266.04,141.42,264.69,142.88,264.7"/>
			</g>
			<g>
				<defs>
					<rect id="SVGID_255_" x="103.32" y="136.32" width="153.36" height="146.81"/>
				</defs>
				<clipPath id="SVGID_256_">
					<use xlink:href="#SVGID_255_"  style="overflow:visible;"/>
				</clipPath>
				<path class="st131" d="M139.23,264.48c-0.65,1.2-1.97,2.52-3.69,3.59c-3.04,1.88-6.2,2.28-7.07,0.88
					c-0.44-0.71-0.21-1.74,0.52-2.83l0,0c0.97-0.75,2.31-1.41,3.86-1.85C135.54,263.5,138.05,263.63,139.23,264.48"/>
			</g>
			<g>
				<defs>
					<rect id="SVGID_257_" x="103.32" y="136.32" width="153.36" height="146.81"/>
				</defs>
				<clipPath id="SVGID_258_">
					<use xlink:href="#SVGID_257_"  style="overflow:visible;"/>
				</clipPath>
				<path class="st132" d="M145.82,263.41c-1.25,0.55-3.09,0.8-5.11,0.6c-3.56-0.36-6.3-1.97-6.14-3.61c0.08-0.83,0.9-1.5,2.13-1.93
					l0,0c1.22,0,2.69,0.29,4.19,0.88C143.49,260.38,145.4,262.02,145.82,263.41"/>
			</g>
			<g>
				<defs>
					<rect id="SVGID_259_" x="103.32" y="136.32" width="153.36" height="146.81"/>
				</defs>
				<clipPath id="SVGID_260_">
					<use xlink:href="#SVGID_259_"  style="overflow:visible;"/>
				</clipPath>
				<path class="st133" d="M163.49,255.98c0.69,1.17,1.16,2.98,1.2,5.01c0.07,3.57-1.21,6.49-2.86,6.53
					c-0.83,0.02-1.6-0.71-2.16-1.89v-0.01c-0.15-1.21-0.04-2.71,0.38-4.26C160.76,258.65,162.16,256.56,163.49,255.98"/>
			</g>
			<g>
				<defs>
					<rect id="SVGID_261_" x="103.32" y="136.32" width="153.36" height="146.81"/>
				</defs>
				<clipPath id="SVGID_262_">
					<use xlink:href="#SVGID_261_"  style="overflow:visible;"/>
				</clipPath>
				<path class="st134" d="M160.11,258.29c-0.04,1.36-0.6,3.14-1.65,4.88c-1.84,3.06-4.48,4.86-5.89,4.01
					c-0.71-0.43-0.98-1.45-0.83-2.75l0,0c0.52-1.1,1.41-2.31,2.59-3.41C156.38,259.1,158.67,258.07,160.11,258.29"/>
			</g>
			<g>
				<defs>
					<rect id="SVGID_263_" x="103.32" y="136.32" width="153.36" height="146.81"/>
				</defs>
				<clipPath id="SVGID_264_">
					<use xlink:href="#SVGID_263_"  style="overflow:visible;"/>
				</clipPath>
				<path class="st135" d="M155.29,259.13c-1.05,0.87-2.76,1.61-4.76,1.96c-3.52,0.62-6.6-0.2-6.89-1.82
					c-0.14-0.82,0.46-1.69,1.53-2.43h0.01c1.17-0.33,2.67-0.45,4.27-0.28C152.23,256.84,154.51,257.9,155.29,259.13"/>
			</g>
			<g>
				<defs>
					<rect id="SVGID_265_" x="103.32" y="136.32" width="153.36" height="146.81"/>
				</defs>
				<clipPath id="SVGID_266_">
					<use xlink:href="#SVGID_265_"  style="overflow:visible;"/>
				</clipPath>
				<path class="st136" d="M165.11,255.68c-1.05,0.87-2.76,1.61-4.76,1.96c-3.52,0.62-6.6-0.2-6.89-1.82
					c-0.14-0.82,0.46-1.69,1.53-2.43H155c1.17-0.33,2.67-0.45,4.27-0.28C162.04,253.39,164.32,254.45,165.11,255.68"/>
			</g>
			<g>
				<defs>
					<rect id="SVGID_267_" x="103.32" y="136.32" width="153.36" height="146.81"/>
				</defs>
				<clipPath id="SVGID_268_">
					<use xlink:href="#SVGID_267_"  style="overflow:visible;"/>
				</clipPath>
				<path class="st137" d="M175.77,250.91c-0.93,0.99-2.54,1.94-4.48,2.54c-3.41,1.06-6.58,0.64-7.06-0.93
					c-0.24-0.79,0.24-1.73,1.21-2.6l0,0c1.12-0.48,2.59-0.79,4.2-0.82C172.44,249.03,174.84,249.79,175.77,250.91"/>
			</g>
			<g>
				<defs>
					<rect id="SVGID_269_" x="103.32" y="136.32" width="153.36" height="146.81"/>
				</defs>
				<clipPath id="SVGID_270_">
					<use xlink:href="#SVGID_269_"  style="overflow:visible;"/>
				</clipPath>
				<path class="st138" d="M171.94,250.17c-0.49,0.65-1.39,1.32-2.51,1.81c-1.97,0.85-3.88,0.81-4.28-0.1
					c-0.2-0.46,0.03-1.05,0.56-1.63l0,0c0.64-0.36,1.49-0.64,2.45-0.76C169.83,249.27,171.31,249.57,171.94,250.17"/>
			</g>
			<g>
				<defs>
					<rect id="SVGID_271_" x="103.32" y="136.32" width="153.36" height="146.81"/>
				</defs>
				<clipPath id="SVGID_272_">
					<use xlink:href="#SVGID_271_"  style="overflow:visible;"/>
				</clipPath>
				<path class="st139" d="M142.24,265.51c0.07,0.81-0.15,1.91-0.66,3.02c-0.9,1.95-2.35,3.19-3.25,2.78
					c-0.45-0.21-0.68-0.8-0.68-1.59l0,0c0.24-0.69,0.69-1.47,1.32-2.21C140.07,266.24,141.37,265.48,142.24,265.51"/>
			</g>
			<g>
				<defs>
					<rect id="SVGID_273_" x="103.32" y="136.32" width="153.36" height="146.81"/>
				</defs>
				<clipPath id="SVGID_274_">
					<use xlink:href="#SVGID_273_"  style="overflow:visible;"/>
				</clipPath>
				<path class="st140" d="M179.37,249.14c-1.32,0.33-3.19,0.25-5.14-0.3c-3.44-0.97-5.86-3.04-5.42-4.62
					c0.23-0.8,1.14-1.33,2.44-1.52h0.01c1.2,0.21,2.6,0.75,3.97,1.6C177.61,245.75,179.2,247.69,179.37,249.14"/>
			</g>
			<g>
				<defs>
					<rect id="SVGID_275_" x="103.32" y="136.32" width="153.36" height="146.81"/>
				</defs>
				<clipPath id="SVGID_276_">
					<use xlink:href="#SVGID_275_"  style="overflow:visible;"/>
				</clipPath>
				<path class="st141" d="M179.01,248.49c-0.91,0.28-2.16,0.33-3.44,0.08c-2.26-0.44-3.78-1.65-3.4-2.69
					c0.19-0.53,0.84-0.91,1.72-1.11l0,0c0.8,0.07,1.71,0.35,2.59,0.82C178,246.4,178.97,247.57,179.01,248.49"/>
			</g>
			<g>
				<defs>
					<rect id="SVGID_277_" x="103.32" y="136.32" width="153.36" height="146.81"/>
				</defs>
				<clipPath id="SVGID_278_">
					<use xlink:href="#SVGID_277_"  style="overflow:visible;"/>
				</clipPath>
				<path class="st142" d="M189.34,241.59c-1.05,0.87-2.76,1.61-4.76,1.96c-3.52,0.62-6.6-0.2-6.89-1.82
					c-0.14-0.82,0.46-1.69,1.53-2.43l0,0c1.17-0.33,2.67-0.45,4.27-0.28C186.28,239.31,188.55,240.36,189.34,241.59"/>
			</g>
			<g>
				<defs>
					<rect id="SVGID_279_" x="103.32" y="136.32" width="153.36" height="146.81"/>
				</defs>
				<clipPath id="SVGID_280_">
					<use xlink:href="#SVGID_279_"  style="overflow:visible;"/>
				</clipPath>
				<path class="st143" d="M188.6,241.75c-0.74,0.53-1.98,0.95-3.45,1.09c-2.59,0.25-4.93-0.45-5.22-1.56
					c-0.15-0.56,0.26-1.12,1.02-1.56l0,0c0.86-0.17,1.96-0.18,3.17,0.02C186.21,240.06,187.96,240.89,188.6,241.75"/>
			</g>
			<g>
				<defs>
					<rect id="SVGID_281_" x="103.32" y="136.32" width="153.36" height="146.81"/>
				</defs>
				<clipPath id="SVGID_282_">
					<use xlink:href="#SVGID_281_"  style="overflow:visible;"/>
				</clipPath>
				<path class="st144" d="M193.12,239.14c0.75,1.14,1.3,2.92,1.43,4.95c0.24,3.57-0.91,6.54-2.55,6.65
					c-0.83,0.05-1.63-0.63-2.25-1.79v-0.01c-0.2-1.2-0.16-2.7,0.18-4.28C190.52,241.94,191.81,239.78,193.12,239.14"/>
			</g>
			<g>
				<defs>
					<rect id="SVGID_283_" x="103.32" y="136.32" width="153.36" height="146.81"/>
				</defs>
				<clipPath id="SVGID_284_">
					<use xlink:href="#SVGID_283_"  style="overflow:visible;"/>
				</clipPath>
				<path class="st145" d="M193.89,236.71c0.62,1.05,1.01,2.73,1.01,4.67c0.01,3.42-1.21,6.35-2.71,6.55
					c-0.76,0.1-1.45-0.51-1.94-1.58v-0.01c-0.12-1.14,0.01-2.59,0.41-4.12C191.36,239.55,192.66,237.41,193.89,236.71"/>
			</g>
			<g>
				<defs>
					<rect id="SVGID_285_" x="103.32" y="136.32" width="153.36" height="146.81"/>
				</defs>
				<clipPath id="SVGID_286_">
					<use xlink:href="#SVGID_285_"  style="overflow:visible;"/>
				</clipPath>
				<path class="st146" d="M183.73,245.55c0.54,1.25,0.78,3.1,0.57,5.12c-0.38,3.55-2.01,6.29-3.65,6.12
					c-0.83-0.09-1.5-0.9-1.91-2.14v-0.01c0-1.22,0.3-2.69,0.91-4.18C180.69,247.86,182.33,245.96,183.73,245.55"/>
			</g>
			<g>
				<defs>
					<rect id="SVGID_287_" x="103.32" y="136.32" width="153.36" height="146.81"/>
				</defs>
				<clipPath id="SVGID_288_">
					<use xlink:href="#SVGID_287_"  style="overflow:visible;"/>
				</clipPath>
				<path class="st147" d="M183.97,245.56c0.38,0.92,0.54,2.28,0.39,3.77c-0.27,2.62-1.41,4.64-2.55,4.51
					c-0.58-0.06-1.04-0.67-1.33-1.58l0,0c0-0.72,0.14-1.56,0.42-2.44c-0.16,0.58-0.24,1.13-0.24,1.61l0,0
					c0.22,0.72,0.59,1.19,1.04,1.24c0.89,0.1,1.79-1.49,2-3.54c0.12-1.16-0.01-2.23-0.3-2.95c-0.42,0.13-0.88,0.53-1.31,1.1
					C182.69,246.37,183.36,245.75,183.97,245.56"/>
			</g>
			<g>
				<defs>
					<rect id="SVGID_289_" x="103.32" y="136.32" width="153.36" height="146.81"/>
				</defs>
				<clipPath id="SVGID_290_">
					<use xlink:href="#SVGID_289_"  style="overflow:visible;"/>
				</clipPath>
				<path class="st148" d="M156.43,259.18c-0.71-0.69-1.91-1.36-3.34-1.78c-2.52-0.74-4.82-0.44-5.14,0.66
					c-0.16,0.56,0.22,1.22,0.96,1.82l0,0c0.67,0.27,1.5,0.46,2.42,0.54c-0.59-0.07-1.13-0.21-1.58-0.38l0,0
					c-0.58-0.48-0.88-1-0.75-1.43c0.25-0.87,2.05-1.1,4.03-0.52c1.12,0.33,2.07,0.85,2.62,1.39c-0.28,0.34-0.82,0.62-1.52,0.8
					C155.19,260.07,156.02,259.67,156.43,259.18"/>
			</g>
			<g>
				<defs>
					<rect id="SVGID_291_" x="103.32" y="136.32" width="153.36" height="146.81"/>
				</defs>
				<clipPath id="SVGID_292_">
					<use xlink:href="#SVGID_291_"  style="overflow:visible;"/>
				</clipPath>
				<path class="st149" d="M175.65,249.58c0.75,1.14,1.3,2.92,1.43,4.95c0.24,3.57-0.91,6.54-2.55,6.65
					c-0.83,0.05-1.63-0.63-2.25-1.79v-0.01c-0.2-1.2-0.16-2.7,0.18-4.28C173.04,252.38,174.34,250.23,175.65,249.58"/>
			</g>
			<g>
				<defs>
					<rect id="SVGID_293_" x="103.32" y="136.32" width="153.36" height="146.81"/>
				</defs>
				<clipPath id="SVGID_294_">
					<use xlink:href="#SVGID_293_"  style="overflow:visible;"/>
				</clipPath>
				<path class="st150" d="M175.47,251.96c0.49,0.75,0.85,1.92,0.94,3.25c0.16,2.34-0.59,4.3-1.67,4.37
					c-0.55,0.04-1.07-0.42-1.48-1.18l0,0c-0.13-0.79-0.11-1.78,0.12-2.81C173.76,253.79,174.61,252.38,175.47,251.96"/>
			</g>
			<g>
				<defs>
					<rect id="SVGID_295_" x="103.32" y="136.32" width="153.36" height="146.81"/>
				</defs>
				<clipPath id="SVGID_296_">
					<use xlink:href="#SVGID_295_"  style="overflow:visible;"/>
				</clipPath>
				<path class="st151" d="M161.98,257.02c0.49,0.75,0.85,1.92,0.94,3.25c0.16,2.35-0.6,4.3-1.67,4.38
					c-0.55,0.04-1.07-0.42-1.48-1.18l0,0c-0.13-0.79-0.11-1.78,0.12-2.81C160.27,258.86,161.12,257.44,161.98,257.02"/>
			</g>
			<g>
				<defs>
					<rect id="SVGID_297_" x="103.32" y="136.32" width="153.36" height="146.81"/>
				</defs>
				<clipPath id="SVGID_298_">
					<use xlink:href="#SVGID_297_"  style="overflow:visible;"/>
				</clipPath>
				<path class="st152" d="M170.91,253.4c0.45,1.29,0.56,3.15,0.2,5.14c-0.63,3.52-2.46,6.13-4.08,5.84
					c-0.82-0.15-1.43-1.01-1.75-2.28v-0.01c0.09-1.22,0.49-2.66,1.21-4.11C167.7,255.49,169.48,253.72,170.91,253.4"/>
			</g>
			<g>
				<defs>
					<rect id="SVGID_299_" x="103.32" y="136.32" width="153.36" height="146.81"/>
				</defs>
				<clipPath id="SVGID_300_">
					<use xlink:href="#SVGID_299_"  style="overflow:visible;"/>
				</clipPath>
				<path class="st153" d="M195.39,233.82c0.91,0.07,1.51,0.32,1.74,0.77c1.37,2.73-10.96,11.7-27.53,20.04s-31.13,12.89-32.5,10.16
					c-0.07-0.15-0.11-0.31-0.1-0.49c4.55,0.32,16.95-3.99,30.75-10.93C183.44,245.48,195.31,237.02,195.39,233.82"/>
			</g>
		</g>
		
			<rect x="207.75" y="216.7" transform="matrix(0.9898 -0.1425 0.1425 0.9898 -28.8335 35.32)" class="st154" width="48.86" height="4.53"/>
		
			<rect x="197.88" y="225.21" transform="matrix(0.9898 -0.1425 0.1425 0.9898 -30.1467 34.0004)" class="st154" width="48.86" height="4.53"/>
		
			<rect x="190.83" y="234.22" transform="matrix(0.9898 -0.1425 0.1425 0.9898 -31.5019 33.0884)" class="st154" width="48.86" height="4.53"/>
		<g>
			<g>
				<defs>
					<rect id="SVGID_301_" x="103.32" y="136.32" width="153.36" height="146.81"/>
				</defs>
				<clipPath id="SVGID_302_">
					<use xlink:href="#SVGID_301_"  style="overflow:visible;"/>
				</clipPath>
				<path class="st155" d="M189.97,152.25c-4.15-5.12-10.35-7.4-15.64-6.26c5.84-3.84,14.39-1.92,19.66,4.58
					c5.57,6.87,5.38,16.26-0.44,20.98c-1.47,1.19-3.16,1.97-4.95,2.35c0.32-0.19,0.63-0.42,0.93-0.66
					C195.34,168.51,195.55,159.12,189.97,152.25"/>
			</g>
			<g>
				<defs>
					<rect id="SVGID_303_" x="103.32" y="136.32" width="153.36" height="146.81"/>
				</defs>
				<clipPath id="SVGID_304_">
					<use xlink:href="#SVGID_303_"  style="overflow:visible;"/>
				</clipPath>
				<path class="st156" d="M195.7,148.99c-1.43-6.43-5.95-11.24-11.19-12.6c6.94-0.82,13.73,4.71,15.54,12.89
					c1.91,8.64-2.46,16.95-9.78,18.57c-1.85,0.41-3.71,0.35-5.48-0.11c0.37-0.03,0.75-0.09,1.13-0.18
					C193.23,165.94,197.62,157.63,195.7,148.99"/>
			</g>
			<g>
				<defs>
					<rect id="SVGID_305_" x="103.32" y="136.32" width="153.36" height="146.81"/>
				</defs>
				<clipPath id="SVGID_306_">
					<use xlink:href="#SVGID_305_"  style="overflow:visible;"/>
				</clipPath>
				<path class="st157" d="M222.31,177.84c0,15.67-12.71,28.38-28.38,28.38s-28.38-12.7-28.38-28.38s12.71-28.38,28.38-28.38
					C209.6,149.46,222.31,162.17,222.31,177.84"/>
			</g>
			<g>
				<defs>
					<rect id="SVGID_307_" x="103.32" y="136.32" width="153.36" height="146.81"/>
				</defs>
				<clipPath id="SVGID_308_">
					<use xlink:href="#SVGID_307_"  style="overflow:visible;"/>
				</clipPath>
				<path class="st158" d="M220.23,177.81c0,14.13-11.46,25.59-25.59,25.59c-14.13,0-25.59-11.46-25.59-25.59
					s11.46-25.59,25.59-25.59C208.78,152.22,220.23,163.68,220.23,177.81"/>
			</g>
			<g>
				<defs>
					<rect id="SVGID_309_" x="103.32" y="136.32" width="153.36" height="146.81"/>
				</defs>
				<clipPath id="SVGID_310_">
					<use xlink:href="#SVGID_309_"  style="overflow:visible;"/>
				</clipPath>
				<path class="st159" d="M212.37,189.15c-6.49-1.6-10.45-8.16-8.85-14.64c1.6-6.49,8.16-10.45,14.64-8.85
					c6.49,1.6,10.45,8.16,8.85,14.64C225.41,186.79,218.86,190.75,212.37,189.15"/>
			</g>
			<g>
				<defs>
					<rect id="SVGID_311_" x="103.32" y="136.32" width="153.36" height="146.81"/>
				</defs>
				<clipPath id="SVGID_312_">
					<use xlink:href="#SVGID_311_"  style="overflow:visible;"/>
				</clipPath>
				<path class="st160" d="M209.24,184.64c-3.18-0.78-5.12-3.99-4.33-7.17c0.78-3.18,3.99-5.12,7.17-4.33
					c3.18,0.78,5.11,3.99,4.33,7.17C215.63,183.48,212.42,185.42,209.24,184.64"/>
			</g>
			<g>
				<defs>
					<rect id="SVGID_313_" x="103.32" y="136.32" width="153.36" height="146.81"/>
				</defs>
				<clipPath id="SVGID_314_">
					<use xlink:href="#SVGID_313_"  style="overflow:visible;"/>
				</clipPath>
				<path class="st161" d="M170.85,190.59c-6.49-1.6-10.45-8.16-8.85-14.64c1.6-6.49,8.15-10.45,14.64-8.85
					c6.49,1.6,10.45,8.16,8.85,14.64C183.89,188.23,177.34,192.19,170.85,190.59"/>
			</g>
			<g>
				<defs>
					<rect id="SVGID_315_" x="103.32" y="136.32" width="153.36" height="146.81"/>
				</defs>
				<clipPath id="SVGID_316_">
					<use xlink:href="#SVGID_315_"  style="overflow:visible;"/>
				</clipPath>
				<path class="st162" d="M167.72,186.08c-3.18-0.78-5.12-3.99-4.33-7.17c0.78-3.18,3.99-5.11,7.17-4.33s5.12,3.99,4.33,7.17
					C174.11,184.93,170.9,186.87,167.72,186.08"/>
			</g>
		</g>
		<polygon class="st0" points="194.18,213.65 184.35,196.62 204,196.62 		"/>
		<polygon class="st163" points="194.65,210.41 187.38,197.83 201.91,197.83 		"/>
		<g>
			<g>
				<defs>
					<rect id="SVGID_317_" x="103.32" y="136.32" width="153.36" height="146.81"/>
				</defs>
				<clipPath id="SVGID_318_">
					<use xlink:href="#SVGID_317_"  style="overflow:visible;"/>
				</clipPath>
				<path class="st164" d="M199.21,253c-3.93,11.93-12.61,19.8-19.39,17.57c-1.84-0.61-3.36-1.9-4.5-3.7
					c5.86-1.17,12.11-8.16,15.28-17.78c2.86-8.69,2.43-17.15-0.64-21.95c1.42-0.3,2.79-0.24,4.11,0.19
					C200.85,229.56,203.14,241.05,199.21,253"/>
			</g>
			<g>
				<defs>
					<rect id="SVGID_319_" x="103.32" y="136.32" width="153.36" height="146.81"/>
				</defs>
				<clipPath id="SVGID_320_">
					<use xlink:href="#SVGID_319_"  style="overflow:visible;"/>
				</clipPath>
				<path class="st165" d="M205.44,256.42c-2.07,15.57-8.95,27.52-15.37,26.66c-1.75-0.23-3.28-1.39-4.54-3.26
					c5.16-3.03,9.96-13.24,11.63-25.79c1.51-11.34,0.05-21.5-3.34-26.49c1.25-0.75,2.5-1.06,3.75-0.89
					C203.99,227.5,207.51,240.83,205.44,256.42"/>
			</g>
			<g>
				<defs>
					<rect id="SVGID_321_" x="103.32" y="136.32" width="153.36" height="146.81"/>
				</defs>
				<clipPath id="SVGID_322_">
					<use xlink:href="#SVGID_321_"  style="overflow:visible;"/>
				</clipPath>
				<path class="st166" d="M197.95,249.25c-2.34,12.19-9.39,21.1-15.76,19.88c-1.73-0.33-3.23-1.38-4.45-2.97
					c5.18-1.97,10.13-9.67,12.02-19.5c1.7-8.88,0.45-17.07-2.83-21.32c1.25-0.49,2.51-0.63,3.74-0.39
					C197.04,226.16,200.29,237.05,197.95,249.25"/>
			</g>
			<g>
				<defs>
					<rect id="SVGID_323_" x="103.32" y="136.32" width="153.36" height="146.81"/>
				</defs>
				<clipPath id="SVGID_324_">
					<use xlink:href="#SVGID_323_"  style="overflow:visible;"/>
				</clipPath>
				<path class="st167" d="M205.6,252.13c-0.48,14.55-6.29,26.17-13,25.96c-0.71-0.02-1.39-0.18-2.06-0.45
					c5.79-1.95,10.48-12.61,10.91-25.64c0.43-13.01-3.56-23.96-9.21-26.28c0.69-0.23,1.37-0.34,2.09-0.32
					C201.02,225.62,206.07,237.59,205.6,252.13"/>
			</g>
		</g>
		<polygon class="st168" points="164,226.8 190.88,221.74 181.23,245.67 		"/>
		<polygon class="st168" points="193.21,223.01 220.09,217.96 210.44,241.88 		"/>
		<polygon class="st169" points="194.05,221.95 220.93,216.89 211.29,240.81 		"/>
		<polygon class="st168" points="215.17,221.82 210.81,234.81 196.53,224.22 		"/>
		<polygon class="st169" points="162.86,225.31 189.74,220.26 180.09,244.18 		"/>
		<polygon class="st168" points="177.43,231.04 176.85,236.78 188.86,223.06 		"/>
		<polygon class="st168" points="172.88,226.08 170.54,231.88 187.19,221.22 		"/>
		<g>
			<g>
				<defs>
					<rect id="SVGID_325_" x="103.32" y="136.32" width="153.36" height="146.81"/>
				</defs>
				<clipPath id="SVGID_326_">
					<use xlink:href="#SVGID_325_"  style="overflow:visible;"/>
				</clipPath>
				<path class="st170" d="M196.26,228.98h-6.11c-2.8,0-5.09-2.29-5.09-5.09v-1.91c0-2.8,2.29-5.09,5.09-5.09h6.11
					c2.8,0,5.09,2.29,5.09,5.09v1.91C201.35,226.69,199.06,228.98,196.26,228.98"/>
			</g>
		</g>
	</g>
</g>
<g id="Name">
	<g class="st2">
		<path class="st3" d="M102.07,390.85c-0.03-0.03-0.06-0.04-0.1-0.07c0-0.02-0.02-0.02-0.02-0.04c-0.03-0.03-0.06-0.06-0.08-0.09
			c0,0-0.01,0-0.01-0.01c-0.02-0.03-0.05-0.09-0.08-0.12l-3.67-8.76c-0.18-0.4,0.02-0.9,0.45-1.06c0.41-0.18,0.89,0.01,1.06,0.43
			l2.93,6.95l2.92-6.95c0.18-0.42,0.67-0.62,1.08-0.43c0.42,0.17,0.61,0.66,0.45,1.06l-3.7,8.76c-0.02,0.03-0.03,0.09-0.06,0.12
			c0,0.01,0,0.01-0.02,0.01c-0.02,0.03-0.06,0.06-0.08,0.09c-0.01,0.03-0.01,0.03-0.03,0.04c-0.03,0.03-0.06,0.04-0.09,0.07
			c0,0,0,0-0.03,0.02c-0.03,0.01-0.07,0.06-0.12,0.08c-0.01,0-0.01,0-0.03,0.01c-0.04,0-0.08,0.01-0.12,0.03c0,0-0.01,0-0.03,0
			c-0.06,0.01-0.1,0.01-0.15,0.01c-0.05,0-0.1,0-0.15-0.01c0,0-0.01,0-0.03,0c-0.03-0.02-0.09-0.03-0.12-0.03
			c0-0.01-0.01-0.01-0.01-0.01s0,0-0.02,0c-0.03-0.02-0.09-0.06-0.14-0.09C102.08,390.85,102.08,390.85,102.07,390.85z"/>
		<path class="st3" d="M111.07,381.63c0,0.45-0.34,0.83-0.81,0.83c-0.45,0-0.81-0.38-0.81-0.83v-0.31c0-0.45,0.36-0.81,0.81-0.81
			c0.47,0,0.81,0.36,0.81,0.81V381.63z M111.07,384.34v5.85c0,0.45-0.34,0.81-0.81,0.81c-0.45,0-0.81-0.36-0.81-0.81v-5.85
			c0-0.48,0.36-0.82,0.81-0.82C110.72,383.52,111.07,383.86,111.07,384.34z"/>
		<path class="st3" d="M118.27,384.3c0,0.42-0.34,0.79-0.79,0.79c-0.34,0-0.65,0.09-0.9,0.29c-0.29,0.18-0.51,0.44-0.69,0.72
			c-0.36,0.48-0.54,1.05-0.62,1.26v2.85c0,0.43-0.38,0.79-0.82,0.79c-0.44,0-0.79-0.36-0.79-0.79v-5.91c0-0.43,0.36-0.78,0.79-0.78
			c0.45,0,0.82,0.34,0.82,0.78v0.11c0.09-0.11,0.21-0.23,0.32-0.3c0.49-0.33,1.14-0.6,1.89-0.58
			C117.92,383.52,118.27,383.86,118.27,384.3z"/>
		<path class="st3" d="M126.94,387.3v2.79c0,1.96-1.6,3.6-3.6,3.6c-0.56,0-1.11-0.13-1.58-0.38c-0.39-0.18-0.57-0.67-0.36-1.08
			c0.19-0.4,0.66-0.55,1.08-0.38c0.25,0.14,0.54,0.21,0.85,0.21c0.97,0,1.77-0.69,1.96-1.61c-0.54,0.38-1.23,0.6-1.96,0.6
			c-0.99,0-1.91-0.43-2.55-1.14c-0.64-0.66-1.05-1.59-1.05-2.64c0-1.04,0.41-1.96,1.05-2.67c0.65-0.67,1.56-1.11,2.55-1.11
			c0.78,0,1.47,0.24,2.01,0.63c0.08-0.36,0.4-0.63,0.79-0.63c0.45,0,0.79,0.36,0.79,0.79v2.99V387.3z M125.33,387.28
			c0-0.6-0.24-1.17-0.57-1.53c-0.39-0.42-0.85-0.64-1.42-0.64c-0.53,0-1.02,0.22-1.38,0.64c-0.36,0.36-0.6,0.93-0.6,1.53
			c0,0.63,0.24,1.2,0.6,1.54c0.36,0.41,0.85,0.62,1.38,0.62c0.57,0,1.03-0.21,1.42-0.62C125.09,388.48,125.33,387.91,125.33,387.28z
			"/>
		<path class="st3" d="M130.82,389.91c-0.65-0.66-1.04-1.59-1.04-2.64c0-1.02,0.39-1.91,1.04-2.62c0.67-0.71,1.54-1.14,2.58-1.14
			c0.99,0,1.89,0.44,2.5,1.14c0.67,0.72,1.05,1.6,1.05,2.62c0,1.05-0.38,1.98-1.05,2.64c-0.62,0.71-1.52,1.14-2.5,1.14
			C132.37,391.05,131.5,390.61,130.82,389.91z M131.42,387.27c0,0.64,0.19,1.17,0.54,1.59c0.38,0.36,0.87,0.55,1.44,0.55
			c0.52,0,1-0.2,1.38-0.55c0.38-0.42,0.58-0.95,0.58-1.59c0-0.62-0.21-1.16-0.58-1.56c-0.38-0.33-0.85-0.57-1.38-0.57
			c-0.57,0-1.06,0.24-1.44,0.57C131.62,386.11,131.42,386.65,131.42,387.27z"/>
	</g>
</g>
</svg>
