<?xml version="1.0" encoding="utf-8"?>
<!-- Generator: Adobe Illustrator 23.0.2, SVG Export Plug-In . SVG Version: 6.00 Build 0)  -->
<svg version="1.1" xmlns="http://www.w3.org/2000/svg" xmlns:xlink="http://www.w3.org/1999/xlink" x="0px" y="0px"
	 viewBox="0 0 252 252" style="enable-background:new 0 0 252 252;" xml:space="preserve">
<style type="text/css">
	.st0{display:none;}
	.st1{display:inline;fill:#FFFFFF;stroke:#252723;stroke-miterlimit:10;}
	.st2{fill:#FFFFFF;}
	.st3{fill:#D8C6DA;}
	.st4{clip-path:url(#SVGID_2_);fill:#212020;}
	.st5{clip-path:url(#SVGID_2_);fill:#FFFFFF;}
	.st6{fill:#212020;}
	.st7{clip-path:url(#SVGID_4_);fill:#BBA5CB;}
	.st8{clip-path:url(#SVGID_4_);fill:#7A63A2;}
	.st9{fill:#CEE0C0;}
	.st10{clip-path:url(#SVGID_6_);fill:#D188B3;}
	.st11{clip-path:url(#SVGID_6_);fill:#D8A1C3;}
	.st12{fill:#D8A1C3;}
	.st13{fill:#E2C5DB;}
	.st14{clip-path:url(#SVGID_8_);fill:#E2C5DB;}
	.st15{display:inline;fill:none;stroke:#252723;stroke-miterlimit:10;}
</style>
<g id="Bleed" class="st0">
	<circle class="st1" cx="126" cy="126" r="72"/>
</g>
<g id="Background">
</g>
<g id="Image">
	<circle class="st2" cx="126" cy="126" r="57.66"/>
	<circle class="st3" cx="126" cy="126" r="50.01"/>
	<circle class="st2" cx="126" cy="126" r="45.64"/>
	
		<ellipse transform="matrix(0.9972 -0.0742 0.0742 0.9972 -9.0203 9.5718)" class="st3" cx="124.25" cy="126.13" rx="45.26" ry="40.51"/>
	<circle class="st2" cx="129.35" cy="127.38" r="39.89"/>
	
		<ellipse transform="matrix(0.9681 -0.2504 0.2504 0.9681 -27.7555 36.3001)" class="st3" cx="128.8" cy="127.24" rx="45.26" ry="40.51"/>
	<circle class="st2" cx="126.52" cy="124.25" r="40.6"/>
	<g>
		<g>
			<defs>
				<rect id="SVGID_1_" x="103.79" y="84.12" width="44.41" height="52.25"/>
			</defs>
			<clipPath id="SVGID_2_">
				<use xlink:href="#SVGID_1_"  style="overflow:visible;"/>
			</clipPath>
			<path class="st4" d="M122.94,94.88c-2.8-3.46-6.99-5-10.57-4.23c3.95-2.59,9.72-1.3,13.29,3.09c3.77,4.64,3.63,10.99-0.3,14.18
				c-0.99,0.81-2.13,1.33-3.35,1.59c0.21-0.13,0.42-0.28,0.63-0.45C126.56,105.88,126.7,99.53,122.94,94.88"/>
			<path class="st4" d="M126.81,92.69c-0.96-4.35-4.02-7.6-7.56-8.51c4.69-0.55,9.28,3.18,10.5,8.71
				c1.29,5.84-1.66,11.45-6.61,12.55c-1.25,0.28-2.5,0.24-3.7-0.08c0.25-0.02,0.51-0.06,0.76-0.12
				C125.14,104.14,128.1,98.52,126.81,92.69"/>
			<path class="st4" d="M144.79,112.18c0,10.59-8.58,19.18-19.17,19.18s-19.18-8.59-19.18-19.18S115.02,93,125.61,93
				S144.79,101.59,144.79,112.18"/>
			<path class="st5" d="M143.39,112.16c0,9.55-7.74,17.29-17.29,17.29s-17.29-7.74-17.29-17.29s7.74-17.29,17.29-17.29
				S143.39,102.61,143.39,112.16"/>
			<path class="st4" d="M138.07,119.82c-4.38-1.08-7.06-5.51-5.98-9.89c1.08-4.38,5.51-7.06,9.89-5.98
				c4.38,1.08,7.06,5.51,5.98,9.89C146.88,118.22,142.46,120.9,138.07,119.82"/>
			<path class="st5" d="M135.96,116.77c-2.15-0.53-3.46-2.7-2.93-4.84c0.53-2.15,2.7-3.46,4.84-2.93c2.15,0.53,3.46,2.7,2.93,4.84
				C140.27,115.99,138.11,117.3,135.96,116.77"/>
			<path class="st4" d="M110.01,120.79c-4.38-1.08-7.06-5.51-5.98-9.89c1.08-4.38,5.51-7.06,9.89-5.98c4.38,1.08,7.06,5.51,5.98,9.9
				C118.83,119.2,114.4,121.88,110.01,120.79"/>
			<path class="st5" d="M107.9,117.75c-2.15-0.53-3.46-2.7-2.93-4.84c0.53-2.15,2.7-3.46,4.84-2.93c2.15,0.53,3.46,2.7,2.93,4.84
				C112.22,116.97,110.05,118.28,107.9,117.75"/>
		</g>
		<polygon class="st2" points="119.36,124.87 126,136.37 132.64,124.87 		"/>
		<polygon class="st6" points="126,134.19 121.09,125.69 130.91,125.69 		"/>
	</g>
	<g>
		<g>
			<defs>
				<rect id="SVGID_3_" x="102.09" y="129.72" width="52.28" height="27.59"/>
			</defs>
			<clipPath id="SVGID_4_">
				<use xlink:href="#SVGID_3_"  style="overflow:visible;"/>
			</clipPath>
			<path class="st7" d="M112.88,137c-0.26,0.41-0.8,0.88-1.51,1.26c-1.25,0.67-2.58,0.84-2.96,0.37c-0.19-0.24-0.11-0.59,0.18-0.97
				l0,0c0.4-0.26,0.95-0.5,1.6-0.67C111.31,136.7,112.37,136.72,112.88,137"/>
			<path class="st7" d="M109.38,136.35c-0.26,0.41-0.8,0.88-1.51,1.26c-1.25,0.67-2.58,0.84-2.96,0.37
				c-0.19-0.24-0.11-0.59,0.18-0.97l0,0c0.4-0.26,0.95-0.5,1.6-0.67C107.81,136.06,108.87,136.08,109.38,136.35"/>
			<path class="st7" d="M108.15,135.6c-0.51,0.22-1.28,0.34-2.13,0.32c-1.5-0.04-2.7-0.53-2.68-1.09c0.01-0.28,0.33-0.53,0.84-0.7h0
				c0.51-0.03,1.14,0.04,1.78,0.2C107.09,134.63,107.94,135.14,108.15,135.6"/>
			<path class="st7" d="M110.71,136.54c-0.56-0.08-1.27-0.36-1.93-0.8c-1.16-0.77-1.75-1.75-1.31-2.19c0.22-0.22,0.67-0.26,1.2-0.14
				l0,0c0.43,0.23,0.88,0.59,1.26,1.04C110.6,135.25,110.89,136.07,110.71,136.54"/>
			<path class="st7" d="M118.64,137.78c-0.03,0.46-0.29,1.06-0.75,1.65c-0.81,1.03-1.94,1.61-2.52,1.31
				c-0.29-0.15-0.39-0.5-0.32-0.95l0,0c0.23-0.37,0.62-0.77,1.13-1.14C117.06,138.02,118.03,137.69,118.64,137.78"/>
			<path class="st7" d="M116.91,137.79c-0.33,0.38-0.94,0.78-1.72,1.07c-1.36,0.52-2.7,0.53-3,0.02c-0.15-0.26,0-0.6,0.35-0.94l0,0
				c0.44-0.21,1.03-0.39,1.7-0.48C115.41,137.32,116.46,137.46,116.91,137.79"/>
			<path class="st7" d="M115.03,137.12c-0.57,0.05-1.34-0.07-2.13-0.35c-1.38-0.49-2.27-1.3-1.99-1.82c0.14-0.26,0.55-0.39,1.11-0.4
				l0,0c0.49,0.13,1.04,0.38,1.56,0.73C114.49,135.89,115.04,136.62,115.03,137.12"/>
			<path class="st7" d="M119.27,138c-0.57,0.05-1.34-0.07-2.13-0.35c-1.38-0.49-2.27-1.3-1.99-1.82c0.14-0.26,0.55-0.39,1.11-0.4
				l0,0c0.49,0.13,1.04,0.38,1.56,0.73C118.73,136.77,119.28,137.5,119.27,138"/>
			<path class="st7" d="M124.12,138.66c-0.56,0.1-1.34,0.07-2.16-0.12c-1.44-0.35-2.45-1.06-2.26-1.6c0.1-0.27,0.49-0.45,1.03-0.51
				l0,0c0.5,0.08,1.09,0.27,1.66,0.56C123.39,137.5,124.06,138.17,124.12,138.66"/>
			<path class="st7" d="M122.95,137.73c-0.32,0.09-0.8,0.11-1.3,0.04c-0.89-0.13-1.55-0.5-1.48-0.84c0.04-0.17,0.26-0.29,0.58-0.36
				h0c0.31,0.02,0.67,0.1,1.04,0.25C122.42,137.07,122.87,137.43,122.95,137.73"/>
			<path class="st7" d="M108.97,136.46c-0.17,0.24-0.5,0.51-0.94,0.73c-0.77,0.38-1.57,0.46-1.79,0.17
				c-0.11-0.14-0.05-0.35,0.13-0.58l0,0c0.24-0.15,0.58-0.29,0.98-0.38C108.03,136.26,108.67,136.29,108.97,136.46"/>
			<path class="st7" d="M125.8,138.84c-0.54-0.16-1.17-0.53-1.73-1.06c-0.98-0.92-1.34-1.97-0.82-2.34
				c0.27-0.18,0.71-0.16,1.21,0.03l0,0c0.37,0.29,0.74,0.7,1.02,1.2C125.97,137.54,126.07,138.39,125.8,138.84"/>
			<path class="st7" d="M125.82,138.58c-0.38-0.09-0.83-0.31-1.22-0.63c-0.69-0.55-0.94-1.18-0.56-1.41
				c0.19-0.11,0.51-0.1,0.86,0.01l0,0c0.26,0.17,0.52,0.42,0.72,0.72C125.95,137.8,126.02,138.32,125.82,138.58"/>
			<path class="st7" d="M131.05,138.58c-0.57,0.05-1.34-0.07-2.13-0.35c-1.38-0.49-2.27-1.3-1.99-1.82c0.14-0.26,0.55-0.39,1.11-0.4
				l0,0c0.49,0.13,1.04,0.38,1.56,0.73C130.51,137.35,131.06,138.08,131.05,138.58"/>
			<path class="st7" d="M130.75,138.49c-0.38,0.01-0.91-0.1-1.46-0.34c-0.97-0.42-1.62-1.06-1.46-1.43
				c0.08-0.19,0.35-0.27,0.72-0.25h0c0.34,0.11,0.73,0.32,1.11,0.6C130.31,137.56,130.73,138.12,130.75,138.49"/>
			<path class="st7" d="M132.95,138.6c0,0.46-0.23,1.07-0.65,1.67c-0.75,1.06-1.85,1.69-2.45,1.41c-0.3-0.14-0.42-0.49-0.37-0.93
				l0,0c0.21-0.38,0.57-0.8,1.06-1.18C131.38,138.9,132.34,138.54,132.95,138.6"/>
			<path class="st7" d="M133.78,138.06c-0.03,0.41-0.28,0.97-0.74,1.52c-0.8,0.97-1.9,1.57-2.48,1.35
				c-0.29-0.11-0.39-0.42-0.31-0.82l0,0c0.23-0.35,0.61-0.73,1.11-1.09C132.23,138.38,133.19,138.02,133.78,138.06"/>
			<path class="st7" d="M128.16,138.64c-0.1,0.46-0.45,1.03-1,1.56c-0.96,0.94-2.17,1.4-2.71,1.05c-0.27-0.18-0.31-0.54-0.17-0.97
				l0,0c0.29-0.35,0.73-0.71,1.29-1.02C126.55,138.72,127.57,138.5,128.16,138.64"/>
			<path class="st7" d="M128.24,138.69c-0.08,0.33-0.34,0.75-0.74,1.14c-0.7,0.69-1.58,1.05-1.95,0.8c-0.19-0.13-0.21-0.39-0.1-0.7
				l0,0c0.17-0.2,0.41-0.42,0.72-0.61c-0.19,0.13-0.35,0.28-0.46,0.41l0,0c-0.09,0.25-0.07,0.45,0.08,0.55
				c0.29,0.2,0.97-0.08,1.53-0.63c0.31-0.31,0.52-0.63,0.58-0.9c-0.18-0.04-0.43-0.02-0.72,0.06
				C127.6,138.68,127.99,138.63,128.24,138.69"/>
			<path class="st7" d="M115.41,137.35c-0.09-0.33-0.35-0.75-0.76-1.14c-0.71-0.69-1.59-1.04-1.96-0.78
				c-0.19,0.13-0.2,0.39-0.09,0.7l0,0c0.17,0.2,0.42,0.42,0.72,0.61c-0.19-0.13-0.35-0.27-0.46-0.41l0,0
				c-0.09-0.24-0.07-0.45,0.07-0.55c0.29-0.2,0.98,0.08,1.53,0.62c0.32,0.31,0.53,0.63,0.59,0.89c-0.18,0.04-0.43,0.02-0.72-0.06
				C114.78,137.37,115.16,137.41,115.41,137.35"/>
			<path class="st7" d="M124.39,138.26c0,0.46-0.23,1.07-0.65,1.67c-0.75,1.06-1.85,1.69-2.45,1.41c-0.3-0.14-0.42-0.49-0.37-0.93
				l0,0c0.21-0.38,0.57-0.8,1.06-1.18C122.82,138.56,123.78,138.2,124.39,138.26"/>
			<path class="st7" d="M123.77,138.9c0,0.31-0.15,0.71-0.43,1.1c-0.49,0.69-1.21,1.11-1.61,0.92c-0.2-0.09-0.28-0.32-0.24-0.61v0
				c0.14-0.25,0.38-0.52,0.7-0.78C122.74,139.1,123.37,138.86,123.77,138.9"/>
			<path class="st7" d="M117.86,137.79c0,0.31-0.15,0.71-0.43,1.1c-0.49,0.69-1.21,1.11-1.61,0.92c-0.2-0.09-0.28-0.32-0.24-0.61v0
				c0.14-0.25,0.38-0.52,0.7-0.78C116.84,137.99,117.46,137.74,117.86,137.79"/>
			<path class="st7" d="M121.83,138.45c-0.14,0.45-0.54,1-1.13,1.5c-1.04,0.88-2.29,1.27-2.79,0.89c-0.25-0.2-0.27-0.56-0.08-0.98
				l0,0c0.32-0.33,0.79-0.66,1.38-0.94C120.23,138.43,121.26,138.27,121.83,138.45"/>
			<path class="st7" d="M134.98,137.52c0.31,0.19,0.46,0.38,0.43,0.55c-0.16,1.03-6.57,1.25-14.32,0.48
				c-7.75-0.77-13.91-2.23-13.76-3.26c0.01-0.06,0.03-0.11,0.08-0.16c1.52,0.95,6.87,2.07,13.33,2.71
				C128.07,138.57,134.21,138.41,134.98,137.52"/>
			<path class="st7" d="M110.83,142.96c-0.21,0.41-0.65,0.88-1.22,1.26c-1.02,0.67-2.09,0.84-2.4,0.37
				c-0.16-0.24-0.09-0.59,0.15-0.97l0,0c0.32-0.26,0.77-0.5,1.3-0.67C109.56,142.67,110.42,142.69,110.83,142.96"/>
			<path class="st7" d="M107.99,142.32c-0.21,0.41-0.65,0.88-1.22,1.26c-1.02,0.67-2.09,0.84-2.4,0.37
				c-0.16-0.24-0.09-0.59,0.15-0.97l0,0c0.32-0.26,0.77-0.5,1.3-0.67C106.73,142.02,107.58,142.04,107.99,142.32"/>
			<path class="st7" d="M107,141.57c-0.41,0.22-1.03,0.34-1.73,0.32c-1.22-0.04-2.19-0.53-2.17-1.09c0.01-0.28,0.27-0.53,0.68-0.7h0
				c0.42-0.03,0.92,0.04,1.45,0.2C106.14,140.59,106.83,141.1,107,141.57"/>
			<path class="st7" d="M109.07,142.51c-0.46-0.08-1.03-0.36-1.56-0.8c-0.94-0.77-1.42-1.75-1.06-2.19
				c0.18-0.22,0.54-0.26,0.97-0.14l0,0c0.35,0.23,0.71,0.59,1.02,1.04C108.98,141.21,109.22,142.03,109.07,142.51"/>
			<path class="st7" d="M115.49,143.74c-0.02,0.46-0.23,1.06-0.61,1.65c-0.66,1.03-1.57,1.61-2.04,1.31
				c-0.24-0.15-0.32-0.5-0.26-0.95l0,0c0.19-0.37,0.5-0.77,0.91-1.14C114.21,143.98,115,143.65,115.49,143.74"/>
			<path class="st7" d="M114.1,143.76c-0.27,0.38-0.76,0.78-1.39,1.07c-1.1,0.52-2.19,0.53-2.43,0.02c-0.12-0.26,0-0.6,0.28-0.94
				l0,0c0.36-0.21,0.84-0.39,1.38-0.48C112.88,143.28,113.73,143.42,114.1,143.76"/>
			<path class="st7" d="M112.57,143.08c-0.46,0.05-1.09-0.07-1.72-0.35c-1.12-0.49-1.84-1.3-1.61-1.82c0.11-0.26,0.45-0.39,0.89-0.4
				l0,0c0.4,0.13,0.84,0.38,1.27,0.73C112.13,141.86,112.58,142.59,112.57,143.08"/>
			<path class="st7" d="M116.01,143.96c-0.46,0.05-1.09-0.07-1.72-0.35c-1.12-0.49-1.84-1.3-1.61-1.82c0.11-0.26,0.45-0.39,0.89-0.4
				l0,0c0.4,0.13,0.84,0.38,1.27,0.73C115.57,142.73,116.01,143.46,116.01,143.96"/>
			<path class="st7" d="M119.93,144.62c-0.45,0.1-1.09,0.07-1.75-0.13c-1.17-0.34-1.99-1.06-1.83-1.6c0.08-0.27,0.4-0.45,0.84-0.51
				l0,0c0.41,0.08,0.88,0.27,1.35,0.56C119.34,143.46,119.88,144.13,119.93,144.62"/>
			<path class="st7" d="M118.98,143.69c-0.26,0.09-0.64,0.11-1.05,0.04c-0.72-0.13-1.25-0.5-1.19-0.84
				c0.03-0.17,0.21-0.29,0.47-0.36h0c0.25,0.02,0.54,0.1,0.84,0.25C118.56,143.03,118.92,143.4,118.98,143.69"/>
			<path class="st7" d="M107.66,142.43c-0.13,0.24-0.4,0.51-0.76,0.73c-0.62,0.38-1.27,0.46-1.45,0.18
				c-0.09-0.15-0.04-0.36,0.11-0.58l0,0c0.2-0.15,0.47-0.29,0.79-0.38C106.91,142.22,107.42,142.25,107.66,142.43"/>
			<path class="st7" d="M121.29,144.8c-0.44-0.16-0.95-0.53-1.4-1.06c-0.79-0.93-1.09-1.97-0.66-2.34c0.22-0.18,0.57-0.16,0.98,0.03
				l0,0c0.3,0.29,0.6,0.7,0.82,1.2C121.43,143.51,121.51,144.36,121.29,144.8"/>
			<path class="st7" d="M121.31,144.55c-0.31-0.09-0.67-0.31-0.99-0.63c-0.56-0.55-0.76-1.18-0.46-1.41c0.15-0.11,0.41-0.1,0.7,0.01
				h0c0.21,0.17,0.42,0.42,0.58,0.72C121.42,143.77,121.47,144.28,121.31,144.55"/>
			<path class="st7" d="M125.54,144.54c-0.46,0.05-1.09-0.07-1.72-0.35c-1.12-0.49-1.84-1.3-1.61-1.82c0.11-0.26,0.45-0.39,0.89-0.4
				l0,0c0.4,0.13,0.84,0.38,1.27,0.73C125.11,143.32,125.55,144.05,125.54,144.54"/>
			<path class="st7" d="M125.3,144.45c-0.31,0.01-0.74-0.1-1.18-0.34c-0.78-0.42-1.31-1.06-1.19-1.43c0.06-0.19,0.28-0.27,0.59-0.25
				h0c0.27,0.11,0.59,0.32,0.9,0.6C124.94,143.52,125.28,144.08,125.3,144.45"/>
			<path class="st7" d="M127.08,144.56c0,0.46-0.18,1.07-0.53,1.67c-0.61,1.06-1.49,1.69-1.98,1.41c-0.24-0.14-0.34-0.49-0.3-0.93
				l0,0c0.17-0.38,0.46-0.8,0.86-1.18C125.81,144.86,126.59,144.5,127.08,144.56"/>
			<path class="st7" d="M127.76,144.02c-0.02,0.41-0.23,0.97-0.6,1.52c-0.64,0.97-1.54,1.57-2.01,1.35
				c-0.23-0.11-0.31-0.42-0.25-0.82v0c0.18-0.35,0.49-0.73,0.9-1.09C126.5,144.35,127.28,143.98,127.76,144.02"/>
			<path class="st7" d="M123.2,144.61c-0.08,0.46-0.36,1.03-0.81,1.56c-0.78,0.94-1.76,1.4-2.19,1.05
				c-0.22-0.18-0.25-0.54-0.14-0.97l0,0c0.23-0.35,0.59-0.71,1.05-1.02C121.9,144.69,122.73,144.46,123.2,144.61"/>
			<path class="st7" d="M123.27,144.65c-0.07,0.33-0.28,0.75-0.6,1.14c-0.57,0.69-1.28,1.05-1.58,0.8c-0.15-0.13-0.17-0.39-0.08-0.7
				l0,0c0.14-0.2,0.33-0.42,0.58-0.61c-0.15,0.13-0.28,0.28-0.37,0.41l0,0c-0.07,0.25-0.06,0.45,0.06,0.55
				c0.23,0.2,0.79-0.08,1.24-0.63c0.25-0.31,0.42-0.63,0.47-0.9c-0.14-0.04-0.35-0.02-0.58,0.06
				C122.75,144.64,123.06,144.59,123.27,144.65"/>
			<path class="st7" d="M112.88,143.31c-0.07-0.33-0.28-0.75-0.61-1.14c-0.58-0.69-1.28-1.04-1.58-0.78
				c-0.15,0.13-0.17,0.39-0.07,0.7l0,0c0.14,0.2,0.34,0.42,0.58,0.61c-0.15-0.13-0.28-0.27-0.38-0.41v0
				c-0.07-0.24-0.06-0.45,0.06-0.55c0.23-0.2,0.79,0.08,1.24,0.62c0.26,0.31,0.43,0.63,0.48,0.89c-0.14,0.04-0.35,0.02-0.58-0.06
				C112.37,143.33,112.67,143.38,112.88,143.31"/>
			<path class="st7" d="M120.15,144.22c0,0.46-0.18,1.07-0.53,1.67c-0.61,1.06-1.49,1.69-1.98,1.41c-0.25-0.14-0.34-0.49-0.3-0.93
				l0,0c0.17-0.38,0.46-0.8,0.86-1.18C118.88,144.53,119.65,144.16,120.15,144.22"/>
			<path class="st7" d="M119.65,144.86c0,0.31-0.12,0.71-0.35,1.1c-0.4,0.69-0.98,1.11-1.3,0.92c-0.16-0.09-0.23-0.32-0.2-0.61v0
				c0.11-0.25,0.31-0.52,0.56-0.78C118.82,145.06,119.33,144.82,119.65,144.86"/>
			<path class="st7" d="M114.87,143.75c0,0.31-0.12,0.71-0.35,1.1c-0.4,0.69-0.98,1.11-1.3,0.92c-0.16-0.09-0.23-0.32-0.2-0.61v0
				c0.11-0.25,0.31-0.52,0.56-0.78C114.03,143.95,114.54,143.71,114.87,143.75"/>
			<path class="st7" d="M118.08,144.41c-0.11,0.45-0.44,1-0.92,1.5c-0.84,0.88-1.86,1.27-2.26,0.89c-0.2-0.2-0.22-0.56-0.07-0.98
				l0,0c0.26-0.33,0.64-0.66,1.12-0.94C116.78,144.4,117.62,144.23,118.08,144.41"/>
			<path class="st7" d="M128.73,143.48c0.25,0.19,0.37,0.38,0.35,0.55c-0.13,1.03-5.32,1.25-11.6,0.48
				c-6.28-0.77-11.27-2.23-11.14-3.26c0.01-0.06,0.03-0.11,0.06-0.16c1.23,0.95,5.56,2.07,10.79,2.71
				C123.13,144.53,128.1,144.38,128.73,143.48"/>
			<path class="st8" d="M118.69,141.08c-0.16,0.44-0.54,0.95-1.07,1.39c-0.93,0.79-1.98,1.08-2.34,0.65
				c-0.18-0.22-0.16-0.58,0.03-0.98l0,0c0.29-0.3,0.71-0.59,1.21-0.82C117.39,140.93,118.24,140.85,118.69,141.08"/>
			<path class="st8" d="M115.79,140.77c-0.16,0.44-0.54,0.95-1.07,1.39c-0.93,0.79-1.98,1.08-2.34,0.65
				c-0.18-0.22-0.16-0.58,0.03-0.98l0,0c0.29-0.3,0.71-0.59,1.21-0.82C114.5,140.63,115.35,140.55,115.79,140.77"/>
			<path class="st8" d="M114.72,140.14c-0.38,0.26-0.99,0.46-1.68,0.52c-1.21,0.1-2.24-0.27-2.28-0.82
				c-0.02-0.28,0.21-0.56,0.59-0.78h0c0.41-0.08,0.92-0.07,1.46,0.03C113.75,139.27,114.49,139.7,114.72,140.14"/>
			<path class="st8" d="M116.89,140.84c-0.46-0.02-1.06-0.23-1.65-0.61c-1.03-0.66-1.61-1.57-1.31-2.05
				c0.15-0.24,0.5-0.32,0.95-0.26h0c0.37,0.19,0.77,0.5,1.14,0.92C116.65,139.56,116.97,140.35,116.89,140.84"/>
			<path class="st8" d="M123.41,141.31c0.03,0.46-0.11,1.08-0.41,1.71c-0.53,1.1-1.37,1.79-1.88,1.54
				c-0.26-0.12-0.38-0.46-0.37-0.91v0c0.14-0.39,0.41-0.83,0.77-1.24C122.16,141.7,122.91,141.28,123.41,141.31"/>
			<path class="st8" d="M122.02,141.49c-0.22,0.41-0.67,0.86-1.25,1.23c-1.03,0.65-2.11,0.78-2.41,0.31
				c-0.15-0.24-0.07-0.59,0.17-0.96l0,0c0.33-0.26,0.79-0.48,1.31-0.64C120.76,141.16,121.62,141.2,122.02,141.49"/>
			<path class="st8" d="M120.43,141c-0.45,0.1-1.09,0.06-1.75-0.14c-1.17-0.35-1.98-1.08-1.81-1.62c0.08-0.27,0.4-0.44,0.84-0.5h0
				c0.41,0.08,0.88,0.27,1.34,0.57C119.85,139.83,120.38,140.5,120.43,141"/>
			<path class="st8" d="M123.94,141.47c-0.45,0.1-1.09,0.06-1.75-0.14c-1.17-0.35-1.98-1.08-1.81-1.62c0.08-0.27,0.4-0.44,0.84-0.5
				h0c0.41,0.08,0.88,0.27,1.34,0.57C123.37,140.3,123.89,140.97,123.94,141.47"/>
			<path class="st8" d="M127.92,141.67c-0.44,0.16-1.07,0.2-1.75,0.08c-1.2-0.21-2.1-0.82-2-1.37c0.05-0.28,0.34-0.49,0.77-0.6h0
				c0.42,0.03,0.91,0.16,1.4,0.4C127.2,140.58,127.81,141.18,127.92,141.67"/>
			<path class="st8" d="M126.87,140.85c-0.25,0.12-0.63,0.19-1.04,0.16c-0.73-0.04-1.3-0.35-1.28-0.69
				c0.01-0.17,0.17-0.31,0.42-0.41h0c0.25-0.01,0.55,0.04,0.86,0.15C126.37,140.25,126.77,140.57,126.87,140.85"/>
			<path class="st8" d="M115.48,140.92c-0.1,0.26-0.34,0.56-0.67,0.82c-0.57,0.45-1.21,0.61-1.42,0.34
				c-0.11-0.13-0.08-0.35,0.04-0.59h0c0.18-0.17,0.44-0.34,0.74-0.47C114.7,140.81,115.22,140.78,115.48,140.92"/>
			<path class="st8" d="M129.29,141.68c-0.45-0.1-1.01-0.42-1.52-0.89c-0.9-0.83-1.31-1.83-0.93-2.24c0.19-0.21,0.55-0.23,0.98-0.09
				l0,0c0.33,0.25,0.67,0.63,0.96,1.1C129.28,140.38,129.46,141.21,129.29,141.68"/>
			<path class="st8" d="M129.28,141.43c-0.32-0.06-0.71-0.23-1.06-0.51c-0.62-0.48-0.9-1.09-0.62-1.34c0.14-0.13,0.4-0.15,0.69-0.07
				l0,0c0.23,0.14,0.47,0.37,0.66,0.65C129.29,140.64,129.41,141.14,129.28,141.43"/>
			<path class="st8" d="M133.48,140.93c-0.45,0.1-1.09,0.06-1.75-0.14c-1.17-0.35-1.98-1.08-1.81-1.62c0.08-0.27,0.4-0.44,0.84-0.5
				h0c0.41,0.08,0.88,0.27,1.34,0.57C132.9,139.76,133.43,140.43,133.48,140.93"/>
			<path class="st8" d="M133.23,140.86c-0.31,0.05-0.75-0.02-1.22-0.2c-0.82-0.33-1.43-0.9-1.34-1.28c0.04-0.19,0.25-0.3,0.55-0.32
				l0,0c0.29,0.08,0.62,0.25,0.96,0.49C132.77,139.98,133.17,140.5,133.23,140.86"/>
			<path class="st8" d="M135.01,140.77c0.05,0.46-0.06,1.09-0.33,1.72c-0.48,1.12-1.29,1.85-1.8,1.63c-0.26-0.11-0.4-0.44-0.41-0.89
				v0c0.12-0.4,0.37-0.85,0.71-1.27C133.79,141.21,134.51,140.76,135.01,140.77"/>
			<path class="st8" d="M135.62,140.15c0.02,0.41-0.11,0.99-0.41,1.58c-0.53,1.04-1.35,1.74-1.83,1.57
				c-0.25-0.09-0.36-0.38-0.35-0.78l0,0c0.14-0.36,0.4-0.78,0.76-1.19C134.41,140.62,135.14,140.17,135.62,140.15"/>
			<path class="st8" d="M131.17,141.26c-0.03,0.46-0.24,1.06-0.62,1.64c-0.66,1.02-1.58,1.6-2.05,1.3
				c-0.24-0.15-0.32-0.51-0.25-0.95l0,0c0.19-0.37,0.51-0.77,0.92-1.13C129.88,141.5,130.68,141.17,131.17,141.26"/>
			<path class="st8" d="M131.24,141.3c-0.03,0.34-0.19,0.78-0.46,1.2c-0.48,0.75-1.14,1.19-1.47,0.98
				c-0.17-0.11-0.21-0.36-0.16-0.68l0,0c0.11-0.22,0.28-0.45,0.5-0.68c-0.14,0.15-0.25,0.31-0.32,0.45v0
				c-0.04,0.25,0,0.45,0.13,0.54c0.26,0.17,0.77-0.17,1.15-0.77c0.22-0.34,0.34-0.68,0.36-0.94c-0.15-0.02-0.35,0.02-0.57,0.13
				C130.72,141.35,131.02,141.27,131.24,141.3"/>
			<path class="st8" d="M120.77,141.19c-0.11-0.32-0.37-0.71-0.74-1.06c-0.65-0.61-1.4-0.88-1.66-0.59c-0.13,0.15-0.12,0.4,0.01,0.7
				l0,0c0.16,0.19,0.38,0.37,0.65,0.54c-0.17-0.11-0.31-0.24-0.42-0.36l0,0c-0.1-0.23-0.11-0.44-0.01-0.55
				c0.21-0.23,0.79-0.02,1.31,0.47c0.29,0.27,0.5,0.58,0.58,0.83c-0.14,0.06-0.35,0.06-0.58,0.01
				C120.25,141.27,120.57,141.28,120.77,141.19"/>
			<path class="st8" d="M128.09,141.24c0.05,0.46-0.06,1.09-0.33,1.72c-0.48,1.12-1.29,1.85-1.8,1.63c-0.26-0.11-0.4-0.44-0.41-0.89
				v0c0.12-0.4,0.37-0.85,0.72-1.27C126.86,141.69,127.59,141.24,128.09,141.24"/>
			<path class="st8" d="M127.67,141.94c0.03,0.3-0.04,0.72-0.22,1.13c-0.31,0.74-0.85,1.22-1.18,1.07
				c-0.17-0.07-0.26-0.29-0.27-0.59v0c0.08-0.26,0.24-0.56,0.47-0.84C126.86,142.23,127.34,141.93,127.67,141.94"/>
			<path class="st8" d="M122.79,141.39c0.03,0.3-0.04,0.72-0.22,1.13c-0.31,0.74-0.85,1.22-1.18,1.07
				c-0.17-0.07-0.26-0.29-0.27-0.59v0c0.08-0.26,0.24-0.56,0.47-0.84C121.98,141.68,122.46,141.39,122.79,141.39"/>
			<path class="st8" d="M126.06,141.67c-0.06,0.46-0.32,1.04-0.73,1.59c-0.74,0.97-1.69,1.48-2.14,1.15
				c-0.23-0.17-0.28-0.53-0.18-0.96l0,0c0.22-0.36,0.56-0.73,1-1.06C124.76,141.81,125.58,141.54,126.06,141.67"/>
			<path class="st8" d="M136.52,139.5c0.27,0.16,0.41,0.33,0.41,0.5c0,1.04-5.14,1.86-11.46,1.84c-6.32-0.03-11.45-0.89-11.45-1.93
				c0-0.06,0.01-0.11,0.05-0.17c1.33,0.8,5.77,1.41,11.04,1.43C131.09,141.2,136.01,140.46,136.52,139.5"/>
			<path class="st8" d="M118.79,134.4c-0.32,0.34-0.86,0.67-1.52,0.88c-1.16,0.37-2.24,0.23-2.41-0.3
				c-0.09-0.27,0.08-0.59,0.41-0.89h0c0.38-0.17,0.88-0.27,1.43-0.29C117.65,133.76,118.47,134.02,118.79,134.4"/>
			<path class="st8" d="M116.24,133c-0.32,0.34-0.86,0.67-1.52,0.88c-1.16,0.37-2.24,0.23-2.41-0.3c-0.09-0.27,0.08-0.59,0.41-0.89
				h0c0.38-0.17,0.88-0.27,1.43-0.29C115.1,132.37,115.92,132.62,116.24,133"/>
			<path class="st8" d="M115.49,132.01c-0.45,0.1-1.09,0.05-1.75-0.16c-1.16-0.37-1.96-1.11-1.79-1.64
				c0.09-0.27,0.41-0.44,0.85-0.49h0c0.41,0.09,0.88,0.29,1.33,0.59C114.93,130.83,115.45,131.51,115.49,132.01"/>
			<path class="st8" d="M117.23,133.48c-0.42-0.2-0.89-0.63-1.29-1.19c-0.69-1-0.88-2.07-0.42-2.39c0.23-0.16,0.59-0.1,0.97,0.13
				l0,0c0.27,0.32,0.52,0.76,0.7,1.28C117.5,132.21,117.5,133.06,117.23,133.48"/>
			<path class="st8" d="M123.07,136.42c-0.15,0.44-0.52,0.96-1.03,1.42c-0.91,0.81-1.95,1.12-2.32,0.7
				c-0.19-0.21-0.17-0.57,0.01-0.98l0,0c0.28-0.31,0.69-0.61,1.19-0.85C121.77,136.3,122.62,136.2,123.07,136.42"/>
			<path class="st8" d="M121.72,136.05c-0.36,0.29-0.95,0.54-1.63,0.65c-1.2,0.2-2.25-0.09-2.34-0.64
				c-0.05-0.28,0.16-0.58,0.53-0.82l0,0c0.4-0.11,0.91-0.15,1.46-0.08C120.68,135.26,121.46,135.63,121.72,136.05"/>
			<path class="st8" d="M120.43,134.99c-0.46-0.08-1.03-0.36-1.56-0.8c-0.94-0.78-1.41-1.76-1.05-2.19
				c0.18-0.22,0.54-0.26,0.97-0.14l0,0c0.35,0.23,0.71,0.59,1.02,1.04C120.35,133.69,120.58,134.51,120.43,134.99"/>
			<path class="st8" d="M123.5,136.77c-0.46-0.08-1.03-0.36-1.56-0.8c-0.94-0.78-1.41-1.76-1.05-2.19c0.18-0.22,0.54-0.26,0.97-0.14
				l0,0c0.35,0.23,0.71,0.59,1.02,1.04C123.42,135.47,123.65,136.29,123.5,136.77"/>
			<path class="st8" d="M127.1,138.48c-0.46-0.02-1.06-0.23-1.65-0.6c-1.03-0.65-1.62-1.56-1.32-2.04c0.15-0.24,0.5-0.32,0.94-0.26
				h0c0.37,0.19,0.78,0.5,1.14,0.91C126.85,137.2,127.18,137.99,127.1,138.48"/>
			<path class="st8" d="M126.44,137.32c-0.28,0.02-0.65-0.07-1.02-0.25c-0.66-0.32-1.07-0.83-0.92-1.13
				c0.07-0.15,0.28-0.23,0.55-0.22h0c0.23,0.09,0.5,0.25,0.74,0.47C126.21,136.58,126.46,137.02,126.44,137.32"/>
			<path class="st8" d="M115.89,133.02c-0.2,0.2-0.53,0.38-0.93,0.5c-0.7,0.2-1.35,0.1-1.44-0.23c-0.05-0.16,0.06-0.35,0.26-0.53
				l0,0c0.23-0.09,0.53-0.15,0.86-0.15C115.22,132.61,115.71,132.78,115.89,133.02"/>
			<path class="st8" d="M128.36,139.02c-0.38-0.27-0.77-0.77-1.06-1.4c-0.51-1.11-0.51-2.19,0-2.43c0.26-0.12,0.6,0,0.93,0.29l0,0
				c0.21,0.36,0.38,0.84,0.46,1.38C128.84,137.81,128.69,138.66,128.36,139.02"/>
			<path class="st8" d="M128.44,138.78c-0.27-0.17-0.56-0.49-0.78-0.88c-0.39-0.68-0.41-1.35-0.06-1.48
				c0.18-0.07,0.42,0.02,0.67,0.2v0c0.16,0.22,0.29,0.52,0.36,0.85C128.76,138.06,128.67,138.57,128.44,138.78"/>
			<path class="st8" d="M132.52,139.93c-0.46-0.08-1.03-0.36-1.56-0.8c-0.94-0.78-1.41-1.76-1.05-2.19
				c0.18-0.22,0.54-0.26,0.97-0.14l0,0c0.35,0.23,0.71,0.59,1.02,1.04C132.43,138.63,132.66,139.46,132.52,139.93"/>
			<path class="st8" d="M132.31,139.78c-0.3-0.07-0.68-0.3-1.05-0.65c-0.64-0.62-0.97-1.38-0.75-1.7c0.11-0.16,0.35-0.18,0.63-0.08
				h0c0.23,0.19,0.48,0.47,0.7,0.82C132.22,138.78,132.39,139.42,132.31,139.78"/>
			<path class="st8" d="M133.99,140.37c-0.13,0.45-0.47,0.98-0.97,1.47c-0.87,0.85-1.9,1.21-2.29,0.81c-0.2-0.2-0.2-0.56-0.03-0.98
				l0,0c0.27-0.32,0.66-0.64,1.15-0.9C132.69,140.32,133.53,140.18,133.99,140.37"/>
			<path class="st8" d="M134.79,140.03c-0.14,0.39-0.48,0.87-0.99,1.3c-0.88,0.76-1.91,1.09-2.3,0.75
				c-0.19-0.17-0.19-0.49-0.02-0.86l0,0c0.27-0.28,0.67-0.57,1.16-0.81C133.49,140.01,134.34,139.87,134.79,140.03"/>
			<path class="st8" d="M130.25,139.36c-0.2,0.42-0.63,0.89-1.2,1.28c-1,0.69-2.08,0.87-2.39,0.41c-0.16-0.23-0.1-0.59,0.13-0.97
				l0,0c0.32-0.27,0.77-0.52,1.29-0.69C128.98,139.08,129.83,139.08,130.25,139.36"/>
			<path class="st8" d="M130.3,139.42c-0.16,0.3-0.47,0.65-0.89,0.93c-0.74,0.51-1.51,0.66-1.73,0.34
				c-0.11-0.16-0.06-0.42,0.12-0.69l0,0c0.19-0.16,0.44-0.31,0.72-0.43c-0.18,0.09-0.34,0.19-0.47,0.29l0,0
				c-0.14,0.22-0.18,0.42-0.09,0.55c0.17,0.25,0.78,0.14,1.36-0.27c0.33-0.23,0.58-0.5,0.7-0.73c-0.13-0.08-0.33-0.11-0.58-0.1
				C129.81,139.27,130.12,139.31,130.3,139.42"/>
			<path class="st8" d="M120.67,135.29c0.02-0.34-0.07-0.8-0.28-1.26c-0.37-0.82-0.95-1.35-1.31-1.19
				c-0.18,0.08-0.27,0.33-0.26,0.65l0,0c0.08,0.23,0.21,0.49,0.4,0.75c-0.11-0.17-0.2-0.34-0.25-0.49l0,0
				c0-0.26,0.06-0.45,0.21-0.51c0.28-0.13,0.74,0.29,1.03,0.93c0.16,0.36,0.24,0.72,0.22,0.99c-0.15,0-0.34-0.08-0.54-0.22
				C120.17,135.17,120.46,135.3,120.67,135.29"/>
			<path class="st8" d="M127.41,138.15c-0.13,0.45-0.47,0.98-0.97,1.47c-0.87,0.85-1.9,1.21-2.29,0.81c-0.2-0.2-0.2-0.56-0.04-0.98
				l0,0c0.27-0.32,0.66-0.64,1.15-0.9C126.11,138.1,126.96,137.96,127.41,138.15"/>
			<path class="st8" d="M126.76,138.63c-0.08,0.29-0.31,0.65-0.63,0.96c-0.57,0.56-1.25,0.8-1.51,0.53
				c-0.13-0.13-0.13-0.37-0.02-0.64l0,0c0.18-0.21,0.44-0.42,0.76-0.59C125.9,138.6,126.46,138.5,126.76,138.63"/>
			<path class="st8" d="M122.46,136.26c-0.09,0.29-0.31,0.65-0.63,0.96c-0.57,0.56-1.25,0.8-1.51,0.53
				c-0.13-0.13-0.13-0.37-0.02-0.64l0,0c0.18-0.21,0.44-0.42,0.76-0.59C121.61,136.22,122.16,136.13,122.46,136.26"/>
			<path class="st8" d="M125.37,137.77c-0.23,0.4-0.69,0.84-1.29,1.19c-1.05,0.61-2.13,0.72-2.42,0.24
				c-0.14-0.25-0.06-0.59,0.2-0.96l0,0c0.34-0.25,0.8-0.46,1.33-0.6C124.12,137.4,124.98,137.47,125.37,137.77"/>
			<path class="st8" d="M135.87,139.78c0.19,0.25,0.25,0.46,0.19,0.62c-0.4,0.96-5.46-0.25-11.29-2.7
				c-5.83-2.45-10.23-5.22-9.83-6.18c0.02-0.05,0.06-0.1,0.1-0.14c0.92,1.25,4.79,3.51,9.64,5.55
				C130.2,139.26,135.02,140.47,135.87,139.78"/>
			<path class="st8" d="M110.13,147.85c-0.08,0.46-0.35,1.03-0.78,1.57c-0.77,0.95-1.74,1.43-2.18,1.08
				c-0.22-0.18-0.26-0.54-0.15-0.97l0,0c0.23-0.35,0.58-0.71,1.03-1.03C108.83,147.95,109.65,147.72,110.13,147.85"/>
			<path class="st8" d="M107.23,148.1c-0.08,0.46-0.35,1.03-0.78,1.57c-0.77,0.95-1.74,1.43-2.18,1.08
				c-0.22-0.18-0.26-0.54-0.15-0.97l0,0c0.23-0.35,0.58-0.71,1.03-1.03C105.93,148.2,106.75,147.96,107.23,148.1"/>
			<path class="st8" d="M106.06,147.68c-0.33,0.33-0.88,0.64-1.55,0.83c-1.17,0.33-2.25,0.16-2.4-0.38
				c-0.08-0.27,0.1-0.59,0.44-0.88h0c0.39-0.15,0.89-0.25,1.44-0.24C104.94,147.01,105.75,147.29,106.06,147.68"/>
			<path class="st8" d="M108.32,147.95c-0.46,0.06-1.09-0.03-1.73-0.29c-1.13-0.45-1.88-1.24-1.67-1.76
				c0.1-0.26,0.44-0.41,0.88-0.43h0c0.4,0.11,0.86,0.35,1.29,0.68C107.84,146.74,108.31,147.46,108.32,147.95"/>
			<path class="st8" d="M114.81,147.18c0.12,0.45,0.1,1.08-0.08,1.75c-0.31,1.18-1.01,2.01-1.55,1.87
				c-0.27-0.07-0.46-0.38-0.53-0.82v0c0.07-0.41,0.24-0.89,0.53-1.36C113.66,147.8,114.31,147.25,114.81,147.18"/>
			<path class="st8" d="M113.48,147.62c-0.14,0.44-0.49,0.97-1,1.44c-0.89,0.83-1.93,1.17-2.31,0.76c-0.19-0.21-0.18-0.57-0.01-0.98
				l0,0c0.27-0.31,0.68-0.62,1.17-0.87C112.18,147.54,113.03,147.42,113.48,147.62"/>
			<path class="st8" d="M111.82,147.44c-0.43,0.19-1.06,0.27-1.74,0.19c-1.21-0.13-2.14-0.69-2.09-1.25
				c0.03-0.28,0.31-0.51,0.73-0.65h0c0.42,0,0.92,0.1,1.43,0.31C111.03,146.4,111.68,146.97,111.82,147.44"/>
			<path class="st8" d="M115.36,147.24c-0.43,0.19-1.06,0.27-1.74,0.19c-1.21-0.13-2.14-0.69-2.09-1.24
				c0.03-0.28,0.31-0.51,0.73-0.65h0c0.42,0,0.92,0.1,1.43,0.31C114.58,146.2,115.22,146.76,115.36,147.24"/>
			<path class="st8" d="M119.31,146.68c-0.4,0.24-1.01,0.4-1.71,0.41c-1.22,0.02-2.21-0.41-2.23-0.97
				c-0.01-0.28,0.24-0.55,0.64-0.74h0c0.41-0.05,0.92-0.01,1.45,0.13C118.39,145.75,119.11,146.23,119.31,146.68"/>
			<path class="st8" d="M118.12,146.08c-0.22,0.17-0.58,0.3-0.99,0.36c-0.73,0.09-1.35-0.1-1.39-0.44
				c-0.02-0.17,0.11-0.34,0.34-0.48h0c0.24-0.06,0.55-0.07,0.88-0.02C117.52,145.58,117.97,145.82,118.12,146.08"/>
			<path class="st8" d="M106.95,148.3c-0.05,0.27-0.23,0.61-0.5,0.93c-0.48,0.55-1.07,0.82-1.33,0.6c-0.13-0.11-0.15-0.33-0.07-0.58
				v0c0.14-0.2,0.36-0.42,0.64-0.6C106.16,148.34,106.66,148.21,106.95,148.3"/>
			<path class="st8" d="M120.65,146.44c-0.46-0.02-1.07-0.22-1.65-0.58c-1.04-0.64-1.63-1.55-1.34-2.03
				c0.15-0.24,0.5-0.33,0.94-0.27l0,0c0.37,0.18,0.78,0.49,1.15,0.9C120.4,145.17,120.73,145.95,120.65,146.44"/>
			<path class="st8" d="M120.6,146.2c-0.32,0.01-0.74-0.1-1.13-0.3c-0.7-0.36-1.08-0.9-0.86-1.2c0.11-0.15,0.36-0.22,0.67-0.2h0
				c0.25,0.1,0.53,0.27,0.77,0.51C120.46,145.42,120.67,145.89,120.6,146.2"/>
			<path class="st8" d="M124.63,144.91c-0.43,0.19-1.06,0.27-1.74,0.19c-1.21-0.13-2.14-0.69-2.09-1.24
				c0.03-0.28,0.31-0.51,0.73-0.65h0c0.42,0,0.92,0.1,1.43,0.31C123.84,143.87,124.49,144.43,124.63,144.91"/>
			<path class="st8" d="M124.37,144.89c-0.29,0.1-0.74,0.12-1.23,0.03c-0.87-0.16-1.57-0.61-1.56-1c0-0.2,0.19-0.34,0.48-0.42h0
				c0.3,0.03,0.66,0.13,1.04,0.3C123.75,144.11,124.24,144.55,124.37,144.89"/>
			<path class="st8" d="M126.1,144.46c0.14,0.44,0.15,1.08,0,1.76c-0.26,1.19-0.91,2.06-1.46,1.94c-0.28-0.06-0.48-0.36-0.57-0.8v0
				c0.05-0.41,0.2-0.9,0.46-1.38C124.98,145.13,125.61,144.55,126.1,144.46"/>
			<path class="st8" d="M126.58,143.74c0.1,0.4,0.07,0.99-0.11,1.63c-0.32,1.12-0.99,1.96-1.51,1.89c-0.26-0.04-0.43-0.3-0.49-0.7v0
				c0.07-0.39,0.25-0.85,0.52-1.31C125.48,144.43,126.11,143.85,126.58,143.74"/>
			<path class="st8" d="M122.42,145.68c0.06,0.46-0.04,1.09-0.3,1.73c-0.46,1.13-1.25,1.87-1.77,1.66
				c-0.26-0.11-0.41-0.44-0.42-0.88l0,0c0.12-0.4,0.35-0.85,0.69-1.28C121.2,146.15,121.92,145.68,122.42,145.68"/>
			<path class="st8" d="M122.5,145.7c0.04,0.34-0.04,0.8-0.23,1.27c-0.33,0.83-0.9,1.39-1.26,1.24c-0.18-0.08-0.28-0.32-0.28-0.64v0
				c0.07-0.24,0.19-0.5,0.37-0.76c-0.11,0.17-0.18,0.35-0.23,0.5v0c0.01,0.26,0.08,0.44,0.23,0.5c0.28,0.12,0.73-0.32,0.99-0.97
				c0.15-0.37,0.21-0.73,0.18-1c-0.15,0-0.34,0.09-0.53,0.24C122,145.85,122.28,145.71,122.5,145.7"/>
			<path class="st8" d="M112.19,147.57c-0.17-0.29-0.5-0.63-0.93-0.9c-0.76-0.48-1.54-0.6-1.75-0.27c-0.1,0.17-0.04,0.42,0.14,0.69
				l0,0c0.19,0.15,0.45,0.29,0.74,0.4c-0.19-0.08-0.35-0.18-0.48-0.27l0,0c-0.14-0.21-0.19-0.41-0.11-0.54
				c0.16-0.26,0.78-0.17,1.37,0.21c0.34,0.21,0.6,0.47,0.73,0.7c-0.12,0.08-0.33,0.13-0.57,0.12
				C111.7,147.74,112.01,147.69,112.19,147.57"/>
			<path class="st8" d="M119.39,146.24c0.14,0.44,0.15,1.08,0,1.76c-0.26,1.19-0.91,2.06-1.46,1.94c-0.28-0.06-0.48-0.36-0.57-0.8v0
				c0.05-0.41,0.2-0.9,0.46-1.38C118.27,146.91,118.9,146.33,119.39,146.24"/>
			<path class="st8" d="M119.11,147c0.09,0.29,0.1,0.71,0,1.15c-0.17,0.78-0.6,1.35-0.96,1.27c-0.18-0.04-0.31-0.24-0.37-0.52v0
				c0.03-0.27,0.13-0.59,0.3-0.91C118.38,147.44,118.79,147.05,119.11,147"/>
			<path class="st8" d="M114.21,147.38c0.09,0.29,0.1,0.71,0,1.15c-0.17,0.78-0.6,1.35-0.96,1.27c-0.18-0.04-0.31-0.24-0.37-0.52v0
				c0.03-0.27,0.13-0.59,0.3-0.91C113.48,147.82,113.89,147.44,114.21,147.38"/>
			<path class="st8" d="M117.48,147.04c0.03,0.46-0.11,1.08-0.42,1.7c-0.54,1.09-1.38,1.78-1.89,1.53
				c-0.25-0.13-0.37-0.47-0.36-0.91l0,0c0.15-0.39,0.41-0.82,0.78-1.23C116.23,147.42,116.98,147.01,117.48,147.04"/>
			<path class="st8" d="M127.34,142.94c0.29,0.11,0.47,0.25,0.5,0.42c0.19,1.02-4.69,2.8-10.91,3.97
				c-6.22,1.17-11.41,1.29-11.6,0.26c-0.01-0.06-0.01-0.11,0.01-0.17c1.46,0.54,5.93,0.29,11.11-0.68
				C122.33,145.63,127.02,143.98,127.34,142.94"/>
			<path class="st7" d="M118.29,149.99c0.05,0.46-0.05,1.09-0.32,1.73c-0.47,1.12-1.28,1.86-1.79,1.64
				c-0.26-0.11-0.4-0.44-0.41-0.89l0,0c0.12-0.4,0.36-0.85,0.71-1.28C117.07,150.45,117.8,149.99,118.29,149.99"/>
			<path class="st7" d="M115.58,151.03c0.05,0.46-0.05,1.09-0.32,1.73c-0.47,1.12-1.28,1.86-1.79,1.64
				c-0.26-0.11-0.4-0.44-0.41-0.89l0,0c0.12-0.4,0.36-0.85,0.71-1.28C114.36,151.48,115.08,151.02,115.58,151.03"/>
			<path class="st7" d="M114.34,150.95c-0.22,0.41-0.67,0.86-1.26,1.22c-1.03,0.64-2.11,0.78-2.41,0.3
				c-0.15-0.24-0.07-0.59,0.18-0.96l0,0c0.33-0.25,0.79-0.48,1.32-0.63C113.08,150.62,113.93,150.66,114.34,150.95"/>
			<path class="st7" d="M116.58,150.59c-0.42,0.19-1.05,0.27-1.74,0.2c-1.21-0.12-2.15-0.67-2.09-1.23
				c0.03-0.28,0.31-0.51,0.73-0.66h0c0.42,0,0.92,0.1,1.43,0.3C115.79,149.55,116.44,150.11,116.58,150.59"/>
			<path class="st7" d="M122.61,148.05c0.24,0.4,0.4,1.02,0.41,1.71c0.02,1.22-0.41,2.21-0.97,2.22c-0.28,0.01-0.55-0.24-0.74-0.64
				v0c-0.05-0.41-0.01-0.92,0.13-1.45C121.67,148.96,122.15,148.25,122.61,148.05"/>
			<path class="st7" d="M121.45,148.84c-0.01,0.46-0.2,1.07-0.56,1.66c-0.63,1.04-1.53,1.65-2.01,1.37
				c-0.24-0.15-0.33-0.5-0.28-0.94l0,0c0.18-0.38,0.48-0.79,0.88-1.16C120.18,149.12,120.96,148.77,121.45,148.84"/>
			<path class="st7" d="M119.81,149.13c-0.36,0.3-0.94,0.55-1.62,0.67c-1.2,0.21-2.25-0.07-2.35-0.62
				c-0.05-0.28,0.15-0.58,0.52-0.83h0c0.4-0.11,0.91-0.15,1.46-0.1C118.77,148.35,119.54,148.71,119.81,149.13"/>
			<path class="st7" d="M123.15,147.95c-0.36,0.3-0.94,0.55-1.62,0.67c-1.2,0.21-2.25-0.07-2.35-0.62
				c-0.05-0.28,0.15-0.58,0.52-0.83l0,0c0.4-0.11,0.91-0.15,1.46-0.1C122.11,147.17,122.89,147.53,123.15,147.95"/>
			<path class="st7" d="M126.79,146.33c-0.32,0.34-0.86,0.66-1.53,0.87c-1.16,0.36-2.24,0.22-2.41-0.32
				c-0.08-0.27,0.08-0.59,0.41-0.89l0,0c0.38-0.16,0.88-0.27,1.43-0.28C125.66,145.69,126.47,145.94,126.79,146.33"/>
			<path class="st7" d="M125.48,146.07c-0.17,0.22-0.47,0.45-0.85,0.62c-0.67,0.29-1.32,0.27-1.46-0.03
				c-0.07-0.16,0.01-0.36,0.19-0.56h0c0.22-0.12,0.51-0.22,0.84-0.26C124.77,145.76,125.27,145.87,125.48,146.07"/>
			<path class="st7" d="M115.36,151.3c0.02,0.28-0.05,0.65-0.23,1.03c-0.31,0.66-0.8,1.09-1.11,0.95c-0.15-0.07-0.23-0.27-0.23-0.54
				v0c0.08-0.24,0.23-0.5,0.45-0.75C114.62,151.55,115.06,151.29,115.36,151.3"/>
			<path class="st7" d="M128.02,145.72c-0.45,0.11-1.09,0.09-1.75-0.1c-1.17-0.33-2-1.04-1.85-1.58c0.08-0.27,0.39-0.45,0.83-0.52h0
				c0.41,0.07,0.89,0.26,1.36,0.54C127.42,144.57,127.96,145.23,128.02,145.72"/>
			<path class="st7" d="M127.89,145.5c-0.31,0.1-0.73,0.11-1.17,0.03c-0.77-0.15-1.29-0.56-1.16-0.92c0.07-0.18,0.29-0.31,0.59-0.38
				h0c0.27,0.02,0.58,0.12,0.88,0.28C127.55,144.79,127.88,145.19,127.89,145.5"/>
			<path class="st7" d="M131.41,143.15c-0.36,0.3-0.94,0.55-1.62,0.67c-1.2,0.21-2.25-0.07-2.35-0.62
				c-0.05-0.28,0.15-0.58,0.52-0.83l0,0c0.4-0.11,0.91-0.15,1.46-0.1C130.37,142.37,131.15,142.73,131.41,143.15"/>
			<path class="st7" d="M131.16,143.2c-0.25,0.18-0.67,0.32-1.18,0.37c-0.88,0.08-1.68-0.15-1.78-0.53
				c-0.05-0.19,0.09-0.38,0.35-0.53l0,0c0.29-0.06,0.67-0.06,1.08,0.01C130.35,142.63,130.94,142.91,131.16,143.2"/>
			<path class="st7" d="M132.7,142.31c0.26,0.39,0.44,0.99,0.49,1.69c0.08,1.22-0.31,2.23-0.87,2.27c-0.28,0.02-0.56-0.22-0.77-0.61
				v0c-0.07-0.41-0.06-0.92,0.06-1.46C131.82,143.27,132.26,142.53,132.7,142.31"/>
			<path class="st7" d="M132.97,141.48c0.21,0.36,0.34,0.93,0.35,1.59c0,1.16-0.41,2.16-0.92,2.23c-0.26,0.03-0.49-0.18-0.66-0.54v0
				c-0.04-0.39,0-0.88,0.14-1.41C132.1,142.45,132.55,141.72,132.97,141.48"/>
			<path class="st7" d="M129.5,144.5c0.19,0.43,0.27,1.06,0.19,1.74c-0.13,1.21-0.69,2.15-1.24,2.09c-0.28-0.03-0.51-0.31-0.65-0.73
				v0c0-0.42,0.1-0.92,0.31-1.43C128.47,145.29,129.03,144.64,129.5,144.5"/>
			<path class="st7" d="M129.59,144.5c0.13,0.31,0.18,0.78,0.13,1.28c-0.09,0.89-0.48,1.58-0.87,1.54c-0.2-0.02-0.35-0.23-0.45-0.54
				v0c0-0.25,0.05-0.53,0.14-0.83c-0.05,0.2-0.08,0.38-0.08,0.55v0c0.08,0.24,0.2,0.4,0.36,0.42c0.31,0.03,0.61-0.51,0.68-1.21
				c0.04-0.4,0-0.76-0.1-1.01c-0.14,0.05-0.3,0.18-0.45,0.38C129.15,144.78,129.38,144.57,129.59,144.5"/>
			<path class="st7" d="M120.2,149.14c-0.24-0.24-0.65-0.46-1.14-0.61c-0.86-0.25-1.65-0.15-1.75,0.23
				c-0.05,0.19,0.08,0.41,0.33,0.62l0,0c0.23,0.09,0.51,0.16,0.82,0.18c-0.2-0.02-0.39-0.07-0.54-0.13l0,0
				c-0.2-0.16-0.3-0.34-0.26-0.49c0.08-0.3,0.7-0.37,1.38-0.18c0.38,0.11,0.7,0.29,0.89,0.47c-0.1,0.12-0.28,0.21-0.52,0.27
				C119.78,149.45,120.06,149.31,120.2,149.14"/>
			<path class="st7" d="M126.75,145.87c0.26,0.39,0.44,0.99,0.49,1.69c0.08,1.22-0.31,2.23-0.87,2.27
				c-0.28,0.02-0.56-0.22-0.77-0.61v0c-0.07-0.41-0.06-0.92,0.06-1.46C125.86,146.83,126.3,146.09,126.75,145.87"/>
			<path class="st7" d="M126.69,146.68c0.17,0.26,0.29,0.65,0.32,1.11c0.05,0.8-0.2,1.47-0.57,1.49c-0.19,0.01-0.37-0.14-0.5-0.4v0
				c-0.05-0.27-0.04-0.61,0.04-0.96C126.1,147.31,126.4,146.83,126.69,146.68"/>
			<path class="st7" d="M122.09,148.41c0.17,0.26,0.29,0.65,0.32,1.11c0.05,0.8-0.2,1.47-0.57,1.49c-0.19,0.01-0.37-0.14-0.5-0.4v0
				c-0.05-0.27-0.04-0.61,0.04-0.96C121.51,149.04,121.8,148.55,122.09,148.41"/>
			<path class="st7" d="M125.13,147.18c0.15,0.44,0.19,1.07,0.07,1.75c-0.22,1.2-0.84,2.09-1.39,1.99c-0.28-0.05-0.49-0.34-0.6-0.78
				v0c0.03-0.41,0.17-0.91,0.41-1.4C124.04,147.89,124.65,147.28,125.13,147.18"/>
			<path class="st7" d="M133.48,140.5c0.31,0.02,0.52,0.11,0.59,0.26c0.47,0.93-3.73,3.99-9.38,6.83
				c-5.65,2.84-10.61,4.39-11.08,3.46c-0.02-0.05-0.04-0.11-0.03-0.17c1.55,0.11,5.78-1.36,10.48-3.73
				C129.4,144.47,133.45,141.59,133.48,140.5"/>
		</g>
		
			<rect x="137.69" y="134.66" transform="matrix(0.9898 -0.1424 0.1424 0.9898 -17.7965 22.1713)" class="st9" width="16.66" height="1.54"/>
		
			<rect x="134.33" y="137.56" transform="matrix(0.9898 -0.1424 0.1424 0.9898 -18.2439 21.7217)" class="st9" width="16.66" height="1.54"/>
		
			<rect x="131.93" y="140.63" transform="matrix(0.9898 -0.1424 0.1424 0.9898 -18.7055 21.4112)" class="st9" width="16.66" height="1.54"/>
		<g>
			<defs>
				<rect id="SVGID_5_" x="102.09" y="129.72" width="52.28" height="27.59"/>
			</defs>
			<clipPath id="SVGID_6_">
				<use xlink:href="#SVGID_5_"  style="overflow:visible;"/>
			</clipPath>
			<path class="st10" d="M134.78,147.04c-1.34,4.07-4.3,6.75-6.61,5.99c-0.63-0.21-1.14-0.65-1.53-1.26c2-0.4,4.13-2.78,5.21-6.06
				c0.98-2.96,0.83-5.85-0.22-7.48c0.48-0.1,0.95-0.08,1.4,0.07C135.34,139.05,136.12,142.97,134.78,147.04"/>
			<path class="st11" d="M136.9,148.2c-0.7,5.31-3.05,9.38-5.24,9.09c-0.6-0.08-1.12-0.47-1.55-1.11c1.76-1.03,3.4-4.51,3.96-8.79
				c0.51-3.87,0.02-7.33-1.14-9.03c0.43-0.26,0.85-0.36,1.28-0.31C136.41,138.34,137.61,142.89,136.9,148.2"/>
			<path class="st11" d="M134.35,145.76c-0.8,4.16-3.2,7.19-5.37,6.78c-0.59-0.11-1.1-0.47-1.52-1.01c1.77-0.67,3.45-3.3,4.1-6.65
				c0.58-3.03,0.15-5.82-0.96-7.27c0.43-0.17,0.85-0.21,1.27-0.13C134.04,137.89,135.15,141.6,134.35,145.76"/>
			<path class="st10" d="M136.96,146.74c-0.16,4.96-2.14,8.92-4.43,8.85c-0.24-0.01-0.48-0.06-0.7-0.15
				c1.97-0.66,3.57-4.3,3.72-8.74c0.15-4.43-1.21-8.17-3.14-8.96c0.23-0.08,0.47-0.12,0.71-0.11
				C135.4,137.7,137.12,141.79,136.96,146.74"/>
		</g>
		<polygon class="st12" points="122.78,138.11 131.94,136.38 128.65,144.54 		"/>
		<polygon class="st12" points="132.73,136.82 141.9,135.09 138.61,143.25 		"/>
		<polygon class="st13" points="133.02,136.45 142.18,134.73 138.9,142.88 		"/>
		<polygon class="st12" points="140.22,136.41 138.73,140.84 133.87,137.23 		"/>
		<polygon class="st13" points="122.39,137.6 131.55,135.88 128.26,144.03 		"/>
		<polygon class="st12" points="127.36,139.55 127.16,141.51 131.25,136.83 		"/>
		<polygon class="st12" points="125.8,137.86 125.01,139.84 130.68,136.2 		"/>
		<g>
			<defs>
				<rect id="SVGID_7_" x="102.09" y="129.72" width="52.28" height="27.59"/>
			</defs>
			<clipPath id="SVGID_8_">
				<use xlink:href="#SVGID_7_"  style="overflow:visible;"/>
			</clipPath>
			<path class="st14" d="M133.45,138.85h-1.43c-1.13,0-2.06-0.93-2.06-2.06c0-1.13,0.93-2.06,2.06-2.06h1.43
				c1.13,0,2.06,0.93,2.06,2.06C135.51,137.92,134.58,138.85,133.45,138.85"/>
		</g>
	</g>
</g>
<g id="Text">
</g>
<g id="Safe_Area" class="st0">
	<circle class="st15" cx="126" cy="126" r="54"/>
</g>
</svg>
