<?xml version="1.0" encoding="utf-8"?>
<!-- Generator: Adobe Illustrator 23.0.2, SVG Export Plug-In . SVG Version: 6.00 Build 0)  -->
<svg version="1.1" xmlns="http://www.w3.org/2000/svg" xmlns:xlink="http://www.w3.org/1999/xlink" x="0px" y="0px"
	 viewBox="0 0 252 252" style="enable-background:new 0 0 252 252;" xml:space="preserve">
<style type="text/css">
	.st0{display:none;}
	.st1{display:inline;fill:#FFFFFF;stroke:#252723;stroke-miterlimit:10;}
	.st2{fill:#FFFFFF;}
	.st3{fill:#FEEAC8;}
	.st4{fill:#D8E9F1;}
	.st5{fill:#BEDBE6;}
	.st6{fill:#E5C1CC;}
	.st7{fill:#C35C52;}
	.st8{display:inline;fill:none;stroke:#252723;stroke-miterlimit:10;}
</style>
<g id="Bleed" class="st0">
	<circle class="st1" cx="126" cy="126" r="72"/>
</g>
<g id="Background">
</g>
<g id="Image">
	<circle class="st2" cx="126" cy="126" r="57.66"/>
	<circle class="st3" cx="126" cy="126" r="50.01"/>
	<circle class="st2" cx="126" cy="126" r="40.72"/>
	<circle class="st3" cx="126" cy="126" r="36"/>
	<g>
		<polygon class="st4" points="125.32,123.9 98.7,109.27 100.55,112.37 98.87,113.69 100.95,116.83 99.08,119.34 101.58,122.2 
			99.28,124.82 101.33,128.15 99.52,131.2 101.74,132.88 99.72,136.65 101.94,136.59 99.86,140.48 		"/>
		<path class="st5" d="M124,124.39l-17.33,11.8l2.18-3.52l-3.1,1.02c0.52-0.81,1.67-1.27,0.8-1.52l2.43-1.32l-2.82-1.92l3.71-2.88
			c0.17-0.22-0.03-0.56-0.28-0.48l-3.2,1.03l1.66-2.62l0.61-2.05l-2.7-2.99l1.95-0.57l-0.56-2.84l-1.35-1.91L124,124.39z"/>
		<polygon class="st4" points="127.01,124.51 153.3,109.77 151.53,112.8 153.24,114.04 151.23,117.12 153.17,119.49 150.74,122.31 
			153.11,124.79 151.14,128.05 153.03,130.95 150.84,132.62 152.96,136.21 150.74,136.21 152.92,139.91 		"/>
		<path class="st5" d="M128.97,124.27l17.33,11.8l-2.18-3.52l3.1,1.02c-0.52-0.81-1.67-1.27-0.8-1.52l-2.43-1.32l2.82-1.92
			l-3.71-2.88c-0.17-0.22,0.03-0.56,0.28-0.48l3.2,1.03l-1.66-2.62l-0.61-2.05l2.7-2.99l-1.95-0.57l0.56-2.84l1.35-1.91
			L128.97,124.27z"/>
		<circle class="st6" cx="127.01" cy="125.66" r="11.74"/>
		<path class="st6" d="M134.17,133.72c0,0.23-0.01,0.45-0.03,0.67c-1.38,1.83-3.57,3.01-6.04,3.01c-0.74,0-1.46-0.11-2.14-0.31
			c3.14-0.92,5.42-3.82,5.42-7.26c0-0.78-0.12-1.54-0.34-2.24C132.94,128.97,134.17,131.2,134.17,133.72z"/>
		<path class="st7" d="M133.83,133.88c0.02,0.23,0.04,0.82,0.02,1.05c-1.38,1.88-3.62,2.73-6.09,2.73c-0.74,0-1.46-0.11-2.14-0.32
			c3.14-0.95,5.42-3.92,5.42-7.44c0-0.8-0.12-1.57-0.34-2.3C132.59,129.01,133.38,129.59,133.83,133.88z"/>
		<path class="st7" d="M137.46,127.24c0.17,0.16,0.58,0.59,0.71,0.77c0.21,2.32-0.9,4.44-2.74,6.08c-0.56,0.49-1.17,0.89-1.81,1.19
			c1.72-2.79,1.45-6.53-0.89-9.17c-0.53-0.6-1.13-1.1-1.78-1.5C133.3,124.42,134.28,124.34,137.46,127.24z"/>
		<path class="st7" d="M135.91,119.49c0.23,0,0.82,0.05,1.04,0.1c1.71,1.58,2.3,3.91,2.02,6.36c-0.08,0.74-0.28,1.44-0.56,2.09
			c-0.58-3.22-3.28-5.83-6.78-6.24c-0.8-0.09-1.58-0.06-2.33,0.07C130.93,120.16,131.6,119.45,135.91,119.49z"/>
		<path class="st7" d="M127.34,114.84c0.14-0.19,0.52-0.63,0.69-0.79c2.28-0.46,4.51,0.42,6.34,2.08c0.55,0.5,1.01,1.07,1.37,1.67
			c-2.96-1.41-6.65-0.75-9.02,1.86c-0.54,0.59-0.97,1.24-1.3,1.93C124.97,119.28,124.78,118.32,127.34,114.84z"/>
		<path class="st7" d="M118.23,120.18c-0.1-0.21-0.33-0.76-0.39-0.97c0.63-2.24,2.42-3.83,4.73-4.7c0.7-0.26,1.41-0.41,2.11-0.46
			c-2.6,1.99-3.69,5.58-2.44,8.88c0.28,0.75,0.67,1.43,1.13,2.03C121.11,124.3,120.17,124.03,118.23,120.18z"/>
		<path class="st7" d="M118.09,130.2c-0.23-0.02-0.82-0.1-1.04-0.16c-1.61-1.68-2.06-4.04-1.64-6.47c0.13-0.73,0.36-1.42,0.68-2.05
			c0.39,3.25,2.93,6.02,6.4,6.63c0.79,0.14,1.57,0.15,2.33,0.06C123.1,129.83,122.39,130.5,118.09,130.2z"/>
		<path class="st7" d="M125.49,135.07c-0.14,0.18-0.54,0.63-0.7,0.78c-2.29,0.42-4.51-0.49-6.31-2.18c-0.54-0.51-0.99-1.08-1.34-1.7
			c2.93,1.46,6.64,0.86,9.05-1.71c0.55-0.58,0.99-1.23,1.33-1.91C127.93,130.68,128.1,131.64,125.49,135.07z"/>
	</g>
</g>
<g id="Text">
	<g>
		<path class="st2" d="M113.73,85.46c0.12-0.24,0.42-0.35,0.66-0.23c0.49,0.23,1.28,0.45,1.94,0.28c0.46-0.11,0.84-0.35,1.07-0.62
			c0.23-0.27,0.29-0.53,0.24-0.76c-0.03-0.12-0.08-0.2-0.16-0.27c-0.08-0.08-0.18-0.15-0.34-0.21c-0.31-0.11-0.8-0.16-1.37-0.13
			l-0.02,0c-0.45,0.02-0.89,0.01-1.28-0.07s-0.75-0.24-1.03-0.51c-0.19-0.19-0.33-0.43-0.4-0.71c-0.13-0.55,0.06-1.11,0.41-1.53
			c0.36-0.42,0.88-0.73,1.48-0.88c0.89-0.22,1.65,0.06,2.19,0.25c0.25,0.09,0.38,0.38,0.29,0.62c-0.08,0.26-0.36,0.39-0.62,0.3
			c-0.55-0.2-1.07-0.37-1.63-0.23c-0.42,0.1-0.75,0.32-0.96,0.56c-0.2,0.25-0.26,0.47-0.21,0.67c0.03,0.11,0.06,0.18,0.13,0.24
			c0.06,0.06,0.17,0.12,0.31,0.18c0.28,0.11,0.73,0.15,1.25,0.12l0.02,0c0.49-0.02,0.96-0.01,1.37,0.08
			c0.42,0.09,0.81,0.25,1.11,0.54c0.19,0.19,0.34,0.44,0.41,0.73c0.14,0.59-0.06,1.18-0.45,1.62c-0.37,0.44-0.92,0.78-1.58,0.94
			c-1,0.23-1.96-0.06-2.59-0.35C113.73,86,113.62,85.7,113.73,85.46z"/>
		<path class="st2" d="M125.88,81.28l-1.31,3.78c-0.01,0.02-0.02,0.05-0.03,0.08c0,0.01-0.01,0.01-0.01,0.01
			c-0.01,0.02-0.03,0.04-0.04,0.06c-0.01,0.01-0.02,0.01-0.02,0.01c-0.02,0.02-0.04,0.04-0.05,0.05c0,0.01-0.01,0.01-0.01,0.02
			c-0.03,0.02-0.04,0.04-0.08,0.05c0,0-0.01,0-0.01,0.01c-0.02,0-0.05,0.01-0.07,0.02c-0.01,0-0.01,0-0.02,0
			c-0.03,0.01-0.06,0.01-0.09,0.02c-0.03,0-0.06,0-0.09,0c-0.01,0-0.01,0-0.02,0c-0.02-0.01-0.04-0.01-0.07-0.01
			c-0.01-0.01-0.01-0.01-0.01-0.01c-0.01,0-0.01,0-0.01,0c-0.03-0.01-0.06-0.02-0.09-0.05c0,0,0,0,0-0.01
			c-0.03-0.01-0.04-0.02-0.06-0.04c0,0-0.02,0-0.02-0.01c-0.02-0.02-0.04-0.04-0.05-0.05c0,0-0.01,0-0.01-0.01
			c-0.02-0.03-0.03-0.06-0.04-0.07l-0.8-1.59l-0.56,1.68c-0.01,0.02-0.03,0.05-0.04,0.08l0,0.01c-0.02,0.02-0.04,0.04-0.05,0.06
			c0,0.01-0.01,0.01-0.01,0.01c-0.02,0.02-0.04,0.04-0.05,0.06c-0.04,0.03-0.05,0.05-0.08,0.06l-0.02,0c0,0-0.01,0-0.01,0.01
			c-0.02,0-0.05,0.01-0.06,0.02c-0.02,0-0.02,0-0.02,0c-0.04,0.01-0.07,0.01-0.09,0.02c-0.04,0-0.07,0-0.1,0c-0.01,0-0.01,0-0.03,0
			c-0.02-0.01-0.04-0.02-0.06-0.01c-0.01-0.01-0.01-0.01-0.02-0.01c-0.03-0.01-0.07-0.02-0.09-0.05c-0.01,0-0.01,0-0.01-0.01
			c-0.01-0.01-0.03-0.03-0.06-0.04c0,0,0,0-0.02-0.01c-0.01-0.02-0.03-0.04-0.04-0.05c-0.01,0-0.01,0-0.01-0.01
			c-0.02-0.03-0.03-0.05-0.05-0.07l-1.8-3.57c-0.13-0.25-0.03-0.54,0.23-0.67c0.22-0.12,0.52-0.03,0.64,0.24l1.29,2.48l0.56-1.63
			c0.07-0.2,0.24-0.32,0.44-0.34c0.21-0.01,0.4,0.09,0.49,0.27L124,83.6l0.95-2.62c0.08-0.28,0.37-0.42,0.62-0.33
			C125.83,80.74,125.98,81.01,125.88,81.28z"/>
		<path class="st2" d="M127.27,82.93c0.12-1.29,1.21-2.28,2.51-2.18c1.23,0.1,2.13,1.1,2.1,2.39c0,0.01,0,0.03,0,0.05
			c0,0.02-0.01,0.07-0.02,0.08c-0.05,0.23-0.26,0.36-0.52,0.34l-3.01-0.25c0.03,0.22,0.11,0.48,0.27,0.65
			c0.18,0.24,0.54,0.45,0.87,0.5c0.34,0.06,0.75,0,1-0.15c0.22-0.19,0.6-0.13,0.71,0.03c0.11,0.14,0.18,0.43-0.05,0.62
			c-0.5,0.39-1.08,0.54-1.75,0.48C128.09,85.38,127.17,84.22,127.27,82.93z M128.34,82.56l2.68,0.22c-0.06-0.39-0.5-0.99-1.32-1.12
			C128.9,81.63,128.45,82.17,128.34,82.56z"/>
		<path class="st2" d="M133.16,83.52c0.29-1.26,1.51-2.1,2.78-1.81c1.21,0.27,1.96,1.38,1.75,2.65c0,0.01-0.01,0.03-0.01,0.05
			c0,0.02-0.01,0.07-0.03,0.08c-0.08,0.22-0.31,0.32-0.57,0.26l-2.95-0.66c0,0.22,0.04,0.49,0.18,0.68c0.14,0.27,0.48,0.52,0.8,0.62
			c0.33,0.1,0.74,0.11,1.02-0.01c0.24-0.16,0.62-0.05,0.7,0.13c0.09,0.16,0.12,0.46-0.14,0.6c-0.55,0.31-1.14,0.39-1.8,0.24
			C133.63,86.05,132.89,84.78,133.16,83.52z M134.27,83.29l2.62,0.59c-0.01-0.39-0.36-1.04-1.15-1.29
			C134.95,82.45,134.43,82.93,134.27,83.29z"/>
		<path class="st2" d="M141.41,83.84c-0.09,0.27-0.4,0.42-0.67,0.33l-0.23-0.08l-0.85,2.52c0.28,0.09,0.42,0.39,0.33,0.67
			s-0.38,0.42-0.66,0.33c-0.55-0.19-0.85-0.79-0.66-1.34l0.85-2.52l-0.26-0.09c-0.28-0.09-0.42-0.39-0.33-0.66
			c0.09-0.28,0.38-0.42,0.66-0.33l0.26,0.09l0.44-1.31c0.09-0.28,0.39-0.42,0.67-0.33c0.28,0.09,0.42,0.38,0.33,0.66l-0.44,1.31
			l0.23,0.08C141.35,83.26,141.51,83.56,141.41,83.84z"/>
	</g>
	<g>
		<path d="M112.83,85.24c0.12-0.24,0.41-0.35,0.66-0.23c0.49,0.23,1.29,0.44,1.94,0.27c0.46-0.12,0.84-0.36,1.07-0.63
			c0.23-0.27,0.29-0.53,0.23-0.76c-0.03-0.12-0.08-0.2-0.16-0.27c-0.08-0.08-0.18-0.15-0.35-0.21c-0.31-0.11-0.8-0.15-1.37-0.12
			l-0.02,0c-0.45,0.03-0.89,0.02-1.28-0.06c-0.39-0.08-0.75-0.23-1.04-0.51c-0.19-0.19-0.33-0.43-0.4-0.7
			c-0.14-0.55,0.06-1.11,0.4-1.53c0.35-0.42,0.87-0.74,1.47-0.88c0.89-0.22,1.65,0.05,2.19,0.24c0.25,0.09,0.39,0.37,0.29,0.62
			c-0.08,0.25-0.36,0.39-0.62,0.3c-0.55-0.2-1.07-0.36-1.63-0.22c-0.42,0.1-0.75,0.32-0.95,0.57c-0.2,0.25-0.25,0.47-0.21,0.67
			c0.03,0.11,0.06,0.18,0.13,0.24c0.06,0.06,0.17,0.13,0.31,0.18c0.28,0.11,0.73,0.15,1.25,0.12l0.02,0
			c0.49-0.03,0.96-0.01,1.37,0.07c0.42,0.09,0.82,0.25,1.11,0.54c0.19,0.19,0.35,0.44,0.42,0.73c0.15,0.59-0.06,1.18-0.44,1.63
			c-0.37,0.44-0.92,0.79-1.58,0.95c-1,0.24-1.96-0.05-2.59-0.33C112.82,85.78,112.72,85.49,112.83,85.24z"/>
		<path d="M124.95,80.99l-1.29,3.79c-0.01,0.02-0.02,0.05-0.03,0.08c0,0.01-0.01,0.01-0.01,0.01c-0.01,0.02-0.03,0.04-0.04,0.06
			c-0.01,0.01-0.02,0.01-0.02,0.01c-0.02,0.02-0.04,0.04-0.05,0.05c0,0.01-0.01,0.01-0.01,0.02c-0.03,0.02-0.04,0.04-0.08,0.05
			c0,0-0.01,0-0.01,0.01c-0.02,0-0.05,0.01-0.07,0.03c-0.01,0-0.01,0-0.02,0c-0.03,0.01-0.06,0.01-0.09,0.02c-0.03,0-0.06,0-0.09,0
			c-0.01,0-0.01,0-0.02,0c-0.02-0.01-0.04-0.01-0.07-0.01c-0.01-0.01-0.01-0.01-0.01-0.01c-0.01,0-0.01,0-0.01,0
			c-0.03-0.01-0.06-0.03-0.09-0.05c0,0,0,0,0-0.01c-0.03-0.01-0.04-0.02-0.06-0.04c0,0-0.02,0-0.02-0.01
			c-0.02-0.02-0.04-0.04-0.05-0.05c0,0-0.01,0-0.01-0.01c-0.02-0.03-0.03-0.06-0.04-0.07l-0.81-1.59l-0.55,1.69
			c-0.01,0.02-0.02,0.05-0.04,0.08l0,0.01c-0.02,0.02-0.04,0.04-0.05,0.06c0,0.01-0.01,0.01-0.01,0.01
			c-0.02,0.02-0.04,0.04-0.05,0.06c-0.04,0.03-0.05,0.05-0.08,0.06l-0.02,0c0,0-0.01,0-0.01,0.01c-0.02,0-0.05,0.01-0.06,0.02
			c-0.02,0-0.02,0-0.02,0c-0.04,0.01-0.07,0.01-0.09,0.02c-0.04,0-0.07,0-0.09,0c-0.01,0-0.01,0-0.03,0
			c-0.02-0.01-0.04-0.02-0.06-0.01c-0.01-0.01-0.01-0.01-0.02-0.01c-0.03-0.01-0.07-0.02-0.09-0.05c-0.01,0-0.01,0-0.01-0.01
			c-0.01-0.01-0.03-0.03-0.06-0.04c0,0,0,0-0.02-0.01c-0.01-0.02-0.03-0.04-0.04-0.05c-0.01,0-0.01,0-0.01-0.01
			c-0.02-0.03-0.03-0.05-0.05-0.07l-1.82-3.56c-0.13-0.25-0.03-0.54,0.23-0.67c0.22-0.12,0.52-0.03,0.65,0.24l1.31,2.47l0.55-1.63
			c0.07-0.2,0.24-0.32,0.44-0.34c0.21-0.02,0.4,0.08,0.49,0.27l0.79,1.53l0.93-2.63c0.07-0.28,0.37-0.42,0.61-0.33
			C124.89,80.45,125.05,80.73,124.95,80.99z"/>
		<path d="M126.35,82.64c0.11-1.29,1.2-2.29,2.5-2.19c1.23,0.1,2.14,1.09,2.11,2.38c0,0.01,0,0.03,0,0.05c0,0.02,0,0.07-0.02,0.08
			c-0.05,0.23-0.26,0.36-0.52,0.34l-3.01-0.23c0.03,0.22,0.12,0.48,0.27,0.65c0.18,0.24,0.55,0.44,0.88,0.5c0.34,0.06,0.75,0,1-0.16
			c0.22-0.19,0.6-0.14,0.71,0.03c0.11,0.14,0.19,0.43-0.05,0.62c-0.5,0.39-1.07,0.54-1.75,0.49
			C127.18,85.08,126.26,83.93,126.35,82.64z M127.42,82.26l2.68,0.21c-0.07-0.39-0.51-0.98-1.33-1.11
			C127.97,81.32,127.52,81.87,127.42,82.26z"/>
		<path d="M132.24,83.19c0.29-1.26,1.5-2.1,2.77-1.82c1.21,0.26,1.96,1.38,1.76,2.64c0,0.01-0.01,0.03-0.01,0.05
			s-0.01,0.07-0.03,0.08c-0.08,0.22-0.3,0.32-0.56,0.27l-2.95-0.65c0,0.22,0.05,0.49,0.18,0.68c0.15,0.27,0.48,0.51,0.8,0.61
			c0.33,0.1,0.75,0.1,1.02-0.02c0.24-0.16,0.61-0.05,0.7,0.12c0.09,0.16,0.12,0.46-0.13,0.6c-0.55,0.32-1.14,0.39-1.8,0.25
			C132.73,85.72,131.97,84.45,132.24,83.19z M133.35,82.96l2.63,0.58c-0.01-0.39-0.36-1.04-1.16-1.29
			C134.02,82.11,133.51,82.59,133.35,82.96z"/>
		<path d="M140.5,83.46c-0.09,0.27-0.4,0.42-0.67,0.33l-0.23-0.07l-0.83,2.52c0.28,0.09,0.42,0.39,0.33,0.67
			c-0.09,0.28-0.38,0.43-0.66,0.33c-0.55-0.18-0.85-0.78-0.67-1.33l0.83-2.52l-0.26-0.09c-0.28-0.09-0.42-0.39-0.33-0.66
			c0.09-0.28,0.38-0.42,0.66-0.33l0.26,0.09l0.43-1.31c0.09-0.28,0.39-0.42,0.67-0.33c0.28,0.09,0.42,0.38,0.33,0.66l-0.43,1.31
			l0.23,0.07C140.43,82.89,140.59,83.18,140.5,83.46z"/>
	</g>
</g>
<g id="Safe_Area" class="st0">
	<circle class="st8" cx="126" cy="126" r="54"/>
</g>
</svg>
