<?xml version="1.0" encoding="utf-8"?>
<!-- Generator: Adobe Illustrator 23.0.2, SVG Export Plug-In . SVG Version: 6.00 Build 0)  -->
<svg version="1.1" id="Layer_1" xmlns="http://www.w3.org/2000/svg" xmlns:xlink="http://www.w3.org/1999/xlink" x="0px" y="0px"
	 viewBox="0 0 288 288" style="enable-background:new 0 0 288 288;" xml:space="preserve">
<path d="M190.51,154.5c-9.22,25.32-33.52,43.41-62.04,43.41c-6.8,0-13.35-1.02-19.53-2.94V68.85c2.88-0.89,5.86-1.59,8.89-2.08
	v117.07c5.83,1.85,12.03,2.84,18.45,2.84C159.52,186.68,179.77,173.72,190.51,154.5z"/>
<path d="M192.76,93.89c11.99,23.61,3.92,51.78-18.02,62.92c-3.74,1.9-7.64,3.18-11.6,3.88c14.89-14.08,18.99-37.88,8.58-58.39
	c-9.18-18.08-27.08-28.57-45.01-28.26c1.46-1,3.01-1.92,4.63-2.74C153.28,60.16,180.78,70.28,192.76,93.89z"/>
</svg>
