<?xml version="1.0" encoding="utf-8"?>
<!-- Generator: Adobe Illustrator 23.0.2, SVG Export Plug-In . SVG Version: 6.00 Build 0)  -->
<svg version="1.1" id="Layer_1" xmlns="http://www.w3.org/2000/svg" xmlns:xlink="http://www.w3.org/1999/xlink" x="0px" y="0px"
	 viewBox="0 0 144 144" style="enable-background:new 0 0 144 144;" xml:space="preserve">
<path d="M100.55,88.06c-6.68,18.35-24.29,31.46-44.95,31.46c-4.92,0-9.68-0.74-14.15-2.13V26c2.09-0.65,4.24-1.16,6.44-1.51v84.82
	c4.23,1.34,8.72,2.05,13.37,2.05C78.09,111.37,92.77,101.98,100.55,88.06z"/>
<path d="M102.18,44.14c8.68,17.11,2.84,37.52-13.06,45.59c-2.71,1.38-5.54,2.3-8.41,2.81c10.79-10.2,13.76-27.45,6.22-42.31
	c-6.65-13.1-19.62-20.7-32.61-20.48c1.06-0.73,2.18-1.39,3.36-1.99C73.57,19.7,93.5,27.03,102.18,44.14z"/>
</svg>
