<?xml version="1.0" encoding="utf-8"?>
<!-- Generator: Adobe Illustrator 23.0.2, SVG Export Plug-In . SVG Version: 6.00 Build 0)  -->
<svg version="1.1" id="Layer_1" xmlns="http://www.w3.org/2000/svg" xmlns:xlink="http://www.w3.org/1999/xlink" x="0px" y="0px"
	 viewBox="0 0 72 72" style="enable-background:new 0 0 72 72;" xml:space="preserve">
<path d="M55.75,47.27c-4.7,12.89-17.07,22.1-31.59,22.1c-3.46,0-6.8-0.52-9.94-1.5V3.66c1.47-0.45,2.98-0.81,4.53-1.06v59.61
	c2.97,0.94,6.12,1.44,9.39,1.44C39.97,63.65,50.29,57.05,55.75,47.27z"/>
<path d="M56.9,16.41c6.1,12.02,1.99,26.37-9.18,32.04c-1.91,0.97-3.89,1.62-5.91,1.98c7.58-7.17,9.67-19.29,4.37-29.73
	C41.51,11.48,32.39,6.14,23.27,6.3c0.75-0.51,1.53-0.98,2.36-1.4C36.79-0.77,50.8,4.39,56.9,16.41z"/>
</svg>
