<?xml version="1.0" encoding="utf-8"?>
<!-- Generator: Adobe Illustrator 23.0.2, SVG Export Plug-In . SVG Version: 6.00 Build 0)  -->
<svg version="1.1" id="Layer_1" xmlns="http://www.w3.org/2000/svg" xmlns:xlink="http://www.w3.org/1999/xlink" x="0px" y="0px"
	 viewBox="0 0 40 40" style="enable-background:new 0 0 40 40;" xml:space="preserve">
<path d="M30.86,24.62c-2.25,6.19-8.19,10.61-15.16,10.61c-1.66,0-3.26-0.25-4.77-0.72V3.69c0.7-0.22,1.43-0.39,2.17-0.51v28.62
	c1.43,0.45,2.94,0.69,4.51,0.69C23.28,32.48,28.23,29.32,30.86,24.62z"/>
<path d="M31.41,9.81c2.93,5.77,0.96,12.66-4.4,15.38c-0.91,0.46-1.87,0.78-2.84,0.95c3.64-3.44,4.64-9.26,2.1-14.27
	c-2.24-4.42-6.62-6.98-11-6.91C15.62,4.71,16,4.48,16.4,4.28C21.76,1.56,28.48,4.03,31.41,9.81z"/>
</svg>
