<?xml version="1.0" encoding="utf-8"?>
<!-- Generator: Adobe Illustrator 23.0.2, SVG Export Plug-In . SVG Version: 6.00 Build 0)  -->
<svg version="1.1" id="Layer_1" xmlns="http://www.w3.org/2000/svg" xmlns:xlink="http://www.w3.org/1999/xlink" x="0px" y="0px"
	 viewBox="0 0 500 500" style="enable-background:new 0 0 500 500;" xml:space="preserve">
<style type="text/css">
	.st0{fill:#FFFFFF;}
	.st1{opacity:0.5;fill:#30619C;enable-background:new    ;}
	.st2{fill:none;}
	.st3{fill:#C56482;}
	.st4{opacity:0.31;fill:#E2BCCB;enable-background:new    ;}
	.st5{fill:#F4EEE6;}
	.st6{opacity:0.56;fill:#F4EEE6;enable-background:new    ;}
	.st7{fill:#30619C;}
	.st8{fill:#604B33;stroke:#8D6F4D;stroke-width:0.8294;stroke-miterlimit:10;}
	.st9{fill:#8D6F4D;}
	.st10{fill:#604B33;}
	.st11{fill:#BC9366;}
	.st12{fill:#E2C8AB;}
	.st13{fill:#F0DFE8;}
	.st14{fill:#A7C580;}
	.st15{fill:#8FB761;}
	.st16{fill:#BCD29D;}
	.st17{fill:#C8A784;}
	.st18{fill:#F2E2EA;}
	.st19{fill:#E7EFDE;}
	.st20{fill:#98BDDA;}
	.st21{fill:#BC9366;stroke:#D6BEA2;stroke-width:1.0733;stroke-miterlimit:10;}
	.st22{fill:#BC9366;stroke:#C8A784;stroke-width:1.0733;stroke-miterlimit:10;}
	.st23{fill:#BC9366;stroke:#C8A784;stroke-width:1.1495;stroke-miterlimit:10;}
	.st24{fill:#BC9366;stroke:#D6BEA2;stroke-width:1.4503;stroke-miterlimit:10;}
	.st25{fill:#BC9366;stroke:#C8A784;stroke-width:0.9344;stroke-miterlimit:10;}
	.st26{fill:#D6BEA2;stroke:#FFFFFF;stroke-width:0.4515;stroke-miterlimit:10;}
	.st27{fill:#D6BEA2;stroke:#FFFFFF;stroke-width:0.367;stroke-miterlimit:10;}
	.st28{fill:#D6BEA2;stroke:#FFFFFF;stroke-width:0.2711;stroke-miterlimit:10;}
	.st29{fill:#D6BEA2;stroke:#FFFFFF;stroke-width:0.721;stroke-miterlimit:10;}
	.st30{fill:#E2C8AB;stroke:#C8A784;stroke-width:0.8294;stroke-miterlimit:10;}
</style>
<g>
	<g id="sky">
		<rect x="-12.28" y="18.9" class="st0" width="535.12" height="270.04"/>
		<path class="st1" d="M360.18-96.16c-0.49-0.01-0.99-0.02-1.48-0.02c3.7,0.06,7.39,0.1,11.09,0.14c-1.87-0.02-3.73-0.03-5.6-0.06
			C362.85-96.11,361.51-96.13,360.18-96.16z"/>
		<path class="st1" d="M380.83-95.96c-0.4,0-0.8,0-1.19-0.01h0.89c0.18,0,0.36,0.01,0.56,0c0.06,0.01,0.11,0.01,0.17,0.01H380.83z"
			/>
		<path class="st1" d="M381.52-95.96c-0.07,0.01-0.15,0.01-0.22,0c0.04,0,0.08,0,0.12-0.01C381.45-95.96,381.48-95.96,381.52-95.96z
			"/>
		<path class="st1" d="M383.24-95.95c-0.54,0-1.08-0.01-1.63-0.01c1.77,0.01,3.55,0.01,5.32,0.01h3.05
			c-0.64,0.01-1.27,0.01-1.91,0.01h-2.98c-0.35,0-0.7,0-1.05-0.01H383.24z"/>
		<path class="st1" d="M392.28-95.95h-2.28c1.95,0,3.89-0.01,5.83-0.02c-0.09,0.01-0.19,0.01-0.28,0.01
			C394.46-95.95,393.36-95.95,392.28-95.95z"/>
		<path class="st1" d="M409.63-96.07c-0.76,0.01-1.53,0.02-2.3,0.02c1.88-0.02,3.76-0.05,5.64-0.07c-0.09,0.01-0.19,0.01-0.28,0.01
			c-0.76,0.02-1.52,0.02-2.27,0.03C410.15-96.07,409.88-96.07,409.63-96.07z"/>
		<path class="st1" d="M522.84-22.62v481.14c-47.17,50.21-108.92,86.54-178.49,102.23h-0.01c-5.52,1.25-11.09,2.37-16.7,3.34
			c-0.38,0.07-0.76,0.14-1.15,0.2h-0.01c-2.02,0.36-4.04,0.68-6.07,1h-0.02c-1.09,0.17-2.17,0.33-3.27,0.48
			c-2.75,0.41-5.51,0.76-8.28,1.09c-1.85,0.22-3.71,0.43-5.57,0.62c-0.16,0.02-0.31,0.03-0.46,0.05h-0.01
			c-1.41,0.14-2.82,0.28-4.24,0.41c-0.74,0.07-1.48,0.13-2.22,0.18h-0.01c-0.6,0.07-1.21,0.12-1.82,0.15h-0.01
			c-1.9,0.16-3.81,0.29-5.71,0.41c0,0,0,0.01-0.01,0c-3.91,0.25-7.85,0.43-11.8,0.53c-0.01,0-0.01,0-0.01,0
			c-0.14,0.02-0.28,0.02-0.42,0.02c-1.58,0.05-3.15,0.08-4.73,0.11c-1.71,0.02-3.42,0.03-5.13,0.03c-0.45,0-0.89,0-1.34-0.01
			c-2.16,0-4.3-0.03-6.44-0.08c-2.83-0.06-5.65-0.15-8.46-0.28c-3.2-0.14-6.39-0.33-9.56-0.56h-0.02c-1.29-0.09-2.59-0.19-3.88-0.31
			h-0.01c-0.33-0.02-0.66-0.05-0.99-0.08h-0.01c-1.42-0.12-2.82-0.25-4.23-0.4c-1.46-0.13-2.9-0.29-4.35-0.45h-0.01
			c-1.78-0.2-3.56-0.41-5.33-0.63c-0.51-0.07-1.01-0.13-1.52-0.21c-3.87-0.5-7.7-1.07-11.52-1.71c-0.01,0-0.02,0-0.02,0
			c-0.9-0.14-1.78-0.29-2.66-0.46c-1.47-0.24-2.93-0.51-4.39-0.78h-0.01c-1.24-0.22-2.48-0.46-3.72-0.71
			c-1.87-0.36-3.75-0.75-5.62-1.16c-1.37-0.28-2.74-0.59-4.1-0.9c-0.16-0.04-0.31-0.07-0.46-0.1c-0.3-0.07-0.6-0.13-0.9-0.21
			c-4.18-0.96-8.34-2.01-12.46-3.12c-2.45-0.66-4.89-1.35-7.32-2.07c-2.84-0.83-5.67-1.7-8.48-2.6c-5.98-1.92-11.89-4.01-17.72-6.25
			h-0.01c-3.13-1.19-6.22-2.42-9.3-3.71c-0.48-0.2-0.95-0.4-1.43-0.6c-0.08-0.03-0.17-0.07-0.26-0.11
			c-2.42-1.02-4.83-2.07-7.22-3.14c-0.72-0.32-1.44-0.65-2.16-0.98c-4.21-1.92-8.37-3.92-12.48-6.01c-0.09-0.03-0.18-0.08-0.27-0.13
			c-2.65-1.34-5.29-2.72-7.91-4.13c-2.15-1.15-4.28-2.33-6.39-3.54c-41.25-23.36-77.3-54.83-106.01-92.22V4.22
			c31.89-41.55,72.87-75.77,119.94-99.7h318.08c9.22,4.68,18.19,9.75,26.91,15.2c2.38,1.49,4.75,3.01,7.1,4.56
			c14.81,9.75,28.82,20.59,41.95,32.41c1.53,1.38,3.05,2.77,4.55,4.17C511.96-33.81,517.49-28.3,522.84-22.62z"/>
		<path class="st1" d="M526.06,455.04l-3.23,48.04c-48.89,43.97-109.15,75.53-175.85,89.74c-1.6,0.35-3.22,0.68-4.83,1
			c-4.47,0.89-8.97,1.71-13.49,2.44c-1.91,0.32-3.83,0.61-5.75,0.9c-0.15,0.02-0.28,0.04-0.43,0.07h-0.01
			c-0.15,0.02-0.31,0.04-0.46,0.06c-1.75,0.26-3.5,0.5-5.26,0.72c-2.54,0.34-5.08,0.65-7.64,0.92c-1.34,0.15-2.68,0.29-4.01,0.43
			c-0.36,0.03-0.71,0.07-1.06,0.1c-1.27,0.12-2.55,0.24-3.82,0.35h-0.01c-1.17,0.1-2.34,0.2-3.51,0.29c-0.04,0-0.08,0.01-0.12,0.01
			c-1.68,0.13-3.36,0.25-5.04,0.36c-2.84,0.18-5.71,0.33-8.57,0.45c-4.42,0.19-8.87,0.31-13.33,0.33c-0.66,0.01-1.33,0.02-1.99,0.01
			c-0.1,0.01-0.21,0.01-0.31,0.01c0,0,0,0.01-0.01,0h-0.69c-0.45,0-0.89,0-1.34-0.01c-0.99,0-1.97-0.01-2.96-0.02
			c-1.1-0.01-2.21-0.02-3.3-0.05c-1.18-0.02-2.36-0.05-3.53-0.08c-0.3-0.01-0.61-0.02-0.91-0.03c-2.58-0.07-5.16-0.18-7.73-0.32
			c-0.4-0.02-0.8-0.03-1.19-0.06c-0.18-0.01-0.36-0.02-0.53-0.03c-0.22-0.01-0.42-0.02-0.63-0.03c-0.07,0-0.13-0.01-0.2-0.01h-0.01
			c-0.2-0.02-0.41-0.02-0.61-0.03c0,0,0,0-0.01,0c-0.39-0.02-0.78-0.05-1.17-0.07c-1.04-0.07-2.07-0.13-3.11-0.22h-0.01
			c-0.98-0.06-1.96-0.13-2.94-0.21c-1.46-0.12-2.92-0.24-4.38-0.37c-1.09-0.09-2.17-0.19-3.25-0.31c-0.42-0.03-0.84-0.07-1.26-0.12
			c-0.47-0.04-0.94-0.09-1.41-0.14c-0.07-0.01-0.16-0.02-0.23-0.02c-0.33-0.03-0.66-0.07-1-0.11c-0.9-0.09-1.78-0.19-2.67-0.3h-0.01
			c-0.26-0.02-0.51-0.06-0.75-0.08c-2.45-0.29-4.88-0.6-7.31-0.93c-4.49-0.61-8.95-1.3-13.39-2.07c-1.12-0.19-2.23-0.39-3.34-0.6
			c-0.32-0.06-0.65-0.12-0.96-0.17c-1.3-0.24-2.6-0.49-3.9-0.75c-0.36-0.07-0.71-0.13-1.06-0.21c-0.58-0.12-1.15-0.22-1.73-0.35
			c-0.76-0.15-1.53-0.32-2.3-0.47c-0.25-0.05-0.5-0.11-0.75-0.16c-0.91-0.19-1.82-0.39-2.74-0.6c-1.51-0.32-3.02-0.66-4.52-1.02
			c-3.87-0.9-7.71-1.85-11.54-2.87c-1.93-0.51-3.86-1.04-5.78-1.58c-1.05-0.3-2.11-0.6-3.16-0.9c-0.45-0.13-0.9-0.27-1.34-0.4
			c-0.59-0.17-1.18-0.35-1.77-0.53c-0.8-0.24-1.6-0.48-2.41-0.73c-0.95-0.29-1.89-0.59-2.83-0.89c-0.56-0.17-1.12-0.35-1.68-0.54
			c-5.73-1.84-11.4-3.82-17-5.92c-0.75-0.28-1.52-0.56-2.26-0.86c-1.64-0.62-3.28-1.26-4.91-1.91c-0.56-0.22-1.11-0.45-1.66-0.67
			c-2.06-0.83-4.11-1.68-6.15-2.55c-2.26-0.95-4.5-1.93-6.73-2.94c-4.04-1.8-8.05-3.68-12.01-5.62c-2.57-1.26-5.13-2.55-7.66-3.87
			c-0.18-0.09-0.36-0.18-0.54-0.28c-0.57-0.29-1.14-0.59-1.71-0.9h-0.01c-37.71-19.84-71.7-45.79-100.66-76.53V-44.93
			c4.76-5.04,9.65-9.96,14.67-14.74c1.5-1.44,3.03-2.86,4.55-4.26c4.36-4.03,8.83-7.96,13.38-11.78c1.83-1.54,3.67-3.06,5.54-4.56
			c6.53-5.28,13.24-10.36,20.11-15.2h441.38c12.38,8.73,24.23,18.18,35.47,28.29v525.7C523.92,457.37,524.99,456.21,526.06,455.04z"
			/>
		<path class="st1" d="M526.06,455.04l-3.23,48.04v30.5c-53.23,43.26-117.61,73.32-188.16,85.21c-6.93,1.17-13.92,2.16-20.96,2.97
			c-1.87,0.22-3.77,0.42-5.65,0.61h-0.02c-3.41,0.35-6.82,0.65-10.25,0.9c-2.02,0.16-4.04,0.3-6.07,0.41
			c-1.39,0.09-2.8,0.17-4.2,0.24h-0.01c-3.89,0.19-7.79,0.33-11.7,0.41h-0.01c-0.7,0.02-1.4,0.03-2.12,0.04
			c-1.37,0.03-2.75,0.05-4.12,0.05c-0.02,0.01-0.03,0.01-0.05,0c-0.01,0.01-0.01,0.01-0.02,0c-0.01,0.01-0.01,0.01-0.02,0
			c-0.01,0.01-0.01,0.01-0.02,0c-0.61,0.01-1.24,0.02-1.86,0.01c-0.01,0.01-0.01,0-0.01,0c-0.01,0.01-0.01,0.01-0.02,0
			c-0.01,0.01-0.02,0-0.02,0c-0.01,0.01-0.02,0.01-0.02,0c-0.01,0.01-0.01,0-0.01,0c-0.02,0.01-0.02,0.01-0.03,0
			c-0.01,0.01-0.02,0.01-0.02,0c-0.1,0.01-0.21,0.01-0.31,0.01c0,0,0-0.01-0.01,0h-0.95c-0.32,0-0.65,0-0.97-0.01
			c-0.35,0.01-0.7,0-1.04,0c-0.12,0-0.25,0-0.37-0.01c-0.73,0-1.46-0.01-2.19-0.02c-1.38-0.02-2.74-0.03-4.11-0.07
			c-1.01-0.02-2.02-0.04-3.02-0.07c-0.88-0.02-1.75-0.05-2.62-0.08c-0.28-0.01-0.56-0.02-0.85-0.03c-1.64-0.06-3.28-0.13-4.9-0.22
			c-0.36-0.02-0.72-0.03-1.08-0.05c-0.46-0.02-0.91-0.05-1.37-0.07c-1.81-0.1-3.6-0.22-5.4-0.33c-1.45-0.11-2.89-0.22-4.34-0.33
			c-0.35-0.02-0.69-0.05-1.03-0.08c-0.18-0.01-0.36-0.02-0.53-0.04c-0.23-0.02-0.46-0.03-0.69-0.06c-0.7-0.06-1.39-0.12-2.09-0.19
			c-0.07,0-0.16-0.01-0.23-0.02c-0.75-0.07-1.5-0.13-2.26-0.21c0,0-0.01,0-0.02,0c-1.23-0.12-2.44-0.24-3.66-0.37
			c-0.41-0.04-0.83-0.08-1.24-0.13c-0.78-0.08-1.55-0.17-2.32-0.26c-0.21-0.02-0.41-0.05-0.62-0.07h-0.01
			c-1.31-0.15-2.62-0.31-3.92-0.47c-0.01,0.01-0.01,0.01-0.02,0c-1.38-0.17-2.76-0.36-4.13-0.55c-0.94-0.12-1.87-0.26-2.8-0.39
			c-1.13-0.16-2.26-0.32-3.38-0.5c-0.13-0.02-0.26-0.04-0.39-0.06c0,0,0,0-0.01,0c-3.53-0.54-7.05-1.13-10.55-1.76
			c-0.53-0.1-1.06-0.19-1.58-0.29c-0.64-0.12-1.28-0.24-1.92-0.36c-0.59-0.12-1.18-0.22-1.77-0.34c-0.62-0.12-1.24-0.24-1.86-0.36
			c-1.73-0.35-3.45-0.7-5.17-1.07c-0.43-0.08-0.86-0.17-1.29-0.27c-0.36-0.07-0.71-0.15-1.07-0.23c-2.83-0.61-5.64-1.26-8.44-1.94
			c-0.89-0.21-1.77-0.42-2.64-0.65c-0.86-0.22-1.73-0.43-2.58-0.65c-0.73-0.18-1.45-0.37-2.18-0.57c-1.12-0.28-2.24-0.58-3.36-0.88
			c-0.54-0.15-1.07-0.3-1.61-0.45c-1.21-0.33-2.41-0.66-3.62-1.02c-3.08-0.86-6.13-1.77-9.17-2.72c-5.79-1.8-11.52-3.73-17.19-5.78
			c-0.31-0.11-0.61-0.22-0.9-0.32c-0.62-0.22-1.24-0.46-1.86-0.68c-0.75-0.28-1.51-0.56-2.26-0.85h-0.01c-1.51-0.56-3-1.14-4.5-1.73
			c-1.56-0.61-3.11-1.23-4.66-1.85c-1.76-0.71-3.51-1.43-5.26-2.16c-0.08-0.04-0.17-0.07-0.25-0.11c-0.27-0.12-0.54-0.23-0.81-0.35
			c-2.31-0.97-4.6-1.97-6.87-2.99c-0.35-0.15-0.7-0.31-1.05-0.47c-3.27-1.46-6.51-2.97-9.73-4.52c-0.51-0.25-1.04-0.5-1.55-0.75
			c-37.28-18.16-71.38-41.84-101.21-70V-77.73c0.45-0.42,0.9-0.85,1.34-1.26c6.08-5.68,12.33-11.18,18.75-16.49h515.03v553.99
			C523.92,457.37,524.99,456.21,526.06,455.04z"/>
		<path class="st1" d="M379.64-95.96c-2.44-0.01-4.87-0.02-7.31-0.05c2.7,0.02,5.4,0.04,8.1,0.05h0.1c0.18,0,0.36,0.01,0.56,0
			c0.06,0.01,0.11,0.01,0.17,0.01h-0.41C380.43-95.96,380.03-95.96,379.64-95.96z"/>
		<path class="st1" d="M381.52-95.96c-0.07,0.01-0.15,0.01-0.22,0c0.04,0,0.08,0,0.12-0.01c1.84,0.01,3.68,0.02,5.52,0.02h3.05
			c-0.64,0.01-1.27,0.01-1.91,0.01h-2.98c-0.35,0-0.7,0-1.05-0.01h-0.81c-0.54,0-1.08-0.01-1.63-0.01H381.52z"/>
		<path class="st1" d="M395.54-95.96c-1.09,0.01-2.18,0.01-3.27,0.01c1.19-0.01,2.37-0.01,3.55-0.02
			C395.73-95.96,395.63-95.96,395.54-95.96z"/>
		<path class="st1" d="M526.06,455.04l-3.23,48.04v62.62c-49.67,36.65-107.48,62.92-170.22,75.59c-0.15,0.02-0.31,0.06-0.46,0.09
			c-14.9,2.99-30.1,5.22-45.52,6.64c-0.3,0.02-0.61,0.06-0.9,0.08c-0.95,0.08-1.9,0.17-2.85,0.25c-0.58,0.04-1.16,0.09-1.74,0.14
			c-1.56,0.12-3.12,0.23-4.68,0.34c-4.28,0.29-8.58,0.52-12.9,0.69c-0.82,0.03-1.64,0.06-2.47,0.08c-0.14,0.01-0.28,0.02-0.42,0.02
			c-0.37,0.02-0.74,0.02-1.11,0.03c-0.17,0.01-0.35,0.01-0.52,0.01c-4.11,0.12-8.23,0.18-12.37,0.18c-0.57,0-1.14,0-1.71-0.01
			c-0.07,0.01-0.13,0.01-0.2,0c-0.89,0-1.77-0.01-2.65-0.02c-0.55-0.01-1.09-0.01-1.64-0.02c-0.71-0.01-1.42-0.02-2.12-0.03
			c-1.34-0.03-2.68-0.06-4.01-0.1c-2.05-0.06-4.1-0.12-6.14-0.22c-0.07,0-0.13,0-0.19-0.01c-3.54-0.15-7.08-0.34-10.59-0.58
			c-0.24-0.02-0.48-0.03-0.72-0.05c-0.01,0-0.01,0-0.01,0c-0.38-0.02-0.75-0.05-1.13-0.07c-0.42-0.03-0.84-0.06-1.25-0.09
			c-2.59-0.19-5.17-0.41-7.73-0.65c-1.43-0.12-2.87-0.27-4.3-0.41c-0.68-0.07-1.35-0.14-2.02-0.21h-0.01
			c-1.89-0.21-3.77-0.42-5.66-0.65c-0.75-0.09-1.5-0.18-2.26-0.27c-1.92-0.24-3.84-0.5-5.76-0.76c-0.24-0.03-0.48-0.07-0.72-0.1
			c-3.32-0.47-6.63-0.98-9.92-1.52c-0.48-0.08-0.96-0.16-1.44-0.24c-0.95-0.16-1.91-0.32-2.85-0.49c0,0.01-0.01,0-0.01,0
			c-1.29-0.22-2.57-0.46-3.85-0.7c-0.65-0.12-1.29-0.24-1.94-0.36c-1.4-0.27-2.8-0.54-4.19-0.82c-5-1-9.97-2.08-14.9-3.25
			c-1.35-0.32-2.7-0.65-4.03-0.98c-0.47-0.12-0.95-0.23-1.42-0.35c-1.09-0.27-2.16-0.55-3.24-0.83c-3.04-0.78-6.05-1.6-9.07-2.46
			c-7.91-2.23-15.74-4.69-23.46-7.37c-3-1.03-5.99-2.1-8.96-3.21c-1.36-0.5-2.71-1-4.06-1.53c-3.33-1.27-6.65-2.59-9.94-3.94
			c-1.84-0.75-3.67-1.53-5.49-2.31c-0.96-0.41-1.93-0.83-2.89-1.24c-1.02-0.45-2.04-0.9-3.06-1.35c-0.07-0.03-0.16-0.07-0.23-0.1
			c-37.52-16.74-72.2-38.67-103.15-64.88V-95.48h535.12v553.99C523.92,457.37,524.99,456.21,526.06,455.04z"/>
		<path class="st2" d="M522.84,458.52V-95.48H-12.28v686.35c32.08,24.05,67.37,44.04,105.12,59.24c0.18,0.08,0.37,0.16,0.56,0.22
			c1.43,0.58,2.86,1.14,4.3,1.7c12.05,4.7,24.34,8.92,36.87,12.6c4.79,1.43,9.63,2.77,14.49,4.03c5.15,1.34,10.33,2.6,15.54,3.77
			h0.01c1.51,0.34,3.01,0.66,4.52,0.99c4.17,0.89,8.36,1.73,12.57,2.5c0.48,0.09,0.97,0.18,1.45,0.27
			c4.52,0.82,9.06,1.58,13.62,2.26c4.07,0.61,8.16,1.18,12.28,1.68c1.58,0.2,3.18,0.39,4.77,0.56c3.14,0.36,6.3,0.68,9.46,0.97
			c0.96,0.09,1.93,0.18,2.9,0.27c2.31,0.2,4.62,0.38,6.93,0.54c2.83,0.21,5.67,0.38,8.52,0.53c1.4,0.07,2.8,0.14,4.21,0.21h0.01
			c5.35,0.23,10.72,0.38,16.12,0.43c1.21,0.02,2.41,0.02,3.62,0.02h0.01c0.36,0.01,0.71,0.01,1.06,0.01c0.54,0,1.07,0,1.6-0.01
			c0,0,0,0,0.01,0c5-0.01,9.99-0.11,14.95-0.28c5.65-0.2,11.28-0.5,16.88-0.89h0.01c1-0.07,1.98-0.15,2.97-0.22
			c2.02-0.16,4.02-0.32,6.02-0.51c7.17-0.65,14.31-1.46,21.38-2.43c9.02-1.24,17.97-2.73,26.82-4.48
			c60.14-11.86,116.13-35.3,165.53-67.91V503.08l3.23-48.04C524.99,456.21,523.92,457.37,522.84,458.52z M388.53-95.95
			c-0.15,0-0.29,0-0.44,0.01c0.64,0,1.27,0,1.91-0.01H388.53z M381.43-95.96c-0.04,0.01-0.08,0.01-0.12,0.01
			c0.07,0.01,0.14,0.01,0.22,0C381.48-95.96,381.45-95.96,381.43-95.96z M381.08-95.96c-0.08,0.01-0.17,0.01-0.25,0.01h0.41
			C381.19-95.96,381.14-95.96,381.08-95.96z M380.52-95.96h-0.89c0.4,0.01,0.8,0.01,1.19,0.01
			C380.72-95.96,380.62-95.96,380.52-95.96z M353.91-96.25L353.91-96.25"/>
		<circle class="st3" cx="266.67" cy="217.95" r="246.95"/>
		<circle class="st4" cx="266.67" cy="217.95" r="133.3"/>
		<circle class="st4" cx="266.67" cy="217.95" r="133.13"/>
		<circle class="st4" cx="266.67" cy="217.95" r="155.34"/>
		<circle class="st4" cx="266.67" cy="217.95" r="155.34"/>
		<circle class="st4" cx="266.67" cy="217.95" r="155.34"/>
		<circle class="st4" cx="266.67" cy="217.95" r="179.74"/>
		<ellipse class="st4" cx="266.67" cy="217.95" rx="209.32" ry="204.71"/>
		<circle class="st5" cx="266.82" cy="218.09" r="58.54"/>
		<circle class="st6" cx="266.67" cy="217.95" r="76.86"/>
		<circle class="st6" cx="266.67" cy="217.95" r="86.09"/>
		<circle class="st6" cx="266.67" cy="217.95" r="97.47"/>
		<circle class="st6" cx="266.67" cy="217.95" r="113.9"/>
		<path class="st7" d="M526.06,455.04l-3.23,48.04v297.76H-12.28V282.26h535.12v176.26C523.92,457.37,524.99,456.21,526.06,455.04z"
			/>
	</g>
	<g id="date_and_time">
		<text transform="matrix(1 0 0 1 457.5977 728.2057)" class="st0" style="font-family:'MyriadPro-Bold'; font-size:11.4947px;">7:04 PM</text>
		<text transform="matrix(1 0 0 1 413.5879 741.9977)" class="st0" style="font-family:'MyriadPro-Bold'; font-size:11.4947px;">October 07, 2017</text>
		<text transform="matrix(1 0 0 1 419.9102 755.7936)" class="st0" style="font-family:'MyriadPro-Bold'; font-size:11.4947px;">Enjoying taiyaki</text>
		<text transform="matrix(1 0 0 1 384.2275 769.5846)" class="st0" style="font-family:'MyriadPro-Bold'; font-size:11.4947px;">Japantown Peace Plaza</text>
	</g>
	<g id="peace_plaza">
		<g id="circles">
			<circle class="st8" cx="414.68" cy="48.04" r="7.04"/>
			<circle class="st8" cx="414.68" cy="52.62" r="7.04"/>
			<circle class="st8" cx="414.68" cy="55.8" r="7.04"/>
			<circle class="st8" cx="414.68" cy="59.67" r="7.04"/>
			<circle class="st8" cx="414.68" cy="63.53" r="7.04"/>
			<circle class="st8" cx="414.68" cy="68.15" r="7.04"/>
			<circle class="st8" cx="414.68" cy="73.47" r="7.04"/>
			<circle class="st8" cx="414.68" cy="76.04" r="7.04"/>
			<ellipse class="st9" cx="413.13" cy="206.33" rx="58.6" ry="8.31"/>
			<ellipse class="st9" cx="413.27" cy="250.73" rx="59.4" ry="8.09"/>
			<polygon class="st10" points="382.78,235.87 353.47,249.24 470.71,249.24 441.39,235.87 			"/>
			<path class="st10" d="M463.2,203.24c-10.07-3.28-29.25-5.51-51.27-5.51c-19.96,0-37.61,1.83-48.22,4.62l19.38-8.12h58.62
				L463.2,203.24z"/>
			<ellipse class="st9" cx="412.8" cy="168.68" rx="57.45" ry="15.72"/>
			<ellipse class="st9" cx="412.8" cy="133.65" rx="57.45" ry="19.31"/>
			<path class="st10" d="M412.8,152.96c28.8,0,52.64,5.8,56.81,13.35c0.42-0.77,0.65-1.56,0.65-2.36c0-8.68-25.72-15.72-57.45-15.72
				s-57.45,7.04-57.45,15.72c0,0.8,0.22,1.59,0.65,2.36C360.15,158.75,384,152.96,412.8,152.96z"/>
			<ellipse class="st9" cx="415.21" cy="100.32" rx="57.45" ry="20.68"/>
			<path class="st10" d="M415.21,82.27c28.8,0,52.64,5.8,56.81,13.35c0.42-0.77,0.65-1.56,0.65-2.36c0-8.68-25.72-15.72-57.45-15.72
				s-57.45,7.04-57.45,15.72c0,0.8,0.22,1.59,0.65,2.36C362.57,88.07,386.41,82.27,415.21,82.27z"/>
			<path class="st10" d="M412.8,116.32c28.8,0,52.64,5.8,56.81,13.35c0.42-0.77,0.65-1.56,0.65-2.36c0-8.68-25.72-15.72-57.45-15.72
				s-57.45,7.04-57.45,15.72c0,0.8,0.22,1.59,0.65,2.36C360.15,122.12,384,116.32,412.8,116.32z"/>
			<ellipse class="st8" cx="414.68" cy="36.56" rx="2.54" ry="5.03"/>
			<circle class="st8" cx="414.36" cy="28.23" r="1.97"/>
		</g>
		<g id="sticks">
			<rect x="386.34" y="251.43" class="st11" width="4.36" height="31.38"/>
			<rect x="395.49" y="251.43" class="st11" width="4.36" height="31.38"/>
			<rect x="403.51" y="251.43" class="st11" width="4.36" height="31.38"/>
			<rect x="415.41" y="251.43" class="st11" width="4.36" height="31.38"/>
			<rect x="423.64" y="251.43" class="st11" width="4.36" height="31.38"/>
			<rect x="431.25" y="251.43" class="st11" width="4.36" height="31.38"/>
			<polygon class="st11" points="416.95,212.88 415.62,211.25 428.51,198.03 429.84,199.66 			"/>
			<polygon class="st11" points="426.19,214.22 424.78,212.65 437.14,198.81 438.54,200.37 			"/>
			<polygon class="st11" points="433.3,212.24 432.47,210.22 448.33,202 449.16,204.02 			"/>
			<polygon class="st11" points="389.86,212.24 390.69,210.22 374.83,202 374,204.02 			"/>
			<polygon class="st11" points="399.16,211.65 400.15,209.73 385.02,199.94 384.02,201.87 			"/>
			<polygon class="st11" points="406.77,213.32 408.29,211.88 396.98,196.96 395.46,198.4 			"/>
			<rect x="386.89" y="210.16" class="st11" width="4.36" height="25.56"/>
			<rect x="396.04" y="210.16" class="st11" width="4.36" height="25.56"/>
			<rect x="404.06" y="210.16" class="st11" width="4.36" height="25.56"/>
			<rect x="415.96" y="210.16" class="st11" width="4.36" height="25.56"/>
			<rect x="424.2" y="210.16" class="st11" width="4.36" height="25.56"/>
			<rect x="431.81" y="210.16" class="st11" width="4.36" height="25.56"/>
			<polygon class="st11" points="417.29,168.33 415.95,166.68 428.84,153.46 430.18,155.1 			"/>
			<polygon class="st11" points="426.52,169.66 425.12,168.08 437.48,154.24 438.88,155.82 			"/>
			<polygon class="st11" points="433.64,167.68 432.8,165.66 448.66,157.44 449.5,159.46 			"/>
			<polygon class="st11" points="390.19,167.68 391.03,165.66 375.17,157.44 374.34,159.46 			"/>
			<polygon class="st11" points="399.49,167.1 400.49,165.17 385.35,155.38 384.36,157.3 			"/>
			<polygon class="st11" points="407.11,168.76 408.62,167.32 397.31,152.39 395.8,153.84 			"/>
			<rect x="387.23" y="165.6" class="st11" width="4.36" height="28.04"/>
			<rect x="396.38" y="165.6" class="st11" width="4.36" height="28.04"/>
			<rect x="404.4" y="165.6" class="st11" width="4.36" height="28.04"/>
			<rect x="416.3" y="165.6" class="st11" width="4.36" height="28.04"/>
			<rect x="424.54" y="165.6" class="st11" width="4.36" height="28.04"/>
			<rect x="432.14" y="165.6" class="st11" width="4.36" height="28.04"/>
			<polygon class="st11" points="417.29,131.09 415.95,129.57 428.84,117.31 430.18,118.83 			"/>
			<polygon class="st11" points="426.52,132.33 425.12,130.87 437.48,118.03 438.88,119.49 			"/>
			<polygon class="st11" points="433.64,130.5 432.8,128.62 448.66,121 449.5,122.86 			"/>
			<polygon class="st11" points="390.19,130.5 391.03,128.62 375.17,121 374.34,122.86 			"/>
			<polygon class="st11" points="399.49,129.96 400.49,128.16 385.35,119.08 384.36,120.87 			"/>
			<polygon class="st11" points="407.11,131.5 408.62,130.16 397.31,116.32 395.8,117.66 			"/>
			<rect x="387.23" y="129.23" class="st11" width="4.36" height="20.33"/>
			<rect x="396.38" y="128.56" class="st11" width="4.36" height="20.33"/>
			<rect x="404.4" y="128.56" class="st11" width="4.36" height="20.33"/>
			<rect x="416.3" y="128.56" class="st11" width="4.36" height="20.33"/>
			<rect x="424.54" y="128.56" class="st11" width="4.36" height="20.33"/>
			<polygon class="st11" points="419.45,95.9 418.1,94.57 430.99,83.89 432.34,85.22 			"/>
			<polygon class="st11" points="428.68,96.98 427.28,95.71 439.64,84.52 441.04,85.8 			"/>
			<polygon class="st11" points="435.8,95.38 434.96,93.74 450.82,87.11 451.65,88.73 			"/>
			<polygon class="st11" points="392.35,95.38 393.19,93.74 377.33,87.11 376.49,88.73 			"/>
			<rect x="389.39" y="94.36" class="st11" width="4.36" height="18.55"/>
			<rect x="398.54" y="93.7" class="st11" width="4.36" height="18.55"/>
			<rect x="406.56" y="93.7" class="st11" width="4.36" height="18.55"/>
			<rect x="418.46" y="93.7" class="st11" width="4.36" height="18.55"/>
			<rect x="426.7" y="93.7" class="st11" width="4.36" height="18.55"/>
			<rect x="434.3" y="94.36" class="st11" width="4.36" height="18.55"/>
			<polygon class="st11" points="401.65,94.9 402.64,93.35 387.51,85.44 386.52,87 			"/>
			<polygon class="st11" points="409.27,96.25 410.78,95.09 399.47,83.04 397.96,84.2 			"/>
			<rect x="432.14" y="129.23" class="st11" width="4.36" height="20.33"/>
		</g>
		<rect x="256.89" y="282.8" class="st9" width="254.11" height="2.21"/>
		<rect x="265.99" y="291.08" class="st9" width="245.01" height="3.05"/>
		<rect x="277.69" y="300.96" class="st9" width="233.32" height="3.05"/>
		<rect x="292.16" y="309.93" class="st9" width="218.84" height="3.05"/>
	</g>
	<g id="fingers">
		<path class="st12" d="M96.86,743.68c3.56,21.19,9.43,40.72,16.8,57.44c13.2-0.97,26.4-1.1,39.59-0.74
			c34.67-0.68,69.37-0.49,104.04-0.41c13.25-26.16,2.23-77.28-29.44-125.93c-38-58.38-91.31-91.07-119.07-73
			c-16.27,10.59-20.14,36.3-12.9,67.51C92.21,690.29,92.25,716.3,96.86,743.68z"/>
		
			<ellipse transform="matrix(0.2069 -0.9784 0.9784 0.2069 -448.1991 522.9927)" class="st13" cx="98.48" cy="537.94" rx="29.52" ry="8.36"/>
		<path class="st12" d="M119.64,520.55c-0.52-7.74-7.27-13.64-15.01-13.13l-2.33,0.16c-0.09,6.54-1,14.52-2.8,22.99
			c-2.99,14.13-7.63,26-12,31.74l6.53,97.34l30.7-63.4L119.64,520.55z"/>
		<path class="st12" d="M91.19,616.72l23.17-20.95l5.51-50.89c0.56-5.2-5.3-10.48-13.04-11.73l-2.33-0.37
			c-1,4.29-3.01,9.35-5.96,14.56c-2.62,4.63-5.62,8.72-8.61,11.99L91.19,616.72z"/>
		<path class="st12" d="M267.92,617.34l-7.17-8.09c-3.03-3.42-2.71-8.7,0.71-11.73l74.91-66.35c3.42-3.03,8.7-2.71,11.73,0.71
			l7.17,8.09c3.03,3.42,2.71,8.7-0.71,11.73l-74.91,66.35C276.23,621.08,270.95,620.76,267.92,617.34z"/>
		<path class="st12" d="M263.45,711.1l-7.17-8.09c-3.03-3.42-2.71-8.7,0.71-11.73l74.91-66.35c3.42-3.03,8.7-2.71,11.73,0.71
			l7.17,8.09c3.03,3.42,2.71,8.7-0.71,11.73l-74.91,66.35C271.76,714.84,266.48,714.51,263.45,711.1z"/>
		<path class="st12" d="M258.41,675.25l-7.17-8.09c-3.03-3.42-2.71-8.7,0.71-11.73l74.91-66.35c3.42-3.03,8.7-2.71,11.73,0.71
			l7.17,8.09c3.03,3.42,2.71,8.7-0.71,11.73l-74.91,66.35C266.71,678.99,261.43,678.67,258.41,675.25z"/>
	</g>
	<g id="ice_cream">
		<path class="st14" d="M214.5,277.32c-1.04-2.35-2.65-4.55-4.6-6.2c-3.93-6.58-13.28-3.55-16.36,2.66c-1.47-0.89-3.3-1.28-5.01-0.9
			c-13.55,2.94-21.57,13.25-27.16,24.85c-2.16-2.02-5.51-2.53-7.83,0.51c-4.98,6.52-9.99,13.02-15.24,19.32
			c-0.85,0.19-1.71,0.41-2.55,0.73c-7,2.62-12.36,9.15-10.89,16.58c-4.98,4.42-10.89,5.7-17.25,7.58
			c-5.86,1.73-11.12,4.4-15.69,8.48c-7.06,6.3-15.94,19.96-8.3,28.99c6.59,7.8,12.72,2.1,17.03-5.27c4.39-1.02,8.14-3.27,10.92-6.37
			c7.59-1.77,11.98-8.64,18.65-12.2c5.9-3.15,12.37-4.69,18.42-7.44c5.99-0.23,11.87-1.43,16.77-5.18
			c4.46-3.41,7.37-8.09,8.08-13.25c0.96-0.48,1.83-1.24,2.5-2.32c2.36-3.84,3.91-7.92,4.73-12.18c1.8-2.84,4.08-5.33,6.77-7.39
			c5.11,2.5,9.96-0.32,13.41-4.6c3.89,1.09,8.17,0.38,11.51-2.66C219.16,294.89,217.86,284.93,214.5,277.32z"/>
		<path class="st15" d="M235.22,360.15c0.95-13.2-11.35-24.81-23.48-26.98c-5.15-0.92-7.91,4.32-6.64,8.07
			c-8.44,13.88-21.75,24.19-37.37,28.76c-8.39,2.45-17.09,3.43-25.12,7.07c-7.09,3.21-13.49,7.57-19.03,13.05
			c-9.3,9.2-21.74,26.69-10.18,38.54c1.86,1.9,4.25,3.35,6.03,5.32c-0.87,3.39,2.33,7.58,6.19,7.69c0.21,0.01,0.42,0.01,0.63,0.01
			c0.41,0.21,0.85,0.39,1.34,0.54c3.46,1.07,7.29-0.07,10.28-1.92c3.4-0.97,6.48-2.5,8.86-4.74c1.89-0.52,3.71-1.55,5.26-3.09
			c2.54-2.5,1.77-6.01-0.43-8.11c0.02-0.4,0.02-0.8,0.02-1.23c-0.15-8.87,1.41-15.82,7.17-22.87c5.65-6.9,13.04-11.97,20.3-17
			c0.15-0.11,0.29-0.22,0.42-0.33c2.14-0.21,4.29-0.42,6.39-0.87c6.54-1.39,12.47-4.46,18.43-7.37c5.68-2.78,11.62-5.65,18.07-5.72
			C228.74,368.88,234.68,367.74,235.22,360.15z"/>
		<path class="st14" d="M252.09,376.87c-5.13-12.74-25.92-16.37-46.46-8.11c-6.3,2.54-11.85,5.91-16.36,9.71
			c-7.22-0.27-15.36,1.12-23.47,4.39c-20.54,8.26-33.03,25.28-27.91,38.02c5.13,12.74,25.92,16.37,46.46,8.11
			c6.3-2.54,11.85-5.91,16.36-9.71c7.22,0.27,15.36-1.12,23.47-4.39C244.72,406.63,257.22,389.61,252.09,376.87z"/>
		<path class="st16" d="M219.39,305.57c-3.23-6.35-9.35-8.37-15.5-7.61c-4.65-2.02-9.73-1.64-13.88,0.98
			c-4.99,0.06-9.94,2.6-13.26,6.74c-5.52,6.87-5.8,15.78-1.68,23.23c-2.51,2.81-5.42,5.26-8.56,7.42
			c-5.72,3.93-11.94,6.94-18.31,9.65c-2.08-0.23-3.74,0.63-4.82,1.99c-14.11,5.67-28.61,10.58-40.06,21.13
			c-11.74,10.79-18.94,26.28-19.68,42.22c-0.36,7.93,1.45,15.15,2.6,22.89c0.48,3.25,2.14,5.87,4.4,7.36
			c0.09,0.16,0.2,0.31,0.31,0.45c0.11,0.36,0.25,0.74,0.46,1.12c4.5,8.39,13.76,12.1,22.97,9.41c9.53-2.78,14.62-12.12,13.24-21.74
			c-0.81-5.66-4.21-11.67-9.04-15.4c2.76-12.28,7.34-23.41,18.64-30.95c11.47-7.65,25.43-10.88,38.2-15.68
			c13.56-5.08,27.08-12.35,36.06-24.05C219.21,334.63,225.63,317.87,219.39,305.57z"/>
		<path class="st15" d="M202.53,254.98c-5.79-20.75-28.96-32.13-48.68-35.9c-10.16-1.94-21.9,2.43-22.79,14.12
			c-1.05,13.69,14.6,14.7,23.59,9.85c0.57-0.31,1.05-0.67,1.48-1.06c1.47,0.32,2.94,0.62,4.41,0.94c0.36,0.87,1.01,1.69,2.01,2.39
			c0.63,0.44,1.18,0.9,1.67,1.39c-1.73,10.61-6.67,20.34-14.22,28.24c-0.77,0.17-1.56,0.51-2.33,1.07
			c-8.87,6.73-20.64,6.35-31.1,8.61c-10.62,2.29-19.89,7.15-26.96,15.53c-6.96,8.24-11.36,19.77-10.44,30.66
			c-1.48,2.32-1.58,5.55,1.13,7.8c0.63,0.52,1.27,1.05,1.92,1.58c2.5,3.91,6.35,6.71,10.88,7.73c5.18,2.99,10.79,5.06,17.02,5.13
			c10.35,0.11,18.5-5.56,22.89-14.79c4.96-10.4,5.08-21.91,13.2-30.83c7.68-8.44,17.67-10.48,28.31-12.72
			c8.98-1.89,18.24-4.85,23.96-12.55C204.24,274.39,205.06,264.08,202.53,254.98z"/>
	</g>
	<g id="spoon">
		<path class="st17" d="M252.43,289.87l-23.74,75.64l23.75,8.83c0.08-0.17,0.17-0.35,0.22-0.54l23.78-75.79
			c2.57-2.48,4.68-5.84,5.92-9.8c3.26-10.39-0.62-21.04-8.68-23.77c-8.05-2.74-17.23,3.48-20.49,13.88
			C251.96,282.28,251.76,286.29,252.43,289.87z"/>
	</g>
	<g id="pocky">
		<path class="st11" d="M128.49,354.67l-3.55,2.03c-2.34,1.34-5.35,0.52-6.69-1.82L15.47,175.45c-1.34-2.34-0.52-5.35,1.82-6.69
			l3.55-2.03c2.34-1.34,5.35-0.52,6.69,1.82l102.78,179.44C131.65,350.32,130.83,353.33,128.49,354.67z"/>
		<path class="st15" d="M93.07,292.84l-3.55,2.03c-2.34,1.34-5.35,0.52-6.69-1.82l-67.37-117.6c-1.34-2.34-0.52-5.35,1.82-6.69
			l3.55-2.03c2.34-1.34,5.35-0.52,6.69,1.82l67.37,117.6C96.23,288.49,95.41,291.5,93.07,292.84z"/>
	</g>
	<g id="mochi">
		<path class="st11" d="M121.77,408l-1.07,0.75c-0.71,0.5-1.69,0.33-2.2-0.37L10.12,255.16c-0.5-0.71-0.33-1.69,0.37-2.2l1.07-0.75
			c0.71-0.5,1.69-0.33,2.2,0.37L122.15,405.8C122.64,406.51,122.48,407.5,121.77,408z"/>
		<path class="st18" d="M105.79,371.88l-13.83,9.78c-4.47,3.16-10.72,2.09-13.88-2.38l-9.78-13.83c-3.16-4.47-2.09-10.72,2.38-13.88
			l13.83-9.78c4.47-3.16,10.72-2.09,13.88,2.38l9.78,13.83C111.33,362.48,110.26,368.72,105.79,371.88z"/>
		<path class="st19" d="M77.69,332.16l-13.83,9.78c-4.47,3.16-10.72,2.09-13.88-2.38l-9.78-13.83c-3.16-4.47-2.09-10.72,2.38-13.88
			l13.83-9.78c4.47-3.16,10.72-2.09,13.88,2.38l9.78,13.83C83.23,322.76,82.16,328.99,77.69,332.16z"/>
		<path class="st20" d="M49.59,292.44l-13.83,9.78c-4.47,3.16-10.72,2.09-13.88-2.38l-9.78-13.83c-3.16-4.47-2.09-10.72,2.38-13.88
			l13.83-9.78c4.47-3.16,10.72-2.09,13.88,2.38l9.78,13.83C55.13,283.04,54.06,289.28,49.59,292.44z"/>
	</g>
	<g id="fish">
		<g id="tail">
		</g>
		<g id="Layer_24">
		</g>
		<g id="scales">
		</g>
		<g id="fin_left">
		</g>
		<g id="fin_right">
		</g>
		<g id="scales_top">
		</g>
		<g id="head">
			<path class="st21" d="M349.8,670.6c-10.96-4.96-23.19-5.7-34.28-10.2c-13.15-5.35-23.56-14.35-32.19-25.07
				c-4.25-6.1-8.43-12.26-12.54-18.45c-4.45-7.61-8.42-15.49-12.14-23.17c-2.48-5.11-8.64-2.67-10.14,1.73
				c-0.08,0.05-0.16,0.09-0.24,0.14c-4.57,3-2.46,8.97,1.45,10.48c3.78,5.93,7.62,11.83,11.51,17.68
				c3.77,6.4,7.88,12.58,12.49,18.36c8.04,11.56,16.31,22.96,24.82,34.19c8.75,11.54,17.67,22.98,26.98,34.07
				c7.17,8.55,15.21,17.83,25.85,22.05c9.79,3.88,21.18,1.92,25.97-8.37c4.43-9.51,1.26-21.27-3.26-30.11
				C368.88,683.78,360.21,675.32,349.8,670.6z"/>
			<path class="st21" d="M332.4,680.46c-10.19-6.39-22.21-8.78-32.59-14.74c-12.32-7.08-21.4-17.4-28.51-29.2
				c-3.38-6.63-6.69-13.28-9.94-19.97c-3.38-8.15-6.25-16.5-8.9-24.6c-1.77-5.4-8.2-3.81-10.28,0.34c-0.08,0.03-0.17,0.07-0.26,0.11
				c-4.94,2.36-3.65,8.56,0.02,10.58c2.94,6.39,5.96,12.75,9.02,19.08c2.87,6.85,6.11,13.54,9.9,19.89
				c6.4,12.54,13.06,24.96,19.97,37.22c7.11,12.62,14.41,25.16,22.13,37.41c5.96,9.44,12.67,19.72,22.64,25.34
				c9.17,5.17,20.73,4.76,26.86-4.78c5.67-8.83,4.12-20.91,0.84-30.27C349.52,696.08,342.08,686.53,332.4,680.46z"/>
			<path class="st21" d="M313.15,690.51c-9.45-7.44-21.15-11.09-30.83-18.12c-11.49-8.35-19.43-19.58-25.24-32.07
				c-2.65-6.94-5.24-13.92-7.75-20.92c-2.5-8.46-4.46-17.06-6.24-25.41c-1.18-5.56-7.76-4.66-10.26-0.76
				c-0.09,0.02-0.17,0.05-0.27,0.08c-5.16,1.82-4.54,8.12-1.1,10.52c2.25,6.67,4.56,13.31,6.93,19.93
				c2.13,7.12,4.64,14.11,7.72,20.83c5.03,13.15,10.33,26.2,15.9,39.14c5.72,13.3,11.65,26.54,18.02,39.55
				c4.91,10.02,10.49,20.96,19.81,27.6c8.57,6.11,20.11,6.93,27.21-1.89c6.59-8.18,6.33-20.35,4.06-30.02
				C328.52,707.88,322.13,697.59,313.15,690.51z"/>
			<path class="st22" d="M290.99,704.05c-7.7-9.25-18.38-15.24-26.39-24.14c-9.51-10.55-14.93-23.19-18.02-36.61
				c-1.15-7.35-2.23-14.71-3.23-22.07c-0.69-8.79-0.81-17.62-0.82-26.14c0-5.68-6.61-6.17-9.88-2.88c-0.09,0.01-0.18,0.01-0.27,0.02
				c-5.42,0.71-6.13,7-3.27,10.06c0.81,6.99,1.69,13.97,2.65,20.93c0.61,7.41,1.6,14.76,3.23,21.98
				c2.19,13.91,4.65,27.78,7.42,41.59c2.84,14.2,5.87,28.38,9.41,42.43c2.72,10.82,5.91,22.68,13.64,31.12
				c7.11,7.76,18.22,10.97,27.01,3.81c8.14-6.63,10.42-18.6,10.2-28.52C302.41,724.23,298.3,712.83,290.99,704.05z"/>
			<path class="st21" d="M269.19,711.94c-6.29-10.26-16-17.73-22.64-27.69c-7.89-11.81-11.44-25.1-12.57-38.82
				c-0.08-7.44-0.09-14.87-0.02-22.31c0.59-8.8,1.73-17.55,2.95-25.99c0.82-5.62-5.66-7.06-9.36-4.27
				c-0.09-0.01-0.18-0.02-0.27-0.02c-5.47-0.07-7.08,6.05-4.68,9.48c-0.2,7.03-0.33,14.07-0.4,21.1
				c-0.47,7.42-0.54,14.84,0.03,22.21c0.17,14.08,0.61,28.16,1.35,42.23c0.76,14.46,1.73,28.94,3.2,43.35
				c1.14,11.11,2.58,23.3,9.02,32.76c5.92,8.7,16.46,13.48,26.19,7.66c9.01-5.39,12.99-16.9,14.2-26.75
				C277.58,733.55,275.16,721.69,269.19,711.94z"/>
			<path class="st21" d="M247.04,726.57c-4.19-11.28-12.28-20.49-16.87-31.53c-5.46-13.11-6.37-26.83-4.84-40.52
				c1.35-7.32,2.78-14.61,4.29-21.9c2.27-8.53,5.08-16.89,7.92-24.93c1.89-5.36-4.19-8.02-8.36-6c-0.09-0.02-0.17-0.05-0.27-0.07
				c-5.35-1.13-8.1,4.57-6.42,8.4c-1.55,6.86-3.04,13.74-4.46,20.63c-1.89,7.18-3.39,14.46-4.26,21.81
				c-2.55,13.85-4.84,27.74-6.83,41.69c-2.05,14.33-3.89,28.72-5.23,43.15c-1.03,11.11-1.97,23.36,2.52,33.88
				c4.13,9.68,13.54,16.4,24.21,12.57c9.88-3.55,16.01-14.08,19.1-23.51C251.11,749.39,251.02,737.28,247.04,726.57z"/>
			<circle class="st21" cx="260.52" cy="646.7" r="23.22"/>
			<circle class="st21" cx="281.35" cy="639.67" r="23.22"/>
			<circle class="st22" cx="230.41" cy="643.71" r="24.65"/>
			<circle class="st21" cx="251.39" cy="630.87" r="23.22"/>
			<circle class="st21" cx="268.91" cy="619.37" r="23.22"/>
			<circle class="st21" cx="286.62" cy="613.39" r="23.22"/>
			<circle class="st21" cx="209.97" cy="626.56" r="23.22"/>
			<circle class="st21" cx="232.94" cy="622.76" r="24.65"/>
			<circle class="st21" cx="247.54" cy="608.29" r="23.22"/>
			<circle class="st21" cx="268.37" cy="601.26" r="23.22"/>
			<circle class="st21" cx="287.82" cy="589.73" r="23.22"/>
			<path class="st22" d="M212.78,698.75c0.38-4.69,0.72-9.37,1.22-14.03l-3.75-85.79l-1.22,0.05c-16.06,0.7-28.91,7.61-28.57,15.36
				l3.67,83.9c0.21,4.77,5.37,8.78,13.04,11.01c5.03-1.04,9.56-3.34,13.41-7.73C211.35,700.64,212.08,699.71,212.78,698.75z"/>
			<path class="st22" d="M171.43,666.6c3.03-6.23,8.18-11.06,11.43-17.14c3.86-7.21,5.15-15.02,5.03-22.95
				c-0.36-4.26-0.78-8.53-1.24-12.79c-0.83-5.01-1.97-9.96-3.14-14.73c-0.78-3.18,2.84-4.36,5.13-2.97c0.05-0.01,0.1-0.02,0.16-0.02
				c3.13-0.35,4.39,3.07,3.21,5.18c0.51,4.02,0.98,8.05,1.41,12.07c0.69,4.22,1.14,8.48,1.23,12.73c0.69,8.08,1.23,16.17,1.58,24.28
				c0.37,8.33,0.63,16.68,0.59,25.02c-0.03,6.43-0.17,13.49-3.33,19.28c-2.9,5.32-8.68,8.64-14.58,5.85
				c-5.47-2.59-8.39-8.96-9.64-14.54C167.82,679.45,168.55,672.52,171.43,666.6z"/>
			<path class="st22" d="M155.51,645.42c4.94-7.1,12.24-12.07,17.43-18.94c6.16-8.15,9.27-17.55,10.67-27.36
				c0.37-5.34,0.7-10.68,0.95-16.02c-0.05-6.35-0.51-12.68-1.03-18.79c-0.35-4.07,4.36-4.84,6.9-2.67c0.07,0,0.13,0,0.2,0
				c3.93,0.17,4.83,4.64,2.96,7.01c-0.15,5.06-0.36,10.12-0.61,15.18c0.02,5.35-0.24,10.68-0.96,15.96
				c-0.71,10.11-1.63,20.2-2.75,30.27c-1.15,10.36-2.46,20.72-4.13,31c-1.29,7.93-2.84,16.63-7.85,23.16
				c-4.62,6.01-12.39,8.98-19.13,4.4c-6.25-4.26-8.62-12.69-9.07-19.82C148.56,660.59,150.8,652.17,155.51,645.42z"/>
			<path class="st22" d="M137.13,649.23c3.36-6.15,9.31-11.27,12.96-17.32c4.31-7.17,5.54-14.59,5.08-21.95
				c-0.61-3.92-1.28-7.83-1.99-11.74c-1.19-4.55-2.75-9.02-4.35-13.3c-1.06-2.85,3.23-4.4,6-3.38c0.07-0.02,0.12-0.03,0.19-0.04
				c3.72-0.71,5.37,2.31,4.04,4.42c0.77,3.67,1.49,7.36,2.16,11.05c0.99,3.84,1.7,7.74,1.97,11.69c1.15,7.42,2.12,14.88,2.87,22.37
				c0.78,7.7,1.43,15.43,1.71,23.18c0.22,5.98,0.33,12.57-3.2,18.32c-3.25,5.3-10.01,9.09-17.17,7.22
				c-6.63-1.73-10.38-7.31-12.09-12.33C133.36,661.61,133.94,655.08,137.13,649.23z"/>
			<path class="st23" d="M125.71,647.6c-0.23-4.9-0.41-9.8-0.76-14.7l7.45-87.86l1.31,0.27c17.31,3.57,30.93,12.98,30.26,20.92
				l-7.28,85.93c-0.41,4.89-6.15,8.11-14.52,9.04c-5.4-1.97-10.2-5.14-14.17-10.36C127.18,649.79,126.43,648.72,125.71,647.6z"/>
			<g>
				<path class="st24" d="M314.33,471.21l-44.15-41.89c-2.7-2.55-6.99-2.45-9.56,0.25l-3.54,3.73c-2.55,2.7-2.45,6.99,0.25,9.56
					l61.9,58.72c1.5,1.43,3.51,2.02,5.43,1.8L314.33,471.21z"/>
				<path class="st24" d="M322.65,499.34l-38.75-46.93c-2.36-2.87-6.65-3.28-9.51-0.9l-3.96,3.28c-2.87,2.36-3.28,6.65-0.9,9.51
					l54.33,65.79c1.32,1.6,3.23,2.43,5.18,2.45L322.65,499.34z"/>
				<path class="st24" d="M327.47,529.99l-32.18-51.66c-1.97-3.15-6.15-4.13-9.31-2.16l-4.36,2.72c-3.15,1.97-4.13,6.15-2.16,9.31
					l45.11,72.43c1.09,1.76,2.89,2.84,4.8,3.11L327.47,529.99z"/>
				<path class="st24" d="M327.65,563.93l-21.4-56.97c-1.31-3.48-5.23-5.26-8.7-3.95l-4.81,1.81c-3.48,1.31-5.26,5.23-3.95,8.7
					l30,79.87c0.73,1.94,2.27,3.35,4.1,3.99L327.65,563.93z"/>
				<path class="st24" d="M322.42,596.15l-10.49-59.95c-0.64-3.66-4.16-6.13-7.82-5.49l-5.07,0.89c-3.66,0.64-6.13,4.16-5.49,7.82
					l14.71,84.05c0.36,2.04,1.61,3.72,3.28,4.69L322.42,596.15z"/>
			</g>
			<circle class="st22" cx="180.44" cy="621.39" r="24.65"/>
			<circle class="st21" cx="204.14" cy="609.3" r="23.22"/>
			<circle class="st21" cx="223.71" cy="599.59" r="23.22"/>
			<circle class="st21" cx="244.31" cy="591.39" r="23.22"/>
			<circle class="st21" cx="256.41" cy="580.79" r="23.22"/>
			<circle class="st21" cx="280.89" cy="563.91" r="22.64"/>
			<circle class="st21" cx="294.15" cy="548.07" r="21.29"/>
			<circle class="st21" cx="170.47" cy="606.65" r="24.65"/>
			<circle class="st22" cx="189.69" cy="600.16" r="24.65"/>
			<circle class="st21" cx="212.29" cy="587.63" r="23.22"/>
			<circle class="st21" cx="242.75" cy="570.74" r="22.64"/>
			<circle class="st21" cx="249.91" cy="561.58" r="23.22"/>
			<circle class="st21" cx="269.08" cy="545.81" r="23.22"/>
			<circle class="st21" cx="274.65" cy="517.01" r="23.22"/>
			<circle class="st21" cx="178.63" cy="580.08" r="23.22"/>
			<circle class="st21" cx="209.2" cy="565.43" r="22.64"/>
			<circle class="st21" cx="221.06" cy="550.25" r="23.22"/>
			<circle class="st21" cx="234.92" cy="532.84" r="23.22"/>
			<circle class="st21" cx="264.42" cy="490.88" r="23.22"/>
			<circle class="st21" cx="189.52" cy="548.18" r="23.22"/>
			<g>
				<g>
					<path class="st25" d="M183.02,550.79l-62.23-28.3l53.3,62.22c5.96,9.46,15.24,14.31,22.18,11.01c7.91-3.77,9.78-16.7,4.18-28.9
						C196.38,557.99,189.5,552,183.02,550.79z"/>
				</g>
				<path class="st25" d="M173.36,564.34l-53.27-43.5l36.2,73.94c3.43,10.69,11.21,17.78,18.75,16.39
					c8.6-1.58,13.63-13.59,11.22-26.82C184.52,574.76,179.34,567.19,173.36,564.34z"/>
				<path class="st25" d="M125.89,593.37l-3.72-69.45l37.95,73.01c6.54,9.06,7.66,19.63,2.16,25.08c-6.27,6.2-18.78,3.38-27.94-6.31
					C127.71,608.68,124.68,599.99,125.89,593.37z"/>
			</g>
			<path class="st21" d="M103.45,441.36c-4.8,1.55-7.95,6.37-7.85,11.98c0.19,10.03,1.84,20.27,5.11,30.42
				c16.54,51.38,68.1,80.75,115.17,65.59c47.07-15.16,71.82-69.1,55.28-120.48c-3.27-10.14-7.9-19.43-13.59-27.69
				c-3.19-4.61-8.55-6.69-13.35-5.15L103.45,441.36z"/>
			<path class="st26" d="M234.34,426.73c-1.09-3.38-3.41-6.01-6.34-7.56c0-0.01-0.01-0.01-0.01-0.01c-2.26-1.19-4.87-1.75-7.52-1.51
				c-0.98,0.08-1.97,0.28-2.94,0.6c-7.05,2.26-10.96,9.74-8.73,16.68c2.23,6.94,9.76,10.74,16.81,8.48
				C232.66,441.14,236.57,433.67,234.34,426.73z M225.02,441.56c-6.02,1.93-12.45-1.3-14.35-7.23c-1.91-5.93,1.43-12.31,7.45-14.24
				c6.02-1.93,12.45,1.3,14.35,7.23C234.38,433.25,231.04,439.63,225.02,441.56z"/>
			<path class="st27" d="M137.21,468.08c-0.51,6.49,0.64,13.38,3.73,19.99c8.97,19.17,30.66,28.72,48.46,21.35
				c0.71-0.3,1.41-0.62,2.09-0.96c0.68-1.41,1.25-2.89,1.71-4.42c-0.88,0.62-1.8,1.2-2.77,1.72c-15.2,8.11-35.68-0.58-45.73-19.42
				c-3.79-7.11-5.56-14.65-5.47-21.71C138.46,465.72,137.81,466.87,137.21,468.08z"/>
			<path class="st28" d="M148.16,468.19c-0.38,4.79,0.47,9.88,2.75,14.76c6.63,14.16,22.65,21.22,35.8,15.78
				c0.53-0.22,1.04-0.46,1.54-0.71c0.5-1.04,0.92-2.13,1.26-3.27c-0.65,0.46-1.34,0.89-2.05,1.27c-11.23,6-26.36-0.42-33.78-14.34
				c-2.8-5.25-4.11-10.82-4.04-16.04C149.09,466.45,148.6,467.3,148.16,468.19z"/>
			<path class="st29" d="M243.04,425.55c3.92,7.19,1.16,17.22-6.83,23.4s-18.39,6.33-24.36,0.73l-2.73,2.11
				c6.95,6.83,19.35,6.73,28.82-0.6c9.48-7.33,12.68-19.3,7.82-27.75L243.04,425.55z"/>
			<path class="st17" d="M92.66,591.15c-0.76,0.14-1.53,0.26-2.27,0.35c0.04,0.55,0.07,1.09,0.07,1.64c0.05-0.01,0.1-0.02,0.15-0.02
				c6.92-1.3,12.57-4.18,15.05-7.31C102.61,588.17,98,590.15,92.66,591.15z"/>
			<path class="st17" d="M97.29,594.63c-2.37,0.15-4.66,0.09-6.83-0.15c-0.02,0.78-0.09,1.56-0.17,2.33
				c1.43,0.06,2.89,0.05,4.4-0.05c8.05-0.51,14.87-3.21,18.1-6.73C109.02,592.5,103.51,594.23,97.29,594.63z"/>
			<path class="st17" d="M90.35,579.17c-0.39,0.14-0.77,0.26-1.15,0.36c0.04,0.33,0.04,0.68,0.01,1.04
				c-0.01,0.06-0.01,0.12-0.01,0.17c0.06-0.02,0.12-0.03,0.17-0.06c4.04-1.44,7.11-3.89,8.21-6.25
				C96.03,576.31,93.48,578.05,90.35,579.17z"/>
		</g>
		<g id="fingers_top">
			<path class="st30" d="M306.69,554.71l-0.82-2.71c-2.4-7.88,2.06-16.22,9.94-18.6l21.09-6.41c7.88-2.4,16.22,2.06,18.6,9.94
				l0.82,2.71c2.4,7.88-2.06,16.22-9.94,18.6l-21.09,6.41C317.43,567.03,309.09,562.59,306.69,554.71z"/>
			<path class="st30" d="M278.3,645.7l-0.35-2.38c-1-6.89,3.82-13.35,10.71-14.35l49.6-7.22c6.89-1,13.35,3.82,14.35,10.71
				l0.35,2.38c1,6.89-3.82,13.35-10.71,14.35l-49.6,7.22C285.75,657.42,279.29,652.6,278.3,645.7z"/>
			<path class="st30" d="M298.82,609.49l-1.52-5.01c-2.15-7.06,1.87-14.59,8.94-16.74l23.06-7c7.06-2.15,14.59,1.87,16.74,8.94
				l1.52,5.01c2.15,7.06-1.87,14.59-8.94,16.74l-23.06,7C308.49,620.57,300.96,616.56,298.82,609.49z"/>
			
				<ellipse transform="matrix(0.9568 -0.2907 0.2907 0.9568 -160.578 116.7268)" class="st13" cx="312.57" cy="598.81" rx="16.53" ry="10.62"/>
			
				<ellipse transform="matrix(0.9568 -0.2907 0.2907 0.9568 -145.2417 117.3764)" class="st13" cx="322.43" cy="547.52" rx="16.53" ry="10.62"/>
			
				<ellipse transform="matrix(0.9823 -0.1872 0.1872 0.9823 -114.9922 66.5042)" class="st13" cx="294.61" cy="642.08" rx="16.53" ry="10.62"/>
			<path class="st12" d="M132.07,566.78c-0.31-10.16-1.02-20.69-2.82-30.67c-1-5.55-2.78-10.54-5.67-14.62
				c-1.13-2.43-2.6-4.69-4.5-6.67c-1.66-2.52-4.05-4.44-6.97-5.09c-1.83-0.41-3.56-0.49-5.28,0.3c-0.93,0.36-1.77,0.91-2.44,1.64
				c-2.6,2.83-2.98,6.49-1.5,9.74c0.12,2.55,1.48,4.94,3.46,6.72c0.35,0.32,0.66,0.7,0.92,1.12c0.09,0.18,0.19,0.35,0.29,0.51
				c0.71,1.38,1.09,3.14,1.28,5.03c-0.04-0.01-0.08-0.02-0.12-0.02c0,0.02,0.01,0.05,0.02,0.07c0.14,1.03,0.19,2.01,0.16,3.04
				c-0.03,0.84-0.34,1.58-0.81,2.21c1.04,4.16,1.08,8.34,0.93,12.66c0.28,7.12,0.94,14.19,2.26,21.23c1.48,7.9-0.22,13.63-3.19,20.9
				c-2.99,7.32-5.97,14.76-5.52,22.91c0.31,5.72,5.71,11.01,11.1,7.51c8.51-5.56,12.76-16.19,15.31-26.16
				C131.64,588.61,132.4,577.62,132.07,566.78z"/>
		</g>
	</g>
	<g id="camera_line_marks">
		<polygon class="st0" points="505.66,-78.93 505.66,-80.27 435.99,-80.27 435.99,-75.71 501.7,-75.71 501.7,-32.6 506.26,-32.6 
			506.26,-78.93 		"/>
		<polygon class="st0" points="2.99,-78.93 2.99,-80.27 72.66,-80.27 72.66,-75.71 6.95,-75.71 6.95,-32.6 2.39,-32.6 2.39,-78.93 
					"/>
		<polygon class="st0" points="508.98,781.37 508.98,782.71 439.3,782.71 439.3,778.16 505.02,778.16 505.02,735.03 509.57,735.03 
			509.57,781.37 		"/>
		<polygon class="st0" points="6.31,781.37 6.31,782.71 75.98,782.71 75.98,778.16 10.26,778.16 10.26,735.03 5.71,735.03 
			5.71,781.37 		"/>
	</g>
</g>
</svg>
