<?xml version="1.0" encoding="utf-8"?>
<!-- Generator: Adobe Illustrator 23.0.2, SVG Export Plug-In . SVG Version: 6.00 Build 0)  -->
<svg version="1.1" id="Layer_1" xmlns="http://www.w3.org/2000/svg" xmlns:xlink="http://www.w3.org/1999/xlink" x="0px" y="0px"
	 viewBox="0 0 500 500" style="enable-background:new 0 0 500 500;" xml:space="preserve">
<style type="text/css">
	.st0{fill:#E1EAE8;}
	.st1{fill:#8BA9C9;}
	.st2{fill:#E4F0F4;}
	.st3{fill:#FFFFFF;}
	.st4{fill:#CFE4ED;}
	.st5{fill:#DCEBF3;}
	.st6{fill:#CCE2EA;}
	.st7{fill:#BBDBF3;}
	.st8{fill:#78B9D8;}
	.st9{fill:#6F8392;}
	.st10{fill:#A1CCDE;}
	.st11{clip-path:url(#SVGID_2_);fill:#FFFFFF;}
	.st12{clip-path:url(#SVGID_4_);fill:#FFFFFF;}
	.st13{clip-path:url(#SVGID_6_);fill:#FFFFFF;}
	.st14{fill:#CD7C76;}
	.st15{clip-path:url(#SVGID_8_);fill:#908241;}
	.st16{clip-path:url(#SVGID_10_);fill:#1F1F1F;}
	.st17{clip-path:url(#SVGID_12_);fill:#1F1F1F;}
	.st18{clip-path:url(#SVGID_14_);fill:#FFFFFF;}
	.st19{clip-path:url(#SVGID_16_);fill:#1F1F1F;}
	.st20{clip-path:url(#SVGID_18_);fill:#1F1F1F;}
	.st21{clip-path:url(#SVGID_20_);fill:#1F1F1F;}
	.st22{clip-path:url(#SVGID_22_);fill:#1F1F1F;}
	.st23{clip-path:url(#SVGID_24_);fill:#1F1F1F;}
	.st24{clip-path:url(#SVGID_26_);fill:#FFFFFF;}
	.st25{fill:#D59380;}
	.st26{fill:#CF835F;}
	.st27{fill:#917032;}
	.st28{fill:#7B5F2D;}
	.st29{clip-path:url(#SVGID_28_);fill:#AF994D;}
	.st30{clip-path:url(#SVGID_30_);fill:#908241;}
	.st31{clip-path:url(#SVGID_32_);fill:#AF994D;}
	.st32{clip-path:url(#SVGID_34_);fill:#908241;}
	.st33{clip-path:url(#SVGID_36_);fill:#AF994D;}
	.st34{clip-path:url(#SVGID_38_);fill:#908241;}
	.st35{fill:#D5D3E5;}
	.st36{fill:#FFFEF7;}
	.st37{fill:#676868;}
	.st38{fill:#9B456F;}
	.st39{fill:#C45786;}
	.st40{fill:#0F0F0F;}
	.st41{fill:#DBE8D4;}
	.st42{fill:#E7C4A9;}
	.st43{fill:#D2AF97;}
	.st44{fill:#D4E7ED;}
	.st45{clip-path:url(#SVGID_40_);fill:#FFFFFF;}
	.st46{clip-path:url(#SVGID_42_);fill:#FFFFFF;}
	.st47{clip-path:url(#SVGID_44_);fill:#FFFFFF;}
	.st48{clip-path:url(#SVGID_46_);fill:#908241;}
	.st49{clip-path:url(#SVGID_48_);fill:#1F1F1F;}
	.st50{clip-path:url(#SVGID_50_);fill:#1F1F1F;}
	.st51{clip-path:url(#SVGID_52_);fill:#FFFFFF;}
	.st52{clip-path:url(#SVGID_54_);fill:#1F1F1F;}
	.st53{clip-path:url(#SVGID_56_);fill:#1F1F1F;}
	.st54{clip-path:url(#SVGID_58_);fill:#1F1F1F;}
	.st55{clip-path:url(#SVGID_60_);fill:#1F1F1F;}
	.st56{clip-path:url(#SVGID_62_);fill:#1F1F1F;}
	.st57{clip-path:url(#SVGID_64_);fill:#FFFFFF;}
	.st58{clip-path:url(#SVGID_66_);fill:#AF994D;}
	.st59{clip-path:url(#SVGID_68_);fill:#908241;}
	.st60{clip-path:url(#SVGID_70_);fill:#AF994D;}
	.st61{clip-path:url(#SVGID_72_);fill:#908241;}
	.st62{clip-path:url(#SVGID_74_);fill:#AF994D;}
	.st63{clip-path:url(#SVGID_76_);fill:#908241;}
	.st64{fill:#C8D9EB;}
	.st65{clip-path:url(#SVGID_78_);fill:#6F8392;}
	.st66{clip-path:url(#SVGID_80_);fill:#6F8392;}
	.st67{clip-path:url(#SVGID_82_);fill:#6F8392;}
	.st68{clip-path:url(#SVGID_84_);fill:#93AFD6;}
	.st69{clip-path:url(#SVGID_86_);fill:#93AFD6;}
	.st70{clip-path:url(#SVGID_88_);fill:#93AFD6;}
	.st71{clip-path:url(#SVGID_90_);fill:#C8D9EB;}
	.st72{clip-path:url(#SVGID_92_);fill:#C8D9EB;}
	.st73{clip-path:url(#SVGID_94_);fill:#C8D9EB;}
	.st74{display:none;}
	.st75{display:inline;fill:none;stroke:#DBDDDE;stroke-width:0.9971;}
	.st76{fill:#D2AAA6;}
	.st77{fill:#EBD0CC;}
	.st78{stroke:#000000;stroke-width:0.25;stroke-miterlimit:10;}
</style>
<g>
	<g>
		<rect x="11.1" y="39.9" class="st0" width="298.6" height="420.2"/>
		<path class="st1" d="M233.6,95c0,5.6-20.2,10.1-45.2,10.1s-45.2-4.5-45.2-10.1c0-5.6,20.2-10.1,45.2-10.1S233.6,89.4,233.6,95"/>
		<path class="st2" d="M254.2,98.9c0,3.1-14.6,5.7-32.6,5.7c-18,0-32.6-2.5-32.6-5.7s14.6-5.7,32.6-5.7S254.2,95.8,254.2,98.9"/>
		<g>
			<path class="st2" d="M191.3,92.3c0,5.6-11.4,10.1-25.4,10.1c-14,0-25.4-4.5-25.4-10.1c0-5.6,11.4-10.1,25.4-10.1
				C179.9,82.2,191.3,86.7,191.3,92.3"/>
			<path class="st2" d="M233.6,92.8c0,5.6-11.4,10.1-25.4,10.1c-14,0-25.4-4.5-25.4-10.1c0-5.6,11.4-10.1,25.4-10.1
				C222.2,82.7,233.6,87.3,233.6,92.8"/>
			<path class="st2" d="M204.4,79.8c0,8-9.1,14.5-20.2,14.5c-11.2,0-20.2-6.5-20.2-14.5s9.1-14.5,20.2-14.5
				C195.4,65.3,204.4,71.8,204.4,79.8"/>
			<path class="st2" d="M224.1,83.2c0,6.9-7.4,12.5-16.5,12.5c-9.1,0-16.5-5.6-16.5-12.5c0-6.9,7.4-12.5,16.5-12.5
				C216.7,70.7,224.1,76.3,224.1,83.2"/>
		</g>
		<g>
			<path class="st3" d="M100,99.3c0,6.5-13.2,11.7-29.4,11.7s-29.4-5.2-29.4-11.7c0-6.5,13.2-11.7,29.4-11.7S100,92.8,100,99.3"/>
			<path class="st3" d="M149,100c0,6.5-13.2,11.7-29.4,11.7s-29.4-5.2-29.4-11.7c0-6.5,13.2-11.7,29.4-11.7S149,93.5,149,100"/>
			<path class="st3" d="M149,101.9c0,6.5-23.4,11.7-52.4,11.7s-52.4-5.2-52.4-11.7c0-6.5,23.4-11.7,52.4-11.7S149,95.4,149,101.9"/>
			<path class="st3" d="M172.9,107c0,3.6-16.9,6.6-37.7,6.6c-20.8,0-37.7-2.9-37.7-6.6c0-3.6,16.9-6.6,37.7-6.6
				S172.9,103.4,172.9,107"/>
			<path class="st3" d="M115.3,84.9c0,9.3-10.5,16.8-23.4,16.8c-12.9,0-23.4-7.5-23.4-16.8S78.9,68,91.8,68
				C104.8,68,115.3,75.6,115.3,84.9"/>
			<path class="st3" d="M109.2,98.8C109.2,98.8,109.2,98.8,109.2,98.8C109.3,98.8,109.3,98.8,109.2,98.8
				C109.3,98.8,109.3,98.8,109.2,98.8"/>
			<path class="st3" d="M109.2,98.8C109.2,98.8,109.2,98.8,109.2,98.8C109.3,98.8,109.3,98.8,109.2,98.8
				C109.3,98.8,109.3,98.8,109.2,98.8"/>
			<path class="st3" d="M145.3,103.8c0,3.8,6.3,6.8,14.1,6.8s14.1-3,14.1-6.8s-6.3-6.8-14.1-6.8S145.3,100,145.3,103.8"/>
			<path class="st3" d="M136.5,107.8c0,2.4,8.3,4.4,18.5,4.4c10.2,0,18.5-2,18.5-4.4s-8.3-4.4-18.5-4.4
				C144.7,103.3,136.5,105.3,136.5,107.8"/>
			<path class="st3" d="M145.3,105.5c0,3.8,13.4,6.8,29.9,6.8c16.5,0,29.9-3,29.9-6.8s-13.4-6.8-29.9-6.8
				C158.7,98.8,145.3,101.8,145.3,105.5"/>
		</g>
		<g>
			<path class="st4" d="M73.2,113.7c1.2,0.3,2.5,0.4,3.9,0.4c5.3,0,9.5-2.3,9.5-5.1c0-2.8-4-5-9.1-5.1c-0.2,0-0.3,0-0.4,0
				c-1,0-2,0.1-3,0.3c1,0.3,1.9,0.6,2.7,1c2.3,1,3.6,2.3,3.6,3.7C80.4,110.9,77.5,112.7,73.2,113.7"/>
			<path class="st4" d="M74.1,104.1c1,0.3,1.9,0.6,2.7,1c0.3-0.4,0.5-0.8,0.7-1.2c-0.2,0-0.3,0-0.4,0C76,103.9,75,104,74.1,104.1"/>
			<path class="st4" d="M59.5,103.1c0,0.1,0.1,0.2,0.1,0.4c0.4-0.1,0.7-0.3,1-0.5C60.3,103.1,59.9,103.1,59.5,103.1"/>
			<path class="st4" d="M47.8,108.8c0,1.2,1,2.3,2.7,3.3c0,0,0.1,0,0.1,0c0,0,0,0,0,0c2.9,1.6,7.9,2.6,13.5,2.6c3.4,0,6.5-0.4,9.1-1
				c4.4-1.1,7.2-2.9,7.2-4.9c0-1.4-1.4-2.7-3.6-3.7c-0.8-0.4-1.7-0.7-2.7-1c0.9-0.2,1.9-0.3,3-0.3c0.2,0,0.3,0,0.4,0
				c0.5-1,0.7-2,0.7-3.1c0-4.5-4.3-8.2-9.5-8.2c-1.4,0-2.8,0.3-4,0.7c-2.2,0.9-4,2.5-4.9,4.5c-0.4,0.9-0.7,2-0.7,3
				c0,0.8,0.1,1.6,0.4,2.4c0.4,0,0.8-0.1,1.2-0.1c-0.3,0.2-0.7,0.3-1,0.5c0-0.1-0.1-0.2-0.1-0.4c-2,0.2-3.8,0.5-5.4,1
				c-0.9,0.3-1.7,0.5-2.4,0.8C49.3,106,47.8,107.4,47.8,108.8"/>
			<path class="st4" d="M32.8,102.7c1.7-0.2,3.5-0.3,5.4-0.3c5.6,0,10.6,1,13.5,2.6c0.7-0.3,1.5-0.6,2.4-0.8c1.6-0.4,3.4-0.8,5.4-1
				c-0.3-0.8-0.4-1.5-0.4-2.4c0-1.1,0.2-2.1,0.7-3c0.9-2,2.7-3.6,4.9-4.5c-1.3-3.2-4.8-5.5-9-5.5c-5.2,0-9.4,3.6-9.5,8
				C39.2,96.4,33.8,99.2,32.8,102.7"/>
			<path class="st4" d="M59.5,103.1c0,0.1,0.1,0.2,0.1,0.4c0.4-0.1,0.7-0.3,1-0.5C60.3,103.1,59.9,103.1,59.5,103.1"/>
			<path class="st4" d="M59.5,103.1c0,0.1,0.1,0.2,0.1,0.4c0.4-0.1,0.7-0.3,1-0.5C60.3,103.1,59.9,103.1,59.5,103.1"/>
			<path class="st4" d="M21.9,108.3c0,3.3,7.3,5.9,16.3,5.9c4.9,0,9.4-0.8,12.4-2.1c0,0,0,0,0,0c-1.7-0.9-2.7-2.1-2.7-3.3
				c0-1.5,1.5-2.8,3.9-3.9c-2.9-1.6-7.9-2.6-13.5-2.6c-1.9,0-3.7,0.1-5.4,0.3C26.4,103.5,21.9,105.7,21.9,108.3"/>
			<path class="st4" d="M50.5,112.1C50.5,112.1,50.5,112.1,50.5,112.1C50.6,112.1,50.6,112.1,50.5,112.1
				C50.6,112.1,50.5,112.1,50.5,112.1"/>
			<path class="st4" d="M59.5,103.1c0,0.1,0.1,0.2,0.1,0.4c0.4-0.1,0.7-0.3,1-0.5C60.3,103.1,59.9,103.1,59.5,103.1"/>
			<path class="st4" d="M50.5,112.1C50.5,112.1,50.5,112.1,50.5,112.1C50.6,112.1,50.6,112.1,50.5,112.1
				C50.6,112.1,50.5,112.1,50.5,112.1"/>
		</g>
		<g>
			<path class="st5" d="M135.4,96.9c1.2,0.3,2.5,0.4,3.9,0.4c5.3,0,9.5-2.3,9.5-5.1c0-2.8-4-5-9.1-5.1c-0.2,0-0.3,0-0.4,0
				c-1,0-2,0.1-3,0.3c1,0.3,1.9,0.6,2.7,1c2.3,1,3.6,2.3,3.6,3.7C142.6,94,139.7,95.8,135.4,96.9"/>
			<path class="st5" d="M136.3,87.3c1,0.3,1.9,0.6,2.7,1c0.3-0.4,0.5-0.8,0.7-1.2c-0.2,0-0.3,0-0.4,0
				C138.2,87.1,137.2,87.2,136.3,87.3"/>
			<path class="st5" d="M121.7,86.3c0,0.1,0.1,0.2,0.1,0.4c0.4-0.1,0.7-0.3,1-0.5C122.5,86.2,122.1,86.3,121.7,86.3"/>
			<path class="st5" d="M110,92c0,1.2,1,2.3,2.7,3.3c0,0,0.1,0,0.1,0c0,0,0,0,0,0c2.9,1.6,7.9,2.6,13.5,2.6c3.4,0,6.5-0.4,9.1-1
				c4.4-1.1,7.2-2.9,7.2-4.9c0-1.4-1.4-2.7-3.6-3.7c-0.8-0.4-1.7-0.7-2.7-1c0.9-0.2,1.9-0.3,3-0.3c0.2,0,0.3,0,0.4,0
				c0.5-1,0.7-2,0.7-3.1c0-4.5-4.3-8.2-9.5-8.2c-1.4,0-2.8,0.3-4,0.7c-2.2,0.9-4,2.5-4.9,4.5c-0.4,0.9-0.7,2-0.7,3
				c0,0.8,0.1,1.6,0.4,2.4c0.4,0,0.8-0.1,1.2-0.1c-0.3,0.2-0.7,0.3-1,0.5c0-0.1-0.1-0.2-0.1-0.4c-2,0.2-3.8,0.5-5.4,1
				c-0.9,0.3-1.7,0.5-2.4,0.8C111.5,89.2,110,90.5,110,92"/>
			<path class="st5" d="M95,85.8c1.7-0.2,3.5-0.3,5.4-0.3c5.6,0,10.6,1,13.5,2.6c0.7-0.3,1.5-0.6,2.4-0.8c1.6-0.4,3.4-0.8,5.4-1
				c-0.3-0.8-0.4-1.5-0.4-2.4c0-1.1,0.2-2.1,0.7-3c0.9-2,2.7-3.6,4.9-4.5c-1.3-3.2-4.8-5.5-9-5.5c-5.2,0-9.4,3.6-9.5,8
				C101.5,79.5,96,82.3,95,85.8"/>
			<path class="st5" d="M121.7,86.3c0,0.1,0.1,0.2,0.1,0.4c0.4-0.1,0.7-0.3,1-0.5C122.5,86.2,122.1,86.3,121.7,86.3"/>
			<path class="st5" d="M121.7,86.3c0,0.1,0.1,0.2,0.1,0.4c0.4-0.1,0.7-0.3,1-0.5C122.5,86.2,122.1,86.3,121.7,86.3"/>
			<path class="st5" d="M84.1,91.4c0,3.3,7.3,5.9,16.3,5.9c4.9,0,9.4-0.8,12.4-2.1c0,0,0,0,0,0c-1.7-0.9-2.7-2.1-2.7-3.3
				c0-1.5,1.5-2.8,3.9-3.9c-2.9-1.6-7.9-2.6-13.5-2.6c-1.9,0-3.7,0.1-5.4,0.3C88.6,86.7,84.1,88.8,84.1,91.4"/>
			<path class="st5" d="M121.7,86.3c0,0.1,0.1,0.2,0.1,0.4c0.4-0.1,0.7-0.3,1-0.5C122.5,86.2,122.1,86.3,121.7,86.3"/>
		</g>
		<g>
			<path class="st6" d="M267.6,109.4c1.2,0.3,2.5,0.4,3.9,0.4c5.3,0,9.5-2.3,9.5-5.1c0-2.8-4-5-9.1-5.1c-0.2,0-0.3,0-0.4,0
				c-1,0-2,0.1-3,0.3c1,0.3,1.9,0.6,2.7,1c2.3,1,3.6,2.3,3.6,3.7C274.8,106.6,272,108.4,267.6,109.4"/>
			<path class="st6" d="M268.5,99.8c1,0.3,1.9,0.6,2.7,1c0.3-0.4,0.5-0.8,0.7-1.2c-0.2,0-0.3,0-0.4,0
				C270.4,99.6,269.4,99.7,268.5,99.8"/>
			<path class="st6" d="M253.9,98.9c0,0.1,0.1,0.2,0.1,0.4c0.4-0.1,0.7-0.3,1-0.5C254.7,98.8,254.3,98.8,253.9,98.9"/>
			<path class="st6" d="M242.2,104.5c0,1.2,1,2.3,2.7,3.3c0,0,0.1,0,0.1,0c0,0,0,0,0,0c2.9,1.6,7.9,2.6,13.5,2.6
				c3.4,0,6.5-0.4,9.1-1c4.4-1.1,7.2-2.9,7.2-4.9c0-1.4-1.4-2.7-3.6-3.7c-0.8-0.4-1.7-0.7-2.7-1c0.9-0.2,1.9-0.3,3-0.3
				c0.2,0,0.3,0,0.4,0c0.5-1,0.7-2,0.7-3.1c0-4.5-4.3-8.2-9.5-8.2c-1.4,0-2.8,0.3-4,0.7c-2.2,0.9-4,2.5-4.9,4.5
				c-0.4,0.9-0.7,2-0.7,3c0,0.8,0.1,1.6,0.4,2.4c0.4,0,0.8-0.1,1.2-0.1c-0.3,0.2-0.7,0.3-1,0.5c0-0.1-0.1-0.2-0.1-0.4
				c-2,0.2-3.8,0.5-5.4,1c-0.9,0.3-1.7,0.5-2.4,0.8C243.7,101.7,242.2,103,242.2,104.5"/>
			<path class="st6" d="M227.2,98.4c1.7-0.2,3.5-0.3,5.4-0.3c5.6,0,10.6,1,13.5,2.6c0.7-0.3,1.5-0.6,2.4-0.8c1.6-0.4,3.4-0.8,5.4-1
				c-0.3-0.8-0.4-1.5-0.4-2.4c0-1.1,0.2-2.1,0.7-3c0.9-2,2.7-3.6,4.9-4.5c-1.3-3.2-4.8-5.5-9-5.5c-5.2,0-9.4,3.6-9.5,8
				C233.7,92.1,228.2,94.9,227.2,98.4"/>
			<path class="st6" d="M253.9,98.9c0,0.1,0.1,0.2,0.1,0.4c0.4-0.1,0.7-0.3,1-0.5C254.7,98.8,254.3,98.8,253.9,98.9"/>
			<path class="st6" d="M253.9,98.9c0,0.1,0.1,0.2,0.1,0.4c0.4-0.1,0.7-0.3,1-0.5C254.7,98.8,254.3,98.8,253.9,98.9"/>
			<path class="st6" d="M216.3,104c0,3.3,7.3,5.9,16.3,5.9c4.9,0,9.4-0.8,12.4-2.1c0,0,0,0,0,0c-1.7-0.9-2.7-2.1-2.7-3.3
				c0-1.5,1.5-2.8,3.9-3.9c-2.9-1.6-7.9-2.6-13.5-2.6c-1.9,0-3.7,0.1-5.4,0.3C220.9,99.2,216.3,101.4,216.3,104"/>
			<path class="st6" d="M253.9,98.9c0,0.1,0.1,0.2,0.1,0.4c0.4-0.1,0.7-0.3,1-0.5C254.7,98.8,254.3,98.8,253.9,98.9"/>
		</g>
		<path class="st3" d="M177,103.8c0,3.8,6.3,6.8,14.1,6.8c7.8,0,14.1-3,14.1-6.8S198.8,97,191,97C183.3,97,177,100,177,103.8"/>
		<path class="st3" d="M176.3,90.6c-7.1,0.7-12.6,4.3-12.2,8.1c0.4,3.8,6.4,6.3,13.5,5.6c7.1-0.7,12.6-4.3,12.2-8.1
			C189.4,92.4,183.4,89.9,176.3,90.6"/>
		<path class="st3" d="M183.4,105.5c0,2.9,6.8,5.2,15.3,5.2c8.4,0,15.3-2.4,15.3-5.2s-6.8-5.2-15.3-5.2
			C190.3,100.3,183.4,102.6,183.4,105.5"/>
		<path class="st3" d="M243.6,119.4c0,4.4-9.1,8-20.2,8s-20.2-3.6-20.2-8c0-4.4,9.1-8,20.2-8C234.5,111.4,243.6,115,243.6,119.4"/>
		<path class="st3" d="M277.2,119.9c0,4.4-9.1,8-20.2,8s-20.2-3.6-20.2-8s9.1-8,20.2-8S277.2,115.5,277.2,119.9"/>
		<path class="st3" d="M277.2,121.2c0,4.4-16.1,8-36,8s-36-3.6-36-8c0-4.4,16.1-8,36-8C261.1,113.2,277.2,116.8,277.2,121.2"/>
		<path class="st3" d="M293.7,124.8c0,2.5-11.6,4.5-25.9,4.5c-14.3,0-25.9-2-25.9-4.5c0-2.5,11.6-4.5,25.9-4.5
			C282,120.2,293.7,122.3,293.7,124.8"/>
		<path class="st3" d="M254,109.5c0,6.4-7.2,11.6-16.1,11.6c-8.9,0-16.1-5.2-16.1-11.6S229,98,237.9,98
			C246.8,98,254,103.1,254,109.5"/>
		<path class="st3" d="M269.7,112.2c0,5.5-5.9,9.9-13.1,9.9c-7.3,0-13.1-4.4-13.1-9.9s5.9-9.9,13.1-9.9
			C263.8,102.3,269.7,106.7,269.7,112.2"/>
		<rect x="11.1" y="425.7" class="st7" width="298.6" height="34.4"/>
		<ellipse class="st8" cx="159.8" cy="437.3" rx="80" ry="17.4"/>
		<path class="st9" d="M245.7,426.8l-96.6,0c27.2-5.2,53-16.5,67.7-31.3c0.4-0.4,0.8-0.8,1.2-1.2c0.7,4.4,2.6,8.9,5.8,13.4
			C228.8,414.9,236.4,421.3,245.7,426.8"/>
		<path class="st9" d="M294.7,426.8l-91.7,0c25.8-5.9,50.3-18.8,64.3-35.6c0.4-0.5,0.8-0.9,1.1-1.4c0.7,5,2.5,10.1,5.5,15.3
			C278.7,413.3,285.9,420.6,294.7,426.8"/>
		<path class="st7" d="M285.7,445l-91.7,0c25.8-5.9,50.3-18.8,64.3-35.6c0.4-0.5,0.8-0.9,1.1-1.4c0.7,5,2.5,10.1,5.5,15.3
			C269.6,431.4,276.8,438.7,285.7,445"/>
		<path class="st9" d="M101.7,426l-77.9,0.1c21.9-6.1,42.7-19.6,54.6-37.2c0.3-0.5,0.7-1,1-1.5c0.6,5.2,2.1,10.5,4.7,16
			C88,411.8,94.1,419.5,101.7,426"/>
		<ellipse class="st10" cx="85" cy="427.4" rx="30" ry="14.1"/>
		<ellipse class="st10" cx="214" cy="434.1" rx="54.7" ry="10.9"/>
		<path class="st9" d="M139.3,423.2l-72.8,0c20.5-4.3,39.9-13.7,51-26.1c0.3-0.3,0.6-0.7,0.9-1c0.5,3.6,2,7.4,4.4,11.2
			C126.6,413.2,132.3,418.6,139.3,423.2"/>
		<path class="st9" d="M191,426l-80.3,0c22.6-6.6,44.1-21,56.3-39.8c0.3-0.5,0.7-1.1,1-1.6c0.6,5.5,2.2,11.3,4.8,17.1
			C176.9,410.8,183.2,419.1,191,426"/>
		<ellipse class="st10" cx="132.9" cy="435.2" rx="42.5" ry="14.1"/>
		<path class="st7" d="M88.3,444.9L16.6,445c20.2-6.1,39.3-19.6,50.3-37.2c0.3-0.5,0.6-1,0.9-1.5c0.5,5.2,1.9,10.5,4.3,16
			C75.8,430.8,81.4,438.4,88.3,444.9"/>
		<path class="st7" d="M146.5,447.1l-88.2,0c24.9-6.2,48.4-19.9,61.8-37.6c0.4-0.5,0.7-1,1.1-1.5c0.6,5.2,2.4,10.7,5.3,16.2
			C131.1,432.7,138,440.5,146.5,447.1"/>
		<path class="st7" d="M230.4,444.9L140,445c25.5-5.9,49.6-18.8,63.4-35.6c0.4-0.5,0.8-0.9,1.1-1.4c0.7,5,2.4,10.1,5.4,15.3
			C214.6,431.4,221.7,438.7,230.4,444.9"/>
		<path class="st7" d="M191,449.3l-106,0c29.9-6.1,58.2-19.6,74.3-37.2c0.4-0.5,0.9-1,1.3-1.5c0.8,5.2,2.9,10.6,6.4,16
			C172.4,435.1,180.8,442.8,191,449.3"/>
		<g>
			<g>
				<g>
					<g>
						<defs>
							<rect id="SVGID_1_" x="209.6" y="373.6" width="85.7" height="66.4"/>
						</defs>
						<clipPath id="SVGID_2_">
							<use xlink:href="#SVGID_1_"  style="overflow:visible;"/>
						</clipPath>
						<path class="st11" d="M231.2,400.1c0.8,2.5-0.7,5.3-3.4,6.2c-2.7,0.9-5.6-0.4-6.5-2.9s0.7-5.3,3.4-6.2
							C227.5,396.3,230.4,397.6,231.2,400.1"/>
					</g>
				</g>
				<g>
					<g>
						<defs>
							<rect id="SVGID_3_" x="209.6" y="373.6" width="85.7" height="66.4"/>
						</defs>
						<clipPath id="SVGID_4_">
							<use xlink:href="#SVGID_3_"  style="overflow:visible;"/>
						</clipPath>
						<path class="st12" d="M249.9,400.3c0.8,2.5-0.7,5.3-3.4,6.2c-2.7,0.9-5.6-0.4-6.5-2.9c-0.8-2.5,0.7-5.3,3.4-6.2
							C246.1,396.5,249,397.8,249.9,400.3"/>
					</g>
				</g>
				<g>
					<g>
						<defs>
							<rect id="SVGID_5_" x="209.6" y="373.6" width="85.7" height="66.4"/>
						</defs>
						<clipPath id="SVGID_6_">
							<use xlink:href="#SVGID_5_"  style="overflow:visible;"/>
						</clipPath>
						<path class="st13" d="M250,411.3c0,7-6.4,12.7-14.3,12.7s-14.3-5.7-14.3-12.7c0-7,6.4-12.7,14.3-12.7
							C243.6,398.7,250,404.3,250,411.3"/>
					</g>
				</g>
			</g>
			<polygon class="st14" points="295.3,389.6 260.3,375.5 260.3,412.8 			"/>
			<g>
				<g>
					<g>
						<defs>
							<rect id="SVGID_7_" x="209.6" y="373.6" width="85.7" height="66.4"/>
						</defs>
						<clipPath id="SVGID_8_">
							<use xlink:href="#SVGID_7_"  style="overflow:visible;"/>
						</clipPath>
						<path class="st15" d="M273.6,425.3c0,8.1-14.3,14.7-32,14.7s-32-6.6-32-14.7c0-2.9,1.8-5.5,4.9-7.8c5.4,4.6,16,7.8,28.3,7.8
							c11.4,0,21.4-2.7,27.1-6.9C272.3,420.5,273.6,422.9,273.6,425.3"/>
					</g>
				</g>
				<g>
					<g>
						<defs>
							<rect id="SVGID_9_" x="209.6" y="373.6" width="85.7" height="66.4"/>
						</defs>
						<clipPath id="SVGID_10_">
							<use xlink:href="#SVGID_9_"  style="overflow:visible;"/>
						</clipPath>
						<path class="st16" d="M221.7,411.7c0-0.6,0.1-1.1,0.2-1.7c0.8,6.4,6.6,11.4,13.9,11.6c7.2,0.2,13.3-4.7,14.3-11
							c0.1,0.5,0.1,1.1,0.1,1.7c-0.2,7.2-6.6,12.8-14.5,12.7C227.8,424.8,221.5,418.9,221.7,411.7"/>
					</g>
				</g>
				<g>
					<g>
						<defs>
							<rect id="SVGID_11_" x="209.6" y="373.6" width="85.7" height="66.4"/>
						</defs>
						<clipPath id="SVGID_12_">
							<use xlink:href="#SVGID_11_"  style="overflow:visible;"/>
						</clipPath>
						<path class="st17" d="M232.6,410.7c-0.1,4.2-3.5,7.5-7.7,7.4c-4.2-0.1-7.5-3.5-7.4-7.7s3.5-7.5,7.7-7.4
							C229.4,403.1,232.7,406.6,232.6,410.7"/>
					</g>
				</g>
				<g>
					<g>
						<defs>
							<rect id="SVGID_13_" x="209.6" y="373.6" width="85.7" height="66.4"/>
						</defs>
						<clipPath id="SVGID_14_">
							<use xlink:href="#SVGID_13_"  style="overflow:visible;"/>
						</clipPath>
						<path class="st18" d="M230.1,413.2c0,2-1.7,3.6-3.8,3.6c-2,0-3.6-1.7-3.6-3.8c0-2,1.7-3.6,3.8-3.6
							C228.6,409.5,230.2,411.2,230.1,413.2"/>
					</g>
				</g>
				<g>
					<g>
						<defs>
							<rect id="SVGID_15_" x="209.6" y="373.6" width="85.7" height="66.4"/>
						</defs>
						<clipPath id="SVGID_16_">
							<use xlink:href="#SVGID_15_"  style="overflow:visible;"/>
						</clipPath>
						<path class="st19" d="M238.4,418.5c0,0.5-1.2,1-2.6,1c-1.5,0-2.6-0.4-2.6-1c0-0.5,1.2-1,2.6-1
							C237.3,417.5,238.4,418,238.4,418.5"/>
					</g>
				</g>
				<g>
					<g>
						<defs>
							<rect id="SVGID_17_" x="209.6" y="373.6" width="85.7" height="66.4"/>
						</defs>
						<clipPath id="SVGID_18_">
							<use xlink:href="#SVGID_17_"  style="overflow:visible;"/>
						</clipPath>
						<path class="st20" d="M242.3,394.9c2.5-1.5,5.9-0.3,7.6,2.6c1.4,2.3,1.3,5.1-0.1,6.8c-0.1-0.8-0.4-1.7-0.9-2.4
							c-1.7-2.9-5.1-4-7.6-2.6c-0.5,0.3-0.9,0.7-1.3,1.1C239.7,398.2,240.5,396,242.3,394.9"/>
					</g>
				</g>
				<g>
					<g>
						<defs>
							<rect id="SVGID_19_" x="209.6" y="373.6" width="85.7" height="66.4"/>
						</defs>
						<clipPath id="SVGID_20_">
							<use xlink:href="#SVGID_19_"  style="overflow:visible;"/>
						</clipPath>
						<path class="st21" d="M220.3,399.1c0.6-2.8,3.4-4.5,6.1-3.8c2.2,0.5,3.8,2.4,3.9,4.5c-0.6-0.4-1.2-0.8-2-0.9
							c-2.8-0.6-5.5,1.1-6.1,3.8c-0.1,0.5-0.2,1.1-0.1,1.6C220.7,403.1,219.9,401.1,220.3,399.1"/>
					</g>
				</g>
				<g>
					<g>
						<defs>
							<rect id="SVGID_21_" x="209.6" y="373.6" width="85.7" height="66.4"/>
						</defs>
						<clipPath id="SVGID_22_">
							<use xlink:href="#SVGID_21_"  style="overflow:visible;"/>
						</clipPath>
						<path class="st22" d="M248.7,405c0,0.5-0.1,0.9-0.3,1.4c-1.3-2.8-6.7-4.9-13-4.9c-6.4,0-11.7,2.1-13,4.9
							c-0.2-0.4-0.3-0.9-0.3-1.4c0-3.5,6-6.3,13.4-6.3S248.7,401.5,248.7,405"/>
					</g>
				</g>
				<g>
					<g>
						<defs>
							<rect id="SVGID_23_" x="209.6" y="373.6" width="85.7" height="66.4"/>
						</defs>
						<clipPath id="SVGID_24_">
							<use xlink:href="#SVGID_23_"  style="overflow:visible;"/>
						</clipPath>
						<path class="st23" d="M239.8,410.4c-0.1,4.2,3.2,7.6,7.4,7.7c4.2,0.1,7.6-3.2,7.7-7.4c0.1-4.2-3.2-7.6-7.4-7.7
							C243.3,403,239.9,406.2,239.8,410.4"/>
					</g>
				</g>
				<g>
					<g>
						<defs>
							<rect id="SVGID_25_" x="209.6" y="373.6" width="85.7" height="66.4"/>
						</defs>
						<clipPath id="SVGID_26_">
							<use xlink:href="#SVGID_25_"  style="overflow:visible;"/>
						</clipPath>
						<path class="st24" d="M245.4,413.1c0,2,1.6,3.7,3.6,3.8c2,0,3.7-1.6,3.8-3.6c0-2-1.6-3.7-3.6-3.8
							C247.1,409.4,245.4,411,245.4,413.1"/>
					</g>
				</g>
			</g>
			<polygon class="st25" points="257.7,373.8 257.7,411.8 286.8,386.1 			"/>
			<polygon class="st26" points="258.1,374.3 257.6,411.7 269.7,401.4 			"/>
			<polygon class="st27" points="257.6,373.6 257.6,426.3 262.2,426.3 262.6,375.8 			"/>
			<polygon class="st28" points="257.6,373.6 261.6,424 262.2,426.3 262.6,375.8 			"/>
			<g>
				<g>
					<g>
						<defs>
							<rect id="SVGID_27_" x="209.6" y="373.6" width="85.7" height="66.4"/>
						</defs>
						<clipPath id="SVGID_28_">
							<use xlink:href="#SVGID_27_"  style="overflow:visible;"/>
						</clipPath>
						<path class="st29" d="M273.6,422.9c0,8.1-14.3,14.7-32,14.7s-32-6.6-32-14.7c0-2.9,1.8-5.5,4.9-7.8c5.4,4.6,16,7.8,28.3,7.8
							c11.4,0,21.4-2.7,27.1-6.9C272.3,418.1,273.6,420.4,273.6,422.9"/>
					</g>
				</g>
				<g>
					<g>
						<defs>
							<rect id="SVGID_29_" x="209.6" y="373.6" width="85.7" height="66.4"/>
						</defs>
						<clipPath id="SVGID_30_">
							<use xlink:href="#SVGID_29_"  style="overflow:visible;"/>
						</clipPath>
						<path class="st30" d="M271.9,425.8c0,4.8-13.9,8.6-31.1,8.6s-31.1-3.9-31.1-8.6c0-1.7,1.8-3.3,4.8-4.6
							c5.2,2.7,15.6,4.6,27.5,4.6c11.1,0,20.8-1.6,26.3-4C270.6,422.9,271.9,424.3,271.9,425.8"/>
					</g>
				</g>
				<g>
					<g>
						<defs>
							<rect id="SVGID_31_" x="209.6" y="373.6" width="85.7" height="66.4"/>
						</defs>
						<clipPath id="SVGID_32_">
							<use xlink:href="#SVGID_31_"  style="overflow:visible;"/>
						</clipPath>
						<path class="st31" d="M268.3,425.6c0,4-13.1,7.3-29.3,7.3s-29.3-3.3-29.3-7.3c0-1.4,1.7-2.8,4.5-3.9
							c4.9,2.3,14.7,3.9,25.9,3.9c10.5,0,19.6-1.4,24.8-3.4C267.1,423.2,268.3,424.4,268.3,425.6"/>
					</g>
				</g>
				<g>
					<g>
						<defs>
							<rect id="SVGID_33_" x="209.6" y="373.6" width="85.7" height="66.4"/>
						</defs>
						<clipPath id="SVGID_34_">
							<use xlink:href="#SVGID_33_"  style="overflow:visible;"/>
						</clipPath>
						<path class="st32" d="M257.6,424.8c0,3.3-10.7,5.9-24,5.9c-13.2,0-24-2.6-24-5.9c0-1.2,1.4-2.2,3.7-3.2c4,1.9,12,3.2,21.2,3.2
							c8.5,0,16-1.1,20.3-2.8C256.6,422.8,257.6,423.8,257.6,424.8"/>
					</g>
				</g>
				<g>
					<g>
						<defs>
							<rect id="SVGID_35_" x="209.6" y="373.6" width="85.7" height="66.4"/>
						</defs>
						<clipPath id="SVGID_36_">
							<use xlink:href="#SVGID_35_"  style="overflow:visible;"/>
						</clipPath>
						<path class="st33" d="M250.4,426c0,2-9.1,3.7-20.4,3.7c-11.3,0-20.4-1.7-20.4-3.7c0-0.7,1.2-1.4,3.1-2c3.4,1.2,10.2,2,18,2
							c7.3,0,13.7-0.7,17.3-1.7C249.6,424.8,250.4,425.4,250.4,426"/>
					</g>
				</g>
				<g>
					<g>
						<defs>
							<rect id="SVGID_37_" x="209.6" y="373.6" width="85.7" height="66.4"/>
						</defs>
						<clipPath id="SVGID_38_">
							<use xlink:href="#SVGID_37_"  style="overflow:visible;"/>
						</clipPath>
						<path class="st34" d="M264.5,423.1c0.3,0.8-0.7,1.8-2.1,2.3c-1.4,0.5-2.8,0.2-3-0.6c-0.3-0.8,0.7-1.8,2.1-2.3
							C262.9,422.1,264.2,422.4,264.5,423.1"/>
					</g>
				</g>
			</g>
		</g>
		<polygon class="st3" points="267.9,160.7 267.9,324.5 249.5,350.6 68.2,350.6 50.9,327.3 50.9,161.8 70.5,133.6 249.3,133.6 		"/>
		<g id="Image">
			<circle class="st3" cx="215.2" cy="291.2" r="44.4"/>
			<circle class="st35" cx="215.2" cy="291.2" r="38.5"/>
			<circle class="st3" cx="215.2" cy="291.2" r="31.4"/>
			<circle class="st35" cx="215.2" cy="291.2" r="27.7"/>
			<path class="st36" d="M194.5,290.7C194.5,290.1,194.5,291.2,194.5,290.7l-3.2-2.7c0,0.5,0,1,0,1.6c0,12.1,7.8,22.5,18.7,26.2
				l-0.8-3.8C200.1,308.3,194.5,301,194.5,290.7z"/>
			<path class="st36" d="M203.2,292l-3.9-1.3c1.4,5.2,4.4,9.8,8.3,13.3v-4.6C205.4,296.9,204.2,295.3,203.2,292z"/>
			<g>
				<g>
					<path class="st37" d="M222.5,277.9C222.5,277.9,222.5,277.9,222.5,277.9L222.5,277.9L222.5,277.9z"/>
					<path class="st37" d="M222.6,277.9L222.6,277.9L222.6,277.9C222.5,277.9,222.5,277.9,222.6,277.9"/>
					<path class="st3" d="M234.3,281.9c0.4,2.5-5.7,5.5-13.6,6.7c-7.9,1.2-14.6,0.1-14.9-2.4c-0.4-2.5,5.7-5.5,13.6-6.7
						C227.2,278.4,233.9,279.4,234.3,281.9"/>
					<path class="st38" d="M234,280.6c1.2,6.7-4.5,13.3-12.6,14.7c-8.1,1.4-15.7-2.9-16.9-9.6c-0.2-1-0.2-2-0.1-3
						c0.2,0.6,0.5,1.2,0.9,1.7c1.2,2.8,7.4,4.1,14.5,2.9c6.5-1.1,11.6-4,12.5-6.9c0.4-0.8,0.7-1.8,0.7-2.7
						C233.5,278.6,233.8,279.6,234,280.6"/>
					<path class="st39" d="M235.2,276.8c0.1,0.8-0.2,1.7-1,2.5c-1.3,2-7.3,4.3-14.7,5.6c-8.1,1.4-15.1,1.1-16.2-0.7
						c-0.6-0.4-1-1-1.2-1.7c-0.4-2.3,3-4.7,7.5-5.5c2.8-0.5,5.4-0.2,7.1,0.6c1,0.5,1.7,1.2,1.9,2.1c-0.2-0.9,0.2-1.8,1.1-2.6
						c1.3-1.3,3.7-2.5,6.5-2.9C230.8,273.4,234.8,274.5,235.2,276.8"/>
				</g>
			</g>
		</g>
		<g id="Text_1_">
			<g>
				<path class="st3" d="M192.2,267.5c-0.9-1.2-0.6-2.8,0.5-3.7c0.5-0.4,1.1-0.6,1.7-0.6c0.2,0,0.4,0.2,0.4,0.4
					c0,0.2-0.2,0.4-0.4,0.4c-0.4,0-0.8,0.1-1.2,0.4c-0.4,0.3-0.7,0.8-0.7,1.2c-0.1,0.5,0,0.9,0.3,1.3c0.3,0.4,0.7,0.6,1.2,0.7
					c0.5,0.1,1-0.1,1.4-0.4c0.3-0.2,0.5-0.5,0.6-0.8l-0.6-0.8l-0.8,0.6c-0.2,0.1-0.4,0.1-0.6-0.1c-0.1-0.2-0.1-0.4,0.1-0.6l1.1-0.9
					c0,0,0,0,0,0c0,0,0,0,0,0c0.2-0.1,0.4-0.1,0.6,0.1l1,1.3c0,0,0,0.1,0.1,0.1c0,0,0,0,0,0l0,0c0,0.1,0,0.1,0,0.2
					c-0.1,0.6-0.5,1.1-1,1.5C194.8,268.8,193.1,268.6,192.2,267.5z"/>
				<path class="st3" d="M198.5,265.5c-0.4-0.1-0.8-0.4-1.1-0.9c-0.2-0.4-0.3-0.9-0.2-1.4c0.1-0.5,0.4-0.8,0.8-1.1
					c0.4-0.2,0.9-0.2,1.3-0.1c0.5,0.2,0.8,0.4,1.1,0.9c0.2,0.5,0.3,0.9,0.2,1.4c-0.1,0.4-0.4,0.8-0.8,1.1
					C199.5,265.7,199,265.7,198.5,265.5z M198.2,264.2c0.1,0.3,0.4,0.5,0.6,0.6c0.2,0.1,0.5,0,0.7-0.1c0.2-0.1,0.4-0.3,0.5-0.6
					c0.1-0.3,0-0.5-0.1-0.8c-0.1-0.3-0.4-0.4-0.6-0.5c-0.2-0.1-0.5,0-0.7,0.1c-0.2,0.1-0.4,0.3-0.5,0.6
					C198,263.7,198,264,198.2,264.2z"/>
				<path class="st3" d="M202.5,263.5c-0.4-0.2-0.7-0.6-0.9-1c-0.2-0.5-0.1-0.9,0-1.4c0.2-0.4,0.5-0.8,1-1c0.5-0.2,0.9-0.1,1.3,0.1
					c0.4,0.2,0.8,0.6,0.9,1c0.2,0.5,0.2,1,0,1.4c-0.2,0.4-0.5,0.8-1,0.9C203.4,263.8,203,263.7,202.5,263.5z M202.4,262.2
					c0.1,0.3,0.3,0.5,0.5,0.6c0.2,0.1,0.5,0.1,0.8,0c0.2-0.1,0.4-0.3,0.5-0.5c0.1-0.3,0.1-0.5,0-0.8c-0.1-0.3-0.3-0.5-0.5-0.6
					c-0.2-0.1-0.5-0.1-0.7,0c-0.3,0.1-0.4,0.3-0.6,0.5C202.3,261.6,202.3,261.9,202.4,262.2z"/>
				<path class="st3" d="M209.7,261.6c0,0.2-0.1,0.4-0.3,0.5c-0.2,0-0.4-0.1-0.4-0.2c-0.2,0.2-0.6,0.4-0.9,0.5
					c-1,0.2-1.9-0.4-2.1-1.4c-0.2-1,0.4-2,1.4-2.2c0.4-0.1,0.7,0,1,0.1l-0.3-1.3c0-0.2,0.1-0.4,0.3-0.5c0.2,0,0.4,0.1,0.5,0.3
					l0.6,2.8c0,0,0,0,0,0L209.7,261.6z M207.5,259.6c-0.3,0.1-0.5,0.2-0.6,0.4c-0.1,0.2-0.2,0.5-0.1,0.8c0.1,0.3,0.2,0.5,0.4,0.6
					c0.2,0.1,0.5,0.2,0.7,0.2c0.3-0.1,0.5-0.2,0.6-0.4c0.1-0.2,0.2-0.5,0.1-0.8c-0.1-0.3-0.2-0.5-0.4-0.7
					C208,259.6,207.7,259.5,207.5,259.6z"/>
				<path class="st3" d="M216.5,257.4l-1.2,0l0,3.9c0,0.2-0.2,0.4-0.4,0.4c-0.2,0-0.4-0.2-0.4-0.4l0-3.9l-1.2,0
					c-0.2,0-0.4-0.2-0.4-0.4s0.2-0.4,0.4-0.4l3.1,0c0.2,0,0.4,0.2,0.4,0.4C216.9,257.2,216.7,257.4,216.5,257.4z"/>
				<path class="st3" d="M220.1,260.2l-0.2,1.4c0,0.2-0.2,0.4-0.4,0.3c-0.2,0-0.3-0.2-0.3-0.4c-0.3,0.2-0.6,0.2-1,0.2
					c-0.5-0.1-0.9-0.3-1.2-0.7c-0.3-0.4-0.4-0.8-0.3-1.3c0.1-0.5,0.3-0.9,0.6-1.2c0.4-0.3,0.8-0.5,1.3-0.4c0.4,0,0.7,0.2,0.9,0.4
					c0.1-0.2,0.2-0.3,0.4-0.3c0.2,0,0.4,0.2,0.3,0.4L220.1,260.2z M219.4,260.2c0-0.3,0-0.6-0.2-0.8c-0.2-0.2-0.4-0.3-0.6-0.4
					c-0.3,0-0.5,0-0.7,0.2c-0.2,0.2-0.3,0.4-0.4,0.7c0,0.3,0,0.6,0.2,0.8c0.1,0.2,0.4,0.3,0.6,0.4c0.3,0,0.5,0,0.7-0.2
					C219.2,260.7,219.3,260.5,219.4,260.2z"/>
				<path class="st3" d="M222.9,257.4c0.2,0,0.4,0.3,0.3,0.5l-0.9,4.2c0,0.2-0.3,0.4-0.5,0.3c-0.2,0-0.4-0.3-0.3-0.5l0.9-4.2
					C222.4,257.5,222.6,257.4,222.9,257.4z"/>
				<path class="st3" d="M223.1,262.3l1.3-4.1c0.1-0.2,0.3-0.3,0.5-0.3c0.2,0.1,0.3,0.3,0.3,0.5l-0.8,2.4l1.9-1
					c0.2-0.1,0.4,0,0.5,0.2c0.1,0.2,0,0.4-0.2,0.5l-1.4,0.7l0.7,1.6c0.1,0.2,0,0.4-0.2,0.5c-0.1,0-0.2,0-0.3,0
					c-0.1,0-0.2-0.1-0.2-0.2l-0.6-1.6l-0.5,0.3l-0.2,0.6c-0.1,0.2-0.3,0.3-0.5,0.3C223.2,262.8,223,262.6,223.1,262.3z"/>
				<path class="st3" d="M227.1,262.2c0.4-0.9,1.5-1.3,2.4-0.9c0.9,0.4,1.2,1.4,0.9,2.3c0,0,0,0,0,0c0,0,0,0,0,0.1
					c-0.1,0.1-0.3,0.2-0.5,0.1l-2.1-1c0,0.2,0,0.4,0,0.5c0.1,0.2,0.3,0.5,0.5,0.6c0.2,0.1,0.5,0.2,0.8,0.2c0.2-0.1,0.5,0.1,0.5,0.2
					c0,0.1,0,0.4-0.2,0.4c-0.5,0.1-0.9,0.1-1.4-0.1C227,264.1,226.7,263.1,227.1,262.2z M228,262.2l1.9,0.9c0.1-0.3-0.1-0.8-0.7-1.2
					C228.6,261.6,228.2,261.9,228,262.2z"/>
				<path class="st3" d="M233.9,264.1c-0.1,0.2-0.3,0.2-0.5,0.1c-0.1-0.1-0.3-0.1-0.4-0.1c-0.2,0-0.3,0.1-0.5,0.1
					c-0.3,0.1-0.5,0.3-0.6,0.4l-0.7,1.2c-0.1,0.2-0.4,0.2-0.5,0.1c-0.2-0.1-0.2-0.4-0.1-0.5l1.5-2.5c0.1-0.2,0.3-0.2,0.5-0.1
					c0.2,0.1,0.3,0.4,0.1,0.5l0,0c0.1,0,0.1,0,0.2,0c0.3,0,0.6,0,0.9,0.2C234,263.7,234,264,233.9,264.1z"/>
			</g>
			<g>
				<path class="st40" d="M191.7,267.5c-0.9-1.2-0.6-2.8,0.5-3.7c0.5-0.4,1.1-0.6,1.7-0.6c0.2,0,0.4,0.2,0.4,0.4
					c0,0.2-0.2,0.4-0.4,0.4c-0.4,0-0.8,0.1-1.2,0.4c-0.4,0.3-0.7,0.8-0.7,1.2c-0.1,0.5,0,0.9,0.3,1.3c0.3,0.4,0.7,0.6,1.2,0.7
					c0.5,0.1,1-0.1,1.4-0.4c0.3-0.2,0.5-0.5,0.6-0.8l-0.6-0.8l-0.8,0.6c-0.2,0.1-0.4,0.1-0.6-0.1c-0.1-0.2-0.1-0.4,0.1-0.6l1.1-0.9
					c0,0,0,0,0,0c0,0,0,0,0,0c0.2-0.1,0.4-0.1,0.6,0.1l1,1.3c0,0,0,0.1,0.1,0.1c0,0,0,0,0,0l0,0c0,0.1,0,0.1,0,0.2
					c-0.1,0.6-0.5,1.1-1,1.5C194.3,268.8,192.6,268.6,191.7,267.5z"/>
				<path class="st40" d="M198,265.5c-0.4-0.1-0.8-0.4-1.1-0.9c-0.2-0.4-0.3-0.9-0.2-1.4c0.1-0.5,0.4-0.8,0.8-1.1
					c0.4-0.2,0.9-0.2,1.3-0.1c0.5,0.2,0.8,0.4,1.1,0.9c0.2,0.5,0.3,0.9,0.2,1.4c-0.1,0.4-0.4,0.8-0.8,1.1
					C198.9,265.7,198.5,265.7,198,265.5z M197.7,264.2c0.1,0.3,0.4,0.5,0.6,0.6c0.2,0.1,0.5,0,0.7-0.1c0.2-0.1,0.4-0.3,0.5-0.6
					c0.1-0.3,0-0.5-0.1-0.8c-0.1-0.3-0.4-0.4-0.6-0.5c-0.2-0.1-0.5,0-0.7,0.1c-0.2,0.1-0.4,0.3-0.5,0.6
					C197.5,263.7,197.5,264,197.7,264.2z"/>
				<path class="st40" d="M202,263.5c-0.4-0.2-0.7-0.6-0.9-1c-0.2-0.5-0.1-0.9,0-1.4c0.2-0.4,0.5-0.8,1-1c0.5-0.2,0.9-0.1,1.3,0.1
					c0.4,0.2,0.8,0.6,0.9,1c0.2,0.5,0.2,1,0,1.4c-0.2,0.4-0.5,0.8-1,0.9C202.9,263.8,202.5,263.7,202,263.5z M201.9,262.2
					c0.1,0.3,0.3,0.5,0.5,0.6c0.2,0.1,0.5,0.1,0.8,0c0.2-0.1,0.4-0.3,0.5-0.5c0.1-0.3,0.1-0.5,0-0.8c-0.1-0.3-0.3-0.5-0.5-0.6
					c-0.2-0.1-0.5-0.1-0.7,0c-0.3,0.1-0.4,0.3-0.6,0.5C201.8,261.6,201.8,261.9,201.9,262.2z"/>
				<path class="st40" d="M209.2,261.6c0,0.2-0.1,0.4-0.3,0.5c-0.2,0-0.4-0.1-0.4-0.2c-0.2,0.2-0.6,0.4-0.9,0.5
					c-1,0.2-1.9-0.4-2.1-1.4c-0.2-1,0.4-2,1.4-2.2c0.4-0.1,0.7,0,1,0.1l-0.3-1.3c0-0.2,0.1-0.4,0.3-0.5c0.2,0,0.4,0.1,0.5,0.3
					l0.6,2.8c0,0,0,0,0,0L209.2,261.6z M207,259.6c-0.3,0.1-0.5,0.2-0.6,0.4c-0.1,0.2-0.2,0.5-0.1,0.8c0.1,0.3,0.2,0.5,0.4,0.6
					c0.2,0.1,0.5,0.2,0.7,0.2c0.3-0.1,0.5-0.2,0.6-0.4c0.1-0.2,0.2-0.5,0.1-0.8c-0.1-0.3-0.2-0.5-0.4-0.7
					C207.5,259.6,207.2,259.5,207,259.6z"/>
				<path class="st40" d="M216,257.4l-1.2,0l0,3.9c0,0.2-0.2,0.4-0.4,0.4c-0.2,0-0.4-0.2-0.4-0.4l0-3.9l-1.2,0
					c-0.2,0-0.4-0.2-0.4-0.4s0.2-0.4,0.4-0.4l3.1,0c0.2,0,0.4,0.2,0.4,0.4C216.4,257.2,216.2,257.4,216,257.4z"/>
				<path class="st40" d="M219.6,260.2l-0.2,1.4c0,0.2-0.2,0.4-0.4,0.3c-0.2,0-0.3-0.2-0.3-0.4c-0.3,0.2-0.6,0.2-1,0.2
					c-0.5-0.1-0.9-0.3-1.2-0.7c-0.3-0.4-0.4-0.8-0.3-1.3c0.1-0.5,0.3-0.9,0.6-1.2c0.4-0.3,0.8-0.5,1.3-0.4c0.4,0,0.7,0.2,0.9,0.4
					c0.1-0.2,0.2-0.3,0.4-0.3c0.2,0,0.4,0.2,0.3,0.4L219.6,260.2z M218.8,260.2c0-0.3,0-0.6-0.2-0.8c-0.2-0.2-0.4-0.3-0.6-0.4
					c-0.3,0-0.5,0-0.7,0.2c-0.2,0.2-0.3,0.4-0.4,0.7c0,0.3,0,0.6,0.2,0.8c0.1,0.2,0.4,0.3,0.6,0.4c0.3,0,0.5,0,0.7-0.2
					C218.7,260.7,218.8,260.5,218.8,260.2z"/>
				<path class="st40" d="M222.3,257.4c0.2,0,0.4,0.3,0.3,0.5l-0.9,4.2c0,0.2-0.3,0.4-0.5,0.3c-0.2,0-0.4-0.3-0.3-0.5l0.9-4.2
					C221.9,257.5,222.1,257.4,222.3,257.4z"/>
				<path class="st40" d="M222.6,262.3l1.3-4.1c0.1-0.2,0.3-0.3,0.5-0.3c0.2,0.1,0.3,0.3,0.3,0.5l-0.8,2.4l1.9-1
					c0.2-0.1,0.4,0,0.5,0.2c0.1,0.2,0,0.4-0.2,0.5l-1.4,0.7l0.7,1.6c0.1,0.2,0,0.4-0.2,0.5c-0.1,0-0.2,0-0.3,0
					c-0.1,0-0.2-0.1-0.2-0.2l-0.6-1.6l-0.5,0.3l-0.2,0.6c-0.1,0.2-0.3,0.3-0.5,0.3C222.6,262.8,222.5,262.6,222.6,262.3z"/>
				<path class="st40" d="M226.6,262.2c0.4-0.9,1.5-1.3,2.4-0.9c0.9,0.4,1.2,1.4,0.9,2.3c0,0,0,0,0,0c0,0,0,0,0,0.1
					c-0.1,0.1-0.3,0.2-0.5,0.1l-2.1-1c0,0.2,0,0.4,0,0.5c0.1,0.2,0.3,0.5,0.5,0.6c0.2,0.1,0.5,0.2,0.8,0.2c0.2-0.1,0.5,0.1,0.5,0.2
					c0,0.1,0,0.4-0.2,0.4c-0.5,0.1-0.9,0.1-1.4-0.1C226.5,264.1,226.2,263.1,226.6,262.2z M227.5,262.2l1.9,0.9
					c0.1-0.3-0.1-0.8-0.7-1.2C228.1,261.6,227.6,261.9,227.5,262.2z"/>
				<path class="st40" d="M233.4,264.1c-0.1,0.2-0.3,0.2-0.5,0.1c-0.1-0.1-0.3-0.1-0.4-0.1c-0.2,0-0.3,0.1-0.5,0.1
					c-0.3,0.1-0.5,0.3-0.6,0.4l-0.7,1.2c-0.1,0.2-0.4,0.2-0.5,0.1c-0.2-0.1-0.2-0.4-0.1-0.5l1.5-2.5c0.1-0.2,0.3-0.2,0.5-0.1
					c0.2,0.1,0.3,0.4,0.1,0.5l0,0c0.1,0,0.1,0,0.2,0c0.3,0,0.6,0,0.9,0.2C233.5,263.7,233.5,264,233.4,264.1z"/>
			</g>
		</g>
		<g id="Image_1_">
			<circle class="st3" cx="104.8" cy="291.4" r="44.3"/>
			<circle class="st41" cx="104.8" cy="291.4" r="38.4"/>
			<circle class="st3" cx="104.8" cy="291.4" r="31.3"/>
			<circle class="st41" cx="104.8" cy="291.4" r="27.6"/>
			<path class="st36" d="M84.3,290.9C84.3,290.4,84.2,291.4,84.3,290.9l-3.2-2.7c0,0.5,0,1,0,1.6c0,12.1,7.8,22.4,18.6,26.1
				l-0.8-3.8C89.8,308.5,84.3,301.2,84.3,290.9z"/>
			<path class="st36" d="M92.9,292.2l-3.8-1.3c1.4,5.2,4.4,9.8,8.3,13.3v-4.6C95.1,297.1,93.9,295.5,92.9,292.2z"/>
			<g>
				<g>
					<path class="st42" d="M112.9,278.3L112.9,278.3C112.9,278.3,112.9,278.3,112.9,278.3c0.1,0.2,0.2,0.4,0.3,0.6
						c0.5,1.2,0.5,1.2,0.7,1.9c0.9,2.8,1.8,6.5,2.3,10.6c0,0.1,0,0.2,0,0.3c0.2,1.3,0.4,2.6,0.5,3.8c0,0,0,0.1,0,0.1
						c0.1,1.3,0.2,2.5,0.3,3.7c0,0.1,0,0.2,0,0.3v0c0.2,4.2-0.2,7.3-1.1,8.6c-0.3,0.6-0.8,1.1-1.5,1.5c-0.1,0.1-0.3,0.1-0.4,0.2
						c0,0,0,0,0,0c-3.8,1.4-8.1-0.2-10-3.9c-0.9-1.9-1.1-4-0.5-5.8c0.1-0.2,0.1-0.4,0.2-0.6c-2.5-2.1-4.8-5.1-6.6-8.8
						c-4.5-8.9-4.1-18.2,0.8-20.7c3.6-1.8,8.5,0.4,12.7,5.1C111.4,276.2,112.2,277.2,112.9,278.3"/>
					<path class="st43" d="M103.2,289.9c0.6,0.7,1.2,1.4,1.8,1.9c-0.8-0.2-1.7-0.6-2.5-1.2c-0.9-0.6-1.8-1.4-2.6-2.4
						c-0.3-0.4-0.6-0.8-0.8-1.2c-2.5-4-2.4-8.6,0.2-10.2c1.8-1.1,4.3-0.5,6.6,1.3c-1.2-0.3-2.4-0.2-3.3,0.4
						c-2.3,1.4-2.6,5.2-0.9,8.9c0.2,0.4,0.5,0.9,0.7,1.3C102.6,289.1,102.9,289.5,103.2,289.9"/>
					<path class="st43" d="M112.7,304.1c-1.8,1.1-4.3,0.5-6.6-1.3c1.2,0.3,2.4,0.2,3.3-0.4c2.3-1.4,2.6-5.2,0.9-8.9
						c-1.6,0.3-3.6-0.4-5.3-1.8c1.2,0.3,2.4,0.2,3.3-0.4c0.2-0.1,0.3-0.2,0.4-0.3c0.3-0.2,0.5-0.5,0.7-0.7c0.9,0.6,1.8,1.4,2.6,2.4
						c0.3,0.4,0.6,0.8,0.8,1.2C115.3,298,115.3,302.5,112.7,304.1"/>
					<path class="st43" d="M112,292.8c-0.1,0.1-0.3,0.2-0.4,0.3c-0.4,0.2-0.8,0.4-1.3,0.5c-1.6,0.3-3.6-0.4-5.3-1.8
						c1.2,0.3,2.4,0.2,3.3-0.4c0.2-0.1,0.3-0.2,0.4-0.3c0.3-0.2,0.5-0.5,0.7-0.7C110.4,291,111.2,291.8,112,292.8"/>
				</g>
			</g>
		</g>
		<g id="Text_2_">
			<g>
				<path class="st3" d="M81.6,265.9c-0.9-1.2-0.6-2.8,0.5-3.7c0.5-0.4,1.1-0.6,1.7-0.6c0.2,0,0.4,0.2,0.4,0.4
					c0,0.2-0.2,0.4-0.4,0.4c-0.4,0-0.8,0.1-1.2,0.4c-0.4,0.3-0.7,0.8-0.7,1.2c-0.1,0.5,0,0.9,0.3,1.3c0.3,0.4,0.7,0.6,1.2,0.7
					c0.5,0.1,1-0.1,1.4-0.4c0.3-0.2,0.5-0.5,0.6-0.8l-0.6-0.8l-0.8,0.6c-0.2,0.1-0.4,0.1-0.6-0.1c-0.1-0.2-0.1-0.4,0.1-0.6l1.1-0.9
					c0,0,0,0,0,0c0,0,0,0,0,0c0.2-0.1,0.4-0.1,0.6,0.1l1,1.3c0,0,0,0.1,0.1,0.1c0,0,0,0,0,0l0,0c0,0.1,0,0.1,0,0.2
					c-0.1,0.6-0.5,1.1-1,1.5C84.2,267.3,82.5,267.1,81.6,265.9z"/>
				<path class="st3" d="M87.9,264c-0.4-0.1-0.8-0.4-1.1-0.9c-0.2-0.4-0.3-0.9-0.2-1.4c0.1-0.5,0.4-0.8,0.8-1.1
					c0.4-0.2,0.9-0.2,1.3-0.1c0.5,0.2,0.8,0.4,1.1,0.9c0.2,0.5,0.3,0.9,0.2,1.4c-0.1,0.4-0.4,0.8-0.8,1.1
					C88.9,264.1,88.4,264.1,87.9,264z M87.6,262.7c0.1,0.3,0.4,0.5,0.6,0.6c0.2,0.1,0.5,0,0.7-0.1c0.2-0.1,0.4-0.3,0.5-0.6
					c0.1-0.3,0-0.5-0.1-0.8c-0.1-0.3-0.4-0.4-0.6-0.5c-0.2-0.1-0.5,0-0.7,0.1c-0.2,0.1-0.4,0.3-0.5,0.6
					C87.4,262.2,87.4,262.4,87.6,262.7z"/>
				<path class="st3" d="M91.9,262c-0.4-0.2-0.7-0.6-0.9-1c-0.2-0.5-0.1-0.9,0-1.4c0.2-0.4,0.5-0.8,1-1c0.5-0.2,0.9-0.1,1.3,0.1
					c0.4,0.2,0.8,0.6,0.9,1c0.2,0.5,0.2,1,0,1.4c-0.2,0.4-0.5,0.8-1,0.9C92.8,262.3,92.3,262.2,91.9,262z M91.7,260.7
					c0.1,0.3,0.3,0.5,0.5,0.6c0.2,0.1,0.5,0.1,0.8,0c0.2-0.1,0.4-0.3,0.5-0.5c0.1-0.3,0.1-0.5,0-0.8c-0.1-0.3-0.3-0.5-0.5-0.6
					c-0.2-0.1-0.5-0.1-0.7,0c-0.3,0.1-0.4,0.3-0.6,0.5C91.6,260.1,91.6,260.4,91.7,260.7z"/>
				<path class="st3" d="M99.1,260.1c0,0.2-0.1,0.4-0.3,0.5c-0.2,0-0.4-0.1-0.4-0.2c-0.2,0.2-0.6,0.4-0.9,0.5
					c-1,0.2-1.9-0.4-2.1-1.4c-0.2-1,0.4-2,1.4-2.2c0.4-0.1,0.7,0,1,0.1l-0.3-1.3c0-0.2,0.1-0.4,0.3-0.5c0.2,0,0.4,0.1,0.5,0.3
					l0.6,2.8c0,0,0,0,0,0L99.1,260.1z M96.8,258.1c-0.3,0.1-0.5,0.2-0.6,0.4c-0.1,0.2-0.2,0.5-0.1,0.8c0.1,0.3,0.2,0.5,0.4,0.6
					c0.2,0.1,0.5,0.2,0.7,0.2c0.3-0.1,0.5-0.2,0.6-0.4c0.1-0.2,0.2-0.5,0.1-0.8c-0.1-0.3-0.2-0.5-0.4-0.7
					C97.4,258.1,97.1,258,96.8,258.1z"/>
				<path class="st3" d="M102.7,259.7l0-4.3c0-0.2,0.2-0.4,0.4-0.4s0.4,0.2,0.4,0.4l0,3.9l2,0c0.2,0,0.4,0.2,0.4,0.4
					c0,0.2-0.2,0.4-0.4,0.4l-2.4,0c0,0,0,0,0,0c0,0,0,0,0,0C102.8,260.1,102.7,260,102.7,259.7z"/>
				<path class="st3" d="M107.7,257.1l-0.3,2.8c0,0.2-0.2,0.4-0.4,0.4c-0.2,0-0.4-0.2-0.4-0.4l0.3-2.8c0-0.2,0.2-0.4,0.4-0.4
					C107.6,256.7,107.7,256.9,107.7,257.1z M107.8,255.8c0,0.2-0.2,0.4-0.4,0.4c-0.2,0-0.4-0.2-0.4-0.4l0-0.2c0-0.2,0.2-0.4,0.4-0.4
					c0.2,0,0.4,0.2,0.4,0.4L107.8,255.8z"/>
				<path class="st3" d="M108.5,259.4c0.2-0.1,0.4-0.1,0.5,0c0.2,0.2,0.5,0.4,0.7,0.5c0.2,0,0.4,0,0.5,0c0.1-0.1,0.2-0.1,0.2-0.2
					c0,0,0-0.1,0-0.1c0,0,0-0.1-0.1-0.1c-0.1-0.1-0.3-0.2-0.5-0.3h0c-0.2-0.1-0.4-0.2-0.6-0.3c-0.2-0.1-0.3-0.3-0.4-0.5
					c-0.1-0.1-0.1-0.3,0-0.5c0.1-0.3,0.3-0.6,0.6-0.7c0.3-0.1,0.6-0.2,0.9-0.1c0.5,0.1,0.8,0.4,1,0.6c0.2,0.1,0.2,0.4,0,0.6
					c-0.1,0.2-0.4,0.2-0.6,0c-0.2-0.2-0.4-0.3-0.6-0.4c-0.2,0-0.3,0-0.5,0.1c-0.1,0-0.1,0.1-0.1,0.1c0,0,0,0,0,0.1c0,0,0,0,0.1,0.1
					c0.1,0.1,0.3,0.2,0.5,0.3l0,0h0c0.2,0.1,0.4,0.2,0.6,0.3c0.2,0.1,0.3,0.3,0.4,0.5c0.1,0.2,0.1,0.3,0.1,0.5
					c-0.1,0.4-0.3,0.6-0.6,0.8c-0.3,0.1-0.6,0.2-1,0.1c-0.6-0.1-0.9-0.4-1.2-0.7C108.3,259.8,108.4,259.5,108.5,259.4z"/>
				<path class="st3" d="M114.5,258.5c-0.1,0.2-0.3,0.3-0.5,0.3l-0.2-0.1l-0.6,2c0.2,0.1,0.3,0.3,0.3,0.5c-0.1,0.2-0.3,0.3-0.5,0.3
					c-0.4-0.1-0.7-0.6-0.6-1l0.6-2l-0.2-0.1c-0.2-0.1-0.3-0.3-0.3-0.5c0.1-0.2,0.3-0.3,0.5-0.3l0.2,0.1l0.3-1
					c0.1-0.2,0.3-0.3,0.5-0.3c0.2,0.1,0.3,0.3,0.3,0.5l-0.3,1l0.2,0.1C114.4,258,114.6,258.3,114.5,258.5z"/>
				<path class="st3" d="M114.9,260.1c0.4-0.9,1.4-1.4,2.3-1c0.9,0.4,1.3,1.3,1,2.2c0,0,0,0,0,0c0,0,0,0,0,0.1
					c-0.1,0.2-0.3,0.2-0.5,0.1l-2.1-0.9c0,0.2,0,0.4,0,0.5c0.1,0.2,0.3,0.5,0.5,0.6c0.2,0.1,0.6,0.2,0.8,0.1c0.2-0.1,0.5,0,0.5,0.2
					c0,0.1,0,0.4-0.2,0.4c-0.5,0.2-0.9,0.2-1.4,0C114.9,262,114.5,261,114.9,260.1z M115.7,260l1.9,0.8c0-0.3-0.1-0.8-0.7-1.1
					C116.4,259.5,115.9,259.8,115.7,260z"/>
				<path class="st3" d="M122.1,263.2l-0.9,1.5c-0.1,0.2-0.3,0.3-0.5,0.1c-0.2-0.1-0.2-0.3-0.1-0.5l0.9-1.5c0.2-0.4,0.1-0.8-0.3-1
					c-0.4-0.2-0.8-0.1-1,0.3l-0.9,1.5c0,0,0,0,0,0.1c-0.1,0.1-0.3,0.2-0.5,0.1c-0.2-0.1-0.2-0.3-0.1-0.5l0.9-1.5l0.6-1
					c0.1-0.2,0.3-0.3,0.5-0.1c0.1,0.1,0.2,0.2,0.2,0.4c0.3,0,0.5,0,0.8,0.2C122.2,261.6,122.5,262.5,122.1,263.2z"/>
				<path class="st3" d="M123,264.2c0.6-0.8,1.7-1,2.5-0.3c0.7,0.6,0.9,1.6,0.3,2.4c0,0,0,0,0,0c0,0,0,0,0,0c-0.1,0.1-0.3,0.1-0.5,0
					l-1.8-1.4c-0.1,0.2-0.1,0.4-0.1,0.5c0,0.2,0.2,0.5,0.4,0.7s0.5,0.3,0.7,0.3c0.2,0,0.4,0.2,0.4,0.3c0,0.1-0.1,0.4-0.3,0.4
					c-0.5,0-0.9-0.1-1.3-0.4C122.5,266.1,122.4,264.9,123,264.2z M123.8,264.4l1.6,1.3c0.1-0.3,0.1-0.8-0.4-1.3
					C124.6,264,124.1,264.2,123.8,264.4z"/>
				<path class="st3" d="M129.2,267.6c-0.1,0.1-0.4,0.2-0.5,0c-0.1-0.1-0.3-0.2-0.4-0.2c-0.2,0-0.3,0-0.5,0c-0.3,0-0.5,0.2-0.6,0.2
					l-1,1c-0.1,0.2-0.4,0.1-0.6,0c-0.2-0.1-0.2-0.4,0-0.5l2-2.1c0.1-0.2,0.4-0.1,0.5,0c0.2,0.2,0.2,0.4,0,0.6l0,0c0.1,0,0.1,0,0.2,0
					c0.3,0.1,0.6,0.2,0.9,0.4C129.3,267.2,129.3,267.5,129.2,267.6z"/>
			</g>
			<g>
				<path class="st40" d="M81.1,265.9c-0.9-1.2-0.6-2.8,0.5-3.7c0.5-0.4,1.1-0.6,1.7-0.6c0.2,0,0.4,0.2,0.4,0.4
					c0,0.2-0.2,0.4-0.4,0.4c-0.4,0-0.8,0.1-1.2,0.4c-0.4,0.3-0.7,0.8-0.7,1.2c-0.1,0.5,0,0.9,0.3,1.3c0.3,0.4,0.7,0.6,1.2,0.7
					c0.5,0.1,1-0.1,1.4-0.4c0.3-0.2,0.5-0.5,0.6-0.8l-0.6-0.8l-0.8,0.6c-0.2,0.1-0.4,0.1-0.6-0.1c-0.1-0.2-0.1-0.4,0.1-0.6l1.1-0.9
					c0,0,0,0,0,0c0,0,0,0,0,0c0.2-0.1,0.4-0.1,0.6,0.1l1,1.3c0,0,0,0.1,0.1,0.1c0,0,0,0,0,0l0,0c0,0.1,0,0.1,0,0.2
					c-0.1,0.6-0.5,1.1-1,1.5C83.7,267.3,82,267.1,81.1,265.9z"/>
				<path class="st40" d="M87.4,264c-0.4-0.1-0.8-0.4-1.1-0.9c-0.2-0.4-0.3-0.9-0.2-1.4c0.1-0.5,0.4-0.8,0.8-1.1
					c0.4-0.2,0.9-0.2,1.3-0.1c0.5,0.2,0.8,0.4,1.1,0.9c0.2,0.5,0.3,0.9,0.2,1.4c-0.1,0.4-0.4,0.8-0.8,1.1
					C88.3,264.1,87.9,264.1,87.4,264z M87.1,262.7c0.1,0.3,0.4,0.5,0.6,0.6c0.2,0.1,0.5,0,0.7-0.1c0.2-0.1,0.4-0.3,0.5-0.6
					c0.1-0.3,0-0.5-0.1-0.8c-0.1-0.3-0.4-0.4-0.6-0.5c-0.2-0.1-0.5,0-0.7,0.1c-0.2,0.1-0.4,0.3-0.5,0.6
					C86.9,262.2,86.9,262.4,87.1,262.7z"/>
				<path class="st40" d="M91.4,262c-0.4-0.2-0.7-0.6-0.9-1c-0.2-0.5-0.1-0.9,0-1.4c0.2-0.4,0.5-0.8,1-1c0.5-0.2,0.9-0.1,1.3,0.1
					c0.4,0.2,0.8,0.6,0.9,1c0.2,0.5,0.2,1,0,1.4c-0.2,0.4-0.5,0.8-1,0.9C92.3,262.3,91.8,262.2,91.4,262z M91.3,260.7
					c0.1,0.3,0.3,0.5,0.5,0.6c0.2,0.1,0.5,0.1,0.8,0c0.2-0.1,0.4-0.3,0.5-0.5c0.1-0.3,0.1-0.5,0-0.8c-0.1-0.3-0.3-0.5-0.5-0.6
					c-0.2-0.1-0.5-0.1-0.7,0c-0.3,0.1-0.4,0.3-0.6,0.5C91.1,260.1,91.1,260.4,91.3,260.7z"/>
				<path class="st40" d="M98.6,260.1c0,0.2-0.1,0.4-0.3,0.5c-0.2,0-0.4-0.1-0.4-0.2c-0.2,0.2-0.6,0.4-0.9,0.5
					c-1,0.2-1.9-0.4-2.1-1.4c-0.2-1,0.4-2,1.4-2.2c0.4-0.1,0.7,0,1,0.1l-0.3-1.3c0-0.2,0.1-0.4,0.3-0.5c0.2,0,0.4,0.1,0.5,0.3
					l0.6,2.8c0,0,0,0,0,0L98.6,260.1z M96.3,258.1c-0.3,0.1-0.5,0.2-0.6,0.4c-0.1,0.2-0.2,0.5-0.1,0.8c0.1,0.3,0.2,0.5,0.4,0.6
					c0.2,0.1,0.5,0.2,0.7,0.2c0.3-0.1,0.5-0.2,0.6-0.4c0.1-0.2,0.2-0.5,0.1-0.8c-0.1-0.3-0.2-0.5-0.4-0.7
					C96.8,258.1,96.6,258,96.3,258.1z"/>
				<path class="st40" d="M102.2,259.7l0-4.3c0-0.2,0.2-0.4,0.4-0.4c0.2,0,0.4,0.2,0.4,0.4l0,3.9l2,0c0.2,0,0.4,0.2,0.4,0.4
					c0,0.2-0.2,0.4-0.4,0.4l-2.4,0c0,0,0,0,0,0c0,0,0,0,0,0C102.3,260.1,102.2,260,102.2,259.7z"/>
				<path class="st40" d="M107.2,257.1l-0.3,2.8c0,0.2-0.2,0.4-0.4,0.4c-0.2,0-0.4-0.2-0.4-0.4l0.3-2.8c0-0.2,0.2-0.4,0.4-0.4
					C107.1,256.7,107.2,256.9,107.2,257.1z M107.3,255.8c0,0.2-0.2,0.4-0.4,0.4c-0.2,0-0.4-0.2-0.4-0.4l0-0.2c0-0.2,0.2-0.4,0.4-0.4
					c0.2,0,0.4,0.2,0.4,0.4L107.3,255.8z"/>
				<path class="st40" d="M108,259.4c0.2-0.1,0.4-0.1,0.6,0c0.2,0.2,0.5,0.4,0.7,0.5c0.2,0,0.4,0,0.5,0c0.1-0.1,0.2-0.1,0.2-0.2
					c0,0,0-0.1,0-0.1c0,0,0-0.1-0.1-0.1c-0.1-0.1-0.3-0.2-0.5-0.3h0c-0.2-0.1-0.4-0.2-0.6-0.3c-0.2-0.1-0.3-0.3-0.4-0.5
					c-0.1-0.1-0.1-0.3,0-0.5c0.1-0.3,0.3-0.6,0.6-0.7c0.3-0.1,0.6-0.2,0.9-0.1c0.5,0.1,0.8,0.4,1,0.6c0.2,0.1,0.2,0.4,0,0.6
					c-0.1,0.2-0.4,0.2-0.6,0c-0.2-0.2-0.4-0.3-0.6-0.4c-0.2,0-0.3,0-0.5,0.1c-0.1,0-0.1,0.1-0.1,0.1c0,0,0,0,0,0.1c0,0,0,0,0.1,0.1
					c0.1,0.1,0.3,0.2,0.5,0.3l0,0h0c0.2,0.1,0.4,0.2,0.6,0.3c0.2,0.1,0.3,0.3,0.4,0.5c0.1,0.2,0.1,0.3,0.1,0.5
					c-0.1,0.4-0.3,0.6-0.6,0.8c-0.3,0.1-0.6,0.2-1,0.1c-0.6-0.1-0.9-0.4-1.2-0.7C107.8,259.8,107.9,259.5,108,259.4z"/>
				<path class="st40" d="M114,258.5c-0.1,0.2-0.3,0.3-0.5,0.3l-0.2-0.1l-0.6,2c0.2,0.1,0.3,0.3,0.3,0.5c-0.1,0.2-0.3,0.3-0.5,0.3
					c-0.4-0.1-0.7-0.6-0.6-1l0.6-2l-0.2-0.1c-0.2-0.1-0.3-0.3-0.3-0.5c0.1-0.2,0.3-0.3,0.5-0.3l0.2,0.1l0.3-1
					c0.1-0.2,0.3-0.3,0.5-0.3c0.2,0.1,0.3,0.3,0.3,0.5l-0.3,1l0.2,0.1C113.9,258,114.1,258.3,114,258.5z"/>
				<path class="st40" d="M114.4,260.1c0.4-0.9,1.4-1.4,2.3-1c0.9,0.4,1.3,1.3,1,2.2c0,0,0,0,0,0c0,0,0,0,0,0.1
					c-0.1,0.2-0.3,0.2-0.5,0.1l-2.1-0.9c0,0.2,0,0.4,0,0.5c0.1,0.2,0.3,0.5,0.5,0.6c0.2,0.1,0.6,0.2,0.8,0.1c0.2-0.1,0.5,0,0.5,0.2
					c0,0.1,0,0.4-0.2,0.4c-0.5,0.2-0.9,0.2-1.4,0C114.4,262,114,261,114.4,260.1z M115.2,260l1.9,0.8c0-0.3-0.1-0.8-0.7-1.1
					C115.9,259.5,115.4,259.8,115.2,260z"/>
				<path class="st40" d="M121.6,263.2l-0.9,1.5c-0.1,0.2-0.3,0.3-0.5,0.1c-0.2-0.1-0.2-0.3-0.1-0.5l0.9-1.5c0.2-0.4,0.1-0.8-0.3-1
					c-0.4-0.2-0.8-0.1-1,0.3l-0.9,1.5c0,0,0,0,0,0.1c-0.1,0.1-0.3,0.2-0.5,0.1c-0.2-0.1-0.2-0.3-0.1-0.5l0.9-1.5l0.6-1
					c0.1-0.2,0.3-0.3,0.5-0.1c0.1,0.1,0.2,0.2,0.2,0.4c0.3,0,0.5,0,0.8,0.2C121.7,261.6,122,262.5,121.6,263.2z"/>
				<path class="st40" d="M122.5,264.2c0.6-0.8,1.7-1,2.5-0.3c0.7,0.6,0.9,1.6,0.3,2.4c0,0,0,0,0,0c0,0,0,0,0,0
					c-0.1,0.1-0.3,0.1-0.5,0l-1.8-1.4c-0.1,0.2-0.1,0.4-0.1,0.5c0,0.2,0.2,0.5,0.4,0.7s0.5,0.3,0.7,0.3c0.2,0,0.4,0.2,0.4,0.3
					c0,0.1-0.1,0.4-0.3,0.4c-0.5,0-0.9-0.1-1.3-0.4C122,266.1,121.9,264.9,122.5,264.2z M123.3,264.4l1.6,1.3
					c0.1-0.3,0.1-0.8-0.4-1.3C124.1,264,123.5,264.2,123.3,264.4z"/>
				<path class="st40" d="M128.7,267.6c-0.1,0.1-0.4,0.2-0.5,0c-0.1-0.1-0.3-0.2-0.4-0.2c-0.2,0-0.3,0-0.5,0c-0.3,0-0.5,0.2-0.6,0.2
					l-1,1c-0.1,0.2-0.4,0.1-0.6,0c-0.2-0.1-0.2-0.4,0-0.5l2-2.1c0.1-0.2,0.4-0.1,0.5,0c0.2,0.2,0.2,0.4,0,0.6l0,0c0.1,0,0.1,0,0.2,0
					c0.3,0.1,0.6,0.2,0.9,0.4C128.8,267.2,128.8,267.5,128.7,267.6z"/>
			</g>
		</g>
		<g id="Sticker_Sheet">
			<g>
				<circle class="st3" cx="105.4" cy="191" r="46.2"/>
				<circle class="st44" cx="105.4" cy="191" r="40"/>
				<circle class="st3" cx="105.4" cy="191" r="36.6"/>
				<circle class="st44" cx="100.6" cy="191.5" r="35.3"/>
				<circle class="st3" cx="105.4" cy="191" r="32.6"/>
				<circle class="st44" cx="105.4" cy="191" r="28.8"/>
				<circle class="st3" cx="102" cy="192.3" r="25.4"/>
				<g>
					<g>
						<g>
							<g>
								<defs>
									<rect id="SVGID_39_" x="83.8" y="174.5" width="43.3" height="32.8"/>
								</defs>
								<clipPath id="SVGID_40_">
									<use xlink:href="#SVGID_39_"  style="overflow:visible;"/>
								</clipPath>
								<path class="st45" d="M94.7,187.7c0.4,1.2-0.4,2.6-1.7,3.1c-1.4,0.5-2.9-0.2-3.3-1.4c-0.4-1.2,0.4-2.6,1.7-3.1
									C92.8,185.8,94.3,186.4,94.7,187.7"/>
							</g>
						</g>
						<g>
							<g>
								<defs>
									<rect id="SVGID_41_" x="83.8" y="174.5" width="43.3" height="32.8"/>
								</defs>
								<clipPath id="SVGID_42_">
									<use xlink:href="#SVGID_41_"  style="overflow:visible;"/>
								</clipPath>
								<path class="st46" d="M104.1,187.8c0.4,1.2-0.4,2.6-1.7,3.1c-1.4,0.5-2.9-0.2-3.3-1.4c-0.4-1.2,0.4-2.6,1.7-3.1
									C102.2,185.9,103.7,186.5,104.1,187.8"/>
							</g>
						</g>
						<g>
							<g>
								<defs>
									<rect id="SVGID_43_" x="83.8" y="174.5" width="43.3" height="32.8"/>
								</defs>
								<clipPath id="SVGID_44_">
									<use xlink:href="#SVGID_43_"  style="overflow:visible;"/>
								</clipPath>
								<path class="st47" d="M104.2,193.2c0,3.5-3.2,6.3-7.2,6.3s-7.2-2.8-7.2-6.3s3.2-6.3,7.2-6.3S104.2,189.7,104.2,193.2"/>
							</g>
						</g>
					</g>
					<polygon class="st14" points="109.4,193.9 127.1,182.5 109.4,175.5 					"/>
					<g>
						<g>
							<g>
								<defs>
									<rect id="SVGID_45_" x="83.8" y="174.5" width="43.3" height="32.8"/>
								</defs>
								<clipPath id="SVGID_46_">
									<use xlink:href="#SVGID_45_"  style="overflow:visible;"/>
								</clipPath>
								<path class="st48" d="M116.1,200.1c0,4-7.2,7.2-16.2,7.2c-8.9,0-16.2-3.3-16.2-7.2c0-1.4,0.9-2.7,2.5-3.9
									c2.7,2.3,8.1,3.9,14.3,3.9c5.8,0,10.8-1.4,13.7-3.4C115.4,197.8,116.1,198.9,116.1,200.1"/>
							</g>
						</g>
						<g>
							<g>
								<defs>
									<rect id="SVGID_47_" x="83.8" y="174.5" width="43.3" height="32.8"/>
								</defs>
								<clipPath id="SVGID_48_">
									<use xlink:href="#SVGID_47_"  style="overflow:visible;"/>
								</clipPath>
								<path class="st49" d="M89.9,193.4c0-0.3,0-0.5,0.1-0.8c0.4,3.2,3.4,5.7,7,5.7c3.6,0.1,6.7-2.3,7.2-5.5c0,0.3,0,0.5,0,0.8
									c-0.1,3.5-3.4,6.4-7.3,6.3C93,199.9,89.8,196.9,89.9,193.4"/>
							</g>
						</g>
						<g>
							<g>
								<defs>
									<rect id="SVGID_49_" x="83.8" y="174.5" width="43.3" height="32.8"/>
								</defs>
								<clipPath id="SVGID_50_">
									<use xlink:href="#SVGID_49_"  style="overflow:visible;"/>
								</clipPath>
								<path class="st50" d="M95.4,192.9c0,2.1-1.8,3.7-3.9,3.6c-2.1,0-3.8-1.7-3.7-3.8s1.8-3.7,3.9-3.6
									C93.8,189.1,95.4,190.8,95.4,192.9"/>
							</g>
						</g>
						<g>
							<g>
								<defs>
									<rect id="SVGID_51_" x="83.8" y="174.5" width="43.3" height="32.8"/>
								</defs>
								<clipPath id="SVGID_52_">
									<use xlink:href="#SVGID_51_"  style="overflow:visible;"/>
								</clipPath>
								<path class="st51" d="M94.2,194.1c0,1-0.9,1.8-1.9,1.8c-1,0-1.8-0.9-1.8-1.9c0-1,0.9-1.8,1.9-1.8
									C93.4,192.3,94.2,193.1,94.2,194.1"/>
							</g>
						</g>
						<g>
							<g>
								<defs>
									<rect id="SVGID_53_" x="83.8" y="174.5" width="43.3" height="32.8"/>
								</defs>
								<clipPath id="SVGID_54_">
									<use xlink:href="#SVGID_53_"  style="overflow:visible;"/>
								</clipPath>
								<path class="st52" d="M98.3,196.7c0,0.3-0.6,0.5-1.3,0.5c-0.7,0-1.3-0.2-1.3-0.5c0-0.3,0.6-0.5,1.3-0.5
									S98.3,196.5,98.3,196.7"/>
							</g>
						</g>
						<g>
							<g>
								<defs>
									<rect id="SVGID_55_" x="83.8" y="174.5" width="43.3" height="32.8"/>
								</defs>
								<clipPath id="SVGID_56_">
									<use xlink:href="#SVGID_55_"  style="overflow:visible;"/>
								</clipPath>
								<path class="st53" d="M100.3,185.1c1.3-0.7,3-0.2,3.9,1.3c0.7,1.2,0.6,2.5-0.1,3.4c-0.1-0.4-0.2-0.8-0.4-1.2
									c-0.9-1.4-2.6-2-3.8-1.3c-0.3,0.2-0.5,0.3-0.6,0.5C99,186.7,99.4,185.6,100.3,185.1"/>
							</g>
						</g>
						<g>
							<g>
								<defs>
									<rect id="SVGID_57_" x="83.8" y="174.5" width="43.3" height="32.8"/>
								</defs>
								<clipPath id="SVGID_58_">
									<use xlink:href="#SVGID_57_"  style="overflow:visible;"/>
								</clipPath>
								<path class="st54" d="M89.2,187.2c0.3-1.4,1.7-2.2,3.1-1.9c1.1,0.3,1.9,1.2,2,2.2c-0.3-0.2-0.6-0.4-1-0.5
									c-1.4-0.3-2.8,0.5-3.1,1.9c-0.1,0.3-0.1,0.5-0.1,0.8C89.4,189.1,89,188.1,89.2,187.2"/>
							</g>
						</g>
						<g>
							<g>
								<defs>
									<rect id="SVGID_59_" x="83.8" y="174.5" width="43.3" height="32.8"/>
								</defs>
								<clipPath id="SVGID_60_">
									<use xlink:href="#SVGID_59_"  style="overflow:visible;"/>
								</clipPath>
								<path class="st55" d="M103.5,190.1c0,0.2-0.1,0.5-0.2,0.7c-0.7-1.4-3.4-2.4-6.6-2.4c-3.2,0-5.9,1-6.6,2.4
									c-0.1-0.2-0.2-0.4-0.2-0.7c0-1.7,3-3.1,6.7-3.1C100.5,186.9,103.5,188.3,103.5,190.1"/>
							</g>
						</g>
						<g>
							<g>
								<defs>
									<rect id="SVGID_61_" x="83.8" y="174.5" width="43.3" height="32.8"/>
								</defs>
								<clipPath id="SVGID_62_">
									<use xlink:href="#SVGID_61_"  style="overflow:visible;"/>
								</clipPath>
								<path class="st56" d="M99.1,192.7c0,2.1,1.6,3.8,3.7,3.8c2.1,0,3.8-1.6,3.9-3.6c0-2.1-1.6-3.8-3.7-3.8
									C100.8,189.1,99.1,190.7,99.1,192.7"/>
							</g>
						</g>
						<g>
							<g>
								<defs>
									<rect id="SVGID_63_" x="83.8" y="174.5" width="43.3" height="32.8"/>
								</defs>
								<clipPath id="SVGID_64_">
									<use xlink:href="#SVGID_63_"  style="overflow:visible;"/>
								</clipPath>
								<path class="st57" d="M101.9,194.1c0,1,0.8,1.8,1.8,1.9c1,0,1.9-0.8,1.9-1.8c0-1-0.8-1.8-1.8-1.9
									C102.7,192.3,101.9,193.1,101.9,194.1"/>
							</g>
						</g>
					</g>
					<polygon class="st25" points="108.1,174.6 122.7,180.7 108.1,193.5 					"/>
					<polygon class="st26" points="108.3,174.9 114.1,188.3 108,193.4 					"/>
					<polygon class="st27" points="108,174.5 108,200.6 110.4,200.6 110.5,175.6 					"/>
					<polygon class="st28" points="110,199.5 110.4,200.6 110.5,175.6 108,174.5 					"/>
					<g>
						<g>
							<g>
								<defs>
									<rect id="SVGID_65_" x="83.8" y="174.5" width="43.3" height="32.8"/>
								</defs>
								<clipPath id="SVGID_66_">
									<use xlink:href="#SVGID_65_"  style="overflow:visible;"/>
								</clipPath>
								<path class="st58" d="M116.1,198.9c0,4-7.2,7.2-16.2,7.2c-8.9,0-16.2-3.3-16.2-7.2c0-1.4,0.9-2.7,2.5-3.9
									c2.7,2.3,8.1,3.9,14.3,3.9c5.8,0,10.8-1.4,13.7-3.4C115.4,196.5,116.1,197.7,116.1,198.9"/>
							</g>
						</g>
						<g>
							<g>
								<defs>
									<rect id="SVGID_67_" x="83.8" y="174.5" width="43.3" height="32.8"/>
								</defs>
								<clipPath id="SVGID_68_">
									<use xlink:href="#SVGID_67_"  style="overflow:visible;"/>
								</clipPath>
								<path class="st59" d="M115.2,200.3c0,2.4-7,4.3-15.7,4.3c-8.7,0-15.7-1.9-15.7-4.3c0-0.8,0.9-1.6,2.4-2.3
									c2.6,1.4,7.9,2.3,13.9,2.3c5.6,0,10.5-0.8,13.3-2C114.6,198.9,115.2,199.6,115.2,200.3"/>
							</g>
						</g>
						<g>
							<g>
								<defs>
									<rect id="SVGID_69_" x="83.8" y="174.5" width="43.3" height="32.8"/>
								</defs>
								<clipPath id="SVGID_70_">
									<use xlink:href="#SVGID_69_"  style="overflow:visible;"/>
								</clipPath>
								<path class="st60" d="M113.4,200.3c0,2-6.6,3.6-14.8,3.6s-14.8-1.6-14.8-3.6c0-0.7,0.8-1.4,2.3-1.9
									c2.5,1.2,7.4,1.9,13.1,1.9c5.3,0,9.9-0.7,12.5-1.7C112.8,199.1,113.4,199.7,113.4,200.3"/>
							</g>
						</g>
						<g>
							<g>
								<defs>
									<rect id="SVGID_71_" x="83.8" y="174.5" width="43.3" height="32.8"/>
								</defs>
								<clipPath id="SVGID_72_">
									<use xlink:href="#SVGID_71_"  style="overflow:visible;"/>
								</clipPath>
								<path class="st61" d="M108,199.8c0,1.6-5.4,2.9-12.1,2.9c-6.7,0-12.1-1.3-12.1-2.9c0-0.6,0.7-1.1,1.9-1.6
									c2,0.9,6.1,1.6,10.7,1.6c4.3,0,8.1-0.5,10.2-1.4C107.5,198.9,108,199.3,108,199.8"/>
							</g>
						</g>
						<g>
							<g>
								<defs>
									<rect id="SVGID_73_" x="83.8" y="174.5" width="43.3" height="32.8"/>
								</defs>
								<clipPath id="SVGID_74_">
									<use xlink:href="#SVGID_73_"  style="overflow:visible;"/>
								</clipPath>
								<path class="st62" d="M104.4,200.4c0,1-4.6,1.8-10.3,1.8s-10.3-0.8-10.3-1.8c0-0.4,0.6-0.7,1.6-1c1.7,0.6,5.2,1,9.1,1
									c3.7,0,6.9-0.3,8.7-0.9C104,199.8,104.4,200.1,104.4,200.4"/>
							</g>
						</g>
						<g>
							<g>
								<defs>
									<rect id="SVGID_75_" x="83.8" y="174.5" width="43.3" height="32.8"/>
								</defs>
								<clipPath id="SVGID_76_">
									<use xlink:href="#SVGID_75_"  style="overflow:visible;"/>
								</clipPath>
								<path class="st63" d="M111.5,199c0.1,0.4-0.3,0.9-1,1.1c-0.7,0.2-1.4,0.1-1.5-0.3c-0.1-0.4,0.3-0.9,1-1.1
									C110.7,198.5,111.4,198.7,111.5,199"/>
							</g>
						</g>
					</g>
				</g>
			</g>
			<g>
				<ellipse transform="matrix(0.1602 -0.9871 0.9871 0.1602 -7.3742 373.2496)" class="st3" cx="215.7" cy="191" rx="44" ry="44"/>
				<circle class="st64" cx="215.7" cy="191" r="38.2"/>
				<circle class="st3" cx="215.7" cy="191" r="34.9"/>
				<circle class="st64" cx="211.1" cy="191.5" r="33.6"/>
				<circle class="st3" cx="215.7" cy="191" r="31.1"/>
				
					<ellipse transform="matrix(0.1602 -0.9871 0.9871 0.1602 -7.3742 373.2496)" class="st64" cx="215.7" cy="191" rx="27.5" ry="27.5"/>
				
					<ellipse transform="matrix(0.1602 -0.9871 0.9871 0.1602 -11.3498 371.0635)" class="st3" cx="212.4" cy="192.2" rx="24.2" ry="24.2"/>
				<g>
					<g>
						<g>
							<defs>
								<rect id="SVGID_77_" x="191.8" y="179.8" width="39.4" height="23.4"/>
							</defs>
							<clipPath id="SVGID_78_">
								<use xlink:href="#SVGID_77_"  style="overflow:visible;"/>
							</clipPath>
							<path class="st65" d="M210.4,195.5l-16.9,0c4.8-2.5,9.3-8,11.9-15.1c0.1-0.2,0.2-0.4,0.2-0.6c0.1,2.1,0.5,4.3,1,6.5
								C207.4,189.7,208.8,192.8,210.4,195.5"/>
						</g>
					</g>
					<g>
						<g>
							<defs>
								<rect id="SVGID_79_" x="191.8" y="179.8" width="39.4" height="23.4"/>
							</defs>
							<clipPath id="SVGID_80_">
								<use xlink:href="#SVGID_79_"  style="overflow:visible;"/>
							</clipPath>
							<path class="st66" d="M220.8,195.5l-17.2,0c4.8-2.5,9.4-8,12-15.1c0.1-0.2,0.2-0.4,0.2-0.6c0.1,2.1,0.5,4.3,1,6.5
								C217.8,189.7,219.1,192.8,220.8,195.5"/>
						</g>
					</g>
					<g>
						<g>
							<defs>
								<rect id="SVGID_81_" x="191.8" y="179.8" width="39.4" height="23.4"/>
							</defs>
							<clipPath id="SVGID_82_">
								<use xlink:href="#SVGID_81_"  style="overflow:visible;"/>
							</clipPath>
							<path class="st67" d="M231.2,195.5l-17.2,0c4.8-2.5,9.4-8,12-15.1c0.1-0.2,0.2-0.4,0.2-0.6c0.1,2.1,0.5,4.3,1,6.5
								C228.2,189.7,229.5,192.8,231.2,195.5"/>
						</g>
					</g>
					<g>
						<g>
							<defs>
								<rect id="SVGID_83_" x="191.8" y="179.8" width="39.4" height="23.4"/>
							</defs>
							<clipPath id="SVGID_84_">
								<use xlink:href="#SVGID_83_"  style="overflow:visible;"/>
							</clipPath>
							<path class="st68" d="M208.7,203.1l-16.9,0c4.8-2.5,9.3-8,11.9-15.1c0.1-0.2,0.2-0.4,0.2-0.6c0.1,2.1,0.5,4.3,1,6.5
								C205.8,197.4,207.1,200.5,208.7,203.1"/>
						</g>
					</g>
					<g>
						<g>
							<defs>
								<rect id="SVGID_85_" x="191.8" y="179.8" width="39.4" height="23.4"/>
							</defs>
							<clipPath id="SVGID_86_">
								<use xlink:href="#SVGID_85_"  style="overflow:visible;"/>
							</clipPath>
							<path class="st69" d="M219.1,203.2l-17.2,0c4.8-2.5,9.4-8,12-15.1c0.1-0.2,0.2-0.4,0.2-0.6c0.1,2.1,0.5,4.3,1,6.5
								C216.1,197.4,217.4,200.5,219.1,203.2"/>
						</g>
					</g>
					<g>
						<g>
							<defs>
								<rect id="SVGID_87_" x="191.8" y="179.8" width="39.4" height="23.4"/>
							</defs>
							<clipPath id="SVGID_88_">
								<use xlink:href="#SVGID_87_"  style="overflow:visible;"/>
							</clipPath>
							<path class="st70" d="M229.5,203.2l-17.2,0c4.8-2.5,9.4-8,12-15.1c0.1-0.2,0.2-0.4,0.2-0.6c0.1,2.1,0.5,4.3,1,6.5
								C226.5,197.4,227.8,200.5,229.5,203.2"/>
						</g>
					</g>
					<g>
						<g>
							<defs>
								<rect id="SVGID_89_" x="191.8" y="179.8" width="39.4" height="23.4"/>
							</defs>
							<clipPath id="SVGID_90_">
								<use xlink:href="#SVGID_89_"  style="overflow:visible;"/>
							</clipPath>
							<path class="st71" d="M224.1,200c-0.2,1.1-0.7,2.1-1.5,3.2h-5.4c0.6-0.4,1.1-0.8,1.6-1.2c1.2-1,2.1-2,2.7-3.1
								c1-1.5,1.4-2.9,1.5-4.3C224.2,196.2,224.5,198,224.1,200"/>
						</g>
					</g>
					<g>
						<g>
							<defs>
								<rect id="SVGID_91_" x="191.8" y="179.8" width="39.4" height="23.4"/>
							</defs>
							<clipPath id="SVGID_92_">
								<use xlink:href="#SVGID_91_"  style="overflow:visible;"/>
							</clipPath>
							<path class="st72" d="M214.2,199.2c-0.3,1.3-0.9,2.6-1.9,4h-6.9c0.7-0.5,1.4-1,2-1.5c1.5-1.3,2.7-2.5,3.5-3.9
								c1.2-1.8,1.8-3.6,1.9-5.4C214.3,194.4,214.8,196.8,214.2,199.2"/>
						</g>
					</g>
					<g>
						<g>
							<defs>
								<rect id="SVGID_93_" x="191.8" y="179.8" width="39.4" height="23.4"/>
							</defs>
							<clipPath id="SVGID_94_">
								<use xlink:href="#SVGID_93_"  style="overflow:visible;"/>
							</clipPath>
							<path class="st73" d="M203.8,199.6c-0.3,1.2-1,2.4-2,3.6h-7.3c0.8-0.4,1.5-0.9,2.2-1.4c1.6-1.1,2.9-2.3,3.8-3.5
								c1.3-1.6,1.9-3.3,2-4.9C203.9,195.3,204.5,197.4,203.8,199.6"/>
						</g>
					</g>
				</g>
				<polygon class="st7" points="215.8,183.3 217.5,192.3 216.9,194.8 215.1,185.8 				"/>
				<polygon class="st7" points="226.5,184.8 227.6,192.7 226.4,194.9 225.6,188.3 				"/>
				<polygon class="st7" points="205.4,185.4 206.6,191.6 205.7,193.4 204.5,187.3 				"/>
				<polygon class="st7" points="199.7,192 199.7,194.9 195.9,194.9 				"/>
				<polygon class="st7" points="228.2,191.2 227.8,195.1 230.2,195 				"/>
				<polygon class="st7" points="219.6,192.5 220.5,194.5 223.8,188 				"/>
				<polygon class="st7" points="220.2,195 217.4,195.1 218.3,191.9 				"/>
				<polygon class="st7" points="211,192.4 207,192.9 205.8,194.8 209.5,194.7 				"/>
				<polygon class="st7" points="212.3,188.5 209.6,191.9 211.8,191.6 				"/>
				<polygon class="st7" points="213,188.9 212.5,188 215.5,182 214.9,184.6 				"/>
				<polygon class="st7" points="226,182.2 226.2,183.3 225.3,185.3 225.1,187.9 224.8,186.4 222.7,188.5 				"/>
				<polygon class="st7" points="200.2,194 200.6,191.3 199.7,191.3 201.3,189.6 202.8,189.1 				"/>
				<polygon class="st7" points="205.8,184.9 205,185.3 204.9,183.1 205.4,181.5 				"/>
			</g>
		</g>
		<g class="st74">
			<line class="st75" x1="241.4" y1="358.6" x2="268.9" y2="319.7"/>
			<line class="st75" x1="51.9" y1="177.3" x2="79.4" y2="138.4"/>
			<line class="st75" x1="241.4" y1="138.4" x2="268.9" y2="177.3"/>
			<line class="st75" x1="51" y1="319.7" x2="78.6" y2="358.6"/>
		</g>
	</g>
</g>
<polygon class="st76" points="397.1,352.9 429.5,288 485.9,289 "/>
<path class="st77" d="M481.1,292.6H330.3c-6.6,0-12-5.4-12-12V207c0-6.6,5.4-12,12-12h150.8c6.6,0,12,5.4,12,12v73.6
	C493.1,287.2,487.7,292.6,481.1,292.6z"/>
<g>
	<path class="st78" d="M336.3,224.9c0.2,0,0.3,0,0.5,0.1c0.3,0.3,1.4,1,2.8,1c1.5,0,2.4-0.8,2.4-1.8c0-1.2-0.9-1.8-2.9-2.4
		c-1.9-0.6-3.2-1.3-3.2-3.1c0-1.2,1-2.8,3.6-2.8c1.4,0,2.4,0.5,2.7,0.7c0.1,0.1,0.2,0.2,0.3,0.4c0,0.3-0.1,0.5-0.4,0.6
		c-0.2,0-0.3,0-0.4-0.1c-0.3-0.2-1.2-0.6-2.2-0.6c-2,0-2.4,1-2.4,1.8c0,1.2,0.7,1.7,2.4,2.1c2.3,0.7,3.7,1.4,3.7,3.3
		c0,1.6-1.7,2.8-3.7,2.8c-1.9,0-3.1-0.9-3.4-1.2c-0.1-0.1-0.2-0.2-0.2-0.3C335.9,225.2,336,224.9,336.3,224.9z"/>
	<path class="st78" d="M345.3,221.6h-0.5c-0.3,0-0.4-0.2-0.4-0.4c0-0.3,0.3-0.6,0.6-0.6h0.3v-1.4c0-0.1,0-0.3,0.1-0.3l0,0
		c0.1-0.1,0.2-0.1,0.3-0.1c0.1,0,0.3,0,0.4,0.1c0.1,0.1,0.1,0.2,0.1,0.3v1.4h2c0.2,0,0.4,0.2,0.4,0.4c0,0.3-0.3,0.6-0.6,0.6h-1.8
		v3.4c0,0.7,0,0.9,0.6,0.9c0.4,0,1-0.1,1.2-0.2c0.1-0.1,0.2-0.1,0.4,0c0.2,0.1,0.3,0.3,0.3,0.5c0,0.1-0.1,0.3-0.2,0.3
		c-0.3,0.2-1,0.5-1.8,0.5c-1.4,0-1.5-0.9-1.5-1.8V221.6z"/>
	<path class="st78" d="M349.7,217.5c0-0.4,0.3-0.7,0.7-0.7c0.4,0,0.7,0.3,0.7,0.7c0,0.4-0.3,0.7-0.7,0.7
		C350,218.2,349.7,217.9,349.7,217.5z M349.9,221.3c0-0.3,0.2-0.5,0.5-0.5s0.5,0.2,0.5,0.5v5.3c0,0.2-0.1,0.3-0.4,0.3
		c-0.4,0-0.6-0.3-0.6-0.6V221.3z"/>
	<path class="st78" d="M356.2,220.5c1.2,0,2,0.5,2.4,0.9c0.1,0.1,0.1,0.2,0.1,0.3l0,0c0,0.1-0.1,0.2-0.1,0.3
		c-0.1,0.1-0.2,0.1-0.4,0.1l-0.1,0c-0.1,0-0.2-0.1-0.3-0.1c-0.2-0.2-0.8-0.6-1.7-0.6c-1.5,0-2.4,0.9-2.4,2.2c0,1.3,0.9,2.2,2.4,2.2
		c1,0,1.6-0.5,1.8-0.8c0.1-0.1,0.2-0.1,0.3-0.1l0.1,0c0.1,0,0.3,0,0.4,0.1c0.1,0.1,0.1,0.2,0.1,0.3l0,0c0,0.1,0,0.3-0.1,0.4
		c-0.3,0.4-1.2,1.1-2.5,1.1c-2.1,0-3.6-1.4-3.6-3.2C352.5,221.9,354.1,220.5,356.2,220.5z"/>
	<path class="st78" d="M360.3,216.7c0-0.3,0.2-0.5,0.5-0.5c0.3,0,0.5,0.2,0.5,0.5v6.2l2.9-1.9c0.1-0.1,0.2-0.1,0.4-0.1
		c0.1,0,0.2,0.1,0.2,0.2c0.2,0.2,0.1,0.5-0.1,0.6l-2.6,1.8l3.2,2.6c0.1,0.1,0.2,0.2,0.2,0.3c0,0.2-0.1,0.5-0.4,0.5
		c-0.1,0-0.3,0-0.4-0.1l-3.3-2.7v2.4c0,0.2-0.1,0.4-0.4,0.4c-0.3,0-0.6-0.3-0.6-0.6V216.7z"/>
	<path class="st78" d="M370.2,220.5c1.8,0,3.1,1.2,3.1,2.8c0,0.2,0.1,0.7-0.4,0.7H368c0.1,1.1,0.8,1.9,2.2,1.9
		c0.8,0,1.4-0.3,1.8-0.5c0.1,0,0.2-0.1,0.2-0.1h0.1c0.1,0,0.3,0.1,0.4,0.2c0.1,0.1,0.1,0.2,0.1,0.4l0,0c0,0.1-0.1,0.2-0.1,0.2
		c-0.4,0.3-1.3,0.7-2.4,0.7c-2.2,0-3.4-1.5-3.4-3.2C366.8,222,368,220.5,370.2,220.5z M372.3,223.4c-0.1-1-0.7-1.9-2.1-1.9
		c-1.4,0-2,0.8-2.2,1.9H372.3z"/>
	<path class="st78" d="M374.3,221.4c0-0.3,0.2-0.5,0.6-0.5c0.2,0,0.3,0.1,0.4,0.3l0,0.2c0.3-0.3,0.9-0.7,1.8-0.7
		c0.4,0,0.7,0.1,0.9,0.2c0.1,0,0.2,0.1,0.3,0.2l0,0c0.1,0.1,0.1,0.3,0,0.4l0,0c-0.1,0.1-0.2,0.2-0.3,0.3c-0.1,0-0.2,0-0.3,0
		c-0.1-0.1-0.4-0.1-0.6-0.1c-1.1,0-1.6,1-1.7,1.9c-0.1,1.4,0,3,0,3l0,0v0c0,0.2-0.1,0.3-0.4,0.3c-0.4,0-0.6-0.3-0.6-0.6V221.4z"/>
	<path class="st78" d="M384.5,225.5c0.1,0,0.2,0,0.4,0.1c0.2,0.2,0.8,0.5,1.4,0.5c0.8,0,1.1-0.4,1.1-0.9c0-0.5-0.4-0.8-1.4-1.1
		c-1.1-0.4-2-0.8-2-1.9c0-0.7,0.7-1.7,2.2-1.7c0.7,0,1.3,0.2,1.7,0.4c0.1,0.1,0.2,0.2,0.2,0.4c0,0.2-0.1,0.4-0.3,0.5
		c-0.1,0-0.3,0-0.4,0c-0.2-0.1-0.7-0.3-1.2-0.3c-0.9,0-1,0.4-1,0.8c0,0.5,0.3,0.7,1.2,1c1.1,0.4,2.3,0.8,2.3,2c0,1-1.1,1.8-2.3,1.8
		c-1,0-1.6-0.4-2-0.6c-0.1-0.1-0.2-0.2-0.2-0.4C384.1,225.7,384.2,225.5,384.5,225.5z"/>
	<path class="st78" d="M390.2,216.3c0.1-0.1,0.2,0,0.4,0c0.1,0.1,0.2,0.1,0.2,0.2l0,0c0,0.1,0,0.1,0,0.2v4.6
		c0.4-0.3,1.1-0.8,2.3-0.8c1.8,0,2.8,1,2.8,2.8v3.1c0,0.2-0.2,0.4-0.4,0.4c-0.4,0-0.6-0.3-0.6-0.6v-2.7c0-1.3-0.6-1.8-1.8-1.8
		c-1.3,0-2,0.6-2.2,0.8v4c0,0.2-0.1,0.3-0.4,0.3c-0.3,0-0.6-0.3-0.6-0.6v-9.5c0-0.1,0-0.1,0-0.2l0-0.1
		C390,216.5,390.1,216.4,390.2,216.3z"/>
	<path class="st78" d="M400.5,220.5c1.8,0,3.1,1.2,3.1,2.8c0,0.2,0.1,0.7-0.4,0.7h-4.9c0.1,1.1,0.8,1.9,2.2,1.9
		c0.8,0,1.4-0.3,1.8-0.5c0.1,0,0.2-0.1,0.2-0.1h0.1c0.1,0,0.3,0.1,0.4,0.2c0.1,0.1,0.1,0.2,0.1,0.4l0,0c0,0.1-0.1,0.2-0.1,0.2
		c-0.4,0.3-1.3,0.7-2.4,0.7c-2.2,0-3.4-1.5-3.4-3.2C397.2,222,398.4,220.5,400.5,220.5z M402.6,223.4c-0.1-1-0.7-1.9-2.1-1.9
		c-1.4,0-2,0.8-2.2,1.9H402.6z"/>
	<path class="st78" d="M408,220.5c1.8,0,3.1,1.2,3.1,2.8c0,0.2,0.1,0.7-0.4,0.7h-4.9c0.1,1.1,0.8,1.9,2.2,1.9c0.8,0,1.4-0.3,1.8-0.5
		c0.1,0,0.2-0.1,0.2-0.1h0.1c0.1,0,0.3,0.1,0.4,0.2c0.1,0.1,0.1,0.2,0.1,0.4l0,0c0,0.1-0.1,0.2-0.1,0.2c-0.4,0.3-1.3,0.7-2.4,0.7
		c-2.2,0-3.4-1.5-3.4-3.2C404.6,222,405.8,220.5,408,220.5z M410.1,223.4c-0.1-1-0.7-1.9-2.1-1.9c-1.4,0-2,0.8-2.2,1.9H410.1z"/>
	<path class="st78" d="M412.9,221.6h-0.5c-0.3,0-0.4-0.2-0.4-0.4c0-0.3,0.3-0.6,0.6-0.6h0.3v-1.4c0-0.1,0-0.3,0.1-0.3l0,0
		c0.1-0.1,0.2-0.1,0.3-0.1c0.1,0,0.3,0,0.4,0.1c0.1,0.1,0.1,0.2,0.1,0.3v1.4h2c0.2,0,0.4,0.2,0.4,0.4c0,0.3-0.3,0.6-0.6,0.6h-1.8
		v3.4c0,0.7,0,0.9,0.6,0.9c0.4,0,1-0.1,1.2-0.2c0.1-0.1,0.2-0.1,0.4,0c0.2,0.1,0.3,0.3,0.3,0.5c0,0.1-0.1,0.3-0.2,0.3
		c-0.3,0.2-1,0.5-1.8,0.5c-1.4,0-1.5-0.9-1.5-1.8V221.6z"/>
	<path class="st78" d="M422.5,217.5c0-0.4,0.3-0.7,0.7-0.7c0.4,0,0.7,0.3,0.7,0.7c0,0.4-0.3,0.7-0.7,0.7
		C422.8,218.2,422.5,217.9,422.5,217.5z M422.7,221.3c0-0.3,0.2-0.5,0.5-0.5s0.5,0.2,0.5,0.5v5.3c0,0.2-0.1,0.3-0.4,0.3
		c-0.4,0-0.6-0.3-0.6-0.6V221.3z"/>
	<path class="st78" d="M425.6,221c0.1-0.1,0.2-0.1,0.4-0.1c0.2,0,0.3,0.1,0.4,0.3l0,0l0,0.3c0.4-0.3,1.1-0.8,2.3-0.8
		c1.9,0,2.8,1.1,2.8,2.8v2.8c0,0.3-0.3,0.6-0.6,0.6c-0.2,0-0.4-0.2-0.4-0.3v-2.9c0-1.3-0.6-1.8-1.8-1.8c-1.3,0-2,0.6-2.2,0.7v4
		c0,0.2-0.1,0.3-0.4,0.3c-0.3,0-0.6-0.3-0.6-0.6v-5C425.4,221.2,425.5,221.1,425.6,221z"/>
	<path class="st78" d="M436.4,220.5c1.2,0,2,0.5,2.4,0.9c0.1,0.1,0.1,0.2,0.1,0.3l0,0c0,0.1-0.1,0.2-0.1,0.3
		c-0.1,0.1-0.2,0.1-0.4,0.1l-0.1,0c-0.1,0-0.2-0.1-0.3-0.1c-0.2-0.2-0.8-0.6-1.7-0.6c-1.5,0-2.4,0.9-2.4,2.2c0,1.3,0.9,2.2,2.4,2.2
		c1,0,1.6-0.5,1.8-0.8c0.1-0.1,0.2-0.1,0.3-0.1l0.1,0c0.1,0,0.3,0,0.4,0.1c0.1,0.1,0.1,0.2,0.1,0.3l0,0c0,0.1,0,0.3-0.1,0.4
		c-0.3,0.4-1.2,1.1-2.5,1.1c-2.1,0-3.6-1.4-3.6-3.2C432.7,221.9,434.3,220.5,436.4,220.5z"/>
	<path class="st78" d="M440.6,216.7c0-0.3,0.2-0.5,0.5-0.5c0.3,0,0.5,0.2,0.5,0.5v9.8c0,0.2-0.1,0.4-0.4,0.4c-0.4,0-0.6-0.3-0.6-0.6
		V216.7z"/>
	<path class="st78" d="M443.5,221.3c0-0.3,0.3-0.6,0.6-0.6c0.2,0,0.4,0.2,0.4,0.4v2.9c0,1.3,0.6,1.8,1.8,1.8c1.3,0,1.9-0.6,2-0.7
		v-3.8c0-0.3,0.3-0.6,0.6-0.6c0.2,0,0.4,0.2,0.4,0.4v5.2c0,0.3-0.2,0.5-0.6,0.5c-0.2,0-0.3-0.2-0.4-0.3v0l0-0.2
		c-0.4,0.3-1,0.7-2.2,0.7c-2,0-2.8-1.1-2.8-2.8V221.3z"/>
	<path class="st78" d="M454.2,220.5c0.9,0,1.5,0.3,1.8,0.5v-4.4c0-0.1,0.1-0.3,0.1-0.3c0.1-0.1,0.2-0.2,0.4-0.2c0.1,0,0.3,0,0.4,0.2
		c0.1,0.1,0.1,0.2,0.1,0.3v9.7c0,0.3-0.2,0.5-0.5,0.5c-0.2,0-0.4-0.1-0.4-0.3l0-0.2c-0.4,0.3-1,0.7-2.1,0.7c-1.9,0-3.2-1.4-3.2-3.2
		C450.8,222,452.2,220.5,454.2,220.5z M454.1,226c1.3,0,1.9-0.7,2-0.9v-3.1c-0.2-0.1-0.8-0.5-1.8-0.5c-1.5,0-2.3,0.9-2.3,2.2
		C452,225,452.7,226,454.1,226z"/>
	<path class="st78" d="M461.6,220.5c1.8,0,3.1,1.2,3.1,2.8c0,0.2,0.1,0.7-0.4,0.7h-4.9c0.1,1.1,0.8,1.9,2.2,1.9
		c0.8,0,1.4-0.3,1.8-0.5c0.1,0,0.2-0.1,0.2-0.1h0.1c0.1,0,0.3,0.1,0.4,0.2c0.1,0.1,0.1,0.2,0.1,0.4l0,0c0,0.1-0.1,0.2-0.1,0.2
		c-0.4,0.3-1.3,0.7-2.4,0.7c-2.2,0-3.4-1.5-3.4-3.2C458.2,222,459.4,220.5,461.6,220.5z M463.7,223.4c-0.1-1-0.7-1.9-2.1-1.9
		c-1.4,0-2,0.8-2.2,1.9H463.7z"/>
	<path class="st78" d="M469.2,220.5c0.9,0,1.5,0.3,1.8,0.5v-4.4c0-0.1,0.1-0.3,0.1-0.3c0.1-0.1,0.2-0.2,0.4-0.2c0.1,0,0.3,0,0.4,0.2
		c0.1,0.1,0.1,0.2,0.1,0.3v9.7c0,0.3-0.2,0.5-0.5,0.5c-0.2,0-0.4-0.1-0.4-0.3l0-0.2c-0.4,0.3-1,0.7-2.1,0.7c-1.9,0-3.2-1.4-3.2-3.2
		C465.8,222,467.2,220.5,469.2,220.5z M469.1,226c1.3,0,1.9-0.7,2-0.9v-3.1c-0.2-0.1-0.8-0.5-1.8-0.5c-1.5,0-2.3,0.9-2.3,2.2
		C467,225,467.7,226,469.1,226z"/>
	<path class="st78" d="M474.8,226.4c0,0.4-0.3,0.8-0.8,0.8c-0.4,0-0.8-0.3-0.8-0.8c0-0.5,0.4-0.8,0.8-0.8
		C474.5,225.6,474.8,225.9,474.8,226.4z"/>
	<path class="st78" d="M335.4,237c0-0.2,0.2-0.3,0.3-0.3h3.4c2.1,0,3.5,1.1,3.5,2.8c0,1.1-0.6,1.9-1.4,2.4c1,0.4,1.7,1.2,1.7,2.5
		c0,1.8-1.5,3-3.9,3h-3.4c-0.2,0-0.3-0.2-0.3-0.3V237z M339.3,246.4c1.7,0,2.7-0.8,2.7-2c0-1.2-1.1-1.9-2.8-1.9h-1.5
		c-0.7,0-1.2,0.5-1.2,1.2v2.5c0,0.1,0.1,0.3,0.3,0.3H339.3z M339.3,241.5c1.5,0,2.3-0.8,2.3-1.9c0-1.2-0.8-1.9-2.4-1.9h-2.5
		c-0.2,0-0.3,0.1-0.3,0.3v3.5H339.3z"/>
	<path class="st78" d="M346.5,243.1c0.6,0,1.1,0.1,1.4,0.2c0-1.1-0.2-1.4-1.2-1.4c-0.8,0-1.7,0.2-1.9,0.3c-0.1,0-0.3,0-0.3-0.2
		c-0.1-0.1,0-0.3,0.1-0.3c0.3-0.2,1.1-0.7,2.2-0.7c2,0,2.1,1.2,2.1,2.7v3.2c0,0.2-0.2,0.4-0.4,0.4h-0.2c-0.2,0-0.3-0.2-0.3-0.3l0,0
		l0-0.2c-0.5,0.3-1.1,0.7-2,0.7c-1.2,0-2.2-0.8-2.2-2.1C343.8,244,344.8,243.1,346.5,243.1z M346,246.4c0.8,0,1.6-0.5,1.9-0.8v-1.4
		c-0.3-0.1-0.8-0.2-1.4-0.2c-1.1,0-1.6,0.5-1.6,1.2C344.9,246,345.3,246.4,346,246.4z"/>
	<path class="st78" d="M350.5,245.9c0.1,0,0.2,0,0.4,0.1c0.2,0.2,0.8,0.5,1.4,0.5c0.8,0,1.1-0.4,1.1-0.9c0-0.5-0.4-0.8-1.4-1.1
		c-1.1-0.4-2-0.8-2-1.9c0-0.7,0.7-1.7,2.2-1.7c0.7,0,1.3,0.2,1.7,0.4c0.1,0.1,0.2,0.2,0.2,0.4c0,0.2-0.1,0.4-0.3,0.5
		c-0.1,0-0.3,0-0.4,0c-0.2-0.1-0.7-0.3-1.2-0.3c-0.9,0-1,0.4-1,0.8c0,0.5,0.3,0.7,1.2,1c1.1,0.4,2.3,0.8,2.3,2c0,1-1.1,1.8-2.3,1.8
		c-1,0-1.6-0.4-2-0.6c-0.1-0.1-0.2-0.2-0.2-0.4C350.1,246.1,350.3,245.9,350.5,245.9z"/>
	<path class="st78" d="M359.1,240.9c1.8,0,3.1,1.2,3.1,2.8c0,0.2,0.1,0.7-0.4,0.7h-4.9c0.1,1.1,0.8,1.9,2.2,1.9
		c0.8,0,1.4-0.3,1.8-0.5c0.1,0,0.2-0.1,0.2-0.1h0.1c0.1,0,0.3,0.1,0.4,0.2c0.1,0.1,0.1,0.2,0.1,0.4l0,0c0,0.1-0.1,0.2-0.1,0.2
		c-0.4,0.3-1.3,0.7-2.4,0.7c-2.2,0-3.4-1.5-3.4-3.2C355.7,242.4,356.9,240.9,359.1,240.9z M361.2,243.8c-0.1-1-0.7-1.9-2.1-1.9
		c-1.4,0-2,0.8-2.2,1.9H361.2z"/>
	<path class="st78" d="M366.8,240.9c0.9,0,1.5,0.3,1.8,0.5V237c0-0.1,0.1-0.3,0.1-0.3c0.1-0.1,0.2-0.2,0.4-0.2c0.1,0,0.3,0,0.4,0.2
		c0.1,0.1,0.1,0.2,0.1,0.3v9.7c0,0.3-0.2,0.5-0.5,0.5c-0.2,0-0.4-0.1-0.4-0.3l0-0.2c-0.4,0.3-1,0.7-2.1,0.7c-1.9,0-3.2-1.4-3.2-3.2
		C363.4,242.4,364.7,240.9,366.8,240.9z M366.6,246.4c1.3,0,1.9-0.7,2-0.9v-3.1c-0.2-0.1-0.8-0.5-1.8-0.5c-1.5,0-2.3,0.9-2.3,2.2
		C364.5,245.4,365.3,246.4,366.6,246.4z"/>
	<path class="st78" d="M379.2,240.9c2,0,3.4,1.5,3.4,3.2c0,1.8-1.4,3.2-3.4,3.2c-2,0-3.4-1.4-3.4-3.2
		C375.8,242.4,377.2,240.9,379.2,240.9z M379.2,246.4c1.4,0,2.2-1,2.2-2.3c0-1.2-0.8-2.2-2.2-2.2c-1.4,0-2.2,1-2.2,2.2
		C376.9,245.4,377.8,246.4,379.2,246.4z"/>
	<path class="st78" d="M383.9,241.4c0.1-0.1,0.2-0.1,0.4-0.1c0.2,0,0.3,0.1,0.4,0.3l0,0l0,0.3c0.4-0.3,1.1-0.8,2.3-0.8
		c1.9,0,2.8,1.1,2.8,2.8v2.8c0,0.3-0.3,0.6-0.6,0.6c-0.2,0-0.4-0.2-0.4-0.3v-2.9c0-1.3-0.6-1.8-1.8-1.8c-1.3,0-2,0.6-2.2,0.7v4
		c0,0.2-0.1,0.3-0.4,0.3c-0.3,0-0.6-0.3-0.6-0.6v-5C383.8,241.6,383.8,241.5,383.9,241.4z"/>
	<path class="st78" d="M396.9,242h-0.5c-0.3,0-0.4-0.2-0.4-0.4c0-0.3,0.3-0.6,0.6-0.6h0.3v-1.4c0-0.1,0-0.3,0.1-0.3l0,0
		c0.1-0.1,0.2-0.1,0.3-0.1c0.1,0,0.3,0,0.4,0.1c0.1,0.1,0.1,0.2,0.1,0.3v1.4h2c0.2,0,0.4,0.2,0.4,0.4c0,0.3-0.3,0.6-0.6,0.6h-1.8
		v3.4c0,0.7,0,0.9,0.6,0.9c0.4,0,1-0.1,1.2-0.2c0.1-0.1,0.2-0.1,0.4,0c0.2,0.1,0.3,0.3,0.3,0.5c0,0.1-0.1,0.3-0.2,0.3
		c-0.3,0.2-1,0.5-1.8,0.5c-1.4,0-1.5-0.9-1.5-1.8V242z"/>
	<path class="st78" d="M401.6,236.7c0.1-0.1,0.2,0,0.4,0c0.1,0.1,0.2,0.1,0.2,0.2l0,0c0,0.1,0,0.1,0,0.2v4.6
		c0.4-0.3,1.1-0.8,2.3-0.8c1.8,0,2.8,1,2.8,2.8v3.1c0,0.2-0.2,0.4-0.4,0.4c-0.4,0-0.6-0.3-0.6-0.6v-2.7c0-1.3-0.6-1.8-1.8-1.8
		c-1.3,0-2,0.6-2.2,0.8v4c0,0.2-0.1,0.3-0.4,0.3c-0.3,0-0.6-0.3-0.6-0.6v-9.5c0-0.1,0-0.1,0-0.2l0-0.1
		C401.4,236.9,401.5,236.8,401.6,236.7z"/>
	<path class="st78" d="M411.9,240.9c1.8,0,3.1,1.2,3.1,2.8c0,0.2,0.1,0.7-0.4,0.7h-4.9c0.1,1.1,0.8,1.9,2.2,1.9
		c0.8,0,1.4-0.3,1.8-0.5c0.1,0,0.2-0.1,0.2-0.1h0.1c0.1,0,0.3,0.1,0.4,0.2c0.1,0.1,0.1,0.2,0.1,0.4l0,0c0,0.1-0.1,0.2-0.1,0.2
		c-0.4,0.3-1.3,0.7-2.4,0.7c-2.2,0-3.4-1.5-3.4-3.2C408.6,242.4,409.8,240.9,411.9,240.9z M414,243.8c-0.1-1-0.7-1.9-2.1-1.9
		c-1.4,0-2,0.8-2.2,1.9H414z"/>
	<path class="st78" d="M336.2,266.3c0.1,0,0.2,0,0.4,0.1c0.2,0.2,0.8,0.5,1.4,0.5c0.8,0,1.1-0.4,1.1-0.9c0-0.5-0.4-0.8-1.4-1.1
		c-1.1-0.4-2-0.8-2-1.9c0-0.7,0.7-1.7,2.2-1.7c0.7,0,1.3,0.2,1.7,0.4c0.1,0.1,0.2,0.2,0.2,0.4c0,0.2-0.1,0.4-0.3,0.5
		c-0.1,0-0.3,0-0.4,0c-0.2-0.1-0.7-0.3-1.2-0.3c-0.9,0-1,0.4-1,0.8c0,0.5,0.3,0.7,1.2,1c1.1,0.4,2.3,0.8,2.3,2c0,1-1.1,1.8-2.3,1.8
		c-1,0-1.6-0.4-2-0.6c-0.1-0.1-0.2-0.2-0.2-0.4C335.8,266.5,336,266.3,336.2,266.3z"/>
	<path class="st78" d="M341.7,258.3c0-0.4,0.3-0.7,0.7-0.7c0.4,0,0.7,0.3,0.7,0.7c0,0.4-0.3,0.7-0.7,0.7
		C342,259,341.7,258.7,341.7,258.3z M341.9,262.1c0-0.3,0.2-0.5,0.5-0.5s0.5,0.2,0.5,0.5v5.3c0,0.2-0.1,0.3-0.4,0.3
		c-0.4,0-0.6-0.3-0.6-0.6V262.1z"/>
	<path class="st78" d="M345.1,265.4c-0.2-0.3-0.4-0.8-0.4-1.4c0-1.5,1.1-2.6,3-2.6h2.7c0.2,0,0.4,0.2,0.4,0.4v0l0,0
		c-0.1,0.3-0.4,0.4-0.7,0.5l-0.3,0c0.3,0.3,0.7,0.8,0.7,1.7c0,1.4-1.1,2.6-2.9,2.6c-1,0-1.6-0.3-1.9-0.5c-0.2,0.1-0.6,0.4-0.6,0.8
		c0,0.5,0.4,0.7,1,0.7h2.5c1.4,0,2.5,0.7,2.5,2.1c0,1.4-1.4,2.7-3.5,2.7c-2.3,0-3.3-1.3-3.3-2.4c0-0.8,0.4-1.3,0.8-1.6
		c-0.4-0.2-1-0.6-1-1.4C344.1,266.1,344.8,265.6,345.1,265.4z M347.7,271.4c1.5,0,2.3-0.8,2.3-1.7c0-0.7-0.2-1.2-1.3-1.2h-2.2
		c-0.2,0-1.1,0.4-1.1,1.3C345.4,270.6,346.1,271.4,347.7,271.4z M349.5,264.1c0-1.2-0.8-1.8-1.9-1.8c-1.2,0-1.8,0.8-1.8,1.8
		c0,1,0.4,1.8,1.8,1.8C348.8,265.9,349.5,265.1,349.5,264.1z"/>
	<path class="st78" d="M352.3,261.8c0.1-0.1,0.2-0.1,0.4-0.1c0.2,0,0.3,0.1,0.4,0.3l0,0l0,0.3c0.4-0.3,1.1-0.8,2.3-0.8
		c1.9,0,2.8,1.1,2.8,2.8v2.8c0,0.3-0.3,0.6-0.6,0.6c-0.2,0-0.4-0.2-0.4-0.3v-2.9c0-1.3-0.6-1.8-1.8-1.8c-1.3,0-2,0.6-2.2,0.7v4
		c0,0.2-0.1,0.3-0.4,0.3c-0.3,0-0.6-0.3-0.6-0.6v-5C352.1,262,352.2,261.9,352.3,261.8z"/>
	<path class="st78" d="M362,256.2c-0.4,1.4-1.1,3.2-1.6,4l-1,0.1c0.4-1,0.8-2.8,1-4L362,256.2z"/>
	<path class="st78" d="M363.5,266.3c0.1,0,0.2,0,0.4,0.1c0.2,0.2,0.8,0.5,1.4,0.5c0.8,0,1.1-0.4,1.1-0.9c0-0.5-0.4-0.8-1.4-1.1
		c-1.1-0.4-2-0.8-2-1.9c0-0.7,0.7-1.7,2.2-1.7c0.7,0,1.3,0.2,1.7,0.4c0.1,0.1,0.2,0.2,0.2,0.4c0,0.2-0.1,0.4-0.3,0.5
		c-0.1,0-0.3,0-0.4,0c-0.2-0.1-0.7-0.3-1.2-0.3c-0.9,0-1,0.4-1,0.8c0,0.5,0.3,0.7,1.2,1c1.1,0.4,2.3,0.8,2.3,2c0,1-1.1,1.8-2.3,1.8
		c-1,0-1.6-0.4-2-0.6c-0.1-0.1-0.2-0.2-0.2-0.4C363.1,266.5,363.2,266.3,363.5,266.3z"/>
	<path class="st78" d="M374.9,271.8c0,0.2-0.2,0.4-0.4,0.4c-0.3,0-0.6-0.3-0.6-0.6V262c0-0.1,0.1-0.3,0.2-0.4
		c0.1-0.1,0.2-0.1,0.4-0.1h0c0.2,0,0.3,0.1,0.4,0.3l0,0.1c0.4-0.3,1-0.6,2-0.6c2,0,3.3,1.4,3.3,3.2c0,1.8-1.4,3.2-3.5,3.2
		c-0.9,0-1.4-0.3-1.8-0.5V271.8z M376.5,266.8c1.6,0,2.4-1,2.4-2.2c0-1.3-0.7-2.2-2.2-2.2c-1.1,0-1.7,0.5-1.9,0.7v3.2
		C375,266.3,375.6,266.8,376.5,266.8z"/>
	<path class="st78" d="M384.6,261.3c1.8,0,3.1,1.2,3.1,2.8c0,0.2,0.1,0.7-0.4,0.7h-4.9c0.1,1.1,0.8,1.9,2.2,1.9
		c0.8,0,1.4-0.3,1.8-0.5c0.1,0,0.2-0.1,0.2-0.1h0.1c0.1,0,0.3,0.1,0.4,0.2c0.1,0.1,0.1,0.2,0.1,0.4l0,0c0,0.1-0.1,0.2-0.1,0.2
		c-0.4,0.3-1.3,0.7-2.4,0.7c-2.2,0-3.4-1.5-3.4-3.2C381.2,262.8,382.5,261.3,384.6,261.3z M386.7,264.2c-0.1-1-0.7-1.9-2.1-1.9
		c-1.4,0-2,0.8-2.2,1.9H386.7z"/>
	<path class="st78" d="M388.7,262.2c0-0.3,0.2-0.5,0.6-0.5c0.2,0,0.3,0.1,0.4,0.3l0,0.2c0.3-0.3,0.9-0.7,1.8-0.7
		c0.4,0,0.7,0.1,0.9,0.2c0.1,0,0.2,0.1,0.3,0.2l0,0c0.1,0.1,0.1,0.3,0,0.4l0,0c-0.1,0.1-0.2,0.2-0.3,0.3c-0.1,0-0.2,0-0.3,0
		c-0.1-0.1-0.4-0.1-0.6-0.1c-1.1,0-1.6,1-1.7,1.9c-0.1,1.4,0,3,0,3l0,0v0c0,0.2-0.1,0.3-0.4,0.3c-0.4,0-0.6-0.3-0.6-0.6V262.2z"/>
	<path class="st78" d="M393.8,266.3c0.1,0,0.2,0,0.4,0.1c0.2,0.2,0.8,0.5,1.4,0.5c0.8,0,1.1-0.4,1.1-0.9c0-0.5-0.4-0.8-1.4-1.1
		c-1.1-0.4-2-0.8-2-1.9c0-0.7,0.7-1.7,2.2-1.7c0.7,0,1.3,0.2,1.7,0.4c0.1,0.1,0.2,0.2,0.2,0.4c0,0.2-0.1,0.4-0.3,0.5
		c-0.1,0-0.3,0-0.4,0c-0.2-0.1-0.7-0.3-1.2-0.3c-0.9,0-1,0.4-1,0.8c0,0.5,0.3,0.7,1.2,1c1.1,0.4,2.3,0.8,2.3,2c0,1-1.1,1.8-2.3,1.8
		c-1,0-1.6-0.4-2-0.6c-0.1-0.1-0.2-0.2-0.2-0.4C393.4,266.5,393.6,266.3,393.8,266.3z"/>
	<path class="st78" d="M402.3,261.3c2,0,3.4,1.5,3.4,3.2c0,1.8-1.4,3.2-3.4,3.2c-2,0-3.4-1.4-3.4-3.2
		C398.9,262.8,400.3,261.3,402.3,261.3z M402.3,266.8c1.4,0,2.2-1,2.2-2.3c0-1.2-0.8-2.2-2.2-2.2c-1.4,0-2.2,1-2.2,2.2
		C400.1,265.8,400.9,266.8,402.3,266.8z"/>
	<path class="st78" d="M407.1,261.8c0.1-0.1,0.2-0.1,0.4-0.1c0.2,0,0.3,0.1,0.4,0.3l0,0l0,0.3c0.4-0.3,1.1-0.8,2.3-0.8
		c1.9,0,2.8,1.1,2.8,2.8v2.8c0,0.3-0.3,0.6-0.6,0.6c-0.2,0-0.4-0.2-0.4-0.3v-2.9c0-1.3-0.6-1.8-1.8-1.8c-1.3,0-2,0.6-2.2,0.7v4
		c0,0.2-0.1,0.3-0.4,0.3c-0.3,0-0.6-0.3-0.6-0.6v-5C406.9,262,407,261.9,407.1,261.8z"/>
	<path class="st78" d="M416.8,263.5c0.6,0,1.1,0.1,1.4,0.2c0-1.1-0.2-1.4-1.2-1.4c-0.8,0-1.7,0.2-1.9,0.3c-0.1,0-0.3,0-0.3-0.2
		c-0.1-0.1,0-0.3,0.1-0.3c0.3-0.2,1.1-0.7,2.2-0.7c2,0,2.1,1.2,2.1,2.7v3.2c0,0.2-0.2,0.4-0.4,0.4h-0.2c-0.2,0-0.3-0.2-0.3-0.3l0,0
		l0-0.2c-0.5,0.3-1.1,0.7-2,0.7c-1.2,0-2.2-0.8-2.2-2.1C414.1,264.4,415.1,263.5,416.8,263.5z M416.3,266.8c0.8,0,1.6-0.5,1.9-0.8
		v-1.4c-0.3-0.1-0.8-0.2-1.4-0.2c-1.1,0-1.6,0.5-1.6,1.2C415.2,266.4,415.6,266.8,416.3,266.8z"/>
	<path class="st78" d="M420.8,257.5c0-0.3,0.2-0.5,0.5-0.5c0.3,0,0.5,0.2,0.5,0.5v9.8c0,0.2-0.1,0.4-0.4,0.4c-0.4,0-0.6-0.3-0.6-0.6
		V257.5z"/>
	<path class="st78" d="M423.6,258.3c0-0.4,0.3-0.7,0.7-0.7c0.4,0,0.7,0.3,0.7,0.7c0,0.4-0.3,0.7-0.7,0.7
		C423.9,259,423.6,258.7,423.6,258.3z M423.8,262.1c0-0.3,0.2-0.5,0.5-0.5s0.5,0.2,0.5,0.5v5.3c0,0.2-0.1,0.3-0.4,0.3
		c-0.4,0-0.6-0.3-0.6-0.6V262.1z"/>
	<path class="st78" d="M427.1,262.4h-0.5c-0.3,0-0.4-0.2-0.4-0.4c0-0.3,0.3-0.6,0.6-0.6h0.3v-1.4c0-0.1,0-0.3,0.1-0.3l0,0
		c0.1-0.1,0.2-0.1,0.3-0.1c0.1,0,0.3,0,0.4,0.1c0.1,0.1,0.1,0.2,0.1,0.3v1.4h2c0.2,0,0.4,0.2,0.4,0.4c0,0.3-0.3,0.6-0.6,0.6h-1.8
		v3.4c0,0.7,0,0.9,0.6,0.9c0.4,0,1-0.1,1.2-0.2c0.1-0.1,0.2-0.1,0.4,0c0.2,0.1,0.3,0.3,0.3,0.5c0,0.1-0.1,0.3-0.2,0.3
		c-0.3,0.2-1,0.5-1.8,0.5c-1.4,0-1.5-0.9-1.5-1.8V262.4z"/>
	<path class="st78" d="M431.8,261.5L431.8,261.5c0.1,0.1,0.1,0.1,0.1,0.1l2.7,4.3l2.4-4.3c0,0,0.1-0.1,0.2-0.1l0,0
		c0.2-0.1,0.4-0.1,0.6,0c0.1,0.1,0.2,0.3,0.1,0.5l-5,9.9c0,0.1-0.1,0.1-0.2,0.2c-0.1,0.1-0.3,0.1-0.4,0c-0.2-0.1-0.3-0.4-0.2-0.6
		l2-4.1l-2.9-5.4c-0.1-0.2,0-0.4,0.1-0.5C431.4,261.4,431.7,261.4,431.8,261.5z"/>
	<path class="st78" d="M440.3,267.2c0,0.4-0.3,0.8-0.8,0.8c-0.4,0-0.8-0.3-0.8-0.8c0-0.5,0.4-0.8,0.8-0.8
		C440,266.4,440.3,266.7,440.3,267.2z"/>
</g>
</svg>
