<?xml version="1.0" encoding="utf-8"?>
<!-- Generator: Adobe Illustrator 23.0.2, SVG Export Plug-In . SVG Version: 6.00 Build 0)  -->
<svg version="1.1" id="Layer_1" xmlns="http://www.w3.org/2000/svg" xmlns:xlink="http://www.w3.org/1999/xlink" x="0px" y="0px"
	 viewBox="0 0 500 500" style="enable-background:new 0 0 500 500;" xml:space="preserve">
<style type="text/css">
	.st0{fill:#E1EAE8;}
	.st1{fill:#8BA9C9;}
	.st2{fill:#E4F0F4;}
	.st3{fill:#FFFFFF;}
	.st4{fill:#CFE4ED;}
	.st5{fill:#DCEBF3;}
	.st6{fill:#CCE2EA;}
	.st7{fill:#BBDBF3;}
	.st8{fill:#78B9D8;}
	.st9{fill:#6F8392;}
	.st10{fill:#A1CCDE;}
	.st11{clip-path:url(#SVGID_2_);fill:#FFFFFF;}
	.st12{clip-path:url(#SVGID_4_);fill:#FFFFFF;}
	.st13{clip-path:url(#SVGID_6_);fill:#FFFFFF;}
	.st14{fill:#CD7C76;}
	.st15{clip-path:url(#SVGID_8_);fill:#908241;}
	.st16{clip-path:url(#SVGID_10_);fill:#1F1F1F;}
	.st17{clip-path:url(#SVGID_12_);fill:#1F1F1F;}
	.st18{clip-path:url(#SVGID_14_);fill:#FFFFFF;}
	.st19{clip-path:url(#SVGID_16_);fill:#1F1F1F;}
	.st20{clip-path:url(#SVGID_18_);fill:#1F1F1F;}
	.st21{clip-path:url(#SVGID_20_);fill:#1F1F1F;}
	.st22{clip-path:url(#SVGID_22_);fill:#1F1F1F;}
	.st23{clip-path:url(#SVGID_24_);fill:#1F1F1F;}
	.st24{clip-path:url(#SVGID_26_);fill:#FFFFFF;}
	.st25{fill:#D59380;}
	.st26{fill:#CF835F;}
	.st27{fill:#917032;}
	.st28{fill:#7B5F2D;}
	.st29{clip-path:url(#SVGID_28_);fill:#AF994D;}
	.st30{clip-path:url(#SVGID_30_);fill:#908241;}
	.st31{clip-path:url(#SVGID_32_);fill:#AF994D;}
	.st32{clip-path:url(#SVGID_34_);fill:#908241;}
	.st33{clip-path:url(#SVGID_36_);fill:#AF994D;}
	.st34{clip-path:url(#SVGID_38_);fill:#908241;}
	.st35{fill:#D5D3E5;}
	.st36{fill:#FFFEF7;}
	.st37{fill:#676868;}
	.st38{fill:#9B456F;}
	.st39{fill:#C45786;}
	.st40{fill:#0F0F0F;}
	.st41{fill:#DBE8D4;}
	.st42{fill:#E7C4A9;}
	.st43{fill:#D2AF97;}
	.st44{fill:#D4E7ED;}
	.st45{clip-path:url(#SVGID_40_);fill:#FFFFFF;}
	.st46{clip-path:url(#SVGID_42_);fill:#FFFFFF;}
	.st47{clip-path:url(#SVGID_44_);fill:#FFFFFF;}
	.st48{clip-path:url(#SVGID_46_);fill:#908241;}
	.st49{clip-path:url(#SVGID_48_);fill:#1F1F1F;}
	.st50{clip-path:url(#SVGID_50_);fill:#1F1F1F;}
	.st51{clip-path:url(#SVGID_52_);fill:#FFFFFF;}
	.st52{clip-path:url(#SVGID_54_);fill:#1F1F1F;}
	.st53{clip-path:url(#SVGID_56_);fill:#1F1F1F;}
	.st54{clip-path:url(#SVGID_58_);fill:#1F1F1F;}
	.st55{clip-path:url(#SVGID_60_);fill:#1F1F1F;}
	.st56{clip-path:url(#SVGID_62_);fill:#1F1F1F;}
	.st57{clip-path:url(#SVGID_64_);fill:#FFFFFF;}
	.st58{clip-path:url(#SVGID_66_);fill:#AF994D;}
	.st59{clip-path:url(#SVGID_68_);fill:#908241;}
	.st60{clip-path:url(#SVGID_70_);fill:#AF994D;}
	.st61{clip-path:url(#SVGID_72_);fill:#908241;}
	.st62{clip-path:url(#SVGID_74_);fill:#AF994D;}
	.st63{clip-path:url(#SVGID_76_);fill:#908241;}
	.st64{fill:#C8D9EB;}
	.st65{clip-path:url(#SVGID_78_);fill:#6F8392;}
	.st66{clip-path:url(#SVGID_80_);fill:#6F8392;}
	.st67{clip-path:url(#SVGID_82_);fill:#6F8392;}
	.st68{clip-path:url(#SVGID_84_);fill:#93AFD6;}
	.st69{clip-path:url(#SVGID_86_);fill:#93AFD6;}
	.st70{clip-path:url(#SVGID_88_);fill:#93AFD6;}
	.st71{clip-path:url(#SVGID_90_);fill:#C8D9EB;}
	.st72{clip-path:url(#SVGID_92_);fill:#C8D9EB;}
	.st73{clip-path:url(#SVGID_94_);fill:#C8D9EB;}
	.st74{display:none;}
	.st75{display:inline;fill:none;stroke:#DBDDDE;stroke-width:0.9971;}
</style>
<g>
	<g>
		<rect x="35.9" y="39.9" class="st0" width="298.6" height="420.2"/>
		<path class="st1" d="M258.4,95c0,5.6-20.2,10.1-45.2,10.1S168,100.6,168,95s20.2-10.1,45.2-10.1S258.4,89.4,258.4,95"/>
		<path class="st2" d="M279,98.9c0,3.1-14.6,5.7-32.6,5.7s-32.6-2.5-32.6-5.7s14.6-5.7,32.6-5.7S279,95.8,279,98.9"/>
		<g>
			<path class="st2" d="M216.1,92.3c0,5.6-11.4,10.1-25.4,10.1s-25.4-4.5-25.4-10.1s11.4-10.1,25.4-10.1
				C204.7,82.2,216.1,86.7,216.1,92.3"/>
			<path class="st2" d="M258.4,92.8c0,5.6-11.4,10.1-25.4,10.1s-25.4-4.5-25.4-10.1S219,82.7,233,82.7
				C247,82.7,258.4,87.3,258.4,92.8"/>
			<path class="st2" d="M229.2,79.8c0,8-9.1,14.5-20.2,14.5c-11.2,0-20.2-6.5-20.2-14.5s9.1-14.5,20.2-14.5
				C220.2,65.3,229.2,71.8,229.2,79.8"/>
			<path class="st2" d="M248.9,83.2c0,6.9-7.4,12.5-16.5,12.5s-16.5-5.6-16.5-12.5s7.4-12.5,16.5-12.5
				C241.5,70.7,248.9,76.3,248.9,83.2"/>
		</g>
		<g>
			<path class="st3" d="M124.8,99.3c0,6.5-13.2,11.7-29.4,11.7S66,105.8,66,99.3s13.2-11.7,29.4-11.7S124.8,92.8,124.8,99.3"/>
			<path class="st3" d="M173.8,100c0,6.5-13.2,11.7-29.4,11.7S115,106.5,115,100s13.2-11.7,29.4-11.7S173.8,93.5,173.8,100"/>
			<path class="st3" d="M173.8,101.9c0,6.5-23.4,11.7-52.4,11.7S69,108.4,69,101.9s23.4-11.7,52.4-11.7S173.8,95.4,173.8,101.9"/>
			<path class="st3" d="M197.7,107c0,3.6-16.9,6.6-37.7,6.6s-37.7-2.9-37.7-6.6c0-3.6,16.9-6.6,37.7-6.6S197.7,103.4,197.7,107"/>
			<path class="st3" d="M140.1,84.9c0,9.3-10.5,16.8-23.4,16.8s-23.4-7.5-23.4-16.8S103.7,68,116.6,68
				C129.6,68,140.1,75.6,140.1,84.9"/>
			<path class="st3" d="M134,98.8L134,98.8C134.1,98.8,134.1,98.8,134,98.8C134.1,98.8,134.1,98.8,134,98.8"/>
			<path class="st3" d="M134,98.8L134,98.8C134.1,98.8,134.1,98.8,134,98.8C134.1,98.8,134.1,98.8,134,98.8"/>
			<path class="st3" d="M170.1,103.8c0,3.8,6.3,6.8,14.1,6.8s14.1-3,14.1-6.8S192,97,184.2,97S170.1,100,170.1,103.8"/>
			<path class="st3" d="M161.3,107.8c0,2.4,8.3,4.4,18.5,4.4s18.5-2,18.5-4.4s-8.3-4.4-18.5-4.4
				C169.5,103.3,161.3,105.3,161.3,107.8"/>
			<path class="st3" d="M170.1,105.5c0,3.8,13.4,6.8,29.9,6.8s29.9-3,29.9-6.8s-13.4-6.8-29.9-6.8
				C183.5,98.8,170.1,101.8,170.1,105.5"/>
		</g>
		<g>
			<path class="st4" d="M98,113.7c1.2,0.3,2.5,0.4,3.9,0.4c5.3,0,9.5-2.3,9.5-5.1c0-2.8-4-5-9.1-5.1c-0.2,0-0.3,0-0.4,0
				c-1,0-2,0.1-3,0.3c1,0.3,1.9,0.6,2.7,1c2.3,1,3.6,2.3,3.6,3.7C105.2,110.9,102.3,112.7,98,113.7"/>
			<path class="st4" d="M98.9,104.1c1,0.3,1.9,0.6,2.7,1c0.3-0.4,0.5-0.8,0.7-1.2c-0.2,0-0.3,0-0.4,0
				C100.8,103.9,99.8,104,98.9,104.1"/>
			<path class="st4" d="M84.3,103.1c0,0.1,0.1,0.2,0.1,0.4c0.4-0.1,0.7-0.3,1-0.5C85.1,103.1,84.7,103.1,84.3,103.1"/>
			<path class="st4" d="M72.6,108.8c0,1.2,1,2.3,2.7,3.3h0.1l0,0c2.9,1.6,7.9,2.6,13.5,2.6c3.4,0,6.5-0.4,9.1-1
				c4.4-1.1,7.2-2.9,7.2-4.9c0-1.4-1.4-2.7-3.6-3.7c-0.8-0.4-1.7-0.7-2.7-1c0.9-0.2,1.9-0.3,3-0.3c0.2,0,0.3,0,0.4,0
				c0.5-1,0.7-2,0.7-3.1c0-4.5-4.3-8.2-9.5-8.2c-1.4,0-2.8,0.3-4,0.7c-2.2,0.9-4,2.5-4.9,4.5c-0.4,0.9-0.7,2-0.7,3
				c0,0.8,0.1,1.6,0.4,2.4c0.4,0,0.8-0.1,1.2-0.1c-0.3,0.2-0.7,0.3-1,0.5c0-0.1-0.1-0.2-0.1-0.4c-2,0.2-3.8,0.5-5.4,1
				c-0.9,0.3-1.7,0.5-2.4,0.8C74.1,106,72.6,107.4,72.6,108.8"/>
			<path class="st4" d="M57.6,102.7c1.7-0.2,3.5-0.3,5.4-0.3c5.6,0,10.6,1,13.5,2.6c0.7-0.3,1.5-0.6,2.4-0.8c1.6-0.4,3.4-0.8,5.4-1
				c-0.3-0.8-0.4-1.5-0.4-2.4c0-1.1,0.2-2.1,0.7-3c0.9-2,2.7-3.6,4.9-4.5c-1.3-3.2-4.8-5.5-9-5.5c-5.2,0-9.4,3.6-9.5,8
				C64,96.4,58.6,99.2,57.6,102.7"/>
			<path class="st4" d="M84.3,103.1c0,0.1,0.1,0.2,0.1,0.4c0.4-0.1,0.7-0.3,1-0.5C85.1,103.1,84.7,103.1,84.3,103.1"/>
			<path class="st4" d="M84.3,103.1c0,0.1,0.1,0.2,0.1,0.4c0.4-0.1,0.7-0.3,1-0.5C85.1,103.1,84.7,103.1,84.3,103.1"/>
			<path class="st4" d="M46.7,108.3c0,3.3,7.3,5.9,16.3,5.9c4.9,0,9.4-0.8,12.4-2.1l0,0c-1.7-0.9-2.7-2.1-2.7-3.3
				c0-1.5,1.5-2.8,3.9-3.9c-2.9-1.6-7.9-2.6-13.5-2.6c-1.9,0-3.7,0.1-5.4,0.3C51.2,103.5,46.7,105.7,46.7,108.3"/>
			<path class="st4" d="M75.3,112.1L75.3,112.1C75.4,112.1,75.4,112.1,75.3,112.1C75.4,112.1,75.3,112.1,75.3,112.1"/>
			<path class="st4" d="M84.3,103.1c0,0.1,0.1,0.2,0.1,0.4c0.4-0.1,0.7-0.3,1-0.5C85.1,103.1,84.7,103.1,84.3,103.1"/>
			<path class="st4" d="M75.3,112.1L75.3,112.1C75.4,112.1,75.4,112.1,75.3,112.1C75.4,112.1,75.3,112.1,75.3,112.1"/>
		</g>
		<g>
			<path class="st5" d="M160.2,96.9c1.2,0.3,2.5,0.4,3.9,0.4c5.3,0,9.5-2.3,9.5-5.1c0-2.8-4-5-9.1-5.1c-0.2,0-0.3,0-0.4,0
				c-1,0-2,0.1-3,0.3c1,0.3,1.9,0.6,2.7,1c2.3,1,3.6,2.3,3.6,3.7C167.4,94,164.5,95.8,160.2,96.9"/>
			<path class="st5" d="M161.1,87.3c1,0.3,1.9,0.6,2.7,1c0.3-0.4,0.5-0.8,0.7-1.2c-0.2,0-0.3,0-0.4,0C163,87.1,162,87.2,161.1,87.3"
				/>
			<path class="st5" d="M146.5,86.3c0,0.1,0.1,0.2,0.1,0.4c0.4-0.1,0.7-0.3,1-0.5C147.3,86.2,146.9,86.3,146.5,86.3"/>
			<path class="st5" d="M134.8,92c0,1.2,1,2.3,2.7,3.3h0.1l0,0c2.9,1.6,7.9,2.6,13.5,2.6c3.4,0,6.5-0.4,9.1-1
				c4.4-1.1,7.2-2.9,7.2-4.9c0-1.4-1.4-2.7-3.6-3.7c-0.8-0.4-1.7-0.7-2.7-1c0.9-0.2,1.9-0.3,3-0.3c0.2,0,0.3,0,0.4,0
				c0.5-1,0.7-2,0.7-3.1c0-4.5-4.3-8.2-9.5-8.2c-1.4,0-2.8,0.3-4,0.7c-2.2,0.9-4,2.5-4.9,4.5c-0.4,0.9-0.7,2-0.7,3
				c0,0.8,0.1,1.6,0.4,2.4c0.4,0,0.8-0.1,1.2-0.1c-0.3,0.2-0.7,0.3-1,0.5c0-0.1-0.1-0.2-0.1-0.4c-2,0.2-3.8,0.5-5.4,1
				c-0.9,0.3-1.7,0.5-2.4,0.8C136.3,89.2,134.8,90.5,134.8,92"/>
			<path class="st5" d="M119.8,85.8c1.7-0.2,3.5-0.3,5.4-0.3c5.6,0,10.6,1,13.5,2.6c0.7-0.3,1.5-0.6,2.4-0.8c1.6-0.4,3.4-0.8,5.4-1
				c-0.3-0.8-0.4-1.5-0.4-2.4c0-1.1,0.2-2.1,0.7-3c0.9-2,2.7-3.6,4.9-4.5c-1.3-3.2-4.8-5.5-9-5.5c-5.2,0-9.4,3.6-9.5,8
				C126.3,79.5,120.8,82.3,119.8,85.8"/>
			<path class="st5" d="M146.5,86.3c0,0.1,0.1,0.2,0.1,0.4c0.4-0.1,0.7-0.3,1-0.5C147.3,86.2,146.9,86.3,146.5,86.3"/>
			<path class="st5" d="M146.5,86.3c0,0.1,0.1,0.2,0.1,0.4c0.4-0.1,0.7-0.3,1-0.5C147.3,86.2,146.9,86.3,146.5,86.3"/>
			<path class="st5" d="M108.9,91.4c0,3.3,7.3,5.9,16.3,5.9c4.9,0,9.4-0.8,12.4-2.1l0,0c-1.7-0.9-2.7-2.1-2.7-3.3
				c0-1.5,1.5-2.8,3.9-3.9c-2.9-1.6-7.9-2.6-13.5-2.6c-1.9,0-3.7,0.1-5.4,0.3C113.4,86.7,108.9,88.8,108.9,91.4"/>
			<path class="st5" d="M146.5,86.3c0,0.1,0.1,0.2,0.1,0.4c0.4-0.1,0.7-0.3,1-0.5C147.3,86.2,146.9,86.3,146.5,86.3"/>
		</g>
		<g>
			<path class="st6" d="M292.4,109.4c1.2,0.3,2.5,0.4,3.9,0.4c5.3,0,9.5-2.3,9.5-5.1c0-2.8-4-5-9.1-5.1c-0.2,0-0.3,0-0.4,0
				c-1,0-2,0.1-3,0.3c1,0.3,1.9,0.6,2.7,1c2.3,1,3.6,2.3,3.6,3.7C299.6,106.6,296.8,108.4,292.4,109.4"/>
			<path class="st6" d="M293.3,99.8c1,0.3,1.9,0.6,2.7,1c0.3-0.4,0.5-0.8,0.7-1.2c-0.2,0-0.3,0-0.4,0
				C295.2,99.6,294.2,99.7,293.3,99.8"/>
			<path class="st6" d="M278.7,98.9c0,0.1,0.1,0.2,0.1,0.4c0.4-0.1,0.7-0.3,1-0.5C279.5,98.8,279.1,98.8,278.7,98.9"/>
			<path class="st6" d="M267,104.5c0,1.2,1,2.3,2.7,3.3h0.1l0,0c2.9,1.6,7.9,2.6,13.5,2.6c3.4,0,6.5-0.4,9.1-1
				c4.4-1.1,7.2-2.9,7.2-4.9c0-1.4-1.4-2.7-3.6-3.7c-0.8-0.4-1.7-0.7-2.7-1c0.9-0.2,1.9-0.3,3-0.3c0.2,0,0.3,0,0.4,0
				c0.5-1,0.7-2,0.7-3.1c0-4.5-4.3-8.2-9.5-8.2c-1.4,0-2.8,0.3-4,0.7c-2.2,0.9-4,2.5-4.9,4.5c-0.4,0.9-0.7,2-0.7,3
				c0,0.8,0.1,1.6,0.4,2.4c0.4,0,0.8-0.1,1.2-0.1c-0.3,0.2-0.7,0.3-1,0.5c0-0.1-0.1-0.2-0.1-0.4c-2,0.2-3.8,0.5-5.4,1
				c-0.9,0.3-1.7,0.5-2.4,0.8C268.5,101.7,267,103,267,104.5"/>
			<path class="st6" d="M252,98.4c1.7-0.2,3.5-0.3,5.4-0.3c5.6,0,10.6,1,13.5,2.6c0.7-0.3,1.5-0.6,2.4-0.8c1.6-0.4,3.4-0.8,5.4-1
				c-0.3-0.8-0.4-1.5-0.4-2.4c0-1.1,0.2-2.1,0.7-3c0.9-2,2.7-3.6,4.9-4.5c-1.3-3.2-4.8-5.5-9-5.5c-5.2,0-9.4,3.6-9.5,8
				C258.5,92.1,253,94.9,252,98.4"/>
			<path class="st6" d="M278.7,98.9c0,0.1,0.1,0.2,0.1,0.4c0.4-0.1,0.7-0.3,1-0.5C279.5,98.8,279.1,98.8,278.7,98.9"/>
			<path class="st6" d="M278.7,98.9c0,0.1,0.1,0.2,0.1,0.4c0.4-0.1,0.7-0.3,1-0.5C279.5,98.8,279.1,98.8,278.7,98.9"/>
			<path class="st6" d="M241.1,104c0,3.3,7.3,5.9,16.3,5.9c4.9,0,9.4-0.8,12.4-2.1l0,0c-1.7-0.9-2.7-2.1-2.7-3.3
				c0-1.5,1.5-2.8,3.9-3.9c-2.9-1.6-7.9-2.6-13.5-2.6c-1.9,0-3.7,0.1-5.4,0.3C245.7,99.2,241.1,101.4,241.1,104"/>
			<path class="st6" d="M278.7,98.9c0,0.1,0.1,0.2,0.1,0.4c0.4-0.1,0.7-0.3,1-0.5C279.5,98.8,279.1,98.8,278.7,98.9"/>
		</g>
		<path class="st3" d="M201.8,103.8c0,3.8,6.3,6.8,14.1,6.8s14.1-3,14.1-6.8s-6.4-6.8-14.2-6.8C208.1,97,201.8,100,201.8,103.8"/>
		<path class="st3" d="M201.1,90.6c-7.1,0.7-12.6,4.3-12.2,8.1c0.4,3.8,6.4,6.3,13.5,5.6c7.1-0.7,12.6-4.3,12.2-8.1
			S208.2,89.9,201.1,90.6"/>
		<path class="st3" d="M208.2,105.5c0,2.9,6.8,5.2,15.3,5.2c8.4,0,15.3-2.4,15.3-5.2s-6.8-5.2-15.3-5.2
			C215.1,100.3,208.2,102.6,208.2,105.5"/>
		<path class="st3" d="M268.4,119.4c0,4.4-9.1,8-20.2,8s-20.2-3.6-20.2-8s9.1-8,20.2-8S268.4,115,268.4,119.4"/>
		<path class="st3" d="M302,119.9c0,4.4-9.1,8-20.2,8s-20.2-3.6-20.2-8s9.1-8,20.2-8C292.9,111.9,302,115.5,302,119.9"/>
		<path class="st3" d="M302,121.2c0,4.4-16.1,8-36,8s-36-3.6-36-8s16.1-8,36-8S302,116.8,302,121.2"/>
		<path class="st3" d="M318.5,124.8c0,2.5-11.6,4.5-25.9,4.5s-25.9-2-25.9-4.5s11.6-4.5,25.9-4.5
			C306.8,120.2,318.5,122.3,318.5,124.8"/>
		<path class="st3" d="M278.8,109.5c0,6.4-7.2,11.6-16.1,11.6c-8.9,0-16.1-5.2-16.1-11.6S253.8,98,262.7,98
			C271.6,98,278.8,103.1,278.8,109.5"/>
		<path class="st3" d="M294.5,112.2c0,5.5-5.9,9.9-13.1,9.9c-7.3,0-13.1-4.4-13.1-9.9s5.9-9.9,13.1-9.9
			C288.6,102.3,294.5,106.7,294.5,112.2"/>
		<rect x="35.9" y="425.7" class="st7" width="298.6" height="34.4"/>
		<ellipse class="st8" cx="184.6" cy="437.3" rx="80" ry="17.4"/>
		<path class="st9" d="M270.5,426.8h-96.6c27.2-5.2,53-16.5,67.7-31.3c0.4-0.4,0.8-0.8,1.2-1.2c0.7,4.4,2.6,8.9,5.8,13.4
			C253.6,414.9,261.2,421.3,270.5,426.8"/>
		<path class="st9" d="M319.5,426.8h-91.7c25.8-5.9,50.3-18.8,64.3-35.6c0.4-0.5,0.8-0.9,1.1-1.4c0.7,5,2.5,10.1,5.5,15.3
			C303.5,413.3,310.7,420.6,319.5,426.8"/>
		<path class="st7" d="M310.5,445h-91.7c25.8-5.9,50.3-18.8,64.3-35.6c0.4-0.5,0.8-0.9,1.1-1.4c0.7,5,2.5,10.1,5.5,15.3
			C294.4,431.4,301.6,438.7,310.5,445"/>
		<path class="st9" d="M126.5,426l-77.9,0.1c21.9-6.1,42.7-19.6,54.6-37.2c0.3-0.5,0.7-1,1-1.5c0.6,5.2,2.1,10.5,4.7,16
			C112.8,411.8,118.9,419.5,126.5,426"/>
		<ellipse class="st10" cx="109.8" cy="427.4" rx="30" ry="14.1"/>
		<ellipse class="st10" cx="238.8" cy="434.1" rx="54.7" ry="10.9"/>
		<path class="st9" d="M164.1,423.2H91.3c20.5-4.3,39.9-13.7,51-26.1c0.3-0.3,0.6-0.7,0.9-1c0.5,3.6,2,7.4,4.4,11.2
			C151.4,413.2,157.1,418.6,164.1,423.2"/>
		<path class="st9" d="M215.8,426h-80.3c22.6-6.6,44.1-21,56.3-39.8c0.3-0.5,0.7-1.1,1-1.6c0.6,5.5,2.2,11.3,4.8,17.1
			C201.7,410.8,208,419.1,215.8,426"/>
		<ellipse class="st10" cx="157.7" cy="435.2" rx="42.5" ry="14.1"/>
		<path class="st7" d="M113.1,444.9L41.4,445c20.2-6.1,39.3-19.6,50.3-37.2c0.3-0.5,0.6-1,0.9-1.5c0.5,5.2,1.9,10.5,4.3,16
			C100.6,430.8,106.2,438.4,113.1,444.9"/>
		<path class="st7" d="M171.3,447.1H83.1c24.9-6.2,48.4-19.9,61.8-37.6c0.4-0.5,0.7-1,1.1-1.5c0.6,5.2,2.4,10.7,5.3,16.2
			C155.9,432.7,162.8,440.5,171.3,447.1"/>
		<path class="st7" d="M255.2,444.9l-90.4,0.1c25.5-5.9,49.6-18.8,63.4-35.6c0.4-0.5,0.8-0.9,1.1-1.4c0.7,5,2.4,10.1,5.4,15.3
			C239.4,431.4,246.5,438.7,255.2,444.9"/>
		<path class="st7" d="M215.8,449.3h-106c29.9-6.1,58.2-19.6,74.3-37.2c0.4-0.5,0.9-1,1.3-1.5c0.8,5.2,2.9,10.6,6.4,16
			C197.2,435.1,205.6,442.8,215.8,449.3"/>
		<g>
			<g>
				<g>
					<g>
						<g>
							<g>
								<defs>
									<rect id="SVGID_1_" x="234.4" y="373.6" width="85.7" height="66.4"/>
								</defs>
								<clipPath id="SVGID_2_">
									<use xlink:href="#SVGID_1_"  style="overflow:visible;"/>
								</clipPath>
								<path class="st11" d="M256,400.1c0.8,2.5-0.7,5.3-3.4,6.2c-2.7,0.9-5.6-0.4-6.5-2.9s0.7-5.3,3.4-6.2
									C252.3,396.3,255.2,397.6,256,400.1"/>
							</g>
						</g>
					</g>
				</g>
				<g>
					<g>
						<g>
							<g>
								<defs>
									<rect id="SVGID_3_" x="234.4" y="373.6" width="85.7" height="66.4"/>
								</defs>
								<clipPath id="SVGID_4_">
									<use xlink:href="#SVGID_3_"  style="overflow:visible;"/>
								</clipPath>
								<path class="st12" d="M274.7,400.3c0.8,2.5-0.7,5.3-3.4,6.2c-2.7,0.9-5.6-0.4-6.5-2.9c-0.8-2.5,0.7-5.3,3.4-6.2
									C270.9,396.5,273.8,397.8,274.7,400.3"/>
							</g>
						</g>
					</g>
				</g>
				<g>
					<g>
						<g>
							<g>
								<defs>
									<rect id="SVGID_5_" x="234.4" y="373.6" width="85.7" height="66.4"/>
								</defs>
								<clipPath id="SVGID_6_">
									<use xlink:href="#SVGID_5_"  style="overflow:visible;"/>
								</clipPath>
								<path class="st13" d="M274.8,411.3c0,7-6.4,12.7-14.3,12.7c-7.9,0-14.3-5.7-14.3-12.7s6.4-12.7,14.3-12.7
									C268.4,398.7,274.8,404.3,274.8,411.3"/>
							</g>
						</g>
					</g>
				</g>
			</g>
			<polygon class="st14" points="320.1,389.6 285.1,375.5 285.1,412.8 			"/>
			<g>
				<g>
					<g>
						<g>
							<g>
								<defs>
									<rect id="SVGID_7_" x="234.4" y="373.6" width="85.7" height="66.4"/>
								</defs>
								<clipPath id="SVGID_8_">
									<use xlink:href="#SVGID_7_"  style="overflow:visible;"/>
								</clipPath>
								<path class="st15" d="M298.4,425.3c0,8.1-14.3,14.7-32,14.7s-32-6.6-32-14.7c0-2.9,1.8-5.5,4.9-7.8c5.4,4.6,16,7.8,28.3,7.8
									c11.4,0,21.4-2.7,27.1-6.9C297.1,420.5,298.4,422.9,298.4,425.3"/>
							</g>
						</g>
					</g>
				</g>
				<g>
					<g>
						<g>
							<g>
								<defs>
									<rect id="SVGID_9_" x="234.4" y="373.6" width="85.7" height="66.4"/>
								</defs>
								<clipPath id="SVGID_10_">
									<use xlink:href="#SVGID_9_"  style="overflow:visible;"/>
								</clipPath>
								<path class="st16" d="M246.5,411.7c0-0.6,0.1-1.1,0.2-1.7c0.8,6.4,6.6,11.4,13.9,11.6c7.2,0.2,13.3-4.7,14.3-11
									c0.1,0.5,0.1,1.1,0.1,1.7c-0.2,7.2-6.6,12.8-14.5,12.7C252.6,424.8,246.3,418.9,246.5,411.7"/>
							</g>
						</g>
					</g>
				</g>
				<g>
					<g>
						<g>
							<g>
								<defs>
									<rect id="SVGID_11_" x="234.4" y="373.6" width="85.7" height="66.4"/>
								</defs>
								<clipPath id="SVGID_12_">
									<use xlink:href="#SVGID_11_"  style="overflow:visible;"/>
								</clipPath>
								<path class="st17" d="M257.4,410.7c-0.1,4.2-3.5,7.5-7.7,7.4s-7.5-3.5-7.4-7.7s3.5-7.5,7.7-7.4
									C254.2,403.1,257.5,406.6,257.4,410.7"/>
							</g>
						</g>
					</g>
				</g>
				<g>
					<g>
						<g>
							<g>
								<defs>
									<rect id="SVGID_13_" x="234.4" y="373.6" width="85.7" height="66.4"/>
								</defs>
								<clipPath id="SVGID_14_">
									<use xlink:href="#SVGID_13_"  style="overflow:visible;"/>
								</clipPath>
								<path class="st18" d="M254.9,413.2c0,2-1.7,3.6-3.8,3.6c-2,0-3.6-1.7-3.6-3.8c0-2,1.7-3.6,3.8-3.6
									C253.4,409.5,255,411.2,254.9,413.2"/>
							</g>
						</g>
					</g>
				</g>
				<g>
					<g>
						<g>
							<g>
								<defs>
									<rect id="SVGID_15_" x="234.4" y="373.6" width="85.7" height="66.4"/>
								</defs>
								<clipPath id="SVGID_16_">
									<use xlink:href="#SVGID_15_"  style="overflow:visible;"/>
								</clipPath>
								<path class="st19" d="M263.2,418.5c0,0.5-1.2,1-2.6,1c-1.5,0-2.6-0.4-2.6-1c0-0.5,1.2-1,2.6-1
									C262.1,417.5,263.2,418,263.2,418.5"/>
							</g>
						</g>
					</g>
				</g>
				<g>
					<g>
						<g>
							<g>
								<defs>
									<rect id="SVGID_17_" x="234.4" y="373.6" width="85.7" height="66.4"/>
								</defs>
								<clipPath id="SVGID_18_">
									<use xlink:href="#SVGID_17_"  style="overflow:visible;"/>
								</clipPath>
								<path class="st20" d="M267.1,394.9c2.5-1.5,5.9-0.3,7.6,2.6c1.4,2.3,1.3,5.1-0.1,6.8c-0.1-0.8-0.4-1.7-0.9-2.4
									c-1.7-2.9-5.1-4-7.6-2.6c-0.5,0.3-0.9,0.7-1.3,1.1C264.5,398.2,265.3,396,267.1,394.9"/>
							</g>
						</g>
					</g>
				</g>
				<g>
					<g>
						<g>
							<g>
								<defs>
									<rect id="SVGID_19_" x="234.4" y="373.6" width="85.7" height="66.4"/>
								</defs>
								<clipPath id="SVGID_20_">
									<use xlink:href="#SVGID_19_"  style="overflow:visible;"/>
								</clipPath>
								<path class="st21" d="M245.1,399.1c0.6-2.8,3.4-4.5,6.1-3.8c2.2,0.5,3.8,2.4,3.9,4.5c-0.6-0.4-1.2-0.8-2-0.9
									c-2.8-0.6-5.5,1.1-6.1,3.8c-0.1,0.5-0.2,1.1-0.1,1.6C245.5,403.1,244.7,401.1,245.1,399.1"/>
							</g>
						</g>
					</g>
				</g>
				<g>
					<g>
						<g>
							<g>
								<defs>
									<rect id="SVGID_21_" x="234.4" y="373.6" width="85.7" height="66.4"/>
								</defs>
								<clipPath id="SVGID_22_">
									<use xlink:href="#SVGID_21_"  style="overflow:visible;"/>
								</clipPath>
								<path class="st22" d="M273.5,405c0,0.5-0.1,0.9-0.3,1.4c-1.3-2.8-6.7-4.9-13-4.9c-6.4,0-11.7,2.1-13,4.9
									c-0.2-0.4-0.3-0.9-0.3-1.4c0-3.5,6-6.3,13.4-6.3C267.7,398.7,273.5,401.5,273.5,405"/>
							</g>
						</g>
					</g>
				</g>
				<g>
					<g>
						<g>
							<g>
								<defs>
									<rect id="SVGID_23_" x="234.4" y="373.6" width="85.7" height="66.4"/>
								</defs>
								<clipPath id="SVGID_24_">
									<use xlink:href="#SVGID_23_"  style="overflow:visible;"/>
								</clipPath>
								<path class="st23" d="M264.6,410.4c-0.1,4.2,3.2,7.6,7.4,7.7c4.2,0.1,7.6-3.2,7.7-7.4c0.1-4.2-3.2-7.6-7.4-7.7
									C268.1,403,264.7,406.2,264.6,410.4"/>
							</g>
						</g>
					</g>
				</g>
				<g>
					<g>
						<g>
							<g>
								<defs>
									<rect id="SVGID_25_" x="234.4" y="373.6" width="85.7" height="66.4"/>
								</defs>
								<clipPath id="SVGID_26_">
									<use xlink:href="#SVGID_25_"  style="overflow:visible;"/>
								</clipPath>
								<path class="st24" d="M270.2,413.1c0,2,1.6,3.7,3.6,3.8c2,0,3.7-1.6,3.8-3.6c0-2-1.6-3.7-3.6-3.8
									C271.9,409.4,270.2,411,270.2,413.1"/>
							</g>
						</g>
					</g>
				</g>
			</g>
			<polygon class="st25" points="282.5,373.8 282.5,411.8 311.6,386.1 			"/>
			<polygon class="st26" points="282.9,374.3 282.4,411.7 294.5,401.4 			"/>
			<polygon class="st27" points="282.4,373.6 282.4,426.3 287,426.3 287.4,375.8 			"/>
			<polygon class="st28" points="282.4,373.6 286.4,424 287,426.3 287.4,375.8 			"/>
			<g>
				<g>
					<g>
						<g>
							<g>
								<defs>
									<rect id="SVGID_27_" x="234.4" y="373.6" width="85.7" height="66.4"/>
								</defs>
								<clipPath id="SVGID_28_">
									<use xlink:href="#SVGID_27_"  style="overflow:visible;"/>
								</clipPath>
								<path class="st29" d="M298.4,422.9c0,8.1-14.3,14.7-32,14.7s-32-6.6-32-14.7c0-2.9,1.8-5.5,4.9-7.8c5.4,4.6,16,7.8,28.3,7.8
									c11.4,0,21.4-2.7,27.1-6.9C297.1,418.1,298.4,420.4,298.4,422.9"/>
							</g>
						</g>
					</g>
				</g>
				<g>
					<g>
						<g>
							<g>
								<defs>
									<rect id="SVGID_29_" x="234.4" y="373.6" width="85.7" height="66.4"/>
								</defs>
								<clipPath id="SVGID_30_">
									<use xlink:href="#SVGID_29_"  style="overflow:visible;"/>
								</clipPath>
								<path class="st30" d="M296.7,425.8c0,4.8-13.9,8.6-31.1,8.6s-31.1-3.9-31.1-8.6c0-1.7,1.8-3.3,4.8-4.6
									c5.2,2.7,15.6,4.6,27.5,4.6c11.1,0,20.8-1.6,26.3-4C295.4,422.9,296.7,424.3,296.7,425.8"/>
							</g>
						</g>
					</g>
				</g>
				<g>
					<g>
						<g>
							<g>
								<defs>
									<rect id="SVGID_31_" x="234.4" y="373.6" width="85.7" height="66.4"/>
								</defs>
								<clipPath id="SVGID_32_">
									<use xlink:href="#SVGID_31_"  style="overflow:visible;"/>
								</clipPath>
								<path class="st31" d="M293.1,425.6c0,4-13.1,7.3-29.3,7.3c-16.2,0-29.3-3.3-29.3-7.3c0-1.4,1.7-2.8,4.5-3.9
									c4.9,2.3,14.7,3.9,25.9,3.9c10.5,0,19.6-1.4,24.8-3.4C291.9,423.2,293.1,424.4,293.1,425.6"/>
							</g>
						</g>
					</g>
				</g>
				<g>
					<g>
						<g>
							<g>
								<defs>
									<rect id="SVGID_33_" x="234.4" y="373.6" width="85.7" height="66.4"/>
								</defs>
								<clipPath id="SVGID_34_">
									<use xlink:href="#SVGID_33_"  style="overflow:visible;"/>
								</clipPath>
								<path class="st32" d="M282.4,424.8c0,3.3-10.7,5.9-24,5.9c-13.2,0-24-2.6-24-5.9c0-1.2,1.4-2.2,3.7-3.2
									c4,1.9,12,3.2,21.2,3.2c8.5,0,16-1.1,20.3-2.8C281.4,422.8,282.4,423.8,282.4,424.8"/>
							</g>
						</g>
					</g>
				</g>
				<g>
					<g>
						<g>
							<g>
								<defs>
									<rect id="SVGID_35_" x="234.4" y="373.6" width="85.7" height="66.4"/>
								</defs>
								<clipPath id="SVGID_36_">
									<use xlink:href="#SVGID_35_"  style="overflow:visible;"/>
								</clipPath>
								<path class="st33" d="M275.2,426c0,2-9.1,3.7-20.4,3.7c-11.3,0-20.4-1.7-20.4-3.7c0-0.7,1.2-1.4,3.1-2c3.4,1.2,10.2,2,18,2
									c7.3,0,13.7-0.7,17.3-1.7C274.4,424.8,275.2,425.4,275.2,426"/>
							</g>
						</g>
					</g>
				</g>
				<g>
					<g>
						<g>
							<g>
								<defs>
									<rect id="SVGID_37_" x="234.4" y="373.6" width="85.7" height="66.4"/>
								</defs>
								<clipPath id="SVGID_38_">
									<use xlink:href="#SVGID_37_"  style="overflow:visible;"/>
								</clipPath>
								<path class="st34" d="M289.3,423.1c0.3,0.8-0.7,1.8-2.1,2.3s-2.8,0.2-3-0.6c-0.3-0.8,0.7-1.8,2.1-2.3
									C287.7,422.1,289,422.4,289.3,423.1"/>
							</g>
						</g>
					</g>
				</g>
			</g>
		</g>
		<polygon class="st3" points="292.7,160.7 292.7,324.5 274.3,350.6 93,350.6 75.7,327.3 75.7,161.8 95.3,133.6 274.1,133.6 		"/>
		<g id="Image">
			<circle class="st3" cx="240" cy="291.2" r="44.4"/>
			<circle class="st35" cx="240" cy="291.2" r="38.5"/>
			<circle class="st3" cx="240" cy="291.2" r="31.4"/>
			<circle class="st35" cx="240" cy="291.2" r="27.7"/>
			<path class="st36" d="M219.3,290.7C219.3,290.1,219.3,291.2,219.3,290.7l-3.2-2.7c0,0.5,0,1,0,1.6c0,12.1,7.8,22.5,18.7,26.2
				L234,312C224.9,308.3,219.3,301,219.3,290.7z"/>
			<path class="st36" d="M228,292l-3.9-1.3c1.4,5.2,4.4,9.8,8.3,13.3v-4.6C230.2,296.9,229,295.3,228,292z"/>
			<g>
				<g>
					<path class="st37" d="M247.3,277.9L247.3,277.9L247.3,277.9L247.3,277.9z"/>
					<path class="st37" d="M247.4,277.9L247.4,277.9L247.4,277.9C247.3,277.9,247.3,277.9,247.4,277.9"/>
					<path class="st3" d="M259.1,281.9c0.4,2.5-5.7,5.5-13.6,6.7c-7.9,1.2-14.6,0.1-14.9-2.4c-0.4-2.5,5.7-5.5,13.6-6.7
						C252,278.4,258.7,279.4,259.1,281.9"/>
					<path class="st38" d="M258.8,280.6c1.2,6.7-4.5,13.3-12.6,14.7c-8.1,1.4-15.7-2.9-16.9-9.6c-0.2-1-0.2-2-0.1-3
						c0.2,0.6,0.5,1.2,0.9,1.7c1.2,2.8,7.4,4.1,14.5,2.9c6.5-1.1,11.6-4,12.5-6.9c0.4-0.8,0.7-1.8,0.7-2.7
						C258.3,278.6,258.6,279.6,258.8,280.6"/>
					<path class="st39" d="M260,276.8c0.1,0.8-0.2,1.7-1,2.5c-1.3,2-7.3,4.3-14.7,5.6c-8.1,1.4-15.1,1.1-16.2-0.7
						c-0.6-0.4-1-1-1.2-1.7c-0.4-2.3,3-4.7,7.5-5.5c2.8-0.5,5.4-0.2,7.1,0.6c1,0.5,1.7,1.2,1.9,2.1c-0.2-0.9,0.2-1.8,1.1-2.6
						c1.3-1.3,3.7-2.5,6.5-2.9C255.6,273.4,259.6,274.5,260,276.8"/>
				</g>
			</g>
		</g>
		<g id="Text_1_">
			<g>
				<path class="st3" d="M217,267.5c-0.9-1.2-0.6-2.8,0.5-3.7c0.5-0.4,1.1-0.6,1.7-0.6c0.2,0,0.4,0.2,0.4,0.4c0,0.2-0.2,0.4-0.4,0.4
					c-0.4,0-0.8,0.1-1.2,0.4s-0.7,0.8-0.7,1.2c-0.1,0.5,0,0.9,0.3,1.3s0.7,0.6,1.2,0.7s1-0.1,1.4-0.4c0.3-0.2,0.5-0.5,0.6-0.8
					l-0.6-0.8l-0.8,0.6c-0.2,0.1-0.4,0.1-0.6-0.1c-0.1-0.2-0.1-0.4,0.1-0.6l1.1-0.9l0,0l0,0c0.2-0.1,0.4-0.1,0.6,0.1l1,1.3
					c0,0,0,0.1,0.1,0.1l0,0l0,0c0,0.1,0,0.1,0,0.2c-0.1,0.6-0.5,1.1-1,1.5C219.6,268.8,217.9,268.6,217,267.5z"/>
				<path class="st3" d="M223.3,265.5c-0.4-0.1-0.8-0.4-1.1-0.9c-0.2-0.4-0.3-0.9-0.2-1.4s0.4-0.8,0.8-1.1c0.4-0.2,0.9-0.2,1.3-0.1
					c0.5,0.2,0.8,0.4,1.1,0.9c0.2,0.5,0.3,0.9,0.2,1.4c-0.1,0.4-0.4,0.8-0.8,1.1C224.3,265.7,223.8,265.7,223.3,265.5z M223,264.2
					c0.1,0.3,0.4,0.5,0.6,0.6c0.2,0.1,0.5,0,0.7-0.1s0.4-0.3,0.5-0.6c0.1-0.3,0-0.5-0.1-0.8s-0.4-0.4-0.6-0.5
					c-0.2-0.1-0.5,0-0.7,0.1s-0.4,0.3-0.5,0.6C222.8,263.7,222.8,264,223,264.2z"/>
				<path class="st3" d="M227.3,263.5c-0.4-0.2-0.7-0.6-0.9-1c-0.2-0.5-0.1-0.9,0-1.4c0.2-0.4,0.5-0.8,1-1s0.9-0.1,1.3,0.1
					c0.4,0.2,0.8,0.6,0.9,1c0.2,0.5,0.2,1,0,1.4s-0.5,0.8-1,0.9C228.2,263.8,227.8,263.7,227.3,263.5z M227.2,262.2
					c0.1,0.3,0.3,0.5,0.5,0.6s0.5,0.1,0.8,0c0.2-0.1,0.4-0.3,0.5-0.5c0.1-0.3,0.1-0.5,0-0.8s-0.3-0.5-0.5-0.6s-0.5-0.1-0.7,0
					c-0.3,0.1-0.4,0.3-0.6,0.5C227.1,261.6,227.1,261.9,227.2,262.2z"/>
				<path class="st3" d="M234.5,261.6c0,0.2-0.1,0.4-0.3,0.5c-0.2,0-0.4-0.1-0.4-0.2c-0.2,0.2-0.6,0.4-0.9,0.5
					c-1,0.2-1.9-0.4-2.1-1.4c-0.2-1,0.4-2,1.4-2.2c0.4-0.1,0.7,0,1,0.1l-0.3-1.3c0-0.2,0.1-0.4,0.3-0.5c0.2,0,0.4,0.1,0.5,0.3
					l0.6,2.8l0,0L234.5,261.6z M232.3,259.6c-0.3,0.1-0.5,0.2-0.6,0.4c-0.1,0.2-0.2,0.5-0.1,0.8c0.1,0.3,0.2,0.5,0.4,0.6
					s0.5,0.2,0.7,0.2c0.3-0.1,0.5-0.2,0.6-0.4c0.1-0.2,0.2-0.5,0.1-0.8c-0.1-0.3-0.2-0.5-0.4-0.7
					C232.8,259.6,232.5,259.5,232.3,259.6z"/>
				<path class="st3" d="M241.3,257.4h-1.2v3.9c0,0.2-0.2,0.4-0.4,0.4s-0.4-0.2-0.4-0.4v-3.9h-1.2c-0.2,0-0.4-0.2-0.4-0.4
					s0.2-0.4,0.4-0.4h3.1c0.2,0,0.4,0.2,0.4,0.4C241.7,257.2,241.5,257.4,241.3,257.4z"/>
				<path class="st3" d="M244.9,260.2l-0.2,1.4c0,0.2-0.2,0.4-0.4,0.3c-0.2,0-0.3-0.2-0.3-0.4c-0.3,0.2-0.6,0.2-1,0.2
					c-0.5-0.1-0.9-0.3-1.2-0.7c-0.3-0.4-0.4-0.8-0.3-1.3c0.1-0.5,0.3-0.9,0.6-1.2c0.4-0.3,0.8-0.5,1.3-0.4c0.4,0,0.7,0.2,0.9,0.4
					c0.1-0.2,0.2-0.3,0.4-0.3s0.4,0.2,0.3,0.4L244.9,260.2z M244.2,260.2c0-0.3,0-0.6-0.2-0.8c-0.2-0.2-0.4-0.3-0.6-0.4
					c-0.3,0-0.5,0-0.7,0.2s-0.3,0.4-0.4,0.7c0,0.3,0,0.6,0.2,0.8c0.1,0.2,0.4,0.3,0.6,0.4c0.3,0,0.5,0,0.7-0.2
					S244.1,260.5,244.2,260.2z"/>
				<path class="st3" d="M247.7,257.4c0.2,0,0.4,0.3,0.3,0.5l-0.9,4.2c0,0.2-0.3,0.4-0.5,0.3c-0.2,0-0.4-0.3-0.3-0.5l0.9-4.2
					C247.2,257.5,247.4,257.4,247.7,257.4z"/>
				<path class="st3" d="M247.9,262.3l1.3-4.1c0.1-0.2,0.3-0.3,0.5-0.3c0.2,0.1,0.3,0.3,0.3,0.5l-0.8,2.4l1.9-1
					c0.2-0.1,0.4,0,0.5,0.2s0,0.4-0.2,0.5l-1.4,0.7l0.7,1.6c0.1,0.2,0,0.4-0.2,0.5c-0.1,0-0.2,0-0.3,0s-0.2-0.1-0.2-0.2l-0.6-1.6
					l-0.5,0.3l-0.2,0.6c-0.1,0.2-0.3,0.3-0.5,0.3C248,262.8,247.8,262.6,247.9,262.3z"/>
				<path class="st3" d="M251.9,262.2c0.4-0.9,1.5-1.3,2.4-0.9s1.2,1.4,0.9,2.3l0,0c0,0,0,0,0,0.1c-0.1,0.1-0.3,0.2-0.5,0.1l-2.1-1
					c0,0.2,0,0.4,0,0.5c0.1,0.2,0.3,0.5,0.5,0.6s0.5,0.2,0.8,0.2c0.2-0.1,0.5,0.1,0.5,0.2s0,0.4-0.2,0.4c-0.5,0.1-0.9,0.1-1.4-0.1
					C251.8,264.1,251.5,263.1,251.9,262.2z M252.8,262.2l1.9,0.9c0.1-0.3-0.1-0.8-0.7-1.2C253.4,261.6,253,261.9,252.8,262.2z"/>
				<path class="st3" d="M258.7,264.1c-0.1,0.2-0.3,0.2-0.5,0.1c-0.1-0.1-0.3-0.1-0.4-0.1c-0.2,0-0.3,0.1-0.5,0.1
					c-0.3,0.1-0.5,0.3-0.6,0.4l-0.7,1.2c-0.1,0.2-0.4,0.2-0.5,0.1c-0.2-0.1-0.2-0.4-0.1-0.5l1.5-2.5c0.1-0.2,0.3-0.2,0.5-0.1
					c0.2,0.1,0.3,0.4,0.1,0.5l0,0c0.1,0,0.1,0,0.2,0c0.3,0,0.6,0,0.9,0.2C258.8,263.7,258.8,264,258.7,264.1z"/>
			</g>
			<g>
				<path class="st40" d="M216.5,267.5c-0.9-1.2-0.6-2.8,0.5-3.7c0.5-0.4,1.1-0.6,1.7-0.6c0.2,0,0.4,0.2,0.4,0.4
					c0,0.2-0.2,0.4-0.4,0.4c-0.4,0-0.8,0.1-1.2,0.4s-0.7,0.8-0.7,1.2c-0.1,0.5,0,0.9,0.3,1.3s0.7,0.6,1.2,0.7s1-0.1,1.4-0.4
					c0.3-0.2,0.5-0.5,0.6-0.8l-0.6-0.8l-0.8,0.6c-0.2,0.1-0.4,0.1-0.6-0.1c-0.1-0.2-0.1-0.4,0.1-0.6l1.1-0.9l0,0l0,0
					c0.2-0.1,0.4-0.1,0.6,0.1l1,1.3c0,0,0,0.1,0.1,0.1l0,0l0,0c0,0.1,0,0.1,0,0.2c-0.1,0.6-0.5,1.1-1,1.5
					C219.1,268.8,217.4,268.6,216.5,267.5z"/>
				<path class="st40" d="M222.8,265.5c-0.4-0.1-0.8-0.4-1.1-0.9c-0.2-0.4-0.3-0.9-0.2-1.4s0.4-0.8,0.8-1.1c0.4-0.2,0.9-0.2,1.3-0.1
					c0.5,0.2,0.8,0.4,1.1,0.9c0.2,0.5,0.3,0.9,0.2,1.4c-0.1,0.4-0.4,0.8-0.8,1.1S223.3,265.7,222.8,265.5z M222.5,264.2
					c0.1,0.3,0.4,0.5,0.6,0.6c0.2,0.1,0.5,0,0.7-0.1s0.4-0.3,0.5-0.6c0.1-0.3,0-0.5-0.1-0.8s-0.4-0.4-0.6-0.5
					c-0.2-0.1-0.5,0-0.7,0.1s-0.4,0.3-0.5,0.6C222.3,263.7,222.3,264,222.5,264.2z"/>
				<path class="st40" d="M226.8,263.5c-0.4-0.2-0.7-0.6-0.9-1c-0.2-0.5-0.1-0.9,0-1.4c0.2-0.4,0.5-0.8,1-1s0.9-0.1,1.3,0.1
					c0.4,0.2,0.8,0.6,0.9,1c0.2,0.5,0.2,1,0,1.4s-0.5,0.8-1,0.9C227.7,263.8,227.3,263.7,226.8,263.5z M226.7,262.2
					c0.1,0.3,0.3,0.5,0.5,0.6s0.5,0.1,0.8,0c0.2-0.1,0.4-0.3,0.5-0.5c0.1-0.3,0.1-0.5,0-0.8s-0.3-0.5-0.5-0.6s-0.5-0.1-0.7,0
					c-0.3,0.1-0.4,0.3-0.6,0.5C226.6,261.6,226.6,261.9,226.7,262.2z"/>
				<path class="st40" d="M234,261.6c0,0.2-0.1,0.4-0.3,0.5c-0.2,0-0.4-0.1-0.4-0.2c-0.2,0.2-0.6,0.4-0.9,0.5
					c-1,0.2-1.9-0.4-2.1-1.4c-0.2-1,0.4-2,1.4-2.2c0.4-0.1,0.7,0,1,0.1l-0.3-1.3c0-0.2,0.1-0.4,0.3-0.5c0.2,0,0.4,0.1,0.5,0.3
					l0.6,2.8l0,0L234,261.6z M231.8,259.6c-0.3,0.1-0.5,0.2-0.6,0.4c-0.1,0.2-0.2,0.5-0.1,0.8c0.1,0.3,0.2,0.5,0.4,0.6
					s0.5,0.2,0.7,0.2c0.3-0.1,0.5-0.2,0.6-0.4c0.1-0.2,0.2-0.5,0.1-0.8c-0.1-0.3-0.2-0.5-0.4-0.7C232.3,259.6,232,259.5,231.8,259.6
					z"/>
				<path class="st40" d="M240.8,257.4h-1.2v3.9c0,0.2-0.2,0.4-0.4,0.4s-0.4-0.2-0.4-0.4v-3.9h-1.2c-0.2,0-0.4-0.2-0.4-0.4
					s0.2-0.4,0.4-0.4h3.1c0.2,0,0.4,0.2,0.4,0.4C241.2,257.2,241,257.4,240.8,257.4z"/>
				<path class="st40" d="M244.4,260.2l-0.2,1.4c0,0.2-0.2,0.4-0.4,0.3c-0.2,0-0.3-0.2-0.3-0.4c-0.3,0.2-0.6,0.2-1,0.2
					c-0.5-0.1-0.9-0.3-1.2-0.7c-0.3-0.4-0.4-0.8-0.3-1.3c0.1-0.5,0.3-0.9,0.6-1.2c0.4-0.3,0.8-0.5,1.3-0.4c0.4,0,0.7,0.2,0.9,0.4
					c0.1-0.2,0.2-0.3,0.4-0.3s0.4,0.2,0.3,0.4L244.4,260.2z M243.6,260.2c0-0.3,0-0.6-0.2-0.8c-0.2-0.2-0.4-0.3-0.6-0.4
					c-0.3,0-0.5,0-0.7,0.2s-0.3,0.4-0.4,0.7c0,0.3,0,0.6,0.2,0.8c0.1,0.2,0.4,0.3,0.6,0.4c0.3,0,0.5,0,0.7-0.2
					C243.5,260.7,243.6,260.5,243.6,260.2z"/>
				<path class="st40" d="M247.1,257.4c0.2,0,0.4,0.3,0.3,0.5l-0.9,4.2c0,0.2-0.3,0.4-0.5,0.3c-0.2,0-0.4-0.3-0.3-0.5l0.9-4.2
					C246.7,257.5,246.9,257.4,247.1,257.4z"/>
				<path class="st40" d="M247.4,262.3l1.3-4.1c0.1-0.2,0.3-0.3,0.5-0.3c0.2,0.1,0.3,0.3,0.3,0.5l-0.8,2.4l1.9-1
					c0.2-0.1,0.4,0,0.5,0.2s0,0.4-0.2,0.5l-1.4,0.7l0.7,1.6c0.1,0.2,0,0.4-0.2,0.5c-0.1,0-0.2,0-0.3,0s-0.2-0.1-0.2-0.2l-0.6-1.6
					l-0.5,0.3l-0.2,0.6c-0.1,0.2-0.3,0.3-0.5,0.3C247.4,262.8,247.3,262.6,247.4,262.3z"/>
				<path class="st40" d="M251.4,262.2c0.4-0.9,1.5-1.3,2.4-0.9s1.2,1.4,0.9,2.3l0,0c0,0,0,0,0,0.1c-0.1,0.1-0.3,0.2-0.5,0.1l-2.1-1
					c0,0.2,0,0.4,0,0.5c0.1,0.2,0.3,0.5,0.5,0.6s0.5,0.2,0.8,0.2c0.2-0.1,0.5,0.1,0.5,0.2s0,0.4-0.2,0.4c-0.5,0.1-0.9,0.1-1.4-0.1
					C251.3,264.1,251,263.1,251.4,262.2z M252.3,262.2l1.9,0.9c0.1-0.3-0.1-0.8-0.7-1.2C252.9,261.6,252.4,261.9,252.3,262.2z"/>
				<path class="st40" d="M258.2,264.1c-0.1,0.2-0.3,0.2-0.5,0.1c-0.1-0.1-0.3-0.1-0.4-0.1c-0.2,0-0.3,0.1-0.5,0.1
					c-0.3,0.1-0.5,0.3-0.6,0.4l-0.7,1.2c-0.1,0.2-0.4,0.2-0.5,0.1c-0.2-0.1-0.2-0.4-0.1-0.5l1.5-2.5c0.1-0.2,0.3-0.2,0.5-0.1
					c0.2,0.1,0.3,0.4,0.1,0.5l0,0c0.1,0,0.1,0,0.2,0c0.3,0,0.6,0,0.9,0.2C258.3,263.7,258.3,264,258.2,264.1z"/>
			</g>
		</g>
		<g id="Image_1_">
			
				<ellipse transform="matrix(9.053449e-02 -0.9959 0.9959 9.053449e-02 -172.3265 394.0913)" class="st3" cx="129.6" cy="291.4" rx="44.3" ry="44.3"/>
			
				<ellipse transform="matrix(0.1414 -0.9899 0.9899 0.1414 -177.1938 378.4907)" class="st41" cx="129.6" cy="291.4" rx="38.4" ry="38.4"/>
			<circle class="st3" cx="129.6" cy="291.4" r="31.3"/>
			<circle class="st41" cx="129.6" cy="291.4" r="27.6"/>
			<path class="st36" d="M109.1,290.9C109.1,290.4,109,291.4,109.1,290.9l-3.2-2.7c0,0.5,0,1,0,1.6c0,12.1,7.8,22.4,18.6,26.1
				l-0.8-3.8C114.6,308.5,109.1,301.2,109.1,290.9z"/>
			<path class="st36" d="M117.7,292.2l-3.8-1.3c1.4,5.2,4.4,9.8,8.3,13.3v-4.6C119.9,297.1,118.7,295.5,117.7,292.2z"/>
			<g>
				<g>
					<path class="st42" d="M137.7,278.3L137.7,278.3L137.7,278.3c0.1,0.2,0.2,0.4,0.3,0.6c0.5,1.2,0.5,1.2,0.7,1.9
						c0.9,2.8,1.8,6.5,2.3,10.6c0,0.1,0,0.2,0,0.3c0.2,1.3,0.4,2.6,0.5,3.8v0.1c0.1,1.3,0.2,2.5,0.3,3.7c0,0.1,0,0.2,0,0.3l0,0
						c0.2,4.2-0.2,7.3-1.1,8.6c-0.3,0.6-0.8,1.1-1.5,1.5c-0.1,0.1-0.3,0.1-0.4,0.2l0,0c-3.8,1.4-8.1-0.2-10-3.9
						c-0.9-1.9-1.1-4-0.5-5.8c0.1-0.2,0.1-0.4,0.2-0.6c-2.5-2.1-4.8-5.1-6.6-8.8c-4.5-8.9-4.1-18.2,0.8-20.7
						c3.6-1.8,8.5,0.4,12.7,5.1C136.2,276.2,137,277.2,137.7,278.3"/>
					<path class="st43" d="M128,289.9c0.6,0.7,1.2,1.4,1.8,1.9c-0.8-0.2-1.7-0.6-2.5-1.2c-0.9-0.6-1.8-1.4-2.6-2.4
						c-0.3-0.4-0.6-0.8-0.8-1.2c-2.5-4-2.4-8.6,0.2-10.2c1.8-1.1,4.3-0.5,6.6,1.3c-1.2-0.3-2.4-0.2-3.3,0.4
						c-2.3,1.4-2.6,5.2-0.9,8.9c0.2,0.4,0.5,0.9,0.7,1.3C127.4,289.1,127.7,289.5,128,289.9"/>
					<path class="st43" d="M137.5,304.1c-1.8,1.1-4.3,0.5-6.6-1.3c1.2,0.3,2.4,0.2,3.3-0.4c2.3-1.4,2.6-5.2,0.9-8.9
						c-1.6,0.3-3.6-0.4-5.3-1.8c1.2,0.3,2.4,0.2,3.3-0.4c0.2-0.1,0.3-0.2,0.4-0.3c0.3-0.2,0.5-0.5,0.7-0.7c0.9,0.6,1.8,1.4,2.6,2.4
						c0.3,0.4,0.6,0.8,0.8,1.2C140.1,298,140.1,302.5,137.5,304.1"/>
					<path class="st43" d="M136.8,292.8c-0.1,0.1-0.3,0.2-0.4,0.3c-0.4,0.2-0.8,0.4-1.3,0.5c-1.6,0.3-3.6-0.4-5.3-1.8
						c1.2,0.3,2.4,0.2,3.3-0.4c0.2-0.1,0.3-0.2,0.4-0.3c0.3-0.2,0.5-0.5,0.7-0.7C135.2,291,136,291.8,136.8,292.8"/>
				</g>
			</g>
		</g>
		<g id="Text_2_">
			<g>
				<path class="st3" d="M106.4,265.9c-0.9-1.2-0.6-2.8,0.5-3.7c0.5-0.4,1.1-0.6,1.7-0.6c0.2,0,0.4,0.2,0.4,0.4
					c0,0.2-0.2,0.4-0.4,0.4c-0.4,0-0.8,0.1-1.2,0.4c-0.4,0.3-0.7,0.8-0.7,1.2c-0.1,0.5,0,0.9,0.3,1.3s0.7,0.6,1.2,0.7s1-0.1,1.4-0.4
					c0.3-0.2,0.5-0.5,0.6-0.8l-0.6-0.8l-0.8,0.6c-0.2,0.1-0.4,0.1-0.6-0.1c-0.1-0.2-0.1-0.4,0.1-0.6l1.1-0.9l0,0l0,0
					c0.2-0.1,0.4-0.1,0.6,0.1l1,1.3c0,0,0,0.1,0.1,0.1l0,0l0,0c0,0.1,0,0.1,0,0.2c-0.1,0.6-0.5,1.1-1,1.5
					C109,267.3,107.3,267.1,106.4,265.9z"/>
				<path class="st3" d="M112.7,264c-0.4-0.1-0.8-0.4-1.1-0.9c-0.2-0.4-0.3-0.9-0.2-1.4c0.1-0.5,0.4-0.8,0.8-1.1
					c0.4-0.2,0.9-0.2,1.3-0.1c0.5,0.2,0.8,0.4,1.1,0.9c0.2,0.5,0.3,0.9,0.2,1.4c-0.1,0.4-0.4,0.8-0.8,1.1
					C113.7,264.1,113.2,264.1,112.7,264z M112.4,262.7c0.1,0.3,0.4,0.5,0.6,0.6s0.5,0,0.7-0.1s0.4-0.3,0.5-0.6
					c0.1-0.3,0-0.5-0.1-0.8s-0.4-0.4-0.6-0.5s-0.5,0-0.7,0.1s-0.4,0.3-0.5,0.6C112.2,262.2,112.2,262.4,112.4,262.7z"/>
				<path class="st3" d="M116.7,262c-0.4-0.2-0.7-0.6-0.9-1c-0.2-0.5-0.1-0.9,0-1.4c0.2-0.4,0.5-0.8,1-1s0.9-0.1,1.3,0.1
					s0.8,0.6,0.9,1c0.2,0.5,0.2,1,0,1.4s-0.5,0.8-1,0.9C117.6,262.3,117.1,262.2,116.7,262z M116.5,260.7c0.1,0.3,0.3,0.5,0.5,0.6
					s0.5,0.1,0.8,0c0.2-0.1,0.4-0.3,0.5-0.5c0.1-0.3,0.1-0.5,0-0.8s-0.3-0.5-0.5-0.6s-0.5-0.1-0.7,0c-0.3,0.1-0.4,0.3-0.6,0.5
					C116.4,260.1,116.4,260.4,116.5,260.7z"/>
				<path class="st3" d="M123.9,260.1c0,0.2-0.1,0.4-0.3,0.5c-0.2,0-0.4-0.1-0.4-0.2c-0.2,0.2-0.6,0.4-0.9,0.5
					c-1,0.2-1.9-0.4-2.1-1.4s0.4-2,1.4-2.2c0.4-0.1,0.7,0,1,0.1l-0.3-1.3c0-0.2,0.1-0.4,0.3-0.5c0.2,0,0.4,0.1,0.5,0.3l0.6,2.8l0,0
					L123.9,260.1z M121.6,258.1c-0.3,0.1-0.5,0.2-0.6,0.4c-0.1,0.2-0.2,0.5-0.1,0.8s0.2,0.5,0.4,0.6c0.2,0.1,0.5,0.2,0.7,0.2
					c0.3-0.1,0.5-0.2,0.6-0.4c0.1-0.2,0.2-0.5,0.1-0.8s-0.2-0.5-0.4-0.7C122.2,258.1,121.9,258,121.6,258.1z"/>
				<path class="st3" d="M127.5,259.7v-4.3c0-0.2,0.2-0.4,0.4-0.4s0.4,0.2,0.4,0.4v3.9h2c0.2,0,0.4,0.2,0.4,0.4
					c0,0.2-0.2,0.4-0.4,0.4h-2.4l0,0l0,0C127.6,260.1,127.5,260,127.5,259.7z"/>
				<path class="st3" d="M132.5,257.1l-0.3,2.8c0,0.2-0.2,0.4-0.4,0.4s-0.4-0.2-0.4-0.4l0.3-2.8c0-0.2,0.2-0.4,0.4-0.4
					C132.4,256.7,132.5,256.9,132.5,257.1z M132.6,255.8c0,0.2-0.2,0.4-0.4,0.4s-0.4-0.2-0.4-0.4v-0.2c0-0.2,0.2-0.4,0.4-0.4
					c0.2,0,0.4,0.2,0.4,0.4V255.8z"/>
				<path class="st3" d="M133.3,259.4c0.2-0.1,0.4-0.1,0.5,0c0.2,0.2,0.5,0.4,0.7,0.5c0.2,0,0.4,0,0.5,0c0.1-0.1,0.2-0.1,0.2-0.2
					v-0.1c0,0,0-0.1-0.1-0.1c-0.1-0.1-0.3-0.2-0.5-0.3l0,0c-0.2-0.1-0.4-0.2-0.6-0.3c-0.2-0.1-0.3-0.3-0.4-0.5
					c-0.1-0.1-0.1-0.3,0-0.5c0.1-0.3,0.3-0.6,0.6-0.7c0.3-0.1,0.6-0.2,0.9-0.1c0.5,0.1,0.8,0.4,1,0.6c0.2,0.1,0.2,0.4,0,0.6
					c-0.1,0.2-0.4,0.2-0.6,0s-0.4-0.3-0.6-0.4c-0.2,0-0.3,0-0.5,0.1c-0.1,0-0.1,0.1-0.1,0.1s0,0,0,0.1c0,0,0,0,0.1,0.1
					c0.1,0.1,0.3,0.2,0.5,0.3l0,0l0,0c0.2,0.1,0.4,0.2,0.6,0.3c0.2,0.1,0.3,0.3,0.4,0.5c0.1,0.2,0.1,0.3,0.1,0.5
					c-0.1,0.4-0.3,0.6-0.6,0.8c-0.3,0.1-0.6,0.2-1,0.1c-0.6-0.1-0.9-0.4-1.2-0.7C133.1,259.8,133.2,259.5,133.3,259.4z"/>
				<path class="st3" d="M139.3,258.5c-0.1,0.2-0.3,0.3-0.5,0.3l-0.2-0.1l-0.6,2c0.2,0.1,0.3,0.3,0.3,0.5c-0.1,0.2-0.3,0.3-0.5,0.3
					c-0.4-0.1-0.7-0.6-0.6-1l0.6-2l-0.2-0.1c-0.2-0.1-0.3-0.3-0.3-0.5c0.1-0.2,0.3-0.3,0.5-0.3l0.2,0.1l0.3-1
					c0.1-0.2,0.3-0.3,0.5-0.3c0.2,0.1,0.3,0.3,0.3,0.5l-0.3,1l0.2,0.1C139.2,258,139.4,258.3,139.3,258.5z"/>
				<path class="st3" d="M139.7,260.1c0.4-0.9,1.4-1.4,2.3-1c0.9,0.4,1.3,1.3,1,2.2l0,0c0,0,0,0,0,0.1c-0.1,0.2-0.3,0.2-0.5,0.1
					l-2.1-0.9c0,0.2,0,0.4,0,0.5c0.1,0.2,0.3,0.5,0.5,0.6s0.6,0.2,0.8,0.1s0.5,0,0.5,0.2c0,0.1,0,0.4-0.2,0.4
					c-0.5,0.2-0.9,0.2-1.4,0C139.7,262,139.3,261,139.7,260.1z M140.5,260l1.9,0.8c0-0.3-0.1-0.8-0.7-1.1
					C141.2,259.5,140.7,259.8,140.5,260z"/>
				<path class="st3" d="M146.9,263.2l-0.9,1.5c-0.1,0.2-0.3,0.3-0.5,0.1c-0.2-0.1-0.2-0.3-0.1-0.5l0.9-1.5c0.2-0.4,0.1-0.8-0.3-1
					c-0.4-0.2-0.8-0.1-1,0.3l-0.9,1.5c0,0,0,0,0,0.1c-0.1,0.1-0.3,0.2-0.5,0.1s-0.2-0.3-0.1-0.5l0.9-1.5l0.6-1
					c0.1-0.2,0.3-0.3,0.5-0.1c0.1,0.1,0.2,0.2,0.2,0.4c0.3,0,0.5,0,0.8,0.2C147,261.6,147.3,262.5,146.9,263.2z"/>
				<path class="st3" d="M147.8,264.2c0.6-0.8,1.7-1,2.5-0.3c0.7,0.6,0.9,1.6,0.3,2.4l0,0l0,0c-0.1,0.1-0.3,0.1-0.5,0l-1.8-1.4
					c-0.1,0.2-0.1,0.4-0.1,0.5c0,0.2,0.2,0.5,0.4,0.7c0.2,0.2,0.5,0.3,0.7,0.3s0.4,0.2,0.4,0.3c0,0.1-0.1,0.4-0.3,0.4
					c-0.5,0-0.9-0.1-1.3-0.4C147.3,266.1,147.2,264.9,147.8,264.2z M148.6,264.4l1.6,1.3c0.1-0.3,0.1-0.8-0.4-1.3
					C149.4,264,148.9,264.2,148.6,264.4z"/>
				<path class="st3" d="M154,267.6c-0.1,0.1-0.4,0.2-0.5,0c-0.1-0.1-0.3-0.2-0.4-0.2c-0.2,0-0.3,0-0.5,0c-0.3,0-0.5,0.2-0.6,0.2
					l-1,1c-0.1,0.2-0.4,0.1-0.6,0s-0.2-0.4,0-0.5l2-2.1c0.1-0.2,0.4-0.1,0.5,0c0.2,0.2,0.2,0.4,0,0.6l0,0c0.1,0,0.1,0,0.2,0
					c0.3,0.1,0.6,0.2,0.9,0.4C154.1,267.2,154.1,267.5,154,267.6z"/>
			</g>
			<g>
				<path class="st40" d="M105.9,265.9c-0.9-1.2-0.6-2.8,0.5-3.7c0.5-0.4,1.1-0.6,1.7-0.6c0.2,0,0.4,0.2,0.4,0.4
					c0,0.2-0.2,0.4-0.4,0.4c-0.4,0-0.8,0.1-1.2,0.4c-0.4,0.3-0.7,0.8-0.7,1.2c-0.1,0.5,0,0.9,0.3,1.3s0.7,0.6,1.2,0.7s1-0.1,1.4-0.4
					c0.3-0.2,0.5-0.5,0.6-0.8l-0.6-0.8l-0.8,0.6c-0.2,0.1-0.4,0.1-0.6-0.1c-0.1-0.2-0.1-0.4,0.1-0.6l1.1-0.9l0,0l0,0
					c0.2-0.1,0.4-0.1,0.6,0.1l1,1.3c0,0,0,0.1,0.1,0.1l0,0l0,0c0,0.1,0,0.1,0,0.2c-0.1,0.6-0.5,1.1-1,1.5
					C108.5,267.3,106.8,267.1,105.9,265.9z"/>
				<path class="st40" d="M112.2,264c-0.4-0.1-0.8-0.4-1.1-0.9c-0.2-0.4-0.3-0.9-0.2-1.4c0.1-0.5,0.4-0.8,0.8-1.1
					c0.4-0.2,0.9-0.2,1.3-0.1c0.5,0.2,0.8,0.4,1.1,0.9c0.2,0.5,0.3,0.9,0.2,1.4c-0.1,0.4-0.4,0.8-0.8,1.1
					C113.1,264.1,112.7,264.1,112.2,264z M111.9,262.7c0.1,0.3,0.4,0.5,0.6,0.6s0.5,0,0.7-0.1s0.4-0.3,0.5-0.6
					c0.1-0.3,0-0.5-0.1-0.8s-0.4-0.4-0.6-0.5s-0.5,0-0.7,0.1s-0.4,0.3-0.5,0.6C111.7,262.2,111.7,262.4,111.9,262.7z"/>
				<path class="st40" d="M116.2,262c-0.4-0.2-0.7-0.6-0.9-1c-0.2-0.5-0.1-0.9,0-1.4c0.2-0.4,0.5-0.8,1-1s0.9-0.1,1.3,0.1
					s0.8,0.6,0.9,1c0.2,0.5,0.2,1,0,1.4s-0.5,0.8-1,0.9C117.1,262.3,116.6,262.2,116.2,262z M116.1,260.7c0.1,0.3,0.3,0.5,0.5,0.6
					s0.5,0.1,0.8,0c0.2-0.1,0.4-0.3,0.5-0.5c0.1-0.3,0.1-0.5,0-0.8s-0.3-0.5-0.5-0.6s-0.5-0.1-0.7,0c-0.3,0.1-0.4,0.3-0.6,0.5
					C115.9,260.1,115.9,260.4,116.1,260.7z"/>
				<path class="st40" d="M123.4,260.1c0,0.2-0.1,0.4-0.3,0.5c-0.2,0-0.4-0.1-0.4-0.2c-0.2,0.2-0.6,0.4-0.9,0.5
					c-1,0.2-1.9-0.4-2.1-1.4s0.4-2,1.4-2.2c0.4-0.1,0.7,0,1,0.1l-0.3-1.3c0-0.2,0.1-0.4,0.3-0.5c0.2,0,0.4,0.1,0.5,0.3l0.6,2.8l0,0
					L123.4,260.1z M121.1,258.1c-0.3,0.1-0.5,0.2-0.6,0.4c-0.1,0.2-0.2,0.5-0.1,0.8s0.2,0.5,0.4,0.6c0.2,0.1,0.5,0.2,0.7,0.2
					c0.3-0.1,0.5-0.2,0.6-0.4c0.1-0.2,0.2-0.5,0.1-0.8s-0.2-0.5-0.4-0.7C121.6,258.1,121.4,258,121.1,258.1z"/>
				<path class="st40" d="M127,259.7v-4.3c0-0.2,0.2-0.4,0.4-0.4c0.2,0,0.4,0.2,0.4,0.4v3.9h2c0.2,0,0.4,0.2,0.4,0.4
					c0,0.2-0.2,0.4-0.4,0.4h-2.4l0,0l0,0C127.1,260.1,127,260,127,259.7z"/>
				<path class="st40" d="M132,257.1l-0.3,2.8c0,0.2-0.2,0.4-0.4,0.4s-0.4-0.2-0.4-0.4l0.3-2.8c0-0.2,0.2-0.4,0.4-0.4
					C131.9,256.7,132,256.9,132,257.1z M132.1,255.8c0,0.2-0.2,0.4-0.4,0.4s-0.4-0.2-0.4-0.4v-0.2c0-0.2,0.2-0.4,0.4-0.4
					c0.2,0,0.4,0.2,0.4,0.4V255.8z"/>
				<path class="st40" d="M132.8,259.4c0.2-0.1,0.4-0.1,0.6,0c0.2,0.2,0.5,0.4,0.7,0.5c0.2,0,0.4,0,0.5,0c0.1-0.1,0.2-0.1,0.2-0.2
					v-0.1c0,0,0-0.1-0.1-0.1c-0.1-0.1-0.3-0.2-0.5-0.3l0,0c-0.2-0.1-0.4-0.2-0.6-0.3c-0.2-0.1-0.3-0.3-0.4-0.5
					c-0.1-0.1-0.1-0.3,0-0.5c0.1-0.3,0.3-0.6,0.6-0.7s0.6-0.2,0.9-0.1c0.5,0.1,0.8,0.4,1,0.6c0.2,0.1,0.2,0.4,0,0.6
					c-0.1,0.2-0.4,0.2-0.6,0s-0.4-0.3-0.6-0.4c-0.2,0-0.3,0-0.5,0.1c-0.1,0-0.1,0.1-0.1,0.1s0,0,0,0.1c0,0,0,0,0.1,0.1
					c0.1,0.1,0.3,0.2,0.5,0.3l0,0l0,0c0.2,0.1,0.4,0.2,0.6,0.3c0.2,0.1,0.3,0.3,0.4,0.5c0.1,0.2,0.1,0.3,0.1,0.5
					c-0.1,0.4-0.3,0.6-0.6,0.8c-0.3,0.1-0.6,0.2-1,0.1c-0.6-0.1-0.9-0.4-1.2-0.7C132.6,259.8,132.7,259.5,132.8,259.4z"/>
				<path class="st40" d="M138.8,258.5c-0.1,0.2-0.3,0.3-0.5,0.3l-0.2-0.1l-0.6,2c0.2,0.1,0.3,0.3,0.3,0.5c-0.1,0.2-0.3,0.3-0.5,0.3
					c-0.4-0.1-0.7-0.6-0.6-1l0.6-2l-0.2-0.1c-0.2-0.1-0.3-0.3-0.3-0.5c0.1-0.2,0.3-0.3,0.5-0.3l0.2,0.1l0.3-1
					c0.1-0.2,0.3-0.3,0.5-0.3c0.2,0.1,0.3,0.3,0.3,0.5l-0.3,1l0.2,0.1C138.7,258,138.9,258.3,138.8,258.5z"/>
				<path class="st40" d="M139.2,260.1c0.4-0.9,1.4-1.4,2.3-1c0.9,0.4,1.3,1.3,1,2.2l0,0c0,0,0,0,0,0.1c-0.1,0.2-0.3,0.2-0.5,0.1
					l-2.1-0.9c0,0.2,0,0.4,0,0.5c0.1,0.2,0.3,0.5,0.5,0.6s0.6,0.2,0.8,0.1s0.5,0,0.5,0.2c0,0.1,0,0.4-0.2,0.4
					c-0.5,0.2-0.9,0.2-1.4,0C139.2,262,138.8,261,139.2,260.1z M140,260l1.9,0.8c0-0.3-0.1-0.8-0.7-1.1
					C140.7,259.5,140.2,259.8,140,260z"/>
				<path class="st40" d="M146.4,263.2l-0.9,1.5c-0.1,0.2-0.3,0.3-0.5,0.1c-0.2-0.1-0.2-0.3-0.1-0.5l0.9-1.5c0.2-0.4,0.1-0.8-0.3-1
					c-0.4-0.2-0.8-0.1-1,0.3l-0.9,1.5c0,0,0,0,0,0.1c-0.1,0.1-0.3,0.2-0.5,0.1s-0.2-0.3-0.1-0.5l0.9-1.5l0.6-1
					c0.1-0.2,0.3-0.3,0.5-0.1c0.1,0.1,0.2,0.2,0.2,0.4c0.3,0,0.5,0,0.8,0.2C146.5,261.6,146.8,262.5,146.4,263.2z"/>
				<path class="st40" d="M147.3,264.2c0.6-0.8,1.7-1,2.5-0.3c0.7,0.6,0.9,1.6,0.3,2.4l0,0l0,0c-0.1,0.1-0.3,0.1-0.5,0l-1.8-1.4
					c-0.1,0.2-0.1,0.4-0.1,0.5c0,0.2,0.2,0.5,0.4,0.7c0.2,0.2,0.5,0.3,0.7,0.3s0.4,0.2,0.4,0.3c0,0.1-0.1,0.4-0.3,0.4
					c-0.5,0-0.9-0.1-1.3-0.4C146.8,266.1,146.7,264.9,147.3,264.2z M148.1,264.4l1.6,1.3c0.1-0.3,0.1-0.8-0.4-1.3
					C148.9,264,148.3,264.2,148.1,264.4z"/>
				<path class="st40" d="M153.5,267.6c-0.1,0.1-0.4,0.2-0.5,0c-0.1-0.1-0.3-0.2-0.4-0.2c-0.2,0-0.3,0-0.5,0c-0.3,0-0.5,0.2-0.6,0.2
					l-1,1c-0.1,0.2-0.4,0.1-0.6,0s-0.2-0.4,0-0.5l2-2.1c0.1-0.2,0.4-0.1,0.5,0c0.2,0.2,0.2,0.4,0,0.6l0,0c0.1,0,0.1,0,0.2,0
					c0.3,0.1,0.6,0.2,0.9,0.4C153.6,267.2,153.6,267.5,153.5,267.6z"/>
			</g>
		</g>
		<g id="Sticker_Sheet">
			<g>
				<circle class="st3" cx="130.2" cy="191" r="46.2"/>
				<circle class="st44" cx="130.2" cy="191" r="40"/>
				<circle class="st3" cx="130.2" cy="191" r="36.6"/>
				<circle class="st44" cx="125.4" cy="191.5" r="35.3"/>
				<circle class="st3" cx="130.2" cy="191" r="32.6"/>
				<circle class="st44" cx="130.2" cy="191" r="28.8"/>
				<circle class="st3" cx="126.8" cy="192.3" r="25.4"/>
				<g>
					<g>
						<g>
							<g>
								<g>
									<g>
										<defs>
											<rect id="SVGID_39_" x="108.6" y="174.5" width="43.3" height="32.8"/>
										</defs>
										<clipPath id="SVGID_40_">
											<use xlink:href="#SVGID_39_"  style="overflow:visible;"/>
										</clipPath>
										<path class="st45" d="M119.5,187.7c0.4,1.2-0.4,2.6-1.7,3.1c-1.4,0.5-2.9-0.2-3.3-1.4s0.4-2.6,1.7-3.1
											C117.6,185.8,119.1,186.4,119.5,187.7"/>
									</g>
								</g>
							</g>
						</g>
						<g>
							<g>
								<g>
									<g>
										<defs>
											<rect id="SVGID_41_" x="108.6" y="174.5" width="43.3" height="32.8"/>
										</defs>
										<clipPath id="SVGID_42_">
											<use xlink:href="#SVGID_41_"  style="overflow:visible;"/>
										</clipPath>
										<path class="st46" d="M128.9,187.8c0.4,1.2-0.4,2.6-1.7,3.1c-1.4,0.5-2.9-0.2-3.3-1.4s0.4-2.6,1.7-3.1
											C127,185.9,128.5,186.5,128.9,187.8"/>
									</g>
								</g>
							</g>
						</g>
						<g>
							<g>
								<g>
									<g>
										<defs>
											<rect id="SVGID_43_" x="108.6" y="174.5" width="43.3" height="32.8"/>
										</defs>
										<clipPath id="SVGID_44_">
											<use xlink:href="#SVGID_43_"  style="overflow:visible;"/>
										</clipPath>
										<path class="st47" d="M129,193.2c0,3.5-3.2,6.3-7.2,6.3s-7.2-2.8-7.2-6.3s3.2-6.3,7.2-6.3S129,189.7,129,193.2"/>
									</g>
								</g>
							</g>
						</g>
					</g>
					<polygon class="st14" points="134.2,193.9 151.9,182.5 134.2,175.5 					"/>
					<g>
						<g>
							<g>
								<g>
									<g>
										<defs>
											<rect id="SVGID_45_" x="108.6" y="174.5" width="43.3" height="32.8"/>
										</defs>
										<clipPath id="SVGID_46_">
											<use xlink:href="#SVGID_45_"  style="overflow:visible;"/>
										</clipPath>
										<path class="st48" d="M140.9,200.1c0,4-7.2,7.2-16.2,7.2c-8.9,0-16.2-3.3-16.2-7.2c0-1.4,0.9-2.7,2.5-3.9
											c2.7,2.3,8.1,3.9,14.3,3.9c5.8,0,10.8-1.4,13.7-3.4C140.2,197.8,140.9,198.9,140.9,200.1"/>
									</g>
								</g>
							</g>
						</g>
						<g>
							<g>
								<g>
									<g>
										<defs>
											<rect id="SVGID_47_" x="108.6" y="174.5" width="43.3" height="32.8"/>
										</defs>
										<clipPath id="SVGID_48_">
											<use xlink:href="#SVGID_47_"  style="overflow:visible;"/>
										</clipPath>
										<path class="st49" d="M114.7,193.4c0-0.3,0-0.5,0.1-0.8c0.4,3.2,3.4,5.7,7,5.7c3.6,0.1,6.7-2.3,7.2-5.5c0,0.3,0,0.5,0,0.8
											c-0.1,3.5-3.4,6.4-7.3,6.3C117.8,199.9,114.6,196.9,114.7,193.4"/>
									</g>
								</g>
							</g>
						</g>
						<g>
							<g>
								<g>
									<g>
										<defs>
											<rect id="SVGID_49_" x="108.6" y="174.5" width="43.3" height="32.8"/>
										</defs>
										<clipPath id="SVGID_50_">
											<use xlink:href="#SVGID_49_"  style="overflow:visible;"/>
										</clipPath>
										<path class="st50" d="M120.2,192.9c0,2.1-1.8,3.7-3.9,3.6c-2.1,0-3.8-1.7-3.7-3.8s1.8-3.7,3.9-3.6
											C118.6,189.1,120.2,190.8,120.2,192.9"/>
									</g>
								</g>
							</g>
						</g>
						<g>
							<g>
								<g>
									<g>
										<defs>
											<rect id="SVGID_51_" x="108.6" y="174.5" width="43.3" height="32.8"/>
										</defs>
										<clipPath id="SVGID_52_">
											<use xlink:href="#SVGID_51_"  style="overflow:visible;"/>
										</clipPath>
										<path class="st51" d="M119,194.1c0,1-0.9,1.8-1.9,1.8s-1.8-0.9-1.8-1.9s0.9-1.8,1.9-1.8C118.2,192.3,119,193.1,119,194.1"
											/>
									</g>
								</g>
							</g>
						</g>
						<g>
							<g>
								<g>
									<g>
										<defs>
											<rect id="SVGID_53_" x="108.6" y="174.5" width="43.3" height="32.8"/>
										</defs>
										<clipPath id="SVGID_54_">
											<use xlink:href="#SVGID_53_"  style="overflow:visible;"/>
										</clipPath>
										<path class="st52" d="M123.1,196.7c0,0.3-0.6,0.5-1.3,0.5c-0.7,0-1.3-0.2-1.3-0.5s0.6-0.5,1.3-0.5
											S123.1,196.5,123.1,196.7"/>
									</g>
								</g>
							</g>
						</g>
						<g>
							<g>
								<g>
									<g>
										<defs>
											<rect id="SVGID_55_" x="108.6" y="174.5" width="43.3" height="32.8"/>
										</defs>
										<clipPath id="SVGID_56_">
											<use xlink:href="#SVGID_55_"  style="overflow:visible;"/>
										</clipPath>
										<path class="st53" d="M125.1,185.1c1.3-0.7,3-0.2,3.9,1.3c0.7,1.2,0.6,2.5-0.1,3.4c-0.1-0.4-0.2-0.8-0.4-1.2
											c-0.9-1.4-2.6-2-3.8-1.3c-0.3,0.2-0.5,0.3-0.6,0.5C123.8,186.7,124.2,185.6,125.1,185.1"/>
									</g>
								</g>
							</g>
						</g>
						<g>
							<g>
								<g>
									<g>
										<defs>
											<rect id="SVGID_57_" x="108.6" y="174.5" width="43.3" height="32.8"/>
										</defs>
										<clipPath id="SVGID_58_">
											<use xlink:href="#SVGID_57_"  style="overflow:visible;"/>
										</clipPath>
										<path class="st54" d="M114,187.2c0.3-1.4,1.7-2.2,3.1-1.9c1.1,0.3,1.9,1.2,2,2.2c-0.3-0.2-0.6-0.4-1-0.5
											c-1.4-0.3-2.8,0.5-3.1,1.9c-0.1,0.3-0.1,0.5-0.1,0.8C114.2,189.1,113.8,188.1,114,187.2"/>
									</g>
								</g>
							</g>
						</g>
						<g>
							<g>
								<g>
									<g>
										<defs>
											<rect id="SVGID_59_" x="108.6" y="174.5" width="43.3" height="32.8"/>
										</defs>
										<clipPath id="SVGID_60_">
											<use xlink:href="#SVGID_59_"  style="overflow:visible;"/>
										</clipPath>
										<path class="st55" d="M128.3,190.1c0,0.2-0.1,0.5-0.2,0.7c-0.7-1.4-3.4-2.4-6.6-2.4s-5.9,1-6.6,2.4
											c-0.1-0.2-0.2-0.4-0.2-0.7c0-1.7,3-3.1,6.7-3.1C125.3,186.9,128.3,188.3,128.3,190.1"/>
									</g>
								</g>
							</g>
						</g>
						<g>
							<g>
								<g>
									<g>
										<defs>
											<rect id="SVGID_61_" x="108.6" y="174.5" width="43.3" height="32.8"/>
										</defs>
										<clipPath id="SVGID_62_">
											<use xlink:href="#SVGID_61_"  style="overflow:visible;"/>
										</clipPath>
										<path class="st56" d="M123.9,192.7c0,2.1,1.6,3.8,3.7,3.8s3.8-1.6,3.9-3.6c0-2.1-1.6-3.8-3.7-3.8
											C125.6,189.1,123.9,190.7,123.9,192.7"/>
									</g>
								</g>
							</g>
						</g>
						<g>
							<g>
								<g>
									<g>
										<defs>
											<rect id="SVGID_63_" x="108.6" y="174.5" width="43.3" height="32.8"/>
										</defs>
										<clipPath id="SVGID_64_">
											<use xlink:href="#SVGID_63_"  style="overflow:visible;"/>
										</clipPath>
										<path class="st57" d="M126.7,194.1c0,1,0.8,1.8,1.8,1.9c1,0,1.9-0.8,1.9-1.8s-0.8-1.8-1.8-1.9
											C127.5,192.3,126.7,193.1,126.7,194.1"/>
									</g>
								</g>
							</g>
						</g>
					</g>
					<polygon class="st25" points="132.9,174.6 147.5,180.7 132.9,193.5 					"/>
					<polygon class="st26" points="133.1,174.9 138.9,188.3 132.8,193.4 					"/>
					<polygon class="st27" points="132.8,174.5 132.8,200.6 135.2,200.6 135.3,175.6 					"/>
					<polygon class="st28" points="134.8,199.5 135.2,200.6 135.3,175.6 132.8,174.5 					"/>
					<g>
						<g>
							<g>
								<g>
									<g>
										<defs>
											<rect id="SVGID_65_" x="108.6" y="174.5" width="43.3" height="32.8"/>
										</defs>
										<clipPath id="SVGID_66_">
											<use xlink:href="#SVGID_65_"  style="overflow:visible;"/>
										</clipPath>
										<path class="st58" d="M140.9,198.9c0,4-7.2,7.2-16.2,7.2c-8.9,0-16.2-3.3-16.2-7.2c0-1.4,0.9-2.7,2.5-3.9
											c2.7,2.3,8.1,3.9,14.3,3.9c5.8,0,10.8-1.4,13.7-3.4C140.2,196.5,140.9,197.7,140.9,198.9"/>
									</g>
								</g>
							</g>
						</g>
						<g>
							<g>
								<g>
									<g>
										<defs>
											<rect id="SVGID_67_" x="108.6" y="174.5" width="43.3" height="32.8"/>
										</defs>
										<clipPath id="SVGID_68_">
											<use xlink:href="#SVGID_67_"  style="overflow:visible;"/>
										</clipPath>
										<path class="st59" d="M140,200.3c0,2.4-7,4.3-15.7,4.3s-15.7-1.9-15.7-4.3c0-0.8,0.9-1.6,2.4-2.3
											c2.6,1.4,7.9,2.3,13.9,2.3c5.6,0,10.5-0.8,13.3-2C139.4,198.9,140,199.6,140,200.3"/>
									</g>
								</g>
							</g>
						</g>
						<g>
							<g>
								<g>
									<g>
										<defs>
											<rect id="SVGID_69_" x="108.6" y="174.5" width="43.3" height="32.8"/>
										</defs>
										<clipPath id="SVGID_70_">
											<use xlink:href="#SVGID_69_"  style="overflow:visible;"/>
										</clipPath>
										<path class="st60" d="M138.2,200.3c0,2-6.6,3.6-14.8,3.6s-14.8-1.6-14.8-3.6c0-0.7,0.8-1.4,2.3-1.9
											c2.5,1.2,7.4,1.9,13.1,1.9c5.3,0,9.9-0.7,12.5-1.7C137.6,199.1,138.2,199.7,138.2,200.3"/>
									</g>
								</g>
							</g>
						</g>
						<g>
							<g>
								<g>
									<g>
										<defs>
											<rect id="SVGID_71_" x="108.6" y="174.5" width="43.3" height="32.8"/>
										</defs>
										<clipPath id="SVGID_72_">
											<use xlink:href="#SVGID_71_"  style="overflow:visible;"/>
										</clipPath>
										<path class="st61" d="M132.8,199.8c0,1.6-5.4,2.9-12.1,2.9s-12.1-1.3-12.1-2.9c0-0.6,0.7-1.1,1.9-1.6
											c2,0.9,6.1,1.6,10.7,1.6c4.3,0,8.1-0.5,10.2-1.4C132.3,198.9,132.8,199.3,132.8,199.8"/>
									</g>
								</g>
							</g>
						</g>
						<g>
							<g>
								<g>
									<g>
										<defs>
											<rect id="SVGID_73_" x="108.6" y="174.5" width="43.3" height="32.8"/>
										</defs>
										<clipPath id="SVGID_74_">
											<use xlink:href="#SVGID_73_"  style="overflow:visible;"/>
										</clipPath>
										<path class="st62" d="M129.2,200.4c0,1-4.6,1.8-10.3,1.8s-10.3-0.8-10.3-1.8c0-0.4,0.6-0.7,1.6-1c1.7,0.6,5.2,1,9.1,1
											c3.7,0,6.9-0.3,8.7-0.9C128.8,199.8,129.2,200.1,129.2,200.4"/>
									</g>
								</g>
							</g>
						</g>
						<g>
							<g>
								<g>
									<g>
										<defs>
											<rect id="SVGID_75_" x="108.6" y="174.5" width="43.3" height="32.8"/>
										</defs>
										<clipPath id="SVGID_76_">
											<use xlink:href="#SVGID_75_"  style="overflow:visible;"/>
										</clipPath>
										<path class="st63" d="M136.3,199c0.1,0.4-0.3,0.9-1,1.1c-0.7,0.2-1.4,0.1-1.5-0.3c-0.1-0.4,0.3-0.9,1-1.1
											C135.5,198.5,136.2,198.7,136.3,199"/>
									</g>
								</g>
							</g>
						</g>
					</g>
				</g>
			</g>
			<g>
				
					<ellipse transform="matrix(0.1602 -0.9871 0.9871 0.1602 13.5412 397.7157)" class="st3" cx="240.5" cy="190.9" rx="44" ry="44"/>
				<circle class="st64" cx="240.5" cy="191" r="38.2"/>
				<circle class="st3" cx="240.5" cy="191" r="34.9"/>
				<circle class="st64" cx="235.9" cy="191.5" r="33.6"/>
				<circle class="st3" cx="240.5" cy="191" r="31.1"/>
				<ellipse class="st64" cx="240.5" cy="190.9" rx="27.5" ry="27.5"/>
				<ellipse class="st3" cx="237.2" cy="192.2" rx="24.2" ry="24.2"/>
				<g>
					<g>
						<g>
							<g>
								<g>
									<defs>
										<rect id="SVGID_77_" x="216.6" y="179.8" width="39.4" height="23.4"/>
									</defs>
									<clipPath id="SVGID_78_">
										<use xlink:href="#SVGID_77_"  style="overflow:visible;"/>
									</clipPath>
									<path class="st65" d="M235.2,195.5h-16.9c4.8-2.5,9.3-8,11.9-15.1c0.1-0.2,0.2-0.4,0.2-0.6c0.1,2.1,0.5,4.3,1,6.5
										C232.2,189.7,233.6,192.8,235.2,195.5"/>
								</g>
							</g>
						</g>
					</g>
					<g>
						<g>
							<g>
								<g>
									<defs>
										<rect id="SVGID_79_" x="216.6" y="179.8" width="39.4" height="23.4"/>
									</defs>
									<clipPath id="SVGID_80_">
										<use xlink:href="#SVGID_79_"  style="overflow:visible;"/>
									</clipPath>
									<path class="st66" d="M245.6,195.5h-17.2c4.8-2.5,9.4-8,12-15.1c0.1-0.2,0.2-0.4,0.2-0.6c0.1,2.1,0.5,4.3,1,6.5
										C242.6,189.7,243.9,192.8,245.6,195.5"/>
								</g>
							</g>
						</g>
					</g>
					<g>
						<g>
							<g>
								<g>
									<defs>
										<rect id="SVGID_81_" x="216.6" y="179.8" width="39.4" height="23.4"/>
									</defs>
									<clipPath id="SVGID_82_">
										<use xlink:href="#SVGID_81_"  style="overflow:visible;"/>
									</clipPath>
									<path class="st67" d="M256,195.5h-17.2c4.8-2.5,9.4-8,12-15.1c0.1-0.2,0.2-0.4,0.2-0.6c0.1,2.1,0.5,4.3,1,6.5
										C253,189.7,254.3,192.8,256,195.5"/>
								</g>
							</g>
						</g>
					</g>
					<g>
						<g>
							<g>
								<g>
									<defs>
										<rect id="SVGID_83_" x="216.6" y="179.8" width="39.4" height="23.4"/>
									</defs>
									<clipPath id="SVGID_84_">
										<use xlink:href="#SVGID_83_"  style="overflow:visible;"/>
									</clipPath>
									<path class="st68" d="M233.5,203.1h-16.9c4.8-2.5,9.3-8,11.9-15.1c0.1-0.2,0.2-0.4,0.2-0.6c0.1,2.1,0.5,4.3,1,6.5
										C230.6,197.4,231.9,200.5,233.5,203.1"/>
								</g>
							</g>
						</g>
					</g>
					<g>
						<g>
							<g>
								<g>
									<defs>
										<rect id="SVGID_85_" x="216.6" y="179.8" width="39.4" height="23.4"/>
									</defs>
									<clipPath id="SVGID_86_">
										<use xlink:href="#SVGID_85_"  style="overflow:visible;"/>
									</clipPath>
									<path class="st69" d="M243.9,203.2h-17.2c4.8-2.5,9.4-8,12-15.1c0.1-0.2,0.2-0.4,0.2-0.6c0.1,2.1,0.5,4.3,1,6.5
										C240.9,197.4,242.2,200.5,243.9,203.2"/>
								</g>
							</g>
						</g>
					</g>
					<g>
						<g>
							<g>
								<g>
									<defs>
										<rect id="SVGID_87_" x="216.6" y="179.8" width="39.4" height="23.4"/>
									</defs>
									<clipPath id="SVGID_88_">
										<use xlink:href="#SVGID_87_"  style="overflow:visible;"/>
									</clipPath>
									<path class="st70" d="M254.3,203.2h-17.2c4.8-2.5,9.4-8,12-15.1c0.1-0.2,0.2-0.4,0.2-0.6c0.1,2.1,0.5,4.3,1,6.5
										C251.3,197.4,252.6,200.5,254.3,203.2"/>
								</g>
							</g>
						</g>
					</g>
					<g>
						<g>
							<g>
								<g>
									<defs>
										<rect id="SVGID_89_" x="216.6" y="179.8" width="39.4" height="23.4"/>
									</defs>
									<clipPath id="SVGID_90_">
										<use xlink:href="#SVGID_89_"  style="overflow:visible;"/>
									</clipPath>
									<path class="st71" d="M248.9,200c-0.2,1.1-0.7,2.1-1.5,3.2H242c0.6-0.4,1.1-0.8,1.6-1.2c1.2-1,2.1-2,2.7-3.1
										c1-1.5,1.4-2.9,1.5-4.3C249,196.2,249.3,198,248.9,200"/>
								</g>
							</g>
						</g>
					</g>
					<g>
						<g>
							<g>
								<g>
									<defs>
										<rect id="SVGID_91_" x="216.6" y="179.8" width="39.4" height="23.4"/>
									</defs>
									<clipPath id="SVGID_92_">
										<use xlink:href="#SVGID_91_"  style="overflow:visible;"/>
									</clipPath>
									<path class="st72" d="M239,199.2c-0.3,1.3-0.9,2.6-1.9,4h-6.9c0.7-0.5,1.4-1,2-1.5c1.5-1.3,2.7-2.5,3.5-3.9
										c1.2-1.8,1.8-3.6,1.9-5.4C239.1,194.4,239.6,196.8,239,199.2"/>
								</g>
							</g>
						</g>
					</g>
					<g>
						<g>
							<g>
								<g>
									<defs>
										<rect id="SVGID_93_" x="216.6" y="179.8" width="39.4" height="23.4"/>
									</defs>
									<clipPath id="SVGID_94_">
										<use xlink:href="#SVGID_93_"  style="overflow:visible;"/>
									</clipPath>
									<path class="st73" d="M228.6,199.6c-0.3,1.2-1,2.4-2,3.6h-7.3c0.8-0.4,1.5-0.9,2.2-1.4c1.6-1.1,2.9-2.3,3.8-3.5
										c1.3-1.6,1.9-3.3,2-4.9C228.7,195.3,229.3,197.4,228.6,199.6"/>
								</g>
							</g>
						</g>
					</g>
				</g>
				<polygon class="st7" points="240.6,183.3 242.3,192.3 241.7,194.8 239.9,185.8 				"/>
				<polygon class="st7" points="251.3,184.8 252.4,192.7 251.2,194.9 250.4,188.3 				"/>
				<polygon class="st7" points="230.2,185.4 231.4,191.6 230.5,193.4 229.3,187.3 				"/>
				<polygon class="st7" points="224.5,192 224.5,194.9 220.7,194.9 				"/>
				<polygon class="st7" points="253,191.2 252.6,195.1 255,195 				"/>
				<polygon class="st7" points="244.4,192.5 245.3,194.5 248.6,188 				"/>
				<polygon class="st7" points="245,195 242.2,195.1 243.1,191.9 				"/>
				<polygon class="st7" points="235.8,192.4 231.8,192.9 230.6,194.8 234.3,194.7 				"/>
				<polygon class="st7" points="237.1,188.5 234.4,191.9 236.6,191.6 				"/>
				<polygon class="st7" points="237.8,188.9 237.3,188 240.3,182 239.7,184.6 				"/>
				<polygon class="st7" points="250.8,182.2 251,183.3 250.1,185.3 249.9,187.9 249.6,186.4 247.5,188.5 				"/>
				<polygon class="st7" points="225,194 225.4,191.3 224.5,191.3 226.1,189.6 227.6,189.1 				"/>
				<polygon class="st7" points="230.6,184.9 229.8,185.3 229.7,183.1 230.2,181.5 				"/>
			</g>
		</g>
		<g class="st74">
			<line class="st75" x1="266.2" y1="358.6" x2="293.7" y2="319.7"/>
			<line class="st75" x1="76.7" y1="177.3" x2="104.2" y2="138.4"/>
			<line class="st75" x1="266.2" y1="138.4" x2="293.7" y2="177.3"/>
			<line class="st75" x1="75.8" y1="319.7" x2="103.4" y2="358.6"/>
		</g>
	</g>
</g>
</svg>
